<svg width="50" height="50" viewBox="0 0 50 50" fill="none" xmlns="http://www.w3.org/2000/svg">
<path d="M11.7188 23.4375C10.8696 23.4401 10.0355 23.6613 9.29659 24.0797C8.55771 24.4981 7.93899 25.0997 7.50001 25.8266L4.62892 30.6125C4.16779 31.3809 3.91885 32.2579 3.90751 33.1539C3.89617 34.0499 4.12284 34.9329 4.56437 35.7127C5.0059 36.4925 5.64648 37.1412 6.42069 37.5924C7.19489 38.0437 8.07499 38.2814 8.97111 38.2812H14.4688C15.3648 38.2812 16.2448 38.0434 17.0189 37.5921C17.793 37.1408 18.4335 36.4922 18.8749 35.7124C19.3163 34.9326 19.5429 34.0497 19.5316 33.1537C19.5202 32.2577 19.2713 31.3808 18.8102 30.6125L15.9375 25.8266C15.4985 25.0997 14.8798 24.4981 14.1409 24.0797C13.4021 23.6613 12.5679 23.4401 11.7188 23.4375ZM17.9688 33.218C17.9675 34.1459 17.5984 35.0355 16.9423 35.6918C16.2862 36.348 15.3967 36.7173 14.4688 36.7188H8.97111C8.35149 36.7189 7.74295 36.5545 7.20763 36.2426C6.6723 35.9306 6.22937 35.4821 5.92407 34.9429C5.61878 34.4037 5.46205 33.7932 5.4699 33.1736C5.47775 32.554 5.6499 31.9477 5.96876 31.4164L8.83985 26.6305C9.13843 26.1335 9.56057 25.7222 10.0652 25.4367C10.5698 25.1511 11.1397 25.0011 11.7195 25.0011C12.2993 25.0011 12.8693 25.1511 13.3739 25.4367C13.8785 25.7222 14.3007 26.1335 14.5992 26.6305L17.4703 31.4164C17.7968 31.9606 17.9691 32.5834 17.9688 33.218Z" fill="white"/>
<path d="M23.4375 22.3891C23.4377 21.706 23.3033 21.0296 23.042 20.3985C22.7808 19.7673 22.3977 19.1939 21.9147 18.7108C21.4318 18.2278 20.8584 17.8446 20.2273 17.5833C19.5962 17.3219 18.9198 17.1874 18.2367 17.1875C17.3047 17.1863 16.3839 17.3907 15.5399 17.7861C14.696 18.1815 13.9496 18.7582 13.3539 19.475L12.6164 20.3602C12.3195 20.332 12.0203 20.3125 11.7188 20.3125C10.3801 20.3128 9.05667 20.5966 7.83551 21.145C6.61436 21.6934 5.52313 22.4942 4.6336 23.4945C2.15074 26.2854 0.779769 29.8911 0.781251 33.6266V34.7422C0.783494 37.7073 1.52743 40.6248 2.94531 43.2289C3.80486 44.8053 5.07325 46.1209 6.61711 47.0375C8.16097 47.9542 9.92328 48.4379 11.7188 48.4379C13.5142 48.4379 15.2765 47.9542 16.8204 47.0375C18.3643 46.1209 19.6326 44.8053 20.4922 43.2289C21.9101 40.6248 22.654 37.7073 22.6563 34.7422V33.6266C22.6564 31.2912 22.1197 28.9871 21.0875 26.8922L21.9141 26.0648C22.3984 25.5833 22.7824 25.0104 23.0438 24.3795C23.3053 23.7486 23.4391 23.072 23.4375 22.3891ZM11.7188 46.875C10.204 46.8754 8.71722 46.4676 7.41472 45.6944C6.11221 44.9212 5.04218 43.8112 4.31719 42.4813C3.94684 41.7973 3.62672 41.0874 3.35938 40.357C4.57707 41.0431 5.95077 41.4044 7.34844 41.4063H7.8125C7.8125 42.4423 8.22405 43.4358 8.95662 44.1684C9.68918 44.901 10.6827 45.3125 11.7188 45.3125C12.7548 45.3125 13.7483 44.901 14.4809 44.1684C15.2135 43.4358 15.625 42.4423 15.625 41.4063H16.0938C17.4898 41.4036 18.8618 41.0423 20.0781 40.357C19.81 41.0872 19.4897 41.7971 19.1195 42.4813C18.3946 43.8111 17.3247 44.921 16.0223 45.6942C14.72 46.4673 13.2333 46.8753 11.7188 46.875ZM14.0625 41.4063C14.0625 42.0279 13.8156 42.624 13.376 43.0635C12.9365 43.5031 12.3404 43.75 11.7188 43.75C11.0972 43.75 10.501 43.5031 10.0615 43.0635C9.62193 42.624 9.375 42.0279 9.375 41.4063H14.0625ZM21.0938 34.7422C21.0924 35.7856 20.9899 36.8264 20.7875 37.85C20.1864 38.49 19.4587 38.9978 18.6506 39.3411C17.8424 39.6844 16.9717 39.8555 16.0938 39.8438H7.34844C5.81279 39.8429 4.32583 39.3048 3.14531 38.3227C2.97248 38.1751 2.80742 38.0186 2.65078 37.8539C2.4479 36.8291 2.34507 35.7869 2.34375 34.7422V33.6266C2.34219 30.2732 3.57308 27.0363 5.80234 24.5313C6.54513 23.6957 7.45646 23.0269 8.47634 22.5689C9.49623 22.111 10.6015 21.8742 11.7195 21.8742C12.8375 21.8742 13.9428 22.111 14.9627 22.5689C15.9826 23.0269 16.8939 23.6957 17.6367 24.5313C19.8654 27.0365 21.0957 30.2734 21.0938 33.6266V34.7422ZM20.8086 24.9602L20.2875 25.482C19.8476 24.7803 19.3511 24.1156 18.8031 23.4945C17.616 22.1652 16.0779 21.1977 14.3656 20.7031L14.5539 20.4766C15.0031 19.9358 15.5661 19.5007 16.2026 19.2023C16.8392 18.9039 17.5337 18.7494 18.2367 18.75C18.9563 18.7498 19.6598 18.963 20.2582 19.3627C20.8566 19.7624 21.323 20.3305 21.5984 20.9953C21.8738 21.6601 21.9458 22.3917 21.8054 23.0975C21.6649 23.8032 21.3175 24.4514 20.8086 24.9602Z" fill="white"/>
<path d="M38.2812 20.3125C37.9805 20.3125 37.6812 20.332 37.3844 20.3602L36.6469 19.4742C36.0511 18.7576 35.3046 18.1812 34.4607 17.7859C33.6167 17.3907 32.696 17.1864 31.7641 17.1875C30.7356 17.1876 29.7302 17.4926 28.8751 18.0639C28.0199 18.6353 27.3534 19.4474 26.9597 20.3976C26.566 21.3477 26.4629 22.3933 26.6634 23.402C26.8638 24.4108 27.3589 25.3374 28.0859 26.0648L28.9125 26.8922C27.8803 28.9871 27.3436 31.2912 27.3437 33.6266V34.7422C27.346 37.7073 28.0899 40.6248 29.5078 43.2289C30.3674 44.8053 31.6357 46.1209 33.1796 47.0375C34.7235 47.9542 36.4858 48.4379 38.2812 48.4379C40.0767 48.4379 41.839 47.9542 43.3829 47.0375C44.9267 46.1209 46.1951 44.8053 47.0547 43.2289C48.4726 40.6248 49.2165 37.7073 49.2187 34.7422V33.6266C49.2202 29.8911 47.8493 26.2854 45.3664 23.4945C44.4769 22.4942 43.3856 21.6934 42.1645 21.145C40.9433 20.5966 39.6199 20.3128 38.2812 20.3125ZM29.1906 24.9602C28.682 24.4512 28.3357 23.803 28.1955 23.0973C28.0553 22.3916 28.1275 21.6601 28.4029 20.9955C28.6784 20.3308 29.1447 19.7627 29.743 19.363C30.3412 18.9633 31.0446 18.75 31.7641 18.75C32.4669 18.7493 33.1612 18.9034 33.7977 19.2014C34.4342 19.4994 34.9973 19.934 35.4469 20.4742L35.6359 20.7016C33.9227 21.1963 32.3838 22.1644 31.1961 23.4945C30.6478 24.1154 30.1514 24.7801 29.7117 25.482L29.1906 24.9602ZM38.2812 46.875C36.7665 46.8754 35.2797 46.4676 33.9772 45.6944C32.6747 44.9212 31.6047 43.8112 30.8797 42.4813C30.5096 41.7972 30.1895 41.0873 29.9219 40.357C31.1393 41.043 32.5127 41.4043 33.9101 41.4063H34.375C34.375 42.4423 34.7865 43.4358 35.5191 44.1684C36.2517 44.901 37.2452 45.3125 38.2812 45.3125C39.3172 45.3125 40.3108 44.901 41.0434 44.1684C41.7759 43.4358 42.1875 42.4423 42.1875 41.4063H42.6562C44.0523 41.4036 45.4243 41.0423 46.6406 40.357C46.3725 41.0872 46.0522 41.7971 45.682 42.4813C44.9571 43.8111 43.8872 44.921 42.5848 45.6942C41.2825 46.4673 39.7958 46.8753 38.2812 46.875ZM40.625 41.4063C40.625 42.0279 40.3781 42.624 39.9385 43.0635C39.499 43.5031 38.9028 43.75 38.2812 43.75C37.6596 43.75 37.0635 43.5031 36.624 43.0635C36.1844 42.624 35.9375 42.0279 35.9375 41.4063H40.625ZM47.6562 34.7422C47.6549 35.7856 47.5524 36.8264 47.35 37.85C46.7489 38.49 46.0212 38.9978 45.213 39.3411C44.4049 39.6844 43.5342 39.8555 42.6562 39.8438H33.9101C33.0317 39.8556 32.1604 39.6845 31.3517 39.3414C30.5429 38.9983 29.8144 38.4907 29.2125 37.8508C29.0102 36.8269 28.9076 35.7859 28.9062 34.7422V33.6266C28.9045 30.2733 30.1351 27.0364 32.3641 24.5313C33.1068 23.6957 34.0182 23.0269 35.038 22.5689C36.0579 22.111 37.1633 21.8742 38.2812 21.8742C39.3992 21.8742 40.5046 22.111 41.5244 22.5689C42.5443 23.0269 43.4556 23.6957 44.1984 24.5313C46.4274 27.0364 47.658 30.2733 47.6562 33.6266V34.7422Z" fill="white"/>
<path d="M38.2813 23.4375C37.4321 23.4401 36.598 23.6613 35.8591 24.0797C35.1202 24.4981 34.5015 25.0997 34.0625 25.8266L31.1914 30.6125C30.7304 31.3808 30.4814 32.2576 30.47 33.1535C30.4586 34.0494 30.6851 34.9323 31.1265 35.7121C31.5678 36.4918 32.2082 37.1405 32.9822 37.5918C33.7562 38.0432 34.6361 38.2811 35.532 38.2812H41.0305C41.9265 38.2812 42.8065 38.0434 43.5806 37.5921C44.3547 37.1408 44.9952 36.4922 45.4366 35.7124C45.8781 34.9326 46.1047 34.0497 46.0933 33.1537C46.0819 32.2577 45.833 31.3808 45.3719 30.6125L42.5 25.8266C42.061 25.0997 41.4423 24.4981 40.7034 24.0797C39.9646 23.6613 39.1304 23.4401 38.2813 23.4375ZM44.5313 33.218C44.53 34.1461 44.1608 35.0358 43.5045 35.692C42.8483 36.3483 41.9586 36.7175 41.0305 36.7188H35.532C34.9125 36.7187 34.3041 36.5543 33.7688 36.2423C33.2336 35.9302 32.7908 35.4817 32.4856 34.9425C32.1804 34.4034 32.0237 33.7929 32.0316 33.1734C32.0395 32.5539 32.2117 31.9476 32.5305 31.4164L35.4016 26.6305C35.7002 26.1335 36.1223 25.7222 36.6269 25.4367C37.1315 25.1511 37.7015 25.0011 38.2813 25.0011C38.8611 25.0011 39.431 25.1511 39.9356 25.4367C40.4402 25.7222 40.8624 26.1335 41.1609 26.6305L44.032 31.4164C44.3587 31.9605 44.5313 32.5833 44.5313 33.218Z" fill="white"/>
<path d="M27.3438 15.625C27.3438 15.1615 27.2063 14.7083 26.9488 14.3229C26.6912 13.9375 26.3252 13.6371 25.8969 13.4597C25.4686 13.2823 24.9974 13.2359 24.5428 13.3263C24.0881 13.4167 23.6705 13.6399 23.3427 13.9677C23.0149 14.2955 22.7917 14.7131 22.7013 15.1678C22.6109 15.6224 22.6573 16.0937 22.8347 16.5219C23.0121 16.9502 23.3125 17.3162 23.6979 17.5738C24.0833 17.8313 24.5365 17.9688 25 17.9688C25.6216 17.9688 26.2177 17.7218 26.6573 17.2823C27.0968 16.8427 27.3438 16.2466 27.3438 15.625ZM25 16.4063C24.8455 16.4063 24.6944 16.3604 24.566 16.2746C24.4375 16.1887 24.3374 16.0667 24.2782 15.924C24.2191 15.7812 24.2036 15.6241 24.2338 15.4726C24.2639 15.321 24.3383 15.1818 24.4476 15.0726C24.5568 14.9633 24.696 14.8889 24.8476 14.8588C24.9991 14.8286 25.1562 14.8441 25.299 14.9032C25.4417 14.9624 25.5637 15.0625 25.6496 15.191C25.7354 15.3194 25.7813 15.4705 25.7813 15.625C25.7813 15.8322 25.6989 16.0309 25.5524 16.1774C25.4059 16.3239 25.2072 16.4063 25 16.4063Z" fill="white"/>
<path d="M34.943 5.68206C32.3058 3.04527 28.7293 1.56396 25 1.56396C21.2708 1.56396 17.6942 3.04527 15.057 5.68206L16.1617 6.78752C17.3221 5.6264 18.6999 4.7053 20.2165 4.07687C21.733 3.44843 23.3584 3.12497 25 3.12497C26.6416 3.12497 28.267 3.44843 29.7836 4.07687C31.3001 4.7053 32.6779 5.6264 33.8383 6.78752L34.943 5.68206Z" fill="white"/>
<path d="M31.6305 8.99463C29.8714 7.23718 27.4866 6.25 25 6.25C22.5135 6.25 20.1286 7.23718 18.3695 8.99463L19.4742 10.0993C20.9404 8.63499 22.9278 7.81249 25 7.81249C27.0722 7.81249 29.0596 8.63499 30.5258 10.0993L31.6305 8.99463Z" fill="white"/>
<path d="M21.132 11.7623L22.2422 12.8623C22.6041 12.4997 23.034 12.2121 23.5072 12.0158C23.9804 11.8196 24.4877 11.7186 25 11.7186C25.5123 11.7186 26.0195 11.8196 26.4928 12.0158C26.966 12.2121 27.3959 12.4997 27.7578 12.8623L28.868 11.7623C28.3607 11.2534 27.758 10.8496 27.0944 10.5741C26.4308 10.2986 25.7193 10.1567 25.0008 10.1567C24.2822 10.1567 23.5708 10.2986 22.9072 10.5741C22.2435 10.8496 21.6408 11.2534 21.1336 11.7623H21.132Z" fill="white"/>
</svg>
