<svg width="50" height="50" viewBox="0 0 50 50" fill="none" xmlns="http://www.w3.org/2000/svg">
<path d="M46.9727 37.085C46.8284 37.0849 46.6855 37.1134 46.5522 37.1686C46.4189 37.2238 46.2978 37.3047 46.1958 37.4067C46.0938 37.5087 46.0128 37.6299 45.9576 37.7632C45.9024 37.8964 45.874 38.0393 45.874 38.1836V45.874H38.1836C37.8922 45.874 37.6128 45.9898 37.4067 46.1958C37.2007 46.4018 37.085 46.6813 37.085 46.9727C37.085 47.264 37.2007 47.5435 37.4067 47.7495C37.6128 47.9555 37.8922 48.0713 38.1836 48.0713H46.9727C47.1169 48.0713 47.2598 48.0429 47.3931 47.9877C47.5264 47.9325 47.6475 47.8516 47.7495 47.7495C47.8516 47.6475 47.9325 47.5264 47.9877 47.3931C48.0429 47.2598 48.0713 47.1169 48.0713 46.9727V38.1836C48.0713 38.0393 48.0429 37.8964 47.9877 37.7632C47.9325 37.6299 47.8516 37.5087 47.7495 37.4067C47.6475 37.3047 47.5264 37.2238 47.3931 37.1686C47.2598 37.1134 47.1169 37.0849 46.9727 37.085Z" fill="white"/>
<path d="M11.8164 45.874H4.12598V38.1836C4.12598 37.8922 4.01023 37.6128 3.80419 37.4067C3.59816 37.2007 3.31872 37.085 3.02734 37.085C2.73597 37.085 2.45653 37.2007 2.25049 37.4067C2.04446 37.6128 1.92871 37.8922 1.92871 38.1836V46.9727C1.9287 47.1169 1.95711 47.2598 2.01232 47.3931C2.06752 47.5264 2.14845 47.6475 2.25047 47.7495C2.35249 47.8516 2.4736 47.9325 2.6069 47.9877C2.7402 48.0429 2.88307 48.0713 3.02734 48.0713H11.8164C12.1078 48.0713 12.3872 47.9555 12.5933 47.7495C12.7993 47.5435 12.915 47.264 12.915 46.9727C12.915 46.6813 12.7993 46.4018 12.5933 46.1958C12.3872 45.9898 12.1078 45.874 11.8164 45.874Z" fill="white"/>
<path d="M46.9727 1.92871H38.1836C37.8922 1.92871 37.6128 2.04446 37.4067 2.25049C37.2007 2.45653 37.085 2.73597 37.085 3.02734C37.085 3.31872 37.2007 3.59816 37.4067 3.80419C37.6128 4.01023 37.8922 4.12598 38.1836 4.12598H45.874V11.8164C45.874 12.1078 45.9898 12.3872 46.1958 12.5933C46.4018 12.7993 46.6813 12.915 46.9727 12.915C47.264 12.915 47.5435 12.7993 47.7495 12.5933C47.9555 12.3872 48.0713 12.1078 48.0713 11.8164V3.02734C48.0713 2.88307 48.0429 2.7402 47.9877 2.6069C47.9325 2.4736 47.8516 2.35249 47.7495 2.25047C47.6475 2.14845 47.5264 2.06752 47.3931 2.01232C47.2598 1.95711 47.1169 1.9287 46.9727 1.92871Z" fill="white"/>
<path d="M3.02734 12.915C3.17162 12.9151 3.31449 12.8866 3.44779 12.8314C3.58108 12.7762 3.7022 12.6953 3.80422 12.5933C3.90624 12.4913 3.98716 12.3701 4.04237 12.2368C4.09758 12.1036 4.12599 11.9607 4.12598 11.8164V4.12598H11.8164C12.1078 4.12598 12.3872 4.01023 12.5933 3.80419C12.7993 3.59816 12.915 3.31872 12.915 3.02734C12.915 2.73597 12.7993 2.45653 12.5933 2.25049C12.3872 2.04446 12.1078 1.92871 11.8164 1.92871H3.02734C2.88307 1.9287 2.7402 1.95711 2.6069 2.01232C2.4736 2.06752 2.35249 2.14845 2.25047 2.25047C2.14845 2.35249 2.06752 2.4736 2.01232 2.6069C1.95711 2.7402 1.9287 2.88307 1.92871 3.02734V11.8164C1.9287 11.9607 1.95711 12.1036 2.01232 12.2368C2.06752 12.3701 2.14845 12.4913 2.25047 12.5933C2.35249 12.6953 2.4736 12.7762 2.6069 12.8314C2.7402 12.8866 2.88307 12.9151 3.02734 12.915Z" fill="white"/>
<path d="M42.7979 27.7159V22.2837C42.7979 21.9923 42.6821 21.7129 42.4761 21.5068C42.27 21.3008 41.9906 21.1851 41.6992 21.1851C41.4078 21.1851 41.1284 21.3008 40.9224 21.5068C40.7163 21.7129 40.6006 21.9923 40.6006 22.2837V27.7159C40.6006 28.0073 40.7163 28.2867 40.9224 28.4928C41.1284 28.6988 41.4078 28.8145 41.6992 28.8145C41.9906 28.8145 42.27 28.6988 42.4761 28.4928C42.6821 28.2867 42.7979 28.0073 42.7979 27.7159Z" fill="white"/>
<path d="M38.0273 29.6702V20.3301C38.0273 20.0387 37.9116 19.7593 37.7056 19.5532C37.4995 19.3472 37.2201 19.2314 36.9287 19.2314C36.6373 19.2314 36.3579 19.3472 36.1519 19.5532C35.9458 19.7593 35.8301 20.0387 35.8301 20.3301V29.6702C35.8301 29.9616 35.9458 30.241 36.1519 30.447C36.3579 30.6531 36.6373 30.7688 36.9287 30.7688C37.2201 30.7688 37.4995 30.6531 37.7056 30.447C37.9116 30.241 38.0273 29.9616 38.0273 29.6702Z" fill="white"/>
<path d="M32.1574 17.3638C32.0131 17.3638 31.8703 17.3922 31.737 17.4474C31.6037 17.5026 31.4826 17.5835 31.3805 17.6855C31.2785 17.7875 31.1976 17.9087 31.1424 18.042C31.0872 18.1753 31.0588 18.3181 31.0588 18.4624V31.5379C31.0588 31.8292 31.1745 32.1087 31.3806 32.3147C31.5866 32.5207 31.866 32.6365 32.1574 32.6365C32.4488 32.6365 32.7282 32.5207 32.9343 32.3147C33.1403 32.1087 33.2561 31.8292 33.2561 31.5379V18.4624C33.2561 18.3181 33.2277 18.1753 33.1725 18.042C33.1172 17.9087 33.0363 17.7875 32.9343 17.6855C32.8323 17.5835 32.7112 17.5026 32.5779 17.4474C32.4446 17.3922 32.3017 17.3638 32.1574 17.3638Z" fill="white"/>
<path d="M27.3861 15.4951C27.2418 15.4951 27.099 15.5235 26.9657 15.5787C26.8324 15.6339 26.7112 15.7149 26.6092 15.8169C26.5072 15.9189 26.4263 16.04 26.3711 16.1733C26.3159 16.3066 26.2875 16.4495 26.2875 16.5938V33.4054C26.2875 33.6968 26.4032 33.9762 26.6092 34.1823C26.8153 34.3883 27.0947 34.504 27.3861 34.504C27.6775 34.504 27.9569 34.3883 28.1629 34.1823C28.369 33.9762 28.4847 33.6968 28.4847 33.4054V16.5938C28.4847 16.4495 28.4563 16.3066 28.4011 16.1733C28.3459 16.04 28.265 15.9189 28.163 15.8169C28.0609 15.7149 27.9398 15.6339 27.8065 15.5787C27.6732 15.5235 27.5304 15.4951 27.3861 15.4951Z" fill="white"/>
<path d="M22.6148 19.9258C22.4705 19.9258 22.3276 19.9542 22.1943 20.0094C22.061 20.0646 21.9399 20.1455 21.8379 20.2475C21.7359 20.3496 21.6549 20.4707 21.5997 20.604C21.5445 20.7373 21.5161 20.8801 21.5161 21.0244V28.9758C21.5161 29.2671 21.6319 29.5466 21.8379 29.7526C22.0439 29.9586 22.3234 30.0744 22.6148 30.0744C22.9061 30.0744 23.1856 29.9586 23.3916 29.7526C23.5976 29.5466 23.7134 29.2671 23.7134 28.9758V21.0244C23.7134 20.8801 23.685 20.7373 23.6298 20.604C23.5746 20.4707 23.4937 20.3496 23.3916 20.2475C23.2896 20.1455 23.1685 20.0646 23.0352 20.0094C22.9019 19.9542 22.759 19.9258 22.6148 19.9258Z" fill="white"/>
<path d="M17.8434 14.2603C17.6992 14.2602 17.5563 14.2887 17.423 14.3439C17.2897 14.3991 17.1686 14.48 17.0666 14.582C16.9645 14.684 16.8836 14.8051 16.8284 14.9384C16.7732 15.0717 16.7448 15.2146 16.7448 15.3589V34.6416C16.7448 34.933 16.8606 35.2124 17.0666 35.4185C17.2726 35.6245 17.5521 35.7402 17.8434 35.7402C18.1348 35.7402 18.4143 35.6245 18.6203 35.4185C18.8263 35.2124 18.9421 34.933 18.9421 34.6416V15.3589C18.9421 15.2146 18.9137 15.0717 18.8585 14.9384C18.8033 14.8051 18.7223 14.684 18.6203 14.582C18.5183 14.48 18.3972 14.3991 18.2639 14.3439C18.1306 14.2887 17.9877 14.2602 17.8434 14.2603Z" fill="white"/>
<path d="M13.0721 17.0151C12.9278 17.0151 12.785 17.0435 12.6517 17.0987C12.5184 17.1539 12.3973 17.2349 12.2952 17.3369C12.1932 17.4389 12.1123 17.56 12.0571 17.6933C12.0019 17.8266 11.9735 17.9695 11.9735 18.1138V31.887C11.9735 32.1784 12.0892 32.4578 12.2953 32.6639C12.5013 32.8699 12.7807 32.9856 13.0721 32.9856C13.3635 32.9856 13.6429 32.8699 13.849 32.6639C14.055 32.4578 14.1707 32.1784 14.1707 31.887V18.1138C14.1708 17.9695 14.1423 17.8266 14.0871 17.6933C14.0319 17.56 13.951 17.4389 13.849 17.3369C13.747 17.2349 13.6259 17.1539 13.4926 17.0987C13.3593 17.0435 13.2164 17.0151 13.0721 17.0151Z" fill="white"/>
<path d="M7.20215 20.8682V29.1319C7.20215 29.4233 7.3179 29.7028 7.52393 29.9088C7.72996 30.1148 8.00941 30.2306 8.30078 30.2306C8.59216 30.2306 8.8716 30.1148 9.07763 29.9088C9.28367 29.7028 9.39941 29.4233 9.39941 29.1319V20.8682C9.39941 20.5768 9.28367 20.2973 9.07763 20.0913C8.8716 19.8853 8.59216 19.7695 8.30078 19.7695C8.00941 19.7695 7.72996 19.8853 7.52393 20.0913C7.3179 20.2973 7.20215 20.5768 7.20215 20.8682Z" fill="white"/>
</svg>
