<svg width="50" height="50" viewBox="0 0 50 50" fill="none" xmlns="http://www.w3.org/2000/svg">
<path d="M0.732422 49.2676V0.732422" stroke="white" stroke-width="2" stroke-miterlimit="10" stroke-linecap="round" stroke-linejoin="round"/>
<path d="M2.93018 31.7106V30.2524" stroke="white" stroke-width="2" stroke-miterlimit="10" stroke-linecap="round" stroke-linejoin="round"/>
<path d="M2.93018 25.7287V24.2705" stroke="white" stroke-width="2" stroke-miterlimit="10" stroke-linecap="round" stroke-linejoin="round"/>
<path d="M2.93018 19.7473V18.2891" stroke="white" stroke-width="2" stroke-miterlimit="10" stroke-linecap="round" stroke-linejoin="round"/>
<path d="M5.12783 38.4327V7.24922C5.12783 6.73486 4.71084 6.31787 4.19648 6.31787H0.732422V43.6821H4.19658C4.71094 43.6821 5.12793 43.2651 5.12793 42.7508V41.2646" stroke="white" stroke-width="2" stroke-miterlimit="10" stroke-linecap="round" stroke-linejoin="round"/>
<path d="M5.19257 25H47.6027" stroke="white" stroke-width="2" stroke-miterlimit="10" stroke-linecap="round" stroke-linejoin="round"/>
<path d="M40.8639 24.7236C39.9912 17.395 39.1078 10.1562 37.3627 10.1562C33.8287 10.1562 33.8287 39.8434 30.2948 39.8434C26.7607 39.8434 26.7607 10.1562 23.2267 10.1562C19.6925 10.1562 19.6925 39.8434 16.1582 39.8434C12.6238 39.8434 12.6238 10.1562 9.08946 10.1562C7.33174 10.1562 6.44815 17.4987 5.56924 24.8806" stroke="white" stroke-width="2" stroke-miterlimit="10" stroke-linecap="round" stroke-linejoin="round"/>
<path d="M47.0329 27.0015L49.2676 25L47.0329 22.9985" stroke="white" stroke-width="2" stroke-miterlimit="10" stroke-linecap="round" stroke-linejoin="round"/>
<path d="M38.7661 7.0835L41.0478 3.96289H47.3347" stroke="white" stroke-width="2" stroke-miterlimit="10" stroke-linecap="round" stroke-linejoin="round"/>
<path d="M47.3347 6.34863H42.4297" stroke="white" stroke-width="2" stroke-miterlimit="10" stroke-linecap="round" stroke-linejoin="round"/>
<path d="M47.3347 8.62061H42.4297" stroke="white" stroke-width="2" stroke-miterlimit="10" stroke-linecap="round" stroke-linejoin="round"/>
<path d="M16.6927 42.9165L14.4109 46.0371H8.12402" stroke="white" stroke-width="2" stroke-miterlimit="10" stroke-linecap="round" stroke-linejoin="round"/>
<path d="M8.12402 43.6514H13.029" stroke="white" stroke-width="2" stroke-miterlimit="10" stroke-linecap="round" stroke-linejoin="round"/>
<path d="M8.12402 41.3794H13.029" stroke="white" stroke-width="2" stroke-miterlimit="10" stroke-linecap="round" stroke-linejoin="round"/>
</svg>
