<svg xmlns="http://www.w3.org/2000/svg" xmlns:xlink="http://www.w3.org/1999/xlink" width="66" height="59.999" viewBox="0 0 66 59.999">
  <defs>
    <linearGradient id="linear-gradient" y1="0.5" x2="1" y2="0.5" gradientUnits="objectBoundingBox">
      <stop offset="0" stop-color="#1e88ba"/>
      <stop offset="1" stop-color="#38bfae"/>
    </linearGradient>
  </defs>
  <path id="Gradient_Overlay" data-name="Gradient Overlay" d="M547.527,2363a1.522,1.522,0,1,1,0-3.045h62.946a1.522,1.522,0,1,1,0,3.045Zm36.117-18.67v-13.177a1.524,1.524,0,0,1,1.526-1.522h19.274a1.525,1.525,0,0,1,1.527,1.522v1.355h4.5A1.525,1.525,0,0,1,612,2334.03v8.515a1.526,1.526,0,0,1-1.527,1.523h-4.5v.261a11.164,11.164,0,0,1-22.328,0Zm3.054,0a8.11,8.11,0,0,0,16.221,0v-11.654H586.7Zm19.274-3.307h2.974v-5.47h-2.974Zm-59.685-9.085V2324.6a1.525,1.525,0,0,1,1.526-1.523h4.5l-5.823-10.122a1.526,1.526,0,0,1,2.649-1.515l6.7,11.637h36.109a1.526,1.526,0,0,1,1.527,1.523v1.792a1.527,1.527,0,0,1-3.054,0v-.27H557.584l6.1,10.609a5.209,5.209,0,0,1,5.667,2.46l1.526,2.634a5.2,5.2,0,0,1-9.014,5.189l-1.526-2.635a5.189,5.189,0,0,1,.7-6.133l-6.977-12.126H549.34v5.811a20.522,20.522,0,0,0,30.484,17.9,1.524,1.524,0,1,1,1.489,2.659,23.577,23.577,0,0,1-35.026-20.556Zm17.564,7.952-.084.046a2.142,2.142,0,0,0-.782,2.927l1.526,2.634a2.165,2.165,0,0,0,1.873,1.069,2.141,2.141,0,0,0,1.852-3.214l-1.526-2.633a2.165,2.165,0,0,0-1.873-1.07A2.112,2.112,0,0,0,563.851,2339.89Zm12.952,7.218a1.522,1.522,0,1,1,0-3.045h.211a1.522,1.522,0,1,1,0,3.045Zm-21.693-6.649a1.522,1.522,0,1,1,0-3.045h.211a1.522,1.522,0,1,1,0,3.045Zm20.376-1.85a1.522,1.522,0,1,1,0-3.045h.211a1.522,1.522,0,1,1,0,3.045Zm23.755-12.926a1.52,1.52,0,0,1-.156-2.147c1.243-1.432,1.169-4.71-.151-6.746-1.78-2.745-2.156-7.658.151-10.319a1.525,1.525,0,0,1,2.309,1.992c-1.219,1.407-1.168,4.712.1,6.674,1.841,2.839,2.238,7.691-.1,10.391a1.53,1.53,0,0,1-2.154.156Zm-7.7-6.5a6.706,6.706,0,0,0-.9-2.392c-1.78-2.745-2.156-7.658.151-10.319a1.525,1.525,0,0,1,2.309,1.992c-1.219,1.407-1.168,4.712.1,6.674a9.665,9.665,0,0,1,1.345,3.5,1.527,1.527,0,0,1-3,.546Zm-13.437.1a1.524,1.524,0,0,1-1.409-1.632l.874-11.6H557.85l.377,5a13.543,13.543,0,0,1,10.3,1.112,9.326,9.326,0,0,0,3.316,1.081,1.523,1.523,0,0,1-.213,3.03,1.474,1.474,0,0,1-.219-.016,12.267,12.267,0,0,1-4.43-1.469c-2.479-1.45-6.342-1.648-8.516-.548l.063.835a1.527,1.527,0,0,1-3.046.228l-.8-10.667A1.524,1.524,0,0,1,556.2,2303h23.01a1.524,1.524,0,0,1,1.523,1.636l-1,13.237a1.525,1.525,0,0,1-1.521,1.408C578.18,2319.282,578.141,2319.281,578.1,2319.278Z" transform="translate(-546 -2303)" fill="url(#linear-gradient)"/>
</svg>
