<?xml version="1.0" encoding="iso-8859-1"?>
<!-- Generator: Adobe Illustrator 19.0.0, SVG Export Plug-In . SVG Version: 6.00 Build 0)  -->
<svg version="1.1" id="Layer_1" xmlns="http://www.w3.org/2000/svg" xmlns:xlink="http://www.w3.org/1999/xlink" x="0px" y="0px"
	 viewBox="0 0 512 512" style="enable-background:new 0 0 512 512;" xml:space="preserve">
<g>
	<g>
		<path d="M482.042,462.979H29.958c-4.512,0-8.17,3.657-8.17,8.17c0,4.513,3.658,8.17,8.17,8.17h5.215
			C43.373,497.932,64.192,512,84.426,512h343.148c20.235,0,41.054-14.068,49.252-32.681h5.216c4.513,0,8.17-3.657,8.17-8.17
			C490.212,466.636,486.555,462.979,482.042,462.979z M427.574,495.66H84.426c-11.171,0-23.3-6.89-30.395-16.34h403.939
			C450.876,488.769,438.747,495.66,427.574,495.66z"/>
	</g>
</g>
<g>
	<g>
		<circle cx="320.272" cy="364.935" r="8.17"/>
	</g>
</g>
<g>
	<g>
		<circle cx="287.591" cy="397.616" r="8.17"/>
	</g>
</g>
<g>
	<g>
		<path d="M138.866,323.407l-8.17-98.042c-0.353-4.234-3.892-7.492-8.142-7.492H111.66c-31.536,0-57.191,25.657-57.191,57.191
			s25.657,57.191,57.191,57.191h19.064c2.284,0,4.465-0.956,6.012-2.638C138.283,327.936,139.055,325.685,138.866,323.407z
			 M111.66,315.915c-22.526,0-40.851-18.325-40.851-40.851c0-22.526,18.326-40.851,40.851-40.851h3.376l6.808,81.702H111.66z"/>
	</g>
</g>
<g>
	<g>
		<path d="M400.908,155.15c-1.548-1.682-3.728-2.638-6.013-2.638H117.108c-2.284,0-4.465,0.956-6.012,2.638
			c-1.547,1.681-2.319,3.933-2.13,6.21l1.986,23.835c-49.231,0.381-89.164,40.549-89.164,89.869
			c0,49.555,40.317,89.872,89.872,89.872h14.271l0.756,9.074c3.337,40.047,38.745,72.628,78.932,72.628h100.766
			c40.186,0,75.595-32.581,78.931-72.628l17.722-212.651C403.227,159.082,402.455,156.831,400.908,155.15z M369.03,372.654
			c-2.648,31.785-30.752,57.645-62.647,57.645H205.617c-31.895,0-59.999-25.859-62.647-57.645l-1.381-16.566
			c-0.353-4.234-3.893-7.492-8.142-7.492H111.66c-40.546,0-73.532-32.986-73.532-73.532s32.987-73.532,73.532-73.532h8.17
			c2.284,0,4.465-0.956,6.012-2.638c1.547-1.681,2.319-3.933,2.13-6.21l-1.986-23.832h260.028L369.03,372.654z"/>
	</g>
</g>
<g>
	<g>
		<path d="M228.766,98.043c0-12.895,3.324-18.99,7.172-26.046c4.298-7.878,9.168-16.807,9.168-33.869
			c0-17.028-4.852-25.954-9.144-33.82C234.584,1.744,231.878,0,228.763,0c-4.512,0-8.17,3.658-8.17,8.17
			c0,1.424,0.366,2.762,1.007,3.927c3.845,7.051,7.167,13.144,7.167,26.031c0,12.895-3.324,18.99-7.172,26.045
			c-4.298,7.878-9.168,16.807-9.168,33.869c0,17.062,4.87,25.99,9.167,33.868c1.483,2.719,4.287,4.259,7.18,4.259
			c1.321,0,2.662-0.321,3.904-0.999c3.962-2.16,5.422-7.123,3.26-11.084C232.09,117.031,228.766,110.938,228.766,98.043z"/>
	</g>
</g>
<g>
	<g>
		<path d="M283.234,98.043c0-12.895,3.324-18.99,7.172-26.046c4.297-7.878,9.168-16.807,9.168-33.869
			c0-17.028-4.852-25.954-9.144-33.82C289.052,1.744,286.346,0,283.231,0c-4.512,0-8.17,3.658-8.17,8.17
			c0,1.424,0.366,2.762,1.007,3.927c3.845,7.051,7.167,13.144,7.167,26.031c0,12.895-3.324,18.99-7.172,26.045
			c-4.298,7.878-9.168,16.807-9.168,33.869c0,17.062,4.87,25.99,9.167,33.868c1.483,2.719,4.287,4.259,7.18,4.259
			c1.321,0,2.662-0.321,3.904-0.999c3.962-2.16,5.422-7.123,3.26-11.084C286.558,117.031,283.234,110.938,283.234,98.043z"/>
	</g>
</g>
<g>
</g>
<g>
</g>
<g>
</g>
<g>
</g>
<g>
</g>
<g>
</g>
<g>
</g>
<g>
</g>
<g>
</g>
<g>
</g>
<g>
</g>
<g>
</g>
<g>
</g>
<g>
</g>
<g>
</g>
</svg>
