<?xml version="1.0" encoding="iso-8859-1"?>
<!-- Generator: Adobe Illustrator 19.0.0, SVG Export Plug-In . SVG Version: 6.00 Build 0)  -->
<svg version="1.1" id="Layer_1" xmlns="http://www.w3.org/2000/svg" xmlns:xlink="http://www.w3.org/1999/xlink" x="0px" y="0px"
	 viewBox="0 0 512 512" style="enable-background:new 0 0 512 512;" xml:space="preserve">
<g>
	<g>
		<path d="M177.557,193.635c-3.984-1.689-8.584,0.168-10.274,4.154c-1.691,3.985,0.168,8.585,4.152,10.276
			c19.55,8.295,32.183,26.885,32.183,47.36c0,4.329,3.509,7.837,7.837,7.837c4.328,0,7.837-3.508,7.837-7.837
			C219.292,228.646,202.91,204.391,177.557,193.635z"/>
	</g>
</g>
<g>
	<g>
		<path d="M431.225,300.405c-1.94-7.722-5.029-15.051-9.181-21.786c-1.427-2.315-3.952-3.725-6.672-3.725h-27.384
			c-4.328,0-7.837,3.509-7.837,7.837c0.001,4.329,3.51,7.837,7.838,7.837h22.832c2.259,4.313,4.004,8.891,5.201,13.658
			c0.893,3.556,4.087,5.929,7.595,5.929c0.632,0,1.275-0.077,1.915-0.238C429.732,308.86,432.28,304.603,431.225,300.405z"/>
	</g>
</g>
<g>
	<g>
		<path d="M187.624,172.52v-15.785c0-4.329-3.509-7.837-7.837-7.837s-7.837,3.508-7.837,7.837v26.55l5.135,1.887
			c29.909,10.989,50.006,39.221,50.006,70.253v16.695H72.702v-16.695c0-31.031,20.096-59.265,50.005-70.253l5.135-1.887v-66.173
			c1.053,0.174,2.13,0.283,3.235,0.283h37.64c1.104,0,2.181-0.109,3.234-0.283v4.097c0,4.329,3.509,7.837,7.837,7.837
			c4.328,0,7.837-3.508,7.837-7.837v-103.2c0-9.93-8.482-18.008-18.907-18.008h-37.64c-10.426,0-18.908,8.078-18.908,18.008V172.52
			c-33.2,14.486-55.139,47.142-55.139,82.904v230.715c0,14.26,11.808,25.861,26.322,25.861h133.091
			c14.514,0,26.321-11.602,26.321-25.861V255.424C242.763,219.662,220.824,187.007,187.624,172.52z M127.841,18.008
			c0-1.104,1.328-2.334,3.235-2.334h37.64c1.906,0,3.234,1.231,3.234,2.334v10.644c-0.118-0.006-0.235-0.019-0.355-0.019h-43.754
			V18.008z M127.841,52.465v-8.159h43.754c0.12,0,0.237-0.013,0.355-0.019v8.176v46.922c0,1.104-1.328,2.333-3.234,2.333h-37.64
			c-1.906,0-3.235-1.23-3.235-2.333V52.465z M72.702,287.793H227.09v105.4H72.702V287.793z M227.091,486.139h-0.001
			c0,5.617-4.776,10.188-10.648,10.188H83.351c-5.872,0-10.649-4.57-10.649-10.188V472.92h70.729c4.328,0,7.837-3.508,7.837-7.837
			c0-4.329-3.509-7.837-7.837-7.837H72.703v-48.38h154.388V486.139z"/>
	</g>
</g>
<g>
	<g>
		<path d="M184.947,310.857h-68.509c-4.328,0-7.837,3.508-7.837,7.837c0,4.329,3.51,7.837,7.838,7.837h68.508
			c4.328,0,7.837-3.508,7.837-7.837C192.784,314.365,189.275,310.857,184.947,310.857z"/>
	</g>
</g>
<g>
	<g>
		<path d="M172.192,344.294h-42.998c-4.328,0-7.837,3.508-7.837,7.837s3.509,7.837,7.837,7.837h42.998
			c4.328,0,7.837-3.508,7.837-7.837S176.52,344.294,172.192,344.294z"/>
	</g>
</g>
<g>
	<g>
		<path d="M183.332,457.246h-18.778c-4.328,0-7.837,3.508-7.837,7.837c0,4.328,3.509,7.837,7.837,7.837h18.778
			c4.328,0,7.837-3.508,7.837-7.837C191.168,460.754,187.659,457.246,183.332,457.246z"/>
	</g>
</g>
<g>
	<g>
		<path d="M454.972,319.116c0-21.045-6.92-41.927-19.487-58.8c-3.191-4.283-8.284-6.839-13.623-6.839h-19.575
			c-4.328,0-7.837,3.508-7.837,7.837c0,4.329,3.509,7.837,7.837,7.837h19.575c0.413,0,0.807,0.198,1.053,0.529
			c10.565,14.186,16.383,31.743,16.383,49.437c0,45.641-37.132,82.773-82.773,82.773c-45.641,0-82.773-37.132-82.773-82.773
			c0-17.694,5.818-35.251,16.382-49.434c0.248-0.332,0.642-0.531,1.054-0.531h75.571c4.328,0,7.837-3.508,7.837-7.837
			c0-4.329-3.509-7.837-7.837-7.837H291.19c-5.339,0-10.431,2.556-13.624,6.841c-12.566,16.871-19.486,37.753-19.486,58.797
			c0,51.646,39.976,94.128,90.609,98.134v57.365c-18.06,1.106-37.188,6.162-43.721,17.696c-2.303,4.069-2.27,9.105,0.084,13.139
			c2.353,4.04,6.72,6.549,11.396,6.549h80.155c4.676,0,9.043-2.509,11.394-6.545c2.356-4.038,2.389-9.075,0.085-13.146
			c-6.531-11.531-25.659-16.589-43.719-17.694V417.25C414.996,413.244,454.972,370.762,454.972,319.116z M389.953,496.327h-66.854
			c5.994-3.245,17.39-6.279,33.426-6.279C372.564,490.048,383.959,493.081,389.953,496.327z"/>
	</g>
</g>
<g>
	<g>
		<path d="M428.497,328.555c-2.454-3.234-6.344-5.166-10.404-5.166H294.958c-4.06,0-7.95,1.932-10.406,5.167
			c-2.454,3.236-3.266,7.502-2.171,11.414c9.258,33.075,39.747,56.176,74.145,56.176c34.397,0,64.887-23.1,74.145-56.176
			C431.764,336.058,430.953,331.792,428.497,328.555z M356.525,380.472c-26.232,0-49.61-16.862-58.02-41.41h116.041
			C406.135,363.611,382.758,380.472,356.525,380.472z"/>
	</g>
</g>
<g>
</g>
<g>
</g>
<g>
</g>
<g>
</g>
<g>
</g>
<g>
</g>
<g>
</g>
<g>
</g>
<g>
</g>
<g>
</g>
<g>
</g>
<g>
</g>
<g>
</g>
<g>
</g>
<g>
</g>
</svg>
