<?xml version="1.0" encoding="utf-8"?>
<!-- Generator: Adobe Illustrator 16.0.0, SVG Export Plug-In . SVG Version: 6.00 Build 0)  -->
<!DOCTYPE svg PUBLIC "-//W3C//DTD SVG 1.1//EN" "http://www.w3.org/Graphics/SVG/1.1/DTD/svg11.dtd">
<svg version="1.1" id="Layer_1" xmlns="http://www.w3.org/2000/svg" xmlns:xlink="http://www.w3.org/1999/xlink" x="0px" y="0px"
	 width="25px" height="25px" viewBox="0 0 25 25" enable-background="new 0 0 25 25" xml:space="preserve">
<g id="minus-icon" transform="translate(-431 -2436)">
	<g id="minus-icon-2" transform="translate(431 2422.694)">
		<path id="Path_11" d="M22.083,22.806H2.965c-1.657,0-3,1.343-3,3c0,1.656,1.343,3,3,3h19.118c1.657,0,3-1.344,3-3
			C25.083,24.149,23.74,22.806,22.083,22.806z"/>
	</g>
	<path id="Color_Overlay_1_" fill="#FFFFFF" d="M446.501,2451.5h-12.536c-1.657,0-3-1.344-3-3c0-1.657,1.343-3,3-3l0,0h19.118
		c1.657,0,3,1.343,3,3c0,1.656-1.343,3-3,3H446.501z"/>
</g>
</svg>
