<?xml version="1.0" encoding="iso-8859-1"?>
<!-- Generator: Adobe Illustrator 17.1.0, SVG Export Plug-In . SVG Version: 6.00 Build 0)  -->
<!DOCTYPE svg PUBLIC "-//W3C//DTD SVG 1.1//EN" "http://www.w3.org/Graphics/SVG/1.1/DTD/svg11.dtd">
<svg version="1.1" id="Capa_1" xmlns="http://www.w3.org/2000/svg" xmlns:xlink="http://www.w3.org/1999/xlink" x="0px" y="0px"
	 viewBox="0 0 425.367 425.367" style="enable-background:new 0 0 425.367 425.367;" xml:space="preserve">
<path d="M418.282,312.757l-51.723-51.723c-16.727-16.726-36.381-29.564-58.416-38.16c-5.936-2.315-12.17-3.489-18.532-3.489
	c-11.096,0-21.651,3.518-30.391,10.025l-35.93-35.93L364.25,52.52l6.73,6.729c0.869,0.869,0.999,1.884,0.999,2.411
	s-0.13,1.542-0.999,2.41l-2.16,2.16c-2.929,2.93-2.929,7.678,0,10.607c1.464,1.464,3.384,2.196,5.303,2.196s3.839-0.732,5.303-2.196
	l2.16-2.16c3.477-3.477,5.392-8.1,5.392-13.018c0-4.917-1.915-9.54-5.392-13.018L357.52,24.575c-7.178-7.176-18.857-7.177-26.034,0
	l-2.16,2.16c-2.929,2.93-2.929,7.678,0,10.607c2.929,2.928,7.678,2.928,10.606,0l2.16-2.16c1.329-1.33,3.492-1.33,4.821,0l6.73,6.73
	l-140.96,140.959L71.724,41.913l6.73-6.73c1.329-1.33,3.492-1.33,4.821,0l2.16,2.16c2.929,2.928,7.678,2.928,10.606,0
	c2.929-2.93,2.929-7.678,0-10.607l-2.16-2.16c-7.178-7.176-18.857-7.177-26.034,0L43.781,48.643
	c-3.477,3.478-5.392,8.101-5.393,13.018c0,4.918,1.915,9.541,5.392,13.018l2.16,2.16c1.464,1.464,3.384,2.196,5.303,2.196
	s3.839-0.732,5.303-2.196c2.929-2.93,2.929-7.678,0-10.607l-2.16-2.16c-0.869-0.868-0.999-1.883-0.999-2.409
	c0-0.528,0.13-1.542,0.999-2.411l6.73-6.73l140.96,140.959l-35.93,35.93c-8.74-6.507-19.294-10.025-30.391-10.025
	c-6.361,0-12.596,1.174-18.531,3.489c-22.035,8.596-41.689,21.435-58.416,38.16L7.085,312.758c-9.447,9.447-9.447,24.819,0,34.268
	l52.052,52.051c4.576,4.577,10.661,7.098,17.134,7.098c6.472,0,12.557-2.521,17.133-7.097l51.723-51.723
	c16.725-16.726,29.564-36.379,38.162-58.416c6.435-16.499,3.801-34.968-6.541-48.917l35.936-35.936l35.936,35.936
	c-10.343,13.949-12.977,32.418-6.541,48.917c8.596,22.036,21.436,41.69,38.161,58.416l43.797,43.796
	c0.003,0.003,0.005,0.006,0.008,0.009s0.006,0.005,0.009,0.008l7.908,7.908c4.577,4.577,10.662,7.098,17.134,7.098
	c6.473,0,12.558-2.521,17.133-7.097l52.053-52.053C427.729,337.577,427.729,322.205,418.282,312.757z M169.314,283.488
	c-7.837,20.092-19.543,38.011-34.793,53.26l-51.723,51.724c-1.743,1.743-4.061,2.703-6.526,2.703s-4.783-0.96-6.527-2.704
	l-52.052-52.051c-3.599-3.6-3.599-9.456,0-13.055l2.595-2.595l52.41,52.41c1.464,1.464,3.384,2.196,5.303,2.196
	s3.839-0.732,5.303-2.196c2.929-2.93,2.929-7.678,0-10.607l-52.409-52.409l38.521-38.521c15.25-15.25,33.17-26.956,53.261-34.793
	c4.19-1.635,8.591-2.464,13.08-2.464c7.071,0,13.827,2.03,19.614,5.801l-39.2,39.2c-2.929,2.93-2.929,7.678,0,10.607
	c1.464,1.464,3.384,2.196,5.303,2.196s3.839-0.732,5.303-2.196l39.19-39.19C172.192,260.398,173.58,272.553,169.314,283.488z
	 M407.675,336.418l-52.053,52.053c-1.743,1.743-4.061,2.703-6.526,2.703s-4.783-0.96-6.527-2.704l-2.614-2.614l52.3-52.301
	c2.929-2.93,2.929-7.678,0-10.607c-2.929-2.928-7.678-2.928-10.606,0l-52.301,52.301l-38.502-38.502
	c-15.25-15.249-26.956-33.168-34.793-53.26c-4.266-10.934-2.878-23.089,3.347-32.684l39.19,39.19
	c1.464,1.464,3.384,2.196,5.303,2.196s3.839-0.732,5.303-2.196c2.929-2.93,2.929-7.678,0-10.607l-39.2-39.2
	c5.787-3.772,12.543-5.801,19.614-5.801c4.488,0,8.889,0.829,13.08,2.464c20.091,7.837,38.01,19.543,53.261,34.793l51.722,51.722
	C411.274,326.963,411.274,332.82,407.675,336.418z"/>
<g>
</g>
<g>
</g>
<g>
</g>
<g>
</g>
<g>
</g>
<g>
</g>
<g>
</g>
<g>
</g>
<g>
</g>
<g>
</g>
<g>
</g>
<g>
</g>
<g>
</g>
<g>
</g>
<g>
</g>
</svg>
