<?xml version="1.0" encoding="iso-8859-1"?>
<!-- Generator: Adobe Illustrator 19.0.0, SVG Export Plug-In . SVG Version: 6.00 Build 0)  -->
<svg version="1.1" id="Layer_1" xmlns="http://www.w3.org/2000/svg" xmlns:xlink="http://www.w3.org/1999/xlink" x="0px" y="0px"
	 viewBox="0 0 512.001 512.001" style="enable-background:new 0 0 512.001 512.001;" xml:space="preserve">
<g>
	<g>
		<path d="M389.84,161.106c-2.605-3.855-7.84-4.869-11.694-2.264c-3.856,2.605-4.869,7.841-2.265,11.697
			c17.076,25.276,26.102,54.828,26.102,85.464c0,84.292-68.576,152.868-152.867,152.868c-84.293,0-152.868-68.576-152.868-152.868
			s68.576-152.868,152.868-152.868c40.831,0,79.221,15.902,108.094,44.775c3.291,3.291,8.624,3.29,11.913,0
			c3.29-3.29,3.29-8.624,0-11.912c-32.056-32.058-74.675-49.712-120.007-49.712C155.534,86.285,79.4,162.419,79.4,256
			s76.133,169.716,169.715,169.716S418.83,349.582,418.83,256.001C418.83,221.992,408.806,189.177,389.84,161.106z"/>
	</g>
</g>
<g>
	<g>
		<path d="M249.116,143.368c-62.107,0-112.634,50.527-112.634,112.634s50.527,112.633,112.634,112.633
			c25.495,0,50.475-8.757,70.339-24.659c3.632-2.907,4.22-8.208,1.313-11.84c-2.909-3.632-8.21-4.221-11.84-1.312
			c-17.134,13.715-37.815,20.964-59.811,20.964c-52.816,0-95.787-42.97-95.787-95.787c0-52.818,42.971-95.787,95.787-95.787
			c52.816,0,95.786,42.97,95.786,95.787c0,20.303-6.268,39.698-18.129,56.087c-2.726,3.768-1.882,9.035,1.887,11.763
			c3.767,2.725,9.034,1.884,11.763-1.886c13.952-19.281,21.326-42.091,21.326-65.963
			C361.749,193.896,311.222,143.368,249.116,143.368z"/>
	</g>
</g>
<g>
	<g>
		<path d="M75.835,93.629c-4.77-0.143-8.682,3.682-8.682,8.42v63.295c0,4.618-3.743,8.362-8.362,8.362h-0.012
			c-4.618,0-8.362-3.743-8.362-8.362v-62.943c0-4.613-3.555-8.635-8.165-8.773c-4.77-0.143-8.682,3.682-8.682,8.42v63.295
			c0,4.618-3.743,8.362-8.362,8.362s-8.362-3.743-8.362-8.362v-62.943c0-4.613-3.555-8.635-8.165-8.773
			C3.911,93.487,0,97.312,0,102.049v80.081c0,11.209,4.365,21.755,12.301,29.705c5.911,5.901,13.27,9.824,21.27,11.445v103.042
			c-7.503,1.786-13.349,8.259-14,16.206l-4.223,50.888c-0.638,7.676,1.987,15.33,7.203,21c5.218,5.671,12.633,8.923,20.341,8.923
			c7.703,0,15.112-3.251,20.33-8.921c5.217-5.67,7.842-13.325,7.204-20.998l-4.213-50.9c-0.721-8.57-7.462-15.422-15.795-16.529
			V223.276c19.14-3.91,33.582-20.873,33.582-41.146v-79.728C84.001,97.789,80.446,93.767,75.835,93.629z M53.636,394.813
			c0.253,3.04-0.745,5.952-2.811,8.197c-2.067,2.245-4.883,3.482-7.933,3.482c-3.056,0-5.876-1.238-7.944-3.485
			c-2.065-2.245-3.064-5.154-2.81-8.196l4.223-50.899c0.058-0.701,0.657-1.249,1.366-1.249H48.06c0.706,0,1.306,0.557,1.365,1.257
			L53.636,394.813z M41.994,207.278c-6.715,0-13.033-2.616-17.782-7.354c-2.684-2.691-4.66-5.891-5.894-9.369h47.379
			C62.223,200.289,52.912,207.278,41.994,207.278z"/>
	</g>
</g>
<g>
	<g>
		<path d="M497.005,208.676c9.95-10.021,14.996-24.803,14.996-43.932c0-18.95-4.953-36.88-13.946-50.487
			c-9.704-14.681-22.958-22.766-37.325-22.766c-14.366,0-27.623,8.086-37.326,22.766c-8.993,13.607-13.946,31.536-13.946,50.487
			c0,19.13,5.045,33.91,14.996,43.932c7.128,7.178,16.651,11.626,27.853,13.09v104.356c-7.934,1.462-14.221,8.143-14.899,16.407
			l-4.223,50.888c-0.638,7.677,1.987,15.331,7.203,21c5.218,5.671,12.633,8.924,20.341,8.924c7.703,0,15.112-3.252,20.33-8.921
			c5.217-5.67,7.842-13.325,7.204-20.998l-4.213-50.9c-0.694-8.26-6.98-14.933-14.898-16.397V221.767
			C480.355,220.302,489.876,215.854,497.005,208.676z M471.472,394.813c0.254,3.04-0.745,5.952-2.811,8.197
			s-4.883,3.482-7.933,3.482c-3.056,0-5.876-1.238-7.944-3.484c-2.065-2.245-3.064-5.154-2.81-8.197l4.223-50.899
			c0.058-0.701,0.657-1.249,1.365-1.249h10.333c0.706,0,1.307,0.557,1.366,1.257L471.472,394.813z M460.729,205.458
			c-22.842,0-34.425-13.698-34.425-40.714c0-30.575,15.765-56.405,34.425-56.405c18.659,0,34.424,25.83,34.424,56.405
			C495.153,191.76,483.571,205.458,460.729,205.458z"/>
	</g>
</g>
<g>
</g>
<g>
</g>
<g>
</g>
<g>
</g>
<g>
</g>
<g>
</g>
<g>
</g>
<g>
</g>
<g>
</g>
<g>
</g>
<g>
</g>
<g>
</g>
<g>
</g>
<g>
</g>
<g>
</g>
</svg>
