<?xml version="1.0" encoding="iso-8859-1"?>
<!-- Generator: Adobe Illustrator 19.0.0, SVG Export Plug-In . SVG Version: 6.00 Build 0)  -->
<svg version="1.1" id="Layer_1" xmlns="http://www.w3.org/2000/svg" xmlns:xlink="http://www.w3.org/1999/xlink" x="0px" y="0px"
	 viewBox="0 0 489.701 489.701" style="enable-background:new 0 0 489.701 489.701;" xml:space="preserve">
<g>
	<g>
		<g>
			<rect x="154.186" y="304" width="23" height="15"/>
			<path d="M414.186,0v178.662c0.298,0.281,0.589,0.57,0.884,0.854c-0.296-0.284-0.587-0.573-0.885-0.855
				C397.423,162.9,375.204,153,350.811,153H109.1c-52.154,0-94.586,43.439-94.586,95.594C14.514,303.143,58.713,352,109.1,352
				h76.516l30.09-42.025l23.921,0.013L269.105,352h81.707c23.89,0,46.323-10.709,63.372-27.781v85.647
				c0,10.877-8.412,18.654-20.522,18.654c-9.203,0-16.563-4.52-19.416-15.52h0.001h9.938v-15h-59.686h-15.305h-10.009v15h10.351
				h15.317h33.706c3.363,19,18.077,30.825,35.451,30.825c20.689,0,36.174-14.499,36.174-33.959V303.592
				c0.491-0.821,0.977-1.646,1.448-2.479C438.635,288.712,443.351,275,444.858,260h15.328v0.305v142.672
				c0,40.818-26.913,71.419-63.968,71.419c-34.244,0-67.805-20.395-71.363-61.395h-15.317c3.462,44,38.786,76.7,86.528,76.7
				c45.029,0,79.121-37.996,79.121-86.724V0H414.186z M350.811,337h-73.673l-29.72-43.016l-39.519,0.003L177.665,337H109.1
				c-41.427,0-79.154-42.892-79.154-88.406C29.946,204.948,65.454,168,109.1,168h241.712c43.646,0,79.154,36.947,79.154,80.594
				C429.967,294.108,392.238,337,350.811,337z M460.186,245h-15.038c-0.834-15.998-5.69-31.16-13.515-44.41
				c-0.47-0.797-0.956-1.585-1.448-2.37c-3.966-6.33-8.609-12.249-13.856-17.489c0,0,0,0,0,0c5.248,5.24,9.891,11.16,13.857,17.49
				V115h30V245z M460.186,99.605V100h-30v-0.395V69h30V99.605z M460.186,53.69V54h-30v-0.31V15h30V53.69z"/>
			<path d="M349.389,189H117.316c-35.007,0-63.491,29.991-63.491,65.002c0,35.007,28.484,64.998,63.491,64.998h13.868v-15h-13.868
				C90.454,304,68.6,280.864,68.6,254.002C68.6,227.136,90.454,204,117.316,204h232.072c26.862,0,48.717,23.136,48.717,50.002
				c0,26.862-21.855,49.998-48.717,49.998h-65.203v15h65.203c35.007,0,63.491-29.991,63.491-64.998
				C412.879,218.991,384.395,189,349.389,189z"/>
			
				<rect x="325.949" y="210.323" transform="matrix(0.7071 0.7071 -0.7071 0.7071 275.7291 -162.2061)" width="15.43" height="82.814"/>
			
				<rect x="267.837" y="236.052" transform="matrix(0.7071 -0.7071 0.7071 0.7071 -88.33 274.2867)" width="38.184" height="15.43"/>
			<rect x="299.186" y="375" width="85" height="15"/>
		</g>
	</g>
</g>
<g>
</g>
<g>
</g>
<g>
</g>
<g>
</g>
<g>
</g>
<g>
</g>
<g>
</g>
<g>
</g>
<g>
</g>
<g>
</g>
<g>
</g>
<g>
</g>
<g>
</g>
<g>
</g>
<g>
</g>
</svg>
