<svg xmlns="http://www.w3.org/2000/svg" width="69.001" height="69.001" viewBox="0 0 69.001 69.001">
  <g id="turkey-icon" transform="translate(-340 -1412)">
    <g id="turkey-icon-2" data-name="turkey-icon" transform="translate(340 1401.852)">
      <g id="Group_12" data-name="Group 12">
        <g id="Group_11" data-name="Group 11">
          <path id="Path_19" data-name="Path 19" d="M38.155,23.361a6.267,6.267,0,0,1,.956-3.513,8.389,8.389,0,0,0,1.222-4.568,8.388,8.388,0,0,0-1.249-4.561,1.1,1.1,0,0,0-1.93,1.061,6.265,6.265,0,0,1,.977,3.507,6.268,6.268,0,0,1-.956,3.513,8.392,8.392,0,0,0-1.222,4.568A8.388,8.388,0,0,0,37.2,27.928a1.1,1.1,0,1,0,1.93-1.06A6.266,6.266,0,0,1,38.155,23.361Z" fill="none"/>
        </g>
      </g>
      <g id="Group_14" data-name="Group 14">
        <g id="Group_13" data-name="Group 13">
          <path id="Path_20" data-name="Path 20" d="M30.815,23.383a6.269,6.269,0,0,1,.956-3.513A8.389,8.389,0,0,0,32.993,15.3a8.39,8.39,0,0,0-1.249-4.561,1.1,1.1,0,0,0-1.93,1.06,6.265,6.265,0,0,1,.977,3.507,6.267,6.267,0,0,1-.956,3.513,8.391,8.391,0,0,0-1.222,4.568,8.39,8.39,0,0,0,1.249,4.561,1.1,1.1,0,0,0,1.93-1.06A6.267,6.267,0,0,1,30.815,23.383Z" fill="none"/>
        </g>
      </g>
      <g id="Group_16" data-name="Group 16">
        <g id="Group_15" data-name="Group 15">
          <ellipse id="Ellipse_1" data-name="Ellipse 1" cx="1.101" cy="1.101" rx="1.101" ry="1.101" transform="matrix(0.924, -0.383, 0.383, 0.924, 12.508, 55.797)" fill="none"/>
        </g>
      </g>
      <g id="Group_18" data-name="Group 18">
        <g id="Group_17" data-name="Group 17">
          <ellipse id="Ellipse_2" data-name="Ellipse 2" cx="1.101" cy="1.101" rx="1.101" ry="1.101" transform="matrix(0.223, -0.975, 0.975, 0.223, 17.032, 61.624)" fill="none"/>
        </g>
      </g>
      <g id="Group_20" data-name="Group 20">
        <g id="Group_19" data-name="Group 19">
          <path id="Path_21" data-name="Path 21" d="M65.7,65.2h-3.3V58.594A27.866,27.866,0,0,0,58.665,44.66l.474-2.792,3.092-3.093h2.732a4.037,4.037,0,1,0,0-8.074H64.6v-.367a4.037,4.037,0,1,0-8.074,0v2.732l-3.092,3.092-1.922.326A27.583,27.583,0,0,0,34.5,30.7,27.9,27.9,0,0,0,10.555,44.3a1.1,1.1,0,0,0-.148.251,27.72,27.72,0,0,0-3.8,14.041v3.3a1.1,1.1,0,1,0,2.2,0v-3.3a25.531,25.531,0,0,1,3.281-12.55l.074,0A4.289,4.289,0,0,1,15.2,47.274a6.542,6.542,0,0,0,8.809,0,4.369,4.369,0,0,1,6.081,0A6.7,6.7,0,0,0,33.434,48.9c-.021.293-.035.589-.035.887a12.111,12.111,0,0,0,24.05,2.034l.6-3.512a25.707,25.707,0,0,1,2.146,10.286V65.2H3.3a3.3,3.3,0,0,0,0,6.607H4.712l.8,2.409a7.6,7.6,0,0,0,6.842,4.931H56.644a7.594,7.594,0,0,0,6.842-4.931l.8-2.409H65.7a3.3,3.3,0,0,0,0-6.607ZM31.458,45.544a6.542,6.542,0,0,0-8.809,0,4.369,4.369,0,0,1-6.081,0,6.8,6.8,0,0,0-3.164-1.6A25.68,25.68,0,0,1,34.5,32.9a25.387,25.387,0,0,1,13.937,4.1l-4.96.842a12.062,12.062,0,0,0-9.688,8.88A4.57,4.57,0,0,1,31.458,45.544Zm25.875-4.985a1.1,1.1,0,0,0-.307.594l-1.748,10.3A9.909,9.909,0,0,1,35.6,49.786a10.027,10.027,0,0,1,.146-1.7c0-.021.007-.043.01-.064a9.868,9.868,0,0,1,8.088-8l9.738-1.653.636.636a1.1,1.1,0,1,0,1.557-1.557l-.26-.26L58.4,34.3a1.1,1.1,0,0,0,.323-.779V30.333a1.835,1.835,0,0,1,3.67,0V31.8a1.1,1.1,0,0,0,1.1,1.1h1.468a1.835,1.835,0,1,1,0,3.67H61.775a1.1,1.1,0,0,0-.779.322ZM65.7,69.605H14.314a1.1,1.1,0,0,0,0,2.2H61.967L61.4,73.52a5.428,5.428,0,0,1-4.753,3.425H12.356A5.428,5.428,0,0,1,7.6,73.52l-.571-1.713H9.91a1.1,1.1,0,0,0,0-2.2H3.3a1.1,1.1,0,0,1,0-2.2H65.7a1.1,1.1,0,0,1,0,2.2Z" fill="none"/>
        </g>
      </g>
      <g id="Group_22" data-name="Group 22">
        <g id="Group_21" data-name="Group 21">
          <ellipse id="Ellipse_3" data-name="Ellipse 3" cx="1.101" cy="1.101" rx="1.101" ry="1.101" transform="matrix(0.16, -0.987, 0.987, 0.16, 44.321, 55.028)" fill="none"/>
        </g>
      </g>
    </g>
    <path id="Color_Overlay" data-name="Color Overlay" d="M352.356,1481a7.6,7.6,0,0,1-6.841-4.932l-.8-2.409H343.3a3.3,3.3,0,0,1,0-6.606h56.888v-6.607a25.719,25.719,0,0,0-2.146-10.287l-.6,3.513a12.111,12.111,0,0,1-24.05-2.035c0-.3.014-.592.035-.887a6.709,6.709,0,0,1-3.34-1.625,4.37,4.37,0,0,0-6.081,0,6.541,6.541,0,0,1-8.808,0,4.292,4.292,0,0,0-3.041-1.231h-.074a25.533,25.533,0,0,0-3.281,12.551v3.3a1.1,1.1,0,1,1-2.2,0v-3.3a27.717,27.717,0,0,1,3.8-14.041,1.121,1.121,0,0,1,.148-.251,27.9,27.9,0,0,1,23.945-13.6,27.59,27.59,0,0,1,17.006,5.783l1.922-.326,3.092-3.092v-2.731a4.037,4.037,0,1,1,8.074,0v.366h.367a4.037,4.037,0,1,1,0,8.074h-2.732l-3.092,3.094-.473,2.791a27.873,27.873,0,0,1,3.729,13.935v6.607h3.3a3.3,3.3,0,1,1,0,6.606h-1.409l-.8,2.409a7.6,7.6,0,0,1-6.842,4.932Zm-4.752-5.628a5.428,5.428,0,0,0,4.752,3.425h44.287a5.428,5.428,0,0,0,4.753-3.425l.571-1.714H354.314a1.1,1.1,0,0,1,0-2.2H405.7a1.1,1.1,0,1,0,0-2.2H343.3a1.1,1.1,0,1,0,0,2.2h6.607a1.1,1.1,0,0,1,0,2.2h-2.877Zm36.24-33.5a9.867,9.867,0,0,0-8.087,8c0,.022-.006.043-.01.065a9.913,9.913,0,0,0,9.763,11.607,9.875,9.875,0,0,0,9.768-8.242l1.748-10.3a1.1,1.1,0,0,1,.307-.6l3.663-3.663a1.1,1.1,0,0,1,.779-.323h3.189a1.835,1.835,0,1,0,0-3.669H403.5a1.1,1.1,0,0,1-1.1-1.1v-1.47a1.835,1.835,0,0,0-3.67,0v3.189a1.108,1.108,0,0,1-.322.779l-2.885,2.884.26.259a1.1,1.1,0,1,1-1.557,1.557l-.636-.635ZM353.4,1445.8a6.807,6.807,0,0,1,3.163,1.6,4.37,4.37,0,0,0,6.081,0,6.539,6.539,0,0,1,8.808,0,4.585,4.585,0,0,0,2.331,1.182,12.065,12.065,0,0,1,9.689-8.88l4.96-.841a25.382,25.382,0,0,0-13.937-4.1A25.678,25.678,0,0,0,353.4,1445.8Zm4.7,17.923a1.1,1.1,0,1,1,.247.029A1.116,1.116,0,0,1,358.105,1463.722Zm-5.176-5.055a1.1,1.1,0,1,1,1.439.6,1.122,1.122,0,0,1-.421.083A1.1,1.1,0,0,1,352.93,1458.667Zm32.478-1.61a1.1,1.1,0,1,1,.177.014A1.2,1.2,0,0,1,385.408,1457.057ZM369.862,1429.8a9.051,9.051,0,0,1-.027-9.13,6.856,6.856,0,0,0-.022-7.02,1.1,1.1,0,0,1,1.931-1.06,9.048,9.048,0,0,1,.027,9.129,6.862,6.862,0,0,0,.021,7.022,1.1,1.1,0,0,1-1.93,1.06Zm7.34-.023a9.048,9.048,0,0,1-.027-9.129,6.856,6.856,0,0,0-.022-7.02,1.1,1.1,0,0,1,1.93-1.06,9.048,9.048,0,0,1,.027,9.129,6.859,6.859,0,0,0,.021,7.02,1.1,1.1,0,1,1-1.93,1.06Z" fill="#2699b5"/>
  </g>
</svg>
