<svg width="24" height="24" viewBox="0 0 24 24" fill="none" xmlns="http://www.w3.org/2000/svg">
<path d="M6.74066 16.0644L8.10149 14.827L6.74066 13.5896V16.0644Z" fill="white"/>
<path d="M6.74066 10.4103L8.10149 9.17291L6.74066 7.93555V10.4103Z" fill="white"/>
<path d="M6.23419 2.14795C2.79666 2.14795 0 4.94461 0 8.38214V15.6179C0 19.0554 2.79666 21.852 6.23419 21.852C9.67172 21.852 12.4684 19.0554 12.4684 15.6179V8.38214C12.4683 4.94461 9.67172 2.14795 6.23419 2.14795ZM9.61969 14.3069C9.76622 14.4401 9.8498 14.629 9.8498 14.8271C9.8498 15.0252 9.76627 15.214 9.61969 15.3473L6.51061 18.1744C6.37861 18.2944 6.20911 18.3573 6.03745 18.3573C5.94136 18.3573 5.84452 18.3376 5.7532 18.2972C5.49867 18.1846 5.33447 17.9324 5.33447 17.6542V13.7179L4.05745 15.0166C3.91983 15.1566 3.738 15.2267 3.55608 15.2267C3.37814 15.2267 3.20006 15.1596 3.06314 15.0249C2.78625 14.7526 2.7825 14.3075 3.0548 14.0306L5.05144 12L3.0547 9.96947C2.78241 9.69257 2.78616 9.2474 3.06305 8.97515C3.33994 8.70286 3.78516 8.70665 4.05736 8.9835L5.33438 10.2822V6.34593C5.33438 6.06759 5.49853 5.8155 5.75311 5.7029C6.00755 5.59031 6.30459 5.63845 6.51056 5.82571L9.61964 8.65279C9.76617 8.78606 9.84975 8.97492 9.84975 9.17301C9.84975 9.37111 9.76622 9.55997 9.61964 9.69323L7.08272 12L9.61969 14.3069Z" fill="white"/>
<path d="M19.4399 2.35392C19.1398 2.1074 18.6968 2.1509 18.4503 2.45095C18.2038 2.75104 18.2473 3.1941 18.5474 3.44057C21.1189 5.55285 22.5938 8.66503 22.5938 11.9791C22.5938 15.3172 21.1011 18.4437 18.4985 20.557C18.197 20.8018 18.1511 21.2446 18.3959 21.5461C18.5349 21.7172 18.7376 21.806 18.9421 21.806C19.0979 21.806 19.2547 21.7545 19.3849 21.6487C22.3178 19.2671 24 15.7427 24 11.9791C24 8.24259 22.3379 4.73432 19.4399 2.35392Z" fill="white"/>
<path d="M17.2446 5.03141C16.9445 4.78489 16.5014 4.82839 16.255 5.12844C16.0085 5.42848 16.0519 5.87159 16.352 6.11806C18.1173 7.56809 19.1298 9.70438 19.1298 11.9792C19.1298 14.2704 18.1052 16.4165 16.3185 17.8673C16.017 18.1121 15.9711 18.5549 16.2159 18.8563C16.3549 19.0275 16.5576 19.1163 16.7622 19.1163C16.9179 19.1163 17.0747 19.0647 17.2049 18.959C19.3219 17.24 20.536 14.696 20.536 11.9792C20.5361 9.28194 19.3363 6.74956 17.2446 5.03141Z" fill="white"/>
<path d="M15.0506 7.70703C14.7503 7.46065 14.3074 7.50425 14.061 7.80439C13.8146 8.10453 13.8582 8.54759 14.1583 8.79396C15.1164 9.58043 15.6659 10.7414 15.6659 11.9792C15.6659 13.2259 15.1098 14.3922 14.1401 15.179C13.8385 15.4237 13.7924 15.8665 14.0371 16.168C14.1761 16.3392 14.3789 16.4281 14.5835 16.4281C14.7392 16.4281 14.8958 16.3767 15.0261 16.2709C16.3264 15.2158 17.0721 13.6515 17.0721 11.9791C17.0721 10.3188 16.3353 8.76167 15.0506 7.70703Z" fill="white"/>
</svg>
