<svg width="24" height="24" viewBox="0 0 24 24" fill="none" xmlns="http://www.w3.org/2000/svg">
<path d="M22 15.75C21.5859 15.75 21.25 15.4141 21.25 15V9C21.25 8.5859 21.5859 8.25 22 8.25C22.4141 8.25 22.75 8.5859 22.75 9V15C22.75 15.4141 22.4141 15.75 22 15.75ZM19.4165 17V7C19.4165 6.5859 19.0806 6.25 18.6665 6.25C18.2524 6.25 17.9165 6.5859 17.9165 7V17C17.9165 17.4141 18.2524 17.75 18.6665 17.75C19.0806 17.75 19.4165 17.4141 19.4165 17ZM16.0835 14V10C16.0835 9.5859 15.7476 9.25 15.3335 9.25C14.9194 9.25 14.5835 9.5859 14.5835 10V14C14.5835 14.4141 14.9194 14.75 15.3335 14.75C15.7476 14.75 16.0835 14.4141 16.0835 14ZM12.75 18V6C12.75 5.5859 12.4141 5.25 12 5.25C11.5859 5.25 11.25 5.5859 11.25 6V18C11.25 18.4141 11.5859 18.75 12 18.75C12.4141 18.75 12.75 18.4141 12.75 18ZM9.4165 20V4C9.4165 3.5859 9.0806 3.25 8.6665 3.25C8.2524 3.25 7.9165 3.5859 7.9165 4V20C7.9165 20.4141 8.2524 20.75 8.6665 20.75C9.0806 20.75 9.4165 20.4141 9.4165 20ZM6.0835 16V8C6.0835 7.5859 5.7476 7.25 5.3335 7.25C4.9194 7.25 4.5835 7.5859 4.5835 8V16C4.5835 16.4141 4.9194 16.75 5.3335 16.75C5.7476 16.75 6.0835 16.4141 6.0835 16ZM2.75 15V9C2.75 8.5859 2.4141 8.25 2 8.25C1.5859 8.25 1.25 8.5859 1.25 9V15C1.25 15.4141 1.5859 15.75 2 15.75C2.4141 15.75 2.75 15.4141 2.75 15Z" fill="white"/>
</svg>
