<svg width="24" height="24" viewBox="0 0 24 24" fill="none" xmlns="http://www.w3.org/2000/svg">
<g clip-path="url(#clip0_1609_256)">
<path d="M5.62502 11.25C5.21744 11.2512 4.81704 11.3574 4.46238 11.5582C4.10772 11.7591 3.81073 12.0479 3.60002 12.3967L2.2219 14.694C2.00056 15.0628 1.88106 15.4838 1.87562 15.9139C1.87018 16.344 1.97898 16.7678 2.19092 17.1421C2.40285 17.5164 2.71033 17.8278 3.08195 18.0444C3.45356 18.261 3.87601 18.3751 4.30615 18.375H6.94502C7.37513 18.375 7.79753 18.2609 8.16909 18.0442C8.54066 17.8276 8.84808 17.5162 9.05997 17.1419C9.27186 16.7677 9.38063 16.3438 9.37517 15.9138C9.36971 15.4837 9.25022 15.0628 9.0289 14.694L7.65002 12.3967C7.43931 12.0479 7.14233 11.7591 6.78766 11.5582C6.433 11.3574 6.0326 11.2512 5.62502 11.25ZM8.62502 15.9446C8.62443 16.39 8.44725 16.817 8.13233 17.132C7.81741 17.447 7.39044 17.6243 6.94502 17.625H4.30615C4.00873 17.6251 3.71663 17.5462 3.45968 17.3964C3.20272 17.2467 2.99011 17.0314 2.84357 16.7726C2.69703 16.5138 2.6218 16.2207 2.62557 15.9233C2.62934 15.6259 2.71197 15.3349 2.86502 15.0799L4.24315 12.7826C4.38647 12.5441 4.58909 12.3466 4.83131 12.2096C5.07353 12.0725 5.34709 12.0005 5.6254 12.0005C5.9037 12.0005 6.17727 12.0725 6.41949 12.2096C6.66171 12.3466 6.86433 12.5441 7.00765 12.7826L8.38577 15.0799C8.54246 15.3411 8.62516 15.64 8.62502 15.9446Z" fill="white"/>
<path d="M11.25 10.7468C11.2501 10.4189 11.1856 10.0942 11.0602 9.79126C10.9348 9.48832 10.7509 9.21306 10.5191 8.9812C10.2872 8.74934 10.012 8.56542 9.70909 8.43996C9.40617 8.3145 9.0815 8.24995 8.75363 8.25C8.30626 8.24945 7.86428 8.34756 7.45917 8.53734C7.05406 8.72713 6.69579 9.00392 6.40988 9.348L6.05588 9.77288C5.91338 9.75938 5.76975 9.75 5.625 9.75C4.98244 9.75017 4.3472 9.88635 3.76105 10.1496C3.17489 10.4129 2.6511 10.7972 2.22413 11.2774C1.03235 12.617 0.374289 14.3478 0.375001 16.1408V16.6763C0.376077 18.0995 0.733166 19.4999 1.41375 20.7499C1.82633 21.5065 2.43516 22.138 3.17621 22.578C3.91727 23.018 4.76317 23.2502 5.625 23.2502C6.48683 23.2502 7.33274 23.018 8.07379 22.578C8.81484 22.138 9.42367 21.5065 9.83625 20.7499C10.5168 19.4999 10.8739 18.0995 10.875 16.6763V16.1408C10.8751 15.0198 10.6174 13.9138 10.122 12.9083L10.5188 12.5111C10.7512 12.28 10.9355 12.005 11.061 11.7022C11.1866 11.3993 11.2508 11.0746 11.25 10.7468ZM5.625 22.5C4.89794 22.5002 4.18427 22.3044 3.55906 21.9333C2.93386 21.5622 2.42025 21.0294 2.07225 20.391C1.89448 20.0627 1.74083 19.722 1.6125 19.3714C2.197 19.7007 2.85637 19.8741 3.52725 19.875H3.75C3.75 20.3723 3.94754 20.8492 4.29918 21.2008C4.65081 21.5525 5.12772 21.75 5.625 21.75C6.12228 21.75 6.5992 21.5525 6.95083 21.2008C7.30246 20.8492 7.5 20.3723 7.5 19.875H7.725C8.39512 19.8737 9.05367 19.7003 9.6375 19.3714C9.50882 19.7219 9.35505 20.0626 9.17738 20.391C8.82941 21.0293 8.31585 21.5621 7.69072 21.9332C7.06559 22.3043 6.352 22.5001 5.625 22.5ZM6.75 19.875C6.75 20.1734 6.63147 20.4595 6.4205 20.6705C6.20952 20.8815 5.92337 21 5.625 21C5.32663 21 5.04048 20.8815 4.82951 20.6705C4.61853 20.4595 4.5 20.1734 4.5 19.875H6.75ZM10.125 16.6763C10.1244 17.1771 10.0751 17.6767 9.978 18.168C9.68949 18.4752 9.34016 18.719 8.95226 18.8837C8.56437 19.0485 8.1464 19.1307 7.725 19.125H3.52725C2.79014 19.1246 2.0764 18.8663 1.50975 18.3949C1.42679 18.324 1.34756 18.2489 1.27238 18.1699C1.17499 17.6779 1.12563 17.1777 1.125 16.6763V16.1408C1.12425 14.5312 1.71508 12.9774 2.78513 11.775C3.14166 11.3739 3.5791 11.0529 4.06864 10.8331C4.55819 10.6133 5.08874 10.4996 5.62538 10.4996C6.16201 10.4996 6.69256 10.6133 7.18211 10.8331C7.67165 11.0529 8.10909 11.3739 8.46563 11.775C9.5354 12.9775 10.126 14.5313 10.125 16.1408V16.6763ZM9.98813 11.9809L9.738 12.2314C9.52684 11.8945 9.28855 11.5755 9.0255 11.2774C8.45566 10.6393 7.71739 10.1749 6.8955 9.9375L6.98588 9.82875C7.20151 9.56918 7.47172 9.36034 7.77726 9.2171C8.08281 9.07385 8.41617 8.99973 8.75363 9C9.09903 8.9999 9.4367 9.10224 9.72393 9.29409C10.0112 9.48593 10.235 9.75866 10.3672 10.0778C10.4994 10.3969 10.534 10.748 10.4666 11.0868C10.3992 11.4255 10.2324 11.7367 9.98813 11.9809Z" fill="white"/>
<path d="M18.375 9.75C18.2306 9.75 18.087 9.75938 17.9445 9.77288L17.5905 9.34763C17.3045 9.00366 16.9462 8.72696 16.5411 8.53724C16.136 8.34753 15.6941 8.24945 15.2468 8.25C14.7531 8.25003 14.2705 8.39643 13.86 8.67069C13.4496 8.94495 13.1296 9.33476 12.9407 9.79083C12.7517 10.2469 12.7022 10.7488 12.7984 11.233C12.8947 11.7172 13.1323 12.162 13.4813 12.5111L13.878 12.9083C13.3826 13.9138 13.1249 15.0198 13.125 16.1408V16.6763C13.1261 18.0995 13.4832 19.4999 14.1638 20.7499C14.5764 21.5065 15.1852 22.138 15.9262 22.578C16.6673 23.018 17.5132 23.2502 18.375 23.2502C19.2368 23.2502 20.0828 23.018 20.8238 22.578C21.5649 22.138 22.1737 21.5065 22.5863 20.7499C23.2669 19.4999 23.6239 18.0995 23.625 16.6763V16.1408C23.6257 14.3478 22.9677 12.617 21.7759 11.2774C21.3489 10.7972 20.8251 10.4129 20.239 10.1496C19.6528 9.88635 19.0176 9.75017 18.375 9.75ZM14.0115 11.9809C13.7674 11.7366 13.6012 11.4254 13.5339 11.0867C13.4666 10.748 13.5012 10.3969 13.6334 10.0778C13.7656 9.75878 13.9895 9.48609 14.2766 9.29425C14.5638 9.1024 14.9014 9 15.2468 9C15.5841 8.99967 15.9174 9.07365 16.2229 9.21669C16.5285 9.35974 16.7987 9.56832 17.0145 9.82763L17.1053 9.93675C16.2829 10.1742 15.5442 10.6389 14.9741 11.2774C14.711 11.5754 14.4727 11.8944 14.2616 12.2314L14.0115 11.9809ZM18.375 22.5C17.648 22.5002 16.9343 22.3044 16.3091 21.9333C15.6839 21.5622 15.1703 21.0294 14.8223 20.391C14.6447 20.0626 14.491 19.7219 14.3625 19.3714C14.9469 19.7006 15.6061 19.8741 16.2769 19.875H16.5C16.5 20.3723 16.6976 20.8492 17.0492 21.2008C17.4008 21.5525 17.8777 21.75 18.375 21.75C18.8723 21.75 19.3492 21.5525 19.7008 21.2008C20.0525 20.8492 20.25 20.3723 20.25 19.875H20.475C21.1451 19.8737 21.8037 19.7003 22.3875 19.3714C22.2588 19.7219 22.1051 20.0626 21.9274 20.391C21.5794 21.0293 21.0659 21.5621 20.4407 21.9332C19.8156 22.3043 19.102 22.5001 18.375 22.5ZM19.5 19.875C19.5 20.1734 19.3815 20.4595 19.1705 20.6705C18.9595 20.8815 18.6734 21 18.375 21C18.0767 21 17.7905 20.8815 17.5795 20.6705C17.3685 20.4595 17.25 20.1734 17.25 19.875H19.5ZM22.875 16.6763C22.8744 17.1771 22.8252 17.6767 22.728 18.168C22.4395 18.4752 22.0902 18.719 21.7023 18.8837C21.3144 19.0485 20.8964 19.1307 20.475 19.125H16.2769C15.8552 19.1307 15.437 19.0486 15.0488 18.8839C14.6606 18.7192 14.3109 18.4755 14.022 18.1684C13.9249 17.6769 13.8757 17.1772 13.875 16.6763V16.1408C13.8742 14.5312 14.4649 12.9775 15.5348 11.775C15.8913 11.3739 16.3287 11.0529 16.8183 10.8331C17.3078 10.6133 17.8384 10.4996 18.375 10.4996C18.9117 10.4996 19.4422 10.6133 19.9318 10.8331C20.4213 11.0529 20.8587 11.3739 21.2153 11.775C22.2852 12.9775 22.8759 14.5312 22.875 16.1408V16.6763Z" fill="white"/>
<path d="M18.375 11.25C17.9674 11.2512 17.567 11.3574 17.2124 11.5582C16.8577 11.7591 16.5607 12.0479 16.35 12.3967L14.9719 14.694C14.7506 15.0628 14.6311 15.4836 14.6256 15.9137C14.6201 16.3437 14.7289 16.7675 14.9407 17.1418C15.1526 17.5161 15.4599 17.8274 15.8315 18.0441C16.203 18.2607 16.6253 18.3749 17.0554 18.375H19.6946C20.1248 18.375 20.5471 18.2609 20.9187 18.0442C21.2903 17.8276 21.5977 17.5162 21.8096 17.1419C22.0215 16.7677 22.1303 16.3438 22.1248 15.9138C22.1193 15.4837 21.9998 15.0628 21.7785 14.694L20.4 12.3967C20.1893 12.0479 19.8923 11.7591 19.5377 11.5582C19.183 11.3574 18.7826 11.2512 18.375 11.25ZM21.375 15.9446C21.3744 16.3901 21.1972 16.8172 20.8822 17.1322C20.5672 17.4472 20.1401 17.6244 19.6946 17.625H17.0554C16.758 17.625 16.466 17.5461 16.2091 17.3963C15.9522 17.2465 15.7396 17.0312 15.5931 16.7724C15.4466 16.5136 15.3714 16.2206 15.3752 15.9232C15.379 15.6259 15.4616 15.3349 15.6146 15.0799L16.9928 12.7826C17.1361 12.5441 17.3387 12.3466 17.5809 12.2096C17.8232 12.0725 18.0967 12.0005 18.375 12.0005C18.6533 12.0005 18.9269 12.0725 19.1691 12.2096C19.4113 12.3466 19.614 12.5441 19.7573 12.7826L21.1354 15.0799C21.2922 15.3411 21.375 15.64 21.375 15.9446Z" fill="white"/>
<path d="M13.125 7.5C13.125 7.2775 13.059 7.05999 12.9354 6.87498C12.8118 6.68998 12.6361 6.54578 12.4305 6.46064C12.225 6.37549 11.9988 6.35321 11.7805 6.39662C11.5623 6.44003 11.3618 6.54717 11.2045 6.70451C11.0472 6.86184 10.94 7.0623 10.8966 7.28052C10.8532 7.49875 10.8755 7.72495 10.9606 7.93052C11.0458 8.13609 11.19 8.31179 11.375 8.4354C11.56 8.55902 11.7775 8.625 12 8.625C12.2984 8.625 12.5845 8.50647 12.7955 8.2955C13.0065 8.08452 13.125 7.79837 13.125 7.5ZM12 7.875C11.9258 7.875 11.8533 7.85301 11.7917 7.8118C11.73 7.7706 11.6819 7.71203 11.6535 7.64351C11.6252 7.57498 11.6177 7.49958 11.6322 7.42684C11.6467 7.3541 11.6824 7.28728 11.7348 7.23484C11.7873 7.18239 11.8541 7.14668 11.9268 7.13221C11.9996 7.11774 12.075 7.12516 12.1435 7.15355C12.212 7.18193 12.2706 7.22999 12.3118 7.29166C12.353 7.35333 12.375 7.42583 12.375 7.5C12.375 7.59946 12.3355 7.69484 12.2652 7.76517C12.1948 7.83549 12.0995 7.875 12 7.875Z" fill="white"/>
<path d="M16.7726 2.72742C15.5068 1.46176 13.79 0.750732 12 0.750732C10.2099 0.750732 8.4932 1.46176 7.22736 2.72742L7.75761 3.25804C8.3146 2.7007 8.97595 2.25857 9.70388 1.95693C10.4318 1.65528 11.212 1.50001 12 1.50001C12.7879 1.50001 13.5682 1.65528 14.2961 1.95693C15.024 2.25857 15.6854 2.7007 16.2424 3.25804L16.7726 2.72742Z" fill="white"/>
<path d="M15.1826 4.31742C14.3383 3.47385 13.1936 3 12 3C10.8065 3 9.66174 3.47385 8.81738 4.31742L9.34763 4.84767C10.0514 4.14479 11.0054 3.74999 12 3.74999C12.9947 3.74999 13.9486 4.14479 14.6524 4.84767L15.1826 4.31742Z" fill="white"/>
<path d="M10.1434 5.64602L10.6762 6.17402C10.85 6 11.0563 5.86194 11.2835 5.76774C11.5106 5.67354 11.7541 5.62505 12 5.62505C12.2459 5.62505 12.4894 5.67354 12.7165 5.76774C12.9437 5.86194 13.15 6 13.3237 6.17402L13.8566 5.64602C13.6131 5.40174 13.3238 5.20793 13.0053 5.07569C12.6868 4.94344 12.3453 4.87537 12.0004 4.87537C11.6555 4.87537 11.314 4.94344 10.9954 5.07569C10.6769 5.20793 10.3876 5.40174 10.1441 5.64602H10.1434Z" fill="white"/>
</g>
<defs>
<clipPath id="clip0_1609_256">
<rect width="24" height="24" fill="white"/>
</clipPath>
</defs>
</svg>
