<svg width="24" height="24" viewBox="0 0 24 24" fill="none" xmlns="http://www.w3.org/2000/svg">
<path d="M10.04 21.1601L9.36003 20.4401L12.28 17.4801H9.28003L13.92 12.8401L14.64 13.5601L11.72 16.5201H14.72L10.04 21.1601Z" fill="white"/>
<path d="M16.36 17.36L15.64 16.64L20.44 11.84C21.2 11.08 21.72 10.08 21.92 9.04002C22.12 7.96002 22 6.88002 21.6 5.88002C21.16 4.88002 20.48 4.04002 19.56 3.44002C18.64 2.80002 17.6 2.48002 16.48 2.48002C15 2.48002 13.48 3.20002 12.36 4.48002L12 4.88002L11.64 4.48002C10.52 3.20002 8.99998 2.48002 7.51998 2.48002C6.43998 2.48002 5.35998 2.80002 4.47998 3.40002C3.55998 4.00002 2.87998 4.84002 2.43998 5.84002C1.99998 6.84002 1.91998 7.92002 2.11998 9.00002C2.31998 10.08 2.83998 11.04 3.59998 11.84L8.35998 16.64L7.63998 17.36L2.83998 12.56C1.91998 11.64 1.31998 10.48 1.07998 9.24002C0.839984 7.96002 0.959984 6.68002 1.47998 5.48002C1.95998 4.28002 2.79998 3.28002 3.87998 2.60002C4.95998 1.88002 6.19998 1.52002 7.47998 1.52002C9.07998 1.52002 10.72 2.20002 11.96 3.44002C13.24 2.20002 14.84 1.52002 16.44 1.52002C17.72 1.52002 18.96 1.88002 20.04 2.60002C21.12 3.32002 21.96 4.32002 22.44 5.48002C22.92 6.68002 23.08 7.96002 22.84 9.24002C22.6 10.52 22 11.64 21.08 12.56L16.36 17.36Z" fill="white"/>
<path d="M16.48 23H7.52002V11H16.52V23H16.48ZM8.48002 22H15.48V12H8.48002V22Z" fill="white"/>
<path d="M14.48 12H9.52002V8.52002H14.52V12H14.48ZM10.48 11H13.48V9.48002H10.48V11Z" fill="white"/>
</svg>
