<svg width="13" height="13" viewBox="0 0 13 13" fill="none" xmlns="http://www.w3.org/2000/svg">
<path d="M2.1709 7.0459H10.8291C10.9814 7.03743 11.1105 6.98242 11.2163 6.88086C11.3221 6.7793 11.375 6.65234 11.375 6.5C11.375 6.34766 11.3221 6.2207 11.2163 6.11914C11.1105 6.01758 10.9814 5.96256 10.8291 5.9541H2.1709C2.01855 5.96256 1.88949 6.01758 1.78369 6.11914C1.6779 6.2207 1.625 6.34766 1.625 6.5C1.625 6.65234 1.6779 6.7793 1.78369 6.88086C1.88949 6.98242 2.01855 7.03743 2.1709 7.0459ZM7.19824 9.36914C7.09668 9.47917 7.0459 9.60612 7.0459 9.75C7.0459 9.89388 7.10091 10.0187 7.21094 10.1245C7.32096 10.2303 7.4458 10.2832 7.58545 10.2832C7.7251 10.2832 7.84994 10.2324 7.95996 10.1309L11.21 6.88086C11.32 6.77083 11.375 6.64388 11.375 6.5C11.375 6.35612 11.32 6.22917 11.21 6.11914L7.95996 2.86914C7.84994 2.76758 7.7251 2.7168 7.58545 2.7168C7.4458 2.7168 7.32096 2.76969 7.21094 2.87549C7.10091 2.98128 7.0459 3.10612 7.0459 3.25C7.0459 3.39388 7.09668 3.52083 7.19824 3.63086L10.0674 6.5L7.19824 9.36914Z" fill="#353835"/>
</svg>
