<?xml version="1.0" standalone="no"?>
<!DOCTYPE svg PUBLIC "-//W3C//DTD SVG 20010904//EN"
 "http://www.w3.org/TR/2001/REC-SVG-20010904/DTD/svg10.dtd">
<svg version="1.0" xmlns="http://www.w3.org/2000/svg"
 width="928.000000pt" height="928.000000pt" viewBox="0 0 928.000000 928.000000"
 preserveAspectRatio="xMidYMid meet">
<metadata>
Created by potrace 1.14, written by Peter Selinger 2001-2017
</metadata>
<g transform="translate(0.000000,928.000000) scale(0.100000,-0.100000)"
fill="#000000" stroke="none">
<path d="M5779 7916 c-2 -2 -38 -7 -79 -10 -41 -3 -88 -8 -104 -11 -15 -3 -47
-8 -70 -10 -22 -2 -52 -6 -66 -9 -14 -3 -54 -10 -90 -16 -123 -22 -317 -74
-435 -117 -38 -14 -74 -26 -80 -27 -13 -4 -34 -12 -135 -54 -116 -49 -257
-119 -363 -181 -49 -28 -93 -51 -98 -51 -5 0 -9 -5 -9 -10 0 -6 -8 -13 -17
-17 -28 -10 -267 -179 -314 -223 -9 -8 -39 -33 -65 -55 -56 -45 -292 -280
-343 -340 -18 -22 -52 -64 -75 -92 -22 -29 -44 -53 -48 -53 -5 0 -8 -4 -8 -10
0 -5 -26 -45 -58 -88 -91 -123 -192 -293 -271 -457 -40 -82 -76 -159 -81 -170
-4 -11 -19 -48 -34 -82 -14 -35 -23 -63 -19 -63 3 0 1 -6 -4 -12 -16 -21 -96
-285 -108 -357 -3 -19 -7 -37 -9 -40 -2 -3 -7 -22 -10 -41 -3 -19 -8 -46 -11
-60 -12 -60 -15 -78 -20 -120 -4 -25 -8 -56 -10 -70 -8 -49 -17 -166 -20 -275
-2 -60 -5 -112 -6 -115 -1 -3 -1 -8 -1 -11 1 -3 3 -66 7 -140 3 -74 7 -148 10
-165 2 -17 7 -59 10 -93 4 -34 8 -72 11 -84 2 -12 7 -44 10 -72 4 -27 11 -61
16 -74 5 -13 7 -26 4 -28 -2 -3 2 -22 9 -44 8 -22 14 -43 14 -47 0 -15 24
-109 43 -170 11 -34 21 -68 22 -75 9 -41 66 -170 94 -212 43 -65 212 -224 212
-200 0 4 13 -3 30 -15 16 -12 38 -23 47 -25 10 -2 38 -11 63 -20 60 -21 111
-29 195 -28 60 1 140 8 140 13 0 1 20 7 48 13 28 6 134 62 172 90 131 100 228
258 253 412 8 49 8 178 0 223 -7 39 -36 138 -49 167 -12 28 -46 176 -59 261
-16 99 -22 190 -22 329 0 112 3 153 17 259 17 123 54 269 102 401 33 89 137
312 152 325 8 6 29 41 38 60 9 22 110 157 156 210 96 111 233 242 301 290 12
8 30 22 40 32 11 10 23 18 27 18 4 0 14 6 21 13 44 42 276 169 399 217 69 28
226 78 261 84 15 3 31 7 35 9 8 5 33 9 121 23 20 3 48 7 62 10 118 22 406 22
550 -1 85 -13 185 -32 185 -35 0 -1 11 -3 25 -6 33 -6 191 -57 260 -84 144
-56 403 -207 508 -297 210 -177 341 -328 468 -539 52 -87 149 -288 160 -334 2
-8 13 -42 24 -75 41 -118 74 -285 86 -430 7 -82 11 -268 6 -278 -2 -4 -5 -36
-7 -71 -4 -71 -12 -131 -25 -191 -5 -22 -12 -56 -15 -75 -13 -74 -93 -319
-124 -377 -5 -10 -28 -56 -52 -103 -23 -47 -45 -87 -48 -90 -3 -3 -15 -22 -25
-43 -35 -68 -188 -260 -280 -352 -105 -104 -174 -165 -186 -165 -5 0 -13 -6
-17 -13 -15 -23 -187 -131 -303 -189 -102 -51 -283 -123 -333 -133 -28 -6
-150 -71 -181 -96 -176 -147 -255 -311 -251 -519 4 -165 64 -309 178 -422 85
-84 83 -83 162 -124 97 -51 167 -68 285 -68 112 0 120 1 345 83 55 19 102 36
105 36 3 1 27 11 54 23 27 12 50 22 53 22 2 0 62 29 133 64 142 71 246 129
332 188 31 21 61 38 67 38 5 0 11 3 13 8 2 4 48 40 103 81 55 41 102 77 105
80 3 3 34 30 70 60 104 86 298 288 402 417 99 123 208 277 208 293 0 5 4 11 8
13 13 5 115 185 170 299 68 141 84 178 125 289 32 86 45 124 93 282 7 25 17
64 20 85 3 21 8 41 11 46 2 4 6 19 9 32 9 53 12 71 18 95 3 14 8 43 11 65 3
22 10 67 15 100 25 158 35 573 17 730 -3 33 -9 85 -12 115 -3 30 -8 66 -11 80
-3 14 -8 41 -10 60 -2 19 -11 67 -20 105 -19 85 -23 102 -29 139 -3 16 -11 38
-17 50 -6 11 -10 21 -9 21 13 0 -84 287 -135 403 -44 99 -141 294 -176 351
-21 34 -38 65 -38 66 0 8 -104 160 -112 163 -4 2 -8 8 -8 14 0 6 -18 33 -40
62 -22 28 -43 56 -47 61 -10 12 -89 109 -123 150 -38 45 -279 285 -335 333
-40 33 -165 132 -230 180 -6 4 -27 19 -47 35 -20 15 -40 27 -44 27 -3 0 -28
15 -53 34 -144 103 -565 305 -711 341 -8 2 -35 11 -59 19 -43 16 -207 62 -254
72 -12 3 -42 9 -67 14 -25 5 -56 12 -69 14 -12 3 -42 7 -65 10 -23 3 -49 7
-57 10 -7 3 -41 8 -74 11 -33 3 -73 7 -90 10 -34 6 -541 16 -546 11z"/>
<path d="M2308 7604 c-3 -2 -31 -7 -63 -9 -87 -6 -230 -55 -413 -141 -62 -29
-115 -53 -119 -53 -3 1 -9 -3 -12 -8 -3 -4 -31 -21 -61 -37 -30 -16 -62 -35
-71 -42 -8 -8 -18 -14 -22 -14 -4 0 -62 -37 -129 -82 -268 -180 -509 -398
-692 -628 -38 -47 -76 -94 -85 -105 -32 -40 -161 -235 -161 -245 0 -5 -4 -10
-10 -10 -5 0 -10 -5 -10 -10 0 -6 -11 -28 -25 -49 -13 -22 -54 -99 -90 -173
-37 -73 -71 -141 -76 -150 -5 -10 -9 -25 -9 -33 0 -8 -5 -15 -12 -15 -6 0 -9
-3 -6 -6 4 -3 -6 -36 -22 -74 -26 -63 -99 -277 -105 -310 -2 -8 -11 -44 -20
-80 -9 -36 -19 -74 -21 -85 -19 -94 -34 -180 -39 -221 -3 -27 -8 -58 -10 -70
-19 -91 -27 -569 -12 -694 4 -30 9 -71 12 -90 3 -19 7 -55 11 -80 21 -160 81
-402 145 -586 40 -116 52 -146 99 -249 13 -27 24 -52 25 -55 4 -16 93 -184
126 -238 22 -35 39 -68 39 -73 0 -5 5 -9 10 -9 6 0 10 -5 10 -11 0 -10 77
-127 91 -139 3 -3 12 -16 18 -28 7 -13 21 -33 31 -45 10 -12 55 -68 100 -124
86 -108 309 -338 372 -383 21 -15 34 -30 31 -34 -3 -3 -2 -6 4 -6 6 0 31 -16
55 -36 66 -54 70 -57 108 -84 19 -13 37 -27 40 -30 13 -14 99 -70 108 -70 6 0
12 -4 14 -8 3 -9 181 -117 233 -142 17 -8 37 -20 47 -28 9 -7 22 -15 30 -16 7
-2 49 -20 93 -41 87 -41 241 -105 265 -110 8 -2 29 -9 45 -15 17 -6 37 -13 45
-16 8 -2 53 -15 100 -29 83 -25 265 -67 345 -79 22 -3 51 -8 65 -11 14 -3 43
-7 65 -10 22 -2 74 -7 115 -12 148 -15 580 -8 674 12 12 2 41 7 66 10 25 3 61
9 80 12 19 3 44 7 55 8 11 2 20 4 20 5 0 2 16 6 60 14 17 3 69 17 118 30 48
13 87 22 87 19 0 -3 6 -1 13 5 6 5 55 24 107 42 52 18 124 45 159 61 35 16 70
29 77 29 8 0 14 5 14 10 0 6 7 10 15 10 27 0 396 186 439 221 25 20 119 79
126 79 5 0 10 3 12 8 2 4 33 29 70 55 36 26 72 53 80 60 7 7 22 19 34 27 75
53 295 264 394 379 30 35 60 69 66 75 33 35 179 240 234 331 36 59 75 122 88
141 12 19 22 41 22 49 0 7 3 15 8 17 7 3 38 65 63 126 8 17 17 32 20 32 4 0 9
10 12 23 3 12 19 56 37 97 64 152 148 421 166 530 2 14 10 58 18 98 9 40 20
110 26 155 6 45 13 100 16 122 4 31 15 258 15 310 0 63 -11 270 -16 305 -3 25
-8 61 -10 80 -5 46 -12 97 -20 140 -4 19 -8 44 -10 55 -45 261 -174 640 -260
760 -45 63 -117 135 -135 135 -5 0 -10 4 -10 8 0 12 -75 53 -144 80 -121 46
-276 49 -401 7 -214 -72 -372 -247 -421 -466 -9 -42 -11 -152 -4 -204 12 -77
19 -102 50 -180 17 -43 35 -90 35 -95 1 -6 35 -119 43 -140 3 -8 6 -24 8 -35
1 -11 5 -31 8 -45 3 -14 9 -41 12 -60 4 -19 8 -44 10 -55 29 -148 22 -501 -13
-645 -3 -14 -7 -36 -9 -50 -5 -39 -73 -259 -101 -325 -26 -64 -103 -223 -115
-240 -4 -5 -36 -53 -70 -105 -34 -52 -80 -117 -102 -145 -54 -68 -253 -265
-296 -295 -19 -14 -46 -35 -60 -48 -85 -79 -388 -238 -555 -292 -38 -12 -77
-25 -85 -28 -17 -6 -25 -8 -60 -16 -136 -30 -167 -36 -177 -32 -6 3 -14 2 -17
-2 -27 -26 -417 -31 -541 -6 -11 2 -49 9 -85 15 -36 6 -87 17 -115 26 -27 8
-61 16 -74 19 -117 24 -513 208 -529 246 -2 5 -8 6 -13 2 -5 -3 -9 -1 -9 4 0
5 -21 22 -47 39 -27 17 -59 41 -73 53 -127 108 -123 105 -250 240 -14 14 -45
53 -70 86 -25 32 -48 61 -52 62 -5 2 -8 8 -8 13 0 5 -16 32 -36 61 -45 63
-151 269 -188 363 -74 187 -110 340 -132 555 -5 51 -5 291 0 320 3 14 8 50 11
80 21 183 84 409 156 553 15 31 28 60 28 62 1 5 34 67 77 143 19 35 94 145
126 187 79 102 223 246 328 328 47 37 90 72 97 77 7 6 15 10 18 10 4 0 21 11
39 25 18 14 36 25 39 25 4 0 30 15 59 33 65 40 142 77 277 133 57 24 111 50
121 59 9 8 21 15 26 15 10 0 105 90 142 134 33 40 82 134 99 190 24 80 25 87
28 179 7 260 -167 509 -416 592 -30 10 -63 20 -74 21 -11 1 -20 3 -20 4 0 1
-19 3 -43 5 -23 2 -46 6 -51 9 -4 3 -11 3 -13 0z"/>
</g>
</svg>
