<svg xmlns="http://www.w3.org/2000/svg" viewBox="0 0 526.58 148.4"><defs><style>.cls-1{fill:#443b3d;}.cls-2{fill:#ea3f78;}</style></defs><g id="Layer_2" data-name="Layer 2"><g id="Layer_1-2" data-name="Layer 1"><path class="cls-1" d="M107.24,147.24v1.16H93.79v-1.16a40.15,40.15,0,0,0-40.1-40.1h0a53.13,53.13,0,0,0,26-6.73A53.35,53.35,0,0,1,107.24,147.24Z"/><polygon class="cls-1" points="52.51 0 52.51 13.46 5.08 13.46 0 0.04 52.51 0"/><polygon class="cls-1" points="9.63 24.45 52.51 24.45 52.51 37.87 14.93 37.87 9.63 24.45"/><path class="cls-1" d="M53.67,69.28H52.51V82.71H32.63L27.32,69.26H54.08A2.75,2.75,0,0,1,53.67,69.28Z"/><path class="cls-2" d="M53.67,0H52.51V13.45h1.16a40.12,40.12,0,0,1,0,80.24H52.51v13.44h1.16A53.56,53.56,0,0,0,53.67,0Z"/><path class="cls-2" d="M53.67,24.43H52.51V37.87h1.16a15.7,15.7,0,0,1,0,31.4H52.51V82.71h1.16a29.14,29.14,0,1,0,0-58.28Z"/><path class="cls-2" d="M145.32,88.71V19.09h24.21c14.76,0,26.29,6.75,26.29,21.09,0,9.87-6,17-15.79,19.12,5.61,2.7,8.62,8.42,12.67,16.63L199,88.71H187.61L181.79,77c-4.15-8.21-7.58-13.62-17.35-13.62h-8.63l-.1,25.36Zm10.6-59.86-.11,25h13.62c8.93,0,15.48-4.37,15.48-12.78,0-8.63-6.86-12.27-15.27-12.27Z"/><path class="cls-2" d="M203.72,63.15c0-14.55,11.64-26.61,27.12-26.61S258,48,258,63.15V88.71h-9.77V79.77A21.6,21.6,0,0,1,229.28,90C214.53,90,203.72,77.9,203.72,63.15Zm44,.1a16.84,16.84,0,1,0-16.84,16.94A16.81,16.81,0,0,0,247.68,63.25Z"/><path class="cls-2" d="M269.5,63.35c0-15.48,11.22-26.81,26.6-26.81a23.44,23.44,0,0,1,17.25,7.59l.1-29.72h10.29V63.35C323.74,78.42,312,90,296.62,90S269.5,78,269.5,63.35Zm43.95-.1a16.83,16.83,0,1,0-16.83,17A16.78,16.78,0,0,0,313.45,63.25Z"/><path class="cls-2" d="M338.91,21a6.84,6.84,0,0,1,6.76-6.86A6.74,6.74,0,0,1,352.32,21a6.65,6.65,0,0,1-6.65,6.75A6.74,6.74,0,0,1,338.91,21Zm11.95,16.83V88.71H340.58V37.79Z"/><path class="cls-2" d="M364.37,63.15c0-14.55,11.64-26.61,27.12-26.61S418.61,48,418.61,63.15V88.71h-9.76V79.77A21.63,21.63,0,0,1,389.93,90C375.18,90,364.37,77.9,364.37,63.15Zm44,.1a16.84,16.84,0,1,0-16.84,16.94A16.81,16.81,0,0,0,408.33,63.25Z"/><path class="cls-2" d="M437.11,70.42V46.73H427V37.79h10.08V24.59H447.4v13.2h19.54v8.94H447.4V70.11c0,6.65,4,10.6,10.08,10.6a17.31,17.31,0,0,0,9.46-3v9.46a19.64,19.64,0,0,1-10.4,2.91C443.87,90.06,437.11,82.06,437.11,70.42Z"/><path class="cls-2" d="M475.87,62.94c0-14.65,10.5-26.6,25.77-26.6s24.94,11.11,24.94,25.35v4.16H485.85a16.51,16.51,0,0,0,16.94,14.86c6.23,0,11.84-2.71,14.86-8.32l7.89,4.06c-4.46,8.72-12.67,13.4-22.65,13.4C487.41,89.85,475.87,78.63,475.87,62.94ZM516.3,59.2c-.42-8.11-6.34-13.62-14.76-13.62-8.62,0-14.24,6-15.27,13.62Z"/><path class="cls-1" d="M237,135.73l3.22-20.35a3.69,3.69,0,0,1,7.16-.44l4.42,16c.07.31.14.41.31.41s.24-.1.34-.41L256.8,115a3.49,3.49,0,0,1,3.6-2.63,3.4,3.4,0,0,1,3.53,3.11l2.91,20.22h-3.53l-2.53-19.12c-.07-.48-.21-.79-.58-.79s-.52.24-.62.69l-4.73,16.44a2.72,2.72,0,0,1-2.77,2.06,2.79,2.79,0,0,1-2.78-2l-4.69-16.55c-.14-.48-.31-.68-.62-.68s-.55.24-.61.79l-2.85,19.18Z"/><path class="cls-1" d="M276.23,115.52a4.49,4.49,0,0,1,8.6,0l6.27,20.18h-3.56l-1.68-5.62-10.69,0-1.68,5.59H270Zm-.1,11.41h8.8l-3.08-10.38a1.31,1.31,0,0,0-1.3-1.07,1.25,1.25,0,0,0-1.3,1.07Z"/><path class="cls-1" d="M295.8,135.7v-23h8c4.86,0,8.67,2.23,8.67,7a6.18,6.18,0,0,1-5.21,6.3c1.85.89,2.84,2.78,4.18,5.48l2.09,4.22h-3.77l-1.92-3.88c-1.37-2.7-2.5-4.48-5.72-4.48h-2.84l0,8.36ZM299.29,116l0,8.26h4.48c2.95,0,5.11-1.44,5.11-4.21s-2.26-4.05-5-4.05Z"/><path class="cls-1" d="M318.68,135.7v-23h3.5v9.9h3.32a7.14,7.14,0,0,1,1.37-2.36l6.41-7.54h4l-7.19,8.57a5,5,0,0,0-1.4,2.88,4.88,4.88,0,0,0,1.4,2.8l7.43,8.71h-4.31l-6.34-7.44a7.19,7.19,0,0,1-1.37-2.4h-3.32v9.84Z"/><path class="cls-1" d="M344.55,135.7c-2.36,0-3.22-1.2-3.22-3.16V115.9c0-2,.86-3.16,3.22-3.16h12.61v3.19H344.82v6.68h11.65v3.18H344.82v6.72H357.4v3.19Z"/><path class="cls-1" d="M377.34,116h-7.06V135.7h-3.49V116h-7v-3.22h17.58Z"/><path class="cls-1" d="M384.77,112.74v23h-3.49v-23Z"/><path class="cls-1" d="M391.39,135.7V115.62a3,3,0,0,1,3.11-3.29,3.13,3.13,0,0,1,3,1.75l9.66,18c.1.31.17.45.38.45s.17-.07.17-.28V112.74h3.32v20.11a3,3,0,0,1-3.05,3.26,3.29,3.29,0,0,1-3.08-1.78l-9.63-18.09c-.07-.28-.14-.41-.31-.41s-.27.13-.27.41V135.7Z"/><path class="cls-1" d="M415.61,124.19a11.68,11.68,0,0,1,11.68-11.82,10.23,10.23,0,0,1,9.28,5.34l-2.84,1.65a7.37,7.37,0,0,0-6.58-3.7c-4.52,0-7.94,3.8-7.94,8.59s3.42,8.64,8.08,8.64a8,8,0,0,0,6.06-2.37V125h3.4v6.71a11.43,11.43,0,0,1-9.46,4.39A11.7,11.7,0,0,1,415.61,124.19Z"/></g></g></svg>