<?xml version="1.0" encoding="utf-8"?>
<!-- Generator: Adobe Illustrator 22.1.0, SVG Export Plug-In . SVG Version: 6.00 Build 0)  -->
<svg version="1.1" id="seal-3X-Montego_1_" xmlns="http://www.w3.org/2000/svg" xmlns:xlink="http://www.w3.org/1999/xlink" x="0px"
	 y="0px" viewBox="0 0 330 330" style="enable-background:new 0 0 330 330;" xml:space="preserve">
<style type="text/css">
	.st0{fill-rule:evenodd;clip-rule:evenodd;fill:#FFFFFF;}
	.st1{fill-rule:evenodd;clip-rule:evenodd;fill:#004D97;}
</style>
<g id="Ellipse_1">
	<g>
		<circle class="st0" cx="165.5" cy="165.5" r="163.5"/>
	</g>
</g>
<g id="Ellipse_1_1_">
	<g>
		<circle class="st1" cx="165" cy="165" r="158"/>
	</g>
</g>
<g id="_x32_x-the-fun-MONTEGO-BAY">
	<g>
		<path class="st0" d="M89.7,209l-4.6-12.2H83L78.4,209h2.1l1.2-3.4h4.7l1.2,3.4H89.7z M82.3,203.9l1.1-3.2c0.3-0.8,0.5-1.6,0.7-2.2
			c0.1,0.2,0.2,0.6,0.3,1.1c0.1,0.5,0.3,0.8,0.3,1l1.1,3.3H82.3z M94.5,209v-10.5h3.6v-1.7H89v1.7h3.6V209H94.5z M112.6,203.5
			c-0.4-0.5-1-0.8-1.9-1v-0.1c0.7-0.1,1.2-0.4,1.6-0.9c0.4-0.5,0.5-1.1,0.5-1.8c0-1.1-0.4-1.8-1.1-2.3c-0.7-0.5-2-0.7-3.6-0.7h-3.6
			V209h4.4c1.4,0,2.4-0.3,3.2-0.9c0.8-0.6,1.1-1.5,1.1-2.6C113.2,204.7,113,204,112.6,203.5z M106.4,198.4h1.7c0.9,0,1.6,0.1,2,0.4
			c0.4,0.3,0.6,0.7,0.6,1.2c0,0.6-0.2,1.1-0.6,1.3c-0.4,0.3-1,0.4-1.8,0.4h-1.9V198.4z M110.4,206.8c-0.4,0.3-1.1,0.5-1.9,0.5h-2.1
			v-3.9h2c0.9,0,1.5,0.2,2,0.5c0.4,0.3,0.7,0.8,0.7,1.4C111.1,206,110.9,206.5,110.4,206.8z M120.8,196.6c-1.8,0-3.3,0.5-4.2,1.6
			c-1,1.1-1.5,2.6-1.5,4.6s0.5,3.6,1.5,4.7c1,1.1,2.4,1.6,4.2,1.6c1.8,0,3.2-0.5,4.2-1.7c1-1.1,1.5-2.6,1.5-4.6c0-2-0.5-3.5-1.5-4.6
			C124,197.1,122.6,196.6,120.8,196.6z M123.4,206.3c-0.6,0.8-1.5,1.2-2.7,1.2c-1.2,0-2.1-0.4-2.7-1.2c-0.6-0.8-0.9-1.9-0.9-3.4
			c0-1.5,0.3-2.6,0.9-3.4c0.6-0.8,1.5-1.2,2.7-1.2c1.2,0,2.1,0.4,2.7,1.2c0.6,0.8,0.9,1.9,0.9,3.4
			C124.4,204.4,124.1,205.5,123.4,206.3z M131.1,209h2v-10.5h3.6v-1.7h-9.2v1.7h3.6V209z M148.2,209v-12.2h-2v5h-5.6v-5h-2V209h2
			v-5.5h5.6v5.5H148.2z M155.9,202c0.5,0.6,1.2,1.1,2.3,1.5c1.1,0.4,1.8,0.8,2.1,1.1c0.3,0.3,0.5,0.7,0.5,1.2c0,0.5-0.2,0.9-0.6,1.2
			c-0.4,0.3-1,0.5-1.7,0.5c-0.5,0-1.1-0.1-1.7-0.2c-0.6-0.1-1.2-0.4-1.8-0.6v1.9c0.9,0.4,2,0.6,3.4,0.6c1.4,0,2.5-0.3,3.2-0.9
			c0.8-0.6,1.2-1.5,1.2-2.6c0-0.5-0.1-1-0.3-1.4c-0.2-0.4-0.5-0.8-0.9-1.1c-0.4-0.3-1.1-0.7-2-1c-0.8-0.3-1.3-0.6-1.6-0.8
			c-0.3-0.2-0.5-0.4-0.7-0.6c-0.1-0.2-0.2-0.5-0.2-0.8c0-0.5,0.2-0.8,0.5-1.1c0.3-0.3,0.8-0.4,1.5-0.4c0.9,0,1.8,0.2,2.9,0.7
			l0.6-1.6c-1.2-0.5-2.3-0.8-3.5-0.8c-1.2,0-2.2,0.3-2.9,0.9c-0.7,0.6-1.1,1.4-1.1,2.4C155.2,200.7,155.4,201.4,155.9,202z
			 M168.3,196.7l-4.6,12.2h2.1l1.2-3.4h4.7l1.2,3.4h2.1l-4.6-12.2H168.3z M167.7,203.9l1.1-3.2c0.3-0.8,0.5-1.6,0.7-2.2
			c0.1,0.2,0.2,0.6,0.3,1.1c0.1,0.5,0.3,0.8,0.3,1l1.1,3.3H167.7z M184.6,209h2.4v-12.2h-1.8v6.4c0,0.5,0,1.1,0.1,1.9
			c0,0.8,0.1,1.3,0.1,1.4h-0.1l-6-9.7h-2.4V209h1.8v-6.3c0-0.9,0-1.8-0.1-2.8l0-0.5h0.1L184.6,209z M193.9,196.8h-3.8V209h3.4
			c2.1,0,3.7-0.5,4.8-1.6c1.1-1.1,1.7-2.6,1.7-4.6c0-1.9-0.5-3.4-1.6-4.4C197.3,197.3,195.8,196.8,193.9,196.8z M193.5,207.3h-1.4
			v-8.8h1.7c2.7,0,4.1,1.5,4.1,4.4C197.9,205.8,196.5,207.3,193.5,207.3z M209.9,209h2.1l-4.6-12.2h-2.2l-4.6,12.2h2.1l1.2-3.4h4.7
			L209.9,209z M204.6,203.9l1.1-3.2c0.3-0.8,0.5-1.6,0.7-2.2c0.1,0.2,0.2,0.6,0.3,1.1c0.1,0.5,0.3,0.8,0.3,1l1.1,3.3H204.6z
			 M213.8,196.8V209h7.2v-1.7h-5.2v-10.5H213.8z M227.8,207c-0.4,0.3-1,0.5-1.7,0.5c-0.5,0-1.1-0.1-1.7-0.2
			c-0.6-0.1-1.2-0.4-1.8-0.6v1.9c0.9,0.4,2,0.6,3.4,0.6s2.5-0.3,3.2-0.9c0.8-0.6,1.2-1.5,1.2-2.6c0-0.5-0.1-1-0.3-1.4
			c-0.2-0.4-0.5-0.8-0.9-1.1c-0.4-0.3-1.1-0.7-2-1c-0.8-0.3-1.3-0.6-1.6-0.8c-0.3-0.2-0.5-0.4-0.7-0.6c-0.1-0.2-0.2-0.5-0.2-0.8
			c0-0.5,0.2-0.8,0.5-1.1c0.3-0.3,0.8-0.4,1.5-0.4c0.9,0,1.8,0.2,2.9,0.7l0.6-1.6c-1.2-0.5-2.3-0.8-3.5-0.8c-1.2,0-2.2,0.3-2.9,0.9
			c-0.7,0.6-1.1,1.4-1.1,2.4c0,0.8,0.2,1.5,0.7,2.1s1.2,1.1,2.3,1.5c1.1,0.4,1.8,0.8,2.1,1.1c0.3,0.3,0.5,0.7,0.5,1.2
			C228.4,206.3,228.2,206.7,227.8,207z M239.1,196.8h-2V209h2V196.8z M250.6,203.2c0,0.5,0,1.1,0.1,1.9c0,0.8,0.1,1.3,0.1,1.4h-0.1
			l-6-9.7h-2.4V209h1.8v-6.3c0-0.9,0-1.8-0.1-2.8l0-0.5h0.1l6,9.7h2.4v-12.2h-1.8V203.2z M123.3,81.1c2.5-1.2,5.1-1.8,7.8-1.8
			c2.5,0,4.6,0.7,6.1,2c1.5,1.3,2.3,3.4,2.3,6.2c0,1.8-0.3,3.6-1,5.4c-0.7,1.7-1.8,3.6-3.4,5.6c-1.6,2-4.9,5.6-10,10.9l-17.3,17.4
			v10.1h48v-12.2h-29.9V124l8.8-8.3c5.9-5.4,10-9.5,12.3-12.5c2.3-2.9,4.1-5.8,5.2-8.5c1.1-2.8,1.7-5.7,1.7-8.9
			c0-3.6-0.9-6.9-2.7-9.7c-1.8-2.8-4.4-5-7.7-6.6c-3.3-1.6-7.1-2.4-11.4-2.4c-3.3,0-6.2,0.3-8.8,1c-2.6,0.6-5.1,1.6-7.3,2.8
			c-2.2,1.2-5,3.2-8.4,6.1l7.9,9.4C118.1,84.1,120.7,82.4,123.3,81.1z M174.9,136.9l16-26l16,26h16.6l-23.2-34.6l21.6-34.1h-15.7
			l-14.5,24.7l-14.8-24.7h-16.1l21.3,33.3l-22.8,35.4H174.9z M277.4,52.5C247.4,22.5,207.5,6,165,6C122.5,6,82.6,22.5,52.5,52.5
			C22.5,82.6,6,122.5,6,165c0,42.5,16.5,82.4,46.6,112.4S122.5,324,165,324c42.5,0,82.4-16.5,112.4-46.6c30-30,46.6-70,46.6-112.4
			C324,122.5,307.4,82.6,277.4,52.5z M276.2,276.2c-29.7,29.7-69.2,46.1-111.2,46.1c-42,0-81.5-16.4-111.2-46.1
			C24.1,246.5,7.7,207,7.7,165c0-42,16.4-81.5,46.1-111.2C83.5,24,123,7.7,165,7.7c42,0,81.5,16.4,111.2,46.1
			c29.7,29.7,46.1,69.2,46.1,111.2C322.3,207,305.9,246.5,276.2,276.2z M290.4,165c0-33.5-13-65-36.7-88.7
			C230,52.6,198.5,39.6,165,39.6c-33.5,0-65,13-88.7,36.7C52.6,100,39.6,131.5,39.6,165c0,33.5,13,65,36.7,88.7
			c23.7,23.7,55.2,36.7,88.7,36.7c33.5,0,65-13,88.7-36.7C277.3,230,290.4,198.5,290.4,165z M165,288.6c-33,0-64.1-12.9-87.5-36.2
			S41.3,198,41.3,165c0-33,12.9-64.1,36.2-87.5c23.4-23.4,54.4-36.2,87.5-36.2c33,0,64.1,12.9,87.5,36.2
			c23.4,23.4,36.2,54.4,36.2,87.5c0,33-12.9,64.1-36.2,87.5C229.1,275.8,198,288.6,165,288.6z M40.3,218.5l-8,0.3l0,0l6-5.3l-0.8-2
			l-8.8,3.6l0.5,1.3l4.3-1.7c0.9-0.4,2-0.8,3-1.3l0,0l-6.3,5.5l0.5,1.3l8.4-0.3l0,0c-0.2,0-0.6,0.2-1.3,0.5
			c-0.7,0.3-1.3,0.5-1.7,0.7l-4.3,1.8l0.6,1.4l8.8-3.6L40.3,218.5z M45.7,231.9c0.4-1.1,0.3-2.2-0.4-3.5c-0.7-1.3-1.6-2-2.7-2.3
			c-1.1-0.3-2.3-0.1-3.7,0.7c-1.4,0.7-2.3,1.6-2.6,2.7c-0.4,1.1-0.2,2.2,0.4,3.5c0.7,1.2,1.5,2,2.7,2.3c1.1,0.3,2.3,0.1,3.7-0.7
			C44.4,233.9,45.3,233,45.7,231.9z M39.6,233.8c-0.7-0.1-1.3-0.6-1.8-1.4c-0.4-0.8-0.5-1.6-0.2-2.3c0.3-0.7,1-1.3,2-1.9
			c1-0.5,1.9-0.7,2.7-0.6c0.8,0.1,1.3,0.6,1.8,1.4c0.4,0.8,0.5,1.6,0.2,2.3c-0.3,0.7-1,1.3-2,1.9C41.2,233.7,40.3,233.9,39.6,233.8z
			 M50.7,243.1c0.8-0.5,1.2-1.1,1.3-1.9c0.1-0.7-0.2-1.6-0.9-2.6l-1.5-2.2l-7.9,5.2l0.8,1.3l3.2-2.1l0.8,1.3l-1.9,4l1,1.5l2-4.5
			C48.7,243.7,49.7,243.7,50.7,243.1z M48.5,242c-0.4-0.1-0.8-0.5-1.2-1.1l-0.6-0.9l2.6-1.7l0.6,0.9c0.4,0.6,0.6,1.1,0.6,1.5
			c0,0.4-0.2,0.8-0.7,1.1C49.3,242.1,48.9,242.2,48.5,242z M48.3,251.2l3.3,4.2l1-0.8l-2.3-3l2.4-1.8l2.2,2.8l1-0.8l-2.2-2.8l2-1.6
			l2.3,3l1-0.8l-3.3-4.2L48.3,251.2z M72.9,264.7l-4.8,3c-0.8,0.5-1.5,1-2,1.3c0.6-0.8,1-1.5,1.3-2l2.8-5.1l-1.1-1.1l-5,2.8
			c-0.3,0.1-0.6,0.3-1,0.6c-0.4,0.3-0.7,0.5-1,0.7c0.4-0.5,0.9-1.2,1.3-2l2.9-4.9l-1.1-1.1l-2.4,4.2l-2.5,4.2l1.2,1.2l5.1-2.9
			c0.2-0.1,0.5-0.3,0.9-0.5c0.4-0.2,0.7-0.4,0.9-0.6c-0.1,0.1-0.3,0.4-0.5,0.8c-0.3,0.4-0.4,0.7-0.6,0.9l-2.8,5.1l1.2,1.2l8.4-5
			L72.9,264.7z M70.1,274.8l1.3,1l2.4-1.5l2.8,2.3l-0.9,2.6l1.3,1l3.2-9.6l-1.3-1.1L70.1,274.8z M78.3,272c-0.1,0.4-0.2,0.6-0.3,0.8
			l-0.9,2.6l-2.1-1.7l2.2-1.4c0.6-0.3,1.1-0.7,1.5-1C78.5,271.4,78.4,271.6,78.3,272z M90,278l-4.3,2.3l0.6-4.8l-1.4-1l-0.7,6.6
			l-2,3l1.3,0.9l2.1-3l5.9-3L90,278z M96.9,282.2c-0.8-0.5-1.6-0.7-2.3-0.6c-0.7,0.1-1.3,0.5-1.7,1.2c-0.3,0.5-0.4,1.1-0.4,1.7
			c0.1,0.6,0.4,1.2,1,2c0.6,0.7,0.9,1.2,1,1.6c0.1,0.3,0.1,0.7-0.1,1c-0.2,0.3-0.5,0.5-0.8,0.6c-0.4,0.1-0.8-0.1-1.3-0.4
			c-0.4-0.2-0.7-0.5-1.1-0.8c-0.4-0.3-0.7-0.7-0.9-1.1l-0.7,1.3c0.4,0.6,1.1,1.2,2,1.8c0.9,0.5,1.8,0.8,2.5,0.6
			c0.8-0.1,1.4-0.5,1.8-1.2c0.2-0.4,0.3-0.7,0.4-1.1c0-0.3,0-0.7-0.2-1.1c-0.2-0.4-0.5-0.9-0.9-1.5c-0.4-0.5-0.7-0.9-0.8-1.2
			c-0.1-0.3-0.2-0.5-0.2-0.7c0-0.2,0.1-0.4,0.2-0.6c0.2-0.3,0.4-0.5,0.8-0.5c0.3-0.1,0.7,0,1.1,0.3c0.6,0.3,1.1,0.9,1.7,1.6l1.1-0.8
			C98.4,283.3,97.7,282.6,96.9,282.2z M107.3,289.3l2.5,1.1l-3.2,7.5l1.4,0.6l3.2-7.5l2.5,1.1l0.5-1.2l-6.5-2.8L107.3,289.3z
			 M122,293.5c-1.4-0.5-2.5-0.4-3.5,0.1c-1,0.5-1.7,1.6-2.2,3c-0.5,1.5-0.5,2.7-0.1,3.8c0.5,1,1.4,1.8,2.7,2.2
			c1.3,0.4,2.5,0.4,3.5-0.2c1-0.6,1.7-1.6,2.2-3c0.5-1.5,0.5-2.7,0-3.8C124.2,294.7,123.3,293.9,122,293.5z M123,299
			c-0.4,1.1-0.9,1.9-1.5,2.3c-0.6,0.4-1.4,0.5-2.3,0.2c-0.9-0.3-1.4-0.8-1.7-1.5c-0.3-0.7-0.2-1.6,0.2-2.7c0.4-1.1,0.9-1.9,1.5-2.3
			c0.6-0.4,1.4-0.5,2.3-0.2c0.9,0.3,1.4,0.8,1.7,1.5C123.5,297,123.4,297.9,123,299z M139.2,298.2l-2.7-0.5l-1.8,9.3l1.5,0.3
			l0.7-3.5l1,0.2c1.2,0.2,2.1,0.1,2.9-0.3c0.7-0.4,1.2-1.1,1.4-2c0.2-0.9,0-1.7-0.5-2.3C141.2,298.8,140.3,298.4,139.2,298.2z
			 M140.6,301.4c-0.1,0.6-0.4,1-0.8,1.2c-0.4,0.2-1,0.2-1.8,0.1l-0.8-0.2l0.6-3.3l1.1,0.2c0.7,0.1,1.2,0.4,1.4,0.7
			C140.6,300.4,140.7,300.9,140.6,301.4z M148.7,299.6l-1.5-0.2l-1.1,9.4l5.5,0.6l0.2-1.3l-4-0.5L148.7,299.6z M159.1,300.4
			l-3.9,9.4l1.6,0.1l1-2.6l3.6,0.1l0.8,2.7l1.6,0.1l-3.2-9.6L159.1,300.4z M158.4,306l0.9-2.4c0.2-0.6,0.4-1.2,0.6-1.7
			c0,0.2,0.1,0.4,0.2,0.8c0.1,0.4,0.2,0.6,0.2,0.8l0.8,2.6L158.4,306z M173.1,300.4l-2,4.4l-2.4-4.2l-1.7,0.1l3.4,5.7l0.2,3.6
			l1.5-0.1l-0.2-3.7l2.9-5.9L173.1,300.4z M184.8,299.2l1.4,9.3l1.5-0.2l-1.4-9.3L184.8,299.2z M197.7,296.7l1.1,4.8
			c0.1,0.3,0.2,0.8,0.4,1.4c0.2,0.6,0.3,0.9,0.3,1l0,0l-6.2-6.3l-1.8,0.4l2.1,9.2l1.4-0.3l-1.1-4.8c-0.1-0.6-0.3-1.4-0.6-2.1
			l-0.1-0.4l0.1,0l6.2,6.3l1.8-0.4l-2.1-9.2L197.7,296.7z M216.8,290.4l0.2,8l0,0l-5.2-6l-2,0.8l3.4,8.8l1.3-0.5l-1.7-4.3
			c-0.4-1-0.8-2-1.3-3l0,0l5.4,6.4l1.3-0.5l-0.2-8.4l0,0c0,0.2,0.2,0.6,0.4,1.3c0.3,0.7,0.5,1.3,0.6,1.7l1.7,4.4l1.4-0.5l-3.4-8.8
			L216.8,290.4z M230.3,285.2c-1.1-0.4-2.2-0.3-3.5,0.4c-1.3,0.7-2.1,1.5-2.4,2.6c-0.3,1.1-0.1,2.3,0.6,3.7c0.7,1.4,1.6,2.3,2.7,2.7
			c1.1,0.4,2.2,0.3,3.5-0.4c1.3-0.6,2-1.5,2.3-2.6c0.3-1.1,0.1-2.3-0.6-3.7C232.3,286.5,231.4,285.6,230.3,285.2z M232.1,291.3
			c-0.1,0.7-0.6,1.3-1.4,1.7c-0.8,0.4-1.6,0.5-2.3,0.2c-0.7-0.3-1.3-1-1.8-2c-0.5-1-0.7-1.9-0.6-2.7c0.1-0.7,0.6-1.3,1.5-1.8
			c0.8-0.4,1.6-0.5,2.3-0.1c0.7,0.3,1.3,1,1.8,2C232,289.7,232.2,290.5,232.1,291.3z M240.2,277.9l2.7,4.2c0.2,0.3,0.5,0.7,0.8,1.2
			c0.4,0.5,0.6,0.8,0.6,0.9l0,0l-7.9-3.8l-1.6,1l5.1,8l1.2-0.8l-2.7-4.1c-0.4-0.6-0.8-1.2-1.3-1.8l-0.3-0.3l0,0l8,3.8l1.6-1l-5.1-8
			L240.2,277.9z M251.1,271.5l-0.8-1.1l-5.6,4.3l0.8,1.1l2.2-1.7l4.9,6.4l1.2-0.9l-4.9-6.4L251.1,271.5z M260,272.9l-2-2.2l2.7-2.4
			l-0.9-1l-2.7,2.4l-1.7-1.9l2.8-2.5l-0.9-1l-4,3.6l6.3,7l4-3.6l-0.9-1L260,272.9z M266.5,261.3l1,0.9l1.4-1.4l1.8,1.7
			c-0.3,0.5-0.6,0.9-1,1.3c-0.7,0.7-1.4,1.1-2.2,1c-0.8,0-1.6-0.4-2.5-1.2c-0.8-0.8-1.2-1.6-1.3-2.4c-0.1-0.9,0.3-1.7,1-2.4
			c0.5-0.6,1.2-1,2-1.3l-0.6-1.3c-0.9,0.4-1.7,0.9-2.3,1.6c-1.1,1.1-1.6,2.3-1.6,3.5c0,1.2,0.6,2.4,1.7,3.4c1.1,1.1,2.2,1.6,3.4,1.6
			c1.1,0,2.2-0.5,3.2-1.5c0.4-0.4,0.8-0.9,1.1-1.3c0.3-0.4,0.6-0.9,0.8-1.5l-3.4-3.3L266.5,261.3z M277.9,248.5
			c-1.2-1-2.4-1.4-3.5-1.3c-1.1,0.1-2.1,0.7-3,1.8c-0.9,1.1-1.2,2.2-1.1,3.4c0.2,1.1,0.9,2.2,2.1,3.1c1.2,1,2.4,1.4,3.5,1.3
			c1.1-0.1,2.1-0.7,3-1.8c0.9-1.1,1.2-2.2,1-3.4C279.8,250.5,279.1,249.4,277.9,248.5z M277.9,254.1c-0.6,0.7-1.2,1.1-2,1.1
			c-0.8,0-1.6-0.4-2.5-1.1c-0.9-0.7-1.5-1.4-1.6-2.2c-0.2-0.7,0-1.5,0.6-2.2c0.6-0.7,1.2-1.1,2-1.1c0.8,0,1.6,0.4,2.5,1.1
			c0.9,0.7,1.5,1.5,1.6,2.2C278.7,252.7,278.5,253.4,277.9,254.1z M289.4,234.2c-0.5-0.3-1.1-0.4-1.5-0.4c-0.5,0.1-0.9,0.4-1.4,0.9
			l-0.1,0c0.2-0.5,0.2-1,0-1.4c-0.2-0.4-0.5-0.8-1-1.1c-0.7-0.4-1.4-0.5-2-0.2c-0.6,0.3-1.3,1-1.9,2.1l-1.4,2.4l8.1,4.8l1.7-2.9
			c0.5-0.9,0.8-1.7,0.6-2.5C290.6,235.3,290.2,234.7,289.4,234.2z M284.3,237.3l-2.2-1.3l0.7-1.2c0.4-0.6,0.7-1,1-1.2
			c0.3-0.2,0.7-0.2,1.1,0.1c0.4,0.3,0.6,0.6,0.7,0.9c0,0.4-0.1,0.8-0.5,1.4L284.3,237.3z M288.8,238.1l-0.8,1.4l-2.6-1.5l0.8-1.3
			c0.3-0.6,0.7-1,1.1-1.1c0.4-0.2,0.8-0.1,1.2,0.1c0.5,0.3,0.7,0.6,0.8,1C289.3,237,289.2,237.5,288.8,238.1z M286.7,224.7l7,7.3
			l0.7-1.5l-2-2l1.6-3.3l2.8,0.3l0.7-1.5l-10.1-1L286.7,224.7z M289.1,224.7c0.4,0.1,0.7,0.1,0.8,0.1l2.7,0.3l-1.2,2.5l-1.8-1.8
			c-0.5-0.5-0.9-0.9-1.3-1.2C288.5,224.6,288.8,224.6,289.1,224.7z M297.2,215.4l-4.3-5l-0.6,1.6l3.2,3.6l-4.8,0.5l-0.6,1.6l6.6-0.8
			l3.4,1.3l0.6-1.4L297.2,215.4z M82.2,149.2H52.1v4.1h12.7v36h4.7v-36h12.7V149.2z M92.4,170.5h21.2v18.9h4.7v-40.2h-4.7v17.1H92.4
			v-17.1h-4.7v40.2h4.7V170.5z M150.3,153.4v-4.1H128v40.2h22.4v-4.2h-17.7v-14.8h16.6v-4.1h-16.6v-12.9H150.3z M196.3,153.4v-4.1
			h-22.4v40.2h4.7v-17.2h16.6v-4.1h-16.6v-14.7H196.3z M209.3,183.1c-1.8-1.8-2.7-4.4-2.7-7.7v-26.2h-4.7v25.9c0,4.6,1.3,8.2,4,10.9
			c2.6,2.6,6.4,4,11.2,4c4.8,0,8.6-1.3,11.4-3.9c2.8-2.6,4.1-6.2,4.1-10.8v-26H228v26.2c0,3.4-0.9,6-2.7,7.8
			c-1.8,1.8-4.4,2.7-7.8,2.7C213.9,185.8,211.2,184.9,209.3,183.1z M269.1,149.2v23c0,1.2,0,3.1,0.1,5.8c0.1,2.7,0.2,4.3,0.2,4.8
			h-0.2l-21.9-33.6h-5.3v40.2h4.3v-22.8c0-3.3-0.1-6.9-0.4-10.9h0.2l21.9,33.7h5.3v-40.2H269.1z M108,237.2c-0.5,0-1.5,0.9-3.1,2.7
			c-1.7,1.8-2.6,2.7-2.7,2.7c-0.3,0-0.3-0.1-0.3-0.1c-0.1-0.2-0.2-0.6-0.2-1.1c-0.1-3.8,0.1-4.9-2.1-4.9c-0.6,0-1.3,0.4-1.9,1.3
			c-0.7,0.9-1.1,1.3-1.3,1.3c-0.3,0.4-3.8,5.4-5.6,7.3l-0.1-1.2c1.4-4.2,2.1-6.2,2.1-6.1c0-0.3-0.1-0.4-0.2-0.4
			c0,0.1-0.1,0.2-0.2,0.2c-0.2,0-0.2-0.1-0.2-0.2c0.4-0.2,0.7-0.1,1,0.1c0.9-2.2,1.7-4,2.2-5.1c-0.1,0-0.2-0.1-0.3-0.1
			c0.7-0.6,1-1.1,1-1.5c0-0.2-0.1-0.3-0.1-0.5c-0.1-0.2-0.1-0.2-0.1-0.3c-0.5-0.3-0.9-0.4-1.3-0.4c-1.7,0-6.2,11.6-6.1,12.2v0.5
			c0.1,0,0.2,0.1,0.3,0.1c-0.5,0.4-1.2,3.7-1.2,4.8c0,0.9,1,1.9,1.7,1.9c1.1,0,4.1-3.5,5.9-5.4c-0.1-0.1-0.2-0.1-0.3-0.2
			c-0.1-0.1-0.2-0.1-0.2-0.2c0.4-0.2,1-0.9,1.8-1.9c1-1.2,1.7-2,2.2-2.4c0.4,2,0.8,3.5,1.2,4.5c0.8,0.4,1.4,0.6,1.8,0.8
			c0-0.3,0.1-0.5,0.3-0.5c0.1,0,0.1,0.1,0.1,0.2c-0.1,0.1-0.1,0.2,0.1,0.2c0.4,0,1.2-0.6,2.5-1.9c1.4-1.4,2.3-2.2,2.5-2.3
			c0,3.8,0.1,6.5,0.2,7.9c0.3-0.2,0.6-0.3,0.7-0.4c0.2,0.2,0.3,0.4,0.3,0.6c0.2-0.1,0.3-0.1,0.3,0.1c-0.2,0.2-0.6,0.2-1,0.2
			c0.5,0.7,0.7,1.3,0.7,1.5c0.5-0.7,0.9-1.2,1.2-1.5c-0.1-0.7,0.1-2.1,0.3-4.3c0.2-2.1,0.3-3.6,0.3-4.4
			C110,238.2,110,237.2,108,237.2z M100.7,243.8h-0.5v-0.3h0.5V243.8z M125.6,240.1c-0.1-0.3-0.1-0.6-0.1-0.8c-0.2,0-0.3,0-0.4-0.1
			c0.1-0.2,0-0.4-0.4-0.7c0.2-0.1,0.2-0.3,0.2-0.6c-0.5-0.3-1.2-0.7-2-1c-0.1,0.4-0.2,0.7-0.1,0.8c0.3,0,0.5,0,0.5,0.1
			c0,0.2,0,0.3,0,0.6l0.1,0.4c0.1-0.1,0.2,0,0.3,0.1c-0.1,0.3,0,3.4,0.2,3.4h0.2c0,0,0,0,0,0c0,0,0,0.1,0,0.1
			c-0.4,0.2-0.7,0.7-0.9,1.4c-0.2,0.8-0.7,1.5-1.2,2c-0.1,0.2-0.1,0.4-0.1,0.6c-0.2-0.2-0.3-0.2-0.4-0.1c0,0.2-0.2,0.5-0.6,0.7
			c-0.4,0.3-0.6,0.5-0.7,0.8c0,0-2.1,1.5-2.9,1.5c-0.1,0-0.3,0-0.7,0.1c-0.4,0.1-0.6,0.1-0.7,0.1c-0.5,0-1.6-1-1.6-1.5
			c0-1.4,2-5.1,3-6.1c0.5-0.5,1-1,1.5-1.5c1-0.9,1.7-1.4,2.2-1.4c0.1,0,0.3-0.1,0.6-0.3c0.3-0.2,0.4-0.2,0.5-0.2
			c-0.2-0.5-0.4-1-1.1-1c-0.3,0-0.6,0.1-0.7,0.3c-0.2-0.2-0.3-0.2-0.4-0.2c-3.3,0-7.6,6.9-7.6,9c0,0.2,0.2,0.4,0.5,0.7h-0.5
			c0.3,1.2,0.7,3,1.6,3c0.2,0,0.3,0.1,0.3,0.2c0.8,0.5,1.4,0.7,1.7,0.7l0.7-0.1c0.4,0,0.7,0,0.8,0c0.1,0,0.1,0,0.1-0.1
			c0,0,0,0,0.1,0c0.1,0,0.3,0,0.6-0.1c0.3,0,0.5,0,0.5,0c0.2,0,1-0.5,2.6-1.6c-0.2-0.2-0.2-0.3-0.2-0.4c0,0,0.1,0,0.2,0.1
			c0.1,0.1,0.1,0.1,0.2,0.1c0.1-0.2,0.7-0.9,1.9-2.2c0.6-0.7,0.9-1.3,0.9-1.9c0.1,0,0.2,0.1,0.2,0.2c0.1-0.1,0.2-0.3,0.2-0.4
			c-0.1,0-0.2,0-0.2-0.1c0.2-0.2,0.4-0.3,0.5-0.2c0,0-0.1-0.1-0.1-0.2l0.5-1.1c-0.1,0-0.2,0-0.2-0.1c0.3-0.1,0.4-0.4,0.4-0.7
			c0-0.5,0-0.8,0-0.9c0.1-0.4,0.2-0.7,0.2-0.9C125.7,240.7,125.7,240.5,125.6,240.1z M114.7,250.6l-0.2-0.1l0.2-0.3l0.2,0.1
			L114.7,250.6z M119.7,250.5H119v-0.2h0.7V250.5z M124.5,238h-0.6v-0.2h0.6V238z M124.5,243.9v-0.2l0.3-0.2l0.1,0.2L124.5,243.9z
			 M139.4,237.7c-0.7,0-1.1,0.1-1.3,0.3c-0.4,0.4-0.8,0.7-1.3,1l-5.1,6.5c-0.3,0.4-0.5,0.8-0.8,1.2c-0.4,0.5-0.7,0.8-1,0.9l3.4-10.2
			l-0.4-0.8c-0.1-0.2-0.3-0.3-0.6-0.3c-1,0-2.2,2.9-2.1,3.5c-1,1.7-1.3,3-1.9,5.8l-0.5,1.7c-0.2,0.7-0.3,1.4-0.3,1.9
			c0,1,0.2,1.5,0.6,1.5h0.7c0.7,0,4.6-5.4,7.1-8.8c0.9-0.7,1.5-1.3,2-1.7l0.1,1c0,0.2,0,0.4-0.1,0.8c0,0.3-0.1,0.6-0.2,0.8
			c0.3,0,0.5,0,0.6,0l-0.3,0.3c-0.1-0.1-0.2-0.1-0.3-0.1c0,0.7-0.2,1.3-0.4,2c-0.2,0.7-0.3,1-0.3,1.2v0.6c0.1,0,0.2,0,0.2,0.1
			c-0.3,0.5-0.5,1.3-0.5,2.4l0.1,0.8c0,0.4,0,0.6,0,0.7c0.1,0,0.2,0,0.3,0.2l0.3-0.3l0.2,0c0.1,0,0.3,0.1,0.5,0.1
			c0.2-0.7,0.3-1.3,0.5-1.7c-0.1,0-0.2,0-0.2-0.1c0.5-0.6,0.7-1.4,0.7-2.3c0-0.2,0-0.3-0.1-0.4c0.2-0.3,1.2-4.8,1.2-5.6
			C140.6,238.7,140.2,237.7,139.4,237.7z M139,245.5c0-0.3,0.1-0.5,0.2-0.5c0,0.2,0.1,0.4,0.2,0.7
			C139.3,245.6,139.2,245.5,139,245.5z M138.7,251.3c0-0.2,0-0.3-0.2-0.4c-0.1,0-0.4,0.1-0.7,0.1l-0.7,0.2c0,0,0.1,0,0.2,0h0.2
			c0.3,0.3,0.5,0.5,0.5,0.7c0,0.1,0,0.2-0.2,0.3c-0.1,0-0.2,0.1-0.2,0.1l0.3,0.3c0.1,0,0.3,0,0.5-0.1c0.1,0,0.2-0.1,0.2-0.1v-0.9
			c-0.2,0.1-0.4,0-0.6-0.2C138.2,251.2,138.4,251.2,138.7,251.3z M145.6,252.1L145.6,252.1C145.6,252.1,145.6,252.1,145.6,252.1z
			 M154.7,241c-0.4-0.2-0.7-0.2-1.2-0.2c0,0-0.4,0-1,0.2c-0.7,0.1-1.2,0.2-1.5,0.2c-0.2,0-0.5,0-0.6-0.1l0-0.3
			c0-0.2-0.1-0.4-0.1-0.6c0.2-0.2,0.3-0.3,0.5-0.3c4.2-10,5.4-13,8.9-18.2c0,0-0.1-0.3-0.2-0.9c-0.1-0.5-0.4-0.8-0.7-0.8
			c-2.3,0.9-6.1,9.4-9.1,16.8c-0.8,1.8-1.2,2.9-1.3,3.1c-0.4,1-0.7,1.7-1,1.9c-2,0.7-5.7,1.9-5.7,3c0,0.4,0.5,0.9,1,0.9h0.7
			c0.3,0,2.4-1.3,2.6-1.6c0,0,0,0.1,0,0.2c0,0,0,0.1,0.1,0.1c0.4,0,0.5,0,0.6-0.1c-0.1,0.3-0.4,1.3-1,3c-0.5,1.2-0.7,2.4-0.7,3.3
			c0.2,0.3,0.1,0.8-0.3,1.2c0.5,0,0.8,0,1,0.2c0-0.5,0-0.7,0-0.8c0.1,0.1,0.3,0.2,0.4,0.2c-0.1-0.1-0.2-0.2-0.3-0.3
			c-0.1-0.1-0.2-0.2-0.2-0.2c0.1,0,0.2,0,0.4,0.2c0,0,0.1,0,0.2-0.1c0-0.1,0-0.1,0.1-0.1c0.2,0.2,0.4,0.3,0.5,0.2l0.7-2.6
			c-0.1,0-0.2,0-0.2-0.1c0.5-0.5,1-2,1.4-3.2c0.4-0.4,0.6-0.8,0.6-1.3c0.4-0.3,2.2-1.2,2.6-1.2c0.1,0,0.2,0,0.4,0
			c0.1,0,0.2,0.1,0.3,0.1c0.1,0,0.1,0,0-0.1c0-0.1,0-0.1,0.1-0.1h0.6c0-0.2,0-0.3,0.1-0.3l0.2,0.2l0.9-0.5c0.2-0.1,0.5-0.2,1.1-0.3
			v-0.4c-0.2,0-0.3,0-0.4-0.2L154.7,241z M148.3,241h-0.3v-0.2h0.3V241z M145.6,252.1c0,0-0.1,0-0.2,0c-0.1,0-0.1,0,0-0.1
			c0-0.1,0-0.1-0.1-0.1c-0.4,0-0.6,0.1-0.7,0.3c0.4,0,0.7,0,0.9,0.1c-0.5,0.3-0.7,0.5-0.7,0.7c0.2,0,0.2,0.1,0.2,0.3h0.6
			c0-0.2,0.1-0.3,0.2-0.5c0,0-0.2-0.2-0.4-0.2C145.6,252.4,145.7,252.2,145.6,252.1z M164.2,242.3L164.2,242.3
			C164.2,242.3,164.2,242.3,164.2,242.3L164.2,242.3z M162,250.9c0,0.1,0,0.2-0.1,0.2c-1.9-1.3-2.9-2.7-2.9-4.2
			c0-0.4,0.1-0.7,0.2-0.8h0.9c0.5,0,2.3-1.9,4.1-3.8h-0.3v-0.2h0.3v0.2c1.4-1.5,2.6-3,3.1-3.6c0-0.1,0-0.3,0-0.5l0.1-0.6
			c0-0.8-1.1-2.2-1.9-2.2c-0.1,0-0.1,0,0,0.1c0,0.1,0,0.1-0.1,0.1c0,0-0.2-0.1-0.6-0.2c-0.3-0.1-0.6-0.2-0.7-0.2
			c-3.5,0-7.2,7.1-7.2,10.9c0,0.3,0.2,1.4,0.8,3.3h0.7v0.1c-0.2,0.1-0.4,0.2-0.5,0.2c1.3,1.4,2.2,2.2,2.7,2.2c0.2,0,0.5,0.1,0.6,0.2
			l0.3-0.2c0.3,0.2,0.5,0.3,0.7,0.3c0-0.2,0.1-0.3,0.2-0.3c0-0.2-0.2-0.3-0.3-0.5l0.2-0.2c0.1,0,0.3,0,0.4,0.2
			c-0.1,0.1-0.1,0.2-0.1,0.4c0.2,0,0.3,0,0.4,0.2c0.3-0.3,0.5-0.5,0.5-0.5c0-0.1-0.1-0.2-0.3-0.4C162.5,251,162.1,250.9,162,250.9z
			 M166.8,237.1h0.4v0.2h-0.4V237.1z M164.8,237.1c0.1,0,0.2,0,0.5,0.1c0.2,0,0.3,0.1,0.4,0.1c0,0,0,0.1,0,0.2
			c0.1,0.1,0.1,0.2,0.1,0.3c0,0.6-0.9,1.8-2.8,3.6c-1,0.9-2.1,1.9-3.1,2.8C159.8,242.6,163,237.1,164.8,237.1z M177.5,240.8
			c-0.2,0-0.6,0.4-1.3,1.3c-0.9,1.1-1.4,1.7-1.4,1.8l-0.9,0.8c-0.3,0.2-0.7,0.7-1.4,1.4c-0.6,0.6-0.9,0.9-0.9,0.9
			c-0.1,0-0.1,0-0.1-0.1c0,0,0,0-0.2,0c-0.1,0-0.2,0-0.3,0.2c-0.2,0.1-0.3,0.2-0.4,0.2c-0.6,0-0.9-0.3-0.9-0.9
			c0-0.3,0.2-0.9,0.5-1.7c0.5-1.1,0.7-1.7,0.7-1.7c0.7-0.7,1.3-1.4,1.9-2c0.8-0.8,1.6-1.4,2.6-1.9c0.6-0.3,1.1-0.5,1.4-0.5
			c0.1,0,0.2,0,0.3,0c0.1,0,0.2,0.1,0.3,0.1c0.2,0,0.4-0.5,0.4-0.5c-0.2-0.2-1.9-1-2-1c-4,0-8.2,6-8.2,8.9c0,1.5,1.3,3.1,3.1,3.1
			c0.9,0,3.7-2.9,5.2-4.3l0.1,0.4c-0.4,1.2-0.8,2.4-1.3,3.5c-0.1,0.2-0.3,0.5-0.6,1.1c-0.3,0.4-0.5,0.7-0.5,0.8v0.3c0,0,0,0,0.1,0
			c0,0,0.1,0,0.2,0c0.2,0,0.2,0,0,0.2c-0.4,0.1-0.8,0.5-1.2,1.1c-0.5,0.9-0.9,1.6-1.3,1.9c0.1,0,0.2,0,0.2,0.1
			c-0.2,0.1-0.4,0.3-0.7,0.6c-0.1,0.2-0.2,0.2-0.4,0.2l-1.1,1.9l-0.2-0.2c-1.6,2-2.9,3-3.9,3c0,0-0.1,0.1-0.3,0.2
			c-0.1-0.1-0.1-0.2-0.2-0.3c0-0.1-0.1-0.1-0.1-0.1h-0.3c-0.3-0.3-0.5-0.5-0.5-0.6h-0.5c-0.1,0.6,0.9,1.8,1.4,2.1
			c0-0.2,0.1-0.3,0.2-0.3c0,0,0,0,0.1,0.2c0,0.1,0.1,0.2,0.2,0.2c0.1,0,0.1,0,0.2-0.1c0-0.1,0.1-0.1,0.2-0.1c0.1,0,0.2,0,0.2,0.1
			c0,0.1,0.1,0.1,0.2,0.1c0.1,0,0.3,0,0.5-0.1c0.2-0.1,0.4-0.1,0.5-0.1c0.1,0,0.3-0.1,0.7-0.3c0.4-0.2,0.7-0.3,0.8-0.3
			c-0.1-0.2-0.2-0.3-0.1-0.3l0,0c0,0,0,0.1,0.2,0.1c0.2,0,0.5-0.3,1-0.8c0.5-0.7,0.9-1,0.9-1.1l-0.1-0.1c0,0,0.1-0.1,0.3-0.2
			c0.1,0.1,0.2,0.1,0.3,0.1c-0.1-0.2-0.1-0.2,0.1-0.2c0.2,0,0.9-1.1,0.9-1.1c0.8-1,1.4-1.7,1.8-2.2c0.9-1.4,1.6-2.6,2.2-3.5
			c0.5-0.9,2.8-7.1,2.8-8.6C178.9,241.2,178.4,240.8,177.5,240.8z M166,260.2l-0.2-0.3l0.2-0.1l0.2,0.3H166z M168.8,258.6l-0.3-0.2
			l0.1-0.2l0.3,0.1L168.8,258.6z M193.8,240.1c-0.1-0.3-0.1-0.6-0.1-0.8c-0.2,0-0.3,0-0.4-0.1c0.1-0.2,0-0.4-0.4-0.7
			c0.2-0.1,0.2-0.3,0.2-0.6c-0.5-0.3-1.2-0.7-2-1c-0.1,0.4-0.2,0.7-0.1,0.8c0.3,0,0.5,0,0.5,0.1c0,0.2,0,0.3,0,0.6l0.1,0.4
			c0.1-0.1,0.2,0,0.3,0.1c-0.1,0.3,0,3.4,0.2,3.4h0.2c0,0,0,0,0,0c0,0,0,0.1,0,0.1c-0.4,0.2-0.7,0.7-0.9,1.4c-0.2,0.8-0.7,1.5-1.2,2
			c-0.1,0.2-0.1,0.4-0.1,0.6c-0.2-0.2-0.3-0.2-0.4-0.1c0,0.2-0.2,0.5-0.6,0.7c-0.4,0.3-0.6,0.5-0.7,0.8c0,0-2.1,1.5-2.9,1.5
			c-0.1,0-0.3,0-0.7,0.1c-0.4,0.1-0.6,0.1-0.7,0.1c-0.5,0-1.6-1-1.6-1.5c0-1.4,2-5.1,3-6.1c0.5-0.5,1-1,1.5-1.5
			c1-0.9,1.7-1.4,2.2-1.4c0.1,0,0.3-0.1,0.6-0.3c0.3-0.2,0.4-0.2,0.5-0.2c-0.2-0.5-0.4-1-1.1-1c-0.3,0-0.6,0.1-0.7,0.3
			c-0.2-0.2-0.3-0.2-0.4-0.2c-3.3,0-7.6,6.9-7.6,9c0,0.2,0.2,0.4,0.5,0.7h-0.5c0.3,1.2,0.7,3,1.6,3c0.2,0,0.3,0.1,0.3,0.2
			c0.8,0.5,1.4,0.7,1.7,0.7l0.7-0.1c0.4,0,0.7,0,0.8,0c0.1,0,0.1,0,0.1-0.1c0,0,0,0,0.1,0c0.1,0,0.3,0,0.6-0.1c0.3,0,0.5,0,0.5,0
			c0.2,0,1-0.5,2.6-1.6c-0.2-0.2-0.2-0.3-0.2-0.4c0,0,0.1,0,0.2,0.1c0.1,0.1,0.1,0.1,0.2,0.1c0.1-0.2,0.7-0.9,1.9-2.2
			c0.6-0.7,0.9-1.3,0.9-1.9c0.1,0,0.2,0.1,0.2,0.2c0.1-0.1,0.2-0.3,0.2-0.4c-0.1,0-0.2,0-0.2-0.1c0.2-0.2,0.4-0.3,0.5-0.2
			c0,0-0.1-0.1-0.1-0.2l0.5-1.1c-0.1,0-0.2,0-0.2-0.1c0.3-0.1,0.4-0.4,0.4-0.7c0-0.5,0-0.8,0-0.9c0.1-0.4,0.2-0.7,0.2-0.9
			C193.9,240.7,193.9,240.5,193.8,240.1z M182.8,250.6l-0.2-0.1l0.2-0.3l0.2,0.1L182.8,250.6z M187.9,250.5h-0.7v-0.2h0.7V250.5z
			 M192.7,238h-0.6v-0.2h0.6V238z M192.7,243.9v-0.2l0.3-0.2l0.1,0.2L192.7,243.9z M219,236.4c-2.8,0-4.3,1.1-6.5,3.3
			c-1.1,1.1-2,1.9-2.6,2.3c-0.1-0.1-0.2-0.1-0.1-0.2l1.6-4.6c0.7-1.9,1-3.4,1.1-4.4c0.3-0.1,0.4-0.2,0.6-0.3
			c4.2-11.1,6.1-14.8,6.1-14.7c0-0.3-0.6-1.6-1.3-1.6c-1.1,0-2,1.9-2.7,3.1l-5.2,13.3c-1.7,4.9-3,9.6-3.9,14.1c0.1,0,0.2,0,0.3,0.1
			c-0.1,0-0.1,0-0.3,0c-0.2,0-0.2,0.1-0.2,0.2c0,0.3,0.3,0.8,1,1.4c0.5-0.1,1-0.1,1.5,0c0.4-1.1,1.2-2.5,2.5-4
			c1.6-1.9,2.5-3.2,2.9-3.8c0.1,0.1,0.2,0.1,0.3,0.1l3.9-2.4c0.9,0,1.4,0.1,1.6,0.2c-1.4,3.8-4.8,6.3-11.2,10.4
			c-0.1,0,0-0.1,0.1-0.2c0.1,0,0-0.1-0.2-0.1c-0.1,0-0.2,0-0.2,0.1c-0.1,0.1-0.1,0.1-0.3,0.1c-0.4,0-0.5-0.1-0.5-0.4
			c0,0.1-0.1,0.2-0.2,0.2c-0.1,0-0.4-0.2-0.8-0.6v0.8c-0.1,0.7,0.9,1.6,1.6,1.7l0.5-0.4c0.2,0.2,0.3,0.3,0.4,0.3
			c0.2,0,0.3,0,0.3-0.1c0.1-0.1,0.1-0.1,0.3-0.1c0.2,0,0.2,0,0.1,0.1c-0.1,0.1-0.1,0.1,0.1,0.1c2.9,0,12.7-8.4,12.7-11.4
			C221.8,237.3,220.9,236.4,219,236.4z M213.8,228h0.4v0.2h-0.4V228z M206.6,245.5c0,0,0-0.1-0.1-0.3c-0.1-0.1-0.1-0.2-0.1-0.2
			c0.3,0,0.5,0,0.6,0.1C207,245.3,206.9,245.5,206.6,245.5z M208.8,249.2c0.2,0,0.3-0.1,0.4-0.2c0.2,0.2,0.2,0.3,0.2,0.4
			L208.8,249.2z M211.7,249.4H211v-0.2h0.7V249.4z M212.5,248.8h-0.4v-0.2h0.4V248.8z M212.7,248.7l-0.2-0.2l0.4-0.3l0.2,0.1
			L212.7,248.7z M229.9,244.9l0.1,2.7c-0.1,0.1-0.2,0.3-0.2,0.5c0.5-0.5,0.4-0.2,0.2,0.3c-0.1,0.3-0.2,0.4-0.2,0.5
			c0,0.3,0.2,0.5,0.5,0.8l0,0.3l0.2-0.1l0.2,0.5h-0.2l-0.2-0.4l0,0.4c0.4,0,0.7,0.2,0.8,0.4c-0.3,0.1-0.5,0.2-0.4,0.2
			c-0.1,0-0.1,0-0.1-0.1c0-0.1,0-0.1,0-0.1c-0.1,0-0.2,0-0.3,0.1c0,0-0.1,0.1-0.1,0.1c0.1,0,0.3,0.1,0.5,0.2c0,0.5,0,0.8,0.1,1
			c0,0,0.1,0,0.2,0c0.1,0,0.2,0,0.2,0c0-0.1,0-0.3-0.1-0.5c0.3-0.3,0.5-0.5,0.5-0.7c-0.1,0-0.2-0.1-0.4-0.2c0,0,0.1-0.1,0.1-0.2
			c0-0.1,0.1-0.1,0.1-0.2c-0.1,0-0.2,0-0.2-0.1c0.3-0.3,0.5-0.5,0.6-0.7c-0.1,0-0.2,0.1-0.4,0.2c0.2-0.5,0.3-0.8,0.4-1
			c0.1,0.1,0.1,0.2,0.1,0.2l0.4-3.4c0.6-2.4,0.9-4.1,0.9-5c0-0.3-1-1.2-1.3-1.2c-0.1,0-0.2,0-0.2,0.1c-0.1,0.1-0.2,0.2-0.2,0.2
			c-0.1,0-0.1,0-0.1-0.2c0-0.1,0-0.1,0-0.1c-0.1,0-0.3,0.3-0.7,0.9c-0.5,0.7-0.8,1.2-1,1.4c0.2,0.2,0.2,0.3,0.2,0.4
			c-0.1,0-0.2-0.1-0.2-0.2l-2.6,3.5c-1.1,1.5-2.3,2.5-3.4,3l-0.2-0.2c0.7-1.1,1.2-2,1.5-2.5c0.9-1.2,2.3-3,4.4-5.4c0,0,0,0.1,0,0.2
			c0,0,0,0.1,0.1,0.1c0.1,0,0.4-0.2,0.8-0.5c0.6-0.4,1.1-0.7,1.5-0.8v-0.7c-0.1,0-0.2-0.1-0.4-0.2c-0.2-0.2-0.4-0.3-0.4-0.3
			c0,0.2-0.1,0.3-0.2,0.3c0-0.1-0.1-0.2-0.1-0.5h-0.8c-3.3,2.1-5.7,4.6-7.2,7.6c-0.3,0.4-0.6,0.9-0.9,1.3c-0.4,0.6-0.6,1.1-0.6,1.5
			c0,0.4,0.4,1,0.7,1.2l-0.1,0.1c0.4,0.4,0.7,0.6,1.1,0.6c0.6,0,1,0,1.2,0.1c0.2-0.3,0.3-0.5,0.5-0.5c0,0.2,0,0.4,0,0.5
			c1.1-0.5,2.1-1.2,2.8-2.2C228.3,246.5,229.2,245.5,229.9,244.9z M231.1,249.9l0,0.2l-0.5,0.2V250L231.1,249.9z M230.2,249.3
			l0.6,0.3l0,0.2l-0.6-0.3L230.2,249.3z M230.1,250.1L230.1,250.1L230.1,250.1L230.1,250.1z M230,260.9c0.1,0,0.2,0,0.2,0.1
			c-1,0.7-1.6,1.2-1.7,1.7c0.2,0.3,0.4,0.5,0.7,0.5c0.1,0,0.2,0,0.3-0.1s0.2-0.1,0.2-0.1c0-0.4,0.6-0.7,1.2-0.9
			c-0.1-0.3,0-0.5,0.2-0.7c-0.5-0.5-0.9-0.7-1.1-0.8C230.1,260.7,230.1,260.8,230,260.9z M230.2,262.4l-0.3-0.3h0.5
			C230.2,262.2,230.2,262.3,230.2,262.4z M247.9,236.7c-0.6,0-1.4,0.7-2.3,2l-1.3,2.4c-1.4,2.2-2.9,4.7-4.3,6.1l-1.2-1.7
			c-0.8-2.6-0.8-3.2-0.9-4.4c-0.2-1.1-0.6-1.6-1.2-1.6c-0.3,0-0.6,0.1-0.9,0.4c0,2.7,0.5,4.8,1.4,6.5c0.1-0.1,0.2,0,0.3,0.1
			c0,0,0,0.1,0,0.1c0,0.2,0.2,0.6,0.6,1.2c0.5,0.7,0.7,1.2,0.8,1.3l-6.8,9.1l0.1-0.1c0,0,0.1,0,0.2,0c0.2,0,0.2,0,0,0.2
			c-0.3,0.2-0.5,0.2-0.6,0.1c-0.1,0.4-0.3,0.8-0.7,1.1c-0.3,0.3-0.5,0.5-0.5,0.7c0,0.1,0.1,0.3,0.4,0.6c0.3,0.4,0.5,0.6,0.5,0.7
			c1.4-1.5,2.6-2.6,3.4-3.4c0-0.1-0.1-0.2-0.1-0.3h0.1c0.2,0,0.9-1.3,1-1.4c0.5-0.5,1.2-1.5,2.3-2.8c0.7-0.9,1.3-1.5,1.6-1.9
			c-0.2-0.2-0.2-0.3-0.2-0.3c0.6-0.3,1.1-0.5,1.4-0.8l0.3,0.2c0.3-0.2,0.5-0.3,0.6-0.3v-0.4c0,0-0.1-0.2-0.3-0.4
			c-0.1-0.2-0.2-0.3-0.2-0.4c0-0.3,0.9-1.7,2.6-4.4c3-4.5,4.5-6.9,4.5-7.3C248.7,237,248.4,236.7,247.9,236.7z M235.1,257.6v-0.1
			C235.1,257.5,235.1,257.5,235.1,257.6z M236.8,253.2V253l0.3-0.1l0.1,0.2L236.8,253.2z M52.7,90.2l-1.1-0.7l-2,3.2l-2.5-1.6l1.9-3
			l-1.1-0.7l-1.9,3l-2.2-1.4l2-3.2l-1.1-0.7l-2.8,4.5l8,5L52.7,90.2z M54.7,87.2l1-1.3L54,81.7l4.5,0.4l1.1-1.4l-5.8-0.3l-1.9-5.1
			l-1,1.3l1.6,3.9l-4.2-0.4l-1,1.4l5.4,0.3L54.7,87.2z M58.2,74.8c1.2,1,2.3,1.5,3.4,1.5c1.1,0,2.1-0.5,3-1.6
			c0.6-0.7,1.1-1.4,1.3-2.2l-1-0.9c-0.2,0.4-0.4,0.7-0.5,1.1c-0.2,0.3-0.4,0.7-0.7,1c-0.6,0.7-1.3,1-2.1,1c-0.8,0-1.6-0.4-2.5-1.2
			c-0.8-0.7-1.3-1.5-1.5-2.3c-0.1-0.8,0.1-1.5,0.7-2.2c0.3-0.3,0.5-0.5,0.9-0.7c0.3-0.2,0.6-0.4,1-0.5l-0.6-1.3
			c-0.8,0.4-1.6,0.9-2.2,1.6c-0.6,0.7-1,1.4-1.1,2.2c-0.2,0.8-0.1,1.5,0.3,2.3C56.9,73.4,57.5,74.1,58.2,74.8z M73.5,65.4l-0.9-0.9
			l-2.9,2.8L64,61.5l-1.1,1.1l6.6,6.7L73.5,65.4z M76.9,61.3c0.9,0.1,1.8-0.3,2.7-1c0.6-0.5,1-1,1.3-1.6c0.3-0.6,0.3-1.2,0.2-1.8
			c-0.1-0.6-0.4-1.2-0.8-1.7l-3.9-4.7l-1.2,1l3.8,4.6c1,1.2,0.9,2.2-0.2,3.2c-0.6,0.5-1.1,0.7-1.6,0.6c-0.5-0.1-1-0.4-1.5-1
			l-3.8-4.6l-1.2,1l3.9,4.7C75.2,60.8,76,61.2,76.9,61.3z M83.5,50.2c0.5,0.2,1.3,0.1,2.2-0.1c0.9-0.2,1.5-0.3,1.9-0.2
			c0.4,0,0.6,0.2,0.8,0.5c0.2,0.3,0.3,0.7,0.2,1c-0.1,0.4-0.4,0.7-0.9,1.1c-0.3,0.2-0.7,0.4-1.2,0.6c-0.5,0.2-0.9,0.3-1.4,0.4
			l0.8,1.2c0.7-0.1,1.6-0.5,2.4-1.1c0.9-0.6,1.4-1.3,1.7-2c0.2-0.7,0.1-1.5-0.4-2.1c-0.2-0.3-0.5-0.6-0.8-0.8
			c-0.3-0.2-0.7-0.3-1.1-0.3c-0.4,0-1,0.1-1.7,0.2c-0.7,0.1-1.1,0.2-1.4,0.2c-0.3,0-0.5,0-0.7-0.1c-0.2-0.1-0.3-0.2-0.5-0.4
			c-0.2-0.3-0.3-0.6-0.2-0.9c0.1-0.3,0.3-0.6,0.7-0.9c0.5-0.4,1.3-0.7,2.1-0.9l-0.3-1.3c-1,0.2-1.8,0.5-2.6,1.1
			c-0.8,0.5-1.3,1.2-1.5,1.8c-0.2,0.7-0.1,1.4,0.4,2C82.5,49.7,82.9,50,83.5,50.2z M96.2,48.3l-4.9-8.1L90,41l4.9,8.1L96.2,48.3z
			 M104,44l-1.4-9.9l-1.4,0.7l1,6.1c0,0.2,0.1,0.5,0.2,1c0.1,0.4,0.2,0.8,0.3,1.1c-0.1-0.2-0.3-0.4-0.7-0.8
			c-0.3-0.3-0.6-0.6-0.8-0.8l-4.5-4.3l-1.4,0.7l7.3,6.9L104,44z M115.5,38.7l-0.5-1.2l-3.5,1.5l-1.2-2.7l3.3-1.4l-0.5-1.2l-3.3,1.4
			l-1-2.4l3.5-1.5l-0.5-1.2l-4.9,2.1l3.7,8.7L115.5,38.7z M131.1,33.6l-0.4-1.3l-3.7,1l-0.8-2.9l3.4-1l-0.4-1.2l-3.4,1l-0.7-2.5
			l3.7-1l-0.4-1.3l-5.1,1.5l2.6,9.1L131.1,33.6z M134.5,32.7l1.6-0.3l1.6-4.3l3.1,3.3l1.7-0.4l-4.1-4.1l2-5.1l-1.6,0.3l-1.4,3.9
			l-2.8-3.1l-1.7,0.3l3.8,3.9L134.5,32.7z M147,29.3c0.8,0.7,1.9,1,3.3,0.9c0.9-0.1,1.8-0.3,2.5-0.7l-0.2-1.3
			c-0.4,0.2-0.8,0.3-1.1,0.4c-0.4,0.1-0.7,0.2-1.1,0.3c-0.9,0.1-1.7-0.1-2.2-0.6c-0.6-0.5-0.9-1.4-1-2.5c-0.1-1.1,0-2,0.5-2.7
			c0.4-0.7,1.1-1.1,2-1.2c0.4,0,0.8,0,1.1,0c0.4,0.1,0.7,0.2,1.1,0.3l0.4-1.3c-0.9-0.3-1.8-0.4-2.7-0.3c-0.9,0.1-1.7,0.4-2.3,0.9
			c-0.6,0.5-1.1,1.1-1.4,1.9c-0.3,0.8-0.4,1.6-0.2,2.6C145.7,27.4,146.2,28.6,147,29.3z M159.1,29.4l-0.1-4.3l4.4-0.1l0.1,4.3l1.6,0
			l-0.3-9.4l-1.5,0l0.1,3.9l-4.4,0.1l-0.1-3.9l-1.5,0l0.3,9.4L159.1,29.4z M171.7,26.8l3.6,0.2l0.8,2.7l1.6,0.1l-3-9.7l-1.7-0.1
			l-4.1,9.3l1.6,0.1L171.7,26.8z M173.2,23.1c0.3-0.6,0.5-1.2,0.6-1.7c0,0.2,0.1,0.5,0.2,0.8c0.1,0.4,0.2,0.7,0.2,0.8l0.7,2.6
			l-2.7-0.2L173.2,23.1z M183.8,25.6c0.1-0.7,0.2-1.4,0.2-2.2l0-0.4l0.1,0l3.5,8.1l1.9,0.3l1.4-9.3l-1.4-0.2l-0.7,4.9
			c-0.1,0.3-0.1,0.8-0.2,1.4c-0.1,0.6-0.1,1-0.1,1.1l0,0l-3.5-8.1l-1.9-0.3l-1.4,9.3l1.4,0.2L183.8,25.6z M198.4,33.5
			c0.6,0.1,1.1,0.2,1.7,0.3c0.5,0.1,1.1,0.1,1.7,0l1.2-4.6l-3.4-0.8l-0.3,1.3l1.9,0.5l-0.6,2.4c-0.6,0-1.1-0.1-1.6-0.2
			c-1-0.2-1.6-0.7-2-1.4c-0.4-0.7-0.4-1.6-0.1-2.7c0.3-1.1,0.8-1.8,1.5-2.3c0.7-0.5,1.6-0.6,2.6-0.3c0.7,0.2,1.4,0.5,2.1,1.1
			l0.8-1.1c-0.8-0.6-1.6-1-2.6-1.2c-1.5-0.4-2.8-0.3-3.8,0.4c-1.1,0.6-1.8,1.7-2.1,3.1c-0.4,1.5-0.3,2.7,0.3,3.8
			C196,32.5,197,33.2,198.4,33.5z M211.9,36.2l-3.6-1.2l1-2.8l3.4,1.2l0.4-1.2l-3.4-1.2l0.8-2.4l3.6,1.2l0.4-1.2l-5.1-1.7l-3.1,8.9
			l5.1,1.7L211.9,36.2z M224.6,39.2l0.9,0.4c1.1,0.5,2,0.7,2.8,0.5c0.8-0.2,1.4-0.7,1.9-1.6c0.4-0.8,0.5-1.6,0.1-2.3
			c-0.3-0.7-1-1.3-2.1-1.8l-2.4-1.2l-4.2,8.5l1.4,0.7L224.6,39.2z M226.6,35l1,0.5c0.6,0.3,1,0.7,1.2,1c0.2,0.4,0.1,0.8-0.1,1.3
			c-0.3,0.5-0.6,0.8-1.1,0.9c-0.5,0.1-1,0-1.7-0.4l-0.7-0.4L226.6,35z M234.6,44.2l1.3,0.8l0,4.4l1.5,0.9l-0.1-5
			c1.3,0.2,2.3-0.2,2.9-1.2c0.5-0.8,0.6-1.5,0.3-2.2c-0.3-0.7-0.9-1.4-2-2l-2.3-1.4l-4.8,8.1l1.3,0.8L234.6,44.2z M236.8,40.5
			l0.9,0.5c0.6,0.4,1,0.7,1.2,1.1c0.2,0.4,0.1,0.8-0.1,1.3c-0.3,0.5-0.6,0.7-1,0.8c-0.4,0.1-0.9-0.1-1.5-0.5l-0.9-0.6L236.8,40.5z
			 M243.9,55c1.1,0.8,2.3,1.1,3.4,0.9c1.1-0.2,2.1-1,3-2.2c0.9-1.2,1.3-2.4,1.2-3.6c-0.1-1.1-0.7-2.1-1.9-2.9
			c-1.2-0.8-2.3-1.1-3.4-0.9c-1.1,0.2-2.1,1-3,2.2c-0.9,1.3-1.3,2.5-1.2,3.6C242.1,53.2,242.8,54.2,243.9,55z M244.5,49.4
			c0.7-0.9,1.4-1.5,2.1-1.7c0.7-0.2,1.5,0,2.2,0.5c0.7,0.5,1.1,1.2,1.1,1.9c0,0.8-0.3,1.6-1,2.5c-0.7,1-1.4,1.5-2.1,1.7
			c-0.7,0.2-1.5,0-2.2-0.5c-0.7-0.5-1.1-1.2-1.2-2C243.5,51.2,243.8,50.4,244.5,49.4z M255.5,64.3c0.4,0.3,0.9,0.6,1.5,0.8l3.1-3.6
			l-2.6-2.3l-0.9,1l1.5,1.3l-1.6,1.8c-0.5-0.3-1-0.6-1.3-0.9c-0.7-0.7-1.1-1.4-1.1-2.2c0-0.8,0.4-1.6,1.2-2.5
			c0.7-0.8,1.5-1.3,2.4-1.4c0.9-0.1,1.7,0.2,2.4,0.9c0.6,0.5,1,1.1,1.4,1.9l1.3-0.6c-0.4-0.9-1-1.6-1.7-2.3c-1.1-1-2.3-1.5-3.6-1.4
			c-1.2,0.1-2.3,0.7-3.3,1.8c-1,1.2-1.5,2.3-1.5,3.5c0,1.1,0.6,2.2,1.6,3.1C254.6,63.6,255,64,255.5,64.3z M261.4,70l2.7-2.6l1,1.1
			l-1.2,4.2l1.2,1.3l1.2-4.8c1.2,0.5,2.2,0.4,3.1-0.4c0.7-0.6,1-1.3,0.9-2.1c-0.1-0.7-0.5-1.6-1.4-2.4l-1.8-1.9l-6.8,6.5L261.4,70z
			 M267.3,64.4l0.7,0.7c0.5,0.5,0.8,1,0.8,1.4c0.1,0.4-0.1,0.8-0.5,1.2c-0.4,0.4-0.8,0.5-1.2,0.5c-0.4-0.1-0.9-0.3-1.4-0.9l-0.7-0.8
			L267.3,64.4z M268.1,77.4l2.6-0.9l2.3,2.8l-1.5,2.4l1,1.3l5.2-8.7l-1.1-1.3l-9.6,3.2L268.1,77.4z M274.5,75.1
			c0.6-0.2,1.2-0.4,1.7-0.7c-0.1,0.1-0.3,0.4-0.5,0.7s-0.4,0.6-0.5,0.7l-1.5,2.3L272,76L274.5,75.1z M275.6,87.3l3.8-2.5
			c0.9-0.6,1.8-1.2,2.7-1.9l0,0l-5.1,6.6l0.7,1.1l8.1-1.9l0,0c-0.1,0.1-0.5,0.3-1.2,0.7c-0.6,0.4-1.2,0.7-1.6,1l-3.9,2.6l0.8,1.2
			l7.9-5.2l-1.2-1.8l-7.8,1.8l0,0l4.9-6.3l-1.2-1.8l-7.9,5.2L275.6,87.3z"/>
	</g>
</g>
</svg>
