<svg xmlns="http://www.w3.org/2000/svg" 
		id="icon-svg-beach" 
		fill="#3C3C3C" 
		height="24" 
		width="24" 
		viewBox="0 0 24 24"
	>
		<path d="M2.9 21.2l2.1-.9 2.1.9h.3l2.1-.9 2.1.9h.3l2.1-.9 2.1.9h.3l2.1-.9 2.1.9c.2.1.5 0 .6-.3.1-.2 0-.5-.3-.6l-2.3-.9h-.3l-2.1.9-2.1-.9h-.3l-1.8.9-2.1-.9h-.3l-2.1.9-2.1-.9h-.3l-2.3.9c-.2.1-.4.4-.3.6-.1.3.2.4.4.3zm10.5-9.8c.7.8 1.8.9 2.6.2l.2-.2c.7.8 1.8.9 2.6.2.4-.3.6-.9.6-1.4V8.1s0-.1-.1-.1l-.3-.3.2.2-6.7-4v-.7c0-.3-.2-.5-.5-.5s-.5.2-.5.5v.7l-6.7 4-.1.1-.1.1v2.1c0 1 .8 1.8 1.8 1.8.5 0 1-.2 1.4-.6.7.8 1.8.9 2.6.2l.2-.2c.2.3.6.5.9.6v5.6c-1.7 0-3.4.4-4.9 1h.1c-.2.1-.3.4-.2.6.1.2.4.3.6.2.8-.4 2.9-.9 4.9-.9s4 .5 4.9.9c.2.1.5 0 .6-.2.1-.2 0-.5-.2-.6-1.5-.6-3.2-.9-4.8-1V12l.9-.6zM12 4.7l5.3 3.2H6.7L12 4.7zm-.9 5.5c0-.3-.2-.5-.5-.5s-.5.2-.5.5c0 .5-.4.9-.9.9s-.9-.4-.9-.9c0-.3-.2-.5-.5-.5s-.5.2-.5.5c0 .5-.4.9-.9.9s-.9-.4-.9-.9V8.8h12.9v1.4c0 .5-.4.9-.9.9s-.9-.4-.9-.9c0-.3-.2-.5-.5-.5s-.5.2-.5.5c0 .5-.4.9-.9.9s-.9-.4-.9-.9c0-.3-.2-.5-.5-.5s-.5.2-.5.5c0 .5-.4.9-.9.9s-.8-.4-.8-.9z" />
	</svg>