<svg fill="#3C3C3C" version="1.1" xmlns="http://www.w3.org/2000/svg" xmlns:xlink="http://www.w3.org/1999/xlink" x="0px" y="0px" viewBox="0 0 52 52" style="enable-background:new 0 0 52 52;" xml:space="preserve">
<style type="text/css">
	.st0{display:none;}
	.st1{display:inline;}
	.st2{fill:none;}
</style>
<g id="stroke">
	<g>
		<path d="M32.8799,22.8286C35.2793,20.709,38,18.3062,38,15.4736V11h2c1.1025,0,2-0.897,2-2V7c0-1.103-0.8975-2-2-2H12
			c-1.1025,0-2,0.897-2,2v2c0,1.103,0.8975,2,2,2h2v4.4736c0,2.8037,2.6758,5.1494,5.0371,7.2188C20.3574,23.8491,22,25.2891,22,26
			c0,0.6689-1.6934,2.3877-2.9297,3.6426C16.6934,32.0542,14,34.7876,14,37.5791V41h-2c-1.1025,0-2,0.897-2,2v2
			c0,1.103,0.8975,2,2,2h28c1.1025,0,2-0.897,2-2v-2c0-1.103-0.8975-2-2-2h-2v-3.4209c0-2.7627-2.6494-5.4326-4.9863-7.7891
			C31.6709,28.437,30,26.7524,30,26C30,25.3721,31.6641,23.9019,32.8799,22.8286z M12,7h28l-0.0029,2H12V7z M39.9971,45H12v-2h28
			L39.9971,45z M31,41H21v-2c0-1.1387,2.4814-4.1763,5.001-6.6226C28.5195,34.8198,31,37.856,31,39V41z M31.5938,31.1987
			C33.5566,33.1777,36,35.6401,36,37.5791V41h-3v-2c0-2.7539-5.2656-7.7593-6.3213-8.7344
			c-0.3838-0.3555-0.9756-0.354-1.3574,0.0005C24.2656,31.2427,19,36.2534,19,39v2h-3v-3.4209c0-1.9717,2.4922-4.5005,4.4951-6.5332
			C22.4531,29.0586,24,27.4888,24,26c0-1.6177-1.6895-3.0977-3.6445-4.812C18.3135,19.3989,16,17.3711,16,15.4736V11h20v4.4736
			c0,1.9302-2.4648,4.1069-4.4443,5.856C29.5693,23.084,28,24.4702,28,26C28,27.5762,29.5859,29.1748,31.5938,31.1987z"></path>
		<path d="M30.6885,16.2749c-0.4004-0.3804-1.0332-0.3633-1.4141,0.0366C27.998,17.6562,26.7441,18.8916,26,19.6138
			c-0.7441-0.7217-1.9971-1.9561-3.2744-3.3022c-0.3799-0.3994-1.0127-0.417-1.4141-0.0371
			c-0.4004,0.3804-0.417,1.0132-0.0371,1.4141c2.0371,2.1475,4.0195,4.02,4.0391,4.0391C25.5068,21.9092,25.7529,22,26,22
			s0.4941-0.0908,0.6865-0.2729c0.0195-0.0186,2.002-1.8921,4.0391-4.0386C31.1055,17.2881,31.0889,16.6548,30.6885,16.2749z"></path>
	</g>
</g>
<g id="filled" class="st0">
	<g class="st1">
		<path d="M32.8799,22.8286C35.2793,20.709,38,18.3062,38,15.4736V13h-2v2.4736c0,1.9302-2.4648,4.1069-4.4443,5.856
			C29.5693,23.084,28,24.4702,28,26c0,1.5762,1.5859,3.1748,3.5938,5.1987C33.5566,33.1777,36,35.6401,36,37.5791V39h2v-1.4209
			c0-2.7627-2.6494-5.4326-4.9863-7.7891C31.6709,28.437,30,26.7524,30,26C30,25.3721,31.6641,23.9019,32.8799,22.8286z"></path>
		<path d="M42,7c0-1.103-0.8975-2-2-2H12c-1.1025,0-2,0.897-2,2v2c0,1.103,0.8975,2,2,2h2h2h20h2h2c1.1025,0,2-0.897,2-2V7z"></path>
		<path d="M12,41c-1.1025,0-2,0.897-2,2v2c0,1.103,0.8975,2,2,2h28c1.1025,0,2-0.897,2-2v-2c0-1.103-0.8975-2-2-2h-2h-2H16h-2H12z"></path>
		<path d="M30,16h-8c-0.3994,0-0.7607,0.2378-0.9189,0.605c-0.1572,0.3672-0.082,0.7935,0.1934,1.0835
			c2.0371,2.1475,4.0195,4.02,4.0391,4.0391C25.5068,21.9092,25.7529,22,26,22s0.4941-0.0908,0.6865-0.2729
			c0.0195-0.0186,2.002-1.8921,4.0391-4.0386c0.2744-0.29,0.3506-0.7158,0.1934-1.083C30.7607,16.2383,30.3994,16,30,16z"></path>
		<path d="M14,37.5791V39h2v-1.4209c0-1.9717,2.4922-4.5005,4.4951-6.5332C22.4531,29.0586,24,27.4888,24,26
			c0-1.6177-1.6895-3.0977-3.6445-4.812C18.3135,19.3989,16,17.3711,16,15.4736V13h-2v2.4736c0,2.8037,2.6758,5.1494,5.0371,7.2188
			C20.3574,23.8491,22,25.2891,22,26c0,0.6689-1.6934,2.3877-2.9297,3.6426C16.6934,32.0542,14,34.7876,14,37.5791z"></path>
		<path d="M26.6787,30.2656c-0.3838-0.3555-0.9756-0.354-1.3574,0.0005C24.2656,31.2427,19,36.2534,19,39h14
			C33,36.2461,27.7344,31.2407,26.6787,30.2656z"></path>
	</g>
</g>
</svg>