<svg width="32" height="32" viewBox="0 0 32 32" fill="none" xmlns="http://www.w3.org/2000/svg">
<path fill-rule="evenodd" clip-rule="evenodd" d="M26.7289 3.20001H18.0992L18.098 3.20242L17.1785 5.44883L11.84 18.4934L16.5942 18.4189L13.388 26.7327L12.5907 28.8L12.6146 28.7712L24.3104 14.2614H19.1731L26.7289 3.20001Z" fill="white"/>
<path opacity="0.5" fill-rule="evenodd" clip-rule="evenodd" d="M5.09432 13.7997C6.40691 7.62909 11.8489 3.2129 18.156 3.20001H18.2377L17.3149 5.44993C12.2472 5.84659 8.08649 9.61608 7.19185 14.6212C6.29722 19.6263 8.89433 24.6043 13.5107 26.7328L12.7104 28.8C6.95487 26.2199 3.78173 19.9702 5.09432 13.7997ZM12.6287 8.65534C12.0769 8.65436 11.5789 8.98611 11.367 9.49577C11.1552 10.0054 11.2713 10.5926 11.6611 10.9832C12.051 11.3738 12.6378 11.491 13.1477 11.28C13.6576 11.069 13.9901 10.5714 13.9901 10.0195C13.9904 9.658 13.8472 9.3112 13.5919 9.05538C13.3366 8.79955 12.9901 8.65565 12.6287 8.65534ZM9.74012 17.6838C8.98937 17.6852 8.37952 17.0778 8.37753 16.3269C8.37689 15.9656 8.51988 15.6188 8.775 15.3629C9.03012 15.107 9.37645 14.9631 9.73772 14.9628C10.4885 14.9628 11.0972 15.5712 11.0979 16.3221C11.0986 17.073 10.4909 17.6825 9.74012 17.6838ZM11.2625 23.1416C11.2645 22.3887 11.876 21.7797 12.6287 21.781C12.9911 21.7814 13.3385 21.9261 13.594 22.1832C13.8495 22.4403 13.992 22.7887 13.9901 23.1512C13.9868 23.9041 13.3743 24.5119 12.6215 24.5093C11.8688 24.5066 11.2606 23.8945 11.2625 23.1416Z" fill="white"/>
</svg>
