<svg id="Layer_1" data-name="Layer 1" xmlns="http://www.w3.org/2000/svg" viewBox="0 0 75 75"><defs><style>.cls-1,.cls-2{fill:#fff;fill-rule:evenodd;}.cls-2{fill-opacity:0.5;}</style></defs><path class="cls-1" d="M47.19,33h15L27.8,74l-.17.2.09-.22,12-29-14,.22L44.05.82H69.29Z"/><path class="cls-2" d="M15.16,38.45a3.92,3.92,0,0,1,7.83,0,3.92,3.92,0,1,1-7.83,0ZM49,7.65a31.11,31.11,0,0,0-5.69-.51,32.05,32.05,0,0,0-32,32.05A32.76,32.76,0,0,0,31,69.09l-3.38,5.17A38.41,38.41,0,0,1,43.3.77a56.91,56.91,0,0,1,8.11.87ZM27.39,24.26a3.92,3.92,0,1,1,3.92-3.91A3.91,3.91,0,0,1,27.39,24.26Zm0,37.68A3.91,3.91,0,0,1,23.48,58a3.6,3.6,0,0,1,3.91-3.54c2.17,0,3.92,1.37,3.92,3.54A3.91,3.91,0,0,1,27.39,61.94Z"/></svg>