<svg fill="#3C3C3C" id="stroke" xmlns="http://www.w3.org/2000/svg" viewBox="0 0 52 52"><path d="M26,47a4,4,0,0,1-2.75-1.06L20.9,43.76a2,2,0,0,0-1.66-.52L16,43.67a4,4,0,0,1-4.53-3.28L11,37.59a2.06,2.06,0,0,0-1.09-1.46L7.23,34.8a4.06,4.06,0,0,1-1.78-5.48l1.22-2.38a2.08,2.08,0,0,0,0-1.88L5.45,22.68A4.06,4.06,0,0,1,7.23,17.2l2.63-1.33A2.06,2.06,0,0,0,11,14.41l.52-2.8A4,4,0,0,1,16,8.33l3.24.43a2,2,0,0,0,1.66-.52l2.35-2.17a4.08,4.08,0,0,1,5.5,0L31.1,8.24a2,2,0,0,0,1.66.52L36,8.33a4,4,0,0,1,4.53,3.28l.52,2.8a2.06,2.06,0,0,0,1.09,1.46l2.63,1.33a4.06,4.06,0,0,1,1.78,5.48l-1.22,2.38a2.08,2.08,0,0,0,0,1.88h0l1.22,2.38a4.06,4.06,0,0,1-1.78,5.48l-2.63,1.33a2.06,2.06,0,0,0-1.09,1.46l-.52,2.79A4,4,0,0,1,36,43.67l-3.24-.43a2,2,0,0,0-1.66.52l-2.35,2.17A4,4,0,0,1,26,47Zm-6.49-5.77a4,4,0,0,1,2.75,1.07l2.35,2.17a2.07,2.07,0,0,0,2.78,0l2.35-2.17a4.05,4.05,0,0,1,3.29-1l3.24.44A2.07,2.07,0,0,0,38.57,40l.51-2.79a4.1,4.1,0,0,1,2.16-2.89L43.87,33a2.05,2.05,0,0,0,.9-2.78l-1.22-2.39a4,4,0,0,1,0-3.7l1.22-2.39a2.05,2.05,0,0,0-.9-2.78l-2.63-1.32a4.08,4.08,0,0,1-2.16-2.89L38.56,12a2,2,0,0,0-2.29-1.67L33,10.75a4.05,4.05,0,0,1-3.29-1L27.39,7.54a2.07,2.07,0,0,0-2.78,0L22.26,9.71a4.05,4.05,0,0,1-3.29,1l-3.24-.44A2.06,2.06,0,0,0,13.44,12l-.52,2.79a4.08,4.08,0,0,1-2.16,2.89L8.13,19a2.06,2.06,0,0,0-.9,2.78l1.22,2.39a4,4,0,0,1,0,3.7L7.23,30.24A2.06,2.06,0,0,0,8.13,33l2.63,1.32a4.08,4.08,0,0,1,2.16,2.89L13.44,40a2,2,0,0,0,2.29,1.67L19,41.25A4.89,4.89,0,0,1,19.51,41.22Z"></path><path d="M28,32a1,1,0,0,1-.67-.26,1,1,0,0,1-.07-1.41l9-10a1,1,0,0,1,1.48,1.34l-9,10A1,1,0,0,1,28,32Z"></path><path d="M30,23a3,3,0,1,1,3-3A3,3,0,0,1,30,23Zm0-4a1,1,0,1,0,1,1A1,1,0,0,0,30,19Z"></path><path d="M35,35a3,3,0,1,1,3-3A3,3,0,0,1,35,35Zm0-4a1,1,0,1,0,1,1A1,1,0,0,0,35,31Z"></path><path d="M16.15,35.84a1,1,0,0,1-.53-.15,1,1,0,0,1-.42-1.17l1.56-4.68H12.15a1,1,0,0,1-.83-.43,1,1,0,0,1-.11-.92l3-8a1,1,0,0,1,.94-.65h5a1,1,0,0,1,.78.39,1,1,0,0,1,.19.85l-.69,2.76h5.72a1,1,0,0,1,.7,1.71l-10,10A1,1,0,0,1,16.15,35.84Zm-2.56-8h4.56a1,1,0,0,1,.81.42,1,1,0,0,1,.13.9l-.66,2,5.3-5.3H19.15a1,1,0,0,1-.79-.38,1,1,0,0,1-.18-.86l.69-2.76h-3Z"></path></svg>