<svg fill="#3C3C3C" version="1.1" xmlns="http://www.w3.org/2000/svg" xmlns:xlink="http://www.w3.org/1999/xlink" x="0px" y="0px" viewBox="0 0 52 52" style="enable-background:new 0 0 52 52;" xml:space="preserve">
<style type="text/css">
	.st0{display:none;}
	.st1{display:inline;}
	.st2{fill:none;}
</style>
<g id="stroke">
	<g>
		<path d="M26,5c-8.8365,0-16,7.1635-16,16c0,4.5707,1.9266,8.6832,5,11.5988V46c0,0.4043,0.2432,0.769,0.6172,0.9238
			c0.374,0.1543,0.8037,0.0693,1.0898-0.2168L20,43.4141l3.293,3.293C23.4844,46.8984,23.7402,47,24,47
			c0.1289,0,0.2588-0.0249,0.3828-0.0762C24.7568,46.769,25,46.4043,25,46v-9.0505C25.3324,36.9702,25.6624,37,26,37
			s0.6676-0.0298,1-0.0505V46c0,0.4043,0.2432,0.769,0.6172,0.9238c0.374,0.1543,0.8037,0.0693,1.0898-0.2168L32,43.4141
			l3.293,3.293C35.4844,46.8984,35.7402,47,36,47c0.1289,0,0.2588-0.0249,0.3828-0.0762C36.7568,46.769,37,46.4043,37,46V32.5988
			c3.0734-2.9156,5-7.0281,5-11.5988C42,12.1635,34.8365,5,26,5z M23,43.5859l-2.293-2.293c-0.3906-0.3906-1.0234-0.3906-1.4141,0
			L17,43.5859v-9.3591c1.7759,1.2108,3.8096,2.0664,6,2.4824V43.5859z M35,43.5859l-2.293-2.293
			c-0.3906-0.3906-1.0234-0.3906-1.4141,0L29,43.5859v-6.8767c2.1904-0.416,4.2241-1.2715,6-2.4824V43.5859z M26,35
			c-7.7196,0-14-6.2804-14-14c0-7.7197,6.2804-14,14-14s14,6.2803,14,14C40,28.7196,33.7196,35,26,35z"></path>
		<path d="M33.5967,17.355l-4.2646-0.6982l-1.8076-3.7256c-0.2783-0.5693-0.8467-0.9263-1.4951-0.9312
			c-0.6328,0-1.2021,0.3501-1.4873,0.917l-1.8613,3.729l-4.249,0.6221c-0.6289,0.0884-1.1445,0.5171-1.3467,1.1201
			c-0.1982,0.5942-0.0371,1.2627,0.4131,1.707l3.0225,2.958l-0.7402,4.1475c-0.1113,0.6279,0.1387,1.2515,0.6533,1.6279
			c0.5127,0.3735,1.1807,0.4248,1.7471,0.1362l3.7734-1.9438l3.7549,1.9873c0.2393,0.1255,0.5078,0.1919,0.7764,0.1919
			c0.3477,0,0.6816-0.1064,0.9717-0.312c0.5146-0.3706,0.7715-0.9893,0.6699-1.6191l-0.6943-4.1548l3.0566-2.9258
			c0.4551-0.437,0.624-1.1055,0.4307-1.7036C34.7246,17.8789,34.2109,17.4448,33.5967,17.355z M29.668,22.0352
			c-0.2393,0.2285-0.3496,0.5605-0.2949,0.8867l0.668,3.9995l-3.6123-1.9121c-0.1465-0.0776-0.3066-0.1162-0.4678-0.1162
			c-0.1572,0-0.3145,0.0371-0.458,0.1108l-3.6328,1.8711l0.7119-3.9907c0.0586-0.3257-0.0488-0.6592-0.2852-0.8906l-2.9062-2.8447
			l4.0957-0.5996c0.3242-0.0474,0.6045-0.25,0.75-0.5425l1.7891-3.5835l1.7334,3.5732c0.1416,0.2925,0.417,0.498,0.7383,0.5503
			l4.1113,0.6729L29.668,22.0352z"></path>
	</g>
</g>
<g id="filled" class="st0">
</g>
</svg>