<svg fill="#3C3C3C" id="stroke" xmlns="http://www.w3.org/2000/svg" viewBox="0 0 52 52">
  <title>tag_area</title>
  <g>
    <path d="M26,36a.9967.9967,0,0,0,.707-.293C27.127,35.2871,37,25.2959,37,14.9883A10.8825,10.8825,0,0,0,26.0215,4h-.043A10.8825,10.8825,0,0,0,15,14.9883c0,10.3076,9.873,20.2988,10.293,20.7187A.9967.9967,0,0,0,26,36ZM26,6a8.9038,8.9038,0,0,1,9,8.9883c0,7.9472-6.7637,16.0791-9,18.5488-2.2363-2.47-9-10.6016-9-18.5488A8.9038,8.9038,0,0,1,26,6Z"></path>
    <path d="M32,15a6,6,0,1,0-6,6A6.0066,6.0066,0,0,0,32,15ZM22,15a4,4,0,1,1,4,4A4.0039,4.0039,0,0,1,22,15Z"></path>
    <path d="M37.3135,27.6982a1,1,0,0,0-.627,1.8985C41.8145,31.2881,45,34.125,45,37c0,4.8789-8.7012,9-19,9S7,41.8789,7,37c0-2.875,3.1855-5.7119,8.3135-7.4033a1,1,0,0,0-.627-1.8985C8.6211,29.6982,5,33.1758,5,37c0,6.168,9.2246,11,21,11s21-4.832,21-11C47,33.1758,43.3789,29.6982,37.3135,27.6982Z"></path>
  </g>
</svg>