<svg fill="#3C3C3C" id="stroke" xmlns="http://www.w3.org/2000/svg" viewBox="0 0 52 52"><title>tour_operator</title><path d="M26,5a20.9851,20.9851,0,0,0-7.3557,40.6443l.0627.0627.0291-.029a20.6172,20.6172,0,0,0,14.5278,0l.0291.029.0627-.0627A20.9851,20.9851,0,0,0,26,5ZM42.0146,15.8184,41.2192,19h-6.417l-1.8261-8.2168a1,1,0,0,0-.8115-.77l-6-1a.9986.9986,0,0,0-.7823.2l-5.6094,4.4072L19.1093,8.313a18.8961,18.8961,0,0,1,22.9053,7.5054ZM26,45a18.9235,18.9235,0,0,1-5.7071-.8789L21.4141,43h9.1718l1.1212,1.1211A18.9235,18.9235,0,0,1,26,45Zm7.7461-1.668L31.707,41.293A1,1,0,0,0,31,41H21a1,1,0,0,0-.707.293l-2.0391,2.039A18.9737,18.9737,0,0,1,17.2018,9.1755l.806,6.4485a1,1,0,0,0,1.61.6621l6.6533-5.2275,4.8989.8164,1.854,8.3418A.9994.9994,0,0,0,34,21h8a1,1,0,0,0,.97-.7578l.4509-1.8036a18.9544,18.9544,0,0,1-9.675,24.8934Z"></path><path d="M38.3438,23.15c-.3467.1435-4.5074,1.6426-7.4312,2.6924l-15.46-5.3614a.995.995,0,0,0-.74.0332l-2.91,1.3155a1,1,0,0,0-.15,1.7373l9.8218,6.6865-3.8154,2.207-4.4038-1.22a.988.988,0,0,0-.689.0576l-1.9883.9268a1,1,0,0,0-.3149,1.582l3.3989,3.7061a4.1423,4.1423,0,0,0,3.0742,1.49,3.1537,3.1537,0,0,0,1.3047-.2754L41.9028,27.9424a3.8167,3.8167,0,0,0,1.9683-2.041,2.2356,2.2356,0,0,0-.082-1.7813C43.1655,22.8594,39.6943,22.5479,38.3438,23.15ZM41.9873,25.23a1.8364,1.8364,0,0,1-.91.8906L17.2158,36.9062a1.9044,1.9044,0,0,1-2.06-.7216l-2.4966-2.7227.4175-.1943L17.5293,34.5a.9986.9986,0,0,0,.7671-.0986l5.5566-3.2129a.9987.9987,0,0,0,.062-1.6914L14.2515,22.918l.9223-.417,15.417,5.3467a.9973.9973,0,0,0,.6655-.003c2.2706-.8144,7.5865-2.7256,7.9024-2.8681h0a5.3191,5.3191,0,0,1,2.8511.1728A.59.59,0,0,1,41.9873,25.23Z"></path></svg>