<svg width="356" height="41" viewBox="0 0 356 41" fill="none" xmlns="http://www.w3.org/2000/svg">
<path d="M19.9863 41C17.3967 41 14.7331 40.4822 12.2915 39.4466C7.40825 37.3754 3.56083 33.5289 1.48915 28.5728C-0.508546 23.6168 -0.508546 18.2169 1.56314 13.2608C3.63482 8.30474 7.48224 4.53221 12.4395 2.46101C12.6614 2.38704 12.8834 2.31307 13.1054 2.2391C15.1031 1.49939 17.3227 2.53499 18.0626 4.53221C18.8025 6.52943 17.7667 8.74856 15.769 9.48828C15.621 9.56225 15.473 9.56225 15.399 9.63622C12.3655 10.8937 9.99786 13.1868 8.74005 16.2197C7.48224 19.2525 7.48224 22.5812 8.74005 25.54C9.99786 28.5728 12.2915 30.9399 15.325 32.1974C18.3586 33.4549 21.6881 33.4549 24.6476 32.1974C30.8627 29.6084 33.8962 22.5072 31.3066 16.2197C30.4927 14.2224 31.4546 12.0033 33.4523 11.1896C35.45 10.3759 37.6696 11.3376 38.4835 13.3348C42.7009 23.5428 37.8176 35.2302 27.6072 39.3726C25.1655 40.4822 22.5759 41 19.9863 41Z" fill="url(#paint0_linear_1_4)"/>
<path d="M79.1125 27.9822H74.0044V11.4295H79.3388C80.9445 11.4295 82.3185 11.7609 83.4608 12.4236C84.6031 13.081 85.4787 14.0266 86.0876 15.2605C86.6964 16.4891 87.0009 17.9601 87.0009 19.6735C87.0009 21.3977 86.6937 22.8822 86.0795 24.1269C85.4652 25.3662 84.5708 26.3199 83.3961 26.988C82.2215 27.6508 80.7936 27.9822 79.1125 27.9822ZM76.0089 26.2041H78.9832C80.3518 26.2041 81.486 25.94 82.3858 25.412C83.2857 24.8839 83.9565 24.1323 84.3983 23.157C84.8402 22.1817 85.0611 21.0206 85.0611 19.6735C85.0611 18.3372 84.8429 17.1868 84.4064 16.2223C83.97 15.2525 83.318 14.5089 82.4505 13.9916C81.583 13.469 80.5026 13.2076 79.2095 13.2076H76.0089V26.2041ZM95.5539 11.4295V27.9822H93.5495V11.4295H95.5539ZM103.438 27.9822H101.337L107.415 11.4295H109.484L115.562 27.9822H113.46L108.514 14.0482H108.385L103.438 27.9822ZM104.214 21.5163H112.684V23.2944H104.214V21.5163ZM121.326 11.4295H123.719L129.344 25.1695H129.538L135.163 11.4295H137.556V27.9822H135.681V15.406H135.519L130.346 27.9822H128.536L123.363 15.406H123.202V27.9822H121.326V11.4295ZM158.727 19.7058C158.727 21.4516 158.412 22.9603 157.782 24.232C157.151 25.5036 156.287 26.4842 155.187 27.1739C154.088 27.8636 152.833 28.2085 151.421 28.2085C150.009 28.2085 148.754 27.8636 147.655 27.1739C146.555 26.4842 145.691 25.5036 145.06 24.232C144.43 22.9603 144.115 21.4516 144.115 19.7058C144.115 17.9601 144.43 16.4513 145.06 15.1797C145.691 13.9081 146.555 12.9274 147.655 12.2377C148.754 11.548 150.009 11.2032 151.421 11.2032C152.833 11.2032 154.088 11.548 155.187 12.2377C156.287 12.9274 157.151 13.9081 157.782 15.1797C158.412 16.4513 158.727 17.9601 158.727 19.7058ZM156.788 19.7058C156.788 18.2726 156.548 17.0629 156.068 16.0769C155.594 15.0908 154.95 14.3445 154.137 13.838C153.328 13.3316 152.423 13.0783 151.421 13.0783C150.419 13.0783 149.511 13.3316 148.697 13.838C147.889 14.3445 147.245 15.0908 146.766 16.0769C146.291 17.0629 146.054 18.2726 146.054 19.7058C146.054 21.1391 146.291 22.3488 146.766 23.3348C147.245 24.3209 147.889 25.0671 148.697 25.5736C149.511 26.0801 150.419 26.3334 151.421 26.3334C152.423 26.3334 153.328 26.0801 154.137 25.5736C154.95 25.0671 155.594 24.3209 156.068 23.3348C156.548 22.3488 156.788 21.1391 156.788 19.7058ZM178.41 11.4295V27.9822H176.47L167.45 14.9857H167.289V27.9822H165.284V11.4295H167.224L176.276 24.4583H176.438V11.4295H178.41ZM190.715 27.9822H185.607V11.4295H190.942C192.547 11.4295 193.921 11.7609 195.064 12.4236C196.206 13.081 197.081 14.0266 197.69 15.2605C198.299 16.4891 198.604 17.9601 198.604 19.6735C198.604 21.3977 198.296 22.8822 197.682 24.1269C197.068 25.3662 196.174 26.3199 194.999 26.988C193.824 27.6508 192.396 27.9822 190.715 27.9822ZM187.612 26.2041H190.586C191.955 26.2041 193.089 25.94 193.989 25.412C194.888 24.8839 195.559 24.1323 196.001 23.157C196.443 22.1817 196.664 21.0206 196.664 19.6735C196.664 18.3372 196.446 17.1868 196.009 16.2223C195.573 15.2525 194.921 14.5089 194.053 13.9916C193.186 13.469 192.105 13.2076 190.812 13.2076H187.612V26.2041ZM219.848 27.9822H214.74V11.4295H220.074C221.68 11.4295 223.054 11.7609 224.196 12.4236C225.339 13.081 226.214 14.0266 226.823 15.2605C227.432 16.4891 227.736 17.9601 227.736 19.6735C227.736 21.3977 227.429 22.8822 226.815 24.1269C226.201 25.3662 225.306 26.3199 224.132 26.988C222.957 27.6508 221.529 27.9822 219.848 27.9822ZM216.744 26.2041H219.719C221.087 26.2041 222.221 25.94 223.121 25.412C224.021 24.8839 224.692 24.1323 225.134 23.157C225.576 22.1817 225.797 21.0206 225.797 19.6735C225.797 18.3372 225.578 17.1868 225.142 16.2223C224.705 15.2525 224.053 14.5089 223.186 13.9916C222.318 13.469 221.238 13.2076 219.945 13.2076H216.744V26.2041ZM232.085 11.4295H234.38L238.971 19.1562H239.165L243.755 11.4295H246.051L240.07 21.1607V27.9822H238.065V21.1607L232.085 11.4295ZM264.955 11.4295V27.9822H263.016L253.996 14.9857H253.834V27.9822H251.83V11.4295H253.769L262.822 24.4583H262.983V11.4295H264.955ZM272.832 27.9822H270.73L276.808 11.4295H278.877L284.955 27.9822H282.854L277.907 14.0482H277.778L272.832 27.9822ZM273.608 21.5163H282.078V23.2944H273.608V21.5163ZM290.72 11.4295H293.112L298.738 25.1695H298.931L304.557 11.4295H306.949V27.9822H305.074V15.406H304.912L299.74 27.9822H297.929L292.757 15.406H292.595V27.9822H290.72V11.4295ZM316.159 11.4295V27.9822H314.155V11.4295H316.159ZM336.684 16.6022H334.68C334.561 16.0257 334.354 15.5192 334.057 15.0827C333.766 14.6463 333.411 14.2799 332.99 13.9835C332.575 13.6818 332.115 13.4555 331.608 13.3046C331.102 13.1537 330.574 13.0783 330.024 13.0783C329.022 13.0783 328.114 13.3316 327.3 13.838C326.492 14.3445 325.848 15.0908 325.369 16.0769C324.895 17.0629 324.657 18.2726 324.657 19.7058C324.657 21.1391 324.895 22.3488 325.369 23.3348C325.848 24.3209 326.492 25.0671 327.3 25.5736C328.114 26.0801 329.022 26.3334 330.024 26.3334C330.574 26.3334 331.102 26.2579 331.608 26.1071C332.115 25.9562 332.575 25.7326 332.99 25.4362C333.411 25.1345 333.766 24.7654 334.057 24.329C334.354 23.8871 334.561 23.3806 334.68 22.8095H336.684C336.533 23.6554 336.258 24.4125 335.86 25.0806C335.461 25.7488 334.965 26.3172 334.372 26.786C333.78 27.2494 333.114 27.6023 332.376 27.8448C331.643 28.0872 330.859 28.2085 330.024 28.2085C328.612 28.2085 327.357 27.8636 326.258 27.1739C325.159 26.4842 324.294 25.5036 323.663 24.232C323.033 22.9603 322.718 21.4516 322.718 19.7058C322.718 17.9601 323.033 16.4513 323.663 15.1797C324.294 13.9081 325.159 12.9274 326.258 12.2377C327.357 11.548 328.612 11.2032 330.024 11.2032C330.859 11.2032 331.643 11.3244 332.376 11.5669C333.114 11.8094 333.78 12.165 334.372 12.6338C334.965 13.0972 335.461 13.6629 335.86 14.3311C336.258 14.9938 336.533 15.7509 336.684 16.6022ZM352.162 15.5677C352.065 14.7487 351.671 14.1128 350.982 13.6602C350.292 13.2076 349.446 12.9813 348.444 12.9813C347.711 12.9813 347.07 13.0999 346.52 13.3369C345.976 13.574 345.55 13.9 345.243 14.3149C344.941 14.7298 344.791 15.2013 344.791 15.7293C344.791 16.1712 344.896 16.551 345.106 16.8689C345.321 17.1815 345.596 17.4428 345.93 17.6529C346.264 17.8577 346.614 18.0274 346.981 18.1621C347.347 18.2914 347.684 18.3965 347.991 18.4773L349.672 18.9299C350.103 19.0431 350.583 19.1993 351.111 19.3987C351.644 19.5981 352.154 19.8702 352.639 20.215C353.129 20.5545 353.533 20.9909 353.851 21.5244C354.169 22.0578 354.328 22.7125 354.328 23.4884C354.328 24.3828 354.093 25.1911 353.625 25.9131C353.161 26.6351 352.482 27.209 351.588 27.6346C350.699 28.0603 349.618 28.2731 348.347 28.2731C347.161 28.2731 346.135 28.0819 345.267 27.6993C344.405 27.3167 343.726 26.7833 343.231 26.099C342.74 25.4147 342.463 24.6199 342.398 23.7147H344.467C344.521 24.3397 344.731 24.857 345.098 25.2665C345.469 25.6706 345.938 25.9724 346.504 26.1717C347.075 26.3657 347.689 26.4627 348.347 26.4627C349.112 26.4627 349.799 26.3388 350.408 26.0909C351.017 25.8377 351.499 25.4874 351.855 25.0402C352.21 24.5876 352.388 24.0595 352.388 23.4561C352.388 22.9065 352.234 22.4592 351.927 22.1144C351.62 21.7695 351.216 21.4893 350.715 21.2738C350.214 21.0583 349.672 20.8697 349.09 20.7081L347.054 20.1261C345.76 19.7543 344.737 19.2236 343.982 18.5339C343.228 17.8442 342.851 16.9417 342.851 15.8263C342.851 14.8995 343.101 14.0913 343.602 13.4016C344.109 12.7065 344.788 12.1677 345.639 11.7851C346.496 11.3972 347.452 11.2032 348.508 11.2032C349.575 11.2032 350.524 11.3945 351.353 11.777C352.183 12.1542 352.841 12.6715 353.326 13.3289C353.816 13.9862 354.074 14.7325 354.101 15.5677H352.162Z" fill="#064895"/>
<path d="M42.4352 40C40.7648 40 39.1704 38.9454 38.6389 37.2128C37.9556 35.1036 39.1704 32.919 41.2963 32.2411C46.5352 30.6591 50.0278 25.838 50.0278 20.339C50.0278 13.484 44.4093 7.90961 37.5 7.90961C30.5907 7.90961 24.9722 13.484 24.9722 20.339C24.9722 21.6949 25.2 23.1262 25.6556 24.4068C26.3389 26.4407 25.2759 28.7006 23.2259 29.4539C21.1759 30.1318 18.8981 29.0772 18.1389 27.0433C17.3796 24.8588 17 22.5989 17 20.339C17 9.11488 26.187 0 37.5 0C48.813 0 58 9.11488 58 20.339C58 29.3032 52.2296 37.1375 43.5741 39.774C43.1944 39.9247 42.8148 40 42.4352 40Z" fill="url(#paint1_linear_1_4)"/>
<defs>
<linearGradient id="paint0_linear_1_4" x1="1.58742e-07" y1="18.5" x2="35.5009" y2="34.4979" gradientUnits="userSpaceOnUse">
<stop stop-color="#3665FF"/>
<stop offset="0.965742" stop-color="#0830B4"/>
</linearGradient>
<linearGradient id="paint1_linear_1_4" x1="58" y1="31.5" x2="23.3941" y2="5.13896" gradientUnits="userSpaceOnUse">
<stop stop-color="#3665FF"/>
<stop offset="1" stop-color="#0830B4"/>
</linearGradient>
</defs>
</svg>
