<svg xmlns="http://www.w3.org/2000/svg" xmlns:xlink="http://www.w3.org/1999/xlink" viewBox="0 0 377.82 308.21"><defs><style>.a0306875-49de-4872-a485-d38c25e4b590{mask:url(#a89556fe-9cdf-4a02-b2b0-2c5a2efdbc38);filter:url(#a3d9111c-e133-43f3-a244-d100f1702b23);}.ad828b10-8b65-4bf1-b398-d51e6b16edf8,.b23c18c7-3311-4037-8fb7-6dec219cf37b{mix-blend-mode:multiply;}.ad828b10-8b65-4bf1-b398-d51e6b16edf8{fill:url(#e888381d-bf7c-434b-92eb-13fafbc2e107);}.bf838920-0cbd-4a4b-8783-b102251c6afc{mask:url(#aa823eb2-7868-4c91-bbcd-9a76d2fe9103);filter:url(#f238dd10-f630-4e9a-9553-5aabfaad07c7);}.b23c18c7-3311-4037-8fb7-6dec219cf37b{fill:url(#b75f90e8-6598-46a1-b5d4-e7ed0aa62daa);}.ade5a4da-6d76-4d0b-a097-cbf64fb0f6ab,.b6fce083-5b8b-466c-95f7-b4eee3e8ec25{opacity:0.5;}.ade5a4da-6d76-4d0b-a097-cbf64fb0f6ab,.b5d7bbb7-dbc2-405d-9331-8f751d38df33{mix-blend-mode:lighten;}.ade5a4da-6d76-4d0b-a097-cbf64fb0f6ab{fill:url(#fe6d8995-570e-44a8-8f09-927fba2a1f09);}.e0357ccb-f1c3-4e0e-8ea2-df4a30afc94c{fill:none;}.e5bd4886-9481-4c3f-86a7-19f53396b64e{isolation:isolate;}.aeb0684e-e59d-4175-8e60-a078ee017788{opacity:0.67;}.a9e27b79-478b-4b5b-a26f-64670fe33786{fill:#0f054c;}.a18286dd-3a48-41b1-8851-3e06bd8403fa{opacity:0.9;}.b42a3712-05fb-4d96-9129-a6e7f598e02a{fill:#080344;}.b02723b7-37f5-43a7-b3ab-8a7e7b7188d8{fill:url(#b53878ec-cabf-420d-90e1-a0cf54d0278f);}.e2bb8db6-13fe-4105-9508-e77a6767a369{fill:url(#fd18d264-0972-4059-8108-575e0d4a3232);}.bcd7b29f-03c3-4dbf-bb1c-0e0bb4b415c2,.bdef851f-e5bb-4b57-98ac-0390f7a0f42c{fill:#24126a;}.b0e1793d-a43b-444b-bda5-d441ac28639a,.fbfe238f-e6c1-4bf8-80cc-b48184e059cc{opacity:0.51;}.a0ef0e72-3a2b-4c52-aa0a-ac40debdbe03,.b0e1793d-a43b-444b-bda5-d441ac28639a{fill:#453c9e;}.e2e024fd-7356-4737-bcc5-540c5e273fc4{fill:url(#af2bd036-ae97-4995-b9c7-9b8d69416328);}.ffe029e0-097b-4ce8-bf91-12aac533381d{fill:url(#e11b065a-0c1b-4d8d-8385-9e762de0952a);}.ebb63a4b-56ef-40aa-bdac-e549b950d024{opacity:0.3;}.a56a5fc3-6db5-4e24-b789-0cd0ef5e3b67{clip-path:url(#f12a8455-8569-4970-a6f6-3b27e98fcb25);}.a9e653be-9e1e-46ab-b614-143d344a317f{fill:url(#b5452a7f-d55c-4311-8ae9-424f9aebce88);}.b5d7bbb7-dbc2-405d-9331-8f751d38df33{opacity:0.8;fill:url(#a6259cfb-39ca-4d9d-8a18-4c69c11759bc);}.ede098db-cfe2-40e5-b13a-0abd8b5e378e{fill:#fff;}.ae633374-df68-4a47-8e00-77e68590b47a{opacity:0.15;}.aa565c36-7603-453e-98d6-2e40e5789932{clip-path:url(#ada906be-e20d-4132-ba3b-bd970da61b2a);}.f6b59b04-6276-4860-bb83-7a462e5a4dd4{fill:url(#b858c806-82d4-4da7-9c37-6b6ceb8f4c48);}.f991077b-09c3-4a35-9559-85d1a2670e4a{fill:url(#b0756c09-8865-4e98-9a17-6a992f1d318d);}.bcd7b29f-03c3-4dbf-bb1c-0e0bb4b415c2{opacity:0.4;}.b6fce083-5b8b-466c-95f7-b4eee3e8ec25,.e718f0ca-8ec6-431a-b71d-c08e43487563{fill:#42e8e0;}.fc231cf8-7139-4413-9e5a-2972749a2bea{fill:url(#a4c72c64-6f6b-4eb4-95d4-04cc49c01615);}.b8145844-1380-4338-91b4-98ea9c76cb8c{fill:#bcbeff;}.bececdd8-64f1-4db7-8e3d-b9d6ffe22680{fill:#5351af;}.bfbf8c8a-1067-4841-bf6e-9cecdd9f270b{fill:url(#b3f328eb-c927-4160-828f-56f22d60e1b5);}.e57aec06-ecc9-42b4-8ebd-ef997a593f52{fill:url(#a878de35-217b-4101-b7b8-a44e4157e445);}.bfc441de-ebfc-4cdb-8ce6-6e82e6b5a1fa{fill:url(#b0305449-47e2-4a59-a162-98db246a06d3);}.e394876f-be9b-4aca-b697-0171189ab90a{mask:url(#b2b22ab6-544a-4656-a5fb-647f89d7602d);}.a7faeeac-cf14-40fc-bd19-3b68de642ad6,.e3d3c41c-5c5b-4a32-887f-a471500750b9{opacity:0.78;}.e3d3c41c-5c5b-4a32-887f-a471500750b9{fill:url(#fc8924c2-7053-40e5-9654-711f0ccc4bab);}.a4512793-8e05-4f10-aa15-dc38f202df01{fill:url(#a9cf43d1-05aa-4cf7-bdfd-94240f22e160);}.b376cd47-9050-46ee-b4c0-5376a455395e{fill:url(#a5d44afc-80e1-4a96-a155-06097c86c616);}.aa04dfbb-61da-460d-82a8-2a0163ead80c{fill:url(#ed79f699-d7cc-4aaf-971b-322a0f17d1a6);}.a933122f-e6bc-4ced-8d22-a8bea93458cb{fill:#6767c1;}.b0f27c79-18f6-4a82-920a-f14be7eab5c6{fill:url(#bf3dee60-4235-46f3-bb42-761c904e74ee);}.b70ad58a-8b50-4e3b-ae70-555d1c89e260{fill:url(#b40c5af3-e078-4092-9763-7306187f9463);}.b295304f-c52c-442d-b603-d39a3893cf5c{fill:url(#bb087aed-ff85-487a-a000-2e6a9b3bbce0);}.bc45247e-4f4e-4647-babc-42a0b4f72204{fill:url(#a85b8620-aff7-4e1c-a4ad-20f1666f258b);}.bfa21d22-4171-4448-a84e-6729529e9385{mask:url(#a3f3719a-c72a-4287-b8b8-724d8aef732f);}.a7faeeac-cf14-40fc-bd19-3b68de642ad6{fill:url(#f7da8451-fde2-4e19-9147-c9483ecd4392);}.be603344-c6b3-4272-88bc-b57ede242436{fill:url(#fe04492f-0ec1-47da-804e-04ebc21532f2);}.b6ea504b-1650-41e6-a678-f10314afc150{fill:url(#e85131ef-52a3-41dc-a283-4f05fe5b248d);}.aef4fa5d-c327-4c12-b660-a3b919620e6a{fill:url(#a6cf9677-6d57-446e-9c23-a25271eebbbd);}.b688f4b9-7808-4c87-8e87-3ebeb4799e9e{fill:url(#bc26d01b-08a1-4651-ae9f-34c3c9ad19e4);}.b5cb4fd3-ee9c-455b-957a-7880a1543b9c{fill:url(#aa809a1b-6cf3-4238-b162-edc1ea2bc7e1);}.a75bb3c6-3b74-4bdb-acc6-5040759df4be{fill:url(#bc7e3b22-554b-44a3-83c0-cc6a6d165071);}.e919e147-c761-47fd-85de-77fbaa977608{fill:url(#f57b4f53-9abd-41a6-9c12-093302fa568a);}.b42c785b-8c75-4939-bda4-f94e33b1cc1f{filter:url(#b166a7d5-b64d-4efa-afb7-f9742655382b);}.b85ddce4-5837-4e39-8c7c-5ea4ac55014c{filter:url(#bc3e8de9-7ca6-435b-a495-26649e641b12);}</style><filter id="bc3e8de9-7ca6-435b-a495-26649e641b12" x="265.83" y="-8316.22" width="36.31" height="32766" filterUnits="userSpaceOnUse" color-interpolation-filters="sRGB"><feFlood flood-color="#fff" result="bg"/><feBlend in="SourceGraphic" in2="bg"/></filter><mask id="a89556fe-9cdf-4a02-b2b0-2c5a2efdbc38" x="265.83" y="-8316.22" width="36.31" height="32766" maskUnits="userSpaceOnUse"><g class="b85ddce4-5837-4e39-8c7c-5ea4ac55014c"/></mask><linearGradient id="e888381d-bf7c-434b-92eb-13fafbc2e107" x1="-447.6" y1="66.96" x2="-411.29" y2="66.96" gradientTransform="matrix(-1, 0, 0, 1, -145.46, 0)" gradientUnits="userSpaceOnUse"><stop offset="0"/><stop offset="0.05" stop-color="#2f2f2f"/><stop offset="0.1" stop-color="#5a5a5a"/><stop offset="0.15" stop-color="#828282"/><stop offset="0.22" stop-color="#a4a4a4"/><stop offset="0.28" stop-color="silver"/><stop offset="0.36" stop-color="#d7d7d7"/><stop offset="0.44" stop-color="#e9e9e9"/><stop offset="0.54" stop-color="#f6f6f6"/><stop offset="0.68" stop-color="#fdfdfd"/><stop offset="1" stop-color="#fff"/></linearGradient><filter id="b166a7d5-b64d-4efa-afb7-f9742655382b" x="189.55" y="-8316.22" width="36.31" height="32766" filterUnits="userSpaceOnUse" color-interpolation-filters="sRGB"><feFlood flood-color="#fff" result="bg"/><feBlend in="SourceGraphic" in2="bg"/></filter><mask id="aa823eb2-7868-4c91-bbcd-9a76d2fe9103" x="189.55" y="-8316.22" width="36.31" height="32766" maskUnits="userSpaceOnUse"><g class="b42c785b-8c75-4939-bda4-f94e33b1cc1f"/></mask><linearGradient id="b75f90e8-6598-46a1-b5d4-e7ed0aa62daa" x1="-371.32" y1="106.08" x2="-335.01" y2="106.08" xlink:href="#e888381d-bf7c-434b-92eb-13fafbc2e107"/><radialGradient id="fe6d8995-570e-44a8-8f09-927fba2a1f09" cx="173.54" cy="192.38" r="155.59" gradientUnits="userSpaceOnUse"><stop offset="0" stop-color="#42e8e0"/><stop offset="0.11" stop-color="#37b6bf"/><stop offset="0.22" stop-color="#2c87a1"/><stop offset="0.34" stop-color="#235f87"/><stop offset="0.46" stop-color="#1c3f72"/><stop offset="0.58" stop-color="#162561"/><stop offset="0.71" stop-color="#121355"/><stop offset="0.85" stop-color="#10084e"/><stop offset="1" stop-color="#0f054c"/></radialGradient><linearGradient id="b53878ec-cabf-420d-90e1-a0cf54d0278f" x1="-58.22" y1="103.08" x2="115.71" y2="103.08" gradientTransform="matrix(-1, 0, 0, 1, 248.39, 0)" gradientUnits="userSpaceOnUse"><stop offset="0" stop-color="#c0bff6"/><stop offset="0.29" stop-color="#c5c4f7"/><stop offset="0.64" stop-color="#d3d2f9"/><stop offset="1" stop-color="#e9e9fd"/></linearGradient><linearGradient id="fd18d264-0972-4059-8108-575e0d4a3232" x1="-58.22" y1="147.69" x2="-28.35" y2="147.69" gradientTransform="matrix(-1, 0, 0, 1, 248.39, 0)" gradientUnits="userSpaceOnUse"><stop offset="0" stop-color="#5761d7"/><stop offset="0.18" stop-color="#5c66d9"/><stop offset="0.39" stop-color="#6a73df"/><stop offset="0.61" stop-color="#8289e8"/><stop offset="0.85" stop-color="#a3a7f5"/><stop offset="1" stop-color="#bcbeff"/></linearGradient><linearGradient id="af2bd036-ae97-4995-b9c7-9b8d69416328" x1="-34.92" y1="196.35" x2="210.73" y2="196.35" xlink:href="#fd18d264-0972-4059-8108-575e0d4a3232"/><linearGradient id="e11b065a-0c1b-4d8d-8385-9e762de0952a" x1="47.62" y1="189.64" x2="293.39" y2="189.64" xlink:href="#b53878ec-cabf-420d-90e1-a0cf54d0278f"/><clipPath id="f12a8455-8569-4970-a6f6-3b27e98fcb25"><path class="ade5a4da-6d76-4d0b-a097-cbf64fb0f6ab" d="M38.93,170.6l149,86a6.15,6.15,0,0,0,5.51.23l88.93-51.35c1.42-.81,1.24-2.24-.39-3.18l-149-86a6.15,6.15,0,0,0-5.51-.23L38.54,167.42C37.12,168.23,37.3,169.66,38.93,170.6Z"/></clipPath><radialGradient id="b5452a7f-d55c-4311-8ae9-424f9aebce88" cx="-2680.67" cy="5308.98" r="97.23" gradientTransform="translate(-1948.42 5897.45) rotate(180) scale(0.78 1.06)" gradientUnits="userSpaceOnUse"><stop offset="0" stop-color="#c0bff6"/><stop offset="1" stop-color="#393091"/></radialGradient><linearGradient id="a6259cfb-39ca-4d9d-8a18-4c69c11759bc" x1="37.23" y1="186.47" x2="283.71" y2="186.47" xlink:href="#fe6d8995-570e-44a8-8f09-927fba2a1f09"/><clipPath id="ada906be-e20d-4132-ba3b-bd970da61b2a"><polygon class="e0357ccb-f1c3-4e0e-8ea2-df4a30afc94c" points="302.46 91.07 151.19 3.77 132.19 116.77 283.36 204.01 302.46 91.07"/></clipPath><linearGradient id="b858c806-82d4-4da7-9c37-6b6ceb8f4c48" x1="-129.38" y1="142.29" x2="116.27" y2="142.29" xlink:href="#fd18d264-0972-4059-8108-575e0d4a3232"/><linearGradient id="b0756c09-8865-4e98-9a17-6a992f1d318d" x1="-46.84" y1="135.58" x2="198.94" y2="135.58" xlink:href="#b53878ec-cabf-420d-90e1-a0cf54d0278f"/><linearGradient id="a4c72c64-6f6b-4eb4-95d4-04cc49c01615" x1="-447.6" y1="135.35" x2="-374.97" y2="135.35" gradientTransform="matrix(-1, 0, 0, 1, -145.46, 0)" xlink:href="#fd18d264-0972-4059-8108-575e0d4a3232"/><linearGradient id="b3f328eb-c927-4160-828f-56f22d60e1b5" x1="-447.6" y1="115.82" x2="-374.97" y2="115.82" gradientTransform="matrix(-1, 0, 0, 1, -145.46, 0)" xlink:href="#fd18d264-0972-4059-8108-575e0d4a3232"/><linearGradient id="a878de35-217b-4101-b7b8-a44e4157e445" x1="-447.6" y1="95.87" x2="-374.97" y2="95.87" gradientTransform="matrix(-1, 0, 0, 1, -145.46, 0)" xlink:href="#fd18d264-0972-4059-8108-575e0d4a3232"/><linearGradient id="b0305449-47e2-4a59-a162-98db246a06d3" x1="-447.6" y1="75.93" x2="-374.97" y2="75.93" gradientTransform="matrix(-1, 0, 0, 1, -145.46, 0)" xlink:href="#fd18d264-0972-4059-8108-575e0d4a3232"/><filter id="a3d9111c-e133-43f3-a244-d100f1702b23" x="265.83" y="57.23" width="36.31" height="19.44" filterUnits="userSpaceOnUse" color-interpolation-filters="sRGB"><feFlood flood-color="#fff" result="bg"/><feBlend in="SourceGraphic" in2="bg"/></filter><mask id="b2b22ab6-544a-4656-a5fb-647f89d7602d" x="265.83" y="57.23" width="36.31" height="19.44" maskUnits="userSpaceOnUse"><g class="a0306875-49de-4872-a485-d38c25e4b590"><path class="ad828b10-8b65-4bf1-b398-d51e6b16edf8" d="M298.8,76.68h-33V57.23h31.3C303.2,63.18,303.76,70.48,298.8,76.68Z"/></g></mask><linearGradient id="fc8924c2-7053-40e5-9654-711f0ccc4bab" x1="-447.6" y1="66.96" x2="-411.29" y2="66.96" gradientTransform="matrix(-1, 0, 0, 1, -145.46, 0)" gradientUnits="userSpaceOnUse"><stop offset="0" stop-color="#e9e9fd"/><stop offset="0.04" stop-color="#d3d5f7"/><stop offset="0.11" stop-color="#b2b6ef"/><stop offset="0.18" stop-color="#969be7"/><stop offset="0.27" stop-color="#7f86e1"/><stop offset="0.36" stop-color="#6d75dd"/><stop offset="0.48" stop-color="#606ad9"/><stop offset="0.64" stop-color="#5963d8"/><stop offset="1" stop-color="#5761d7"/></linearGradient><linearGradient id="a9cf43d1-05aa-4cf7-bdfd-94240f22e160" x1="-429.93" y1="65.91" x2="-392.64" y2="65.91" gradientTransform="matrix(-1, 0, 0, 1, -145.46, 0)" xlink:href="#fd18d264-0972-4059-8108-575e0d4a3232"/><linearGradient id="a5d44afc-80e1-4a96-a155-06097c86c616" x1="-429.93" y1="61.78" x2="-392.64" y2="61.78" gradientTransform="matrix(-1, 0, 0, 1, -145.46, 0)" xlink:href="#b53878ec-cabf-420d-90e1-a0cf54d0278f"/><linearGradient id="ed79f699-d7cc-4aaf-971b-322a0f17d1a6" x1="-423.84" y1="59.19" x2="-398.73" y2="59.19" gradientTransform="matrix(-1, 0, 0, 1, -145.46, 0)" gradientUnits="userSpaceOnUse"><stop offset="0" stop-color="#bcbeff"/><stop offset="0.15" stop-color="#a3a7f5"/><stop offset="0.39" stop-color="#8289e8"/><stop offset="0.61" stop-color="#6a73df"/><stop offset="0.82" stop-color="#5c66d9"/><stop offset="1" stop-color="#5761d7"/></linearGradient><linearGradient id="bf3dee60-4235-46f3-bb42-761c904e74ee" x1="-371.32" y1="174.48" x2="-298.69" y2="174.48" gradientTransform="matrix(-1, 0, 0, 1, -145.46, 0)" xlink:href="#fd18d264-0972-4059-8108-575e0d4a3232"/><linearGradient id="b40c5af3-e078-4092-9763-7306187f9463" x1="-371.32" y1="154.94" x2="-298.69" y2="154.94" gradientTransform="matrix(-1, 0, 0, 1, -145.46, 0)" xlink:href="#fd18d264-0972-4059-8108-575e0d4a3232"/><linearGradient id="bb087aed-ff85-487a-a000-2e6a9b3bbce0" x1="-371.32" y1="135" x2="-298.69" y2="135" gradientTransform="matrix(-1, 0, 0, 1, -145.46, 0)" xlink:href="#fd18d264-0972-4059-8108-575e0d4a3232"/><linearGradient id="a85b8620-aff7-4e1c-a4ad-20f1666f258b" x1="-371.32" y1="115.06" x2="-298.69" y2="115.06" gradientTransform="matrix(-1, 0, 0, 1, -145.46, 0)" xlink:href="#fd18d264-0972-4059-8108-575e0d4a3232"/><filter id="f238dd10-f630-4e9a-9553-5aabfaad07c7" x="189.55" y="96.36" width="36.31" height="19.44" filterUnits="userSpaceOnUse" color-interpolation-filters="sRGB"><feFlood flood-color="#fff" result="bg"/><feBlend in="SourceGraphic" in2="bg"/></filter><mask id="a3f3719a-c72a-4287-b8b8-724d8aef732f" x="189.55" y="96.36" width="36.31" height="19.44" maskUnits="userSpaceOnUse"><g class="bf838920-0cbd-4a4b-8783-b102251c6afc"><path class="b23c18c7-3311-4037-8fb7-6dec219cf37b" d="M222.51,115.8h-33V96.36h31.3C226.92,102.31,227.47,109.61,222.51,115.8Z"/></g></mask><linearGradient id="f7da8451-fde2-4e19-9147-c9483ecd4392" x1="-371.32" y1="106.08" x2="-335.01" y2="106.08" xlink:href="#fc8924c2-7053-40e5-9654-711f0ccc4bab"/><linearGradient id="fe04492f-0ec1-47da-804e-04ebc21532f2" x1="-353.65" y1="105.04" x2="-316.36" y2="105.04" gradientTransform="matrix(-1, 0, 0, 1, -145.46, 0)" xlink:href="#fd18d264-0972-4059-8108-575e0d4a3232"/><linearGradient id="e85131ef-52a3-41dc-a283-4f05fe5b248d" x1="-353.65" y1="100.9" x2="-316.36" y2="100.9" gradientTransform="matrix(-1, 0, 0, 1, -145.46, 0)" xlink:href="#b53878ec-cabf-420d-90e1-a0cf54d0278f"/><linearGradient id="a6cf9677-6d57-446e-9c23-a25271eebbbd" x1="-347.56" y1="98.31" x2="-322.45" y2="98.31" xlink:href="#ed79f699-d7cc-4aaf-971b-322a0f17d1a6"/><linearGradient id="bc26d01b-08a1-4651-ae9f-34c3c9ad19e4" x1="-510.44" y1="-309.48" x2="-415.18" y2="-309.48" gradientTransform="matrix(-0.87, -0.5, 0, 1.15, -254.38, 295.57)" xlink:href="#fd18d264-0972-4059-8108-575e0d4a3232"/><radialGradient id="aa809a1b-6cf3-4238-b162-edc1ea2bc7e1" cx="-313.73" cy="168.67" fx="-350.84067070856037" fy="155.58319539524933" r="39.35" gradientTransform="matrix(-1, 0, 0, 1, -145.46, 0)" gradientUnits="userSpaceOnUse"><stop offset="0" stop-color="#2b237c"/><stop offset="1" stop-color="#180d5b"/></radialGradient><linearGradient id="bc7e3b22-554b-44a3-83c0-cc6a6d165071" x1="-333.12" y1="181.03" x2="-238.3" y2="181.03" gradientTransform="matrix(-1, 0, 0, 1, -145.46, 0)" xlink:href="#fd18d264-0972-4059-8108-575e0d4a3232"/><linearGradient id="f57b4f53-9abd-41a6-9c12-093302fa568a" x1="-491.97" y1="-293.45" x2="-396.72" y2="-293.45" gradientTransform="matrix(-0.87, -0.5, 0, 1.15, -254.38, 295.57)" xlink:href="#b53878ec-cabf-420d-90e1-a0cf54d0278f"/></defs><g class="e5bd4886-9481-4c3f-86a7-19f53396b64e"><g id="a2bb485c-4065-43b2-a67c-31d268602aa2" data-name="Layer 2"><g id="bae71768-d04a-475d-bed6-2fd60bc51f3d" data-name="—ÎÓÈ_1"><g class="aeb0684e-e59d-4175-8e60-a078ee017788"><polygon class="a9e27b79-478b-4b5b-a26f-64670fe33786" points="172.22 296 0 196.57 172.21 97.14 344.43 196.57 172.22 296"/></g><g class="aeb0684e-e59d-4175-8e60-a078ee017788"><polygon class="a9e27b79-478b-4b5b-a26f-64670fe33786" points="172.22 280.58 26.71 196.57 172.21 112.56 317.72 196.57 172.22 280.58"/></g><g class="a18286dd-3a48-41b1-8851-3e06bd8403fa"><polygon class="b42a3712-05fb-4d96-9129-a6e7f598e02a" points="172.22 262.66 57.74 196.57 172.21 130.48 286.69 196.57 172.22 262.66"/></g><path class="b02723b7-37f5-43a7-b3ab-8a7e7b7188d8" d="M132.71,113.9,151.55,2.13,150,1.49l2.27-1.3h0a1.65,1.65,0,0,1,1.75.12L304.62,87.25a4.25,4.25,0,0,1,2,3.82l-19,112.66a1.42,1.42,0,0,1-.79,1.15h0l-2.23,1.28-.38-2.08.12,0-149.64-86.4A4.23,4.23,0,0,1,132.71,113.9Z"/><path class="e2bb8db6-13fe-4105-9508-e77a6767a369" d="M303.78,90.3l2.48-1.09a3.42,3.42,0,0,1,.32,1.86l-19,112.66a1.42,1.42,0,0,1-.79,1.15h0l-2.23,1.28-.38-2.08.12,0-7.57-4.37Z"/><path class="bdef851f-e5bb-4b57-98ac-0390f7a0f42c" d="M132.3,119.08,282.86,206c1.17.68,2.16.29,2.37-.92l19-112.65a4.28,4.28,0,0,0-2-3.83L151.7,1.68c-1.16-.67-2.16-.29-2.36.92l-19,112.65A4.27,4.27,0,0,0,132.3,119.08Z"/><g class="fbfe238f-e6c1-4bf8-80cc-b48184e059cc"><polygon class="a0ef0e72-3a2b-4c52-aa0a-ac40debdbe03" points="151.19 3.77 302.46 91.07 283.36 204.01 132.19 116.77 151.19 3.77"/></g><path class="e2e024fd-7356-4737-bcc5-540c5e273fc4" d="M37.66,172.41l8.22,4.29,82.39-47.56a6,6,0,0,1,5.38.22l142.1,82c1.36-.76,7.56-3.74,7.56-3.74l-3,4.89h0a1.85,1.85,0,0,1-.84.93l-86.78,50.1a6,6,0,0,1-5.38-.22l-145.41-84a2.65,2.65,0,0,1-1.22-1.29h0Z"/><path class="ffe029e0-097b-4ce8-bf91-12aac533381d" d="M38.93,173.76l149,86.05a6.11,6.11,0,0,0,5.51.22l88.93-51.34c1.42-.82,1.24-2.24-.39-3.18l-149-86a6.08,6.08,0,0,0-5.51-.23L38.54,170.58C37.12,171.4,37.3,172.82,38.93,173.76Z"/><path class="bdef851f-e5bb-4b57-98ac-0390f7a0f42c" d="M38.93,173.76l149,86.05a6.11,6.11,0,0,0,5.51.22l88.93-51.34c1.42-.82,1.24-2.24-.39-3.18l-149-86a6.08,6.08,0,0,0-5.51-.23L38.54,170.58C37.12,171.4,37.3,172.82,38.93,173.76Z"/><path class="b0e1793d-a43b-444b-bda5-d441ac28639a" d="M38.93,173.76l149,86.05a6.11,6.11,0,0,0,5.51.22l88.93-51.34c1.42-.82,1.24-2.24-.39-3.18l-149-86a6.08,6.08,0,0,0-5.51-.23L38.54,170.58C37.12,171.4,37.3,172.82,38.93,173.76Z"/><g class="ebb63a4b-56ef-40aa-bdac-e549b950d024"><path class="ade5a4da-6d76-4d0b-a097-cbf64fb0f6ab" d="M38.93,170.6l149,86a6.15,6.15,0,0,0,5.51.23l88.93-51.35c1.42-.81,1.24-2.24-.39-3.18l-149-86a6.15,6.15,0,0,0-5.51-.23L38.54,167.42C37.12,168.23,37.3,169.66,38.93,170.6Z"/><g class="a56a5fc3-6db5-4e24-b789-0cd0ef5e3b67"><path class="a9e653be-9e1e-46ab-b614-143d344a317f" d="M119.36,265.2c0-33.1,19.71-59.93,44-59.93s44,26.83,44,59.93-19.71,43-44,43S119.36,298.3,119.36,265.2Z"/></g></g><path class="b5d7bbb7-dbc2-405d-9331-8f751d38df33" d="M191.07,257.77a6.69,6.69,0,0,1-3.28-.83l-149-86a2.62,2.62,0,0,1-1.53-2.1,2,2,0,0,1,1.13-1.69l88.93-51.34a6.43,6.43,0,0,1,5.87.22l149,86.05a2.61,2.61,0,0,1,1.53,2.1,2,2,0,0,1-1.13,1.69l-88.93,51.34A5.18,5.18,0,0,1,191.07,257.77Zm-61.21-141.9a4.44,4.44,0,0,0-2.22.51L38.71,167.72a1.36,1.36,0,0,0-.78,1.08c0,.52.43,1.06,1.18,1.49l149,86a5.72,5.72,0,0,0,5.16.23l88.93-51.34a1.36,1.36,0,0,0,.78-1.08c0-.52-.43-1.06-1.18-1.49l-149-86.05A6.1,6.1,0,0,0,129.86,115.87Z"/><path class="ede098db-cfe2-40e5-b13a-0abd8b5e378e" d="M38.93,173.1l149,86a6.15,6.15,0,0,0,5.51.23L282.4,208a1.77,1.77,0,0,0,.9-1,1.52,1.52,0,0,1-.9,1.71L193.47,260a6.11,6.11,0,0,1-5.51-.22l-149-86.05c-1-.61-1.49-1.42-1.29-2.14A2.54,2.54,0,0,0,38.93,173.1Z"/><g class="ae633374-df68-4a47-8e00-77e68590b47a"><g class="aa565c36-7603-453e-98d6-2e40e5789932"><path class="f6b59b04-6276-4860-bb83-7a462e5a4dd4" d="M132.12,118.35l8.22,4.29,82.39-47.56a5.94,5.94,0,0,1,5.37.22l142.1,82c1.36-.76,7.56-3.74,7.56-3.74l-3,4.89h0a1.76,1.76,0,0,1-.84.93l-86.77,50.1a6,6,0,0,1-5.38-.22l-145.41-84a2.62,2.62,0,0,1-1.22-1.3h0Z"/><path class="f991077b-09c3-4a35-9559-85d1a2670e4a" d="M133.39,119.7l149,86.05a6.11,6.11,0,0,0,5.51.22l88.93-51.34c1.41-.82,1.24-2.24-.39-3.18l-149-86a6.08,6.08,0,0,0-5.51-.23L133,116.52C131.58,117.34,131.76,118.76,133.39,119.7Z"/><path class="bdef851f-e5bb-4b57-98ac-0390f7a0f42c" d="M133.39,119.7l149,86.05a6.11,6.11,0,0,0,5.51.22l88.93-51.34c1.41-.82,1.24-2.24-.39-3.18l-149-86a6.08,6.08,0,0,0-5.51-.23L133,116.52C131.58,117.34,131.76,118.76,133.39,119.7Z"/><path class="b0e1793d-a43b-444b-bda5-d441ac28639a" d="M133.39,119.7l149,86.05a6.11,6.11,0,0,0,5.51.22l88.93-51.34c1.41-.82,1.24-2.24-.39-3.18l-149-86a6.08,6.08,0,0,0-5.51-.23L133,116.52C131.58,117.34,131.76,118.76,133.39,119.7Z"/><path class="ede098db-cfe2-40e5-b13a-0abd8b5e378e" d="M376.47,151.45l-149-86a6.5,6.5,0,0,0-3.69-.75,6.09,6.09,0,0,1,2.59.75l149,86c1.63.94,1.81,2.36.39,3.18L286.83,206a4.46,4.46,0,0,1-1.83.52,5.12,5.12,0,0,0,2.93-.52l88.93-51.34C378.27,153.81,378.1,152.39,376.47,151.45Z"/><path class="bcd7b29f-03c3-4dbf-bb1c-0e0bb4b415c2" d="M243.22,168.41l-42.77-24.69c-4.34-2.51-4.34-6.59,0-9.09l42.77-24.7a17.41,17.41,0,0,1,15.75,0l42.77,24.7c4.34,2.5,4.34,6.58,0,9.09L259,168.41A17.41,17.41,0,0,1,243.22,168.41Z"/><path class="e718f0ca-8ec6-431a-b71d-c08e43487563" d="M265.83,171.69c-10.68,0-20.71-2.39-28.25-6.75h0c-7.67-4.42-11.89-10.34-11.89-16.68s4.22-12.25,11.89-16.68c15.58-9,40.92-9,56.5,0C301.75,136,306,141.93,306,148.26s-4.22,12.26-11.89,16.68S276.51,171.69,265.83,171.69Zm0-46.39c-10.15,0-20.29,2.23-28,6.69-7.52,4.34-11.65,10.12-11.65,16.27s4.13,11.93,11.65,16.27h0c7.46,4.31,17.41,6.69,28,6.69s20.54-2.38,28-6.69,11.65-10.11,11.65-16.27-4.14-11.93-11.65-16.27C286.12,127.53,276,125.3,265.83,125.3Z"/><path class="fc231cf8-7139-4413-9e5a-2972749a2bea" d="M229.52,135.35v-8h2.78a24.82,24.82,0,0,1,7.85-6.77c14.18-8.19,37.18-8.19,51.36,0a24.82,24.82,0,0,1,7.85,6.77h2.78v8h0c0,5.37-3.54,10.73-10.63,14.83-14.19,8.19-37.18,8.19-51.36,0C233.06,146.08,229.52,140.72,229.52,135.35Z"/><ellipse class="b8145844-1380-4338-91b4-98ea9c76cb8c" cx="265.83" cy="127.3" rx="36.31" ry="20.97"/><path class="bdef851f-e5bb-4b57-98ac-0390f7a0f42c" d="M232.29,127V116h2.58a22.77,22.77,0,0,1,7.25-6.25c13.09-7.56,34.33-7.56,47.42,0a22.88,22.88,0,0,1,7.25,6.25h2.57v11h0c0,5-3.27,9.91-9.82,13.69-13.1,7.56-34.33,7.56-47.43,0C235.57,136.9,232.29,131.94,232.29,127Z"/><g class="fbfe238f-e6c1-4bf8-80cc-b48184e059cc"><path class="a0ef0e72-3a2b-4c52-aa0a-ac40debdbe03" d="M232.29,124.34v-11h2.58a22.77,22.77,0,0,1,7.25-6.25c13.09-7.56,34.33-7.56,47.42,0a22.88,22.88,0,0,1,7.25,6.25h2.57v11h0c0,5-3.27,9.91-9.82,13.69-13.1,7.56-34.33,7.56-47.43,0C235.57,134.25,232.29,129.3,232.29,124.34Z"/></g><ellipse class="b8145844-1380-4338-91b4-98ea9c76cb8c" cx="265.83" cy="115.99" rx="33.54" ry="19.36"/><g class="fbfe238f-e6c1-4bf8-80cc-b48184e059cc"><path class="bececdd8-64f1-4db7-8e3d-b9d6ffe22680" d="M242.73,130.24a41,41,0,0,0,19.79,13.37c-7.45-.43-14.7-2.28-20.41-5.58-6.54-3.78-9.82-8.73-9.82-13.69v-3.28A35.11,35.11,0,0,1,242.73,130.24Z"/></g><path class="bfbf8c8a-1067-4841-bf6e-9cecdd9f270b" d="M229.52,115.82v-8.06h2.78a24.82,24.82,0,0,1,7.85-6.77c14.18-8.19,37.18-8.19,51.36,0a24.82,24.82,0,0,1,7.85,6.77h2.78v8.06h0c0,5.36-3.54,10.73-10.63,14.82-14.19,8.19-37.18,8.19-51.36,0C233.06,126.55,229.52,121.18,229.52,115.82Z"/><ellipse class="b8145844-1380-4338-91b4-98ea9c76cb8c" cx="265.83" cy="107.76" rx="36.31" ry="20.97"/><path class="bdef851f-e5bb-4b57-98ac-0390f7a0f42c" d="M232.29,107.05v-11h2.58a22.77,22.77,0,0,1,7.25-6.25c13.09-7.56,34.33-7.56,47.42,0a22.88,22.88,0,0,1,7.25,6.25h2.57v11h0c0,5-3.27,9.91-9.82,13.69-13.1,7.56-34.33,7.56-47.43,0C235.57,117,232.29,112,232.29,107.05Z"/><g class="fbfe238f-e6c1-4bf8-80cc-b48184e059cc"><path class="a0ef0e72-3a2b-4c52-aa0a-ac40debdbe03" d="M232.29,104.53v-11h2.58a22.77,22.77,0,0,1,7.25-6.25c13.09-7.56,34.33-7.56,47.42,0a22.88,22.88,0,0,1,7.25,6.25h2.57v11h0c0,5-3.27,9.91-9.82,13.69-13.1,7.56-34.33,7.56-47.43,0C235.57,114.44,232.29,109.49,232.29,104.53Z"/></g><ellipse class="b8145844-1380-4338-91b4-98ea9c76cb8c" cx="265.83" cy="96.05" rx="33.54" ry="19.36"/><g class="fbfe238f-e6c1-4bf8-80cc-b48184e059cc"><path class="bececdd8-64f1-4db7-8e3d-b9d6ffe22680" d="M242.73,109.26c7.16,9.13,17.17,13,24.23,14.6-8.95.18-18-1.69-24.85-5.64-6.54-3.78-9.82-8.73-9.82-13.69v-4.45A35.25,35.25,0,0,1,242.73,109.26Z"/></g><path class="e57aec06-ecc9-42b4-8ebd-ef997a593f52" d="M229.52,95.87V87.82h2.78a24.82,24.82,0,0,1,7.85-6.77c14.18-8.19,37.18-8.19,51.36,0a24.82,24.82,0,0,1,7.85,6.77h2.78v8.05h0c0,5.37-3.54,10.73-10.63,14.83-14.19,8.19-37.18,8.19-51.36,0C233.06,106.6,229.52,101.24,229.52,95.87Z"/><ellipse class="b8145844-1380-4338-91b4-98ea9c76cb8c" cx="265.83" cy="87.82" rx="36.31" ry="20.97"/><path class="bdef851f-e5bb-4b57-98ac-0390f7a0f42c" d="M232.29,87.1v-11h2.58a22.52,22.52,0,0,1,7.25-6.25c13.09-7.57,34.33-7.57,47.42,0a22.63,22.63,0,0,1,7.25,6.25h2.57v11h0c0,5-3.27,9.91-9.82,13.69-13.1,7.57-34.33,7.57-47.43,0C235.57,97,232.29,92.06,232.29,87.1Z"/><g class="fbfe238f-e6c1-4bf8-80cc-b48184e059cc"><path class="a0ef0e72-3a2b-4c52-aa0a-ac40debdbe03" d="M232.29,84V73h2.58a22.77,22.77,0,0,1,7.25-6.25c13.09-7.56,34.33-7.56,47.42,0A22.88,22.88,0,0,1,296.79,73h2.57V84h0c0,5-3.27,9.91-9.82,13.69-13.1,7.56-34.33,7.56-47.43,0C235.57,93.94,232.29,89,232.29,84Z"/></g><ellipse class="b8145844-1380-4338-91b4-98ea9c76cb8c" cx="265.83" cy="76.11" rx="33.54" ry="19.36"/><path class="bfc441de-ebfc-4cdb-8ce6-6e82e6b5a1fa" d="M229.52,75.93V67.87h2.78a24.8,24.8,0,0,1,7.85-6.76c14.18-8.19,37.18-8.19,51.36,0a24.8,24.8,0,0,1,7.85,6.76h2.78v8.06h0c0,5.37-3.54,10.73-10.63,14.82-14.19,8.19-37.18,8.19-51.36,0C233.06,86.66,229.52,81.3,229.52,75.93Z"/><ellipse class="b8145844-1380-4338-91b4-98ea9c76cb8c" cx="265.83" cy="67.87" rx="36.31" ry="20.97"/><ellipse class="b8145844-1380-4338-91b4-98ea9c76cb8c" cx="265.83" cy="67.87" rx="36.31" ry="20.97"/><g class="fbfe238f-e6c1-4bf8-80cc-b48184e059cc"><path class="bececdd8-64f1-4db7-8e3d-b9d6ffe22680" d="M242.73,88.29c7.87,10,19.16,13.68,26.22,15-9.59.52-19.49-1.34-26.84-5.58-6.54-3.78-9.82-8.74-9.82-13.69V79.1A35.3,35.3,0,0,1,242.73,88.29Z"/></g><path class="bfc441de-ebfc-4cdb-8ce6-6e82e6b5a1fa" d="M229.52,75.93V67.87h2.78a24.8,24.8,0,0,1,7.85-6.76c14.18-8.19,37.18-8.19,51.36,0a24.8,24.8,0,0,1,7.85,6.76h2.78v8.06h0c0,5.37-3.54,10.73-10.63,14.82-14.19,8.19-37.18,8.19-51.36,0C233.06,86.66,229.52,81.3,229.52,75.93Z"/><ellipse class="b8145844-1380-4338-91b4-98ea9c76cb8c" cx="265.83" cy="67.87" rx="36.31" ry="20.97"/><ellipse class="b8145844-1380-4338-91b4-98ea9c76cb8c" cx="265.83" cy="67.87" rx="36.31" ry="20.97"/><path class="ede098db-cfe2-40e5-b13a-0abd8b5e378e" d="M239.94,82.06c14.19,8.19,37.18,8.19,51.36,0,8.68-5,12-11.93,10.09-18.43,2.37,6.68-.92,13.89-9.88,19.07-14.19,8.19-37.18,8.19-51.36,0-5.5-3.17-8.85-7.11-10.09-11.22C231.44,75.36,234.73,79.05,239.94,82.06Z"/><path class="ede098db-cfe2-40e5-b13a-0abd8b5e378e" d="M239.94,102c14.19,8.18,37.18,8.18,51.36,0,8.68-5,12-11.93,10.09-18.42,2.37,6.67-.92,13.88-9.88,19.06-14.19,8.19-37.18,8.19-51.36,0-5.5-3.17-8.85-7.11-10.09-11.22C231.44,95.3,234.73,99,239.94,102Z"/><path class="ede098db-cfe2-40e5-b13a-0abd8b5e378e" d="M239.94,122c14.19,8.19,37.18,8.19,51.36,0,8.68-5,12-11.94,10.09-18.43,2.37,6.67-.92,13.89-9.88,19.06-14.19,8.19-37.18,8.19-51.36,0-5.5-3.17-8.85-7.11-10.09-11.22C231.44,115.24,234.73,118.94,239.94,122Z"/><path class="ede098db-cfe2-40e5-b13a-0abd8b5e378e" d="M239.94,141.89c14.19,8.19,37.18,8.19,51.36,0,8.68-5,12-11.93,10.09-18.43,2.37,6.68-.92,13.89-9.88,19.07-14.19,8.18-37.18,8.18-51.36,0-5.5-3.18-8.85-7.11-10.09-11.22C231.44,135.18,234.73,138.88,239.94,141.89Z"/><g class="e394876f-be9b-4aca-b697-0171189ab90a"><path class="e3d3c41c-5c5b-4a32-887f-a471500750b9" d="M298.8,76.68h-33V57.23h31.3C303.2,63.18,303.76,70.48,298.8,76.68Z"/></g><path class="a4512793-8e05-4f10-aa15-dc38f202df01" d="M247.18,65.91V61.78h1.43a12.72,12.72,0,0,1,4-3.48c7.28-4.2,19.08-4.2,26.36,0a12.68,12.68,0,0,1,4,3.48h1.43v4.13h0c0,2.76-1.82,5.51-5.46,7.61-7.28,4.21-19.08,4.21-26.36,0C249,71.42,247.18,68.67,247.18,65.91Z"/><ellipse class="b8145844-1380-4338-91b4-98ea9c76cb8c" cx="265.83" cy="61.78" rx="18.64" ry="10.76"/><ellipse class="b376cd47-9050-46ee-b4c0-5376a455395e" cx="265.83" cy="61.78" rx="18.64" ry="10.76"/><path class="bdef851f-e5bb-4b57-98ac-0390f7a0f42c" d="M257,66.9c4.9,2.83,12.85,2.83,17.76,0a7.74,7.74,0,0,0,3.15-3.06c1.27-2.46-1.89-4.25-5.27-6.2-4.9-2.83-8.38-3.53-13.28-.7-3.37,2-6.78,4.44-5.52,6.9A7.84,7.84,0,0,0,257,66.9Z"/><path class="aa04dfbb-61da-460d-82a8-2a0163ead80c" d="M274.71,60.79C269.8,58,261.85,58,257,60.79a7.74,7.74,0,0,0-3.15,3.06c-1.27-2.47-.22-5.25,3.15-7.2,4.9-2.83,12.85-2.83,17.76,0,3.37,2,4.42,4.73,3.15,7.2A7.74,7.74,0,0,0,274.71,60.79Z"/><g class="fbfe238f-e6c1-4bf8-80cc-b48184e059cc"><path class="a933122f-e6bc-4ced-8d22-a8bea93458cb" d="M245.39,98.47c2.44,1,4.27.7,4.08-.58s-2.33-3.11-4.78-4.07-4.27-.71-4.08.58S242.94,97.51,245.39,98.47Z"/></g><g class="fbfe238f-e6c1-4bf8-80cc-b48184e059cc"><path class="a933122f-e6bc-4ced-8d22-a8bea93458cb" d="M245.39,118.7c2.44,1,4.27.7,4.08-.58s-2.33-3.11-4.78-4.08-4.27-.7-4.08.59S242.94,117.73,245.39,118.7Z"/></g><g class="fbfe238f-e6c1-4bf8-80cc-b48184e059cc"><path class="a933122f-e6bc-4ced-8d22-a8bea93458cb" d="M245.25,139.06c2.45,1,4.28.7,4.08-.58s-2.33-3.11-4.77-4.07-4.28-.71-4.08.58S242.81,138.1,245.25,139.06Z"/></g><g class="fbfe238f-e6c1-4bf8-80cc-b48184e059cc"><path class="a933122f-e6bc-4ced-8d22-a8bea93458cb" d="M238.42,93.39a1,1,0,1,0-.48-1.53A1.17,1.17,0,0,0,238.42,93.39Z"/></g><g class="fbfe238f-e6c1-4bf8-80cc-b48184e059cc"><path class="a933122f-e6bc-4ced-8d22-a8bea93458cb" d="M238.42,113.71a1,1,0,1,0-.48-1.53A1.16,1.16,0,0,0,238.42,113.71Z"/></g><g class="fbfe238f-e6c1-4bf8-80cc-b48184e059cc"><path class="a933122f-e6bc-4ced-8d22-a8bea93458cb" d="M238.42,134a1,1,0,1,0,1.13-1.58,1,1,0,1,0-1.13,1.58Z"/></g></g></g><polygon class="b6fce083-5b8b-466c-95f7-b4eee3e8ec25" points="166.03 36.48 157.5 31.55 157.81 29.68 166.34 34.6 166.03 36.48"/><polygon class="b6fce083-5b8b-466c-95f7-b4eee3e8ec25" points="170.41 39 167.34 37.23 167.64 35.35 170.71 37.13 170.41 39"/><polygon class="b6fce083-5b8b-466c-95f7-b4eee3e8ec25" points="173.79 40.96 171.71 39.75 172.02 37.88 174.1 39.09 173.79 40.96"/><polygon class="b6fce083-5b8b-466c-95f7-b4eee3e8ec25" points="161.45 38.51 156.8 35.83 157.11 33.96 161.75 36.64 161.45 38.51"/><polygon class="b6fce083-5b8b-466c-95f7-b4eee3e8ec25" points="168.44 42.55 162.75 39.27 163.06 37.39 168.75 40.68 168.44 42.55"/><polygon class="b6fce083-5b8b-466c-95f7-b4eee3e8ec25" points="171.83 44.51 169.75 43.31 170.06 41.43 172.14 42.64 171.83 44.51"/><polygon class="b6fce083-5b8b-466c-95f7-b4eee3e8ec25" points="175.06 46.38 172.97 45.17 173.28 43.3 175.37 44.5 175.06 46.38"/><polygon class="e718f0ca-8ec6-431a-b71d-c08e43487563" points="159.46 42.05 156.09 40.11 156.4 38.24 159.77 40.18 159.46 42.05"/><polygon class="e718f0ca-8ec6-431a-b71d-c08e43487563" points="161.91 43.47 160.76 42.8 161.07 40.93 162.22 41.59 161.91 43.47"/><polygon class="b6fce083-5b8b-466c-95f7-b4eee3e8ec25" points="165.3 45.42 163.21 44.22 163.52 42.35 165.61 43.55 165.3 45.42"/><polygon class="b6fce083-5b8b-466c-95f7-b4eee3e8ec25" points="167.8 51.56 155.39 44.39 155.7 42.52 168.11 49.68 167.8 51.56"/><polygon class="b6fce083-5b8b-466c-95f7-b4eee3e8ec25" points="172.18 54.08 169.1 52.31 169.41 50.44 172.48 52.21 172.18 54.08"/><polygon class="b6fce083-5b8b-466c-95f7-b4eee3e8ec25" points="158.05 50.61 154.69 48.67 155 46.8 158.36 48.74 158.05 50.61"/><polygon class="b6fce083-5b8b-466c-95f7-b4eee3e8ec25" points="165.94 55.17 159.35 51.36 159.66 49.49 166.25 53.29 165.94 55.17"/><polygon class="b6fce083-5b8b-466c-95f7-b4eee3e8ec25" points="169.33 57.13 167.24 55.92 167.55 54.05 169.64 55.25 169.33 57.13"/><polygon class="b6fce083-5b8b-466c-95f7-b4eee3e8ec25" points="160.86 56.92 153.98 52.95 154.29 51.08 161.17 55.05 160.86 56.92"/><polygon class="e718f0ca-8ec6-431a-b71d-c08e43487563" points="167.14 60.55 162.16 57.67 162.47 55.8 167.45 58.67 167.14 60.55"/><polygon class="b6fce083-5b8b-466c-95f7-b4eee3e8ec25" points="171.81 63.24 168.44 61.3 168.75 59.43 172.11 61.37 171.81 63.24"/><polygon class="b6fce083-5b8b-466c-95f7-b4eee3e8ec25" points="155.6 58.57 153.28 57.23 153.59 55.35 155.91 56.7 155.6 58.57"/><polygon class="b6fce083-5b8b-466c-95f7-b4eee3e8ec25" points="159.98 61.1 156.91 59.32 157.21 57.45 160.28 59.22 159.98 61.1"/><polygon class="b6fce083-5b8b-466c-95f7-b4eee3e8ec25" points="166.23 64.71 161.28 61.85 161.59 59.98 166.53 62.83 166.23 64.71"/><polygon class="b6fce083-5b8b-466c-95f7-b4eee3e8ec25" points="159.69 65.62 152.57 61.51 152.88 59.63 160 63.75 159.69 65.62"/><polygon class="b6fce083-5b8b-466c-95f7-b4eee3e8ec25" points="167.66 70.22 161 66.37 161.3 64.5 167.97 68.35 167.66 70.22"/><polygon class="e718f0ca-8ec6-431a-b71d-c08e43487563" points="171.05 72.18 168.97 70.98 169.28 69.1 171.36 70.31 171.05 72.18"/><polygon class="b6fce083-5b8b-466c-95f7-b4eee3e8ec25" points="174.31 74.06 172.22 72.85 172.53 70.98 174.61 72.19 174.31 74.06"/><polygon class="b6fce083-5b8b-466c-95f7-b4eee3e8ec25" points="156.13 68.25 151.87 65.79 152.18 63.91 156.44 66.38 156.13 68.25"/><polygon class="e718f0ca-8ec6-431a-b71d-c08e43487563" points="179.6 44.31 185.51 47.73 185.82 45.85 179.91 42.44 179.6 44.31"/><polygon class="b6fce083-5b8b-466c-95f7-b4eee3e8ec25" points="180.16 49.32 184.81 52.01 185.12 50.13 180.47 47.45 180.16 49.32"/><polygon class="b6fce083-5b8b-466c-95f7-b4eee3e8ec25" points="180.74 54.34 184.11 56.29 184.41 54.41 181.05 52.47 180.74 54.34"/><polygon class="b6fce083-5b8b-466c-95f7-b4eee3e8ec25" points="178.51 57.74 183.4 60.57 183.71 58.69 178.82 55.87 178.51 57.74"/><polygon class="b6fce083-5b8b-466c-95f7-b4eee3e8ec25" points="179.34 62.91 182.7 64.85 183.01 62.97 179.65 61.03 179.34 62.91"/><polygon class="b6fce083-5b8b-466c-95f7-b4eee3e8ec25" points="177.73 66.66 181.99 69.13 182.3 67.25 178.04 64.79 177.73 66.66"/><polygon class="b6fce083-5b8b-466c-95f7-b4eee3e8ec25" points="178.97 72.06 181.29 73.41 181.6 71.53 179.28 70.19 178.97 72.06"/><polygon class="b6fce083-5b8b-466c-95f7-b4eee3e8ec25" points="176.08 75.09 180.59 77.69 180.9 75.81 176.39 73.21 176.08 75.09"/><polygon class="b6fce083-5b8b-466c-95f7-b4eee3e8ec25" points="175.62 79.5 179.88 81.97 180.19 80.09 175.93 77.63 175.62 79.5"/><polygon class="b6fce083-5b8b-466c-95f7-b4eee3e8ec25" points="159.25 70.05 157.44 69 157.75 67.13 159.56 68.18 159.25 70.05"/><polygon class="b6fce083-5b8b-466c-95f7-b4eee3e8ec25" points="164.64 73.16 160.56 70.8 160.86 68.93 164.94 71.29 164.64 73.16"/><polygon class="b6fce083-5b8b-466c-95f7-b4eee3e8ec25" points="199.12 55.5 190.59 50.58 190.9 48.7 199.42 53.63 199.12 55.5"/><polygon class="b6fce083-5b8b-466c-95f7-b4eee3e8ec25" points="203.49 58.03 200.42 56.26 200.73 54.38 203.8 56.16 203.49 58.03"/><polygon class="e718f0ca-8ec6-431a-b71d-c08e43487563" points="206.88 59.99 204.79 58.78 205.1 56.91 207.19 58.11 206.88 59.99"/><polygon class="b6fce083-5b8b-466c-95f7-b4eee3e8ec25" points="194.53 57.54 189.88 54.86 190.19 52.98 194.84 55.67 194.53 57.54"/><polygon class="b6fce083-5b8b-466c-95f7-b4eee3e8ec25" points="201.53 61.58 195.83 58.29 196.14 56.42 201.84 59.71 201.53 61.58"/><polygon class="e718f0ca-8ec6-431a-b71d-c08e43487563" points="204.92 63.54 202.83 62.33 203.14 60.46 205.22 61.67 204.92 63.54"/><polygon class="b6fce083-5b8b-466c-95f7-b4eee3e8ec25" points="208.14 65.4 206.06 64.2 206.36 62.32 208.45 63.53 208.14 65.4"/><polygon class="b6fce083-5b8b-466c-95f7-b4eee3e8ec25" points="192.54 61.08 189.18 59.14 189.49 57.26 192.85 59.2 192.54 61.08"/><polygon class="b6fce083-5b8b-466c-95f7-b4eee3e8ec25" points="194.99 62.49 193.84 61.83 194.15 59.96 195.3 60.62 194.99 62.49"/><polygon class="b6fce083-5b8b-466c-95f7-b4eee3e8ec25" points="198.38 64.45 196.3 63.25 196.6 61.37 198.69 62.58 198.38 64.45"/><polygon class="b6fce083-5b8b-466c-95f7-b4eee3e8ec25" points="200.88 70.58 188.47 63.42 188.78 61.54 201.19 68.71 200.88 70.58"/><polygon class="b6fce083-5b8b-466c-95f7-b4eee3e8ec25" points="205.26 73.11 202.19 71.34 202.5 69.46 205.57 71.24 205.26 73.11"/><polygon class="b6fce083-5b8b-466c-95f7-b4eee3e8ec25" points="191.13 69.64 187.77 67.7 188.08 65.82 191.44 67.76 191.13 69.64"/><polygon class="b6fce083-5b8b-466c-95f7-b4eee3e8ec25" points="199.02 74.19 192.44 70.39 192.74 68.52 199.33 72.32 199.02 74.19"/><polygon class="b6fce083-5b8b-466c-95f7-b4eee3e8ec25" points="202.41 76.15 200.33 74.95 200.63 73.07 202.72 74.28 202.41 76.15"/><polygon class="e718f0ca-8ec6-431a-b71d-c08e43487563" points="193.95 75.95 187.07 71.98 187.38 70.1 194.25 74.08 193.95 75.95"/><polygon class="b6fce083-5b8b-466c-95f7-b4eee3e8ec25" points="200.22 79.58 195.25 76.7 195.56 74.83 200.53 77.7 200.22 79.58"/><polygon class="b6fce083-5b8b-466c-95f7-b4eee3e8ec25" points="204.89 82.27 201.53 80.33 201.84 78.45 205.2 80.4 204.89 82.27"/><polygon class="b6fce083-5b8b-466c-95f7-b4eee3e8ec25" points="188.69 77.6 186.36 76.26 186.67 74.38 188.99 75.72 188.69 77.6"/><polygon class="b6fce083-5b8b-466c-95f7-b4eee3e8ec25" points="193.06 80.12 189.99 78.35 190.3 76.48 193.37 78.25 193.06 80.12"/><polygon class="e718f0ca-8ec6-431a-b71d-c08e43487563" points="199.31 83.73 194.36 80.88 194.67 79 199.62 81.86 199.31 83.73"/><polygon class="b6fce083-5b8b-466c-95f7-b4eee3e8ec25" points="192.78 84.65 185.66 80.54 185.97 78.66 193.08 82.77 192.78 84.65"/><polygon class="b6fce083-5b8b-466c-95f7-b4eee3e8ec25" points="200.75 89.25 194.08 85.4 194.39 83.53 201.06 87.38 200.75 89.25"/><polygon class="b6fce083-5b8b-466c-95f7-b4eee3e8ec25" points="204.14 91.21 202.05 90 202.36 88.13 204.44 89.33 204.14 91.21"/><polygon class="b6fce083-5b8b-466c-95f7-b4eee3e8ec25" points="207.39 93.09 205.3 91.88 205.61 90.01 207.7 91.21 207.39 93.09"/><polygon class="b6fce083-5b8b-466c-95f7-b4eee3e8ec25" points="189.22 87.28 184.95 84.82 185.26 82.94 189.53 85.41 189.22 87.28"/><polygon class="e718f0ca-8ec6-431a-b71d-c08e43487563" points="212.68 63.34 218.6 66.75 218.91 64.88 212.99 61.47 212.68 63.34"/><polygon class="b6fce083-5b8b-466c-95f7-b4eee3e8ec25" points="213.25 68.35 217.89 71.03 218.2 69.16 213.56 66.48 213.25 68.35"/><polygon class="b6fce083-5b8b-466c-95f7-b4eee3e8ec25" points="213.83 73.37 217.19 75.31 217.5 73.44 214.14 71.5 213.83 73.37"/><polygon class="b6fce083-5b8b-466c-95f7-b4eee3e8ec25" points="211.59 76.77 216.49 79.59 216.79 77.72 211.9 74.9 211.59 76.77"/><polygon class="b6fce083-5b8b-466c-95f7-b4eee3e8ec25" points="212.42 81.93 215.78 83.87 216.09 82 212.73 80.06 212.42 81.93"/><polygon class="b6fce083-5b8b-466c-95f7-b4eee3e8ec25" points="210.81 85.69 215.08 88.15 215.39 86.28 211.12 83.82 210.81 85.69"/><polygon class="b6fce083-5b8b-466c-95f7-b4eee3e8ec25" points="212.05 91.09 214.37 92.43 214.68 90.56 212.36 89.22 212.05 91.09"/><polygon class="b6fce083-5b8b-466c-95f7-b4eee3e8ec25" points="209.17 94.11 213.67 96.71 213.98 94.84 209.48 92.24 209.17 94.11"/><polygon class="b6fce083-5b8b-466c-95f7-b4eee3e8ec25" points="208.7 98.53 212.97 100.99 213.27 99.12 209.01 96.66 208.7 98.53"/><polygon class="e718f0ca-8ec6-431a-b71d-c08e43487563" points="192.34 89.08 190.52 88.03 190.83 86.16 192.64 87.2 192.34 89.08"/><polygon class="b6fce083-5b8b-466c-95f7-b4eee3e8ec25" points="197.72 92.19 193.64 89.83 193.95 87.96 198.03 90.31 197.72 92.19"/><polygon class="b6fce083-5b8b-466c-95f7-b4eee3e8ec25" points="159.69 75.02 151.16 70.09 151.47 68.22 160 73.14 159.69 75.02"/><polygon class="b6fce083-5b8b-466c-95f7-b4eee3e8ec25" points="164.06 77.55 160.99 75.77 161.3 73.9 164.37 75.67 164.06 77.55"/><polygon class="b6fce083-5b8b-466c-95f7-b4eee3e8ec25" points="167.45 79.5 165.37 78.3 165.68 76.42 167.76 77.63 167.45 79.5"/><polygon class="b6fce083-5b8b-466c-95f7-b4eee3e8ec25" points="155.11 77.06 150.46 74.37 150.77 72.5 155.41 75.18 155.11 77.06"/><polygon class="b6fce083-5b8b-466c-95f7-b4eee3e8ec25" points="162.1 81.1 156.41 77.81 156.72 75.94 162.41 79.22 162.1 81.1"/><polygon class="b6fce083-5b8b-466c-95f7-b4eee3e8ec25" points="165.49 83.06 163.41 81.85 163.72 79.98 165.8 81.18 165.49 83.06"/><polygon class="b6fce083-5b8b-466c-95f7-b4eee3e8ec25" points="168.72 84.92 166.63 83.71 166.94 81.84 169.03 83.05 168.72 84.92"/><polygon class="b6fce083-5b8b-466c-95f7-b4eee3e8ec25" points="153.12 80.59 149.75 78.65 150.06 76.78 153.43 78.72 153.12 80.59"/><polygon class="b6fce083-5b8b-466c-95f7-b4eee3e8ec25" points="155.57 82.01 154.42 81.35 154.73 79.47 155.88 80.14 155.57 82.01"/><polygon class="b6fce083-5b8b-466c-95f7-b4eee3e8ec25" points="158.96 83.97 156.87 82.76 157.18 80.89 159.27 82.09 158.96 83.97"/><polygon class="b6fce083-5b8b-466c-95f7-b4eee3e8ec25" points="161.46 90.1 149.05 82.93 149.36 81.06 161.77 88.23 161.46 90.1"/><polygon class="b6fce083-5b8b-466c-95f7-b4eee3e8ec25" points="165.83 92.63 162.76 90.85 163.07 88.98 166.14 90.75 165.83 92.63"/><polygon class="b6fce083-5b8b-466c-95f7-b4eee3e8ec25" points="151.71 89.16 148.35 87.21 148.66 85.34 152.02 87.28 151.71 89.16"/><polygon class="b6fce083-5b8b-466c-95f7-b4eee3e8ec25" points="159.6 93.71 153.01 89.91 153.32 88.03 159.91 91.84 159.6 93.71"/><polygon class="b6fce083-5b8b-466c-95f7-b4eee3e8ec25" points="162.99 95.67 160.9 94.46 161.21 92.59 163.3 93.8 162.99 95.67"/><polygon class="b6fce083-5b8b-466c-95f7-b4eee3e8ec25" points="154.52 95.47 147.64 91.49 147.95 89.62 154.83 93.59 154.52 95.47"/><polygon class="b6fce083-5b8b-466c-95f7-b4eee3e8ec25" points="160.8 99.09 155.82 96.22 156.13 94.34 161.11 97.22 160.8 99.09"/><polygon class="b6fce083-5b8b-466c-95f7-b4eee3e8ec25" points="165.47 101.79 162.1 99.84 162.41 97.97 165.77 99.91 165.47 101.79"/><polygon class="b6fce083-5b8b-466c-95f7-b4eee3e8ec25" points="149.26 97.11 146.94 95.77 147.25 93.9 149.57 95.24 149.26 97.11"/><polygon class="b6fce083-5b8b-466c-95f7-b4eee3e8ec25" points="153.64 99.64 150.56 97.87 150.87 95.99 153.94 97.77 153.64 99.64"/><polygon class="b6fce083-5b8b-466c-95f7-b4eee3e8ec25" points="159.89 103.25 154.94 100.39 155.25 98.52 160.19 101.38 159.89 103.25"/><polygon class="b6fce083-5b8b-466c-95f7-b4eee3e8ec25" points="153.35 104.16 146.24 100.05 146.54 98.18 153.66 102.29 153.35 104.16"/><polygon class="b6fce083-5b8b-466c-95f7-b4eee3e8ec25" points="161.32 108.77 154.66 104.92 154.96 103.04 161.63 106.89 161.32 108.77"/><polygon class="b6fce083-5b8b-466c-95f7-b4eee3e8ec25" points="164.71 110.72 162.63 109.52 162.94 107.65 165.02 108.85 164.71 110.72"/><polygon class="b6fce083-5b8b-466c-95f7-b4eee3e8ec25" points="167.97 112.6 165.88 111.4 166.19 109.53 168.27 110.73 167.97 112.6"/><polygon class="b6fce083-5b8b-466c-95f7-b4eee3e8ec25" points="149.79 106.8 145.53 104.33 145.84 102.46 150.1 104.92 149.79 106.8"/><polygon class="b6fce083-5b8b-466c-95f7-b4eee3e8ec25" points="173.26 82.86 179.17 86.27 179.48 84.4 173.57 80.98 173.26 82.86"/><polygon class="b6fce083-5b8b-466c-95f7-b4eee3e8ec25" points="173.82 87.87 178.47 90.55 178.78 88.68 174.13 85.99 173.82 87.87"/><polygon class="b6fce083-5b8b-466c-95f7-b4eee3e8ec25" points="174.4 92.89 177.77 94.83 178.07 92.96 174.71 91.02 174.4 92.89"/><polygon class="b6fce083-5b8b-466c-95f7-b4eee3e8ec25" points="172.17 96.29 177.06 99.11 177.37 97.24 172.48 94.41 172.17 96.29"/><polygon class="b6fce083-5b8b-466c-95f7-b4eee3e8ec25" points="173 101.45 176.36 103.39 176.67 101.52 173.3 99.58 173 101.45"/><polygon class="b6fce083-5b8b-466c-95f7-b4eee3e8ec25" points="171.39 105.21 175.65 107.67 175.96 105.8 171.7 103.33 171.39 105.21"/><polygon class="b6fce083-5b8b-466c-95f7-b4eee3e8ec25" points="172.63 110.61 174.95 111.95 175.26 110.08 172.94 108.73 172.63 110.61"/><polygon class="b6fce083-5b8b-466c-95f7-b4eee3e8ec25" points="169.74 113.63 174.25 116.23 174.55 114.36 170.05 111.76 169.74 113.63"/><polygon class="b6fce083-5b8b-466c-95f7-b4eee3e8ec25" points="169.28 118.05 173.54 120.51 173.85 118.64 169.59 116.17 169.28 118.05"/><polygon class="b6fce083-5b8b-466c-95f7-b4eee3e8ec25" points="152.91 108.59 151.1 107.55 151.41 105.67 153.22 106.72 152.91 108.59"/><polygon class="b6fce083-5b8b-466c-95f7-b4eee3e8ec25" points="158.3 111.7 154.21 109.35 154.52 107.47 158.6 109.83 158.3 111.7"/><polygon class="b6fce083-5b8b-466c-95f7-b4eee3e8ec25" points="192.78 94.05 184.25 89.12 184.56 87.25 193.08 92.17 192.78 94.05"/><polygon class="b6fce083-5b8b-466c-95f7-b4eee3e8ec25" points="197.15 96.57 194.08 94.8 194.39 92.92 197.46 94.7 197.15 96.57"/><polygon class="b6fce083-5b8b-466c-95f7-b4eee3e8ec25" points="200.54 98.53 198.45 97.33 198.76 95.45 200.85 96.66 200.54 98.53"/><polygon class="b6fce083-5b8b-466c-95f7-b4eee3e8ec25" points="188.19 96.08 183.54 93.4 183.85 91.53 188.5 94.21 188.19 96.08"/><polygon class="b6fce083-5b8b-466c-95f7-b4eee3e8ec25" points="195.19 100.13 189.49 96.84 189.8 94.96 195.5 98.25 195.19 100.13"/><polygon class="b6fce083-5b8b-466c-95f7-b4eee3e8ec25" points="198.58 102.08 196.49 100.88 196.8 99 198.88 100.21 198.58 102.08"/><polygon class="b6fce083-5b8b-466c-95f7-b4eee3e8ec25" points="201.8 103.95 199.72 102.74 200.02 100.87 202.11 102.07 201.8 103.95"/><polygon class="b6fce083-5b8b-466c-95f7-b4eee3e8ec25" points="186.2 99.62 182.84 97.68 183.15 95.81 186.51 97.75 186.2 99.62"/><polygon class="b6fce083-5b8b-466c-95f7-b4eee3e8ec25" points="188.65 101.04 187.5 100.38 187.81 98.5 188.96 99.17 188.65 101.04"/><polygon class="b6fce083-5b8b-466c-95f7-b4eee3e8ec25" points="192.04 103 189.96 101.79 190.26 99.92 192.35 101.12 192.04 103"/><polygon class="b6fce083-5b8b-466c-95f7-b4eee3e8ec25" points="194.54 109.13 182.13 101.96 182.44 100.09 194.85 107.25 194.54 109.13"/><polygon class="b6fce083-5b8b-466c-95f7-b4eee3e8ec25" points="198.92 111.65 195.85 109.88 196.16 108.01 199.23 109.78 198.92 111.65"/><polygon class="b6fce083-5b8b-466c-95f7-b4eee3e8ec25" points="184.79 108.18 181.43 106.24 181.74 104.37 185.1 106.31 184.79 108.18"/><polygon class="b6fce083-5b8b-466c-95f7-b4eee3e8ec25" points="192.68 112.74 186.09 108.93 186.4 107.06 192.99 110.87 192.68 112.74"/><polygon class="b6fce083-5b8b-466c-95f7-b4eee3e8ec25" points="196.07 114.7 193.99 113.49 194.29 111.62 196.38 112.82 196.07 114.7"/><polygon class="b6fce083-5b8b-466c-95f7-b4eee3e8ec25" points="187.6 114.49 180.73 110.52 181.03 108.65 187.91 112.62 187.6 114.49"/><polygon class="b6fce083-5b8b-466c-95f7-b4eee3e8ec25" points="193.88 118.12 188.91 115.25 189.22 113.37 194.19 116.25 193.88 118.12"/><polygon class="b6fce083-5b8b-466c-95f7-b4eee3e8ec25" points="198.55 120.81 195.19 118.87 195.49 117 198.86 118.94 198.55 120.81"/><polygon class="b6fce083-5b8b-466c-95f7-b4eee3e8ec25" points="182.35 116.14 180.02 114.8 180.33 112.93 182.65 114.27 182.35 116.14"/><polygon class="b6fce083-5b8b-466c-95f7-b4eee3e8ec25" points="186.72 118.67 183.65 116.89 183.96 115.02 187.03 116.79 186.72 118.67"/><polygon class="b6fce083-5b8b-466c-95f7-b4eee3e8ec25" points="192.97 122.28 188.02 119.42 188.33 117.55 193.28 120.4 192.97 122.28"/><polygon class="b6fce083-5b8b-466c-95f7-b4eee3e8ec25" points="186.44 123.19 179.32 119.08 179.63 117.21 186.74 121.32 186.44 123.19"/><polygon class="b6fce083-5b8b-466c-95f7-b4eee3e8ec25" points="194.41 127.79 187.74 123.94 188.05 122.07 194.72 125.92 194.41 127.79"/><polygon class="b6fce083-5b8b-466c-95f7-b4eee3e8ec25" points="197.8 129.75 195.71 128.55 196.02 126.67 198.1 127.88 197.8 129.75"/><polygon class="b6fce083-5b8b-466c-95f7-b4eee3e8ec25" points="201.05 131.63 198.96 130.43 199.27 128.55 201.36 129.76 201.05 131.63"/><polygon class="b6fce083-5b8b-466c-95f7-b4eee3e8ec25" points="182.88 125.82 178.61 123.36 178.92 121.49 183.19 123.95 182.88 125.82"/><polygon class="b6fce083-5b8b-466c-95f7-b4eee3e8ec25" points="206.34 101.88 212.26 105.3 212.57 103.42 206.65 100.01 206.34 101.88"/><polygon class="b6fce083-5b8b-466c-95f7-b4eee3e8ec25" points="206.91 106.89 211.55 109.58 211.86 107.7 207.22 105.02 206.91 106.89"/><polygon class="b6fce083-5b8b-466c-95f7-b4eee3e8ec25" points="207.49 111.92 210.85 113.86 211.16 111.98 207.8 110.04 207.49 111.92"/><polygon class="b6fce083-5b8b-466c-95f7-b4eee3e8ec25" points="205.25 115.31 210.15 118.14 210.45 116.27 205.56 113.44 205.25 115.31"/><polygon class="b6fce083-5b8b-466c-95f7-b4eee3e8ec25" points="206.08 120.48 209.44 122.42 209.75 120.55 206.39 118.6 206.08 120.48"/><polygon class="b6fce083-5b8b-466c-95f7-b4eee3e8ec25" points="204.47 124.23 208.74 126.7 209.05 124.82 204.78 122.36 204.47 124.23"/><polygon class="b6fce083-5b8b-466c-95f7-b4eee3e8ec25" points="205.71 129.64 208.03 130.98 208.34 129.1 206.02 127.76 205.71 129.64"/><polygon class="b6fce083-5b8b-466c-95f7-b4eee3e8ec25" points="202.83 132.66 207.33 135.26 207.64 133.38 203.13 130.78 202.83 132.66"/><polygon class="b6fce083-5b8b-466c-95f7-b4eee3e8ec25" points="202.36 137.07 206.63 139.54 206.93 137.66 202.67 135.2 202.36 137.07"/><polygon class="b6fce083-5b8b-466c-95f7-b4eee3e8ec25" points="186 127.62 184.18 126.58 184.49 124.7 186.3 125.75 186 127.62"/><polygon class="b6fce083-5b8b-466c-95f7-b4eee3e8ec25" points="191.38 130.73 187.3 128.38 187.61 126.5 191.69 128.86 191.38 130.73"/><polygon class="b6fce083-5b8b-466c-95f7-b4eee3e8ec25" points="236.59 75.93 228.06 71 228.37 69.13 236.9 74.05 236.59 75.93"/><polygon class="b6fce083-5b8b-466c-95f7-b4eee3e8ec25" points="240.96 78.45 237.89 76.68 238.2 74.81 241.27 76.58 240.96 78.45"/><polygon class="b6fce083-5b8b-466c-95f7-b4eee3e8ec25" points="244.35 80.41 242.27 79.2 242.57 77.33 244.66 78.54 244.35 80.41"/><polygon class="b6fce083-5b8b-466c-95f7-b4eee3e8ec25" points="232 77.96 227.36 75.28 227.67 73.41 232.31 76.09 232 77.96"/><polygon class="b6fce083-5b8b-466c-95f7-b4eee3e8ec25" points="239 82.01 233.31 78.72 233.62 76.84 239.31 80.13 239 82.01"/><polygon class="b6fce083-5b8b-466c-95f7-b4eee3e8ec25" points="242.39 83.96 240.31 82.76 240.61 80.89 242.7 82.09 242.39 83.96"/><polygon class="b6fce083-5b8b-466c-95f7-b4eee3e8ec25" points="245.62 85.83 243.53 84.62 243.84 82.75 245.93 83.95 245.62 85.83"/><polygon class="e718f0ca-8ec6-431a-b71d-c08e43487563" points="230.02 81.5 226.65 79.56 226.96 77.69 230.32 79.63 230.02 81.5"/><polygon class="e718f0ca-8ec6-431a-b71d-c08e43487563" points="232.47 82.92 231.32 82.25 231.63 80.38 232.78 81.05 232.47 82.92"/><polygon class="b6fce083-5b8b-466c-95f7-b4eee3e8ec25" points="235.86 84.88 233.77 83.67 234.08 81.8 236.17 83 235.86 84.88"/><polygon class="b6fce083-5b8b-466c-95f7-b4eee3e8ec25" points="238.36 91.01 225.95 83.84 226.26 81.97 238.67 89.13 238.36 91.01"/><polygon class="b6fce083-5b8b-466c-95f7-b4eee3e8ec25" points="242.73 93.53 239.66 91.76 239.97 89.89 243.04 91.66 242.73 93.53"/><polygon class="b6fce083-5b8b-466c-95f7-b4eee3e8ec25" points="228.61 90.06 225.25 88.12 225.56 86.25 228.92 88.19 228.61 90.06"/><polygon class="b6fce083-5b8b-466c-95f7-b4eee3e8ec25" points="236.5 94.62 229.91 90.81 230.22 88.94 236.81 92.75 236.5 94.62"/><polygon class="b6fce083-5b8b-466c-95f7-b4eee3e8ec25" points="239.89 96.58 237.8 95.37 238.11 93.5 240.2 94.7 239.89 96.58"/><polygon class="b6fce083-5b8b-466c-95f7-b4eee3e8ec25" points="231.42 96.37 224.54 92.4 224.85 90.53 231.73 94.5 231.42 96.37"/><polygon class="e718f0ca-8ec6-431a-b71d-c08e43487563" points="237.7 100 232.72 97.13 233.03 95.25 238.01 98.13 237.7 100"/><polygon class="b6fce083-5b8b-466c-95f7-b4eee3e8ec25" points="242.36 102.69 239 100.75 239.31 98.88 242.67 100.82 242.36 102.69"/><polygon class="b6fce083-5b8b-466c-95f7-b4eee3e8ec25" points="226.16 98.02 223.84 96.68 224.15 94.81 226.47 96.15 226.16 98.02"/><polygon class="b6fce083-5b8b-466c-95f7-b4eee3e8ec25" points="230.53 100.55 227.47 98.77 227.77 96.9 230.84 98.67 230.53 100.55"/><polygon class="b6fce083-5b8b-466c-95f7-b4eee3e8ec25" points="236.79 104.16 231.84 101.3 232.15 99.43 237.09 102.28 236.79 104.16"/><polygon class="b6fce083-5b8b-466c-95f7-b4eee3e8ec25" points="230.25 105.07 223.13 100.96 223.44 99.09 230.56 103.2 230.25 105.07"/><polygon class="b6fce083-5b8b-466c-95f7-b4eee3e8ec25" points="238.22 109.67 231.55 105.82 231.86 103.95 238.53 107.8 238.22 109.67"/><polygon class="e718f0ca-8ec6-431a-b71d-c08e43487563" points="241.61 111.63 239.53 110.43 239.83 108.55 241.92 109.76 241.61 111.63"/><polygon class="b6fce083-5b8b-466c-95f7-b4eee3e8ec25" points="244.87 113.51 242.78 112.31 243.09 110.43 245.17 111.64 244.87 113.51"/><polygon class="b6fce083-5b8b-466c-95f7-b4eee3e8ec25" points="226.69 107.7 222.43 105.24 222.74 103.37 227 105.83 226.69 107.7"/><polygon class="e718f0ca-8ec6-431a-b71d-c08e43487563" points="250.16 83.76 256.07 87.18 256.38 85.31 250.47 81.89 250.16 83.76"/><polygon class="b6fce083-5b8b-466c-95f7-b4eee3e8ec25" points="250.72 88.78 255.37 91.46 255.68 89.58 251.03 86.9 250.72 88.78"/><polygon class="b6fce083-5b8b-466c-95f7-b4eee3e8ec25" points="251.3 93.8 254.66 95.74 254.97 93.86 251.61 91.92 251.3 93.8"/><polygon class="b6fce083-5b8b-466c-95f7-b4eee3e8ec25" points="249.07 97.19 253.96 100.02 254.27 98.14 249.38 95.32 249.07 97.19"/><polygon class="b6fce083-5b8b-466c-95f7-b4eee3e8ec25" points="249.9 102.36 253.26 104.3 253.57 102.42 250.2 100.48 249.9 102.36"/><polygon class="b6fce083-5b8b-466c-95f7-b4eee3e8ec25" points="248.29 106.11 252.55 108.58 252.86 106.7 248.6 104.24 248.29 106.11"/><polygon class="b6fce083-5b8b-466c-95f7-b4eee3e8ec25" points="249.53 111.52 251.85 112.86 252.16 110.98 249.83 109.64 249.53 111.52"/><polygon class="b6fce083-5b8b-466c-95f7-b4eee3e8ec25" points="246.64 114.54 251.15 117.14 251.45 115.26 246.95 112.66 246.64 114.54"/><polygon class="b6fce083-5b8b-466c-95f7-b4eee3e8ec25" points="246.18 118.95 250.44 121.42 250.75 119.54 246.49 117.08 246.18 118.95"/><polygon class="b6fce083-5b8b-466c-95f7-b4eee3e8ec25" points="229.81 109.5 228 108.45 228.31 106.58 230.12 107.63 229.81 109.5"/><polygon class="b6fce083-5b8b-466c-95f7-b4eee3e8ec25" points="235.19 112.61 231.11 110.25 231.42 108.38 235.5 110.74 235.19 112.61"/><polygon class="b6fce083-5b8b-466c-95f7-b4eee3e8ec25" points="269.67 94.95 261.15 90.03 261.45 88.15 269.98 93.08 269.67 94.95"/><polygon class="b6fce083-5b8b-466c-95f7-b4eee3e8ec25" points="274.05 97.48 270.98 95.71 271.29 93.83 274.36 95.61 274.05 97.48"/><polygon class="e718f0ca-8ec6-431a-b71d-c08e43487563" points="277.44 99.44 275.35 98.23 275.66 96.36 277.75 97.56 277.44 99.44"/><polygon class="b6fce083-5b8b-466c-95f7-b4eee3e8ec25" points="265.09 96.99 260.44 94.31 260.75 92.43 265.4 95.12 265.09 96.99"/><polygon class="b6fce083-5b8b-466c-95f7-b4eee3e8ec25" points="272.09 101.03 266.39 97.74 266.7 95.87 272.39 99.16 272.09 101.03"/><polygon class="e718f0ca-8ec6-431a-b71d-c08e43487563" points="275.48 102.99 273.39 101.79 273.7 99.91 275.78 101.12 275.48 102.99"/><polygon class="b6fce083-5b8b-466c-95f7-b4eee3e8ec25" points="278.7 104.85 276.61 103.65 276.92 101.78 279.01 102.98 278.7 104.85"/><polygon class="b6fce083-5b8b-466c-95f7-b4eee3e8ec25" points="263.1 100.53 259.74 98.59 260.05 96.71 263.41 98.66 263.1 100.53"/><polygon class="b6fce083-5b8b-466c-95f7-b4eee3e8ec25" points="265.55 101.95 264.4 101.28 264.71 99.41 265.86 100.07 265.55 101.95"/><polygon class="b6fce083-5b8b-466c-95f7-b4eee3e8ec25" points="268.94 103.9 266.86 102.7 267.16 100.83 269.25 102.03 268.94 103.9"/><polygon class="b6fce083-5b8b-466c-95f7-b4eee3e8ec25" points="271.44 110.03 259.03 102.87 259.34 100.99 271.75 108.16 271.44 110.03"/><polygon class="b6fce083-5b8b-466c-95f7-b4eee3e8ec25" points="275.82 112.56 272.75 110.79 273.06 108.91 276.13 110.69 275.82 112.56"/><polygon class="b6fce083-5b8b-466c-95f7-b4eee3e8ec25" points="261.69 109.09 258.33 107.15 258.64 105.27 262 107.22 261.69 109.09"/><polygon class="b6fce083-5b8b-466c-95f7-b4eee3e8ec25" points="269.58 113.65 263 109.84 263.3 107.97 269.89 111.77 269.58 113.65"/><polygon class="b6fce083-5b8b-466c-95f7-b4eee3e8ec25" points="272.97 115.6 270.88 114.4 271.19 112.53 273.28 113.73 272.97 115.6"/><polygon class="e718f0ca-8ec6-431a-b71d-c08e43487563" points="264.5 115.4 257.63 111.43 257.93 109.55 264.81 113.53 264.5 115.4"/><polygon class="b6fce083-5b8b-466c-95f7-b4eee3e8ec25" points="270.78 119.03 265.81 116.15 266.12 114.28 271.09 117.15 270.78 119.03"/><polygon class="b6fce083-5b8b-466c-95f7-b4eee3e8ec25" points="275.45 121.72 272.08 119.78 272.39 117.91 275.76 119.85 275.45 121.72"/><polygon class="b6fce083-5b8b-466c-95f7-b4eee3e8ec25" points="259.25 117.05 256.92 115.71 257.23 113.83 259.55 115.17 259.25 117.05"/><polygon class="b6fce083-5b8b-466c-95f7-b4eee3e8ec25" points="263.62 119.58 260.55 117.8 260.86 115.93 263.93 117.7 263.62 119.58"/><polygon class="e718f0ca-8ec6-431a-b71d-c08e43487563" points="269.87 123.19 264.92 120.33 265.23 118.45 270.18 121.31 269.87 123.19"/><polygon class="b6fce083-5b8b-466c-95f7-b4eee3e8ec25" points="263.33 124.1 256.22 119.99 256.53 118.11 263.64 122.22 263.33 124.1"/><polygon class="b6fce083-5b8b-466c-95f7-b4eee3e8ec25" points="271.31 128.7 264.64 124.85 264.95 122.98 271.61 126.83 271.31 128.7"/><polygon class="b6fce083-5b8b-466c-95f7-b4eee3e8ec25" points="274.69 130.66 272.61 129.45 272.92 127.58 275 128.79 274.69 130.66"/><polygon class="b6fce083-5b8b-466c-95f7-b4eee3e8ec25" points="277.95 132.54 275.86 131.33 276.17 129.46 278.26 130.66 277.95 132.54"/><polygon class="b6fce083-5b8b-466c-95f7-b4eee3e8ec25" points="259.78 126.73 255.51 124.27 255.82 122.39 260.09 124.86 259.78 126.73"/><polygon class="e718f0ca-8ec6-431a-b71d-c08e43487563" points="283.24 102.79 289.16 106.21 289.46 104.33 283.55 100.92 283.24 102.79"/><polygon class="b6fce083-5b8b-466c-95f7-b4eee3e8ec25" points="283.81 107.8 288.45 110.49 288.76 108.61 284.11 105.93 283.81 107.8"/><polygon class="b6fce083-5b8b-466c-95f7-b4eee3e8ec25" points="284.39 112.82 287.75 114.77 288.06 112.89 284.69 110.95 284.39 112.82"/><polygon class="b6fce083-5b8b-466c-95f7-b4eee3e8ec25" points="282.15 116.22 287.05 119.05 287.35 117.17 282.46 114.35 282.15 116.22"/><polygon class="b6fce083-5b8b-466c-95f7-b4eee3e8ec25" points="282.98 121.38 286.34 123.33 286.65 121.45 283.29 119.51 282.98 121.38"/><polygon class="b6fce083-5b8b-466c-95f7-b4eee3e8ec25" points="281.37 125.14 285.64 127.61 285.94 125.73 281.68 123.27 281.37 125.14"/><polygon class="b6fce083-5b8b-466c-95f7-b4eee3e8ec25" points="282.61 130.54 284.93 131.88 285.24 130.01 282.92 128.67 282.61 130.54"/><polygon class="b6fce083-5b8b-466c-95f7-b4eee3e8ec25" points="279.73 133.56 284.23 136.16 284.54 134.29 280.04 131.69 279.73 133.56"/><polygon class="b6fce083-5b8b-466c-95f7-b4eee3e8ec25" points="279.26 137.98 283.52 140.44 283.83 138.57 279.57 136.11 279.26 137.98"/><polygon class="e718f0ca-8ec6-431a-b71d-c08e43487563" points="262.89 128.53 261.08 127.48 261.39 125.61 263.2 126.66 262.89 128.53"/><polygon class="b6fce083-5b8b-466c-95f7-b4eee3e8ec25" points="268.28 131.64 264.2 129.28 264.5 127.41 268.59 129.77 268.28 131.64"/><polygon class="b6fce083-5b8b-466c-95f7-b4eee3e8ec25" points="230.25 114.47 221.72 109.54 222.03 107.67 230.56 112.6 230.25 114.47"/><polygon class="b6fce083-5b8b-466c-95f7-b4eee3e8ec25" points="234.62 117 231.55 115.22 231.86 113.35 234.93 115.12 234.62 117"/><polygon class="b6fce083-5b8b-466c-95f7-b4eee3e8ec25" points="238.01 118.95 235.93 117.75 236.24 115.88 238.32 117.08 238.01 118.95"/><polygon class="b6fce083-5b8b-466c-95f7-b4eee3e8ec25" points="225.66 116.51 221.02 113.82 221.33 111.95 225.97 114.64 225.66 116.51"/><polygon class="b6fce083-5b8b-466c-95f7-b4eee3e8ec25" points="232.66 120.55 226.97 117.26 227.28 115.39 232.97 118.68 232.66 120.55"/><polygon class="b6fce083-5b8b-466c-95f7-b4eee3e8ec25" points="236.05 122.51 233.97 121.3 234.27 119.43 236.36 120.63 236.05 122.51"/><polygon class="b6fce083-5b8b-466c-95f7-b4eee3e8ec25" points="239.28 124.37 237.19 123.17 237.5 121.29 239.59 122.5 239.28 124.37"/><polygon class="b6fce083-5b8b-466c-95f7-b4eee3e8ec25" points="223.68 120.05 220.31 118.1 220.62 116.23 223.98 118.17 223.68 120.05"/><polygon class="b6fce083-5b8b-466c-95f7-b4eee3e8ec25" points="226.13 121.46 224.98 120.8 225.29 118.92 226.44 119.59 226.13 121.46"/><polygon class="b6fce083-5b8b-466c-95f7-b4eee3e8ec25" points="229.52 123.42 227.43 122.22 227.74 120.34 229.83 121.55 229.52 123.42"/><polygon class="b6fce083-5b8b-466c-95f7-b4eee3e8ec25" points="232.02 129.55 219.61 122.38 219.92 120.51 232.33 127.68 232.02 129.55"/><polygon class="b6fce083-5b8b-466c-95f7-b4eee3e8ec25" points="236.39 132.08 233.32 130.3 233.63 128.43 236.7 130.2 236.39 132.08"/><polygon class="b6fce083-5b8b-466c-95f7-b4eee3e8ec25" points="222.27 128.61 218.91 126.66 219.21 124.79 222.58 126.73 222.27 128.61"/><polygon class="b6fce083-5b8b-466c-95f7-b4eee3e8ec25" points="230.16 133.16 223.57 129.36 223.88 127.48 230.47 131.29 230.16 133.16"/><polygon class="b6fce083-5b8b-466c-95f7-b4eee3e8ec25" points="233.55 135.12 231.46 133.92 231.77 132.04 233.86 133.25 233.55 135.12"/><polygon class="b6fce083-5b8b-466c-95f7-b4eee3e8ec25" points="225.08 134.92 218.2 130.94 218.51 129.07 225.39 133.04 225.08 134.92"/><polygon class="b6fce083-5b8b-466c-95f7-b4eee3e8ec25" points="231.36 138.54 226.38 135.67 226.69 133.8 231.67 136.67 231.36 138.54"/><polygon class="b6fce083-5b8b-466c-95f7-b4eee3e8ec25" points="236.02 141.24 232.66 139.29 232.97 137.42 236.33 139.36 236.02 141.24"/><polygon class="b6fce083-5b8b-466c-95f7-b4eee3e8ec25" points="219.82 136.57 217.5 135.22 217.81 133.35 220.13 134.69 219.82 136.57"/><polygon class="b6fce083-5b8b-466c-95f7-b4eee3e8ec25" points="224.19 139.09 221.12 137.32 221.43 135.44 224.5 137.22 224.19 139.09"/><polygon class="b6fce083-5b8b-466c-95f7-b4eee3e8ec25" points="230.44 142.7 225.5 139.84 225.81 137.97 230.75 140.83 230.44 142.7"/><polygon class="b6fce083-5b8b-466c-95f7-b4eee3e8ec25" points="223.91 143.61 216.79 139.5 217.1 137.63 224.22 141.74 223.91 143.61"/><polygon class="b6fce083-5b8b-466c-95f7-b4eee3e8ec25" points="231.88 148.22 225.21 144.37 225.52 142.49 232.19 146.34 231.88 148.22"/><polygon class="b6fce083-5b8b-466c-95f7-b4eee3e8ec25" points="235.27 150.18 233.19 148.97 233.49 147.1 235.58 148.3 235.27 150.18"/><polygon class="b6fce083-5b8b-466c-95f7-b4eee3e8ec25" points="238.53 152.05 236.44 150.85 236.75 148.98 238.83 150.18 238.53 152.05"/><polygon class="b6fce083-5b8b-466c-95f7-b4eee3e8ec25" points="220.35 146.25 216.09 143.78 216.4 141.91 220.66 144.37 220.35 146.25"/><polygon class="b6fce083-5b8b-466c-95f7-b4eee3e8ec25" points="243.82 122.31 249.73 125.72 250.04 123.85 244.13 120.43 243.82 122.31"/><polygon class="b6fce083-5b8b-466c-95f7-b4eee3e8ec25" points="244.38 127.32 249.03 130 249.34 128.13 244.69 125.44 244.38 127.32"/><polygon class="b6fce083-5b8b-466c-95f7-b4eee3e8ec25" points="244.96 132.34 248.32 134.28 248.63 132.41 245.27 130.47 244.96 132.34"/><polygon class="b6fce083-5b8b-466c-95f7-b4eee3e8ec25" points="242.73 135.74 247.62 138.56 247.93 136.69 243.04 133.86 242.73 135.74"/><polygon class="b6fce083-5b8b-466c-95f7-b4eee3e8ec25" points="243.56 140.9 246.92 142.84 247.22 140.97 243.86 139.03 243.56 140.9"/><polygon class="b6fce083-5b8b-466c-95f7-b4eee3e8ec25" points="241.95 144.66 246.21 147.12 246.52 145.25 242.26 142.79 241.95 144.66"/><polygon class="b6fce083-5b8b-466c-95f7-b4eee3e8ec25" points="243.19 150.06 245.51 151.4 245.82 149.53 243.49 148.19 243.19 150.06"/><polygon class="b6fce083-5b8b-466c-95f7-b4eee3e8ec25" points="240.3 153.08 244.81 155.68 245.11 153.81 240.61 151.21 240.3 153.08"/><polygon class="b6fce083-5b8b-466c-95f7-b4eee3e8ec25" points="239.84 157.5 244.1 159.96 244.41 158.09 240.15 155.63 239.84 157.5"/><polygon class="b6fce083-5b8b-466c-95f7-b4eee3e8ec25" points="223.47 148.05 221.66 147 221.97 145.13 223.78 146.17 223.47 148.05"/><polygon class="b6fce083-5b8b-466c-95f7-b4eee3e8ec25" points="228.85 151.16 224.77 148.8 225.08 146.93 229.16 149.28 228.85 151.16"/><polygon class="b6fce083-5b8b-466c-95f7-b4eee3e8ec25" points="263.33 133.5 254.81 128.57 255.11 126.7 263.64 131.62 263.33 133.5"/><polygon class="b6fce083-5b8b-466c-95f7-b4eee3e8ec25" points="267.71 136.02 264.64 134.25 264.94 132.38 268.01 134.15 267.71 136.02"/><polygon class="b6fce083-5b8b-466c-95f7-b4eee3e8ec25" points="271.1 137.98 269.01 136.78 269.32 134.9 271.4 136.11 271.1 137.98"/><polygon class="b6fce083-5b8b-466c-95f7-b4eee3e8ec25" points="258.75 135.53 254.1 132.85 254.41 130.98 259.06 133.66 258.75 135.53"/><polygon class="b6fce083-5b8b-466c-95f7-b4eee3e8ec25" points="265.75 139.58 260.05 136.29 260.36 134.41 266.05 137.7 265.75 139.58"/><polygon class="b6fce083-5b8b-466c-95f7-b4eee3e8ec25" points="269.13 141.53 267.05 140.33 267.36 138.46 269.44 139.66 269.13 141.53"/><polygon class="b6fce083-5b8b-466c-95f7-b4eee3e8ec25" points="272.36 143.4 270.27 142.19 270.58 140.32 272.67 141.52 272.36 143.4"/><polygon class="b6fce083-5b8b-466c-95f7-b4eee3e8ec25" points="256.76 139.07 253.4 137.13 253.71 135.26 257.07 137.2 256.76 139.07"/><polygon class="b6fce083-5b8b-466c-95f7-b4eee3e8ec25" points="259.21 140.49 258.06 139.83 258.37 137.95 259.52 138.62 259.21 140.49"/><polygon class="b6fce083-5b8b-466c-95f7-b4eee3e8ec25" points="262.6 142.45 260.51 141.24 260.82 139.37 262.91 140.57 262.6 142.45"/><polygon class="b6fce083-5b8b-466c-95f7-b4eee3e8ec25" points="265.1 148.58 252.69 141.41 253 139.54 265.41 146.71 265.1 148.58"/><polygon class="b6fce083-5b8b-466c-95f7-b4eee3e8ec25" points="269.48 151.1 266.41 149.33 266.71 147.46 269.79 149.23 269.48 151.1"/><polygon class="b6fce083-5b8b-466c-95f7-b4eee3e8ec25" points="255.35 147.63 251.99 145.69 252.3 143.82 255.66 145.76 255.35 147.63"/><polygon class="b6fce083-5b8b-466c-95f7-b4eee3e8ec25" points="263.24 152.19 256.65 148.39 256.96 146.51 263.55 150.32 263.24 152.19"/><polygon class="b6fce083-5b8b-466c-95f7-b4eee3e8ec25" points="266.63 154.15 264.55 152.94 264.85 151.07 266.94 152.27 266.63 154.15"/><polygon class="b6fce083-5b8b-466c-95f7-b4eee3e8ec25" points="258.16 153.94 251.28 149.97 251.59 148.1 258.47 152.07 258.16 153.94"/><polygon class="b6fce083-5b8b-466c-95f7-b4eee3e8ec25" points="264.44 157.57 259.47 154.7 259.77 152.82 264.75 155.7 264.44 157.57"/><polygon class="b6fce083-5b8b-466c-95f7-b4eee3e8ec25" points="269.11 160.26 265.75 158.32 266.05 156.45 269.42 158.39 269.11 160.26"/><polygon class="b6fce083-5b8b-466c-95f7-b4eee3e8ec25" points="252.91 155.59 250.58 154.25 250.89 152.38 253.21 153.72 252.91 155.59"/><polygon class="b6fce083-5b8b-466c-95f7-b4eee3e8ec25" points="257.28 158.12 254.21 156.34 254.52 154.47 257.59 156.25 257.28 158.12"/><polygon class="b6fce083-5b8b-466c-95f7-b4eee3e8ec25" points="263.53 161.73 258.58 158.87 258.89 157 263.84 159.85 263.53 161.73"/><polygon class="b6fce083-5b8b-466c-95f7-b4eee3e8ec25" points="256.99 162.64 249.88 158.53 250.19 156.66 257.3 160.77 256.99 162.64"/><polygon class="b6fce083-5b8b-466c-95f7-b4eee3e8ec25" points="264.97 167.25 258.3 163.39 258.61 161.52 265.27 165.37 264.97 167.25"/><polygon class="b6fce083-5b8b-466c-95f7-b4eee3e8ec25" points="268.36 169.2 266.27 168 266.58 166.12 268.66 167.33 268.36 169.2"/><polygon class="b6fce083-5b8b-466c-95f7-b4eee3e8ec25" points="271.61 171.08 269.52 169.88 269.83 168 271.92 169.21 271.61 171.08"/><polygon class="b6fce083-5b8b-466c-95f7-b4eee3e8ec25" points="253.44 165.27 249.17 162.81 249.48 160.94 253.75 163.4 253.44 165.27"/><polygon class="b6fce083-5b8b-466c-95f7-b4eee3e8ec25" points="276.9 141.33 282.82 144.75 283.13 142.88 277.21 139.46 276.9 141.33"/><polygon class="b6fce083-5b8b-466c-95f7-b4eee3e8ec25" points="277.47 146.35 282.11 149.03 282.42 147.16 277.77 144.47 277.47 146.35"/><polygon class="b6fce083-5b8b-466c-95f7-b4eee3e8ec25" points="278.05 151.37 281.41 153.31 281.72 151.44 278.36 149.49 278.05 151.37"/><polygon class="b6fce083-5b8b-466c-95f7-b4eee3e8ec25" points="275.81 154.76 280.7 157.59 281.01 155.72 276.12 152.89 275.81 154.76"/><polygon class="b6fce083-5b8b-466c-95f7-b4eee3e8ec25" points="276.64 159.93 280 161.87 280.31 160 276.95 158.05 276.64 159.93"/><polygon class="b6fce083-5b8b-466c-95f7-b4eee3e8ec25" points="275.03 163.69 279.3 166.15 279.61 164.28 275.34 161.81 275.03 163.69"/><polygon class="b6fce083-5b8b-466c-95f7-b4eee3e8ec25" points="276.27 169.09 278.59 170.43 278.9 168.56 276.58 167.21 276.27 169.09"/><polygon class="b6fce083-5b8b-466c-95f7-b4eee3e8ec25" points="273.39 172.11 277.89 174.71 278.2 172.84 273.69 170.24 273.39 172.11"/><polygon class="b6fce083-5b8b-466c-95f7-b4eee3e8ec25" points="272.92 176.53 277.18 178.99 277.49 177.12 273.23 174.65 272.92 176.53"/><polygon class="b6fce083-5b8b-466c-95f7-b4eee3e8ec25" points="256.55 167.07 254.74 166.03 255.05 164.15 256.86 165.2 256.55 167.07"/><polygon class="b6fce083-5b8b-466c-95f7-b4eee3e8ec25" points="261.94 170.18 257.86 167.83 258.17 165.95 262.25 168.31 261.94 170.18"/><path class="e718f0ca-8ec6-431a-b71d-c08e43487563" d="M189.55,210.82c-10.68,0-20.71-2.4-28.25-6.75h0c-7.67-4.43-11.89-10.35-11.89-16.68s4.22-12.26,11.89-16.68c15.58-9,40.92-9,56.5,0,7.66,4.43,11.89,10.36,11.89,16.69s-4.23,12.25-11.89,16.68S200.22,210.82,189.55,210.82Zm0-46.39c-10.15,0-20.29,2.23-28,6.69-7.52,4.34-11.66,10.11-11.66,16.27s4.14,11.93,11.66,16.27h0c7.46,4.31,17.41,6.68,28,6.68s20.54-2.37,28-6.68,11.65-10.12,11.65-16.27-4.14-11.93-11.65-16.27C209.84,166.66,199.69,164.43,189.55,164.43Z"/><g class="aeb0684e-e59d-4175-8e60-a078ee017788"><ellipse class="bdef851f-e5bb-4b57-98ac-0390f7a0f42c" cx="189.55" cy="187.39" rx="29.65" ry="17.12"/></g><path class="b0f27c79-18f6-4a82-920a-f14be7eab5c6" d="M153.24,174.48v-8.06H156a24.94,24.94,0,0,1,7.85-6.77c14.18-8.18,37.17-8.18,51.36,0a25.06,25.06,0,0,1,7.85,6.77h2.78v8.06h0c0,5.36-3.54,10.73-10.64,14.82-14.18,8.19-37.17,8.19-51.35,0C156.78,185.21,153.23,179.84,153.24,174.48Z"/><ellipse class="b8145844-1380-4338-91b4-98ea9c76cb8c" cx="189.55" cy="166.42" rx="36.31" ry="20.97"/><path class="bdef851f-e5bb-4b57-98ac-0390f7a0f42c" d="M156,166.11v-11h2.57a23,23,0,0,1,7.25-6.25c13.1-7.56,34.34-7.56,47.43,0a22.63,22.63,0,0,1,7.25,6.25h2.57v11h0c0,5-3.27,9.91-9.82,13.7-13.1,7.56-34.33,7.56-47.43,0C159.29,176,156,171.07,156,166.11Z"/><g class="fbfe238f-e6c1-4bf8-80cc-b48184e059cc"><path class="a0ef0e72-3a2b-4c52-aa0a-ac40debdbe03" d="M156,163.47v-11h2.57a23,23,0,0,1,7.25-6.25c13.1-7.56,34.34-7.56,47.43,0a22.88,22.88,0,0,1,7.25,6.25h2.57v11h0c0,4.95-3.27,9.91-9.82,13.69-13.1,7.56-34.33,7.56-47.43,0C159.29,173.38,156,168.42,156,163.47Z"/></g><ellipse class="b8145844-1380-4338-91b4-98ea9c76cb8c" cx="189.55" cy="155.12" rx="33.54" ry="19.36"/><g class="fbfe238f-e6c1-4bf8-80cc-b48184e059cc"><path class="bececdd8-64f1-4db7-8e3d-b9d6ffe22680" d="M166.44,169.37a41,41,0,0,0,19.8,13.36c-7.45-.42-14.7-2.28-20.41-5.57-6.54-3.78-9.82-8.74-9.82-13.69v-3.29A35.16,35.16,0,0,1,166.44,169.37Z"/></g><path class="b70ad58a-8b50-4e3b-ae70-555d1c89e260" d="M153.24,154.94v-8.05H156a24.82,24.82,0,0,1,7.85-6.77c14.18-8.19,37.17-8.19,51.36,0a24.8,24.8,0,0,1,7.85,6.77h2.78v8.05h0c0,5.37-3.54,10.73-10.64,14.83-14.18,8.18-37.17,8.18-51.35,0C156.78,165.67,153.23,160.31,153.24,154.94Z"/><ellipse class="b8145844-1380-4338-91b4-98ea9c76cb8c" cx="189.55" cy="146.89" rx="36.31" ry="20.97"/><path class="bdef851f-e5bb-4b57-98ac-0390f7a0f42c" d="M156,146.17v-11h2.57a23,23,0,0,1,7.25-6.25c13.1-7.56,34.34-7.56,47.43,0a22.88,22.88,0,0,1,7.25,6.25h2.57v11h0c0,5-3.27,9.91-9.82,13.69-13.1,7.56-34.33,7.56-47.43,0C159.29,156.08,156,151.13,156,146.17Z"/><g class="fbfe238f-e6c1-4bf8-80cc-b48184e059cc"><path class="a0ef0e72-3a2b-4c52-aa0a-ac40debdbe03" d="M156,143.66v-11h2.57a23,23,0,0,1,7.25-6.25c13.1-7.56,34.34-7.56,47.43,0a22.88,22.88,0,0,1,7.25,6.25h2.57v11h0c0,5-3.27,9.91-9.82,13.69-13.1,7.56-34.33,7.56-47.43,0C159.29,153.57,156,148.61,156,143.66Z"/></g><ellipse class="b8145844-1380-4338-91b4-98ea9c76cb8c" cx="189.55" cy="135.17" rx="33.54" ry="19.36"/><g class="fbfe238f-e6c1-4bf8-80cc-b48184e059cc"><path class="bececdd8-64f1-4db7-8e3d-b9d6ffe22680" d="M166.44,148.39c7.17,9.13,17.18,13,24.24,14.6-9,.17-18-1.7-24.85-5.64-6.54-3.78-9.82-8.74-9.82-13.69v-4.45A35,35,0,0,1,166.44,148.39Z"/></g><path class="b295304f-c52c-442d-b603-d39a3893cf5c" d="M153.24,135v-8.06H156a24.94,24.94,0,0,1,7.85-6.77c14.18-8.18,37.17-8.18,51.36,0a25.06,25.06,0,0,1,7.85,6.77h2.78V135h0c0,5.36-3.54,10.73-10.64,14.82-14.18,8.19-37.17,8.19-51.35,0C156.78,145.73,153.23,140.36,153.24,135Z"/><ellipse class="b8145844-1380-4338-91b4-98ea9c76cb8c" cx="189.55" cy="126.94" rx="36.31" ry="20.97"/><path class="bdef851f-e5bb-4b57-98ac-0390f7a0f42c" d="M156,126.23v-11h2.57a23,23,0,0,1,7.25-6.25c13.1-7.56,34.34-7.56,47.43,0a22.88,22.88,0,0,1,7.25,6.25h2.57v11h0c0,5-3.27,9.91-9.82,13.69-13.1,7.56-34.33,7.56-47.43,0C159.29,136.14,156,131.18,156,126.23Z"/><g class="fbfe238f-e6c1-4bf8-80cc-b48184e059cc"><path class="a0ef0e72-3a2b-4c52-aa0a-ac40debdbe03" d="M156,123.15v-11h2.57a23,23,0,0,1,7.25-6.25c13.1-7.56,34.34-7.56,47.43,0a22.88,22.88,0,0,1,7.25,6.25h2.57v11h0c0,5-3.27,9.91-9.82,13.69-13.1,7.56-34.33,7.56-47.43,0C159.29,133.06,156,128.11,156,123.15Z"/></g><ellipse class="b8145844-1380-4338-91b4-98ea9c76cb8c" cx="189.55" cy="115.23" rx="33.54" ry="19.36"/><path class="bc45247e-4f4e-4647-babc-42a0b4f72204" d="M153.24,115.06V107H156a24.82,24.82,0,0,1,7.85-6.77c14.18-8.19,37.17-8.19,51.36,0a24.93,24.93,0,0,1,7.85,6.77h2.78v8.06h0c0,5.36-3.54,10.73-10.64,14.82-14.18,8.19-37.17,8.19-51.35,0C156.78,125.79,153.23,120.42,153.24,115.06Z"/><ellipse class="b8145844-1380-4338-91b4-98ea9c76cb8c" cx="189.55" cy="107" rx="36.31" ry="20.97"/><ellipse class="b8145844-1380-4338-91b4-98ea9c76cb8c" cx="189.55" cy="107" rx="36.31" ry="20.97"/><g class="fbfe238f-e6c1-4bf8-80cc-b48184e059cc"><path class="bececdd8-64f1-4db7-8e3d-b9d6ffe22680" d="M166.44,127.41c7.88,10,19.17,13.68,26.23,15-9.59.51-19.49-1.35-26.84-5.59-6.54-3.78-9.82-8.73-9.82-13.69v-4.92A35.11,35.11,0,0,1,166.44,127.41Z"/></g><path class="bc45247e-4f4e-4647-babc-42a0b4f72204" d="M153.24,115.06V107H156a24.82,24.82,0,0,1,7.85-6.77c14.18-8.19,37.17-8.19,51.36,0a24.93,24.93,0,0,1,7.85,6.77h2.78v8.06h0c0,5.36-3.54,10.73-10.64,14.82-14.18,8.19-37.17,8.19-51.35,0C156.78,125.79,153.23,120.42,153.24,115.06Z"/><ellipse class="b8145844-1380-4338-91b4-98ea9c76cb8c" cx="189.55" cy="107" rx="36.31" ry="20.97"/><ellipse class="b8145844-1380-4338-91b4-98ea9c76cb8c" cx="189.55" cy="107" rx="36.31" ry="20.97"/><path class="ede098db-cfe2-40e5-b13a-0abd8b5e378e" d="M163.66,121.19c14.19,8.19,37.18,8.19,51.36,0,8.68-5,12-11.94,10.09-18.43,2.37,6.67-.92,13.89-9.89,19.06-14.18,8.19-37.17,8.19-51.35,0-5.5-3.17-8.85-7.11-10.09-11.22C155.16,114.48,158.45,118.18,163.66,121.19Z"/><path class="ede098db-cfe2-40e5-b13a-0abd8b5e378e" d="M163.66,141.13c14.19,8.19,37.18,8.19,51.36,0,8.68-5,12-11.93,10.09-18.43,2.37,6.68-.92,13.89-9.89,19.07-14.18,8.18-37.17,8.18-51.35,0-5.5-3.18-8.85-7.11-10.09-11.22C155.16,134.42,158.45,138.12,163.66,141.13Z"/><path class="ede098db-cfe2-40e5-b13a-0abd8b5e378e" d="M163.66,161.07c14.19,8.19,37.18,8.19,51.36,0,8.68-5,12-11.93,10.09-18.42,2.37,6.67-.92,13.88-9.89,19.06-14.18,8.19-37.17,8.19-51.35,0-5.5-3.17-8.85-7.11-10.09-11.22C155.16,154.37,158.45,158.06,163.66,161.07Z"/><path class="ede098db-cfe2-40e5-b13a-0abd8b5e378e" d="M163.66,181c14.19,8.18,37.18,8.18,51.36,0,8.68-5,12-11.94,10.09-18.43,2.37,6.67-.92,13.88-9.89,19.06-14.18,8.19-37.17,8.19-51.35,0-5.5-3.17-8.85-7.11-10.09-11.22C155.16,174.31,158.45,178,163.66,181Z"/><g class="bfa21d22-4171-4448-a84e-6729529e9385"><path class="a7faeeac-cf14-40fc-bd19-3b68de642ad6" d="M222.51,115.8h-33V96.36h31.3C226.92,102.31,227.47,109.61,222.51,115.8Z"/></g><path class="be603344-c6b3-4272-88bc-b57ede242436" d="M170.9,105V100.9h1.43a12.89,12.89,0,0,1,4-3.47c7.29-4.21,19.09-4.21,26.37,0a12.78,12.78,0,0,1,4,3.47h1.43V105h0c0,2.75-1.82,5.51-5.46,7.61-7.28,4.2-19.08,4.2-26.37,0C172.72,110.55,170.9,107.79,170.9,105Z"/><ellipse class="b8145844-1380-4338-91b4-98ea9c76cb8c" cx="189.55" cy="100.9" rx="18.64" ry="10.76"/><ellipse class="b6ea504b-1650-41e6-a678-f10314afc150" cx="189.55" cy="100.9" rx="18.64" ry="10.76"/><path class="bdef851f-e5bb-4b57-98ac-0390f7a0f42c" d="M180.67,106c4.9,2.83,12.85,2.83,17.75,0a7.77,7.77,0,0,0,3.16-3.06c1.27-2.47-1.9-4.26-5.27-6.2-4.9-2.83-8.38-3.53-13.28-.7-3.37,1.94-6.78,4.43-5.52,6.9A7.9,7.9,0,0,0,180.67,106Z"/><path class="aef4fa5d-c327-4c12-b660-a3b919620e6a" d="M198.42,99.91c-4.9-2.83-12.85-2.83-17.75,0a7.9,7.9,0,0,0-3.16,3.06c-1.26-2.47-.21-5.24,3.16-7.19,4.9-2.83,12.85-2.83,17.75,0,3.38,1.94,4.43,4.72,3.16,7.19A7.84,7.84,0,0,0,198.42,99.91Z"/><g class="fbfe238f-e6c1-4bf8-80cc-b48184e059cc"><path class="a933122f-e6bc-4ced-8d22-a8bea93458cb" d="M169.11,137.6c2.44,1,4.27.7,4.08-.59s-2.33-3.1-4.78-4.07-4.27-.7-4.08.59S166.66,136.63,169.11,137.6Z"/></g><g class="fbfe238f-e6c1-4bf8-80cc-b48184e059cc"><path class="a933122f-e6bc-4ced-8d22-a8bea93458cb" d="M169.11,157.82c2.44,1,4.27.71,4.08-.58s-2.33-3.11-4.78-4.07-4.27-.7-4.08.58S166.66,156.86,169.11,157.82Z"/></g><g class="fbfe238f-e6c1-4bf8-80cc-b48184e059cc"><path class="a933122f-e6bc-4ced-8d22-a8bea93458cb" d="M169,178.19c2.45,1,4.28.7,4.08-.59s-2.33-3.1-4.77-4.07-4.28-.7-4.08.58S166.53,177.22,169,178.19Z"/></g><g class="fbfe238f-e6c1-4bf8-80cc-b48184e059cc"><path class="a933122f-e6bc-4ced-8d22-a8bea93458cb" d="M162.14,132.52a1,1,0,1,0-.48-1.54A1.16,1.16,0,0,0,162.14,132.52Z"/></g><g class="fbfe238f-e6c1-4bf8-80cc-b48184e059cc"><path class="a933122f-e6bc-4ced-8d22-a8bea93458cb" d="M162.14,152.84a1,1,0,1,0-.48-1.54A1.16,1.16,0,0,0,162.14,152.84Z"/></g><g class="fbfe238f-e6c1-4bf8-80cc-b48184e059cc"><path class="a933122f-e6bc-4ced-8d22-a8bea93458cb" d="M162.14,173.09a1,1,0,1,0-.48-1.54A1.16,1.16,0,0,0,162.14,173.09Z"/></g><path class="e718f0ca-8ec6-431a-b71d-c08e43487563" d="M167.49,230.53a3.34,3.34,0,0,1-1.62-.38h0L86.43,184.28a1.24,1.24,0,0,1-.71-1.07,1.66,1.66,0,0,1,1-1.33l16.51-9.53a4,4,0,0,1,3.68-.14l79.44,45.86a1.27,1.27,0,0,1,.72,1.07,1.67,1.67,0,0,1-1,1.33L169.55,230A4.13,4.13,0,0,1,167.49,230.53Zm-1.38-.8a3.58,3.58,0,0,0,3.21-.14l16.51-9.53c.46-.27.72-.6.72-.92a.84.84,0,0,0-.48-.66l-79.44-45.86a3.59,3.59,0,0,0-3.2.14l-16.51,9.53c-.46.27-.72.6-.72.92a.81.81,0,0,0,.47.66Z"/><path class="b688f4b9-7808-4c87-8e87-3ebeb4799e9e" d="M118.46,145.35a23.37,23.37,0,0,1,5.82,4.91c2.44-7.84,9.88-10.27,18.69-5.19,7.28,4.21,13.63,12.48,17,21.25a7.87,7.87,0,0,1,3.67,1.16c4.75,2.74,8.6,9.42,8.6,14.91,0,.11,0,.22,0,.34a10.35,10.35,0,0,1,4.43,1.48c6.08,3.51,11,12,11,19.07s-4.93,9.87-11,6.36L118.46,176c-7.34-4.24-13.29-14.54-13.29-23S111.12,141.11,118.46,145.35Z"/><path class="b5cb4fd3-ee9c-455b-957a-7880a1543b9c" d="M118.46,145.35a21.36,21.36,0,0,1,3.49,2.56l6.51-3.76h0c3.57-2.51,8.75-2.4,14.51.92,7.28,4.21,13.63,12.48,17,21.25a7.87,7.87,0,0,1,3.67,1.16c4.75,2.74,8.6,9.42,8.6,14.91,0,.11,0,.22,0,.34a10.35,10.35,0,0,1,4.43,1.48c6.08,3.51,11,12,11,19.07,0,3.48-1.21,5.93-3.17,7.09h0l-.05,0h0l-15.94,9.25L165,202.92,118.46,176c-7.34-4.24-13.29-14.54-13.29-23S111.12,141.11,118.46,145.35Z"/><path class="a75bb3c6-3b74-4bdb-acc6-5040759df4be" d="M92.84,153.84,109,144.46h0c2.41-1.43,5.76-1.25,9.47.89a21.36,21.36,0,0,1,3.49,2.56l6.51-3.76h0c3.57-2.51,8.75-2.4,14.51.92,7.28,4.21,13.63,12.48,17,21.25a7.87,7.87,0,0,1,3.67,1.16c4.75,2.74,8.6,9.42,8.6,14.91,0,.11,0,.22,0,.34a10.35,10.35,0,0,1,4.43,1.48c6.08,3.51,11,12,11,19.07,0,3.48-1.21,5.93-3.17,7.09h0l-.05,0h0l-15.94,9.25L165,202.92,118.46,176c-5.95-3.44-11-10.86-12.68-18.06Z"/><path class="e919e147-c761-47fd-85de-77fbaa977608" d="M102.47,154.63a23.77,23.77,0,0,1,5.82,4.91c2.44-7.84,9.88-10.27,18.69-5.18,7.28,4.2,13.63,12.47,17,21.24a7.87,7.87,0,0,1,3.67,1.16c4.75,2.74,8.6,9.42,8.6,14.91,0,.12,0,.22,0,.34a10.39,10.39,0,0,1,4.43,1.48c6.08,3.51,11,12,11,19.07s-4.93,9.87-11,6.36l-58.19-33.6c-7.34-4.24-13.29-14.54-13.29-23S95.13,150.39,102.47,154.63Z"/><path class="ede098db-cfe2-40e5-b13a-0abd8b5e378e" d="M108.29,159.54a23.77,23.77,0,0,0-5.82-4.91C98,152,94,152.32,91.6,154.88c2.35-3,6.51-3.42,11.25-.69a23.47,23.47,0,0,1,5.65,4.73C108.43,159.12,108.35,159.33,108.29,159.54Z"/><path class="ede098db-cfe2-40e5-b13a-0abd8b5e378e" d="M171.67,212.56c0-7-4.93-15.56-11-19.07a10.39,10.39,0,0,0-4.43-1.48c0-.12,0-.22,0-.34,0-5.49-3.85-12.17-8.6-14.91A7.87,7.87,0,0,0,144,175.6c-3.36-8.77-9.71-17-17-21.24-6.67-3.86-12.56-3.39-16.09.47,3.47-4.26,9.55-4.91,16.47-.91,7.28,4.2,13.63,12.48,17,21.24a8,8,0,0,1,3.67,1.16c4.75,2.75,8.6,9.42,8.6,14.91,0,.12,0,.23,0,.34a10.39,10.39,0,0,1,4.43,1.48c6.08,3.52,11,12,11,19.07a8.73,8.73,0,0,1-2.06,6.2A9.14,9.14,0,0,0,171.67,212.56Z"/></g></g></g></svg>