<svg xmlns="http://www.w3.org/2000/svg" viewBox="0 0 309.92 312.31"><defs><style>.ae153098-b7e2-4b28-981d-f9012dcefa77{fill:#c4d9e8;opacity:0.5;}.e0c3c8f6-c1f2-4b61-a46c-ce7b031cd5a6{fill:#173d7a;}.b8f468a3-8633-40cd-a124-02edae93c6f0{fill:#396caa;}.f53496d1-b3b5-4f85-b5bd-ae064a4d9798{fill:#274f89;}.ae5d067e-e293-495d-b5b2-5cd2e18e0dfb{fill:#d4ecff;}.ebfed3af-843c-42e0-add5-64005f20d4ef{fill:#fff;}.f5abf9e9-3d40-4c06-8dec-ea29d915708d{fill:#5793ce;}.aace1fef-ff01-4bec-93dc-bf931f03dcbd{fill:#983be9;}.e75e54c0-b437-40f7-930e-4fc62c55803e{fill:#b45ef4;}.fc91b325-c9dd-4bba-bb86-93308d174f71{fill:#c285f9;}.bcc7d28c-d7ac-46ca-b4ba-dc1d4bbf2230{fill:#8a2ae3;}.f9cb0fcc-1a11-4ef0-948c-b19aa8a77003{fill:#6614cf;}.efe7da93-68dd-4d92-b1ab-0243e1b4b695{fill:#ff2c9c;}.ff199af8-fa06-4c4e-9e2c-e4f2250d4096{fill:#721bd5;}.b77c1906-eb4c-49fc-a9d1-2bcb8fbe085c{fill:#7e23dc;}.f674197a-613c-46e1-a67a-aa551feca053{fill:#e8a200;}.b79513c8-d000-49c2-8f00-da9f65a3a643{fill:#fdd762;}.ac98c064-7e1a-4d2a-9d5f-1f77229be59e{fill:#ffc2b0;}.a0b9bc43-d5e4-4aa4-acff-d61fc2773511{fill:#ea9c92;}.a6bfee99-3969-458b-8ed2-aca15767ceb7{fill:#d8892b;}.aefa2bbd-5e4a-40f6-9ab1-15419bf261b1{fill:#d29fff;}</style></defs><g id="b7247727-3e3f-4c20-b440-9bd8b8dc5a88" data-name="Layer 2"><g id="a788e04a-ccd5-4a0c-8173-a2a290597ae6" data-name="—ÎÓÈ_1"><path class="ae153098-b7e2-4b28-981d-f9012dcefa77" d="M163.47,282.49l-110.82-64c-3.13-1.81-2.74-5,.88-7.06L129,167.89c3.62-2.09,9.09-2.31,12.23-.5l110.81,64c3.14,1.81,2.75,5-.87,7.06L175.7,282C172.08,284.07,166.6,284.3,163.47,282.49Z"/><path class="e0c3c8f6-c1f2-4b61-a46c-ce7b031cd5a6" d="M278,118l-110.82-64a4.43,4.43,0,0,0-3.75-.46h0l-.2.07-.05,0-4,1.53L162.76,57a1.46,1.46,0,0,1,0,.2l-18.05,82.16c-.9,4.11.91,8.91,4,10.72l108.15,62.45-.38,4.58,4.37-1.7a6.14,6.14,0,0,0,3.14-4.46l18-82.16C282.93,124.64,281.12,119.84,278,118Z"/><path class="b8f468a3-8633-40cd-a124-02edae93c6f0" d="M278,118l-110.82-64a4.43,4.43,0,0,0-3.75-.46h0l-.2.07-.05,0-4,1.53L162.76,57a1.46,1.46,0,0,1,0,.2l-11.89,54.15L205,153.55l76.45-31.11A8.65,8.65,0,0,0,278,118Z"/><path class="f53496d1-b3b5-4f85-b5bd-ae064a4d9798" d="M273.81,130.66l8.44-3.59a10.58,10.58,0,0,0-3.42-8.45l-13.35,5.62Z"/><path class="ae5d067e-e293-495d-b5b2-5cd2e18e0dfb" d="M252.62,216.63l-110.82-64c-3.13-1.81-4.94-6.61-4-10.72l18.05-82.16c.9-4.12,4.18-6,7.31-4.17l110.82,64c3.13,1.81,4.94,6.61,4,10.72l-18.05,82.17C259,216.58,255.75,218.44,252.62,216.63Z"/><path class="ebfed3af-843c-42e0-add5-64005f20d4ef" d="M250.22,210.52,146,150.38c-2.86-1.66-4.52-6-3.69-9.81l16.51-75.19c.83-3.76,3.83-5.47,6.7-3.81l104.22,60.14c2.87,1.66,4.52,6.05,3.69,9.81l-16.51,75.19C256.08,210.47,253.08,212.18,250.22,210.52Z"/><path class="ebfed3af-843c-42e0-add5-64005f20d4ef" d="M250.22,210.52,146,150.38c-2.86-1.66-4.52-6-3.69-9.81l16.51-75.19c.83-3.76,3.83-5.47,6.7-3.81l104.22,60.14c2.87,1.66,4.52,6.05,3.69,9.81l-16.51,75.19C256.08,210.47,253.08,212.18,250.22,210.52Z"/><path class="e0c3c8f6-c1f2-4b61-a46c-ce7b031cd5a6" d="M254.15,219.42l-15.15-2L141.22,161c-3.14-1.81-8.61-1.58-12.23.51l-69.29,40-9.16-1.21v5.2h0a3.56,3.56,0,0,0,2.1,3.21l110.82,64c3.13,1.81,8.61,1.58,12.23-.51l75.46-43.55c2-1.17,3.05-2.69,3-4.11h0Z"/><path class="b8f468a3-8633-40cd-a124-02edae93c6f0" d="M180.68,183.75l-7-4H97.35L59.7,201.46l-9.16-1.21v5.2h0a3.56,3.56,0,0,0,2.1,3.21l110.82,64a11.37,11.37,0,0,0,6.31,1.18Z"/><path class="f5abf9e9-3d40-4c06-8dec-ea29d915708d" d="M54.6,200.79l-4.06-.54v5.2h0a3.56,3.56,0,0,0,2.1,3.21l2,1.13Z"/><path class="f53496d1-b3b5-4f85-b5bd-ae064a4d9798" d="M164.58,273.16a14.19,14.19,0,0,0,10.4-.65V260.92h-10.4Z"/><path class="ae5d067e-e293-495d-b5b2-5cd2e18e0dfb" d="M163.47,267.45l-110.82-64c-3.13-1.81-2.74-5,.88-7.06L129,152.86c3.62-2.09,9.09-2.32,12.23-.51l110.81,64c3.14,1.81,2.75,5-.87,7.06L175.7,266.94C172.08,269,166.6,269.26,163.47,267.45Z"/><path class="ebfed3af-843c-42e0-add5-64005f20d4ef" d="M251.16,221.49,175.7,265c-3.62,2.09-9.1,2.32-12.23.51l-110.82-64a4.1,4.1,0,0,1-1.95-2.13c-.49,1.48.14,3,1.95,4l110.82,64c3.13,1.81,8.61,1.58,12.23-.51l75.46-43.55c2.43-1.4,3.4-3.29,2.82-4.93A5.86,5.86,0,0,1,251.16,221.49Z"/><path class="e0c3c8f6-c1f2-4b61-a46c-ce7b031cd5a6" d="M99.78,182.29l-5-2.9c-.4-.23-.35-.64.11-.9l5.92-3.42a1.75,1.75,0,0,1,1.57-.07l5,2.9c.41.23.36.64-.11.91l-5.92,3.41A1.75,1.75,0,0,1,99.78,182.29Z"/><path class="e0c3c8f6-c1f2-4b61-a46c-ce7b031cd5a6" d="M107.53,186.76l-5-2.9c-.4-.23-.35-.64.11-.9l5.92-3.42a1.75,1.75,0,0,1,1.57-.07l5,2.9c.4.23.35.64-.12.91l-5.91,3.41A1.75,1.75,0,0,1,107.53,186.76Z"/><path class="e0c3c8f6-c1f2-4b61-a46c-ce7b031cd5a6" d="M115.27,191.23l-5-2.9c-.4-.23-.35-.63.12-.9l5.92-3.42a1.75,1.75,0,0,1,1.57-.07l5,2.9c.4.23.35.64-.11.91l-5.92,3.41A1.75,1.75,0,0,1,115.27,191.23Z"/><path class="e0c3c8f6-c1f2-4b61-a46c-ce7b031cd5a6" d="M126,187.54l-5-2.9c-.4-.23-.35-.64.12-.91l5-2.86a1.77,1.77,0,0,1,1.58-.07l5,2.9c.4.23.35.63-.11.9l-5,2.87A1.75,1.75,0,0,1,126,187.54Z"/><path class="e0c3c8f6-c1f2-4b61-a46c-ce7b031cd5a6" d="M133.72,192l-5-2.9c-.41-.23-.36-.64.11-.9l5-2.87a1.75,1.75,0,0,1,1.57-.07l5,2.9c.41.23.35.64-.11.9l-5,2.87A1.75,1.75,0,0,1,133.72,192Z"/><path class="e0c3c8f6-c1f2-4b61-a46c-ce7b031cd5a6" d="M141.46,196.48l-5-2.9c-.4-.23-.35-.64.11-.9l5-2.87a1.75,1.75,0,0,1,1.57-.07l5,2.9c.4.23.35.64-.12.9l-5,2.87A1.75,1.75,0,0,1,141.46,196.48Z"/><path class="e0c3c8f6-c1f2-4b61-a46c-ce7b031cd5a6" d="M149.21,201l-5-2.9c-.4-.23-.35-.64.12-.9l5-2.87a1.75,1.75,0,0,1,1.57-.07l5,2.9c.4.23.35.64-.11.9l-5,2.87A1.75,1.75,0,0,1,149.21,201Z"/><path class="e0c3c8f6-c1f2-4b61-a46c-ce7b031cd5a6" d="M157,205.42l-5-2.9c-.41-.23-.36-.63.11-.9l5-2.87a1.75,1.75,0,0,1,1.57-.07l5,2.9c.4.23.35.64-.11.91l-5,2.86A1.75,1.75,0,0,1,157,205.42Z"/><path class="e0c3c8f6-c1f2-4b61-a46c-ce7b031cd5a6" d="M164.69,209.89l-5-2.9c-.4-.23-.35-.63.11-.9l5-2.87a1.75,1.75,0,0,1,1.57-.07l5,2.9c.4.23.35.64-.12.91l-5,2.86A1.75,1.75,0,0,1,164.69,209.89Z"/><path class="e0c3c8f6-c1f2-4b61-a46c-ce7b031cd5a6" d="M172.44,214.36l-5-2.9c-.4-.23-.35-.63.12-.9l5-2.87a1.75,1.75,0,0,1,1.57-.07l5,2.9c.4.23.35.64-.11.91l-5,2.86A1.75,1.75,0,0,1,172.44,214.36Z"/><path class="e0c3c8f6-c1f2-4b61-a46c-ce7b031cd5a6" d="M180.18,218.83l-5-2.89c-.41-.24-.36-.64.11-.91l5-2.87a1.71,1.71,0,0,1,1.57-.06l5,2.89c.4.23.35.64-.11.91l-5,2.87A1.78,1.78,0,0,1,180.18,218.83Z"/><path class="e0c3c8f6-c1f2-4b61-a46c-ce7b031cd5a6" d="M187.92,223.3l-5-2.89c-.4-.24-.35-.64.11-.91l5-2.87a1.71,1.71,0,0,1,1.57-.06l5,2.89c.41.23.36.64-.11.91l-5,2.87A1.78,1.78,0,0,1,187.92,223.3Z"/><path class="e0c3c8f6-c1f2-4b61-a46c-ce7b031cd5a6" d="M195.67,227.77l-5-2.89c-.4-.24-.35-.64.12-.91l5-2.87a1.72,1.72,0,0,1,1.57-.06l5,2.89c.4.23.35.64-.12.91l-5,2.87A1.78,1.78,0,0,1,195.67,227.77Z"/><path class="b8f468a3-8633-40cd-a124-02edae93c6f0" d="M137.39,185.42l-5-2.89c-.4-.24-.35-.64.12-.91l5-2.87a1.72,1.72,0,0,1,1.57-.06l5,2.89c.4.23.35.64-.11.91l-5,2.87A1.78,1.78,0,0,1,137.39,185.42Z"/><path class="b8f468a3-8633-40cd-a124-02edae93c6f0" d="M129.53,180.88l-5-2.89c-.4-.23-.35-.64.12-.91l5-2.87a1.77,1.77,0,0,1,1.58-.06l5,2.89c.4.24.35.64-.11.91l-5,2.87A1.72,1.72,0,0,1,129.53,180.88Z"/><path class="e0c3c8f6-c1f2-4b61-a46c-ce7b031cd5a6" d="M121.66,176.34l-10.8-6.24c-.4-.23-.35-.63.11-.9l5-2.87a1.75,1.75,0,0,1,1.57-.07l10.8,6.24c.4.23.35.64-.11.9l-5,2.87A1.75,1.75,0,0,1,121.66,176.34Z"/><path class="e0c3c8f6-c1f2-4b61-a46c-ce7b031cd5a6" d="M127.16,170.81l-8.76-5.06c-.41-.23-.36-.64.11-.91l5-2.86a1.75,1.75,0,0,1,1.57-.07l8.76,5.06c.4.23.35.64-.11.91l-5,2.87A1.78,1.78,0,0,1,127.16,170.81Z"/><path class="b8f468a3-8633-40cd-a124-02edae93c6f0" d="M145.13,189.89l-5-2.89c-.41-.24-.36-.64.11-.91l5-2.87a1.71,1.71,0,0,1,1.57-.06l5,2.89c.4.23.35.64-.11.91l-5,2.87A1.78,1.78,0,0,1,145.13,189.89Z"/><path class="e0c3c8f6-c1f2-4b61-a46c-ce7b031cd5a6" d="M152.87,194.36l-5-2.89c-.4-.24-.35-.64.11-.91l5-2.87a1.71,1.71,0,0,1,1.57-.06l5,2.89c.41.23.36.64-.11.91l-5,2.87A1.78,1.78,0,0,1,152.87,194.36Z"/><path class="e0c3c8f6-c1f2-4b61-a46c-ce7b031cd5a6" d="M160.62,198.83l-5-2.89c-.4-.24-.35-.64.12-.91l5-2.87a1.72,1.72,0,0,1,1.57-.06l5,2.89c.4.23.35.64-.11.91l-5,2.87A1.78,1.78,0,0,1,160.62,198.83Z"/><path class="e0c3c8f6-c1f2-4b61-a46c-ce7b031cd5a6" d="M168.36,203.3l-5-2.89c-.41-.24-.36-.64.11-.91l5-2.87a1.71,1.71,0,0,1,1.57-.06l5,2.89c.4.23.35.64-.11.91l-5,2.87A1.75,1.75,0,0,1,168.36,203.3Z"/><path class="e0c3c8f6-c1f2-4b61-a46c-ce7b031cd5a6" d="M176.1,207.77l-5-2.89c-.4-.23-.35-.64.11-.91l5-2.87a1.75,1.75,0,0,1,1.57-.06l5,2.89c.41.23.36.64-.11.91l-5,2.87A1.71,1.71,0,0,1,176.1,207.77Z"/><path class="e0c3c8f6-c1f2-4b61-a46c-ce7b031cd5a6" d="M183.85,212.24l-5-2.89c-.4-.23-.35-.64.11-.91l5-2.87a1.75,1.75,0,0,1,1.57-.06l5,2.89c.4.24.35.64-.12.91l-5,2.87A1.72,1.72,0,0,1,183.85,212.24Z"/><path class="e0c3c8f6-c1f2-4b61-a46c-ce7b031cd5a6" d="M191.59,216.71l-5-2.89c-.41-.23-.36-.64.11-.91l5-2.87a1.78,1.78,0,0,1,1.57-.06l5,2.89c.4.24.35.64-.11.91l-5,2.87A1.72,1.72,0,0,1,191.59,216.71Z"/><path class="e0c3c8f6-c1f2-4b61-a46c-ce7b031cd5a6" d="M199.33,221.18l-5-2.89c-.4-.23-.35-.64.11-.91l5-2.87a1.78,1.78,0,0,1,1.57-.06l5,2.89c.41.24.36.64-.11.91l-5,2.87A1.71,1.71,0,0,1,199.33,221.18Z"/><path class="e0c3c8f6-c1f2-4b61-a46c-ce7b031cd5a6" d="M207.08,225.65l-5-2.89c-.4-.23-.35-.64.11-.91l5-2.87a1.78,1.78,0,0,1,1.57-.06l5,2.89c.4.24.35.64-.12.91l-5,2.87A1.72,1.72,0,0,1,207.08,225.65Z"/><path class="e0c3c8f6-c1f2-4b61-a46c-ce7b031cd5a6" d="M220.84,233.6l-10.94-6.31c-.4-.24-.35-.64.11-.91l5-2.87a1.72,1.72,0,0,1,1.57-.06l10.94,6.31c.41.23.35.64-.11.91l-5,2.87A1.75,1.75,0,0,1,220.84,233.6Z"/><path class="e0c3c8f6-c1f2-4b61-a46c-ce7b031cd5a6" d="M235.92,224.9l-9.24-5.33c-.4-.23-.35-.64.11-.91l5-2.87a1.72,1.72,0,0,1,1.57-.06l9.24,5.33c.4.23.35.64-.12.91l-5,2.86A1.75,1.75,0,0,1,235.92,224.9Z"/><path class="e0c3c8f6-c1f2-4b61-a46c-ce7b031cd5a6" d="M158.69,189l-5-2.9c-.41-.23-.36-.64.11-.91l5-2.86a1.75,1.75,0,0,1,1.57-.07l5,2.9c.4.23.35.63-.11.9l-5,2.87A1.75,1.75,0,0,1,158.69,189Z"/><path class="e0c3c8f6-c1f2-4b61-a46c-ce7b031cd5a6" d="M150.75,184.43l-5-2.89c-.4-.23-.35-.64.11-.91l5-2.87a1.78,1.78,0,0,1,1.57-.06l5,2.89c.4.24.35.64-.12.91l-5,2.87A1.71,1.71,0,0,1,150.75,184.43Z"/><path class="b8f468a3-8633-40cd-a124-02edae93c6f0" d="M142.82,179.85l-5-2.89c-.4-.23-.35-.64.12-.91l5-2.87a1.71,1.71,0,0,1,1.57-.06l5,2.89c.4.23.35.64-.11.91l-5,2.87A1.75,1.75,0,0,1,142.82,179.85Z"/><path class="e0c3c8f6-c1f2-4b61-a46c-ce7b031cd5a6" d="M134.88,175.27l-5-2.89c-.4-.24-.35-.64.11-.91l5-2.87a1.71,1.71,0,0,1,1.57-.06l5,2.89c.41.23.36.64-.11.91l-5,2.87A1.78,1.78,0,0,1,134.88,175.27Z"/><path class="e0c3c8f6-c1f2-4b61-a46c-ce7b031cd5a6" d="M166.43,193.49l-5-2.9c-.4-.23-.35-.64.11-.91l5-2.86a1.75,1.75,0,0,1,1.57-.07l5,2.9c.41.23.36.63-.11.9l-5,2.87A1.75,1.75,0,0,1,166.43,193.49Z"/><path class="e0c3c8f6-c1f2-4b61-a46c-ce7b031cd5a6" d="M174.18,198l-5-2.9c-.4-.23-.35-.64.12-.9l5-2.87a1.75,1.75,0,0,1,1.57-.07l5,2.9c.4.23.35.64-.11.9l-5,2.87A1.75,1.75,0,0,1,174.18,198Z"/><path class="e0c3c8f6-c1f2-4b61-a46c-ce7b031cd5a6" d="M181.92,202.43l-5-2.9c-.41-.23-.36-.64.11-.9l5-2.87a1.75,1.75,0,0,1,1.57-.07l5,2.9c.4.23.35.64-.11.9l-5,2.87A1.75,1.75,0,0,1,181.92,202.43Z"/><path class="e0c3c8f6-c1f2-4b61-a46c-ce7b031cd5a6" d="M189.66,206.9l-5-2.9c-.4-.23-.35-.64.11-.9l5-2.87a1.75,1.75,0,0,1,1.57-.07l5,2.9c.41.23.36.64-.11.9l-5,2.87A1.75,1.75,0,0,1,189.66,206.9Z"/><path class="e0c3c8f6-c1f2-4b61-a46c-ce7b031cd5a6" d="M197.41,211.37l-5-2.9c-.4-.23-.35-.63.11-.9l5-2.87a1.75,1.75,0,0,1,1.57-.07l5,2.9c.4.23.35.64-.12.91l-5,2.86A1.75,1.75,0,0,1,197.41,211.37Z"/><path class="e0c3c8f6-c1f2-4b61-a46c-ce7b031cd5a6" d="M205.15,215.84l-5-2.9c-.4-.23-.35-.63.12-.9l5-2.87a1.75,1.75,0,0,1,1.57-.07l5,2.9c.4.23.35.64-.11.91l-5,2.86A1.75,1.75,0,0,1,205.15,215.84Z"/><path class="e0c3c8f6-c1f2-4b61-a46c-ce7b031cd5a6" d="M212.89,220.31l-5-2.9c-.4-.23-.35-.63.11-.9l5-2.87a1.75,1.75,0,0,1,1.57-.07l5,2.9c.41.23.36.64-.11.91l-5,2.86A1.75,1.75,0,0,1,212.89,220.31Z"/><path class="e0c3c8f6-c1f2-4b61-a46c-ce7b031cd5a6" d="M220.64,224.78l-5-2.89c-.4-.24-.35-.64.11-.91l5-2.87a1.72,1.72,0,0,1,1.57-.06l5,2.89c.4.23.35.64-.12.91l-5,2.86A1.75,1.75,0,0,1,220.64,224.78Z"/><path class="e0c3c8f6-c1f2-4b61-a46c-ce7b031cd5a6" d="M228.38,229.25l-5-2.89c-.4-.24-.35-.64.12-.91l5-2.87a1.71,1.71,0,0,1,1.57-.06l5,2.89c.4.23.35.64-.11.91l-5,2.87A1.78,1.78,0,0,1,228.38,229.25Z"/><path class="e0c3c8f6-c1f2-4b61-a46c-ce7b031cd5a6" d="M154.61,178l-5-2.9c-.4-.23-.35-.63.11-.9l5-2.87a1.75,1.75,0,0,1,1.57-.07l5,2.9c.41.23.36.64-.11.9l-5,2.87A1.75,1.75,0,0,1,154.61,178Z"/><path class="e0c3c8f6-c1f2-4b61-a46c-ce7b031cd5a6" d="M146.91,173.51l-5-2.89c-.4-.24-.35-.64.12-.91l5-2.87a1.74,1.74,0,0,1,1.58-.06l5,2.89c.4.23.35.64-.11.91l-5,2.87A1.78,1.78,0,0,1,146.91,173.51Z"/><path class="e0c3c8f6-c1f2-4b61-a46c-ce7b031cd5a6" d="M139.2,169.06l-5-2.89c-.4-.24-.35-.64.11-.91l5-2.87a1.72,1.72,0,0,1,1.57-.06l5,2.89c.41.23.36.64-.11.91l-5,2.87A1.74,1.74,0,0,1,139.2,169.06Z"/><path class="e0c3c8f6-c1f2-4b61-a46c-ce7b031cd5a6" d="M131.5,164.61l-5-2.89c-.4-.23-.35-.64.12-.91l5-2.87a1.78,1.78,0,0,1,1.57-.06l5,2.89c.4.24.35.64-.11.91l-5,2.87A1.72,1.72,0,0,1,131.5,164.61Z"/><path class="e0c3c8f6-c1f2-4b61-a46c-ce7b031cd5a6" d="M139.42,160l-5-2.9c-.41-.23-.35-.63.11-.9l1.64-1a1.75,1.75,0,0,1,1.57-.07l5,2.9c.4.23.35.64-.12.91L141,160A1.75,1.75,0,0,1,139.42,160Z"/><path class="e0c3c8f6-c1f2-4b61-a46c-ce7b031cd5a6" d="M149.48,165.84l-5-2.89c-.4-.23-.35-.64.11-.91l1.65-.95a1.78,1.78,0,0,1,1.57-.06l5,2.89c.4.24.35.64-.11.91l-1.64.95A1.72,1.72,0,0,1,149.48,165.84Z"/><path class="e0c3c8f6-c1f2-4b61-a46c-ce7b031cd5a6" d="M157.15,170.27l-5-2.89c-.4-.23-.35-.64.12-.91l1.64-.95a1.78,1.78,0,0,1,1.57-.06l5,2.89c.41.24.36.64-.11.91l-1.64,1A1.72,1.72,0,0,1,157.15,170.27Z"/><path class="e0c3c8f6-c1f2-4b61-a46c-ce7b031cd5a6" d="M164.82,174.7l-5-2.89c-.41-.23-.35-.64.11-.91l1.64-1a1.78,1.78,0,0,1,1.57-.06l5,2.89c.4.24.35.64-.12.91l-1.64.95A1.71,1.71,0,0,1,164.82,174.7Z"/><path class="e0c3c8f6-c1f2-4b61-a46c-ce7b031cd5a6" d="M172.49,179.13l-5-2.89c-.4-.23-.35-.64.11-.91l1.64-1a1.8,1.8,0,0,1,1.58-.06l5,2.89c.4.24.35.64-.11.91l-1.65.95A1.71,1.71,0,0,1,172.49,179.13Z"/><path class="e0c3c8f6-c1f2-4b61-a46c-ce7b031cd5a6" d="M215.33,203.86l-5-2.89c-.4-.23-.35-.64.12-.91l1.64-.95a1.78,1.78,0,0,1,1.57-.06l5,2.89c.41.24.36.64-.11.91l-1.64,1A1.72,1.72,0,0,1,215.33,203.86Z"/><path class="e0c3c8f6-c1f2-4b61-a46c-ce7b031cd5a6" d="M223,208.29l-5-2.89c-.41-.23-.36-.64.11-.91l1.64-1a1.78,1.78,0,0,1,1.57-.06l5,2.89c.4.24.35.64-.12.91l-1.64.95A1.71,1.71,0,0,1,223,208.29Z"/><path class="e0c3c8f6-c1f2-4b61-a46c-ce7b031cd5a6" d="M230.67,212.72l-5-2.89c-.4-.23-.35-.64.11-.91l1.64-.95a1.8,1.8,0,0,1,1.58-.06l5,2.89c.4.24.35.64-.11.91l-1.65.95A1.71,1.71,0,0,1,230.67,212.72Z"/><path class="e0c3c8f6-c1f2-4b61-a46c-ce7b031cd5a6" d="M238.35,217.15l-5-2.89c-.4-.23-.35-.64.11-.91l1.65-.95a1.78,1.78,0,0,1,1.57-.06l5,2.89c.4.24.35.64-.11.91l-1.64,1A1.72,1.72,0,0,1,238.35,217.15Z"/><path class="e0c3c8f6-c1f2-4b61-a46c-ce7b031cd5a6" d="M162.36,182.43l-5-2.9c-.4-.23-.35-.63.11-.9l5-2.87a1.75,1.75,0,0,1,1.57-.07l5,2.9c.4.23.35.64-.12.91l-5,2.86A1.75,1.75,0,0,1,162.36,182.43Z"/><path class="e0c3c8f6-c1f2-4b61-a46c-ce7b031cd5a6" d="M170.1,186.9l-5-2.9c-.41-.23-.36-.63.11-.9l5-2.87a1.75,1.75,0,0,1,1.57-.07l5,2.9c.4.23.35.64-.11.91l-5,2.86A1.75,1.75,0,0,1,170.1,186.9Z"/><path class="e0c3c8f6-c1f2-4b61-a46c-ce7b031cd5a6" d="M177.84,191.37l-5-2.89c-.4-.24-.35-.64.11-.91l5-2.87a1.75,1.75,0,0,1,1.57-.07l5,2.9c.41.23.36.64-.11.91l-5,2.86A1.75,1.75,0,0,1,177.84,191.37Z"/><path class="e0c3c8f6-c1f2-4b61-a46c-ce7b031cd5a6" d="M185.59,195.84l-5-2.89c-.4-.24-.35-.64.11-.91l5-2.87a1.72,1.72,0,0,1,1.57-.06l5,2.89c.4.23.35.64-.12.91l-5,2.87A1.78,1.78,0,0,1,185.59,195.84Z"/><path class="e0c3c8f6-c1f2-4b61-a46c-ce7b031cd5a6" d="M193.33,200.31l-5-2.89c-.4-.24-.35-.64.12-.91l5-2.87a1.71,1.71,0,0,1,1.57-.06l5,2.89c.4.23.35.64-.11.91l-5,2.87A1.78,1.78,0,0,1,193.33,200.31Z"/><path class="e0c3c8f6-c1f2-4b61-a46c-ce7b031cd5a6" d="M201.07,204.78l-5-2.89c-.4-.24-.35-.64.11-.91l5-2.87a1.71,1.71,0,0,1,1.57-.06l5,2.89c.41.23.36.64-.11.91l-5,2.87A1.78,1.78,0,0,1,201.07,204.78Z"/><path class="e0c3c8f6-c1f2-4b61-a46c-ce7b031cd5a6" d="M208.81,209.25l-5-2.89c-.4-.24-.35-.64.11-.91l5-2.87a1.72,1.72,0,0,1,1.57-.06l5,2.89c.4.23.35.64-.12.91l-5,2.87A1.77,1.77,0,0,1,208.81,209.25Z"/><path class="e0c3c8f6-c1f2-4b61-a46c-ce7b031cd5a6" d="M216.56,213.72l-5-2.89c-.4-.23-.35-.64.12-.91l5-2.87a1.77,1.77,0,0,1,1.58-.06l5,2.89c.4.23.35.64-.11.91l-5,2.87A1.75,1.75,0,0,1,216.56,213.72Z"/><path class="e0c3c8f6-c1f2-4b61-a46c-ce7b031cd5a6" d="M224.3,218.19l-5-2.89c-.41-.23-.35-.64.11-.91l5-2.87a1.75,1.75,0,0,1,1.57-.06l5,2.89c.41.24.35.64-.11.91l-5,2.87A1.71,1.71,0,0,1,224.3,218.19Z"/><path class="e0c3c8f6-c1f2-4b61-a46c-ce7b031cd5a6" d="M118.09,183l-14.77-8.52c-.4-.24-.35-.64.11-.91l5-2.87a1.72,1.72,0,0,1,1.57-.06l14.77,8.52c.4.23.35.64-.11.91l-5,2.87A1.78,1.78,0,0,1,118.09,183Z"/><path class="e0c3c8f6-c1f2-4b61-a46c-ce7b031cd5a6" d="M213.21,237.9l-14.76-8.52c-.41-.24-.36-.64.11-.91l5-2.87a1.71,1.71,0,0,1,1.57-.06l14.77,8.52c.4.23.35.64-.12.91l-5,2.87A1.74,1.74,0,0,1,213.21,237.9Z"/><path class="e0c3c8f6-c1f2-4b61-a46c-ce7b031cd5a6" d="M182.25,229.9l-5-2.9c-.4-.23-.35-.63.12-.9l5.91-3.42a1.74,1.74,0,0,1,1.58-.06l5,2.89c.4.23.35.64-.11.91l-5.92,3.41A1.75,1.75,0,0,1,182.25,229.9Z"/><path class="e0c3c8f6-c1f2-4b61-a46c-ce7b031cd5a6" d="M126,197.43l-8-4.63c-.4-.23-.35-.63.11-.9l5.92-3.42a1.71,1.71,0,0,1,1.57-.06l8,4.63c.4.23.35.63-.11.9l-5.92,3.42A1.72,1.72,0,0,1,126,197.43Z"/><path class="e0c3c8f6-c1f2-4b61-a46c-ce7b031cd5a6" d="M174.79,225.59l-8-4.63c-.4-.23-.35-.64.11-.9l5.92-3.42a1.75,1.75,0,0,1,1.57-.07l8,4.63c.4.24.35.64-.11.91l-5.92,3.42A1.78,1.78,0,0,1,174.79,225.59Z"/><path class="e0c3c8f6-c1f2-4b61-a46c-ce7b031cd5a6" d="M137.19,203.88l-8-4.63c-.4-.23-.35-.63.11-.9l5.92-3.42a1.72,1.72,0,0,1,1.57-.06l8,4.63c.4.23.35.63-.11.9l-5.92,3.42A1.72,1.72,0,0,1,137.19,203.88Z"/><path class="e0c3c8f6-c1f2-4b61-a46c-ce7b031cd5a6" d="M136.83,194.9,171.69,215a.48.48,0,0,1,0,.9l-6,3.48a1.72,1.72,0,0,1-1.56,0l-34.87-20.12Z"/><path class="e0c3c8f6-c1f2-4b61-a46c-ce7b031cd5a6" d="M203.89,238l5.58,3.23c.33.19.29.52-.09.74l-2.42,1.4a1.44,1.44,0,0,1-1.29,0l-5.58-3.22c-.33-.19-.29-.52.09-.74l2.42-1.4A1.44,1.44,0,0,1,203.89,238Z"/><path class="e0c3c8f6-c1f2-4b61-a46c-ce7b031cd5a6" d="M196.08,233.5l5.59,3.22c.33.19.28.52-.1.74l-2.42,1.4a1.42,1.42,0,0,1-1.28.06l-5.59-3.23c-.33-.19-.29-.52.09-.74l2.42-1.4A1.44,1.44,0,0,1,196.08,233.5Z"/><path class="e0c3c8f6-c1f2-4b61-a46c-ce7b031cd5a6" d="M188.34,229l5.58,3.22c.33.19.29.52-.09.74l-2.42,1.4a1.44,1.44,0,0,1-1.29.06l-5.58-3.23c-.33-.19-.29-.52.09-.74l2.42-1.4A1.44,1.44,0,0,1,188.34,229Z"/><path class="e0c3c8f6-c1f2-4b61-a46c-ce7b031cd5a6" d="M200.36,231l5.58,3.22c.33.19.29.53-.09.75l-2.42,1.39a1.44,1.44,0,0,1-1.29.06l-5.58-3.23c-.33-.19-.29-.52.09-.74l2.42-1.4A1.44,1.44,0,0,1,200.36,231Z"/><path class="ae5d067e-e293-495d-b5b2-5cd2e18e0dfb" d="M190.1,94l-7.41-4.27a2.14,2.14,0,0,1-.91-2.2h0a1,1,0,0,1,1.59-.76L190.78,91a2.12,2.12,0,0,1,.9,2.2h0A1,1,0,0,1,190.1,94Z"/><path class="ae5d067e-e293-495d-b5b2-5cd2e18e0dfb" d="M207.75,104.18l-10.93-6.3a2.12,2.12,0,0,1-.9-2.2h0a1,1,0,0,1,1.58-.76l10.93,6.31a2.12,2.12,0,0,1,.9,2.2h0A1,1,0,0,1,207.75,104.18Z"/><path class="ae5d067e-e293-495d-b5b2-5cd2e18e0dfb" d="M177.18,128.58l-7.41-4.28a2.1,2.1,0,0,1-.9-2.19h0a1,1,0,0,1,1.58-.76l7.41,4.28a2.11,2.11,0,0,1,.91,2.19h0A1,1,0,0,1,177.18,128.58Z"/><path class="ae5d067e-e293-495d-b5b2-5cd2e18e0dfb" d="M192.92,137.66,182,131.36a2.12,2.12,0,0,1-.9-2.2h0a1,1,0,0,1,1.58-.76l10.93,6.31a2.13,2.13,0,0,1,.9,2.2h0A1,1,0,0,1,192.92,137.66Z"/><path class="ae5d067e-e293-495d-b5b2-5cd2e18e0dfb" d="M168.24,88.38l-4.63-2.67a2.12,2.12,0,0,1-.9-2.2h0a1,1,0,0,1,1.58-.75l4.63,2.67a2.13,2.13,0,0,1,.91,2.19h0A1,1,0,0,1,168.24,88.38Z"/><path class="ae5d067e-e293-495d-b5b2-5cd2e18e0dfb" d="M182.51,103.62l-14.15-8.16a2.13,2.13,0,0,1-.9-2.2h0a1,1,0,0,1,1.58-.75l14.15,8.16a2.13,2.13,0,0,1,.9,2.2h0A1,1,0,0,1,182.51,103.62Z"/><path class="ae5d067e-e293-495d-b5b2-5cd2e18e0dfb" d="M170.14,110.5l-4.63-2.67a2.14,2.14,0,0,1-.91-2.2h0a1,1,0,0,1,1.59-.76l4.63,2.68a2.1,2.1,0,0,1,.9,2.19h0A1,1,0,0,1,170.14,110.5Z"/><path class="ae5d067e-e293-495d-b5b2-5cd2e18e0dfb" d="M195.3,153.05l-12.37-7.13a2.13,2.13,0,0,1-.9-2.2h0a1,1,0,0,1,1.58-.76L196,150.1a2.12,2.12,0,0,1,.9,2.2h0A1,1,0,0,1,195.3,153.05Z"/><path class="ae5d067e-e293-495d-b5b2-5cd2e18e0dfb" d="M165.62,121.91l-3-1.72a2.12,2.12,0,0,1-.9-2.19h0a1,1,0,0,1,1.59-.76l3,1.72a2.12,2.12,0,0,1,.9,2.19h0A1,1,0,0,1,165.62,121.91Z"/><path class="ae5d067e-e293-495d-b5b2-5cd2e18e0dfb" d="M163.49,134.69l-3.69-2.13a2.12,2.12,0,0,1-.9-2.2h0a1,1,0,0,1,1.58-.75l3.69,2.13a2.11,2.11,0,0,1,.9,2.19h0A1,1,0,0,1,163.49,134.69Z"/><path class="ae5d067e-e293-495d-b5b2-5cd2e18e0dfb" d="M177.84,143l-9.72-5.62a2.11,2.11,0,0,1-.91-2.19h0a1,1,0,0,1,1.59-.76l9.72,5.62a2.11,2.11,0,0,1,.91,2.19h0A1,1,0,0,1,177.84,143Z"/><path class="ae5d067e-e293-495d-b5b2-5cd2e18e0dfb" d="M165.37,142.78l-7-4a2.1,2.1,0,0,1-.9-2.19h0a1,1,0,0,1,1.58-.76l7,4A2.11,2.11,0,0,1,167,142h0A1,1,0,0,1,165.37,142.78Z"/><path class="ae5d067e-e293-495d-b5b2-5cd2e18e0dfb" d="M205.9,159.21l-4.49-2.59a2.13,2.13,0,0,1-.9-2.2h0a1,1,0,0,1,1.58-.76l4.5,2.6a2.12,2.12,0,0,1,.9,2.19h0A1,1,0,0,1,205.9,159.21Z"/><path class="ae5d067e-e293-495d-b5b2-5cd2e18e0dfb" d="M187.36,120.44,175,113.3a2.11,2.11,0,0,1-.9-2.19h0a1,1,0,0,1,1.58-.76L188,117.49a2.13,2.13,0,0,1,.9,2.19h0A1,1,0,0,1,187.36,120.44Z"/><path class="ae5d067e-e293-495d-b5b2-5cd2e18e0dfb" d="M188.48,114.08l-21.54-12.44a2.11,2.11,0,0,1-.91-2.19h0a1,1,0,0,1,1.59-.76l21.54,12.44a2.12,2.12,0,0,1,.91,2.2h0A1,1,0,0,1,188.48,114.08Z"/><path class="ae5d067e-e293-495d-b5b2-5cd2e18e0dfb" d="M176.44,121.15,164.08,114a2.12,2.12,0,0,1-.9-2.2h0a1,1,0,0,1,1.58-.75l12.37,7.14a2.12,2.12,0,0,1,.9,2.19h0A1,1,0,0,1,176.44,121.15Z"/><path class="ae5d067e-e293-495d-b5b2-5cd2e18e0dfb" d="M196.73,125.85l-4.49-2.59a2.11,2.11,0,0,1-.9-2.19h0a1,1,0,0,1,1.58-.76l4.49,2.59a2.12,2.12,0,0,1,.91,2.2h0A1,1,0,0,1,196.73,125.85Z"/><path class="ae5d067e-e293-495d-b5b2-5cd2e18e0dfb" d="M241.07,123.42l-26.6-15.35a2.12,2.12,0,0,1-.9-2.2h0a1,1,0,0,1,1.58-.76l26.6,15.36a2.12,2.12,0,0,1,.91,2.2h0A1,1,0,0,1,241.07,123.42Z"/><path class="ae5d067e-e293-495d-b5b2-5cd2e18e0dfb" d="M176.09,135l-14.86-8.58a2.12,2.12,0,0,1-.91-2.2h0a1,1,0,0,1,1.59-.76L176.77,132a2.12,2.12,0,0,1,.9,2.2h0A1,1,0,0,1,176.09,135Z"/><path class="ae5d067e-e293-495d-b5b2-5cd2e18e0dfb" d="M176,85.83,165,79.52a2.12,2.12,0,0,1-.91-2.19h0a1,1,0,0,1,1.59-.76l10.93,6.31a2.13,2.13,0,0,1,.9,2.2h0A1,1,0,0,1,176,85.83Z"/><path class="ae5d067e-e293-495d-b5b2-5cd2e18e0dfb" d="M163.42,148.66l-12.65-7.3a2.12,2.12,0,0,1-.91-2.2h0a1,1,0,0,1,1.59-.75l12.65,7.3a2.12,2.12,0,0,1,.9,2.2h0A1,1,0,0,1,163.42,148.66Z"/><path class="ae5d067e-e293-495d-b5b2-5cd2e18e0dfb" d="M249.06,175.33l-7.41-4.27a2.12,2.12,0,0,1-.91-2.2h0a1,1,0,0,1,1.59-.75l7.41,4.27a2.13,2.13,0,0,1,.9,2.2h0A1,1,0,0,1,249.06,175.33Z"/><path class="ae5d067e-e293-495d-b5b2-5cd2e18e0dfb" d="M254.38,150.38l-14.14-8.17a2.11,2.11,0,0,1-.91-2.19h0a1,1,0,0,1,1.59-.76l14.14,8.17a2.1,2.1,0,0,1,.9,2.19h0A1,1,0,0,1,254.38,150.38Z"/><path class="ae5d067e-e293-495d-b5b2-5cd2e18e0dfb" d="M242,157.25l-4.63-2.67a2.11,2.11,0,0,1-.9-2.19h0a1,1,0,0,1,1.58-.76l4.63,2.67a2.14,2.14,0,0,1,.91,2.2h0A1,1,0,0,1,242,157.25Z"/><path class="ae5d067e-e293-495d-b5b2-5cd2e18e0dfb" d="M237.5,168.66l-3-1.71a2.14,2.14,0,0,1-.91-2.2h0a1,1,0,0,1,1.59-.75l3,1.71a2.12,2.12,0,0,1,.9,2.2h0A1,1,0,0,1,237.5,168.66Z"/><path class="ae5d067e-e293-495d-b5b2-5cd2e18e0dfb" d="M259.23,167.19l-12.36-7.13a2.12,2.12,0,0,1-.91-2.2h0a1,1,0,0,1,1.59-.76l12.36,7.14a2.12,2.12,0,0,1,.9,2.2h0A1,1,0,0,1,259.23,167.19Z"/><path class="ae5d067e-e293-495d-b5b2-5cd2e18e0dfb" d="M260.36,160.84,238.81,148.4a2.12,2.12,0,0,1-.9-2.2h0a1,1,0,0,1,1.58-.75L261,157.89a2.1,2.1,0,0,1,.9,2.19h0A1,1,0,0,1,260.36,160.84Z"/><path class="ae5d067e-e293-495d-b5b2-5cd2e18e0dfb" d="M248.32,167.9,236,160.76a2.12,2.12,0,0,1-.9-2.19h0a1,1,0,0,1,1.59-.76L249,165a2.11,2.11,0,0,1,.9,2.19h0A1,1,0,0,1,248.32,167.9Z"/><path class="ae5d067e-e293-495d-b5b2-5cd2e18e0dfb" d="M248,181.71l-14.86-8.58a2.11,2.11,0,0,1-.9-2.19h0a1,1,0,0,1,1.58-.76l14.86,8.58a2.11,2.11,0,0,1,.91,2.19h0A1,1,0,0,1,248,181.71Z"/><polygon class="aace1fef-ff01-4bec-93dc-bf931f03dcbd" points="276.26 99.61 287.94 94.97 285.31 77.79 279.65 82.81 276.26 99.61"/><path class="e75e54c0-b437-40f7-930e-4fc62c55803e" d="M198.11,19.52,226.32,8.25l-5.2,11.27S206.06,23,206.06,23Z"/><path class="aace1fef-ff01-4bec-93dc-bf931f03dcbd" d="M286.58,66.26A12.45,12.45,0,0,0,282,64.69c1.56-10.38-2.93-21.34-11.54-26.31a18.78,18.78,0,0,0-8.06-2.54C265.78,23.26,260.57,9,250,2.82A19.56,19.56,0,0,0,233.13,1.2h0l-.26.1-.41.17-8.84,3.47,3.53,3c-4.78,1.5-8.91,5.37-11.1,11.08-4,10.54.11,23.35,9.23,28.62l54.2,45.69c6.85,4,11,2.31,14-5.61S293.43,70.22,286.58,66.26Z"/><path class="e75e54c0-b437-40f7-930e-4fc62c55803e" d="M218.52,14.41,248.93,2.26a19.45,19.45,0,0,0-15.8-1.06h0l-.26.1-.41.17-8.84,3.47,3.53,3A16.89,16.89,0,0,0,218.52,14.41Z"/><path class="e75e54c0-b437-40f7-930e-4fc62c55803e" d="M260.85,60l20.08-8a24.2,24.2,0,0,0-10.57-13.68,20.28,20.28,0,0,0-2-1L240.67,48.34Z"/><path class="fc91b325-c9dd-4bba-bb86-93308d174f71" d="M229.79,6.2l8.62,5,15-5.95A23.3,23.3,0,0,0,250,2.82,21.44,21.44,0,0,0,244.11.5Z"/><path class="fc91b325-c9dd-4bba-bb86-93308d174f71" d="M279.6,48.65,265.15,54.4l4.26,6,12.41-4.93A27.86,27.86,0,0,0,279.6,48.65Z"/><path class="bcc7d28c-d7ac-46ca-b4ba-dc1d4bbf2230" d="M276.92,70.06a12.51,12.51,0,0,0-4.57-1.57c1.55-10.38-3.05-21.41-11.66-26.38a18.08,18.08,0,0,0-7.95-2.47c3.38-12.58-1.83-26.89-12.45-33-11.42-6.6-24.77-1.25-29.81,12-.17.44-.32.89-.47,1.35-8.71-3.88-18.35.49-22.13,10.39-4,10.53.1,23.35,9.22,28.62L266,98.72c6.85,4,14.85.74,17.87-7.17S283.77,74,276.92,70.06Z"/><path class="f9cb0fcc-1a11-4ef0-948c-b19aa8a77003" d="M202.22,22a9.09,9.09,0,0,0-3.63.73c-2.73,1.2-5.1,4-6.48,7.6-3.54,9.26.24,21,8.25,25.62l68.87,39.79a7.22,7.22,0,0,0,6.15.87c1.74-.7,3.28-2.54,4.24-5,2.55-6.68-.18-15.15-6-18.49a9,9,0,0,0-3.27-1.15l-2.8-.37.36-2.4c1.43-9.58-3-19.68-10.51-24a14.43,14.43,0,0,0-6.34-2l-3.47-.23.78-2.91c3.1-11.54-1.9-24.86-11.38-30.34C232.62,7.07,228,6.56,224,8.17s-7.31,5.3-9.25,10.4c-.15.39-.29.79-.42,1.19l-1.86,5.7-5.4-2.4A11.87,11.87,0,0,0,202.22,22Z"/><path class="efe7da93-68dd-4d92-b1ab-0243e1b4b695" d="M237.19,58.43a2.48,2.48,0,0,0,1,3,1.7,1.7,0,0,0,2.48-1,2.51,2.51,0,0,0-1-3A1.7,1.7,0,0,0,237.19,58.43Z"/><path class="efe7da93-68dd-4d92-b1ab-0243e1b4b695" d="M231.64,55.22a2.51,2.51,0,0,0,1,3,1.71,1.71,0,0,0,2.49-1,2.5,2.5,0,0,0-1-3A1.7,1.7,0,0,0,231.64,55.22Z"/><path class="efe7da93-68dd-4d92-b1ab-0243e1b4b695" d="M226.09,52a2.51,2.51,0,0,0,1,3,1.7,1.7,0,0,0,2.48-1,2.51,2.51,0,0,0-1-3A1.71,1.71,0,0,0,226.09,52Z"/><path class="ae153098-b7e2-4b28-981d-f9012dcefa77" d="M89.37,158.25,64.85,144.1c-1.5-.87-1.31-2.39.42-3.39L89,127a6.53,6.53,0,0,1,5.87-.24L119.34,141c1.5.87,1.31,2.39-.42,3.39L95.24,158A6.53,6.53,0,0,1,89.37,158.25Z"/><path class="b8f468a3-8633-40cd-a124-02edae93c6f0" d="M127.47,130.17h0V119.58H103.72l-8.21-4.74a8.15,8.15,0,0,0-7.35.3l-7.67,4.42H56.72v10.89a2.14,2.14,0,0,0,1.26,2l30.7,17.73a8.17,8.17,0,0,0,7.36-.31l29.64-17.11C126.94,132,127.54,131.05,127.47,130.17Z"/><path class="b8f468a3-8633-40cd-a124-02edae93c6f0" d="M92.1,114.1a8.46,8.46,0,0,0-3.94,1l-7.67,4.42H56.72v10.89a2.14,2.14,0,0,0,1.26,2l30.7,17.73a6.72,6.72,0,0,0,3.42.73Z"/><path class="f5abf9e9-3d40-4c06-8dec-ea29d915708d" d="M59.41,119.54H56.72v10.89a2.14,2.14,0,0,0,1.26,2l1.43.83Z"/><path class="f5abf9e9-3d40-4c06-8dec-ea29d915708d" d="M89.16,150.36a8.31,8.31,0,0,0,5.87-.07V137.92H89.16Z"/><path class="ae5d067e-e293-495d-b5b2-5cd2e18e0dfb" d="M88.68,139.27,58,121.55c-1.88-1.09-1.65-3,.53-4.25l29.65-17.11a8.18,8.18,0,0,1,7.35-.31l30.7,17.73c1.88,1.09,1.65,3-.53,4.24L96,139A8.17,8.17,0,0,1,88.68,139.27Z"/><path class="f5abf9e9-3d40-4c06-8dec-ea29d915708d" d="M89.24,136.08,63.51,121.23c-1.58-.91-1.38-2.5.44-3.56l24.84-14.34a6.86,6.86,0,0,1,6.16-.26l25.73,14.86c1.58.91,1.38,2.5-.44,3.56L95.4,135.83A6.83,6.83,0,0,1,89.24,136.08Z"/><path class="ae5d067e-e293-495d-b5b2-5cd2e18e0dfb" d="M116.18,133a2.77,2.77,0,0,1-1.24,2.15c-.69.39-1.24.07-1.24-.72a2.74,2.74,0,0,1,1.24-2.15C115.62,131.86,116.18,132.18,116.18,133Z"/><path class="ae5d067e-e293-495d-b5b2-5cd2e18e0dfb" d="M120.17,130.66a2.75,2.75,0,0,1-1.24,2.15c-.69.4-1.24.08-1.24-.71a2.72,2.72,0,0,1,1.24-2.15C119.61,129.55,120.17,129.87,120.17,130.66Z"/><path class="ae5d067e-e293-495d-b5b2-5cd2e18e0dfb" d="M124.16,128.36a2.77,2.77,0,0,1-1.24,2.15c-.69.39-1.24.07-1.24-.72a2.74,2.74,0,0,1,1.24-2.15C123.6,127.25,124.16,127.57,124.16,128.36Z"/><path class="b8f468a3-8633-40cd-a124-02edae93c6f0" d="M127.47,113.24h0V102.65H103.72L95.51,97.9a8.18,8.18,0,0,0-7.35.3l-7.67,4.42H56.72v10.9a2.13,2.13,0,0,0,1.26,2l30.7,17.73a8.2,8.2,0,0,0,7.36-.3l29.64-17.12A2.9,2.9,0,0,0,127.47,113.24Z"/><path class="b8f468a3-8633-40cd-a124-02edae93c6f0" d="M92.1,97.17a8.46,8.46,0,0,0-3.94,1l-7.67,4.42H56.72v10.9a2.13,2.13,0,0,0,1.26,2l30.7,17.73a6.72,6.72,0,0,0,3.42.73Z"/><path class="f5abf9e9-3d40-4c06-8dec-ea29d915708d" d="M59.41,102.61H56.72v10.9a2.13,2.13,0,0,0,1.26,2l1.43.83Z"/><path class="f5abf9e9-3d40-4c06-8dec-ea29d915708d" d="M89.16,133.43a8.31,8.31,0,0,0,5.87-.07V121H89.16Z"/><path class="ae5d067e-e293-495d-b5b2-5cd2e18e0dfb" d="M88.68,122.35,58,104.62c-1.88-1.09-1.65-3,.53-4.24L88.16,83.26a8.15,8.15,0,0,1,7.35-.3l30.7,17.72c1.88,1.09,1.65,3-.53,4.24L96,122A8.2,8.2,0,0,1,88.68,122.35Z"/><path class="f5abf9e9-3d40-4c06-8dec-ea29d915708d" d="M89.24,119.15,63.51,104.3c-1.58-.91-1.38-2.5.44-3.56L88.79,86.4A6.83,6.83,0,0,1,95,86.15L120.68,101c1.58.91,1.38,2.5-.44,3.56L95.4,118.9A6.83,6.83,0,0,1,89.24,119.15Z"/><path class="ae5d067e-e293-495d-b5b2-5cd2e18e0dfb" d="M116.18,116a2.77,2.77,0,0,1-1.24,2.15c-.69.39-1.24.07-1.24-.72a2.74,2.74,0,0,1,1.24-2.15C115.62,114.93,116.18,115.25,116.18,116Z"/><path class="ae5d067e-e293-495d-b5b2-5cd2e18e0dfb" d="M120.17,113.74a2.73,2.73,0,0,1-1.24,2.14c-.69.4-1.24.08-1.24-.71a2.72,2.72,0,0,1,1.24-2.15C119.61,112.62,120.17,112.94,120.17,113.74Z"/><path class="ae5d067e-e293-495d-b5b2-5cd2e18e0dfb" d="M124.16,111.43a2.77,2.77,0,0,1-1.24,2.15c-.69.4-1.24.07-1.24-.72a2.71,2.71,0,0,1,1.24-2.14C123.6,110.32,124.16,110.64,124.16,111.43Z"/><path class="b8f468a3-8633-40cd-a124-02edae93c6f0" d="M127.47,96.31h0V85.72H103.72L95.51,81a8.18,8.18,0,0,0-7.35.3L80.49,85.7l-23.77,0v10.9a2.16,2.16,0,0,0,1.26,2l30.7,17.72A8.2,8.2,0,0,0,96,116l29.64-17.12A2.9,2.9,0,0,0,127.47,96.31Z"/><path class="b8f468a3-8633-40cd-a124-02edae93c6f0" d="M92.1,80.24a8.46,8.46,0,0,0-3.94,1L80.49,85.7l-23.77,0v10.9a2.16,2.16,0,0,0,1.26,2l30.7,17.72a6.72,6.72,0,0,0,3.42.73Z"/><path class="f5abf9e9-3d40-4c06-8dec-ea29d915708d" d="M59.41,85.68H56.72v10.9a2.16,2.16,0,0,0,1.26,2l1.43.82Z"/><path class="f5abf9e9-3d40-4c06-8dec-ea29d915708d" d="M89.16,116.5a8.36,8.36,0,0,0,5.87-.06V104.07H89.16Z"/><path class="ae5d067e-e293-495d-b5b2-5cd2e18e0dfb" d="M88.68,105.42,58,87.69c-1.88-1.09-1.65-3,.53-4.24L88.16,66.33a8.15,8.15,0,0,1,7.35-.3l30.7,17.72c1.88,1.09,1.65,3-.53,4.25L96,105.11A8.2,8.2,0,0,1,88.68,105.42Z"/><path class="ebfed3af-843c-42e0-add5-64005f20d4ef" d="M125.68,85.91,96,103a8.2,8.2,0,0,1-7.36.3L58,85.61a2.89,2.89,0,0,1-.94-.84c-.65,1-.35,2.17.94,2.92l30.7,17.73a8.2,8.2,0,0,0,7.36-.31L125.68,88c1.69-1,2.2-2.34,1.47-3.41A4.18,4.18,0,0,1,125.68,85.91Z"/><path class="ae5d067e-e293-495d-b5b2-5cd2e18e0dfb" d="M116.18,99.11a2.77,2.77,0,0,1-1.24,2.15c-.69.39-1.24.07-1.24-.72a2.74,2.74,0,0,1,1.24-2.15C115.62,98,116.18,98.32,116.18,99.11Z"/><path class="ae5d067e-e293-495d-b5b2-5cd2e18e0dfb" d="M120.17,96.81A2.73,2.73,0,0,1,118.93,99c-.69.4-1.24.08-1.24-.71a2.74,2.74,0,0,1,1.24-2.15C119.61,95.7,120.17,96,120.17,96.81Z"/><path class="ae5d067e-e293-495d-b5b2-5cd2e18e0dfb" d="M124.16,94.5a2.75,2.75,0,0,1-1.24,2.15c-.69.4-1.24.08-1.24-.71a2.71,2.71,0,0,1,1.24-2.15C123.6,93.39,124.16,93.71,124.16,94.5Z"/><path class="f5abf9e9-3d40-4c06-8dec-ea29d915708d" d="M90.5,94.43l-14.37-8.3c-.88-.51-.77-1.4.25-2l13.87-8A3.85,3.85,0,0,1,93.69,76l14.37,8.3c.88.51.77,1.4-.25,2l-13.87,8A3.82,3.82,0,0,1,90.5,94.43Z"/><path class="ae5d067e-e293-495d-b5b2-5cd2e18e0dfb" d="M91.87,87.48l-2-1.15c-.12-.07-.11-.19,0-.27L91.84,85a.54.54,0,0,1,.48,0l2,1.15c.13.07.11.19,0,.27l-1.92,1.11A.54.54,0,0,1,91.87,87.48Z"/><path class="b8f468a3-8633-40cd-a124-02edae93c6f0" d="M76.13,86.13l0,0,.21-.15,13.87-8a3.84,3.84,0,0,1,3.44-.14L108,86.13c.81-.58.85-1.37,0-1.84L93.69,76a3.85,3.85,0,0,0-3.44.15l-13.87,8C75.36,84.73,75.25,85.62,76.13,86.13Z"/><path class="ae153098-b7e2-4b28-981d-f9012dcefa77" d="M271.81,281l-24.52-14.15c-1.5-.87-1.31-2.39.42-3.39l23.68-13.67a6.53,6.53,0,0,1,5.87-.24l24.52,14.15c1.5.87,1.31,2.39-.42,3.39l-23.68,13.67A6.53,6.53,0,0,1,271.81,281Z"/><path class="ff199af8-fa06-4c4e-9e2c-e4f2250d4096" d="M309.91,252.93h0V242.34l-23.75,0L278,237.58a8.2,8.2,0,0,0-7.36.31l-7.66,4.42H239.16v10.89a2.14,2.14,0,0,0,1.26,2l30.7,17.73a8.17,8.17,0,0,0,7.36-.31l29.64-17.11C309.38,254.74,310,253.8,309.91,252.93Z"/><path class="aace1fef-ff01-4bec-93dc-bf931f03dcbd" d="M274.54,236.86a8.53,8.53,0,0,0-4,1l-7.66,4.42H239.16v10.89a2.14,2.14,0,0,0,1.26,2l30.7,17.73a6.72,6.72,0,0,0,3.42.73Z"/><path class="e75e54c0-b437-40f7-930e-4fc62c55803e" d="M241.85,242.3h-2.69v10.89a2.14,2.14,0,0,0,1.26,2l1.43.83Z"/><path class="b77c1906-eb4c-49fc-a9d1-2bcb8fbe085c" d="M271.6,273.12a8.31,8.31,0,0,0,5.87-.07V260.68H271.6Z"/><path class="bcc7d28c-d7ac-46ca-b4ba-dc1d4bbf2230" d="M271.12,262l-30.7-17.72c-1.88-1.09-1.65-3,.53-4.25L270.59,223a8.17,8.17,0,0,1,7.36-.31l30.7,17.73c1.88,1.09,1.65,3-.53,4.24l-29.64,17.12A8.2,8.2,0,0,1,271.12,262Z"/><path class="f9cb0fcc-1a11-4ef0-948c-b19aa8a77003" d="M271.68,258.84,246,244c-1.58-.91-1.38-2.51.44-3.56l24.84-14.34a6.86,6.86,0,0,1,6.16-.26l25.73,14.86c1.58.91,1.38,2.5-.44,3.55l-24.84,14.35A6.86,6.86,0,0,1,271.68,258.84Z"/><path class="efe7da93-68dd-4d92-b1ab-0243e1b4b695" d="M298.62,255.73a2.73,2.73,0,0,1-1.24,2.14c-.69.4-1.24.08-1.24-.71a2.74,2.74,0,0,1,1.24-2.15C298.06,254.62,298.62,254.94,298.62,255.73Z"/><path class="efe7da93-68dd-4d92-b1ab-0243e1b4b695" d="M302.61,253.42a2.75,2.75,0,0,1-1.24,2.15c-.69.4-1.24.08-1.24-.72a2.71,2.71,0,0,1,1.24-2.14C302.05,252.31,302.61,252.63,302.61,253.42Z"/><path class="efe7da93-68dd-4d92-b1ab-0243e1b4b695" d="M306.6,251.12a2.77,2.77,0,0,1-1.24,2.15c-.69.39-1.24.07-1.24-.72a2.74,2.74,0,0,1,1.24-2.15C306,250,306.6,250.33,306.6,251.12Z"/><path class="ff199af8-fa06-4c4e-9e2c-e4f2250d4096" d="M309.91,235.75h0V225.16l-23.75,0L278,220.4a8.2,8.2,0,0,0-7.36.31l-7.66,4.42H239.16V236a2.14,2.14,0,0,0,1.26,2l30.7,17.73a8.17,8.17,0,0,0,7.36-.31l29.64-17.11C309.38,237.56,310,236.62,309.91,235.75Z"/><path class="aace1fef-ff01-4bec-93dc-bf931f03dcbd" d="M274.54,219.68a8.53,8.53,0,0,0-4,1l-7.66,4.42H239.16V236a2.14,2.14,0,0,0,1.26,2l30.7,17.73a6.72,6.72,0,0,0,3.42.73Z"/><path class="e75e54c0-b437-40f7-930e-4fc62c55803e" d="M241.85,225.12h-2.69V236a2.14,2.14,0,0,0,1.26,2l1.43.83Z"/><path class="b77c1906-eb4c-49fc-a9d1-2bcb8fbe085c" d="M271.6,255.94a8.31,8.31,0,0,0,5.87-.07V243.5H271.6Z"/><path class="bcc7d28c-d7ac-46ca-b4ba-dc1d4bbf2230" d="M271.12,244.85l-30.7-17.72c-1.88-1.09-1.65-3,.53-4.25l29.64-17.11a8.17,8.17,0,0,1,7.36-.31l30.7,17.73c1.88,1.09,1.65,3-.53,4.24l-29.64,17.12A8.2,8.2,0,0,1,271.12,244.85Z"/><path class="f9cb0fcc-1a11-4ef0-948c-b19aa8a77003" d="M271.68,241.66,246,226.81c-1.58-.91-1.38-2.51.44-3.56l24.84-14.34a6.86,6.86,0,0,1,6.16-.26l25.73,14.86c1.58.91,1.38,2.5-.44,3.55l-24.84,14.35A6.86,6.86,0,0,1,271.68,241.66Z"/><path class="efe7da93-68dd-4d92-b1ab-0243e1b4b695" d="M298.62,238.55a2.73,2.73,0,0,1-1.24,2.14c-.69.4-1.24.08-1.24-.71a2.74,2.74,0,0,1,1.24-2.15C298.06,237.44,298.62,237.76,298.62,238.55Z"/><path class="efe7da93-68dd-4d92-b1ab-0243e1b4b695" d="M302.61,236.24a2.75,2.75,0,0,1-1.24,2.15c-.69.4-1.24.08-1.24-.72a2.71,2.71,0,0,1,1.24-2.14C302.05,235.13,302.61,235.45,302.61,236.24Z"/><path class="efe7da93-68dd-4d92-b1ab-0243e1b4b695" d="M306.6,233.94a2.77,2.77,0,0,1-1.24,2.15c-.69.39-1.24.07-1.24-.72a2.74,2.74,0,0,1,1.24-2.15C306,232.83,306.6,233.15,306.6,233.94Z"/><path class="ff199af8-fa06-4c4e-9e2c-e4f2250d4096" d="M309.91,218.57h0V208l-23.75,0L278,203.22a8.2,8.2,0,0,0-7.36.31L262.93,208H239.16v10.89a2.14,2.14,0,0,0,1.26,2l30.7,17.73a8.17,8.17,0,0,0,7.36-.31l29.64-17.11C309.38,220.38,310,219.44,309.91,218.57Z"/><path class="aace1fef-ff01-4bec-93dc-bf931f03dcbd" d="M274.54,202.5a8.53,8.53,0,0,0-4,1L262.93,208H239.16v10.89a2.14,2.14,0,0,0,1.26,2l30.7,17.73a6.72,6.72,0,0,0,3.42.73Z"/><path class="e75e54c0-b437-40f7-930e-4fc62c55803e" d="M241.85,207.94h-2.69v10.89a2.14,2.14,0,0,0,1.26,2l1.43.83Z"/><path class="b77c1906-eb4c-49fc-a9d1-2bcb8fbe085c" d="M271.6,238.76a8.31,8.31,0,0,0,5.87-.07V226.32H271.6Z"/><path class="bcc7d28c-d7ac-46ca-b4ba-dc1d4bbf2230" d="M271.12,227.67,240.42,210c-1.88-1.09-1.65-3,.53-4.25l29.64-17.11a8.17,8.17,0,0,1,7.36-.31L308.65,206c1.88,1.09,1.65,3-.53,4.24l-29.64,17.12A8.2,8.2,0,0,1,271.12,227.67Z"/><path class="e75e54c0-b437-40f7-930e-4fc62c55803e" d="M308.12,208.17l-29.64,17.11a8.17,8.17,0,0,1-7.36.31l-30.7-17.73a2.76,2.76,0,0,1-.94-.83c-.65,1-.35,2.17.94,2.92l30.7,17.72a8.2,8.2,0,0,0,7.36-.3l29.64-17.12c1.69-1,2.2-2.34,1.47-3.41A4.2,4.2,0,0,1,308.12,208.17Z"/><path class="efe7da93-68dd-4d92-b1ab-0243e1b4b695" d="M298.62,221.37a2.73,2.73,0,0,1-1.24,2.14c-.69.4-1.24.08-1.24-.71a2.74,2.74,0,0,1,1.24-2.15C298.06,220.26,298.62,220.58,298.62,221.37Z"/><path class="efe7da93-68dd-4d92-b1ab-0243e1b4b695" d="M302.61,219.06a2.75,2.75,0,0,1-1.24,2.15c-.69.4-1.24.08-1.24-.72a2.71,2.71,0,0,1,1.24-2.14C302.05,218,302.61,218.27,302.61,219.06Z"/><path class="efe7da93-68dd-4d92-b1ab-0243e1b4b695" d="M306.6,216.76a2.77,2.77,0,0,1-1.24,2.15c-.69.39-1.24.07-1.24-.72a2.74,2.74,0,0,1,1.24-2.15C306,215.65,306.6,216,306.6,216.76Z"/><path class="f9cb0fcc-1a11-4ef0-948c-b19aa8a77003" d="M272.94,217.15l-14.37-8.29c-.88-.51-.77-1.4.25-2l13.87-8a3.84,3.84,0,0,1,3.44-.14L290.5,207c.88.51.77,1.39-.25,2l-13.87,8A3.81,3.81,0,0,1,272.94,217.15Z"/><path class="efe7da93-68dd-4d92-b1ab-0243e1b4b695" d="M274.31,210.21l-2-1.15c-.13-.07-.11-.19,0-.27l1.92-1.11a.54.54,0,0,1,.48,0l2,1.15c.13.07.11.19,0,.27l-1.92,1.11A.54.54,0,0,1,274.31,210.21Z"/><path class="e75e54c0-b437-40f7-930e-4fc62c55803e" d="M258.57,208.86l0,0,.21-.14,13.87-8a3.81,3.81,0,0,1,3.44-.14l14.33,8.27c.81-.58.85-1.37,0-1.84l-14.37-8.3a3.84,3.84,0,0,0-3.44.14l-13.87,8C257.8,207.46,257.69,208.35,258.57,208.86Z"/><path class="f9cb0fcc-1a11-4ef0-948c-b19aa8a77003" d="M262,247.09l-12.43-7.17a3.33,3.33,0,0,1-1.39-2.66h0c0-1,.62-1.49,1.39-1L262,243.39a3.34,3.34,0,0,1,1.39,2.65h0C263.34,247.06,262.71,247.53,262,247.09Z"/><path class="e75e54c0-b437-40f7-930e-4fc62c55803e" d="M263.06,246.41l-12.43-7.18a3.31,3.31,0,0,1-1.39-2.65,2.14,2.14,0,0,1,.06-.46c-.66-.24-1.17.22-1.17,1.14a3.33,3.33,0,0,0,1.39,2.66L262,247.09a.82.82,0,0,0,1.33-.59Z"/><path class="ae153098-b7e2-4b28-981d-f9012dcefa77" d="M217.41,311.72,192.9,297.57c-1.51-.87-1.32-2.39.42-3.39L217,280.51a6.53,6.53,0,0,1,5.87-.24l24.52,14.15c1.5.87,1.31,2.39-.42,3.39l-23.68,13.67A6.53,6.53,0,0,1,217.41,311.72Z"/><path class="ff199af8-fa06-4c4e-9e2c-e4f2250d4096" d="M255.51,283.64h0V273.05H231.76l-8.21-4.74a8.15,8.15,0,0,0-7.35.3L208.54,273H184.76V283.9a2.14,2.14,0,0,0,1.26,2l30.71,17.73a8.15,8.15,0,0,0,7.35-.31l29.64-17.11C255,285.45,255.58,284.52,255.51,283.64Z"/><path class="aace1fef-ff01-4bec-93dc-bf931f03dcbd" d="M220.14,267.57a8.46,8.46,0,0,0-3.94,1L208.54,273H184.76V283.9a2.14,2.14,0,0,0,1.26,2l30.71,17.73a6.66,6.66,0,0,0,3.41.73Z"/><path class="e75e54c0-b437-40f7-930e-4fc62c55803e" d="M187.45,273h-2.69V283.9a2.14,2.14,0,0,0,1.26,2l1.43.83Z"/><path class="b77c1906-eb4c-49fc-a9d1-2bcb8fbe085c" d="M217.2,303.83a8.34,8.34,0,0,0,5.88-.07V291.39H217.2Z"/><path class="bcc7d28c-d7ac-46ca-b4ba-dc1d4bbf2230" d="M216.73,292.74,186,275c-1.88-1.09-1.64-3,.53-4.25l29.65-17.11a8.18,8.18,0,0,1,7.35-.31l30.7,17.73c1.88,1.09,1.65,3-.53,4.24l-29.64,17.12A8.15,8.15,0,0,1,216.73,292.74Z"/><path class="f9cb0fcc-1a11-4ef0-948c-b19aa8a77003" d="M217.28,289.55,191.55,274.7c-1.58-.91-1.38-2.5.44-3.56l24.84-14.34a6.88,6.88,0,0,1,6.17-.26l25.72,14.86c1.58.91,1.38,2.5-.44,3.56L223.44,289.3A6.83,6.83,0,0,1,217.28,289.55Z"/><path class="efe7da93-68dd-4d92-b1ab-0243e1b4b695" d="M244.22,286.44a2.77,2.77,0,0,1-1.24,2.15c-.69.39-1.24.07-1.24-.72a2.74,2.74,0,0,1,1.24-2.15C243.66,285.33,244.22,285.65,244.22,286.44Z"/><path class="efe7da93-68dd-4d92-b1ab-0243e1b4b695" d="M248.21,284.13a2.74,2.74,0,0,1-1.24,2.15c-.69.4-1.24.08-1.24-.71a2.72,2.72,0,0,1,1.24-2.15C247.65,283,248.21,283.34,248.21,284.13Z"/><path class="efe7da93-68dd-4d92-b1ab-0243e1b4b695" d="M252.2,281.83A2.77,2.77,0,0,1,251,284c-.69.39-1.24.07-1.24-.72a2.74,2.74,0,0,1,1.24-2.15C251.64,280.72,252.2,281,252.2,281.83Z"/><path class="ff199af8-fa06-4c4e-9e2c-e4f2250d4096" d="M255.51,266.46h0V255.87H231.76l-8.21-4.74a8.15,8.15,0,0,0-7.35.3l-7.66,4.42H184.76v10.89a2.14,2.14,0,0,0,1.26,2l30.71,17.73a8.15,8.15,0,0,0,7.35-.31L253.72,269C255,268.27,255.58,267.34,255.51,266.46Z"/><path class="aace1fef-ff01-4bec-93dc-bf931f03dcbd" d="M220.14,250.39a8.46,8.46,0,0,0-3.94,1l-7.66,4.42H184.76v10.89a2.14,2.14,0,0,0,1.26,2l30.71,17.73a6.66,6.66,0,0,0,3.41.73Z"/><path class="e75e54c0-b437-40f7-930e-4fc62c55803e" d="M187.45,255.83h-2.69v10.89a2.14,2.14,0,0,0,1.26,2l1.43.83Z"/><path class="b77c1906-eb4c-49fc-a9d1-2bcb8fbe085c" d="M217.2,286.65a8.34,8.34,0,0,0,5.88-.07V274.21H217.2Z"/><path class="bcc7d28c-d7ac-46ca-b4ba-dc1d4bbf2230" d="M216.73,275.56,186,257.84c-1.88-1.09-1.64-3,.53-4.25l29.65-17.11a8.18,8.18,0,0,1,7.35-.31l30.7,17.73c1.88,1.09,1.65,3-.53,4.24l-29.64,17.12A8.15,8.15,0,0,1,216.73,275.56Z"/><path class="f9cb0fcc-1a11-4ef0-948c-b19aa8a77003" d="M217.28,272.37l-25.73-14.85c-1.58-.91-1.38-2.5.44-3.56l24.84-14.34a6.88,6.88,0,0,1,6.17-.26l25.72,14.86c1.58.91,1.38,2.5-.44,3.56l-24.84,14.34A6.83,6.83,0,0,1,217.28,272.37Z"/><path class="efe7da93-68dd-4d92-b1ab-0243e1b4b695" d="M244.22,269.26a2.77,2.77,0,0,1-1.24,2.15c-.69.39-1.24.07-1.24-.72a2.74,2.74,0,0,1,1.24-2.15C243.66,268.15,244.22,268.47,244.22,269.26Z"/><path class="efe7da93-68dd-4d92-b1ab-0243e1b4b695" d="M248.21,267A2.75,2.75,0,0,1,247,269.1c-.69.4-1.24.08-1.24-.71a2.72,2.72,0,0,1,1.24-2.15C247.65,265.84,248.21,266.16,248.21,267Z"/><path class="efe7da93-68dd-4d92-b1ab-0243e1b4b695" d="M252.2,264.65A2.77,2.77,0,0,1,251,266.8c-.69.39-1.24.07-1.24-.72a2.74,2.74,0,0,1,1.24-2.15C251.64,263.54,252.2,263.86,252.2,264.65Z"/><path class="ff199af8-fa06-4c4e-9e2c-e4f2250d4096" d="M255.51,249.28h0V238.69H231.76l-8.21-4.74a8.15,8.15,0,0,0-7.35.3l-7.66,4.42H184.76v10.89a2.14,2.14,0,0,0,1.26,2l30.71,17.73a8.15,8.15,0,0,0,7.35-.31l29.64-17.11C255,251.09,255.58,250.16,255.51,249.28Z"/><path class="aace1fef-ff01-4bec-93dc-bf931f03dcbd" d="M220.14,233.21a8.46,8.46,0,0,0-3.94,1l-7.66,4.42H184.76v10.89a2.14,2.14,0,0,0,1.26,2l30.71,17.73a6.66,6.66,0,0,0,3.41.73Z"/><path class="e75e54c0-b437-40f7-930e-4fc62c55803e" d="M187.45,238.65h-2.69v10.89a2.14,2.14,0,0,0,1.26,2l1.43.83Z"/><path class="b77c1906-eb4c-49fc-a9d1-2bcb8fbe085c" d="M217.2,269.47a8.34,8.34,0,0,0,5.88-.07V257H217.2Z"/><path class="bcc7d28c-d7ac-46ca-b4ba-dc1d4bbf2230" d="M216.73,258.38,186,240.66c-1.88-1.09-1.64-3,.53-4.25L216.2,219.3a8.18,8.18,0,0,1,7.35-.31l30.7,17.73c1.88,1.09,1.65,3-.53,4.24l-29.64,17.12A8.15,8.15,0,0,1,216.73,258.38Z"/><path class="e75e54c0-b437-40f7-930e-4fc62c55803e" d="M253.72,238.88,224.08,256a8.15,8.15,0,0,1-7.35.31L186,238.57a2.86,2.86,0,0,1-.94-.83,2,2,0,0,0,.94,2.92l30.71,17.72a8.15,8.15,0,0,0,7.35-.3L253.72,241c1.69-1,2.21-2.34,1.47-3.41A4.1,4.1,0,0,1,253.72,238.88Z"/><path class="efe7da93-68dd-4d92-b1ab-0243e1b4b695" d="M244.22,252.08a2.77,2.77,0,0,1-1.24,2.15c-.69.39-1.24.07-1.24-.72a2.74,2.74,0,0,1,1.24-2.15C243.66,251,244.22,251.29,244.22,252.08Z"/><path class="efe7da93-68dd-4d92-b1ab-0243e1b4b695" d="M248.21,249.77a2.75,2.75,0,0,1-1.24,2.15c-.69.4-1.24.08-1.24-.71a2.72,2.72,0,0,1,1.24-2.15C247.65,248.66,248.21,249,248.21,249.77Z"/><path class="efe7da93-68dd-4d92-b1ab-0243e1b4b695" d="M252.2,247.47a2.77,2.77,0,0,1-1.24,2.15c-.69.39-1.24.07-1.24-.72a2.74,2.74,0,0,1,1.24-2.15C251.64,246.36,252.2,246.68,252.2,247.47Z"/><path class="efe7da93-68dd-4d92-b1ab-0243e1b4b695" d="M219.92,240.92l-2-1.15c-.12-.07-.11-.19,0-.27l1.92-1.11a.54.54,0,0,1,.48,0l2,1.15c.12.07.1.19,0,.27l-1.92,1.11A.52.52,0,0,1,219.92,240.92Z"/><path class="f9cb0fcc-1a11-4ef0-948c-b19aa8a77003" d="M207.55,277.8l-12.43-7.17a3.33,3.33,0,0,1-1.39-2.65h0c0-1,.62-1.5,1.39-1.05l12.43,7.17a3.33,3.33,0,0,1,1.39,2.65h0C208.94,277.78,208.32,278.25,207.55,277.8Z"/><path class="e75e54c0-b437-40f7-930e-4fc62c55803e" d="M208.66,277.12l-12.43-7.18a3.33,3.33,0,0,1-1.38-2.65,2.16,2.16,0,0,1,.05-.46c-.66-.24-1.17.22-1.17,1.15a3.33,3.33,0,0,0,1.39,2.65l12.43,7.17a.82.82,0,0,0,1.33-.58Z"/><path class="e0c3c8f6-c1f2-4b61-a46c-ce7b031cd5a6" d="M206.35,284.89s-3-1.53-4.89.74-4.53,7.66-4.61,11.29,2.88,3.38,4.63,2.52,6.89-8.3,7.21-9.76a5,5,0,0,0-.87-3.82A17.28,17.28,0,0,0,206.35,284.89Z"/><path class="f674197a-613c-46e1-a67a-aa551feca053" d="M207,284.16l.14,3.14a1.78,1.78,0,0,1-.88,1.63,3.49,3.49,0,0,1-2.34.36c-2.29-.36-2.49-1-2.65-4.16S207,284.16,207,284.16Z"/><path class="e0c3c8f6-c1f2-4b61-a46c-ce7b031cd5a6" d="M195.25,278.85s-3-1.53-4.89.74-4.52,7.66-4.61,11.29,2.88,3.38,4.63,2.52,6.9-8.3,7.21-9.76a5.09,5.09,0,0,0-.86-3.82C196.23,279.43,195.25,278.85,195.25,278.85Z"/><path class="f674197a-613c-46e1-a67a-aa551feca053" d="M195.92,278.12l.14,3.14a1.78,1.78,0,0,1-.89,1.63,3.49,3.49,0,0,1-2.34.36c-2.29-.36-2.49-1-2.65-4.16S195.92,278.12,195.92,278.12Z"/><path class="b79513c8-d000-49c2-8f00-da9f65a3a643" d="M223,220.45c-.9-14.61-15.81,2.14-15.81,2.14L197,232.6l-9.19,10.1a9.07,9.07,0,0,0-2.29,7.28l3.72,28.31a2.78,2.78,0,0,0,2.79,2.42,9.2,9.2,0,0,0,1.38-.12,3.45,3.45,0,0,0,3.07-3.67l-.68-26.48,19.31-11.64S223.87,235.05,223,220.45Z"/><path class="b79513c8-d000-49c2-8f00-da9f65a3a643" d="M234.07,226c-.9-14.6-15.81,2.15-15.81,2.15l-10.21,10-9.2,10.1a9.07,9.07,0,0,0-2.28,7.28l3.72,28.32a2.77,2.77,0,0,0,2.79,2.41,9.2,9.2,0,0,0,1.38-.12,3.46,3.46,0,0,0,3.07-3.67L206.85,256l19.31-11.64S235,240.61,234.07,226Z"/><path class="aace1fef-ff01-4bec-93dc-bf931f03dcbd" d="M225.24,179.14c11.31,4.69,11.09,11.37,11.09,11.37s-2.22,24.51-1.46,40.87c.31,6.84-36.35,7.37-30.89-10.89,6.45-21.52,4-38.94,7.05-41.57S222.32,177.93,225.24,179.14Z"/><path class="ac98c064-7e1a-4d2a-9d5f-1f77229be59e" d="M228.88,185.06c-.59,2.3-3.6,3.51-6.72,2.71s-5.17-3.32-4.57-5.61,3.6-3.51,6.72-2.71S229.47,182.77,228.88,185.06Z"/><path class="ebfed3af-843c-42e0-add5-64005f20d4ef" d="M224.09,188.56a8.21,8.21,0,0,1-2.06-.27c-3.4-.88-5.63-3.69-5-6.27s4-4,7.38-3.09a7.5,7.5,0,0,1,4,2.43,4.08,4.08,0,0,1-1.73,6.72A6.88,6.88,0,0,1,224.09,188.56Zm-1.72-8.82c-2.1,0-3.86,1-4.26,2.55-.52,2,1.36,4.23,4.19,5a6.49,6.49,0,0,0,4-.16,3.3,3.3,0,0,0,2.09-2.15h0a3.29,3.29,0,0,0-.79-2.89,6.47,6.47,0,0,0-3.4-2.06A7.13,7.13,0,0,0,222.37,179.74Z"/><path class="ac98c064-7e1a-4d2a-9d5f-1f77229be59e" d="M220.71,178.63a27.13,27.13,0,0,1-.1,4c-.06,1.13,3.89,2.18,4.9,1.16s.62-2.08.86-5.91S220.71,178.63,220.71,178.63Z"/><path class="a0b9bc43-d5e4-4aa4-acff-d61fc2773511" d="M226.37,177.91s-1,3.55-5.76,4.92l.07-3.23Z"/><path class="ac98c064-7e1a-4d2a-9d5f-1f77229be59e" d="M229.4,168.88a8.7,8.7,0,1,1-10.6-6.25A8.69,8.69,0,0,1,229.4,168.88Z"/><path class="a0b9bc43-d5e4-4aa4-acff-d61fc2773511" d="M223,171.38s-4.8,2.05-8.11,2.07-2.59-2.75-2.59-2.75l9.85-1.43Z"/><path class="efe7da93-68dd-4d92-b1ab-0243e1b4b695" d="M213.88,171.92s4.17-1.77,7.83-1a3.92,3.92,0,0,1,2.22,1.32,1.26,1.26,0,0,0,.67.48c.65.15,1.71-2.54,3-2.6s2.11.83,1.07,2.48-.68,3.52-.21,3.78,5.53-3.6,1.07-12.43-15.77-4.07-17.53-2.28c0,0-1.85,1.62-3.36.18C208.61,161.81,206.92,174.47,213.88,171.92Z"/><path class="ac98c064-7e1a-4d2a-9d5f-1f77229be59e" d="M230,208.41V215a2.7,2.7,0,0,1-.88,2l-13.6,12.4,1.54,2.36,18-13a3.67,3.67,0,0,0,1.49-2.58l1.21-11.55Z"/><path class="aace1fef-ff01-4bec-93dc-bf931f03dcbd" d="M235.37,187.2s4.12,6.21,5.66,22.54c0,0-7.05,2.28-11.05,1S235.37,187.2,235.37,187.2Z"/><path class="f9cb0fcc-1a11-4ef0-948c-b19aa8a77003" d="M229.23,195.05a114.22,114.22,0,0,0-1.71,12.71,2.6,2.6,0,0,0,1.71,2.5h0Z"/><path class="e0c3c8f6-c1f2-4b61-a46c-ce7b031cd5a6" d="M225.7,238l-3-.4-19.4-11.2a2.72,2.72,0,0,0-2.43.1l-13.75,7.94-1.82-.24v1.81h0a.69.69,0,0,0,.42.63l22,12.7a2.68,2.68,0,0,0,2.43-.1l15-8.64a1,1,0,0,0,.59-.82h0Z"/><path class="b8f468a3-8633-40cd-a124-02edae93c6f0" d="M211.12,231l-1.38-.79H194.58l-7.47,4.31-1.82-.24v1.81h0a.69.69,0,0,0,.42.63l22,12.7a2.28,2.28,0,0,0,1.25.24Z"/><path class="f5abf9e9-3d40-4c06-8dec-ea29d915708d" d="M186.09,234.34l-.8-.1v1.81h0a.69.69,0,0,0,.42.63l.38.23Z"/><path class="f53496d1-b3b5-4f85-b5bd-ae064a4d9798" d="M207.92,249.49a2.87,2.87,0,0,0,2.07-.13v-3.08h-2.07Z"/><path class="ebfed3af-843c-42e0-add5-64005f20d4ef" d="M207.7,247.57l-22-12.69c-.63-.36-.55-1,.17-1.41l15-8.64a2.72,2.72,0,0,1,2.43-.1l22,12.7c.62.36.54,1-.17,1.4l-15,8.64A2.68,2.68,0,0,1,207.7,247.57Z"/><path class="ae5d067e-e293-495d-b5b2-5cd2e18e0dfb" d="M207.33,245.65,189,235.09c-.52-.3-.45-.82.15-1.16l8-4.52a2.26,2.26,0,0,1,2-.08l18.29,10.56c.52.3.45.82-.15,1.16l-8,4.52A2.26,2.26,0,0,1,207.33,245.65Z"/><path class="ac98c064-7e1a-4d2a-9d5f-1f77229be59e" d="M201.71,224.41l-.23,1.52a11.3,11.3,0,0,0,.1,3.89l.27,1.34a1.89,1.89,0,0,0,1.51,1.48h0a1,1,0,0,0,1.21-.91l.37-3.24s.83,1.08,1.23,1.08-.45-3.24-1.36-5.08S201.71,224.41,201.71,224.41Z"/><path class="ac98c064-7e1a-4d2a-9d5f-1f77229be59e" d="M209.16,200.29,206.8,205a9.39,9.39,0,0,0-1,3.55l-1,16-3.1-.08-1.41-17.94a6.61,6.61,0,0,1,.08-1.66l1.61-9.1Z"/><path class="e0c3c8f6-c1f2-4b61-a46c-ce7b031cd5a6" d="M207,248.79l-1.85-2.4-19.39-11.23a2.72,2.72,0,0,1-1.13-2.16l0-15.87-1.11-1.46,1-.61h0a.75.75,0,0,1,.77.05l22,12.72a2.69,2.69,0,0,1,1.13,2.16l0,17.29a1,1,0,0,1-.41.92h0Z"/><path class="b8f468a3-8633-40cd-a124-02edae93c6f0" d="M193.54,239.69l-1.37-.8-7.57-13.14v-8.62l-1.11-1.46,1-.61h0a.75.75,0,0,1,.77.05l22,12.72a2.23,2.23,0,0,1,.83,1Z"/><path class="f5abf9e9-3d40-4c06-8dec-ea29d915708d" d="M184,216.32l-.49-.65,1-.61h0a.75.75,0,0,1,.77.05l.38.22Z"/><path class="f53496d1-b3b5-4f85-b5bd-ae064a4d9798" d="M207.48,228a2.82,2.82,0,0,1,.92,1.86l-2.15,1.24-1-1.79Z"/><path class="ebfed3af-843c-42e0-add5-64005f20d4ef" d="M206.24,228.44l-22-12.73c-.62-.36-1.13,0-1.13.85l0,17.3a2.68,2.68,0,0,0,1.13,2.15l22,12.73c.62.36,1.12,0,1.12-.85l0-17.3A2.69,2.69,0,0,0,206.24,228.44Z"/><path class="ac98c064-7e1a-4d2a-9d5f-1f77229be59e" d="M217,231.79l-.35.73a4.88,4.88,0,0,1-1.83,2l-2.19,1.35a2.18,2.18,0,0,1-2.23.05l-.07-.05a1.31,1.31,0,0,1-.19-2l2.28-2.35s-1.28,1-1.64.59,1.25-1.71,2.4-1.75a4.59,4.59,0,0,0,2.28-1Z"/><path class="aace1fef-ff01-4bec-93dc-bf931f03dcbd" d="M211.26,178.89s-8.36,9.1-11.74,17.45a17.07,17.07,0,0,0,9.86,7.17C216.38,205.53,211.26,178.89,211.26,178.89Z"/><path class="f9cb0fcc-1a11-4ef0-948c-b19aa8a77003" d="M207.81,203l1.35-13.09L206,202.14A16.45,16.45,0,0,0,207.81,203Z"/><path class="ebfed3af-843c-42e0-add5-64005f20d4ef" d="M217.52,177.05l-2.24-.62a5.4,5.4,0,0,0,2.64,2.12c1.56.43,1.81-.89,1.81-.89Z"/><path class="ae153098-b7e2-4b28-981d-f9012dcefa77" d="M39.3,251.59c-6,3.48-15.82,3.48-21.86,0s-6-9.13,0-12.61,15.82-3.49,21.86,0S45.33,248.1,39.3,251.59Z"/><ellipse class="ae153098-b7e2-4b28-981d-f9012dcefa77" cx="119.58" cy="297.11" rx="15.45" ry="8.92"/><path class="f9cb0fcc-1a11-4ef0-948c-b19aa8a77003" d="M18.61,124.44s.44,9.16,1.14,15.31S35.26,135,35.26,135v-7Z"/><path class="e0c3c8f6-c1f2-4b61-a46c-ce7b031cd5a6" d="M26.5,238.36c.22.55,4.06,5.23,7.9,6.4a8.9,8.9,0,0,0,3.53.48,1.16,1.16,0,0,0,.94-1.55,14.59,14.59,0,0,0-7.36-8.12C25,232.35,26.5,238.36,26.5,238.36Z"/><path class="e0c3c8f6-c1f2-4b61-a46c-ce7b031cd5a6" d="M25.22,240.15a31.55,31.55,0,0,1,1.89,6.24c.27,1.73-.68,4-1.46,5.47a1.6,1.6,0,0,1-2.49.43,9.25,9.25,0,0,1-3.12-6c-.44-4.79,0-5.62,0-5.62Z"/><path class="b79513c8-d000-49c2-8f00-da9f65a3a643" d="M16,182.31A91.26,91.26,0,0,0,16,195c.5,6.67,2.29,37.9,2.63,45.41,0,0-.17,2.28,4.23,1.78s4.05-3,4.05-3,6.18-.08,6.38-3.73,6.33-43.52,6.33-57.86Z"/><polygon class="ac98c064-7e1a-4d2a-9d5f-1f77229be59e" points="37.46 151.15 41.03 172.96 44.27 172.91 43.98 152.92 37.46 151.15"/><path class="bcc7d28c-d7ac-46ca-b4ba-dc1d4bbf2230" d="M36,131.84s4.81-.13,6.49,6.83,3,15.66,1.53,16.39c-4.38,2.17-7.15-.37-7.15-.37Z"/><path class="aace1fef-ff01-4bec-93dc-bf931f03dcbd" d="M37.41,132.13a3.93,3.93,0,0,0-2.6-.14c-4.1,1.18-19.51,5.7-22.05,7.87-2.94,2.51,4.4,16.61,4.29,21.24s-.62,10.07-1,15.09-1,7.78,3.15,9.92a16.14,16.14,0,0,0,16.38-1.77c5.25-4,4.3-6.74,4.08-9.65s-2-15.47-1.85-19A13.44,13.44,0,0,0,41,152c1.37-2.34-1-6.64-2.06-9.43s.57-6,.26-8.27A2.59,2.59,0,0,0,37.41,132.13Z"/><ellipse class="ebfed3af-843c-42e0-add5-64005f20d4ef" cx="26.69" cy="137.68" rx="5.84" ry="4.64" transform="matrix(0.99, -0.13, 0.13, 0.99, -17.28, 4.51)"/><path class="ac98c064-7e1a-4d2a-9d5f-1f77229be59e" d="M30.83,137.15c.23,1.82-1.43,3.53-3.72,3.82s-4.33-.94-4.56-2.76,1.43-3.52,3.72-3.81S30.6,135.34,30.83,137.15Z"/><path class="ac98c064-7e1a-4d2a-9d5f-1f77229be59e" d="M28.56,131.19s-2.79-2.29-3.33-1.13-1,6.14-1,6.14l5.53,1.48-.84-5S30,131.7,28.56,131.19Z"/><circle class="ac98c064-7e1a-4d2a-9d5f-1f77229be59e" cx="28.96" cy="125.25" r="8.25" transform="translate(-86.96 69.65) rotate(-51.36)"/><path class="a0b9bc43-d5e4-4aa4-acff-d61fc2773511" d="M24.84,131.51c-.05.25-.09.53-.14.82.56,2.87,4.85,4.13,4.85,4.13l-.63-3.82s.52-.44.37-.88C27.59,131.22,25.45,130.75,24.84,131.51Z"/><circle class="ac98c064-7e1a-4d2a-9d5f-1f77229be59e" cx="28.96" cy="125.25" r="8.25" transform="translate(-86.96 69.65) rotate(-51.36)"/><polygon class="ac98c064-7e1a-4d2a-9d5f-1f77229be59e" points="8.63 160.18 9.55 182.26 12.78 182.6 14.88 162.72 8.63 160.18"/><path class="bcc7d28c-d7ac-46ca-b4ba-dc1d4bbf2230" d="M19.24,158.34c-1.07-4.72-3.18-15.13-3.18-15.13l-.91,10.36c1,3.07,1.94,5.89,1.9,7.53-.06,2.71-.27,5.71-.51,8.74h0S20.3,163.05,19.24,158.34Z"/><path class="e75e54c0-b437-40f7-930e-4fc62c55803e" d="M13.37,139.41s-2.58,1-4,8.92-2.55,15.87.05,16.89,4.78,1.79,5.55-.33,1.24-12.34,1.33-16S16.5,140.14,13.37,139.41Z"/><path class="a6bfee99-3969-458b-8ed2-aca15767ceb7" d="M26.88,239.19a12.72,12.72,0,0,0,1.77-.18h0l1.21-48.54Z"/><path class="aace1fef-ff01-4bec-93dc-bf931f03dcbd" d="M22.21,213l-1.72-2.24L2.43,200.27a2.52,2.52,0,0,1-1.05-2l0-14.79-1-1.35,1-.57h0a.66.66,0,0,1,.71,0l20.47,11.85a2.5,2.5,0,0,1,1,2l0,16.11a.92.92,0,0,1-.38.86h0Z"/><path class="aefa2bbd-5e4a-40f6-9ab1-15419bf261b1" d="M9.72,204.49l-1.29-.74-7-12.24v-8l-1-1.35,1-.57h0a.66.66,0,0,1,.71,0l20.47,11.85a2.18,2.18,0,0,1,.78.9Z"/><path class="aefa2bbd-5e4a-40f6-9ab1-15419bf261b1" d="M.82,182.72l-.46-.6,1-.57h0a.66.66,0,0,1,.71,0l.36.2Z"/><path class="aace1fef-ff01-4bec-93dc-bf931f03dcbd" d="M22.7,193.58a2.64,2.64,0,0,1,.86,1.72l-2,1.16-.95-1.67Z"/><path class="e75e54c0-b437-40f7-930e-4fc62c55803e" d="M21.54,194,1.07,182.16c-.58-.34-1,0-1,.79l0,16.11a2.5,2.5,0,0,0,1.05,2l20.47,11.86c.58.33,1.05,0,1.05-.8l0-16.1A2.53,2.53,0,0,0,21.54,194Z"/><path class="ac98c064-7e1a-4d2a-9d5f-1f77229be59e" d="M9.58,182.08a49.49,49.49,0,0,0-.73,6.81c.13,1.65,1,4.37,1.68,4.31s0-6.64,1.2-6S13,189,13.57,188.6s-.93-6-.54-8.46S9.58,182.08,9.58,182.08Z"/><path class="ac98c064-7e1a-4d2a-9d5f-1f77229be59e" d="M44.28,172.91a49.86,49.86,0,0,1,.72,6.8c-.13,1.65-1,4.37-1.68,4.32s0-6.64-1.2-6-1.3,1.78-1.84,1.39.93-6,.54-8.46S44.28,172.91,44.28,172.91Z"/><path class="a0b9bc43-d5e4-4aa4-acff-d61fc2773511" d="M32.13,126c4.14,1.47,4.94.57,5,.52a6.31,6.31,0,0,0,.08-.76,8,8,0,0,0-.27-2.64l-10.74-1.44A11.73,11.73,0,0,0,32.13,126Z"/><path class="f9cb0fcc-1a11-4ef0-948c-b19aa8a77003" d="M37.49,117.52c-1-.84-4.49-5-10.8-4-3.94.61-7.26,3.29-8,9.43a14.1,14.1,0,0,0,3.81,11.21,3.17,3.17,0,0,0,.45-.23c1.58-1,1.75-1.61,1.75-1.61l.35-3.13a.87.87,0,0,0-.79-.87,1.56,1.56,0,0,1-1.15-.71,1.84,1.84,0,0,1,1.32-3.1,1.38,1.38,0,0,0,1.45-1,.75.75,0,0,1,1-.5c2.06.75,7.13,2.36,10.4,1.43C41.43,123.23,38.47,118.36,37.49,117.52Z"/><path class="ebfed3af-843c-42e0-add5-64005f20d4ef" d="M32.79,129.7l2.52-.69a6.1,6.1,0,0,1-3,2.38c-1.76.48-2-1-2-1Z"/><polygon class="aefa2bbd-5e4a-40f6-9ab1-15419bf261b1" points="13.87 188.44 11.72 187.21 12.52 188.53 13.61 188.93 13.87 188.44"/><path class="ae153098-b7e2-4b28-981d-f9012dcefa77" d="M71.68,288.47,47.16,274.31c-1.5-.87-1.31-2.39.43-3.39l23.67-13.67a6.53,6.53,0,0,1,5.87-.24l24.52,14.15c1.5.87,1.31,2.39-.42,3.39L77.55,288.22A6.53,6.53,0,0,1,71.68,288.47Z"/><path class="b8f468a3-8633-40cd-a124-02edae93c6f0" d="M109.78,260.38h0V249.79H86L77.82,245a8.15,8.15,0,0,0-7.35.3l-7.66,4.42H39v10.9a2.13,2.13,0,0,0,1.26,2L71,280.34a8.2,8.2,0,0,0,7.36-.3L108,262.92A2.9,2.9,0,0,0,109.78,260.38Z"/><path class="b8f468a3-8633-40cd-a124-02edae93c6f0" d="M74.41,244.31a8.46,8.46,0,0,0-3.94,1l-7.66,4.42H39v10.9a2.13,2.13,0,0,0,1.26,2L71,280.34a6.72,6.72,0,0,0,3.42.73Z"/><path class="f5abf9e9-3d40-4c06-8dec-ea29d915708d" d="M41.72,249.75H39v10.9a2.13,2.13,0,0,0,1.26,2l1.43.83Z"/><path class="f5abf9e9-3d40-4c06-8dec-ea29d915708d" d="M71.47,280.57a8.31,8.31,0,0,0,5.87-.07V268.13H71.47Z"/><path class="ae5d067e-e293-495d-b5b2-5cd2e18e0dfb" d="M71,269.49l-30.7-17.73c-1.88-1.09-1.65-3,.53-4.24L70.47,230.4a8.18,8.18,0,0,1,7.35-.31l30.7,17.73c1.88,1.09,1.65,3-.53,4.24L78.35,269.18A8.2,8.2,0,0,1,71,269.49Z"/><path class="f5abf9e9-3d40-4c06-8dec-ea29d915708d" d="M71.55,266.29,45.82,251.44c-1.58-.91-1.38-2.5.44-3.56L71.1,233.54a6.83,6.83,0,0,1,6.16-.25L103,248.14c1.58.91,1.38,2.5-.44,3.56L77.71,266A6.83,6.83,0,0,1,71.55,266.29Z"/><path class="ae5d067e-e293-495d-b5b2-5cd2e18e0dfb" d="M98.49,263.18a2.77,2.77,0,0,1-1.24,2.15c-.69.39-1.24.07-1.24-.72a2.74,2.74,0,0,1,1.24-2.15C97.93,262.07,98.49,262.39,98.49,263.18Z"/><path class="ae5d067e-e293-495d-b5b2-5cd2e18e0dfb" d="M102.48,260.88a2.73,2.73,0,0,1-1.24,2.14c-.69.4-1.24.08-1.24-.71a2.72,2.72,0,0,1,1.24-2.15C101.92,259.76,102.48,260.08,102.48,260.88Z"/><path class="ae5d067e-e293-495d-b5b2-5cd2e18e0dfb" d="M106.47,258.57a2.77,2.77,0,0,1-1.24,2.15c-.69.4-1.24.07-1.24-.72a2.71,2.71,0,0,1,1.24-2.14C105.91,257.46,106.47,257.78,106.47,258.57Z"/><path class="b8f468a3-8633-40cd-a124-02edae93c6f0" d="M109.78,243.45h0V232.86H86l-8.21-4.74a8.18,8.18,0,0,0-7.35.3l-7.66,4.43-23.78,0v10.9a2.16,2.16,0,0,0,1.26,2L71,263.41a8.2,8.2,0,0,0,7.36-.3L108,246A2.9,2.9,0,0,0,109.78,243.45Z"/><path class="b8f468a3-8633-40cd-a124-02edae93c6f0" d="M74.41,227.38a8.46,8.46,0,0,0-3.94,1l-7.66,4.43-23.78,0v10.9a2.16,2.16,0,0,0,1.26,2L71,263.41a6.72,6.72,0,0,0,3.42.73Z"/><path class="f5abf9e9-3d40-4c06-8dec-ea29d915708d" d="M41.72,232.82H39v10.9a2.16,2.16,0,0,0,1.26,2l1.43.82Z"/><path class="f5abf9e9-3d40-4c06-8dec-ea29d915708d" d="M71.47,263.64a8.36,8.36,0,0,0,5.87-.06V251.21H71.47Z"/><path class="ae5d067e-e293-495d-b5b2-5cd2e18e0dfb" d="M71,252.56l-30.7-17.73c-1.88-1.09-1.65-3,.53-4.24l29.65-17.12a8.15,8.15,0,0,1,7.35-.3l30.7,17.72c1.88,1.09,1.65,3-.53,4.25L78.35,252.25A8.2,8.2,0,0,1,71,252.56Z"/><path class="f5abf9e9-3d40-4c06-8dec-ea29d915708d" d="M71.55,249.37,45.82,234.51c-1.58-.91-1.38-2.5.44-3.56L71.1,216.61a6.83,6.83,0,0,1,6.16-.25L103,231.21c1.58.91,1.38,2.5-.44,3.56L77.71,249.11A6.86,6.86,0,0,1,71.55,249.37Z"/><path class="ae5d067e-e293-495d-b5b2-5cd2e18e0dfb" d="M98.49,246.25a2.77,2.77,0,0,1-1.24,2.15c-.69.39-1.24.07-1.24-.72a2.74,2.74,0,0,1,1.24-2.15C97.93,245.14,98.49,245.46,98.49,246.25Z"/><path class="ae5d067e-e293-495d-b5b2-5cd2e18e0dfb" d="M102.48,244a2.73,2.73,0,0,1-1.24,2.14c-.69.4-1.24.08-1.24-.71a2.74,2.74,0,0,1,1.24-2.15C101.92,242.84,102.48,243.16,102.48,244Z"/><path class="ae5d067e-e293-495d-b5b2-5cd2e18e0dfb" d="M106.47,241.64a2.75,2.75,0,0,1-1.24,2.15c-.69.4-1.24.08-1.24-.71a2.71,2.71,0,0,1,1.24-2.15C105.91,240.53,106.47,240.85,106.47,241.64Z"/><path class="b8f468a3-8633-40cd-a124-02edae93c6f0" d="M109.78,226.53h0v-10.6H86l-8.21-4.74a8.18,8.18,0,0,0-7.35.3l-7.66,4.43-23.78,0v10.9a2.16,2.16,0,0,0,1.26,2L71,246.48a8.2,8.2,0,0,0,7.36-.3L108,229.06A2.89,2.89,0,0,0,109.78,226.53Z"/><path class="b8f468a3-8633-40cd-a124-02edae93c6f0" d="M74.41,210.45a8.46,8.46,0,0,0-3.94,1l-7.66,4.43-23.78,0v10.9a2.16,2.16,0,0,0,1.26,2L71,246.48a6.62,6.62,0,0,0,3.42.73Z"/><path class="f5abf9e9-3d40-4c06-8dec-ea29d915708d" d="M41.72,215.89H39v10.9a2.16,2.16,0,0,0,1.26,2l1.43.82Z"/><path class="f5abf9e9-3d40-4c06-8dec-ea29d915708d" d="M71.47,246.71a8.36,8.36,0,0,0,5.87-.06V234.28H71.47Z"/><path class="ae5d067e-e293-495d-b5b2-5cd2e18e0dfb" d="M71,235.63,40.29,217.9c-1.88-1.09-1.65-3,.53-4.24l29.65-17.12a8.18,8.18,0,0,1,7.35-.3L108.52,214c1.88,1.09,1.65,3-.53,4.25L78.35,235.32A8.17,8.17,0,0,1,71,235.63Z"/><path class="f5abf9e9-3d40-4c06-8dec-ea29d915708d" d="M71.55,232.44,45.82,217.58c-1.58-.91-1.38-2.5.44-3.55L71.1,199.68a6.86,6.86,0,0,1,6.16-.25L103,214.28c1.58.91,1.38,2.51-.44,3.56L77.71,232.18A6.86,6.86,0,0,1,71.55,232.44Z"/><path class="ae5d067e-e293-495d-b5b2-5cd2e18e0dfb" d="M98.49,229.32a2.77,2.77,0,0,1-1.24,2.15c-.69.39-1.24.07-1.24-.72a2.71,2.71,0,0,1,1.24-2.14C97.93,228.21,98.49,228.53,98.49,229.32Z"/><path class="ae5d067e-e293-495d-b5b2-5cd2e18e0dfb" d="M102.48,227a2.77,2.77,0,0,1-1.24,2.15c-.69.39-1.24.07-1.24-.72a2.74,2.74,0,0,1,1.24-2.15C101.92,225.91,102.48,226.23,102.48,227Z"/><path class="ae5d067e-e293-495d-b5b2-5cd2e18e0dfb" d="M106.47,224.71a2.74,2.74,0,0,1-1.24,2.15c-.69.4-1.24.08-1.24-.71a2.72,2.72,0,0,1,1.24-2.15C105.91,223.6,106.47,223.92,106.47,224.71Z"/><path class="b8f468a3-8633-40cd-a124-02edae93c6f0" d="M109.78,209.6h0V199H86l-8.21-4.74a8.18,8.18,0,0,0-7.35.3L62.81,199,39,199v10.9a2.14,2.14,0,0,0,1.26,2L71,229.55a8.17,8.17,0,0,0,7.36-.3L108,212.13A2.89,2.89,0,0,0,109.78,209.6Z"/><path class="b8f468a3-8633-40cd-a124-02edae93c6f0" d="M74.41,193.52a8.46,8.46,0,0,0-3.94,1L62.81,199,39,199v10.9a2.14,2.14,0,0,0,1.26,2L71,229.55a6.62,6.62,0,0,0,3.42.73Z"/><path class="f5abf9e9-3d40-4c06-8dec-ea29d915708d" d="M41.72,199H39v10.9a2.14,2.14,0,0,0,1.26,2l1.43.82Z"/><path class="f5abf9e9-3d40-4c06-8dec-ea29d915708d" d="M71.47,229.79a8.42,8.42,0,0,0,5.87-.07V217.35H71.47Z"/><path class="ae5d067e-e293-495d-b5b2-5cd2e18e0dfb" d="M71,218.7,40.29,201c-1.88-1.08-1.65-3,.53-4.24l29.65-17.12a8.18,8.18,0,0,1,7.35-.3L108.52,197c1.88,1.09,1.65,3-.53,4.25L78.35,218.39A8.17,8.17,0,0,1,71,218.7Z"/><path class="f5abf9e9-3d40-4c06-8dec-ea29d915708d" d="M71.55,215.51,45.82,200.65c-1.58-.91-1.38-2.5.44-3.55L71.1,182.75a6.86,6.86,0,0,1,6.16-.25L103,197.35c1.58.92,1.38,2.51-.44,3.56L77.71,215.25A6.83,6.83,0,0,1,71.55,215.51Z"/><path class="ae5d067e-e293-495d-b5b2-5cd2e18e0dfb" d="M98.49,212.39a2.75,2.75,0,0,1-1.24,2.15c-.69.4-1.24.08-1.24-.72a2.71,2.71,0,0,1,1.24-2.14C97.93,211.28,98.49,211.6,98.49,212.39Z"/><path class="ae5d067e-e293-495d-b5b2-5cd2e18e0dfb" d="M102.48,210.09a2.77,2.77,0,0,1-1.24,2.15c-.69.39-1.24.07-1.24-.72a2.74,2.74,0,0,1,1.24-2.15C101.92,209,102.48,209.3,102.48,210.09Z"/><path class="ae5d067e-e293-495d-b5b2-5cd2e18e0dfb" d="M106.47,207.79a2.73,2.73,0,0,1-1.24,2.14c-.69.4-1.24.08-1.24-.71a2.74,2.74,0,0,1,1.24-2.15C105.91,206.67,106.47,207,106.47,207.79Z"/><path class="b8f468a3-8633-40cd-a124-02edae93c6f0" d="M109.78,192.67h0V182.08l-23.75,0-8.21-4.74a8.15,8.15,0,0,0-7.35.31l-7.66,4.42H39v10.89a2.14,2.14,0,0,0,1.26,2L71,212.63a8.2,8.2,0,0,0,7.36-.31L108,195.21C109.25,194.48,109.85,193.54,109.78,192.67Z"/><path class="b8f468a3-8633-40cd-a124-02edae93c6f0" d="M74.41,176.59a8.47,8.47,0,0,0-3.94,1l-7.66,4.42H39v10.89a2.14,2.14,0,0,0,1.26,2L71,212.63a6.62,6.62,0,0,0,3.42.72Z"/><path class="f5abf9e9-3d40-4c06-8dec-ea29d915708d" d="M41.72,182H39v10.89a2.14,2.14,0,0,0,1.26,2l1.43.82Z"/><path class="f5abf9e9-3d40-4c06-8dec-ea29d915708d" d="M71.47,212.86a8.42,8.42,0,0,0,5.87-.07V200.42H71.47Z"/><path class="ae5d067e-e293-495d-b5b2-5cd2e18e0dfb" d="M71,201.77,40.29,184c-1.88-1.08-1.65-3,.53-4.24l29.65-17.12a8.18,8.18,0,0,1,7.35-.3l30.7,17.73c1.88,1.08,1.65,3-.53,4.24L78.35,201.47A8.2,8.2,0,0,1,71,201.77Z"/><path class="f5abf9e9-3d40-4c06-8dec-ea29d915708d" d="M71.55,198.58,45.82,183.73c-1.58-.92-1.38-2.51.44-3.56L71.1,165.83a6.83,6.83,0,0,1,6.16-.26L103,180.42c1.58.92,1.38,2.51-.44,3.56L77.71,198.32A6.83,6.83,0,0,1,71.55,198.58Z"/><rect class="ebfed3af-843c-42e0-add5-64005f20d4ef" x="84.08" y="199.62" width="14.22" height="0.5" transform="translate(-87.64 72.27) rotate(-29.97)"/><path class="ae5d067e-e293-495d-b5b2-5cd2e18e0dfb" d="M98.49,195.46a2.75,2.75,0,0,1-1.24,2.15c-.69.4-1.24.08-1.24-.71a2.71,2.71,0,0,1,1.24-2.15C97.93,194.35,98.49,194.67,98.49,195.46Z"/><path class="ae5d067e-e293-495d-b5b2-5cd2e18e0dfb" d="M102.48,193.16a2.77,2.77,0,0,1-1.24,2.15c-.69.39-1.24.07-1.24-.72a2.74,2.74,0,0,1,1.24-2.15C101.92,192.05,102.48,192.37,102.48,193.16Z"/><path class="ae5d067e-e293-495d-b5b2-5cd2e18e0dfb" d="M106.47,190.86a2.73,2.73,0,0,1-1.24,2.14c-.69.4-1.24.08-1.24-.71a2.74,2.74,0,0,1,1.24-2.15C105.91,189.75,106.47,190.07,106.47,190.86Z"/><path class="b8f468a3-8633-40cd-a124-02edae93c6f0" d="M109.78,175.62h0V165H86l-8.21-4.74a8.18,8.18,0,0,0-7.35.3L62.81,165H39v10.9a2.16,2.16,0,0,0,1.26,2L71,195.58a8.2,8.2,0,0,0,7.36-.3L108,178.16A2.9,2.9,0,0,0,109.78,175.62Z"/><path class="b8f468a3-8633-40cd-a124-02edae93c6f0" d="M74.41,159.55a8.46,8.46,0,0,0-3.94,1L62.81,165H39v10.9a2.16,2.16,0,0,0,1.26,2L71,195.58a6.72,6.72,0,0,0,3.42.73Z"/><path class="f5abf9e9-3d40-4c06-8dec-ea29d915708d" d="M41.72,165H39v10.9a2.16,2.16,0,0,0,1.26,2l1.43.82Z"/><path class="f5abf9e9-3d40-4c06-8dec-ea29d915708d" d="M71.47,195.81a8.36,8.36,0,0,0,5.87-.06V183.38H71.47Z"/><path class="ae5d067e-e293-495d-b5b2-5cd2e18e0dfb" d="M71,184.73,40.29,167c-1.88-1.09-1.65-3,.53-4.24l29.65-17.12a8.15,8.15,0,0,1,7.35-.3l30.7,17.72c1.88,1.09,1.65,3-.53,4.25L78.35,184.42A8.2,8.2,0,0,1,71,184.73Z"/><path class="ebfed3af-843c-42e0-add5-64005f20d4ef" d="M108,165.22,78.35,182.34a8.2,8.2,0,0,1-7.36.3l-30.7-17.72a2.89,2.89,0,0,1-.94-.84,2,2,0,0,0,.94,2.92L71,184.73a8.2,8.2,0,0,0,7.36-.31L108,167.31c1.69-1,2.2-2.34,1.47-3.41A4.18,4.18,0,0,1,108,165.22Z"/><path class="ae5d067e-e293-495d-b5b2-5cd2e18e0dfb" d="M98.49,178.42a2.77,2.77,0,0,1-1.24,2.15c-.69.39-1.24.07-1.24-.72a2.74,2.74,0,0,1,1.24-2.15C97.93,177.31,98.49,177.63,98.49,178.42Z"/><path class="ae5d067e-e293-495d-b5b2-5cd2e18e0dfb" d="M86.27,185.14A2.73,2.73,0,0,1,85,187.28c-.69.4-1.24.08-1.24-.71A2.74,2.74,0,0,1,85,184.42C85.71,184,86.27,184.34,86.27,185.14Z"/><path class="ebfed3af-843c-42e0-add5-64005f20d4ef" d="M86.27,202.7A2.77,2.77,0,0,1,85,204.85c-.69.4-1.24.07-1.24-.72A2.71,2.71,0,0,1,85,202C85.71,201.59,86.27,201.91,86.27,202.7Z"/><path class="ae5d067e-e293-495d-b5b2-5cd2e18e0dfb" d="M102.48,176.12a2.73,2.73,0,0,1-1.24,2.14c-.69.4-1.24.08-1.24-.71a2.74,2.74,0,0,1,1.24-2.15C101.92,175,102.48,175.33,102.48,176.12Z"/><path class="ae5d067e-e293-495d-b5b2-5cd2e18e0dfb" d="M106.47,173.81a2.77,2.77,0,0,1-1.24,2.15c-.69.4-1.24.08-1.24-.72a2.71,2.71,0,0,1,1.24-2.14C105.91,172.7,106.47,173,106.47,173.81Z"/><path class="f5abf9e9-3d40-4c06-8dec-ea29d915708d" d="M72.81,173.74l-14.37-8.3c-.88-.51-.77-1.4.25-2l13.87-8A3.82,3.82,0,0,1,76,155.3l14.37,8.3c.88.51.77,1.4-.25,2l-13.87,8A3.82,3.82,0,0,1,72.81,173.74Z"/><path class="ae5d067e-e293-495d-b5b2-5cd2e18e0dfb" d="M74.19,166.79l-2-1.15c-.12-.07-.11-.19,0-.27l1.92-1.11a.54.54,0,0,1,.48,0l2,1.15c.13.07.11.19,0,.27l-1.92,1.11A.52.52,0,0,1,74.19,166.79Z"/><path class="b8f468a3-8633-40cd-a124-02edae93c6f0" d="M58.44,165.44l0,0,.21-.14,13.87-8a3.84,3.84,0,0,1,3.44-.14l14.33,8.27c.81-.58.85-1.37,0-1.84L76,155.3a3.82,3.82,0,0,0-3.44.15l-13.87,8C57.67,164,57.56,164.93,58.44,165.44Z"/><path class="e0c3c8f6-c1f2-4b61-a46c-ce7b031cd5a6" d="M134.26,289.55a4.67,4.67,0,0,1,2.64,4.67,8,8,0,0,1-.39,2.29c-.54,1.14-2.32,2.7-5.15,1.58s-9.14-7-9.38-10.92C121.54,280,129.77,287.64,134.26,289.55Z"/><path class="e0c3c8f6-c1f2-4b61-a46c-ce7b031cd5a6" d="M117.59,301.46s.68,4.15.35,4.91-2.31,2.39-5.22,2-11.31-3.25-13.18-8.78c-2.9-8.58,16.2.64,16.2.64Z"/><path class="b79513c8-d000-49c2-8f00-da9f65a3a643" d="M109.39,235.1l-.65,64.8a4.54,4.54,0,0,0,3.53,4.5l.79.1a4,4,0,0,0,3.85-1.6,4.73,4.73,0,0,0,.86-2.61l.83-27.67,4.13-24.73,5.71,43.78a3.83,3.83,0,0,0,1.57,2.88,4.4,4.4,0,0,0,2.61.7,4.79,4.79,0,0,0,3.46-1.7,3.48,3.48,0,0,0,.83-2.35l-2.27-26.33-.84-33.6Z"/><path class="ac98c064-7e1a-4d2a-9d5f-1f77229be59e" d="M136.46,213.82a2.19,2.19,0,0,1-.36,0l-10.35-1.6a2.33,2.33,0,1,1,.71-4.6l7.14,1.11-2.43-14a2.32,2.32,0,0,1,4.58-.8l3,17.16a2.33,2.33,0,0,1-2.29,2.73Z"/><path class="aace1fef-ff01-4bec-93dc-bf931f03dcbd" d="M127,180.71s3.46-.2,7.92,9-1.64,12.09-1.64,12.09Z"/><path class="aace1fef-ff01-4bec-93dc-bf931f03dcbd" d="M117.51,183.11c.16-.06,9.55-6.1,13,.22,5.65,10.32,5.32,43.52,3.53,47.82-1.65,4-5.78,6.91-8.67,8.57a17.32,17.32,0,0,1-8.42,2.39c-2.94,0-8.56-2.58-8.36-6.42.94-17.64-.62-32.5-2.06-46.93C106.55,188.76,108.35,186.82,117.51,183.11Z"/><path class="ac98c064-7e1a-4d2a-9d5f-1f77229be59e" d="M102.7,219.13a2,2,0,0,0,.78-.2,2.42,2.42,0,0,0,1.3-1.86l4.46-13c.2-1.35-2.14-6.59-3.34-6.81s-4.23,2.15-4.43,3.5l-1.1,11.63-9.32-3c-1.15-.6-2.09-1.82-2.77-.69a2.66,2.66,0,0,0,.6,3.42l12.51,6.65A2,2,0,0,0,102.7,219.13Z"/><path class="ac98c064-7e1a-4d2a-9d5f-1f77229be59e" d="M90.33,209l-.7-1.7a4.66,4.66,0,0,0-1.11-1.6l-2.91-2.68a.56.56,0,0,0-.83.08h0a.56.56,0,0,0,0,.72L86,205.18a.8.8,0,0,1,.16.8l-.46,1.29a1.29,1.29,0,0,0,.22,1.27l2.91,3.53Z"/><path class="aace1fef-ff01-4bec-93dc-bf931f03dcbd" d="M106.55,188.76s-6.26,4.83-7.23,19.53c0,0-.13,1.63,3.49,2.61a6.36,6.36,0,0,0,6.1-1.82A23.19,23.19,0,0,0,106.55,188.76Z"/><path class="ac98c064-7e1a-4d2a-9d5f-1f77229be59e" d="M118.37,177.43l1,5.9a2.72,2.72,0,0,1-2.21,2.58c-2.25.56-3-.9-3-.9l-1-6.65Z"/><path class="ac98c064-7e1a-4d2a-9d5f-1f77229be59e" d="M106.22,177.66c2.43,4.71,7.8,6.76,12,4.58s5.61-7.76,3.18-12.48-7.8-6.77-12-4.59S103.79,172.94,106.22,177.66Z"/><path class="e0c3c8f6-c1f2-4b61-a46c-ce7b031cd5a6" d="M112.28,176.77a1.12,1.12,0,0,1-1-.3c-.43-.45-.62-2.83-1.76-3-1.8-.31-5.45,2.5-6.93-3.53-.77-3.13.63-4.24.32-6,0,0,0,.89,8.09-1.05s12,4.84,12.76,8.26.09,9.38-5.35,11.12c-.9.29-5.33-2.17-5.3-2.59s1.5-.66,1.09-1.82A1.57,1.57,0,0,0,112.28,176.77Z"/><path class="a6bfee99-3969-458b-8ed2-aca15767ceb7" d="M122.73,247.89l5.71,43.78a3.5,3.5,0,0,0,2.06,3.15c-1.18-.89-4.65-37.63-5.29-41.72S122.73,247.89,122.73,247.89Z"/></g></g></svg>