<svg xmlns="http://www.w3.org/2000/svg" xmlns:xlink="http://www.w3.org/1999/xlink" viewBox="0 0 416.02 338.3"><defs><style>.b2bf6a8a-f703-4d9b-99f8-3a49def44ff8{fill:none;}.b37b58c0-fae3-4903-8e23-947e8d9b5c90{isolation:isolate;}.a9faabd1-2c7d-442a-98b2-d0aa343cb0ab,.bec5a644-e117-4194-9083-546644bd6908{fill:#8686f2;}.a9faabd1-2c7d-442a-98b2-d0aa343cb0ab,.e9e4a907-2b40-4f3d-9845-d2e5bbec2e42{mix-blend-mode:lighten;}.f6d840f3-0f68-423d-bb7c-fa1d89106cc3{fill:url(#b6ea3664-f3f0-4fa5-ae58-edb703d69157);}.ee1c3e21-61e7-4ace-8e39-442e125978d4{fill:url(#fa4eab57-8631-42a2-8ee7-1bfed271b763);}.a1a02494-410a-4d2c-a63c-01324fba3438,.bd4f6d19-7de9-42a4-be12-4ea3e9b7ac90{fill:#fff;}.a10780a7-fc50-40eb-ac62-1176f11b7206,.a5b2e16e-b288-428f-aa88-3cb8e17923e4,.a607d5f6-ce3f-4ee5-bc0b-7a760886d572,.a90e0223-c04e-46f1-b126-787834d4ed47,.a97529b0-cccc-4183-ad86-a5c0ee394def,.abdafb07-4e3f-4d59-bce5-e6de8d0bcf02,.b5b35947-2d21-4644-8e7f-a0eedca4f7c5,.b77ba824-181b-47d2-98ae-fef2ee3d92d0,.bb698e2b-d3f3-4c7a-abfd-fd1da61f2959,.bd4f6d19-7de9-42a4-be12-4ea3e9b7ac90,.ecc3ea77-1dc9-4bd0-b92f-f90c5e4e90ec,.ece860a5-125b-4510-a4d9-076a4ca11099,.f2244703-f172-4083-99a2-774666a1d861,.f4f757d8-a38a-417d-8a93-f24c0257dd0f,.f77f6e7f-d98d-4577-af8d-6353d13c5423,.f89317c2-1d61-40f9-998f-793546e3d571,.f9e91d07-5074-4060-8a08-fcb10d7ba944,.fb123266-d233-49a7-892f-2cb42c04975b,.ffed87cc-674b-4878-bd8a-5b223702c585{opacity:0.5;}.e6bbadcf-4621-4138-b4fd-6fa8bf6b78ec{fill:#0f054c;}.a90e0223-c04e-46f1-b126-787834d4ed47{fill:url(#e44f16c0-e8d4-43e8-8b40-a34e2d221db5);}.a607d5f6-ce3f-4ee5-bc0b-7a760886d572{fill:url(#b4159dc8-b312-48dd-8801-9ba57534a595);}.f2244703-f172-4083-99a2-774666a1d861{fill:url(#ea9d8fc6-205f-4d1d-aae3-0a42bf310a73);}.b5b35947-2d21-4644-8e7f-a0eedca4f7c5{fill:url(#e3a95c9d-7d5c-4496-b089-c4ee57663382);}.ffed87cc-674b-4878-bd8a-5b223702c585{fill:url(#ae576c94-36fd-4c97-a40d-f2b4626f6998);}.ece860a5-125b-4510-a4d9-076a4ca11099{fill:url(#a0a0fe5f-479c-4647-a627-39ce98fa4bf4);}.a8c6c40b-0870-4024-8558-ca2e0715679f{fill:url(#a7000e89-318c-4d6d-81bf-16bd7614521d);}.aac0ac64-357f-4bee-90c7-c8ee6ab4922f{fill:url(#e10dd50e-df47-4d85-98e2-55c84aacbec1);}.a97529b0-cccc-4183-ad86-a5c0ee394def{fill:url(#e60433d2-25de-44fe-ae61-7892c54ddf6d);}.f77f6e7f-d98d-4577-af8d-6353d13c5423{fill:url(#eb303e6e-b783-4440-a00a-ceb0bcf24f6a);}.fb123266-d233-49a7-892f-2cb42c04975b{fill:url(#fe589304-8047-4ffb-9671-b784bf8daf82);}.bb698e2b-d3f3-4c7a-abfd-fd1da61f2959{fill:url(#a885119e-38b9-4b42-9799-ada1133064ab);}.a5b2e16e-b288-428f-aa88-3cb8e17923e4{fill:url(#e7c3e3f9-bd19-4f6f-9122-ace85cef08fb);}.f9e91d07-5074-4060-8a08-fcb10d7ba944{fill:url(#b91fd9f2-ca47-4cd4-8e77-1ab639149b71);}.ea1dd5e5-1f60-4d74-9b68-2b4bccd7a87d{fill:url(#ff5e647d-121d-40c7-a3fc-650cf7a61843);}.ef26f29a-2280-4303-b511-04b719a3d9a3{fill:url(#b1a2ef9d-a130-4844-8bee-044cf14d6194);}.abdafb07-4e3f-4d59-bce5-e6de8d0bcf02{fill:url(#bd060ae1-7904-4b83-8f26-d60a26b903be);}.b77ba824-181b-47d2-98ae-fef2ee3d92d0{fill:url(#ec481863-4bd7-41a3-9ef5-8d5186d8b94b);}.f89317c2-1d61-40f9-998f-793546e3d571{fill:url(#add786a2-7ab9-4a1c-910a-bf15ee157ab6);}.ecc3ea77-1dc9-4bd0-b92f-f90c5e4e90ec{fill:url(#e6b152ad-bf9c-47ee-9b68-539205dc2073);}.f4f757d8-a38a-417d-8a93-f24c0257dd0f{fill:url(#eb917a9a-33db-41f1-97b0-c229126b4601);}.a10780a7-fc50-40eb-ac62-1176f11b7206{fill:url(#ea9e2f59-6e4f-413f-bea6-46f821be505b);}.a0cb07aa-6f88-43a3-b5a7-baa0498a60ef{fill:url(#a0343599-9c63-416b-a9f3-f257ffaba3e9);}.a826d444-b779-4f67-8e19-5c20eded36c3{fill:url(#e0646557-d1c6-457d-b3de-14f16d7d2fff);}.f2cbdc0b-4182-4d83-9859-e5e4e0b4f044{fill:#24126a;}.eabffb93-fd15-47f4-a9af-7428fd00bf86{opacity:0.51;}.f08768a5-d629-47c1-a366-ee6f9448edd3{fill:#453c9e;}.a8bb9fb0-b5df-4385-be01-9679f4e0d021{fill:url(#bd40fbff-ce76-497d-abb4-02d603cb996b);}.a4d531e1-31a9-484f-8676-cc720eabd058{fill:url(#bc02b5c6-46f9-49d8-be48-8b87ca262623);}.ac6e44fd-e4f9-405e-aadf-a8603103cc5d{fill:#2842a2;}.b9b19c13-472b-4f82-8bac-d0a988fbc1b3{fill:#adb1f2;}.a993f5a4-3788-4f1b-b676-5cc7ee2e5981{fill:#9198db;}.eca322e8-874b-4d70-adab-ed78eb611473{fill:url(#bf289b4d-ec28-406e-beb4-040b4493c175);}.f5f402c6-bd96-4afd-aafd-a9e636eee4a2{opacity:0.11;}.af8cf058-f456-43ac-8930-52ac14429d8e{clip-path:url(#b7438020-863f-42ad-af12-a53a2c0f19cd);}.aa884e47-e051-4b73-8b4b-778b953582e9{fill:url(#b7326a46-0870-4cf5-90cc-31da3db1f7a0);}.b20bea80-cad0-4f68-bd3c-ca6fcdb8d670{fill:url(#b891bd53-1f49-4223-853a-3eac6f36c766);}.f59317f9-7f7b-4cb4-9979-6799cac91601,.f66321be-9846-4dcb-9af0-bcc3eda6ae40{fill:#42e8e0;}.f66321be-9846-4dcb-9af0-bcc3eda6ae40{opacity:0.8;}</style><linearGradient id="b6ea3664-f3f0-4fa5-ae58-edb703d69157" x1="4.01" y1="228.52" x2="73.84" y2="228.52" gradientUnits="userSpaceOnUse"><stop offset="0.25" stop-color="#5761d7"/><stop offset="0.44" stop-color="#6c74df"/><stop offset="0.82" stop-color="#a2a6f5"/><stop offset="1" stop-color="#bcbeff"/></linearGradient><linearGradient id="fa4eab57-8631-42a2-8ee7-1bfed271b763" x1="4.01" y1="209.43" x2="102.01" y2="209.43" gradientUnits="userSpaceOnUse"><stop offset="0" stop-color="#c0bff6"/><stop offset="0.29" stop-color="#c5c4f7"/><stop offset="0.64" stop-color="#d3d2f9"/><stop offset="1" stop-color="#e9e9fd"/></linearGradient><linearGradient id="e44f16c0-e8d4-43e8-8b40-a34e2d221db5" x1="22.72" y1="209.43" x2="83.3" y2="209.43" gradientUnits="userSpaceOnUse"><stop offset="0" stop-color="#42e8e0"/><stop offset="0.15" stop-color="#43e3e0"/><stop offset="0.33" stop-color="#45d5df"/><stop offset="0.52" stop-color="#49bddd"/><stop offset="0.72" stop-color="#4e9cdb"/><stop offset="0.93" stop-color="#5472d8"/><stop offset="1" stop-color="#5761d7"/></linearGradient><linearGradient id="b4159dc8-b312-48dd-8801-9ba57534a595" x1="53.01" y1="188.45" x2="83.3" y2="188.45" xlink:href="#e44f16c0-e8d4-43e8-8b40-a34e2d221db5"/><linearGradient id="ea9d8fc6-205f-4d1d-aae3-0a42bf310a73" x1="22.72" y1="188.45" x2="53.01" y2="188.45" xlink:href="#e44f16c0-e8d4-43e8-8b40-a34e2d221db5"/><linearGradient id="e3a95c9d-7d5c-4496-b089-c4ee57663382" x1="22.72" y1="184.96" x2="83.3" y2="184.96" xlink:href="#e44f16c0-e8d4-43e8-8b40-a34e2d221db5"/><linearGradient id="ae576c94-36fd-4c97-a40d-f2b4626f6998" x1="53.01" y1="205.94" x2="83.3" y2="205.94" xlink:href="#e44f16c0-e8d4-43e8-8b40-a34e2d221db5"/><linearGradient id="a0a0fe5f-479c-4647-a627-39ce98fa4bf4" x1="22.72" y1="205.94" x2="53.01" y2="205.94" xlink:href="#e44f16c0-e8d4-43e8-8b40-a34e2d221db5"/><linearGradient id="a7000e89-318c-4d6d-81bf-16bd7614521d" x1="70.76" y1="267.02" x2="140.59" y2="267.02" xlink:href="#b6ea3664-f3f0-4fa5-ae58-edb703d69157"/><linearGradient id="e10dd50e-df47-4d85-98e2-55c84aacbec1" x1="70.76" y1="247.93" x2="168.76" y2="247.93" xlink:href="#fa4eab57-8631-42a2-8ee7-1bfed271b763"/><linearGradient id="e60433d2-25de-44fe-ae61-7892c54ddf6d" x1="89.47" y1="247.93" x2="150.05" y2="247.93" xlink:href="#e44f16c0-e8d4-43e8-8b40-a34e2d221db5"/><linearGradient id="eb303e6e-b783-4440-a00a-ceb0bcf24f6a" x1="119.76" y1="226.95" x2="150.05" y2="226.95" xlink:href="#e44f16c0-e8d4-43e8-8b40-a34e2d221db5"/><linearGradient id="fe589304-8047-4ffb-9671-b784bf8daf82" x1="89.47" y1="226.95" x2="119.76" y2="226.95" xlink:href="#e44f16c0-e8d4-43e8-8b40-a34e2d221db5"/><linearGradient id="a885119e-38b9-4b42-9799-ada1133064ab" x1="89.47" y1="223.46" x2="150.05" y2="223.46" xlink:href="#e44f16c0-e8d4-43e8-8b40-a34e2d221db5"/><linearGradient id="e7c3e3f9-bd19-4f6f-9122-ace85cef08fb" x1="119.76" y1="244.44" x2="150.05" y2="244.44" xlink:href="#e44f16c0-e8d4-43e8-8b40-a34e2d221db5"/><linearGradient id="b91fd9f2-ca47-4cd4-8e77-1ab639149b71" x1="89.47" y1="244.44" x2="119.76" y2="244.44" xlink:href="#e44f16c0-e8d4-43e8-8b40-a34e2d221db5"/><linearGradient id="ff5e647d-121d-40c7-a3fc-650cf7a61843" x1="137.51" y1="305.52" x2="207.34" y2="305.52" xlink:href="#b6ea3664-f3f0-4fa5-ae58-edb703d69157"/><linearGradient id="b1a2ef9d-a130-4844-8bee-044cf14d6194" x1="137.51" y1="286.43" x2="235.51" y2="286.43" xlink:href="#fa4eab57-8631-42a2-8ee7-1bfed271b763"/><linearGradient id="bd060ae1-7904-4b83-8f26-d60a26b903be" x1="156.22" y1="286.43" x2="216.8" y2="286.43" xlink:href="#e44f16c0-e8d4-43e8-8b40-a34e2d221db5"/><linearGradient id="ec481863-4bd7-41a3-9ef5-8d5186d8b94b" x1="186.51" y1="265.45" x2="216.8" y2="265.45" xlink:href="#e44f16c0-e8d4-43e8-8b40-a34e2d221db5"/><linearGradient id="add786a2-7ab9-4a1c-910a-bf15ee157ab6" x1="156.22" y1="265.45" x2="186.51" y2="265.45" xlink:href="#e44f16c0-e8d4-43e8-8b40-a34e2d221db5"/><linearGradient id="e6b152ad-bf9c-47ee-9b68-539205dc2073" x1="156.22" y1="261.96" x2="216.8" y2="261.96" xlink:href="#e44f16c0-e8d4-43e8-8b40-a34e2d221db5"/><linearGradient id="eb917a9a-33db-41f1-97b0-c229126b4601" x1="186.51" y1="282.94" x2="216.8" y2="282.94" xlink:href="#e44f16c0-e8d4-43e8-8b40-a34e2d221db5"/><linearGradient id="ea9e2f59-6e4f-413f-bea6-46f821be505b" x1="156.22" y1="282.94" x2="186.51" y2="282.94" xlink:href="#e44f16c0-e8d4-43e8-8b40-a34e2d221db5"/><linearGradient id="a0343599-9c63-416b-a9f3-f257ffaba3e9" x1="-2488.54" y1="92.71" x2="-2332.12" y2="92.71" gradientTransform="matrix(-1, 0, 0, 1, -2136.06, 0)" xlink:href="#fa4eab57-8631-42a2-8ee7-1bfed271b763"/><linearGradient id="e0646557-d1c6-457d-b3de-14f16d7d2fff" x1="-2488.54" y1="132.82" x2="-2461.68" y2="132.82" gradientTransform="matrix(-1, 0, 0, 1, -2136.06, 0)" gradientUnits="userSpaceOnUse"><stop offset="0" stop-color="#5761d7"/><stop offset="0.18" stop-color="#5c66d9"/><stop offset="0.39" stop-color="#6a73df"/><stop offset="0.61" stop-color="#8289e8"/><stop offset="0.85" stop-color="#a3a7f5"/><stop offset="1" stop-color="#bcbeff"/></linearGradient><linearGradient id="bd40fbff-ce76-497d-abb4-02d603cb996b" x1="-2467.59" y1="177.92" x2="-2246.67" y2="177.92" xlink:href="#e0646557-d1c6-457d-b3de-14f16d7d2fff"/><linearGradient id="bc02b5c6-46f9-49d8-be48-8b87ca262623" x1="-2393.36" y1="170.55" x2="-2172.32" y2="170.55" gradientTransform="matrix(-1, 0, 0, 1, -2136.06, 0)" xlink:href="#fa4eab57-8631-42a2-8ee7-1bfed271b763"/><linearGradient id="bf289b4d-ec28-406e-beb4-040b4493c175" x1="-2355.93" y1="183.1" x2="-2299.35" y2="183.1" gradientTransform="matrix(-1, 0, 0, 1, -2136.06, 0)" xlink:href="#fa4eab57-8631-42a2-8ee7-1bfed271b763"/><clipPath id="b7438020-863f-42ad-af12-a53a2c0f19cd"><polygon id="fb425a7e-63a0-4660-bbdf-9a498fdec07b" data-name="SVGID" class="b2bf6a8a-f703-4d9b-99f8-3a49def44ff8" points="214.94 7.98 345.46 83.33 329.27 178.75 198.84 103.45 214.94 7.98"/></clipPath><linearGradient id="b7326a46-0870-4cf5-90cc-31da3db1f7a0" x1="-2477.81" y1="121.56" x2="-2256.77" y2="121.56" gradientTransform="matrix(-1, 0, 0, 1, -2136.06, 0)" xlink:href="#fa4eab57-8631-42a2-8ee7-1bfed271b763"/><linearGradient id="b891bd53-1f49-4223-853a-3eac6f36c766" x1="-2492.35" y1="105.33" x2="-2435.78" y2="105.33" gradientTransform="matrix(-1, 0, 0, 1, -2136.06, 0)" xlink:href="#fa4eab57-8631-42a2-8ee7-1bfed271b763"/></defs><g class="b37b58c0-fae3-4903-8e23-947e8d9b5c90"><g id="a0c59d11-abd8-47a2-9347-b74ef01167b8" data-name="Layer 2"><g id="b62bcc9f-cf84-4383-a75c-ce2d5ab75d04" data-name="—ÎÓÈ_1"><path class="a9faabd1-2c7d-442a-98b2-d0aa343cb0ab" d="M53,261.3,0,230.7l53-30.61,53,30.61ZM1.5,230.7,53,260.44l51.51-29.74L53,201Z"/><polygon class="f6d840f3-0f68-423d-bb7c-fa1d89106cc3" points="102.01 219.32 102.01 209.43 53.01 236.46 4.01 209.43 4.01 219.31 53.01 247.6 102.01 219.32"/><polygon class="ee1c3e21-61e7-4ace-8e39-442e125978d4" points="53.01 237.72 4.01 209.43 53.01 181.14 102.01 209.43 53.01 237.72"/><polygon class="bd4f6d19-7de9-42a4-be12-4ea3e9b7ac90" points="53.01 236.9 4.72 209.02 4.01 209.43 53.01 237.72 102.01 209.43 101.3 209.02 53.01 236.9"/><polygon class="e6bbadcf-4621-4138-b4fd-6fa8bf6b78ec" points="53.01 226.91 22.72 209.43 53.01 191.94 83.3 209.43 53.01 226.91"/><polygon class="a90e0223-c04e-46f1-b126-787834d4ed47" points="53.01 226.92 22.72 209.43 53.01 191.94 83.3 209.43 53.01 226.92"/><polygon class="a607d5f6-ce3f-4ee5-bc0b-7a760886d572" points="53.01 167.47 83.3 184.96 83.3 209.43 53.01 191.94 53.01 167.47"/><polygon class="f2244703-f172-4083-99a2-774666a1d861" points="53.01 191.94 22.72 209.43 22.72 184.96 53.01 167.47 53.01 191.94"/><polygon class="b5b35947-2d21-4644-8e7f-a0eedca4f7c5" points="53.01 202.45 22.72 184.96 53.01 167.47 83.3 184.96 53.01 202.45"/><polygon class="ffed87cc-674b-4878-bd8a-5b223702c585" points="53.01 202.45 53.01 226.92 83.3 209.43 83.3 184.96 53.01 202.45"/><polygon class="ece860a5-125b-4510-a4d9-076a4ca11099" points="22.72 184.96 22.72 209.43 53.01 226.92 53.01 202.45 22.72 184.96"/><rect class="a9faabd1-2c7d-442a-98b2-d0aa343cb0ab" x="124.51" y="244.9" width="59.58" height="0.7" transform="translate(-101.96 110.03) rotate(-30.01)"/><path class="a9faabd1-2c7d-442a-98b2-d0aa343cb0ab" d="M119.76,299.8l-53-30.6,53-30.61,53,30.61ZM68.25,269.2l51.51,29.74,51.51-29.74-51.51-29.74Z"/><polygon class="a8c6c40b-0870-4024-8558-ca2e0715679f" points="168.76 257.82 168.76 247.93 119.76 274.96 70.77 247.93 70.77 257.81 119.76 286.1 168.76 257.82"/><polygon class="aac0ac64-357f-4bee-90c7-c8ee6ab4922f" points="119.76 276.22 70.77 247.93 119.76 219.64 168.76 247.93 119.76 276.22"/><polygon class="bd4f6d19-7de9-42a4-be12-4ea3e9b7ac90" points="119.76 275.4 71.47 247.52 70.76 247.93 119.76 276.22 168.76 247.93 168.05 247.52 119.76 275.4"/><polygon class="e6bbadcf-4621-4138-b4fd-6fa8bf6b78ec" points="119.76 265.42 89.47 247.93 119.76 230.44 150.05 247.93 119.76 265.42"/><polygon class="a97529b0-cccc-4183-ad86-a5c0ee394def" points="119.76 265.42 89.47 247.93 119.76 230.44 150.05 247.93 119.76 265.42"/><polygon class="f77f6e7f-d98d-4577-af8d-6353d13c5423" points="119.76 205.97 150.05 223.46 150.05 247.93 119.76 230.44 119.76 205.97"/><polygon class="fb123266-d233-49a7-892f-2cb42c04975b" points="119.76 230.44 89.47 247.93 89.47 223.46 119.76 205.97 119.76 230.44"/><polygon class="bb698e2b-d3f3-4c7a-abfd-fd1da61f2959" points="119.76 240.95 89.47 223.46 119.76 205.97 150.05 223.46 119.76 240.95"/><polygon class="a5b2e16e-b288-428f-aa88-3cb8e17923e4" points="119.76 240.95 119.76 265.42 150.05 247.93 150.05 223.46 119.76 240.95"/><polygon class="f9e91d07-5074-4060-8a08-fcb10d7ba944" points="89.47 223.46 89.47 247.93 119.76 265.42 119.76 240.95 89.47 223.46"/><path class="a9faabd1-2c7d-442a-98b2-d0aa343cb0ab" d="M186.51,338.3l-53-30.6,53-30.61,53,30.61ZM135,307.7l51.51,29.74L238,307.7,186.51,278Z"/><polygon class="ea1dd5e5-1f60-4d74-9b68-2b4bccd7a87d" points="235.51 296.32 235.51 286.43 186.51 313.46 137.51 286.43 137.51 296.31 186.51 324.6 235.51 296.32"/><polygon class="ef26f29a-2280-4303-b511-04b719a3d9a3" points="186.51 314.72 137.51 286.43 186.51 258.14 235.51 286.43 186.51 314.72"/><polygon class="bd4f6d19-7de9-42a4-be12-4ea3e9b7ac90" points="186.51 313.9 138.22 286.02 137.51 286.43 186.51 314.72 235.51 286.43 234.8 286.02 186.51 313.9"/><polygon class="e6bbadcf-4621-4138-b4fd-6fa8bf6b78ec" points="186.51 303.92 156.22 286.43 186.51 268.94 216.8 286.43 186.51 303.92"/><polygon class="abdafb07-4e3f-4d59-bce5-e6de8d0bcf02" points="186.51 303.92 156.22 286.43 186.51 268.94 216.8 286.43 186.51 303.92"/><polygon class="b77ba824-181b-47d2-98ae-fef2ee3d92d0" points="186.51 244.47 216.8 261.96 216.8 286.43 186.51 268.94 186.51 244.47"/><polygon class="f89317c2-1d61-40f9-998f-793546e3d571" points="186.51 268.94 156.22 286.43 156.22 261.96 186.51 244.47 186.51 268.94"/><polygon class="ecc3ea77-1dc9-4bd0-b92f-f90c5e4e90ec" points="186.51 279.45 156.22 261.96 186.51 244.47 216.8 261.96 186.51 279.45"/><polygon class="f4f757d8-a38a-417d-8a93-f24c0257dd0f" points="186.51 279.45 186.51 303.92 216.8 286.43 216.8 261.96 186.51 279.45"/><polygon class="a10780a7-fc50-40eb-ac62-1176f11b7206" points="156.22 261.96 156.22 286.43 186.51 303.92 186.51 279.45 156.22 261.96"/><path class="a9faabd1-2c7d-442a-98b2-d0aa343cb0ab" d="M27.78,113.81a1,1,0,0,1-.46.79c-.25.14-.45,0-.45-.27a1,1,0,0,1,.45-.78C27.57,113.4,27.78,113.52,27.78,113.81Z"/><path class="a9faabd1-2c7d-442a-98b2-d0aa343cb0ab" d="M44.86,104a1,1,0,0,1-.46.79c-.25.14-.45,0-.45-.27a1,1,0,0,1,.45-.79A.28.28,0,0,1,44.86,104Z"/><path class="a9faabd1-2c7d-442a-98b2-d0aa343cb0ab" d="M27.78,133.53a1,1,0,0,1-.46.79c-.25.14-.45,0-.45-.26a1,1,0,0,1,.45-.79C27.57,133.12,27.78,133.24,27.78,133.53Z"/><path class="a9faabd1-2c7d-442a-98b2-d0aa343cb0ab" d="M44.86,123.67a1,1,0,0,1-.46.79c-.25.14-.45,0-.45-.27a1,1,0,0,1,.45-.78C44.65,123.26,44.86,123.38,44.86,123.67Z"/><path class="a9faabd1-2c7d-442a-98b2-d0aa343cb0ab" d="M61.94,94.09a1,1,0,0,1-.46.78c-.25.15-.45,0-.45-.26a1,1,0,0,1,.45-.79A.28.28,0,0,1,61.94,94.09Z"/><path class="a9faabd1-2c7d-442a-98b2-d0aa343cb0ab" d="M61.94,113.81a1,1,0,0,1-.46.79c-.25.14-.45,0-.45-.27a1,1,0,0,1,.45-.78C61.73,113.4,61.94,113.52,61.94,113.81Z"/><path class="a9faabd1-2c7d-442a-98b2-d0aa343cb0ab" d="M79,84.23a1,1,0,0,1-.46.78c-.25.15-.45,0-.45-.26a1,1,0,0,1,.45-.79A.28.28,0,0,1,79,84.23Z"/><path class="a9faabd1-2c7d-442a-98b2-d0aa343cb0ab" d="M79,104a1,1,0,0,1-.46.79c-.25.14-.45,0-.45-.27a1,1,0,0,1,.45-.79A.28.28,0,0,1,79,104Z"/><path class="a9faabd1-2c7d-442a-98b2-d0aa343cb0ab" d="M96.1,74.36a1,1,0,0,1-.46.79c-.25.15-.45,0-.45-.26a1,1,0,0,1,.45-.79C95.89,74,96.1,74.07,96.1,74.36Z"/><path class="a9faabd1-2c7d-442a-98b2-d0aa343cb0ab" d="M96.1,94.09a1,1,0,0,1-.46.78c-.25.15-.45,0-.45-.26a1,1,0,0,1,.45-.79A.28.28,0,0,1,96.1,94.09Z"/><path class="a9faabd1-2c7d-442a-98b2-d0aa343cb0ab" d="M113.18,64.5a1,1,0,0,1-.46.79c-.25.15-.45,0-.45-.26a1,1,0,0,1,.45-.79C113,64.09,113.18,64.21,113.18,64.5Z"/><path class="a9faabd1-2c7d-442a-98b2-d0aa343cb0ab" d="M113.18,84.22a1,1,0,0,1-.46.79c-.25.15-.45,0-.45-.26a1,1,0,0,1,.45-.79C113,83.82,113.18,83.93,113.18,84.22Z"/><path class="a9faabd1-2c7d-442a-98b2-d0aa343cb0ab" d="M130.26,54.64a1,1,0,0,1-.46.79c-.25.14-.45,0-.45-.26a1,1,0,0,1,.45-.79C130.05,54.23,130.26,54.35,130.26,54.64Z"/><path class="a9faabd1-2c7d-442a-98b2-d0aa343cb0ab" d="M130.26,74.36a1,1,0,0,1-.46.79c-.25.15-.45,0-.45-.26a1,1,0,0,1,.45-.79C130.05,74,130.26,74.07,130.26,74.36Z"/><path class="a9faabd1-2c7d-442a-98b2-d0aa343cb0ab" d="M147.34,44.78a1,1,0,0,1-.46.79c-.25.14-.45,0-.45-.26a1,1,0,0,1,.45-.79C147.13,44.37,147.34,44.49,147.34,44.78Z"/><path class="a9faabd1-2c7d-442a-98b2-d0aa343cb0ab" d="M147.34,64.5a1,1,0,0,1-.46.79c-.25.15-.45,0-.45-.26a1,1,0,0,1,.45-.79C147.13,64.09,147.34,64.21,147.34,64.5Z"/><path class="a9faabd1-2c7d-442a-98b2-d0aa343cb0ab" d="M164.42,34.92a1,1,0,0,1-.46.79c-.25.14-.45,0-.45-.27a1,1,0,0,1,.45-.78C164.21,34.51,164.42,34.63,164.42,34.92Z"/><path class="a9faabd1-2c7d-442a-98b2-d0aa343cb0ab" d="M164.42,54.64a1,1,0,0,1-.46.79c-.25.14-.45,0-.45-.26a1,1,0,0,1,.45-.79C164.21,54.23,164.42,54.35,164.42,54.64Z"/><path class="a9faabd1-2c7d-442a-98b2-d0aa343cb0ab" d="M27.78,153.25a1,1,0,0,1-.46.79c-.25.15-.45,0-.45-.26a1,1,0,0,1,.45-.79C27.57,152.84,27.78,153,27.78,153.25Z"/><path class="a9faabd1-2c7d-442a-98b2-d0aa343cb0ab" d="M44.86,143.39a1,1,0,0,1-.46.79c-.25.14-.45,0-.45-.26a1,1,0,0,1,.45-.79C44.65,143,44.86,143.1,44.86,143.39Z"/><path class="a9faabd1-2c7d-442a-98b2-d0aa343cb0ab" d="M61.94,133.53a1,1,0,0,1-.46.79c-.25.14-.45,0-.45-.26a1,1,0,0,1,.45-.79C61.73,133.12,61.94,133.24,61.94,133.53Z"/><path class="a9faabd1-2c7d-442a-98b2-d0aa343cb0ab" d="M79,123.67a1,1,0,0,1-.46.79c-.25.14-.45,0-.45-.27a1,1,0,0,1,.45-.78C78.81,123.26,79,123.38,79,123.67Z"/><path class="a9faabd1-2c7d-442a-98b2-d0aa343cb0ab" d="M96.1,113.81a1,1,0,0,1-.46.79c-.25.14-.45,0-.45-.27a1,1,0,0,1,.45-.78C95.89,113.4,96.1,113.52,96.1,113.81Z"/><path class="a9faabd1-2c7d-442a-98b2-d0aa343cb0ab" d="M113.18,104a1,1,0,0,1-.46.78c-.25.15-.45,0-.45-.26a1,1,0,0,1,.45-.79A.28.28,0,0,1,113.18,104Z"/><path class="a9faabd1-2c7d-442a-98b2-d0aa343cb0ab" d="M130.26,94.09a1,1,0,0,1-.46.78c-.25.15-.45,0-.45-.26a1,1,0,0,1,.45-.79A.28.28,0,0,1,130.26,94.09Z"/><path class="a9faabd1-2c7d-442a-98b2-d0aa343cb0ab" d="M147.34,84.22a1,1,0,0,1-.46.79c-.25.15-.45,0-.45-.26a1,1,0,0,1,.45-.79C147.13,83.82,147.34,83.93,147.34,84.22Z"/><path class="a9faabd1-2c7d-442a-98b2-d0aa343cb0ab" d="M164.42,74.36a1,1,0,0,1-.46.79c-.25.15-.45,0-.45-.26a1,1,0,0,1,.45-.79C164.21,74,164.42,74.07,164.42,74.36Z"/><path class="a9faabd1-2c7d-442a-98b2-d0aa343cb0ab" d="M27.78,173a1,1,0,0,1-.46.79c-.25.15-.45,0-.45-.26a1,1,0,0,1,.45-.79C27.57,172.57,27.78,172.68,27.78,173Z"/><path class="a9faabd1-2c7d-442a-98b2-d0aa343cb0ab" d="M44.86,163.11a1,1,0,0,1-.46.79c-.25.15-.45,0-.45-.26a1,1,0,0,1,.45-.79C44.65,162.71,44.86,162.82,44.86,163.11Z"/><path class="a9faabd1-2c7d-442a-98b2-d0aa343cb0ab" d="M61.94,153.25a1,1,0,0,1-.46.79c-.25.15-.45,0-.45-.26a1,1,0,0,1,.45-.79C61.73,152.84,61.94,153,61.94,153.25Z"/><path class="a9faabd1-2c7d-442a-98b2-d0aa343cb0ab" d="M79,143.39a1,1,0,0,1-.46.79c-.25.14-.45,0-.45-.26a1,1,0,0,1,.45-.79C78.81,143,79,143.1,79,143.39Z"/><path class="a9faabd1-2c7d-442a-98b2-d0aa343cb0ab" d="M96.1,133.53a1,1,0,0,1-.46.79c-.25.14-.45,0-.45-.27a1,1,0,0,1,.45-.78C95.89,133.12,96.1,133.24,96.1,133.53Z"/><path class="a9faabd1-2c7d-442a-98b2-d0aa343cb0ab" d="M113.18,123.67a1,1,0,0,1-.46.79c-.25.14-.45,0-.45-.27a1,1,0,0,1,.45-.78C113,123.26,113.18,123.38,113.18,123.67Z"/><path class="a9faabd1-2c7d-442a-98b2-d0aa343cb0ab" d="M130.26,113.81a1,1,0,0,1-.46.79c-.25.14-.45,0-.45-.27a1,1,0,0,1,.45-.79A.28.28,0,0,1,130.26,113.81Z"/><path class="a9faabd1-2c7d-442a-98b2-d0aa343cb0ab" d="M147.34,104a1,1,0,0,1-.46.78c-.25.15-.45,0-.45-.26a1,1,0,0,1,.45-.79A.28.28,0,0,1,147.34,104Z"/><path class="a9faabd1-2c7d-442a-98b2-d0aa343cb0ab" d="M164.42,94.08a1,1,0,0,1-.46.79c-.25.15-.45,0-.45-.26a1,1,0,0,1,.45-.79C164.21,93.68,164.42,93.79,164.42,94.08Z"/><path class="a9faabd1-2c7d-442a-98b2-d0aa343cb0ab" d="M27.78,192.7a1,1,0,0,1-.46.78c-.25.15-.45,0-.45-.26a1,1,0,0,1,.45-.79A.28.28,0,0,1,27.78,192.7Z"/><path class="a9faabd1-2c7d-442a-98b2-d0aa343cb0ab" d="M44.86,182.84a1,1,0,0,1-.46.78c-.25.15-.45,0-.45-.26a1,1,0,0,1,.45-.79A.28.28,0,0,1,44.86,182.84Z"/><path class="a9faabd1-2c7d-442a-98b2-d0aa343cb0ab" d="M61.94,173a1,1,0,0,1-.46.79c-.25.15-.45,0-.45-.26a1,1,0,0,1,.45-.79C61.73,172.57,61.94,172.68,61.94,173Z"/><path class="a9faabd1-2c7d-442a-98b2-d0aa343cb0ab" d="M79,163.11a1,1,0,0,1-.46.79c-.25.15-.45,0-.45-.26a1,1,0,0,1,.45-.79C78.81,162.71,79,162.82,79,163.11Z"/><path class="a9faabd1-2c7d-442a-98b2-d0aa343cb0ab" d="M96.1,153.25a1,1,0,0,1-.46.79c-.25.14-.45,0-.45-.26a1,1,0,0,1,.45-.79C95.89,152.84,96.1,153,96.1,153.25Z"/><path class="a9faabd1-2c7d-442a-98b2-d0aa343cb0ab" d="M113.18,143.39a1,1,0,0,1-.46.79c-.25.14-.45,0-.45-.26a1,1,0,0,1,.45-.79C113,143,113.18,143.1,113.18,143.39Z"/><path class="a9faabd1-2c7d-442a-98b2-d0aa343cb0ab" d="M130.26,133.53a1,1,0,0,1-.46.79c-.25.14-.45,0-.45-.27a1,1,0,0,1,.45-.78C130.05,133.12,130.26,133.24,130.26,133.53Z"/><path class="a9faabd1-2c7d-442a-98b2-d0aa343cb0ab" d="M147.34,123.67a1,1,0,0,1-.46.79c-.25.14-.45,0-.45-.27a1,1,0,0,1,.45-.78C147.13,123.26,147.34,123.38,147.34,123.67Z"/><path class="a9faabd1-2c7d-442a-98b2-d0aa343cb0ab" d="M164.42,113.81a1,1,0,0,1-.46.78c-.25.15-.45,0-.45-.26a1,1,0,0,1,.45-.79A.28.28,0,0,1,164.42,113.81Z"/><path class="a9faabd1-2c7d-442a-98b2-d0aa343cb0ab" d="M27.78,212.42a1,1,0,0,1-.46.79c-.25.14-.45,0-.45-.27a1,1,0,0,1,.45-.78C27.57,212,27.78,212.13,27.78,212.42Z"/><path class="a9faabd1-2c7d-442a-98b2-d0aa343cb0ab" d="M44.86,202.56a1,1,0,0,1-.46.79c-.25.14-.45,0-.45-.27a1,1,0,0,1,.45-.79A.28.28,0,0,1,44.86,202.56Z"/><path class="a9faabd1-2c7d-442a-98b2-d0aa343cb0ab" d="M61.94,192.7a1,1,0,0,1-.46.78c-.25.15-.45,0-.45-.26a1,1,0,0,1,.45-.79A.28.28,0,0,1,61.94,192.7Z"/><path class="a9faabd1-2c7d-442a-98b2-d0aa343cb0ab" d="M79,182.83a1,1,0,0,1-.46.79c-.25.15-.45,0-.45-.26a1,1,0,0,1,.45-.79C78.81,182.43,79,182.54,79,182.83Z"/><path class="a9faabd1-2c7d-442a-98b2-d0aa343cb0ab" d="M96.1,173a1,1,0,0,1-.46.79c-.25.15-.45,0-.45-.26a1,1,0,0,1,.45-.79C95.89,172.57,96.1,172.68,96.1,173Z"/><path class="a9faabd1-2c7d-442a-98b2-d0aa343cb0ab" d="M113.18,163.11a1,1,0,0,1-.46.79c-.25.15-.45,0-.45-.26a1,1,0,0,1,.45-.79C113,162.7,113.18,162.82,113.18,163.11Z"/><path class="a9faabd1-2c7d-442a-98b2-d0aa343cb0ab" d="M130.26,153.25a1,1,0,0,1-.46.79c-.25.14-.45,0-.45-.26a1,1,0,0,1,.45-.79C130.05,152.84,130.26,153,130.26,153.25Z"/><path class="a9faabd1-2c7d-442a-98b2-d0aa343cb0ab" d="M147.34,143.39a1,1,0,0,1-.46.79c-.25.14-.45,0-.45-.26a1,1,0,0,1,.45-.79C147.13,143,147.34,143.1,147.34,143.39Z"/><path class="a9faabd1-2c7d-442a-98b2-d0aa343cb0ab" d="M164.42,133.53a1,1,0,0,1-.46.79c-.25.14-.45,0-.45-.27a1,1,0,0,1,.45-.78C164.21,133.12,164.42,133.24,164.42,133.53Z"/><path class="a9faabd1-2c7d-442a-98b2-d0aa343cb0ab" d="M181.5,64.5a1,1,0,0,1-.46.79c-.25.14-.45,0-.45-.26a1,1,0,0,1,.45-.79C181.29,64.09,181.5,64.21,181.5,64.5Z"/><path class="a9faabd1-2c7d-442a-98b2-d0aa343cb0ab" d="M181.5,84.22A1,1,0,0,1,181,85c-.25.15-.45,0-.45-.26A1,1,0,0,1,181,84C181.29,83.82,181.5,83.93,181.5,84.22Z"/><path class="a9faabd1-2c7d-442a-98b2-d0aa343cb0ab" d="M181.5,104a1,1,0,0,1-.46.78c-.25.15-.45,0-.45-.26a1,1,0,0,1,.45-.79A.28.28,0,0,1,181.5,104Z"/><path class="a9faabd1-2c7d-442a-98b2-d0aa343cb0ab" d="M181.5,123.67a1,1,0,0,1-.46.79c-.25.14-.45,0-.45-.27a1,1,0,0,1,.45-.79A.28.28,0,0,1,181.5,123.67Z"/><path class="a9faabd1-2c7d-442a-98b2-d0aa343cb0ab" d="M198.58,54.64a1,1,0,0,1-.46.79c-.25.14-.45,0-.45-.26a1,1,0,0,1,.45-.79C198.37,54.23,198.58,54.35,198.58,54.64Z"/><path class="a9faabd1-2c7d-442a-98b2-d0aa343cb0ab" d="M198.58,74.36a1,1,0,0,1-.46.79c-.25.15-.45,0-.45-.26a1,1,0,0,1,.45-.79C198.37,74,198.58,74.07,198.58,74.36Z"/><path class="a9faabd1-2c7d-442a-98b2-d0aa343cb0ab" d="M198.58,94.08a1,1,0,0,1-.46.79c-.25.15-.45,0-.45-.26a1,1,0,0,1,.45-.79C198.37,93.68,198.58,93.79,198.58,94.08Z"/><path class="a9faabd1-2c7d-442a-98b2-d0aa343cb0ab" d="M198.58,113.81a1,1,0,0,1-.46.78c-.25.15-.45,0-.45-.26a1,1,0,0,1,.45-.79A.28.28,0,0,1,198.58,113.81Z"/><path class="a9faabd1-2c7d-442a-98b2-d0aa343cb0ab" d="M181.5,25.06a1,1,0,0,1-.46.79c-.25.14-.45,0-.45-.27a1,1,0,0,1,.45-.78C181.29,24.65,181.5,24.77,181.5,25.06Z"/><path class="a9faabd1-2c7d-442a-98b2-d0aa343cb0ab" d="M181.5,44.78a1,1,0,0,1-.46.79c-.25.14-.45,0-.45-.26a1,1,0,0,1,.45-.79C181.29,44.37,181.5,44.49,181.5,44.78Z"/><path class="a9faabd1-2c7d-442a-98b2-d0aa343cb0ab" d="M198.58,15.2a1,1,0,0,1-.46.78c-.25.15-.45,0-.45-.26a1,1,0,0,1,.45-.79A.28.28,0,0,1,198.58,15.2Z"/><path class="a9faabd1-2c7d-442a-98b2-d0aa343cb0ab" d="M198.58,34.92a1,1,0,0,1-.46.79c-.25.14-.45,0-.45-.27a1,1,0,0,1,.45-.78C198.37,34.51,198.58,34.63,198.58,34.92Z"/><g class="e9e4a907-2b40-4f3d-9845-d2e5bbec2e42"><path class="bec5a644-e117-4194-9083-546644bd6908" d="M243.36,265.76a10.73,10.73,0,0,1-5.35-1.43L116.4,194.12a2,2,0,0,1,0-3.46l75.74-43.73.18.1,126.78,73.2a2,2,0,0,1,0,3.46l-70.4,40.64A10.72,10.72,0,0,1,243.36,265.76Zm-51.22-118-75.39,43.52a1.29,1.29,0,0,0-.65,1.13,1.27,1.27,0,0,0,.65,1.12l121.61,70.22a10,10,0,0,0,10,0l70.4-40.65a1.29,1.29,0,0,0,.65-1.12,1.31,1.31,0,0,0-.65-1.13Z"/></g><path class="a0cb07aa-6f88-43a3-b5a7-baa0498a60ef" d="M196.09,102.43,213,1.92l-1.36-.58,2-1.17h0a1.48,1.48,0,0,1,1.58.11L350.7,78.47a3.81,3.81,0,0,1,1.75,3.44L335.38,183.22a1.28,1.28,0,0,1-.72,1h0l-2,1.15-.34-1.87.11,0L197.85,105.87A3.79,3.79,0,0,1,196.09,102.43Z"/><path class="a826d444-b779-4f67-8e19-5c20eded36c3" d="M349.94,81.22l2.23-1a3,3,0,0,1,.28,1.68L335.38,183.22a1.28,1.28,0,0,1-.72,1h0l-2,1.15-.34-1.87.11,0-6.81-3.93Z"/><path class="f2cbdc0b-4182-4d83-9859-e5e4e0b4f044" d="M195.72,107.09l135.41,78.18c1,.6,1.94.25,2.12-.83L350.33,83.13a3.83,3.83,0,0,0-1.76-3.44L213.16,1.51c-1-.6-1.94-.26-2.12.83L194,103.65A3.84,3.84,0,0,0,195.72,107.09Z"/><g class="eabffb93-fd15-47f4-a9af-7428fd00bf86"><polygon class="f08768a5-d629-47c1-a366-ee6f9448edd3" points="214.94 7.98 345.46 83.33 329.27 178.75 198.84 103.45 214.94 7.98"/></g><path class="a8bb9fb0-b5df-4385-be01-9679f4e0d021" d="M110.6,155.06l7.39,3.86,74.1-42.78a5.36,5.36,0,0,1,4.84.2l127.8,73.78c1.22-.68,6.79-3.36,6.79-3.36l-2.7,7.05h0a1.62,1.62,0,0,1-.76.84l-78,45.05a5.34,5.34,0,0,1-4.83-.2L114.4,164a2.33,2.33,0,0,1-1.1-1.17h0Z"/><path class="a4d531e1-31a9-484f-8676-cc720eabd058" d="M111.75,156.28l134,77.38a5.49,5.49,0,0,0,4.95.2l80-46.17c1.27-.74,1.11-2-.35-2.87l-134-77.38a5.52,5.52,0,0,0-5-.2l-80,46.17C110.12,154.15,110.28,155.43,111.75,156.28Z"/><path class="a1a02494-410a-4d2c-a63c-01324fba3438" d="M111.75,155.68l134,77.38a5.49,5.49,0,0,0,4.95.2l80-46.17a1.63,1.63,0,0,0,.81-.94,1.38,1.38,0,0,1-.81,1.54l-80,46.17a5.49,5.49,0,0,1-4.95-.2l-134-77.38c-1-.55-1.35-1.28-1.16-1.93A2.24,2.24,0,0,0,111.75,155.68Z"/><path class="ac6e44fd-e4f9-405e-aadf-a8603103cc5d" d="M286.2,216.92v-1.47c0-.14-.08-.2-.19-.14l-5.18,3a.46.46,0,0,0-.19.36v1.47c0,.14.09.2.19.14l5.18-3A.44.44,0,0,0,286.2,216.92Z"/><path class="ac6e44fd-e4f9-405e-aadf-a8603103cc5d" d="M278.45,221.39v-1.47c0-.14-.08-.2-.19-.14l-5.18,3a.45.45,0,0,0-.19.37v1.47c0,.14.08.2.19.14l5.18-3A.45.45,0,0,0,278.45,221.39Z"/><path class="b9b19c13-472b-4f82-8bac-d0a988fbc1b3" d="M309.86,183.36l-111.38-64.3a2.39,2.39,0,0,0-2.4,0L156.42,142a.86.86,0,0,0,0,1.49l111.33,64.27a2.39,2.39,0,0,0,2.4,0l39.71-22.92A.85.85,0,0,0,309.86,183.36Z"/><path class="a993f5a4-3788-4f1b-b676-5cc7ee2e5981" d="M309.86,184.84l-.4.23L198.48,121a2.39,2.39,0,0,0-2.4,0l-39.26,22.72-.4-.23a.86.86,0,0,1,0-1.49l39.66-22.94a2.39,2.39,0,0,1,2.4,0l111.38,64.3A.85.85,0,0,1,309.86,184.84Z"/><polygon class="f2cbdc0b-4182-4d83-9859-e5e4e0b4f044" points="193.09 124.87 289.84 180.73 294.14 178.24 197.39 122.39 193.09 124.87"/><polygon class="f2cbdc0b-4182-4d83-9859-e5e4e0b4f044" points="182.54 130.96 273.29 183.35 277.59 180.87 186.85 128.47 182.54 130.96"/><polygon class="f2cbdc0b-4182-4d83-9859-e5e4e0b4f044" points="175.68 134.92 282.52 196.61 286.82 194.13 179.98 132.44 175.68 134.92"/><polygon class="f2cbdc0b-4182-4d83-9859-e5e4e0b4f044" points="168.81 138.89 275.65 200.58 279.95 198.09 173.11 136.41 168.81 138.89"/><polygon class="f2cbdc0b-4182-4d83-9859-e5e4e0b4f044" points="161.94 142.86 268.78 204.54 273.08 202.06 166.24 140.37 161.94 142.86"/><polygon class="f2cbdc0b-4182-4d83-9859-e5e4e0b4f044" points="295.69 184.1 299.99 186.59 304.29 184.1 299.99 181.62 295.69 184.1"/><polygon class="f2cbdc0b-4182-4d83-9859-e5e4e0b4f044" points="280.51 187.52 289.44 192.68 293.74 190.19 284.81 185.04 280.51 187.52"/><path class="eca322e8-874b-4d70-adab-ed78eb611473" d="M194.2,198.92l-30-17.34a1.29,1.29,0,0,1,0-2.45l20.54-11.86a4.74,4.74,0,0,1,4.25,0l30,17.34a1.3,1.3,0,0,1,0,2.46l-20.53,11.85A4.68,4.68,0,0,1,194.2,198.92Z"/><path class="a993f5a4-3788-4f1b-b676-5cc7ee2e5981" d="M219,185.62l-30-17.34a4.68,4.68,0,0,0-4.25,0l-20.54,11.85a1.76,1.76,0,0,0-.73.73c-.31-.59-.08-1.26.73-1.73l20.54-11.86a4.74,4.74,0,0,1,4.25,0l30,17.34c.81.47,1.05,1.14.74,1.73A1.9,1.9,0,0,0,219,185.62Z"/><g class="f5f402c6-bd96-4afd-aafd-a9e636eee4a2"><g class="af8cf058-f456-43ac-8930-52ac14429d8e"><path class="aa884e47-e051-4b73-8b4b-778b953582e9" d="M196.2,107.28l134,77.39a5.53,5.53,0,0,0,4.95.2l80-46.18c1.27-.73,1.11-2-.35-2.86l-134-77.38a5.52,5.52,0,0,0-5-.21l-80,46.18C194.57,105.15,194.73,106.44,196.2,107.28Z"/><path class="b20bea80-cad0-4f68-bd3c-ca6fcdb8d670" d="M330.62,121.16l-30-17.34a1.3,1.3,0,0,1,0-2.46l20.54-11.85a4.68,4.68,0,0,1,4.25,0l30,17.34a1.29,1.29,0,0,1,0,2.45l-20.53,11.86A4.77,4.77,0,0,1,330.62,121.16Z"/><path class="a993f5a4-3788-4f1b-b676-5cc7ee2e5981" d="M355.41,107.85l-30-17.34a4.68,4.68,0,0,0-4.25,0l-20.54,11.86a1.8,1.8,0,0,0-.73.72c-.32-.59-.08-1.26.73-1.73l20.54-11.85a4.68,4.68,0,0,1,4.25,0l30,17.34c.81.46,1,1.13.74,1.73A1.85,1.85,0,0,0,355.41,107.85Z"/><path class="b9b19c13-472b-4f82-8bac-d0a988fbc1b3" d="M368.61,148.25,257.24,84a2.39,2.39,0,0,0-2.4,0l-39.67,23a.85.85,0,0,0,0,1.48L326.5,172.65a2.39,2.39,0,0,0,2.4,0l39.71-22.92A.85.85,0,0,0,368.61,148.25Z"/><path class="a993f5a4-3788-4f1b-b676-5cc7ee2e5981" d="M368.61,149.73l-.4.23-111-64.07a2.39,2.39,0,0,0-2.4,0l-39.27,22.72-.4-.23a.85.85,0,0,1,0-1.48l39.67-23a2.39,2.39,0,0,1,2.4,0l111.37,64.3A.85.85,0,0,1,368.61,149.73Z"/><polygon class="f2cbdc0b-4182-4d83-9859-e5e4e0b4f044" points="225.55 105.33 322.58 161.35 318.74 163.57 221.71 107.55 225.55 105.33"/><polygon class="f2cbdc0b-4182-4d83-9859-e5e4e0b4f044" points="235.78 99.43 328 152.68 324.16 154.9 231.93 101.65 235.78 99.43"/><polygon class="f2cbdc0b-4182-4d83-9859-e5e4e0b4f044" points="334.89 156.65 343.5 161.63 339.66 163.84 331.05 158.87 334.89 156.65"/><polygon class="f2cbdc0b-4182-4d83-9859-e5e4e0b4f044" points="327.28 164.06 333.28 167.53 329.44 169.75 323.44 166.28 327.28 164.06"/><polygon class="f2cbdc0b-4182-4d83-9859-e5e4e0b4f044" points="242.18 95.73 349.91 157.93 346.06 160.15 238.34 97.95 242.18 95.73"/><polygon class="f2cbdc0b-4182-4d83-9859-e5e4e0b4f044" points="248.59 92.03 356.31 154.23 352.47 156.45 244.75 94.25 248.59 92.03"/><polygon class="f2cbdc0b-4182-4d83-9859-e5e4e0b4f044" points="255 88.33 362.72 150.53 358.88 152.75 251.15 90.55 255 88.33"/></g></g><polygon class="f59317f9-7f7b-4cb4-9979-6799cac91601" points="268.21 74.67 261.24 70.64 261.49 69.1 268.46 73.13 268.21 74.67"/><polygon class="f59317f9-7f7b-4cb4-9979-6799cac91601" points="271.78 76.73 269.27 75.28 269.52 73.75 272.03 75.2 271.78 76.73"/><polygon class="f59317f9-7f7b-4cb4-9979-6799cac91601" points="274.55 78.33 272.85 77.35 273.1 75.81 274.8 76.8 274.55 78.33"/><polygon class="f59317f9-7f7b-4cb4-9979-6799cac91601" points="264.47 76.33 260.67 74.14 260.92 72.6 264.72 74.8 264.47 76.33"/><polygon class="f59317f9-7f7b-4cb4-9979-6799cac91601" points="270.19 79.64 265.53 76.95 265.78 75.42 270.44 78.11 270.19 79.64"/><polygon class="f59317f9-7f7b-4cb4-9979-6799cac91601" points="272.96 81.24 271.25 80.26 271.5 78.72 273.2 79.71 272.96 81.24"/><polygon class="f59317f9-7f7b-4cb4-9979-6799cac91601" points="275.59 82.77 273.89 81.78 274.13 80.25 275.84 81.23 275.59 82.77"/><polygon class="f59317f9-7f7b-4cb4-9979-6799cac91601" points="262.85 79.23 260.11 77.64 260.35 76.11 263.1 77.69 262.85 79.23"/><polygon class="f59317f9-7f7b-4cb4-9979-6799cac91601" points="264.86 80.39 263.92 79.84 264.17 78.31 265.1 78.85 264.86 80.39"/><polygon class="f59317f9-7f7b-4cb4-9979-6799cac91601" points="267.62 81.99 265.92 81 266.17 79.47 267.87 80.45 267.62 81.99"/><polygon class="f59317f9-7f7b-4cb4-9979-6799cac91601" points="269.68 87.01 259.54 81.14 259.79 79.61 269.92 85.47 269.68 87.01"/><polygon class="f59317f9-7f7b-4cb4-9979-6799cac91601" points="273.25 89.07 270.74 87.62 270.99 86.09 273.5 87.54 273.25 89.07"/><polygon class="f59317f9-7f7b-4cb4-9979-6799cac91601" points="261.71 86.23 258.97 84.64 259.22 83.11 261.96 84.7 261.71 86.23"/><polygon class="f59317f9-7f7b-4cb4-9979-6799cac91601" points="268.16 89.96 262.78 86.85 263.03 85.31 268.41 88.43 268.16 89.96"/><polygon class="f59317f9-7f7b-4cb4-9979-6799cac91601" points="270.93 91.56 269.23 90.58 269.47 89.04 271.18 90.03 270.93 91.56"/><polygon class="f59317f9-7f7b-4cb4-9979-6799cac91601" points="264.02 91.4 258.4 88.14 258.65 86.61 264.27 89.86 264.02 91.4"/><polygon class="f59317f9-7f7b-4cb4-9979-6799cac91601" points="269.15 94.36 265.08 92.01 265.33 90.48 269.4 92.83 269.15 94.36"/><polygon class="f59317f9-7f7b-4cb4-9979-6799cac91601" points="272.96 96.57 270.21 94.98 270.46 93.45 273.21 95.03 272.96 96.57"/><polygon class="f59317f9-7f7b-4cb4-9979-6799cac91601" points="259.73 92.75 257.83 91.65 258.08 90.11 259.98 91.21 259.73 92.75"/><polygon class="f59317f9-7f7b-4cb4-9979-6799cac91601" points="263.3 94.81 260.79 93.36 261.04 91.83 263.55 93.28 263.3 94.81"/><polygon class="f59317f9-7f7b-4cb4-9979-6799cac91601" points="268.41 97.77 264.37 95.43 264.62 93.89 268.66 96.23 268.41 97.77"/><polygon class="f59317f9-7f7b-4cb4-9979-6799cac91601" points="263.08 98.51 257.26 95.15 257.51 93.62 263.33 96.98 263.08 98.51"/><polygon class="f59317f9-7f7b-4cb4-9979-6799cac91601" points="269.59 102.28 264.14 99.13 264.39 97.59 269.84 100.75 269.59 102.28"/><polygon class="f59317f9-7f7b-4cb4-9979-6799cac91601" points="272.36 103.88 270.65 102.9 270.9 101.36 272.61 102.35 272.36 103.88"/><polygon class="f59317f9-7f7b-4cb4-9979-6799cac91601" points="275.01 105.42 273.31 104.43 273.56 102.9 275.26 103.89 275.01 105.42"/><polygon class="f59317f9-7f7b-4cb4-9979-6799cac91601" points="260.18 100.67 256.69 98.65 256.94 97.12 260.43 99.13 260.18 100.67"/><polygon class="f59317f9-7f7b-4cb4-9979-6799cac91601" points="279.3 81.08 284.13 83.87 284.37 82.34 279.54 79.55 279.3 81.08"/><polygon class="f59317f9-7f7b-4cb4-9979-6799cac91601" points="279.76 85.18 283.56 87.38 283.81 85.84 280.01 83.64 279.76 85.18"/><polygon class="f59317f9-7f7b-4cb4-9979-6799cac91601" points="280.24 89.29 282.99 90.88 283.24 89.34 280.49 87.75 280.24 89.29"/><polygon class="f59317f9-7f7b-4cb4-9979-6799cac91601" points="278.43 92.07 282.42 94.38 282.67 92.85 278.67 90.53 278.43 92.07"/><polygon class="f59317f9-7f7b-4cb4-9979-6799cac91601" points="279.11 96.29 281.85 97.88 282.1 96.35 279.35 94.76 279.11 96.29"/><polygon class="f59317f9-7f7b-4cb4-9979-6799cac91601" points="277.8 99.37 281.28 101.38 281.53 99.85 278.05 97.83 277.8 99.37"/><polygon class="f59317f9-7f7b-4cb4-9979-6799cac91601" points="278.82 103.79 280.71 104.89 280.96 103.35 279.06 102.25 278.82 103.79"/><polygon class="f59317f9-7f7b-4cb4-9979-6799cac91601" points="276.47 106.26 280.15 108.39 280.39 106.85 276.72 104.73 276.47 106.26"/><polygon class="f59317f9-7f7b-4cb4-9979-6799cac91601" points="276.09 109.87 279.58 111.89 279.83 110.36 276.34 108.34 276.09 109.87"/><polygon class="f59317f9-7f7b-4cb4-9979-6799cac91601" points="262.72 102.14 261.24 101.28 261.49 99.75 262.97 100.61 262.72 102.14"/><polygon class="f59317f9-7f7b-4cb4-9979-6799cac91601" points="267.12 104.68 263.79 102.75 264.04 101.22 267.37 103.15 267.12 104.68"/><polygon class="f59317f9-7f7b-4cb4-9979-6799cac91601" points="268.23 116.46 262.6 113.21 262.85 111.68 268.48 114.93 268.23 116.46"/><polygon class="f59317f9-7f7b-4cb4-9979-6799cac91601" points="272.08 118.69 269.87 117.41 270.11 115.88 272.33 117.16 272.08 118.69"/><path class="f59317f9-7f7b-4cb4-9979-6799cac91601" d="M286.76,136.07a1.71,1.71,0,0,1-.83-.23l-42.51-24.55a2.86,2.86,0,0,1-1.26-2.79l9.29-56.27a1.66,1.66,0,0,1,.88-1.28,1.54,1.54,0,0,1,1.41.1L296.25,75.6a2.84,2.84,0,0,1,1.26,2.79l-9.29,56.27a1.66,1.66,0,0,1-.88,1.28A1.29,1.29,0,0,1,286.76,136.07Zm-33.84-84.2a.35.35,0,0,0-.14,0,.65.65,0,0,0-.29.5l-9.29,56.27a1.83,1.83,0,0,0,.75,1.71h0l42.51,24.55a.52.52,0,0,0,.44.06.65.65,0,0,0,.28-.5l9.29-56.27a1.8,1.8,0,0,0-.74-1.71L253.21,52A.66.66,0,0,0,252.92,51.87Z"/><polygon class="f66321be-9846-4dcb-9af0-bcc3eda6ae40" points="53.01 201.62 23.44 184.55 22.72 184.96 53.01 202.45 83.3 184.96 82.58 184.55 53.01 201.62"/><polygon class="f66321be-9846-4dcb-9af0-bcc3eda6ae40" points="119.76 240.12 90.19 223.05 89.47 223.46 119.76 240.95 150.05 223.46 149.33 223.05 119.76 240.12"/><polygon class="f66321be-9846-4dcb-9af0-bcc3eda6ae40" points="186.51 278.62 156.94 261.55 156.22 261.96 186.51 279.45 216.8 261.96 216.08 261.55 186.51 278.62"/></g></g></g></svg>