<svg width="343" height="37" viewBox="0 0 343 37" fill="none" xmlns="http://www.w3.org/2000/svg">
<path d="M66.1125 26.9822H61.0044V10.4295H66.3388C67.9445 10.4295 69.3185 10.7609 70.4608 11.4236C71.6031 12.081 72.4787 13.0266 73.0876 14.2605C73.6964 15.4891 74.0009 16.9601 74.0009 18.6735C74.0009 20.3977 73.6937 21.8822 73.0795 23.1269C72.4652 24.3662 71.5708 25.3199 70.3961 25.988C69.2215 26.6508 67.7936 26.9822 66.1125 26.9822ZM63.0089 25.2041H65.9832C67.3518 25.2041 68.486 24.94 69.3858 24.412C70.2857 23.8839 70.9565 23.1323 71.3983 22.157C71.8402 21.1817 72.0611 20.0206 72.0611 18.6735C72.0611 17.3372 71.8429 16.1868 71.4064 15.2223C70.97 14.2525 70.318 13.5089 69.4505 12.9916C68.583 12.469 67.5026 12.2076 66.2095 12.2076H63.0089V25.2041ZM82.5539 10.4295V26.9822H80.5495V10.4295H82.5539ZM90.4382 26.9822H88.3368L94.4147 10.4295H96.4838L102.562 26.9822H100.46L95.5139 13.0482H95.3846L90.4382 26.9822ZM91.2141 20.5163H99.6844V22.2944H91.2141V20.5163ZM108.326 10.4295H110.719L116.344 24.1695H116.538L122.163 10.4295H124.556V26.9822H122.681V14.406H122.519L117.346 26.9822H115.536L110.363 14.406H110.202V26.9822H108.326V10.4295ZM145.727 18.7058C145.727 20.4516 145.412 21.9603 144.782 23.232C144.151 24.5036 143.287 25.4842 142.187 26.1739C141.088 26.8636 139.833 27.2085 138.421 27.2085C137.009 27.2085 135.754 26.8636 134.655 26.1739C133.555 25.4842 132.691 24.5036 132.06 23.232C131.43 21.9603 131.115 20.4516 131.115 18.7058C131.115 16.9601 131.43 15.4513 132.06 14.1797C132.691 12.9081 133.555 11.9274 134.655 11.2377C135.754 10.548 137.009 10.2032 138.421 10.2032C139.833 10.2032 141.088 10.548 142.187 11.2377C143.287 11.9274 144.151 12.9081 144.782 14.1797C145.412 15.4513 145.727 16.9601 145.727 18.7058ZM143.788 18.7058C143.788 17.2726 143.548 16.0629 143.068 15.0769C142.594 14.0908 141.95 13.3445 141.137 12.838C140.328 12.3316 139.423 12.0783 138.421 12.0783C137.419 12.0783 136.511 12.3316 135.697 12.838C134.889 13.3445 134.245 14.0908 133.766 15.0769C133.291 16.0629 133.054 17.2726 133.054 18.7058C133.054 20.1391 133.291 21.3488 133.766 22.3348C134.245 23.3209 134.889 24.0671 135.697 24.5736C136.511 25.0801 137.419 25.3334 138.421 25.3334C139.423 25.3334 140.328 25.0801 141.137 24.5736C141.95 24.0671 142.594 23.3209 143.068 22.3348C143.548 21.3488 143.788 20.1391 143.788 18.7058ZM165.41 10.4295V26.9822H163.47L154.45 13.9857H154.289V26.9822H152.284V10.4295H154.224L163.276 23.4583H163.438V10.4295H165.41ZM177.715 26.9822H172.607V10.4295H177.942C179.547 10.4295 180.921 10.7609 182.064 11.4236C183.206 12.081 184.081 13.0266 184.69 14.2605C185.299 15.4891 185.604 16.9601 185.604 18.6735C185.604 20.3977 185.296 21.8822 184.682 23.1269C184.068 24.3662 183.174 25.3199 181.999 25.988C180.824 26.6508 179.396 26.9822 177.715 26.9822ZM174.612 25.2041H177.586C178.955 25.2041 180.089 24.94 180.989 24.412C181.888 23.8839 182.559 23.1323 183.001 22.157C183.443 21.1817 183.664 20.0206 183.664 18.6735C183.664 17.3372 183.446 16.1868 183.009 15.2223C182.573 14.2525 181.921 13.5089 181.053 12.9916C180.186 12.469 179.105 12.2076 177.812 12.2076H174.612V25.2041ZM206.848 26.9822H201.74V10.4295H207.074C208.68 10.4295 210.054 10.7609 211.196 11.4236C212.339 12.081 213.214 13.0266 213.823 14.2605C214.432 15.4891 214.736 16.9601 214.736 18.6735C214.736 20.3977 214.429 21.8822 213.815 23.1269C213.201 24.3662 212.306 25.3199 211.132 25.988C209.957 26.6508 208.529 26.9822 206.848 26.9822ZM203.744 25.2041H206.719C208.087 25.2041 209.221 24.94 210.121 24.412C211.021 23.8839 211.692 23.1323 212.134 22.157C212.576 21.1817 212.797 20.0206 212.797 18.6735C212.797 17.3372 212.578 16.1868 212.142 15.2223C211.705 14.2525 211.053 13.5089 210.186 12.9916C209.318 12.469 208.238 12.2076 206.945 12.2076H203.744V25.2041ZM219.085 10.4295H221.38L225.971 18.1562H226.165L230.755 10.4295H233.051L227.07 20.1607V26.9822H225.065V20.1607L219.085 10.4295ZM251.955 10.4295V26.9822H250.016L240.996 13.9857H240.834V26.9822H238.83V10.4295H240.769L249.822 23.4583H249.983V10.4295H251.955ZM259.832 26.9822H257.73L263.808 10.4295H265.877L271.955 26.9822H269.854L264.907 13.0482H264.778L259.832 26.9822ZM260.608 20.5163H269.078V22.2944H260.608V20.5163ZM277.72 10.4295H280.112L285.738 24.1695H285.931L291.557 10.4295H293.949V26.9822H292.074V14.406H291.912L286.74 26.9822H284.929L279.757 14.406H279.595V26.9822H277.72V10.4295ZM303.159 10.4295V26.9822H301.155V10.4295H303.159ZM323.684 15.6022H321.68C321.561 15.0257 321.354 14.5192 321.057 14.0827C320.766 13.6463 320.411 13.2799 319.99 12.9835C319.575 12.6818 319.115 12.4555 318.608 12.3046C318.102 12.1537 317.574 12.0783 317.024 12.0783C316.022 12.0783 315.114 12.3316 314.3 12.838C313.492 13.3445 312.848 14.0908 312.369 15.0769C311.895 16.0629 311.657 17.2726 311.657 18.7058C311.657 20.1391 311.895 21.3488 312.369 22.3348C312.848 23.3209 313.492 24.0671 314.3 24.5736C315.114 25.0801 316.022 25.3334 317.024 25.3334C317.574 25.3334 318.102 25.2579 318.608 25.1071C319.115 24.9562 319.575 24.7326 319.99 24.4362C320.411 24.1345 320.766 23.7654 321.057 23.329C321.354 22.8871 321.561 22.3806 321.68 21.8095H323.684C323.533 22.6554 323.258 23.4125 322.86 24.0806C322.461 24.7488 321.965 25.3172 321.372 25.786C320.78 26.2494 320.114 26.6023 319.376 26.8448C318.643 27.0872 317.859 27.2085 317.024 27.2085C315.612 27.2085 314.357 26.8636 313.258 26.1739C312.159 25.4842 311.294 24.5036 310.663 23.232C310.033 21.9603 309.718 20.4516 309.718 18.7058C309.718 16.9601 310.033 15.4513 310.663 14.1797C311.294 12.9081 312.159 11.9274 313.258 11.2377C314.357 10.548 315.612 10.2032 317.024 10.2032C317.859 10.2032 318.643 10.3244 319.376 10.5669C320.114 10.8094 320.78 11.165 321.372 11.6338C321.965 12.0972 322.461 12.6629 322.86 13.3311C323.258 13.9938 323.533 14.7509 323.684 15.6022ZM339.162 14.5677C339.065 13.7487 338.671 13.1128 337.982 12.6602C337.292 12.2076 336.446 11.9813 335.444 11.9813C334.711 11.9813 334.07 12.0999 333.52 12.3369C332.976 12.574 332.55 12.9 332.243 13.3149C331.941 13.7298 331.791 14.2013 331.791 14.7293C331.791 15.1712 331.896 15.551 332.106 15.8689C332.321 16.1815 332.596 16.4428 332.93 16.6529C333.264 16.8577 333.614 17.0274 333.981 17.1621C334.347 17.2914 334.684 17.3965 334.991 17.4773L336.672 17.9299C337.103 18.0431 337.583 18.1993 338.111 18.3987C338.644 18.5981 339.154 18.8702 339.639 19.215C340.129 19.5545 340.533 19.9909 340.851 20.5244C341.169 21.0578 341.328 21.7125 341.328 22.4884C341.328 23.3828 341.093 24.1911 340.625 24.9131C340.161 25.6351 339.482 26.209 338.588 26.6346C337.699 27.0603 336.618 27.2731 335.347 27.2731C334.161 27.2731 333.135 27.0819 332.267 26.6993C331.405 26.3167 330.726 25.7833 330.231 25.099C329.74 24.4147 329.463 23.6199 329.398 22.7147H331.467C331.521 23.3397 331.731 23.857 332.098 24.2665C332.469 24.6706 332.938 24.9724 333.504 25.1717C334.075 25.3657 334.689 25.4627 335.347 25.4627C336.112 25.4627 336.799 25.3388 337.408 25.0909C338.017 24.8377 338.499 24.4874 338.855 24.0402C339.21 23.5876 339.388 23.0595 339.388 22.4561C339.388 21.9065 339.234 21.4592 338.927 21.1144C338.62 20.7695 338.216 20.4893 337.715 20.2738C337.214 20.0583 336.672 19.8697 336.09 19.7081L334.054 19.1261C332.76 18.7543 331.737 18.2236 330.982 17.5339C330.228 16.8442 329.851 15.9417 329.851 14.8263C329.851 13.8995 330.101 13.0913 330.602 12.4016C331.109 11.7065 331.788 11.1677 332.639 10.7851C333.496 10.3972 334.452 10.2032 335.508 10.2032C336.575 10.2032 337.524 10.3945 338.353 10.777C339.183 11.1542 339.841 11.6715 340.326 12.3289C340.816 12.9862 341.074 13.7325 341.101 14.5677H339.162Z" fill="#064895"/>
<path d="M38.5008 0H11.5675L0 11.6869L17.5449 29.4129L21.7093 25.2055L8.3324 11.6905L14.007 5.95372H36.0613L41.7359 11.6869L20.868 32.7739L25.0394 36.9884L50.0718 11.6905L38.5008 0Z" fill="#0075FF"/>
<path d="M34.3082 13.0455L25.0359 22.4171L15.7601 13.0455L18.9107 9.8624H31.1576L34.3082 13.0455Z" fill="#0066FF"/>
<path style="mix-blend-mode:multiply" d="M18.9107 9.85884L25.0359 16.0473L31.1576 9.85884H18.9107Z" fill="#8899D5"/>
</svg>
