<svg xmlns="http://www.w3.org/2000/svg" xmlns:xlink="http://www.w3.org/1999/xlink" viewBox="0 0 239.55 268.28"><defs><style>.a9783bea-d21c-4d00-a4b1-1db387ac9105,.b75752f8-8247-4e54-9238-8062892179c5{fill:#173d7a;}.b75752f8-8247-4e54-9238-8062892179c5{opacity:0.5;}.b8ab76ce-680a-4d85-a938-4b80250f4ed7{fill:url(#af81f28d-409f-4eac-aedd-70c871595089);}.bbe26f6f-6f05-445c-8193-b82303ed0b66{fill:#396caa;}.a8c76de9-6883-45b7-b55f-7b93e1e7ddf2{fill:#d4ecff;}.b4aadc9b-9571-47ca-ba50-c7d43900c283{fill:#5793ce;}.f9f2c1f1-8990-49e1-b34e-fc7d0e8988d2{fill:url(#b90e75a0-665f-4b1b-84e8-e5ba399d9c4b);}.a8d053eb-8e8c-4e27-87d0-4c6d4d7c159f{fill:#06033e;opacity:0.3;}.bf3f3c15-f267-4dad-899a-93b451a51752{fill:#fff;}.ab5e30ba-0eec-417e-a3ca-03164c0db13c{fill:#ff2c9c;}.a8690040-9153-4363-bfda-156ee939a1da{fill:url(#e5f112ce-3078-4071-8f3d-d0e46210070c);}.e06c1d13-ac1c-448b-8497-15eecb53b6b8{fill:url(#ad578cbf-b357-4c16-8faa-f949fb4c9f2c);}.f6ab0158-f9bb-495e-83c3-106750297b25{fill:url(#b76fc4be-ffe5-491c-a65a-b175fc35e733);}.bc9f333f-291f-460c-be24-b79b4f089222{fill:url(#bf40c193-48a7-4245-b671-71e21ba81ca4);}.b512f9ba-ebed-4560-8bfb-6e02bffcb0d6{fill:url(#fd898261-8721-4a17-be3f-145a2f8f4053);}.a170a5e9-d433-4cea-9c16-445db3714b32{fill:url(#f76bfd59-8c06-426c-82a5-ddd3360787a7);}</style><linearGradient id="af81f28d-409f-4eac-aedd-70c871595089" x1="-130.73" y1="1210.93" x2="-130.73" y2="1111.63" gradientTransform="matrix(0.87, 0.5, 0, 1.15, 261.8, -1205.03)" gradientUnits="userSpaceOnUse"><stop offset="0" stop-color="#2d0979"/><stop offset="1" stop-color="#5b04f7"/></linearGradient><linearGradient id="b90e75a0-665f-4b1b-84e8-e5ba399d9c4b" x1="-216.82" y1="1217.78" x2="-166.92" y2="1206.47" gradientTransform="matrix(0.87, 0.5, 0, 1.15, 261.8, -1205.03)" gradientUnits="userSpaceOnUse"><stop offset="0" stop-color="#3919bb"/><stop offset="1" stop-color="#6507fa"/></linearGradient><linearGradient id="e5f112ce-3078-4071-8f3d-d0e46210070c" x1="-214.51" y1="1283.88" x2="-214.51" y2="1184.58" xlink:href="#af81f28d-409f-4eac-aedd-70c871595089"/><linearGradient id="ad578cbf-b357-4c16-8faa-f949fb4c9f2c" x1="-300.6" y1="1290.73" x2="-250.7" y2="1279.42" xlink:href="#b90e75a0-665f-4b1b-84e8-e5ba399d9c4b"/><linearGradient id="b76fc4be-ffe5-491c-a65a-b175fc35e733" x1="-54.95" y1="1210.88" x2="-54.95" y2="1111.58" xlink:href="#af81f28d-409f-4eac-aedd-70c871595089"/><linearGradient id="bf40c193-48a7-4245-b671-71e21ba81ca4" x1="-141.04" y1="1217.73" x2="-91.14" y2="1206.43" xlink:href="#b90e75a0-665f-4b1b-84e8-e5ba399d9c4b"/><linearGradient id="fd898261-8721-4a17-be3f-145a2f8f4053" x1="-138.73" y1="1283.83" x2="-138.73" y2="1184.53" xlink:href="#af81f28d-409f-4eac-aedd-70c871595089"/><linearGradient id="f76bfd59-8c06-426c-82a5-ddd3360787a7" x1="-224.81" y1="1290.68" x2="-174.91" y2="1279.37" xlink:href="#b90e75a0-665f-4b1b-84e8-e5ba399d9c4b"/></defs><g id="ee6d5b84-838f-41de-a585-af42838383a5" data-name="Layer 2"><g id="b06c95ae-f2a7-44f6-8b59-b9f4aa73d3c4" data-name="—ÎÓÈ_1"><path class="b75752f8-8247-4e54-9238-8062892179c5" d="M119.44,185.81l-41.55-24c-1.52-.88-1.33-2.41.43-3.43l44-25.49a6.65,6.65,0,0,1,5.94-.25l41.55,24c1.52.88,1.33,2.42-.42,3.43l-44,25.5A6.63,6.63,0,0,1,119.44,185.81Z"/><path class="b8ab76ce-680a-4d85-a938-4b80250f4ed7" d="M170.8,140.69,126.37,115a7.5,7.5,0,0,1-3.13-6V2.74c0-2.3,1.4-3.36,3.13-2.36L170.8,26a7.49,7.49,0,0,1,3.12,6V138.32C173.92,140.63,172.52,141.69,170.8,140.69Z"/><path class="bbe26f6f-6f05-445c-8193-b82303ed0b66" d="M170.8,26,126.37.38a2,2,0,0,0-2-.18h0L73.62,29.46,76,38.31,122.26,170l50.52-29.14,0,0,.09-.05h0a2.8,2.8,0,0,0,1-2.5V32A7.49,7.49,0,0,0,170.8,26Z"/><path class="a8c76de9-6883-45b7-b55f-7b93e1e7ddf2" d="M170.8,26,126.37.38a2,2,0,0,0-2-.18h0L73.62,29.46,76,38.31,88.73,74.53l2.39,1.38,81.93-47.3A6.26,6.26,0,0,0,170.8,26Z"/><path class="b4aadc9b-9571-47ca-ba50-c7d43900c283" d="M120.11,169.93,75.68,144.28a7.5,7.5,0,0,1-3.13-6V32c0-2.3,1.4-3.36,3.13-2.37l44.43,25.66a7.47,7.47,0,0,1,3.13,6V167.56C123.24,169.87,121.84,170.92,120.11,169.93Z"/><path class="f9f2c1f1-8990-49e1-b34e-fc7d0e8988d2" d="M117.32,163.53,78.48,141.1a6.55,6.55,0,0,1-2.74-5.22V37.14c0-2,1.23-2.94,2.74-2.07l38.84,22.42a6.56,6.56,0,0,1,2.73,5.23v98.74C120.05,163.47,118.83,164.4,117.32,163.53Z"/><path class="f9f2c1f1-8990-49e1-b34e-fc7d0e8988d2" d="M117.32,163.53,78.48,141.1a6.55,6.55,0,0,1-2.74-5.22V37.14c0-2,1.23-2.94,2.74-2.07l38.84,22.42a6.56,6.56,0,0,1,2.73,5.23v98.74C120.05,163.47,118.83,164.4,117.32,163.53Z"/><path class="a9783bea-d21c-4d00-a4b1-1db387ac9105" d="M117.32,163.53,78.48,141.1a6.55,6.55,0,0,1-2.74-5.22V37.14c0-2,1.23-2.94,2.74-2.07l38.84,22.42a6.56,6.56,0,0,1,2.73,5.23v98.74C120.05,163.47,118.83,164.4,117.32,163.53Z"/><path class="bbe26f6f-6f05-445c-8193-b82303ed0b66" d="M118.58,162.78,79.74,140.36A6.57,6.57,0,0,1,77,135.13V36.39a3.24,3.24,0,0,1,.39-1.65c-1,0-1.66.89-1.66,2.4v98.74a6.55,6.55,0,0,0,2.74,5.22l38.84,22.43a1.59,1.59,0,0,0,2.34-.42A2.23,2.23,0,0,1,118.58,162.78Z"/><path class="a9783bea-d21c-4d00-a4b1-1db387ac9105" d="M117.32,118.19l-14.44-8.33-23,13.29,40.19,23.21V123.42A6.56,6.56,0,0,0,117.32,118.19Z"/><path class="a9783bea-d21c-4d00-a4b1-1db387ac9105" d="M117.32,98l-14.44-8.33-23,13.29,40.19,23.2V103.19A6.54,6.54,0,0,0,117.32,98Z"/><path class="a9783bea-d21c-4d00-a4b1-1db387ac9105" d="M117.32,77.73l-14.44-8.34-23,13.29,40.19,23.21V83A6.54,6.54,0,0,0,117.32,77.73Z"/><path class="a9783bea-d21c-4d00-a4b1-1db387ac9105" d="M117.32,57.49l-14.44-8.33-23,13.29,40.19,23.21V62.72A6.54,6.54,0,0,0,117.32,57.49Z"/><path class="a9783bea-d21c-4d00-a4b1-1db387ac9105" d="M117.32,57.49,85.36,39l-5.5,3.18,40.19,23.2v-2.7A6.54,6.54,0,0,0,117.32,57.49Z"/><polygon class="b4aadc9b-9571-47ca-ba50-c7d43900c283" points="120.05 65.42 79.86 42.22 79.86 55.01 120.05 78.21 120.05 65.42"/><polygon class="b4aadc9b-9571-47ca-ba50-c7d43900c283" points="120.05 85.66 79.86 62.45 79.86 75.24 120.05 98.45 120.05 85.66"/><polygon class="b4aadc9b-9571-47ca-ba50-c7d43900c283" points="120.05 105.89 79.86 82.69 79.86 95.47 120.05 118.68 120.05 105.89"/><polygon class="b4aadc9b-9571-47ca-ba50-c7d43900c283" points="120.05 126.13 79.86 102.92 79.86 115.71 120.05 138.91 120.05 126.13"/><polygon class="b4aadc9b-9571-47ca-ba50-c7d43900c283" points="120.05 146.36 79.86 123.15 79.86 135.94 120.05 159.15 120.05 146.36"/><path class="a9783bea-d21c-4d00-a4b1-1db387ac9105" d="M116.51,73.66,86.23,56.18a3.74,3.74,0,0,1-1.55-3V49.79c0-1.14.7-1.66,1.55-1.17L116.51,66.1a3.73,3.73,0,0,1,1.54,3v3.43C118.05,73.63,117.36,74.15,116.51,73.66Z"/><path class="a8d053eb-8e8c-4e27-87d0-4c6d4d7c159f" d="M87.76,55.52a3.72,3.72,0,0,1-1.55-3V49.14a2.43,2.43,0,0,1,.06-.49l0,0c-.85-.49-1.55,0-1.55,1.17v3.43a3.74,3.74,0,0,0,1.55,3l30.28,17.48A.93.93,0,0,0,118,73Z"/><path class="bf3f3c15-f267-4dad-899a-93b451a51752" d="M107,64.27,88.79,53.75a1.31,1.31,0,0,1-.55-1h0c0-.4.25-.59.55-.41L107,62.82a1.28,1.28,0,0,1,.55,1h0C107.55,64.26,107.31,64.44,107,64.27Z"/><path class="a9783bea-d21c-4d00-a4b1-1db387ac9105" d="M116.51,93.76,86.23,76.28a3.7,3.7,0,0,1-1.55-3V69.9c0-1.14.7-1.66,1.55-1.17l30.28,17.48a3.73,3.73,0,0,1,1.54,3v3.42C118.05,93.73,117.36,94.26,116.51,93.76Z"/><path class="a8d053eb-8e8c-4e27-87d0-4c6d4d7c159f" d="M87.76,75.63a3.72,3.72,0,0,1-1.55-3V69.25a2.45,2.45,0,0,1,.06-.5l0,0c-.85-.49-1.55,0-1.55,1.17v3.43a3.7,3.7,0,0,0,1.55,3l30.28,17.48a.92.92,0,0,0,1.49-.67Z"/><path class="bf3f3c15-f267-4dad-899a-93b451a51752" d="M107,84.38,88.79,73.86a1.32,1.32,0,0,1-.55-1h0c0-.4.25-.59.55-.41L107,82.93a1.26,1.26,0,0,1,.55,1h0C107.55,84.37,107.31,84.55,107,84.38Z"/><path class="a9783bea-d21c-4d00-a4b1-1db387ac9105" d="M116.51,114.06,86.23,96.58a3.72,3.72,0,0,1-1.55-3V90.2c0-1.14.7-1.67,1.55-1.17l30.28,17.48a3.71,3.71,0,0,1,1.54,3v3.42C118.05,114,117.36,114.55,116.51,114.06Z"/><path class="a8d053eb-8e8c-4e27-87d0-4c6d4d7c159f" d="M87.76,95.92a3.7,3.7,0,0,1-1.55-3V89.54a2.43,2.43,0,0,1,.06-.49l0,0c-.85-.5-1.55,0-1.55,1.17v3.42a3.72,3.72,0,0,0,1.55,3l30.28,17.48a.93.93,0,0,0,1.49-.68Z"/><path class="a8c76de9-6883-45b7-b55f-7b93e1e7ddf2" d="M107,104.67,88.79,94.15a1.29,1.29,0,0,1-.55-1h0c0-.4.25-.58.55-.41L107,103.22a1.28,1.28,0,0,1,.55,1h0C107.55,104.66,107.31,104.85,107,104.67Z"/><path class="a9783bea-d21c-4d00-a4b1-1db387ac9105" d="M116.51,134.54,86.23,117.06a3.7,3.7,0,0,1-1.55-3v-3.43c0-1.14.7-1.66,1.55-1.17L116.51,127a3.71,3.71,0,0,1,1.54,3v3.42C118.05,134.51,117.36,135,116.51,134.54Z"/><path class="a8d053eb-8e8c-4e27-87d0-4c6d4d7c159f" d="M87.76,116.41a3.74,3.74,0,0,1-1.55-3V110a2.45,2.45,0,0,1,.06-.5l0,0c-.85-.49-1.55,0-1.55,1.17v3.43a3.7,3.7,0,0,0,1.55,3l30.28,17.48a.92.92,0,0,0,1.49-.68Z"/><path class="ab5e30ba-0eec-417e-a3ca-03164c0db13c" d="M107,125.16,88.79,114.64a1.32,1.32,0,0,1-.55-1h0c0-.4.25-.59.55-.41L107,123.7a1.29,1.29,0,0,1,.55,1h0C107.55,125.15,107.31,125.33,107,125.16Z"/><path class="a9783bea-d21c-4d00-a4b1-1db387ac9105" d="M116.51,154.62,86.23,137.14a3.72,3.72,0,0,1-1.55-3v-3.42c0-1.14.7-1.66,1.55-1.17l30.28,17.48a3.71,3.71,0,0,1,1.54,3v3.42C118.05,154.59,117.36,155.11,116.51,154.62Z"/><path class="a8d053eb-8e8c-4e27-87d0-4c6d4d7c159f" d="M87.76,136.49a3.74,3.74,0,0,1-1.55-3V130.1a2.43,2.43,0,0,1,.06-.49l0,0c-.85-.49-1.55,0-1.55,1.17v3.42a3.72,3.72,0,0,0,1.55,3l30.28,17.48a.93.93,0,0,0,1.49-.68Z"/><path class="a8c76de9-6883-45b7-b55f-7b93e1e7ddf2" d="M107,145.23,88.79,134.72a1.33,1.33,0,0,1-.55-1.05h0c0-.4.25-.58.55-.41L107,143.78a1.29,1.29,0,0,1,.55,1h0C107.55,145.22,107.31,145.41,107,145.23Z"/><polygon class="b75752f8-8247-4e54-9238-8062892179c5" points="79.86 42.22 83.02 44.05 83.02 56.83 79.86 55.01 79.86 42.22"/><polygon class="b75752f8-8247-4e54-9238-8062892179c5" points="79.86 62.45 83.02 64.28 83.02 77.07 79.86 75.24 79.86 62.45"/><polygon class="b75752f8-8247-4e54-9238-8062892179c5" points="79.86 82.69 83.02 84.51 83.02 97.3 79.86 95.47 79.86 82.69"/><polygon class="b75752f8-8247-4e54-9238-8062892179c5" points="79.86 102.92 83.02 104.75 83.02 117.53 79.86 115.71 79.86 102.92"/><polygon class="b75752f8-8247-4e54-9238-8062892179c5" points="79.86 123.15 83.02 124.98 83.02 137.77 79.86 135.94 79.86 123.15"/><path class="a8c76de9-6883-45b7-b55f-7b93e1e7ddf2" d="M110.59,65.53c0,.41-.28.58-.64.37a1.42,1.42,0,0,1-.64-1.11c0-.41.29-.57.64-.37A1.41,1.41,0,0,1,110.59,65.53Z"/><path class="ab5e30ba-0eec-417e-a3ca-03164c0db13c" d="M113.31,67.1c0,.41-.29.57-.64.37a1.42,1.42,0,0,1-.64-1.11c0-.41.29-.57.64-.37A1.42,1.42,0,0,1,113.31,67.1Z"/><path class="a8c76de9-6883-45b7-b55f-7b93e1e7ddf2" d="M116,68.67c0,.41-.29.57-.64.37a1.41,1.41,0,0,1-.64-1.11c0-.41.28-.58.64-.37A1.42,1.42,0,0,1,116,68.67Z"/><path class="ab5e30ba-0eec-417e-a3ca-03164c0db13c" d="M110.59,85.75c0,.41-.28.58-.64.37a1.42,1.42,0,0,1-.64-1.11c0-.4.29-.57.64-.37A1.42,1.42,0,0,1,110.59,85.75Z"/><path class="a8c76de9-6883-45b7-b55f-7b93e1e7ddf2" d="M113.31,87.32c0,.41-.29.58-.64.37a1.42,1.42,0,0,1-.64-1.11c0-.41.29-.57.64-.37A1.43,1.43,0,0,1,113.31,87.32Z"/><path class="bf3f3c15-f267-4dad-899a-93b451a51752" d="M116,88.89c0,.41-.29.58-.64.37a1.39,1.39,0,0,1-.64-1.11c0-.41.28-.57.64-.37A1.43,1.43,0,0,1,116,88.89Z"/><path class="bf3f3c15-f267-4dad-899a-93b451a51752" d="M110.59,106.13c0,.41-.28.57-.64.37a1.42,1.42,0,0,1-.64-1.11c0-.41.29-.57.64-.37A1.39,1.39,0,0,1,110.59,106.13Z"/><path class="ab5e30ba-0eec-417e-a3ca-03164c0db13c" d="M113.31,107.7c0,.41-.29.57-.64.37A1.43,1.43,0,0,1,112,107c0-.41.29-.58.64-.37A1.42,1.42,0,0,1,113.31,107.7Z"/><path class="bf3f3c15-f267-4dad-899a-93b451a51752" d="M116,109.27c0,.41-.29.57-.64.37a1.41,1.41,0,0,1-.64-1.11c0-.41.28-.58.64-.37A1.42,1.42,0,0,1,116,109.27Z"/><path class="bf3f3c15-f267-4dad-899a-93b451a51752" d="M110.59,126.21c0,.41-.28.57-.64.37a1.42,1.42,0,0,1-.64-1.11c0-.41.29-.57.64-.37A1.39,1.39,0,0,1,110.59,126.21Z"/><path class="a8c76de9-6883-45b7-b55f-7b93e1e7ddf2" d="M113.31,127.78c0,.41-.29.57-.64.37A1.43,1.43,0,0,1,112,127c0-.41.29-.58.64-.37A1.42,1.42,0,0,1,113.31,127.78Z"/><path class="a8c76de9-6883-45b7-b55f-7b93e1e7ddf2" d="M116,129.35c0,.41-.29.57-.64.37a1.41,1.41,0,0,1-.64-1.11c0-.41.28-.58.64-.37A1.42,1.42,0,0,1,116,129.35Z"/><path class="bf3f3c15-f267-4dad-899a-93b451a51752" d="M110.59,146.56c0,.41-.28.58-.64.37a1.42,1.42,0,0,1-.64-1.11c0-.41.29-.57.64-.37A1.41,1.41,0,0,1,110.59,146.56Z"/><path class="ab5e30ba-0eec-417e-a3ca-03164c0db13c" d="M113.31,148.13c0,.41-.29.58-.64.37a1.42,1.42,0,0,1-.64-1.11c0-.41.29-.57.64-.37A1.43,1.43,0,0,1,113.31,148.13Z"/><path class="a8c76de9-6883-45b7-b55f-7b93e1e7ddf2" d="M116,149.7c0,.41-.29.57-.64.37a1.39,1.39,0,0,1-.64-1.11c0-.41.28-.57.64-.37A1.42,1.42,0,0,1,116,149.7Z"/><path class="a9783bea-d21c-4d00-a4b1-1db387ac9105" d="M129.93,155.56V65l.19-.1L168,43.07V133.6l-.18.11Zm.75-90.1v88.8l36.52-21.09V44.37Z"/><path class="a9783bea-d21c-4d00-a4b1-1db387ac9105" d="M158.13,83.8l-17,9.8c-1.14.66-2.06,0-2.06-1.56V82.63a4.93,4.93,0,0,1,2.06-3.94l17-9.79c1.13-.66,2.06,0,2.06,1.56v9.4A5,5,0,0,1,158.13,83.8Z"/><path class="b4aadc9b-9571-47ca-ba50-c7d43900c283" d="M158.54,68.71a3,3,0,0,1,.15,1v9.4a5,5,0,0,1-2.06,4l-17,9.79a2.05,2.05,0,0,1-.41.18,1.2,1.2,0,0,0,1.91.62l17-9.8a5,5,0,0,0,2.06-3.94v-9.4C160.19,69.12,159.48,68.42,158.54,68.71Z"/><path class="bf3f3c15-f267-4dad-899a-93b451a51752" d="M155,78.14c.31-.18.56,0,.56.33v2.14a1.25,1.25,0,0,1-.56,1c-.32.18-.57,0-.57-.32V79.12A1.24,1.24,0,0,1,155,78.14Z"/><path class="a8c76de9-6883-45b7-b55f-7b93e1e7ddf2" d="M152.59,79.81c.32-.18.57,0,.57.33V82a1.24,1.24,0,0,1-.57,1c-.31.18-.57,0-.57-.33V80.8A1.26,1.26,0,0,1,152.59,79.81Z"/><path class="ab5e30ba-0eec-417e-a3ca-03164c0db13c" d="M150.16,79.13c.31-.19.57,0,.57.32v4a1.26,1.26,0,0,1-.57,1c-.31.19-.57,0-.57-.32v-4A1.26,1.26,0,0,1,150.16,79.13Z"/><path class="a8c76de9-6883-45b7-b55f-7b93e1e7ddf2" d="M147.73,78.25c.31-.19.56,0,.56.32v6.26a1.25,1.25,0,0,1-.56,1c-.32.18-.57,0-.57-.33V79.23A1.24,1.24,0,0,1,147.73,78.25Z"/><path class="a8c76de9-6883-45b7-b55f-7b93e1e7ddf2" d="M145.29,80.31c.32-.19.57,0,.57.32v5.6a1.24,1.24,0,0,1-.57,1c-.31.19-.57,0-.57-.32v-5.6A1.26,1.26,0,0,1,145.29,80.31Z"/><path class="bf3f3c15-f267-4dad-899a-93b451a51752" d="M142.86,84.27c.31-.18.57,0,.57.33v3a1.26,1.26,0,0,1-.57,1c-.32.18-.57,0-.57-.33v-3A1.24,1.24,0,0,1,142.86,84.27Z"/><path class="ab5e30ba-0eec-417e-a3ca-03164c0db13c" d="M154.47,77.06c0,.35.25.5.56.32a1.25,1.25,0,0,0,.55-1c0-.35-.25-.5-.55-.32A1.23,1.23,0,0,0,154.47,77.06Z"/><path class="bf3f3c15-f267-4dad-899a-93b451a51752" d="M154.47,75c0,.36.25.5.56.33a1.27,1.27,0,0,0,.55-1c0-.36-.25-.5-.55-.32A1.22,1.22,0,0,0,154.47,75Z"/><path class="bf3f3c15-f267-4dad-899a-93b451a51752" d="M49.48,230.45a7,7,0,0,1-3.44-.83l-41.55-24a3.42,3.42,0,0,1-1.87-2.95,4.07,4.07,0,0,1,2.3-3.41l44-25.49a8.2,8.2,0,0,1,7.63-.25l41.56,24a3.43,3.43,0,0,1,1.87,3,4.06,4.06,0,0,1-2.3,3.4l-44,25.5A8.55,8.55,0,0,1,49.48,230.45Zm-1.74-3.76a5,5,0,0,0,4.25-.25L96,201a2.33,2.33,0,0,0,.55-.42l-.12-.08-41.55-24a4.93,4.93,0,0,0-4.24.24l-44,25.49a2.06,2.06,0,0,0-.55.43l.12.07Z"/><path class="a8690040-9153-4363-bfda-156ee939a1da" d="M98.24,183,53.81,157.38a7.51,7.51,0,0,1-3.12-6V45.08c0-2.3,1.4-3.36,3.12-2.36L98.24,68.37a7.49,7.49,0,0,1,3.13,6V180.67C101.37,183,100,184,98.24,183Z"/><path class="bbe26f6f-6f05-445c-8193-b82303ed0b66" d="M98.24,68.37,53.81,42.72a2,2,0,0,0-2-.18h0L1.07,71.81l2.39,8.84L49.71,212.37l50.52-29.14h0l.09-.06h0a2.82,2.82,0,0,0,1-2.49V74.35A7.49,7.49,0,0,0,98.24,68.37Z"/><path class="a8c76de9-6883-45b7-b55f-7b93e1e7ddf2" d="M98.24,68.37,53.81,42.72a2,2,0,0,0-2-.18h0L1.07,71.81l2.39,8.84,12.72,36.22,2.39,1.38L100.5,71A6.21,6.21,0,0,0,98.24,68.37Z"/><path class="b4aadc9b-9571-47ca-ba50-c7d43900c283" d="M47.56,212.27,3.13,186.62a7.49,7.49,0,0,1-3.13-6V74.32C0,72,1.4,71,3.13,72L47.56,97.61a7.49,7.49,0,0,1,3.13,6V209.9C50.69,212.21,49.29,213.27,47.56,212.27Z"/><path class="e06c1d13-ac1c-448b-8497-15eecb53b6b8" d="M44.76,205.87,5.92,183.45a6.57,6.57,0,0,1-2.73-5.23V79.48c0-2,1.22-2.94,2.73-2.07L44.76,99.84a6.55,6.55,0,0,1,2.74,5.22V203.8C47.5,205.82,46.27,206.74,44.76,205.87Z"/><path class="e06c1d13-ac1c-448b-8497-15eecb53b6b8" d="M44.76,205.87,5.92,183.45a6.57,6.57,0,0,1-2.73-5.23V79.48c0-2,1.22-2.94,2.73-2.07L44.76,99.84a6.55,6.55,0,0,1,2.74,5.22V203.8C47.5,205.82,46.27,206.74,44.76,205.87Z"/><path class="a9783bea-d21c-4d00-a4b1-1db387ac9105" d="M44.76,205.87,5.92,183.45a6.57,6.57,0,0,1-2.73-5.23V79.48c0-2,1.22-2.94,2.73-2.07L44.76,99.84a6.55,6.55,0,0,1,2.74,5.22V203.8C47.5,205.82,46.27,206.74,44.76,205.87Z"/><path class="bbe26f6f-6f05-445c-8193-b82303ed0b66" d="M46,205.12,7.19,182.7a6.54,6.54,0,0,1-2.73-5.23V78.73a3.17,3.17,0,0,1,.39-1.65c-1,0-1.66.89-1.66,2.4v98.74a6.57,6.57,0,0,0,2.73,5.23l38.84,22.42a1.58,1.58,0,0,0,2.34-.42A2.19,2.19,0,0,1,46,205.12Z"/><path class="a9783bea-d21c-4d00-a4b1-1db387ac9105" d="M44.76,160.54,30.33,152.2l-23,13.29L47.5,188.7V165.76A6.55,6.55,0,0,0,44.76,160.54Z"/><path class="a9783bea-d21c-4d00-a4b1-1db387ac9105" d="M44.76,140.3,30.33,132l-23,13.29,40.2,23.21V145.53A6.55,6.55,0,0,0,44.76,140.3Z"/><path class="a9783bea-d21c-4d00-a4b1-1db387ac9105" d="M44.76,120.07l-14.43-8.34L7.3,125l40.2,23.2V125.29A6.55,6.55,0,0,0,44.76,120.07Z"/><path class="a9783bea-d21c-4d00-a4b1-1db387ac9105" d="M44.76,99.84,30.33,91.5l-23,13.29L47.5,128V105.06A6.55,6.55,0,0,0,44.76,99.84Z"/><path class="a9783bea-d21c-4d00-a4b1-1db387ac9105" d="M44.76,99.84l-32-18.46L7.3,84.56l40.2,23.21v-2.71A6.55,6.55,0,0,0,44.76,99.84Z"/><polygon class="b4aadc9b-9571-47ca-ba50-c7d43900c283" points="47.5 107.77 7.3 84.56 7.3 97.35 47.5 120.56 47.5 107.77"/><polygon class="b4aadc9b-9571-47ca-ba50-c7d43900c283" points="47.5 128 7.3 104.79 7.3 117.58 47.5 140.79 47.5 128"/><polygon class="b4aadc9b-9571-47ca-ba50-c7d43900c283" points="47.5 148.23 7.3 125.03 7.3 137.82 47.5 161.02 47.5 148.23"/><polygon class="b4aadc9b-9571-47ca-ba50-c7d43900c283" points="47.5 168.47 7.3 145.26 7.3 158.05 47.5 181.26 47.5 168.47"/><polygon class="b4aadc9b-9571-47ca-ba50-c7d43900c283" points="47.5 188.7 7.3 165.49 7.3 178.28 47.5 201.49 47.5 188.7"/><path class="a9783bea-d21c-4d00-a4b1-1db387ac9105" d="M44,116,13.68,98.52a3.69,3.69,0,0,1-1.55-3V92.14c0-1.14.69-1.67,1.55-1.17L44,108.45a3.67,3.67,0,0,1,1.55,3v3.43C45.5,116,44.81,116.49,44,116Z"/><path class="a8d053eb-8e8c-4e27-87d0-4c6d4d7c159f" d="M15.21,97.86a3.67,3.67,0,0,1-1.55-3V91.48a1.88,1.88,0,0,1,.06-.49l0,0c-.86-.5-1.55,0-1.55,1.17v3.42a3.69,3.69,0,0,0,1.55,3L44,116a.93.93,0,0,0,1.49-.68Z"/><path class="bf3f3c15-f267-4dad-899a-93b451a51752" d="M34.45,106.61,16.23,96.09a1.3,1.3,0,0,1-.54-1h0c0-.4.24-.58.54-.41l18.22,10.52a1.31,1.31,0,0,1,.55,1h0C35,106.6,34.75,106.78,34.45,106.61Z"/><path class="a9783bea-d21c-4d00-a4b1-1db387ac9105" d="M44,136.11,13.68,118.63a3.71,3.71,0,0,1-1.55-3v-3.42c0-1.14.69-1.67,1.55-1.17L44,128.55a3.71,3.71,0,0,1,1.55,3v3.43C45.5,136.08,44.81,136.6,44,136.11Z"/><path class="a8d053eb-8e8c-4e27-87d0-4c6d4d7c159f" d="M15.21,118a3.69,3.69,0,0,1-1.55-3v-3.42a1.88,1.88,0,0,1,.06-.49l0,0c-.86-.5-1.55,0-1.55,1.17v3.42a3.71,3.71,0,0,0,1.55,3L44,136.11a.93.93,0,0,0,1.49-.68Z"/><path class="bf3f3c15-f267-4dad-899a-93b451a51752" d="M34.45,126.72,16.23,116.2a1.3,1.3,0,0,1-.54-1h0c0-.4.24-.58.54-.41l18.22,10.52a1.31,1.31,0,0,1,.55,1h0C35,126.71,34.75,126.89,34.45,126.72Z"/><path class="a9783bea-d21c-4d00-a4b1-1db387ac9105" d="M44,156.4,13.68,138.92A3.67,3.67,0,0,1,12.13,136v-3.43c0-1.14.69-1.66,1.55-1.17L44,148.85a3.69,3.69,0,0,1,1.55,3v3.42C45.5,156.37,44.81,156.9,44,156.4Z"/><path class="a8d053eb-8e8c-4e27-87d0-4c6d4d7c159f" d="M15.21,138.27a3.71,3.71,0,0,1-1.55-3v-3.42a1.9,1.9,0,0,1,.06-.5l0,0c-.86-.49-1.55,0-1.55,1.17V136a3.67,3.67,0,0,0,1.55,2.95L44,156.4a.92.92,0,0,0,1.49-.68Z"/><path class="a8c76de9-6883-45b7-b55f-7b93e1e7ddf2" d="M34.45,147,16.23,136.5a1.31,1.31,0,0,1-.54-1h0c0-.4.24-.59.54-.41l18.22,10.51a1.32,1.32,0,0,1,.55,1h0C35,147,34.75,147.19,34.45,147Z"/><path class="a9783bea-d21c-4d00-a4b1-1db387ac9105" d="M44,176.89,13.68,159.41a3.71,3.71,0,0,1-1.55-3V153c0-1.14.69-1.66,1.55-1.17L44,169.33a3.71,3.71,0,0,1,1.55,3v3.43C45.5,176.86,44.81,177.38,44,176.89Z"/><path class="a8d053eb-8e8c-4e27-87d0-4c6d4d7c159f" d="M15.21,158.75a3.69,3.69,0,0,1-1.55-3v-3.42a1.88,1.88,0,0,1,.06-.49l0,0c-.86-.49-1.55,0-1.55,1.17v3.43a3.71,3.71,0,0,0,1.55,3L44,176.89a.93.93,0,0,0,1.49-.68Z"/><path class="ab5e30ba-0eec-417e-a3ca-03164c0db13c" d="M34.45,167.5,16.23,157a1.3,1.3,0,0,1-.54-1h0c0-.4.24-.58.54-.41l18.22,10.52a1.31,1.31,0,0,1,.55,1h0C35,167.49,34.75,167.67,34.45,167.5Z"/><path class="a9783bea-d21c-4d00-a4b1-1db387ac9105" d="M44,197,13.68,179.48a3.67,3.67,0,0,1-1.55-2.95V173.1c0-1.14.69-1.66,1.55-1.17L44,189.41a3.69,3.69,0,0,1,1.55,3v3.42C45.5,196.93,44.81,197.46,44,197Z"/><path class="a8d053eb-8e8c-4e27-87d0-4c6d4d7c159f" d="M15.21,178.83a3.71,3.71,0,0,1-1.55-3v-3.42a1.9,1.9,0,0,1,.06-.5l0,0c-.86-.49-1.55,0-1.55,1.17v3.43a3.67,3.67,0,0,0,1.55,2.95L44,197a.92.92,0,0,0,1.49-.68Z"/><path class="a8c76de9-6883-45b7-b55f-7b93e1e7ddf2" d="M34.45,187.58,16.23,177.06a1.31,1.31,0,0,1-.54-1h0c0-.4.24-.59.54-.41l18.22,10.51a1.32,1.32,0,0,1,.55,1h0C35,187.57,34.75,187.75,34.45,187.58Z"/><polygon class="b75752f8-8247-4e54-9238-8062892179c5" points="7.3 84.56 10.47 86.39 10.47 99.18 7.3 97.35 7.3 84.56"/><polygon class="b75752f8-8247-4e54-9238-8062892179c5" points="7.3 104.79 10.47 106.62 10.47 119.41 7.3 117.58 7.3 104.79"/><polygon class="b75752f8-8247-4e54-9238-8062892179c5" points="7.3 125.03 10.47 126.86 10.47 139.64 7.3 137.82 7.3 125.03"/><polygon class="b75752f8-8247-4e54-9238-8062892179c5" points="7.3 145.26 10.47 147.09 10.47 159.88 7.3 158.05 7.3 145.26"/><polygon class="b75752f8-8247-4e54-9238-8062892179c5" points="7.3 165.49 10.47 167.32 10.47 180.11 7.3 178.28 7.3 165.49"/><path class="a8c76de9-6883-45b7-b55f-7b93e1e7ddf2" d="M38,107.87c0,.41-.29.58-.64.37a1.42,1.42,0,0,1-.64-1.11c0-.4.29-.57.64-.37A1.45,1.45,0,0,1,38,107.87Z"/><path class="ab5e30ba-0eec-417e-a3ca-03164c0db13c" d="M40.76,109.44c0,.41-.29.58-.64.37a1.39,1.39,0,0,1-.64-1.11c0-.41.28-.57.64-.37A1.43,1.43,0,0,1,40.76,109.44Z"/><path class="a8c76de9-6883-45b7-b55f-7b93e1e7ddf2" d="M43.48,111c0,.41-.29.58-.65.37a1.42,1.42,0,0,1-.64-1.11c0-.41.29-.57.64-.37A1.42,1.42,0,0,1,43.48,111Z"/><path class="ab5e30ba-0eec-417e-a3ca-03164c0db13c" d="M38,128.1c0,.41-.29.57-.64.37a1.43,1.43,0,0,1-.64-1.11c0-.41.29-.58.64-.37A1.42,1.42,0,0,1,38,128.1Z"/><path class="a8c76de9-6883-45b7-b55f-7b93e1e7ddf2" d="M40.76,129.67c0,.4-.29.57-.64.37a1.42,1.42,0,0,1-.64-1.11c0-.41.28-.58.64-.37A1.42,1.42,0,0,1,40.76,129.67Z"/><path class="bf3f3c15-f267-4dad-899a-93b451a51752" d="M43.48,131.23c0,.41-.29.58-.65.37a1.42,1.42,0,0,1-.64-1.11c0-.4.29-.57.64-.37A1.43,1.43,0,0,1,43.48,131.23Z"/><path class="bf3f3c15-f267-4dad-899a-93b451a51752" d="M38,148.47c0,.41-.29.58-.64.37a1.42,1.42,0,0,1-.64-1.11c0-.41.29-.57.64-.37A1.43,1.43,0,0,1,38,148.47Z"/><path class="ab5e30ba-0eec-417e-a3ca-03164c0db13c" d="M40.76,150c0,.41-.29.58-.64.37a1.39,1.39,0,0,1-.64-1.11c0-.41.28-.57.64-.37A1.43,1.43,0,0,1,40.76,150Z"/><path class="bf3f3c15-f267-4dad-899a-93b451a51752" d="M43.48,151.61c0,.41-.29.57-.65.37a1.42,1.42,0,0,1-.64-1.11c0-.41.29-.57.64-.37A1.4,1.4,0,0,1,43.48,151.61Z"/><path class="bf3f3c15-f267-4dad-899a-93b451a51752" d="M38,168.55c0,.41-.29.58-.64.37a1.42,1.42,0,0,1-.64-1.11c0-.41.29-.57.64-.37A1.43,1.43,0,0,1,38,168.55Z"/><path class="a8c76de9-6883-45b7-b55f-7b93e1e7ddf2" d="M40.76,170.12c0,.41-.29.58-.64.37a1.39,1.39,0,0,1-.64-1.11c0-.41.28-.57.64-.37A1.43,1.43,0,0,1,40.76,170.12Z"/><path class="a8c76de9-6883-45b7-b55f-7b93e1e7ddf2" d="M43.48,171.69c0,.41-.29.57-.65.37a1.42,1.42,0,0,1-.64-1.11c0-.41.29-.57.64-.37A1.4,1.4,0,0,1,43.48,171.69Z"/><path class="bf3f3c15-f267-4dad-899a-93b451a51752" d="M38,188.91c0,.4-.29.57-.64.37a1.45,1.45,0,0,1-.64-1.11c0-.41.29-.58.64-.37A1.42,1.42,0,0,1,38,188.91Z"/><path class="ab5e30ba-0eec-417e-a3ca-03164c0db13c" d="M40.76,190.47c0,.41-.29.58-.64.37a1.39,1.39,0,0,1-.64-1.11c0-.4.28-.57.64-.37A1.45,1.45,0,0,1,40.76,190.47Z"/><path class="a8c76de9-6883-45b7-b55f-7b93e1e7ddf2" d="M43.48,192c0,.41-.29.58-.65.37a1.42,1.42,0,0,1-.64-1.11c0-.41.29-.57.64-.37A1.42,1.42,0,0,1,43.48,192Z"/><path class="a9783bea-d21c-4d00-a4b1-1db387ac9105" d="M57.38,197.9V107.37l.19-.11L95.4,85.41V176l-.19.1Zm.75-90.1v88.8l36.52-21.09V86.71Z"/><path class="a9783bea-d21c-4d00-a4b1-1db387ac9105" d="M85.57,126.15l-17,9.79c-1.14.66-2.07,0-2.07-1.56V125a5,5,0,0,1,2.07-4l17-9.79c1.14-.66,2.07,0,2.07,1.56v9.4A5,5,0,0,1,85.57,126.15Z"/><path class="b4aadc9b-9571-47ca-ba50-c7d43900c283" d="M86,111.06a2.6,2.6,0,0,1,.16.94v9.41a4.94,4.94,0,0,1-2.07,3.94l-17,9.79a3,3,0,0,1-.41.19,1.2,1.2,0,0,0,1.91.61l17-9.79a5,5,0,0,0,2.07-4v-9.4C87.64,111.47,86.93,110.77,86,111.06Z"/><path class="bf3f3c15-f267-4dad-899a-93b451a51752" d="M82.47,120.48c.32-.18.57,0,.57.33V123a1.24,1.24,0,0,1-.57,1c-.31.18-.56,0-.56-.33v-2.14A1.25,1.25,0,0,1,82.47,120.48Z"/><path class="a8c76de9-6883-45b7-b55f-7b93e1e7ddf2" d="M80,122.16c.31-.19.57,0,.57.32v1.88a1.26,1.26,0,0,1-.57,1c-.31.18-.57,0-.57-.33v-1.87A1.26,1.26,0,0,1,80,122.16Z"/><path class="ab5e30ba-0eec-417e-a3ca-03164c0db13c" d="M77.61,121.47c.31-.18.56,0,.56.33v4a1.25,1.25,0,0,1-.56,1c-.32.18-.57,0-.57-.33v-4A1.24,1.24,0,0,1,77.61,121.47Z"/><path class="a8c76de9-6883-45b7-b55f-7b93e1e7ddf2" d="M75.17,120.59c.32-.18.57,0,.57.33v6.25a1.24,1.24,0,0,1-.57,1c-.31.18-.57,0-.57-.33v-6.25A1.26,1.26,0,0,1,75.17,120.59Z"/><path class="a8c76de9-6883-45b7-b55f-7b93e1e7ddf2" d="M72.74,122.65c.31-.18.57,0,.57.33v5.59a1.26,1.26,0,0,1-.57,1c-.31.18-.57,0-.57-.33v-5.6A1.26,1.26,0,0,1,72.74,122.65Z"/><path class="bf3f3c15-f267-4dad-899a-93b451a51752" d="M70.31,126.61c.31-.18.56,0,.56.33v3a1.25,1.25,0,0,1-.56,1c-.32.18-.57,0-.57-.33v-3A1.24,1.24,0,0,1,70.31,126.61Z"/><path class="ab5e30ba-0eec-417e-a3ca-03164c0db13c" d="M81.92,119.4c0,.36.25.5.55.32a1.23,1.23,0,0,0,.56-1c0-.36-.25-.51-.56-.33A1.25,1.25,0,0,0,81.92,119.4Z"/><path class="bf3f3c15-f267-4dad-899a-93b451a51752" d="M81.92,117.39c0,.35.25.5.55.32a1.23,1.23,0,0,0,.56-1c0-.36-.25-.5-.56-.32A1.25,1.25,0,0,0,81.92,117.39Z"/><path class="bf3f3c15-f267-4dad-899a-93b451a51752" d="M187.67,225.94a7,7,0,0,1-3.44-.82l-41.55-24a3.43,3.43,0,0,1-1.88-3,4.08,4.08,0,0,1,2.3-3.41l44-25.49a8.25,8.25,0,0,1,7.64-.25l41.55,24a3.45,3.45,0,0,1,1.88,3,4.08,4.08,0,0,1-2.31,3.41l-44,25.49A8.54,8.54,0,0,1,187.67,225.94Zm-43.41-27.82a.52.52,0,0,0,.11.07l41.55,24a5,5,0,0,0,4.25-.24l44-25.5a2,2,0,0,0,.54-.42l-.11-.07-41.56-24a4.93,4.93,0,0,0-4.24.25l-44,25.49A1.84,1.84,0,0,0,144.26,198.12Z"/><path class="f6ab0158-f9bb-495e-83c3-106750297b25" d="M236.43,178.53,192,152.87a7.47,7.47,0,0,1-3.13-6V40.58c0-2.31,1.4-3.36,3.13-2.37l44.43,25.65a7.52,7.52,0,0,1,3.12,6V176.16C239.55,178.46,238.15,179.52,236.43,178.53Z"/><path class="bbe26f6f-6f05-445c-8193-b82303ed0b66" d="M236.43,63.86,192,38.21a2,2,0,0,0-2-.17h0L139.25,67.3l2.39,8.84,46.25,131.72,50.52-29.13,0,0,.09-.05h0a2.77,2.77,0,0,0,1-2.49V69.84A7.52,7.52,0,0,0,236.43,63.86Z"/><path class="a8c76de9-6883-45b7-b55f-7b93e1e7ddf2" d="M236.43,63.86,192,38.21a2,2,0,0,0-2-.17h0L139.25,67.3l2.39,8.84,12.72,36.23,2.39,1.38,81.93-47.3A6.35,6.35,0,0,0,236.43,63.86Z"/><path class="b4aadc9b-9571-47ca-ba50-c7d43900c283" d="M185.74,207.76l-44.43-25.65a7.47,7.47,0,0,1-3.13-6V69.82c0-2.31,1.4-3.37,3.13-2.37L185.74,93.1a7.5,7.5,0,0,1,3.13,6V205.4C188.87,207.7,187.47,208.76,185.74,207.76Z"/><path class="bc9f333f-291f-460c-be24-b79b4f089222" d="M183,201.36l-38.84-22.42a6.55,6.55,0,0,1-2.74-5.23V75c0-2,1.23-2.94,2.74-2.06L183,95.33a6.54,6.54,0,0,1,2.73,5.23V199.3C185.68,201.31,184.46,202.24,183,201.36Z"/><path class="bc9f333f-291f-460c-be24-b79b4f089222" d="M183,201.36l-38.84-22.42a6.55,6.55,0,0,1-2.74-5.23V75c0-2,1.23-2.94,2.74-2.06L183,95.33a6.54,6.54,0,0,1,2.73,5.23V199.3C185.68,201.31,184.46,202.24,183,201.36Z"/><path class="a9783bea-d21c-4d00-a4b1-1db387ac9105" d="M183,201.36l-38.84-22.42a6.55,6.55,0,0,1-2.74-5.23V75c0-2,1.23-2.94,2.74-2.06L183,95.33a6.54,6.54,0,0,1,2.73,5.23V199.3C185.68,201.31,184.46,202.24,183,201.36Z"/><path class="bbe26f6f-6f05-445c-8193-b82303ed0b66" d="M184.21,200.62l-38.83-22.43a6.52,6.52,0,0,1-2.74-5.22V74.23a3.22,3.22,0,0,1,.39-1.65c-1,0-1.66.89-1.66,2.39v98.74a6.55,6.55,0,0,0,2.74,5.23L183,201.36a1.58,1.58,0,0,0,2.34-.41A2.34,2.34,0,0,1,184.21,200.62Z"/><path class="a9783bea-d21c-4d00-a4b1-1db387ac9105" d="M183,156l-14.44-8.33-23,13.29,40.19,23.21V161.26A6.54,6.54,0,0,0,183,156Z"/><path class="a9783bea-d21c-4d00-a4b1-1db387ac9105" d="M183,135.8l-14.44-8.34-23,13.3L185.68,164V141A6.54,6.54,0,0,0,183,135.8Z"/><path class="a9783bea-d21c-4d00-a4b1-1db387ac9105" d="M183,115.56l-14.44-8.33-23,13.29,40.19,23.21V120.79A6.57,6.57,0,0,0,183,115.56Z"/><path class="a9783bea-d21c-4d00-a4b1-1db387ac9105" d="M183,95.33,168.51,87l-23,13.29,40.19,23.21V100.56A6.54,6.54,0,0,0,183,95.33Z"/><path class="a9783bea-d21c-4d00-a4b1-1db387ac9105" d="M183,95.33,151,76.88l-5.5,3.17,40.19,23.21v-2.7A6.54,6.54,0,0,0,183,95.33Z"/><polygon class="b4aadc9b-9571-47ca-ba50-c7d43900c283" points="185.68 103.26 145.49 80.06 145.49 92.84 185.68 116.05 185.68 103.26"/><polygon class="b4aadc9b-9571-47ca-ba50-c7d43900c283" points="185.68 123.5 145.49 100.29 145.49 113.08 185.68 136.28 185.68 123.5"/><polygon class="b4aadc9b-9571-47ca-ba50-c7d43900c283" points="185.68 143.73 145.49 120.52 145.49 133.31 185.68 156.52 185.68 143.73"/><polygon class="b4aadc9b-9571-47ca-ba50-c7d43900c283" points="185.68 163.96 145.49 140.75 145.49 153.54 185.68 176.75 185.68 163.96"/><polygon class="b4aadc9b-9571-47ca-ba50-c7d43900c283" points="185.68 184.2 145.49 160.99 145.49 173.78 185.68 196.98 185.68 184.2"/><path class="a9783bea-d21c-4d00-a4b1-1db387ac9105" d="M182.14,111.49,151.86,94a3.7,3.7,0,0,1-1.55-3V87.63c0-1.14.7-1.66,1.55-1.17l30.28,17.48a3.71,3.71,0,0,1,1.54,3v3.42C183.68,111.46,183,112,182.14,111.49Z"/><path class="a8d053eb-8e8c-4e27-87d0-4c6d4d7c159f" d="M153.39,93.36a3.74,3.74,0,0,1-1.55-3V87a2.45,2.45,0,0,1,.06-.5l0,0c-.85-.49-1.55,0-1.55,1.17v3.43a3.7,3.7,0,0,0,1.55,3l30.28,17.48a.92.92,0,0,0,1.49-.68Z"/><path class="bf3f3c15-f267-4dad-899a-93b451a51752" d="M172.64,102.11,154.42,91.59a1.32,1.32,0,0,1-.55-1h0c0-.4.25-.59.55-.41l18.22,10.51a1.31,1.31,0,0,1,.54,1h0C173.18,102.1,172.94,102.28,172.64,102.11Z"/><path class="a9783bea-d21c-4d00-a4b1-1db387ac9105" d="M182.14,131.6l-30.28-17.48a3.72,3.72,0,0,1-1.55-3v-3.42c0-1.14.7-1.66,1.55-1.17l30.28,17.48a3.71,3.71,0,0,1,1.54,3v3.42C183.68,131.57,183,132.09,182.14,131.6Z"/><path class="a8d053eb-8e8c-4e27-87d0-4c6d4d7c159f" d="M153.39,113.47a3.74,3.74,0,0,1-1.55-3v-3.43a2.43,2.43,0,0,1,.06-.49l0,0c-.85-.49-1.55,0-1.55,1.17v3.42a3.72,3.72,0,0,0,1.55,3l30.28,17.48a.92.92,0,0,0,1.49-.68Z"/><path class="bf3f3c15-f267-4dad-899a-93b451a51752" d="M172.64,122.21,154.42,111.7a1.32,1.32,0,0,1-.55-1h0c0-.41.25-.59.55-.42l18.22,10.52a1.31,1.31,0,0,1,.54,1h0C173.18,122.2,172.94,122.39,172.64,122.21Z"/><path class="a9783bea-d21c-4d00-a4b1-1db387ac9105" d="M182.14,151.9l-30.28-17.48a3.74,3.74,0,0,1-1.55-3V128c0-1.14.7-1.67,1.55-1.17l30.28,17.48a3.69,3.69,0,0,1,1.54,3v3.43C183.68,151.87,183,152.39,182.14,151.9Z"/><path class="a8d053eb-8e8c-4e27-87d0-4c6d4d7c159f" d="M153.39,133.76a3.72,3.72,0,0,1-1.55-3v-3.42a2.43,2.43,0,0,1,.06-.49l0,0c-.85-.5-1.55,0-1.55,1.17v3.42a3.74,3.74,0,0,0,1.55,3l30.28,17.48a.93.93,0,0,0,1.49-.68Z"/><path class="a8c76de9-6883-45b7-b55f-7b93e1e7ddf2" d="M172.64,142.51,154.42,132a1.31,1.31,0,0,1-.55-1h0c0-.4.25-.58.55-.41l18.22,10.52a1.3,1.3,0,0,1,.54,1h0C173.18,142.5,172.94,142.68,172.64,142.51Z"/><path class="a9783bea-d21c-4d00-a4b1-1db387ac9105" d="M182.14,172.38,151.86,154.9a3.72,3.72,0,0,1-1.55-3v-3.42c0-1.14.7-1.66,1.55-1.17l30.28,17.48a3.71,3.71,0,0,1,1.54,3v3.42C183.68,172.35,183,172.87,182.14,172.38Z"/><path class="a8d053eb-8e8c-4e27-87d0-4c6d4d7c159f" d="M153.39,154.25a3.74,3.74,0,0,1-1.55-3v-3.43a2.43,2.43,0,0,1,.06-.49l0,0c-.85-.49-1.55,0-1.55,1.17v3.42a3.72,3.72,0,0,0,1.55,3l30.28,17.48a.92.92,0,0,0,1.49-.68Z"/><path class="ab5e30ba-0eec-417e-a3ca-03164c0db13c" d="M172.64,163l-18.22-10.51a1.33,1.33,0,0,1-.55-1h0c0-.4.25-.58.55-.41l18.22,10.52a1.31,1.31,0,0,1,.54,1h0C173.18,163,172.94,163.17,172.64,163Z"/><path class="a9783bea-d21c-4d00-a4b1-1db387ac9105" d="M182.14,192.46,151.86,175a3.74,3.74,0,0,1-1.55-3V168.6c0-1.14.7-1.67,1.55-1.17l30.28,17.48a3.69,3.69,0,0,1,1.54,3v3.43C183.68,192.43,183,193,182.14,192.46Z"/><path class="a8d053eb-8e8c-4e27-87d0-4c6d4d7c159f" d="M153.39,174.32a3.7,3.7,0,0,1-1.55-2.95v-3.43a2.43,2.43,0,0,1,.06-.49l0,0c-.85-.5-1.55,0-1.55,1.17V172a3.74,3.74,0,0,0,1.55,3l30.28,17.48a.93.93,0,0,0,1.49-.68Z"/><path class="a8c76de9-6883-45b7-b55f-7b93e1e7ddf2" d="M172.64,183.07l-18.22-10.52a1.31,1.31,0,0,1-.55-1h0c0-.4.25-.58.55-.41l18.22,10.52a1.3,1.3,0,0,1,.54,1h0C173.18,183.06,172.94,183.24,172.64,183.07Z"/><polygon class="b75752f8-8247-4e54-9238-8062892179c5" points="145.49 80.06 148.65 81.88 148.65 94.67 145.49 92.84 145.49 80.06"/><polygon class="b75752f8-8247-4e54-9238-8062892179c5" points="145.49 100.29 148.65 102.12 148.65 114.9 145.49 113.08 145.49 100.29"/><polygon class="b75752f8-8247-4e54-9238-8062892179c5" points="145.49 120.52 148.65 122.35 148.65 135.14 145.49 133.31 145.49 120.52"/><polygon class="b75752f8-8247-4e54-9238-8062892179c5" points="145.49 140.75 148.65 142.58 148.65 155.37 145.49 153.54 145.49 140.75"/><polygon class="b75752f8-8247-4e54-9238-8062892179c5" points="145.49 160.99 148.65 162.82 148.65 175.6 145.49 173.78 145.49 160.99"/><path class="a8c76de9-6883-45b7-b55f-7b93e1e7ddf2" d="M176.22,103.37c0,.41-.28.57-.64.37a1.43,1.43,0,0,1-.64-1.11c0-.41.29-.58.64-.37A1.39,1.39,0,0,1,176.22,103.37Z"/><path class="ab5e30ba-0eec-417e-a3ca-03164c0db13c" d="M178.94,104.94c0,.41-.29.57-.64.37a1.43,1.43,0,0,1-.64-1.11c0-.41.29-.58.64-.37A1.42,1.42,0,0,1,178.94,104.94Z"/><path class="a8c76de9-6883-45b7-b55f-7b93e1e7ddf2" d="M181.66,106.51c0,.4-.29.57-.64.37a1.42,1.42,0,0,1-.64-1.11c0-.41.28-.58.64-.37A1.42,1.42,0,0,1,181.66,106.51Z"/><path class="ab5e30ba-0eec-417e-a3ca-03164c0db13c" d="M176.22,123.59c0,.41-.28.58-.64.37a1.42,1.42,0,0,1-.64-1.11c0-.41.29-.57.64-.37A1.41,1.41,0,0,1,176.22,123.59Z"/><path class="a8c76de9-6883-45b7-b55f-7b93e1e7ddf2" d="M178.94,125.16c0,.41-.29.57-.64.37a1.42,1.42,0,0,1-.64-1.11c0-.41.29-.57.64-.37A1.42,1.42,0,0,1,178.94,125.16Z"/><path class="bf3f3c15-f267-4dad-899a-93b451a51752" d="M181.66,126.73c0,.41-.29.57-.64.37a1.41,1.41,0,0,1-.64-1.11c0-.41.28-.58.64-.37A1.42,1.42,0,0,1,181.66,126.73Z"/><path class="bf3f3c15-f267-4dad-899a-93b451a51752" d="M176.22,144c0,.41-.28.57-.64.37a1.43,1.43,0,0,1-.64-1.11c0-.41.29-.58.64-.37A1.39,1.39,0,0,1,176.22,144Z"/><path class="ab5e30ba-0eec-417e-a3ca-03164c0db13c" d="M178.94,145.54c0,.41-.29.57-.64.37a1.43,1.43,0,0,1-.64-1.11c0-.41.29-.58.64-.37A1.42,1.42,0,0,1,178.94,145.54Z"/><path class="bf3f3c15-f267-4dad-899a-93b451a51752" d="M181.66,147.11c0,.4-.29.57-.64.37a1.42,1.42,0,0,1-.64-1.11c0-.41.28-.58.64-.37A1.42,1.42,0,0,1,181.66,147.11Z"/><path class="bf3f3c15-f267-4dad-899a-93b451a51752" d="M176.22,164.05c0,.41-.28.57-.64.37a1.43,1.43,0,0,1-.64-1.11c0-.41.29-.58.64-.37A1.39,1.39,0,0,1,176.22,164.05Z"/><path class="a8c76de9-6883-45b7-b55f-7b93e1e7ddf2" d="M178.94,165.62c0,.4-.29.57-.64.37a1.45,1.45,0,0,1-.64-1.11c0-.41.29-.58.64-.37A1.42,1.42,0,0,1,178.94,165.62Z"/><path class="a8c76de9-6883-45b7-b55f-7b93e1e7ddf2" d="M181.66,167.18c0,.41-.29.58-.64.37a1.39,1.39,0,0,1-.64-1.11c0-.4.28-.57.64-.37A1.45,1.45,0,0,1,181.66,167.18Z"/><path class="bf3f3c15-f267-4dad-899a-93b451a51752" d="M176.22,184.4c0,.41-.28.57-.64.37a1.42,1.42,0,0,1-.64-1.11c0-.41.29-.57.64-.37A1.39,1.39,0,0,1,176.22,184.4Z"/><path class="ab5e30ba-0eec-417e-a3ca-03164c0db13c" d="M178.94,186c0,.41-.29.57-.64.37a1.43,1.43,0,0,1-.64-1.11c0-.41.29-.58.64-.37A1.42,1.42,0,0,1,178.94,186Z"/><path class="a8c76de9-6883-45b7-b55f-7b93e1e7ddf2" d="M181.66,187.54c0,.41-.29.57-.64.37a1.41,1.41,0,0,1-.64-1.11c0-.41.28-.58.64-.37A1.42,1.42,0,0,1,181.66,187.54Z"/><path class="a9783bea-d21c-4d00-a4b1-1db387ac9105" d="M195.56,193.39V102.86l.19-.11,37.83-21.84v90.53l-.18.11Zm.75-90.1V192.1L232.83,171V82.21Z"/><path class="a9783bea-d21c-4d00-a4b1-1db387ac9105" d="M223.76,121.64l-17,9.8c-1.14.65-2.06,0-2.06-1.56v-9.41a4.93,4.93,0,0,1,2.06-3.94l17-9.8c1.13-.66,2.06,0,2.06,1.56v9.41A5,5,0,0,1,223.76,121.64Z"/><path class="b4aadc9b-9571-47ca-ba50-c7d43900c283" d="M224.17,106.55a2.89,2.89,0,0,1,.15.94v9.41a4.92,4.92,0,0,1-2.06,3.94l-17,9.8a2.05,2.05,0,0,1-.41.18,1.2,1.2,0,0,0,1.91.62l17-9.8a5,5,0,0,0,2.06-3.94v-9.41C225.82,107,225.11,106.26,224.17,106.55Z"/><path class="bf3f3c15-f267-4dad-899a-93b451a51752" d="M220.66,116c.31-.18.56,0,.56.32v2.15a1.25,1.25,0,0,1-.56,1c-.32.18-.57,0-.57-.33V117A1.24,1.24,0,0,1,220.66,116Z"/><path class="a8c76de9-6883-45b7-b55f-7b93e1e7ddf2" d="M218.22,117.65c.32-.18.57,0,.57.33v1.87a1.25,1.25,0,0,1-.57,1c-.31.18-.57,0-.57-.33v-1.88A1.26,1.26,0,0,1,218.22,117.65Z"/><path class="ab5e30ba-0eec-417e-a3ca-03164c0db13c" d="M215.79,117c.31-.18.57,0,.57.33v4a1.26,1.26,0,0,1-.57,1c-.31.18-.57,0-.57-.33v-4A1.26,1.26,0,0,1,215.79,117Z"/><path class="a8c76de9-6883-45b7-b55f-7b93e1e7ddf2" d="M213.36,116.08c.31-.18.56,0,.56.33v6.25a1.25,1.25,0,0,1-.56,1c-.32.18-.57,0-.57-.33v-6.25A1.24,1.24,0,0,1,213.36,116.08Z"/><path class="a8c76de9-6883-45b7-b55f-7b93e1e7ddf2" d="M210.92,118.14c.32-.18.57,0,.57.33v5.6a1.24,1.24,0,0,1-.57,1c-.31.18-.57,0-.57-.33v-5.59A1.26,1.26,0,0,1,210.92,118.14Z"/><path class="bf3f3c15-f267-4dad-899a-93b451a51752" d="M208.49,122.11c.31-.19.57,0,.57.32v3a1.26,1.26,0,0,1-.57,1c-.32.18-.57,0-.57-.33v-3A1.24,1.24,0,0,1,208.49,122.11Z"/><path class="ab5e30ba-0eec-417e-a3ca-03164c0db13c" d="M220.1,114.89c0,.36.25.51.56.33a1.25,1.25,0,0,0,.55-1c0-.36-.25-.5-.55-.32A1.23,1.23,0,0,0,220.1,114.89Z"/><path class="bf3f3c15-f267-4dad-899a-93b451a51752" d="M220.1,112.88c0,.36.25.5.56.32a1.25,1.25,0,0,0,.55-1c0-.36-.25-.5-.55-.33A1.23,1.23,0,0,0,220.1,112.88Z"/><path class="bf3f3c15-f267-4dad-899a-93b451a51752" d="M115.12,268.28a7,7,0,0,1-3.45-.82l-41.55-24a3.44,3.44,0,0,1-1.87-3,4.06,4.06,0,0,1,2.3-3.4l44-25.5a8.23,8.23,0,0,1,7.63-.24l41.56,24a3.43,3.43,0,0,1,1.87,2.95,4.06,4.06,0,0,1-2.3,3.41l-44,25.49A8.54,8.54,0,0,1,115.12,268.28ZM71.7,240.46l.12.08,41.55,24a5,5,0,0,0,4.25-.25l44-25.49a2.06,2.06,0,0,0,.55-.43l-.12-.07-41.55-24a5,5,0,0,0-4.25.25L72.25,240A2.33,2.33,0,0,0,71.7,240.46Z"/><path class="b512f9ba-ebed-4560-8bfb-6e02bffcb0d6" d="M163.87,220.87l-44.43-25.65a7.52,7.52,0,0,1-3.12-6V82.92c0-2.3,1.4-3.36,3.12-2.36l44.43,25.65a7.47,7.47,0,0,1,3.13,6V218.5C167,220.81,165.6,221.87,163.87,220.87Z"/><path class="bbe26f6f-6f05-445c-8193-b82303ed0b66" d="M163.87,106.21,119.44,80.56a2,2,0,0,0-2-.18h0L66.7,109.64l2.39,8.85,46.25,131.72,50.52-29.14,0,0L166,221h0a2.83,2.83,0,0,0,1-2.5V112.18A7.47,7.47,0,0,0,163.87,106.21Z"/><path class="a8c76de9-6883-45b7-b55f-7b93e1e7ddf2" d="M163.87,106.21,119.44,80.56a2,2,0,0,0-2-.18h0L66.7,109.64l2.39,8.85,12.72,36.22,2.39,1.38,81.93-47.3A6.21,6.21,0,0,0,163.87,106.21Z"/><path class="b4aadc9b-9571-47ca-ba50-c7d43900c283" d="M113.19,250.11,68.76,224.46a7.5,7.5,0,0,1-3.13-6V112.16c0-2.3,1.4-3.36,3.13-2.37l44.43,25.66a7.47,7.47,0,0,1,3.13,6V247.74C116.32,250.05,114.92,251.1,113.19,250.11Z"/><path class="a170a5e9-d433-4cea-9c16-445db3714b32" d="M110.39,243.71,71.55,221.28a6.54,6.54,0,0,1-2.73-5.22V117.32c0-2,1.22-2.94,2.73-2.07l38.84,22.42a6.57,6.57,0,0,1,2.74,5.23v98.74C113.13,243.65,111.9,244.58,110.39,243.71Z"/><path class="a170a5e9-d433-4cea-9c16-445db3714b32" d="M110.39,243.71,71.55,221.28a6.54,6.54,0,0,1-2.73-5.22V117.32c0-2,1.22-2.94,2.73-2.07l38.84,22.42a6.57,6.57,0,0,1,2.74,5.23v98.74C113.13,243.65,111.9,244.58,110.39,243.71Z"/><path class="a9783bea-d21c-4d00-a4b1-1db387ac9105" d="M110.39,243.71,71.55,221.28a6.54,6.54,0,0,1-2.73-5.22V117.32c0-2,1.22-2.94,2.73-2.07l38.84,22.42a6.57,6.57,0,0,1,2.74,5.23v98.74C113.13,243.65,111.9,244.58,110.39,243.71Z"/><path class="bbe26f6f-6f05-445c-8193-b82303ed0b66" d="M111.66,243,72.82,220.54a6.56,6.56,0,0,1-2.73-5.23V116.57a3.14,3.14,0,0,1,.39-1.65c-1,0-1.66.89-1.66,2.4v98.74a6.54,6.54,0,0,0,2.73,5.22l38.84,22.43a1.6,1.6,0,0,0,2.35-.42A2.2,2.2,0,0,1,111.66,243Z"/><path class="a9783bea-d21c-4d00-a4b1-1db387ac9105" d="M110.39,198.37,96,190l-23,13.29,40.2,23.21V203.6A6.58,6.58,0,0,0,110.39,198.37Z"/><path class="a9783bea-d21c-4d00-a4b1-1db387ac9105" d="M110.39,178.14,96,169.81l-23,13.29,40.2,23.21V183.37A6.55,6.55,0,0,0,110.39,178.14Z"/><path class="a9783bea-d21c-4d00-a4b1-1db387ac9105" d="M110.39,157.91,96,149.57l-23,13.3,40.2,23.2V163.13A6.55,6.55,0,0,0,110.39,157.91Z"/><path class="a9783bea-d21c-4d00-a4b1-1db387ac9105" d="M110.39,137.67,96,129.34l-23,13.29,40.2,23.21V142.9A6.57,6.57,0,0,0,110.39,137.67Z"/><path class="a9783bea-d21c-4d00-a4b1-1db387ac9105" d="M110.39,137.67l-32-18.45-5.5,3.18,40.2,23.2v-2.7A6.57,6.57,0,0,0,110.39,137.67Z"/><polygon class="b4aadc9b-9571-47ca-ba50-c7d43900c283" points="113.13 145.6 72.93 122.4 72.93 135.19 113.13 158.39 113.13 145.6"/><polygon class="b4aadc9b-9571-47ca-ba50-c7d43900c283" points="113.13 165.84 72.93 142.63 72.93 155.42 113.13 178.63 113.13 165.84"/><polygon class="b4aadc9b-9571-47ca-ba50-c7d43900c283" points="113.13 186.07 72.93 162.87 72.93 175.65 113.13 198.86 113.13 186.07"/><polygon class="b4aadc9b-9571-47ca-ba50-c7d43900c283" points="113.13 206.31 72.93 183.1 72.93 195.89 113.13 219.09 113.13 206.31"/><polygon class="b4aadc9b-9571-47ca-ba50-c7d43900c283" points="113.13 226.54 72.93 203.33 72.93 216.12 113.13 239.33 113.13 226.54"/><path class="a9783bea-d21c-4d00-a4b1-1db387ac9105" d="M109.58,153.84,79.31,136.36a3.71,3.71,0,0,1-1.55-3V130c0-1.14.69-1.66,1.55-1.17l30.27,17.48a3.71,3.71,0,0,1,1.55,3v3.43C111.13,153.81,110.44,154.33,109.58,153.84Z"/><path class="a8d053eb-8e8c-4e27-87d0-4c6d4d7c159f" d="M80.84,135.7a3.69,3.69,0,0,1-1.55-3v-3.42a1.88,1.88,0,0,1,.06-.49l0,0c-.86-.49-1.55,0-1.55,1.17v3.43a3.71,3.71,0,0,0,1.55,3l30.27,17.48a.93.93,0,0,0,1.49-.68Z"/><path class="bf3f3c15-f267-4dad-899a-93b451a51752" d="M100.08,144.45,81.86,133.93a1.3,1.3,0,0,1-.54-1h0c0-.4.24-.59.54-.41L100.08,143a1.31,1.31,0,0,1,.55,1h0C100.63,144.44,100.38,144.62,100.08,144.45Z"/><path class="a9783bea-d21c-4d00-a4b1-1db387ac9105" d="M109.58,173.94,79.31,156.46a3.67,3.67,0,0,1-1.55-3v-3.43c0-1.14.69-1.66,1.55-1.17l30.27,17.48a3.71,3.71,0,0,1,1.55,3v3.42C111.13,173.91,110.44,174.44,109.58,173.94Z"/><path class="a8d053eb-8e8c-4e27-87d0-4c6d4d7c159f" d="M80.84,155.81a3.69,3.69,0,0,1-1.55-3v-3.42a1.9,1.9,0,0,1,.06-.5l0,0c-.86-.49-1.55,0-1.55,1.17v3.43a3.67,3.67,0,0,0,1.55,3l30.27,17.48a.92.92,0,0,0,1.49-.67Z"/><path class="bf3f3c15-f267-4dad-899a-93b451a51752" d="M100.08,164.56,81.86,154a1.3,1.3,0,0,1-.54-1h0c0-.4.24-.59.54-.41l18.22,10.52a1.29,1.29,0,0,1,.55,1h0C100.63,164.55,100.38,164.73,100.08,164.56Z"/><path class="a9783bea-d21c-4d00-a4b1-1db387ac9105" d="M109.58,194.24,79.31,176.76a3.69,3.69,0,0,1-1.55-3v-3.42c0-1.14.69-1.66,1.55-1.17l30.27,17.48a3.69,3.69,0,0,1,1.55,3v3.42C111.13,194.21,110.44,194.73,109.58,194.24Z"/><path class="a8d053eb-8e8c-4e27-87d0-4c6d4d7c159f" d="M80.84,176.1a3.67,3.67,0,0,1-1.55-2.95v-3.43a1.88,1.88,0,0,1,.06-.49l0,0c-.86-.5-1.55,0-1.55,1.17v3.42a3.69,3.69,0,0,0,1.55,3l30.27,17.48a.93.93,0,0,0,1.49-.68Z"/><path class="a8c76de9-6883-45b7-b55f-7b93e1e7ddf2" d="M100.08,184.85,81.86,174.33a1.28,1.28,0,0,1-.54-1h0c0-.4.24-.58.54-.41l18.22,10.52a1.31,1.31,0,0,1,.55,1h0C100.63,184.84,100.38,185,100.08,184.85Z"/><path class="a9783bea-d21c-4d00-a4b1-1db387ac9105" d="M109.58,214.72,79.31,197.24a3.67,3.67,0,0,1-1.55-3v-3.43c0-1.14.69-1.66,1.55-1.17l30.27,17.48a3.69,3.69,0,0,1,1.55,3v3.42C111.13,214.69,110.44,215.22,109.58,214.72Z"/><path class="a8d053eb-8e8c-4e27-87d0-4c6d4d7c159f" d="M80.84,196.59a3.71,3.71,0,0,1-1.55-3v-3.42a1.9,1.9,0,0,1,.06-.5l0,0c-.86-.49-1.55,0-1.55,1.17v3.43a3.67,3.67,0,0,0,1.55,3l30.27,17.48a.92.92,0,0,0,1.49-.68Z"/><path class="ab5e30ba-0eec-417e-a3ca-03164c0db13c" d="M100.08,205.34,81.86,194.82a1.31,1.31,0,0,1-.54-1h0c0-.4.24-.59.54-.41l18.22,10.51a1.32,1.32,0,0,1,.55,1h0C100.63,205.33,100.38,205.51,100.08,205.34Z"/><path class="a9783bea-d21c-4d00-a4b1-1db387ac9105" d="M109.58,234.8,79.31,217.32a3.69,3.69,0,0,1-1.55-3v-3.42c0-1.14.69-1.66,1.55-1.17l30.27,17.48a3.69,3.69,0,0,1,1.55,3v3.42C111.13,234.77,110.44,235.29,109.58,234.8Z"/><path class="a8d053eb-8e8c-4e27-87d0-4c6d4d7c159f" d="M80.84,216.67a3.71,3.71,0,0,1-1.55-3v-3.43a1.88,1.88,0,0,1,.06-.49l0,0c-.86-.49-1.55,0-1.55,1.17v3.42a3.69,3.69,0,0,0,1.55,3l30.27,17.48a.92.92,0,0,0,1.49-.68Z"/><path class="a8c76de9-6883-45b7-b55f-7b93e1e7ddf2" d="M100.08,225.41,81.86,214.9a1.32,1.32,0,0,1-.54-1.05h0c0-.4.24-.58.54-.41L100.08,224a1.32,1.32,0,0,1,.55,1h0C100.63,225.4,100.38,225.59,100.08,225.41Z"/><polygon class="b75752f8-8247-4e54-9238-8062892179c5" points="72.93 122.4 76.1 124.22 76.1 137.01 72.93 135.19 72.93 122.4"/><polygon class="b75752f8-8247-4e54-9238-8062892179c5" points="72.93 142.63 76.1 144.46 76.1 157.25 72.93 155.42 72.93 142.63"/><polygon class="b75752f8-8247-4e54-9238-8062892179c5" points="72.93 162.87 76.1 164.69 76.1 177.48 72.93 175.65 72.93 162.87"/><polygon class="b75752f8-8247-4e54-9238-8062892179c5" points="72.93 183.1 76.1 184.93 76.1 197.71 72.93 195.89 72.93 183.1"/><polygon class="b75752f8-8247-4e54-9238-8062892179c5" points="72.93 203.33 76.1 205.16 76.1 217.95 72.93 216.12 72.93 203.33"/><path class="a8c76de9-6883-45b7-b55f-7b93e1e7ddf2" d="M103.67,145.71c0,.41-.29.58-.64.37a1.42,1.42,0,0,1-.64-1.11c0-.41.29-.57.64-.37A1.43,1.43,0,0,1,103.67,145.71Z"/><path class="ab5e30ba-0eec-417e-a3ca-03164c0db13c" d="M106.39,147.28c0,.41-.29.57-.64.37a1.39,1.39,0,0,1-.64-1.11c0-.41.28-.57.64-.37A1.42,1.42,0,0,1,106.39,147.28Z"/><path class="a8c76de9-6883-45b7-b55f-7b93e1e7ddf2" d="M109.11,148.85c0,.41-.29.57-.65.37a1.43,1.43,0,0,1-.64-1.11c0-.41.29-.58.64-.37A1.4,1.4,0,0,1,109.11,148.85Z"/><path class="ab5e30ba-0eec-417e-a3ca-03164c0db13c" d="M103.67,165.93c0,.41-.29.58-.64.37a1.42,1.42,0,0,1-.64-1.11c0-.4.29-.57.64-.37A1.45,1.45,0,0,1,103.67,165.93Z"/><path class="a8c76de9-6883-45b7-b55f-7b93e1e7ddf2" d="M106.39,167.5c0,.41-.29.58-.64.37a1.39,1.39,0,0,1-.64-1.11c0-.41.28-.57.64-.37A1.43,1.43,0,0,1,106.39,167.5Z"/><path class="bf3f3c15-f267-4dad-899a-93b451a51752" d="M109.11,169.07c0,.41-.29.58-.65.37a1.42,1.42,0,0,1-.64-1.11c0-.41.29-.57.64-.37A1.42,1.42,0,0,1,109.11,169.07Z"/><path class="bf3f3c15-f267-4dad-899a-93b451a51752" d="M103.67,186.31c0,.41-.29.57-.64.37a1.42,1.42,0,0,1-.64-1.11c0-.41.29-.57.64-.37A1.42,1.42,0,0,1,103.67,186.31Z"/><path class="ab5e30ba-0eec-417e-a3ca-03164c0db13c" d="M106.39,187.88c0,.41-.29.57-.64.37a1.41,1.41,0,0,1-.64-1.11c0-.41.28-.58.64-.37A1.42,1.42,0,0,1,106.39,187.88Z"/><path class="bf3f3c15-f267-4dad-899a-93b451a51752" d="M109.11,189.45c0,.41-.29.57-.65.37a1.43,1.43,0,0,1-.64-1.11c0-.41.29-.58.64-.37A1.4,1.4,0,0,1,109.11,189.45Z"/><path class="bf3f3c15-f267-4dad-899a-93b451a51752" d="M103.67,206.39c0,.41-.29.57-.64.37a1.42,1.42,0,0,1-.64-1.11c0-.41.29-.57.64-.37A1.42,1.42,0,0,1,103.67,206.39Z"/><path class="a8c76de9-6883-45b7-b55f-7b93e1e7ddf2" d="M106.39,208c0,.41-.29.57-.64.37a1.41,1.41,0,0,1-.64-1.11c0-.41.28-.58.64-.37A1.42,1.42,0,0,1,106.39,208Z"/><path class="a8c76de9-6883-45b7-b55f-7b93e1e7ddf2" d="M109.11,209.53c0,.41-.29.57-.65.37a1.43,1.43,0,0,1-.64-1.11c0-.41.29-.58.64-.37A1.4,1.4,0,0,1,109.11,209.53Z"/><path class="bf3f3c15-f267-4dad-899a-93b451a51752" d="M103.67,226.74c0,.41-.29.58-.64.37a1.42,1.42,0,0,1-.64-1.11c0-.41.29-.57.64-.37A1.43,1.43,0,0,1,103.67,226.74Z"/><path class="ab5e30ba-0eec-417e-a3ca-03164c0db13c" d="M106.39,228.31c0,.41-.29.58-.64.37a1.39,1.39,0,0,1-.64-1.11c0-.41.28-.57.64-.37A1.43,1.43,0,0,1,106.39,228.31Z"/><path class="a8c76de9-6883-45b7-b55f-7b93e1e7ddf2" d="M109.11,229.88c0,.41-.29.57-.65.37a1.42,1.42,0,0,1-.64-1.11c0-.41.29-.57.64-.37A1.4,1.4,0,0,1,109.11,229.88Z"/><path class="a9783bea-d21c-4d00-a4b1-1db387ac9105" d="M123,235.74V145.2l.19-.1L161,123.25v90.53l-.19.11Zm.75-90.1v88.8l36.52-21.09v-88.8Z"/><path class="a9783bea-d21c-4d00-a4b1-1db387ac9105" d="M151.2,164l-17,9.8c-1.14.66-2.07,0-2.07-1.56v-9.41a4.94,4.94,0,0,1,2.07-3.94l17-9.79c1.14-.66,2.07,0,2.07,1.56V160A4.93,4.93,0,0,1,151.2,164Z"/><path class="b4aadc9b-9571-47ca-ba50-c7d43900c283" d="M151.61,148.89a2.7,2.7,0,0,1,.16,1v9.4a5,5,0,0,1-2.07,3.95l-17,9.79a2.05,2.05,0,0,1-.41.18,1.2,1.2,0,0,0,1.91.62l17-9.8a4.93,4.93,0,0,0,2.07-3.94v-9.4C153.27,149.3,152.56,148.6,151.61,148.89Z"/><path class="bf3f3c15-f267-4dad-899a-93b451a51752" d="M148.1,158.32c.32-.18.57,0,.57.33v2.14a1.24,1.24,0,0,1-.57,1c-.31.18-.56,0-.56-.32V159.3A1.25,1.25,0,0,1,148.1,158.32Z"/><path class="a8c76de9-6883-45b7-b55f-7b93e1e7ddf2" d="M145.67,160c.31-.18.57,0,.57.33v1.88a1.26,1.26,0,0,1-.57,1c-.31.18-.57,0-.57-.33V161A1.26,1.26,0,0,1,145.67,160Z"/><path class="ab5e30ba-0eec-417e-a3ca-03164c0db13c" d="M143.24,159.31c.31-.19.56,0,.56.32v4a1.25,1.25,0,0,1-.56,1c-.32.19-.57,0-.57-.32v-4A1.24,1.24,0,0,1,143.24,159.31Z"/><path class="a8c76de9-6883-45b7-b55f-7b93e1e7ddf2" d="M140.8,158.43c.32-.19.57,0,.57.32V165a1.24,1.24,0,0,1-.57,1c-.31.18-.57,0-.57-.33v-6.25A1.26,1.26,0,0,1,140.8,158.43Z"/><path class="a8c76de9-6883-45b7-b55f-7b93e1e7ddf2" d="M138.37,160.49c.31-.19.57,0,.57.32v5.6a1.26,1.26,0,0,1-.57,1c-.31.19-.57,0-.57-.32v-5.6A1.26,1.26,0,0,1,138.37,160.49Z"/><path class="bf3f3c15-f267-4dad-899a-93b451a51752" d="M135.94,164.45c.31-.18.56,0,.56.33v3a1.25,1.25,0,0,1-.56,1c-.32.18-.57,0-.57-.33v-3A1.24,1.24,0,0,1,135.94,164.45Z"/><path class="ab5e30ba-0eec-417e-a3ca-03164c0db13c" d="M147.55,157.24c0,.35.25.5.55.32a1.23,1.23,0,0,0,.56-1c0-.35-.25-.5-.56-.32A1.25,1.25,0,0,0,147.55,157.24Z"/><path class="bf3f3c15-f267-4dad-899a-93b451a51752" d="M147.55,155.22c0,.36.25.5.55.33a1.25,1.25,0,0,0,.56-1c0-.36-.25-.5-.56-.32A1.23,1.23,0,0,0,147.55,155.22Z"/></g></g></svg>