<svg width="332" height="271" viewBox="0 0 332 271" fill="none" xmlns="http://www.w3.org/2000/svg">
<path d="M173.16 268.89C172.286 268.888 171.427 268.657 170.67 268.22L132.28 246.05L132.61 245.48L170.99 267.65C171.649 268.033 172.398 268.235 173.16 268.235C173.922 268.235 174.671 268.033 175.33 267.65L186.54 261.13L249.31 224.89C249.453 224.809 249.572 224.691 249.654 224.548C249.737 224.406 249.78 224.245 249.78 224.08C249.781 223.917 249.737 223.756 249.655 223.616C249.572 223.475 249.453 223.359 249.31 223.28L184.2 185.69L184.53 185.12L249.64 222.71C249.881 222.848 250.081 223.048 250.22 223.289C250.36 223.529 250.433 223.802 250.433 224.08C250.433 224.358 250.36 224.631 250.22 224.871C250.081 225.112 249.881 225.312 249.64 225.45L186.86 261.7L175.66 268.22C174.898 268.655 174.037 268.886 173.16 268.89V268.89Z" fill="#8686F2"/>
<path d="M248.99 175.61L203.51 149.35C202.82 148.957 202.039 148.751 201.245 148.751C200.451 148.751 199.67 148.957 198.98 149.35L177.72 161.63L177.4 161.06L198.66 148.78C199.448 148.328 200.341 148.091 201.25 148.091C202.159 148.091 203.052 148.328 203.84 148.78L249.34 175L248.99 175.61Z" fill="#8686F2"/>
<path style="mix-blend-mode:lighten" opacity="0.6" d="M124.66 123.11L94.73 140.39L134.8 163.53L164.73 146.25L124.66 123.11Z" fill="url(#paint0_linear_2_3)"/>
<path style="mix-blend-mode:lighten" opacity="0.6" d="M94.73 186.66L124.66 203.94L164.74 180.81L134.8 163.53L94.73 186.66Z" fill="url(#paint1_linear_2_3)"/>
<path d="M164.73 196.38C164.169 196.397 163.614 196.266 163.12 196L126.93 175.11C126.723 175.01 126.547 174.856 126.42 174.664C126.294 174.472 126.221 174.25 126.21 174.02C126.241 173.727 126.35 173.449 126.526 173.213C126.702 172.977 126.938 172.793 127.21 172.68L162.91 152.07C163.464 151.759 164.083 151.583 164.718 151.559C165.353 151.535 165.984 151.662 166.56 151.93L202.74 172.82C202.949 172.919 203.127 173.072 203.255 173.264C203.384 173.456 203.458 173.679 203.47 173.91C203.439 174.203 203.33 174.481 203.154 174.717C202.978 174.953 202.742 175.137 202.47 175.25L166.77 195.86C166.147 196.209 165.444 196.389 164.73 196.38V196.38ZM163.4 195.52C163.891 195.736 164.425 195.835 164.961 195.811C165.497 195.787 166.02 195.639 166.49 195.38L202.19 174.77C202.62 174.52 202.88 174.2 202.88 173.91C202.866 173.779 202.817 173.653 202.738 173.548C202.659 173.442 202.552 173.36 202.43 173.31L166.25 152.41C165.757 152.196 165.221 152.098 164.684 152.122C164.147 152.146 163.622 152.293 163.15 152.55L127.46 173.17C127.03 173.41 126.77 173.73 126.77 174.02C126.785 174.151 126.833 174.276 126.91 174.382C126.987 174.489 127.091 174.574 127.21 174.63L163.4 195.52Z" fill="#8686F2"/>
<path d="M203.16 158.68V163.12L164.74 185.31L126.31 163.12V158.68H203.16Z" fill="url(#paint2_linear_2_3)"/>
<path d="M164.74 180.86L126.31 158.68L164.73 136.49L203.16 158.68L164.74 180.86Z" fill="#BCBEFF"/>
<path d="M164.74 180.35L126.76 158.42L126.31 158.68L164.74 180.86L203.16 158.68L202.71 158.42L164.74 180.35Z" fill="white"/>
<path d="M164.74 175.75L135.18 158.68L164.73 141.62L194.29 158.68L164.74 175.75Z" fill="#0F054C"/>
<path opacity="0.5" d="M164.74 175.75L135.18 158.68L164.73 141.62L194.29 158.68L164.74 175.75Z" fill="url(#paint3_linear_2_3)"/>
<path opacity="0.5" d="M164.73 137.32L194.29 154.38V158.68L164.73 141.62V137.32Z" fill="url(#paint4_linear_2_3)"/>
<path opacity="0.5" d="M164.74 141.62L135.18 158.68V154.38L164.73 137.32L164.74 141.62Z" fill="url(#paint5_linear_2_3)"/>
<path opacity="0.5" d="M164.74 171.44L135.18 154.38L164.73 137.32L194.29 154.38L164.74 171.44Z" fill="url(#paint6_linear_2_3)"/>
<path opacity="0.5" d="M164.74 161.2L152.92 154.38L164.73 147.56L176.55 154.38L164.74 161.2Z" fill="#42E8E0"/>
<path opacity="0.5" d="M164.73 148.19L176 154.69L176.55 154.38L164.73 147.56L152.92 154.38L153.47 154.69L164.73 148.19Z" fill="#42E8E0"/>
<path opacity="0.5" d="M164.74 171.44V175.75L194.29 158.68V154.38L164.74 171.44Z" fill="url(#paint7_linear_2_3)"/>
<path opacity="0.5" d="M135.18 154.38V158.68L164.74 175.75V171.44L135.18 154.38Z" fill="url(#paint8_linear_2_3)"/>
<path opacity="0.8" d="M164.74 170.97L135.58 154.15L135.18 154.38L164.74 171.44L194.29 154.38L193.88 154.15L164.74 170.97Z" fill="#42E8E0"/>
<path d="M87.81 108.32L19.52 68.89L87.81 29.46L156.11 68.89L87.81 108.32Z" fill="#BCBEFF"/>
<path opacity="0.7" d="M87.81 104.77L25.67 68.89L87.81 33.01L149.96 68.89L87.81 104.77Z" fill="#453C9E"/>
<path d="M87.81 270.91C86.7571 270.902 85.724 270.623 84.81 270.1L1.16002 221.8C0.885634 221.644 0.657535 221.417 0.498871 221.144C0.340207 220.871 0.256622 220.561 0.256622 220.245C0.256622 219.929 0.340207 219.619 0.498871 219.346C0.657535 219.073 0.885634 218.846 1.16002 218.69L87.86 168.64L177.25 220.25L90.86 270.1C89.9313 270.631 88.8799 270.91 87.81 270.91V270.91ZM85.09 269.53C85.919 270.002 86.8563 270.25 87.81 270.25C88.7638 270.25 89.7011 270.002 90.53 269.53L175.88 220.25L87.81 169.39L1.44002 219.26C1.26267 219.359 1.11577 219.504 1.01527 219.68C0.914779 219.857 0.864544 220.057 0.870026 220.26C0.865646 220.463 0.916341 220.663 1.01672 220.839C1.11711 221.015 1.26341 221.16 1.44002 221.26L85.09 269.53Z" fill="#8686F2"/>
<path d="M87.81 259.68L19.52 220.24L87.81 180.81L156.11 220.25L87.81 259.68Z" fill="white"/>
<path d="M156.11 68.89V220.25L87.81 259.68V108.32L156.11 68.89Z" fill="url(#paint9_linear_2_3)"/>
<path d="M19.52 68.89V220.24L87.81 259.68V108.32L19.52 68.89Z" fill="#24126A"/>
<g opacity="0.51">
<path opacity="0.51" d="M24.14 78.93V214.97L83.19 249.06V113.02L24.14 78.93Z" fill="#453C9E"/>
</g>
<path d="M145.86 105.46V109.46L98.06 137.06V133.06L145.86 105.46Z" fill="#453C9E"/>
<path d="M145.86 122.37V126.37L98.06 153.97V149.97L145.86 122.37Z" fill="#453C9E"/>
<path d="M145.86 139.29V143.29L98.06 170.89V166.89L145.86 139.29Z" fill="#453C9E"/>
<path d="M145.86 156.2V160.21L98.06 187.81V183.81L145.86 156.2Z" fill="#453C9E"/>
<path d="M145.86 173.12V177.12L98.06 204.72V200.72L145.86 173.12Z" fill="#453C9E"/>
<path d="M145.86 190.03V194.04L98.06 221.64V217.64L145.86 190.03Z" fill="#453C9E"/>
<path d="M87.81 107.04L20.63 68.25L19.52 68.89L87.81 108.32L156.11 68.89L155 68.25L87.81 107.04Z" fill="white"/>
<g opacity="0.51">
<path opacity="0.51" d="M19.52 196.32L87.81 155.09V108.32L19.52 68.89V196.32Z" fill="#453C9E"/>
</g>
<path d="M31.21 127.11L39.71 132.02V130.54L31.22 125.64L31.21 127.11Z" fill="#42E8E0"/>
<path d="M41.08 132.8L45.71 135.48V134L41.08 131.33V132.8Z" fill="#42E8E0"/>
<path d="M52.91 139.63L56.26 141.56L56.27 140.09L52.92 138.16L52.91 139.63Z" fill="#42E8E0"/>
<path d="M50.47 138.22L51.62 138.88V137.41L50.47 136.75V138.22Z" fill="#42E8E0"/>
<path d="M47.09 136.27L49.17 137.47V136L47.09 134.79V136.27Z" fill="#42E8E0"/>
<path d="M39.07 138.39L42.42 140.32V138.85L39.07 136.91V138.39Z" fill="#42E8E0"/>
<path d="M31.21 133.85L37.77 137.64V136.16L31.21 132.37V133.85Z" fill="#42E8E0"/>
<path d="M43.45 157.75L50.01 161.54V160.07L43.45 156.28V157.75Z" fill="#42E8E0"/>
<path d="M40.07 155.8L42.15 157V155.53L40.07 154.32V155.8Z" fill="#42E8E0"/>
<path d="M43.41 151L49.98 154.79V153.32L43.41 149.53V151Z" fill="#42E8E0"/>
<path d="M40.03 149.05L42.11 150.25L42.12 148.78L40.04 147.58L40.03 149.05Z" fill="#42E8E0"/>
<path d="M43.49 186.87L31.12 179.73V181.2L43.49 188.34V186.87Z" fill="#42E8E0"/>
<path d="M47.84 189.38L44.78 187.62V189.09L47.84 190.86V189.38Z" fill="#42E8E0"/>
<path d="M67.88 190.81L55.51 183.67V185.15L67.88 192.29V190.81Z" fill="#42E8E0"/>
<path d="M72.24 193.33L69.18 191.56L69.17 193.04L72.23 194.81L72.24 193.33Z" fill="#42E8E0"/>
<path d="M34.47 178.29L31.12 176.36V177.83L34.47 179.77V178.29Z" fill="#42E8E0"/>
<path d="M53.73 182.66L50.38 180.72L50.37 182.2L53.72 184.13L53.73 182.66Z" fill="#42E8E0"/>
<path d="M42.34 182.83L35.77 179.04V180.52L42.34 184.31V182.83Z" fill="#42E8E0"/>
<path d="M45.72 184.78L43.63 183.58V185.06L45.71 186.26L45.72 184.78Z" fill="#42E8E0"/>
<path d="M53.64 189.35L47.07 185.56V187.04L53.64 190.83V189.35Z" fill="#42E8E0"/>
<path d="M57.01 191.3L54.94 190.1V191.58L57.01 192.78V191.3Z" fill="#42E8E0"/>
<path d="M53.72 186.03L50.37 184.1V185.57L53.72 187.5V186.03Z" fill="#42E8E0"/>
<path d="M61.59 190.57L55.02 186.78V188.25L61.59 192.05V190.57Z" fill="#42E8E0"/>
<path d="M64.96 192.52L62.88 191.32V192.8L64.96 194V192.52Z" fill="#42E8E0"/>
<path d="M37.98 176.95L31.13 172.99L31.12 174.46L37.98 178.42V176.95Z" fill="#42E8E0"/>
<path d="M44.24 180.56L39.28 177.7V179.17L44.24 182.04V180.56Z" fill="#42E8E0"/>
<path d="M48.89 183.25L45.54 181.31L45.53 182.78L48.89 184.72V183.25Z" fill="#42E8E0"/>
<path d="M71.56 153.75L78.41 157.71V156.24L71.56 152.28V153.75Z" fill="#42E8E0"/>
<path d="M65.3 150.14L70.26 153V151.53L65.3 148.67V150.14Z" fill="#42E8E0"/>
<path d="M60.65 147.46L64 149.39V147.92L60.65 145.98V147.46Z" fill="#42E8E0"/>
<path d="M68.71 148.73L75.57 152.69V151.21L68.71 147.25V148.73Z" fill="#42E8E0"/>
<path d="M62.46 145.12L67.41 147.98V146.5L62.46 143.64V145.12Z" fill="#42E8E0"/>
<path d="M57.81 142.43L61.16 144.37V142.89L57.81 140.96V142.43Z" fill="#42E8E0"/>
<path d="M44.43 154.96L46.75 156.3V154.83L44.43 153.49V154.96Z" fill="#42E8E0"/>
<path d="M40.07 152.45L43.13 154.21V152.74L40.07 150.97V152.45Z" fill="#42E8E0"/>
<path d="M38.03 173.6L31.17 169.64V171.12L38.03 175.07V173.6Z" fill="#42E8E0"/>
<path d="M44.28 177.21L39.33 174.35L39.32 175.82L44.28 178.69V177.21Z" fill="#42E8E0"/>
<path d="M48.93 179.9L45.58 177.96V179.44L48.93 181.37V179.9Z" fill="#42E8E0"/>
<path d="M33.49 167.61L31.18 166.27L31.17 167.75L33.49 169.08V167.61Z" fill="#42E8E0"/>
<path d="M37.85 170.13L34.79 168.36V169.83L37.85 171.6V170.13Z" fill="#42E8E0"/>
<path d="M44.08 173.72L39.15 170.88V172.35L44.08 175.2V173.72Z" fill="#42E8E0"/>
<path d="M45.88 145.68L48.2 147.01V145.54L45.88 144.2V145.68Z" fill="#42E8E0"/>
<path d="M41.52 143.16L44.58 144.93V143.45L41.52 141.68V143.16Z" fill="#42E8E0"/>
<path d="M35.29 139.56L40.22 142.41V140.93L35.29 138.09V139.56Z" fill="#42E8E0"/>
<path d="M49.93 151.14L54.86 153.99L54.87 152.52L49.93 149.67V151.14Z" fill="#42E8E0"/>
<path d="M41.91 146.75L48.56 150.59V149.11L41.91 145.28V146.75Z" fill="#42E8E0"/>
<path d="M38.53 144.8L40.61 146V144.53L38.53 143.33V144.8Z" fill="#42E8E0"/>
<path d="M35.29 142.93L37.37 144.13V142.66L35.29 141.45V142.93Z" fill="#42E8E0"/>
<path d="M38.61 161.97L45.18 165.76V164.28L38.61 160.49V161.97Z" fill="#42E8E0"/>
<path d="M35.23 160.02L37.31 161.22V159.74L35.23 158.54V160.02Z" fill="#42E8E0"/>
<path d="M39.63 165.93L41.94 167.26V165.79L39.63 164.45V165.93Z" fill="#42E8E0"/>
<path d="M46.67 163.23L48.98 164.56V163.09L46.67 161.75V163.23Z" fill="#42E8E0"/>
<path d="M49.97 165.13L55.52 168.34L55.53 166.86L49.97 163.66V165.13Z" fill="#42E8E0"/>
<path d="M56.51 168.9L59.81 170.81V169.34L56.51 167.43V168.9Z" fill="#42E8E0"/>
<path d="M35.27 163.41L38.33 165.18V163.7L35.27 161.94V163.41Z" fill="#42E8E0"/>
<path d="M35.54 166.87L37.85 168.21V166.74L35.54 165.4V166.87Z" fill="#42E8E0"/>
<path d="M31.18 164.36L34.24 166.12V164.65L31.18 162.88V164.36Z" fill="#42E8E0"/>
<path d="M43.31 161.29L45.39 162.49V161.01L43.31 159.81V161.29Z" fill="#42E8E0"/>
<path d="M40.07 159.42L42.15 160.62V159.14L40.07 157.94V159.42Z" fill="#42E8E0"/>
<path d="M52.03 142.48L59.13 146.58V145.1L52.03 141.01V142.48Z" fill="#42E8E0"/>
<path d="M44.09 137.9L50.74 141.73V140.26L44.09 136.42V137.9Z" fill="#42E8E0"/>
<path d="M40.71 135.95L42.79 137.15V135.67L40.71 134.47V135.95Z" fill="#42E8E0"/>
<path d="M37.47 134.07L39.55 135.28V133.8L37.47 132.6V134.07Z" fill="#42E8E0"/>
<path d="M35.7 133.05L31.21 130.46V128.99L35.7 131.58V133.05Z" fill="#42E8E0"/>
<path d="M87.81 78.86L19.52 39.43L87.81 0L156.11 39.43L87.81 78.86Z" fill="#BCBEFF"/>
<path d="M87.81 68.09L38.16 39.43L87.81 10.77L137.46 39.43L87.81 68.09Z" fill="#453C9E"/>
<path d="M87.81 12.71L135.78 40.4L137.46 39.43L87.81 10.77L38.16 39.43L39.85 40.4L87.81 12.71Z" fill="white"/>
<path d="M156.11 39.43V61.78L87.81 101.21V78.86L156.11 39.43Z" fill="url(#paint10_linear_2_3)"/>
<path d="M19.52 39.43V61.78L87.81 101.21V78.86L19.52 39.43Z" fill="#24126A"/>
<g opacity="0.51">
<path opacity="0.51" d="M24.14 49.47V56.51L83.19 90.6V83.56L24.14 49.47Z" fill="#453C9E"/>
</g>
<path d="M87.81 77.58L20.63 38.79L19.52 39.43L87.81 78.86L156.11 39.43L155 38.79L87.81 77.58Z" fill="white"/>
<path d="M145.86 55.09V59.09L98.06 86.69V82.69L145.86 55.09Z" fill="#453C9E"/>
<path opacity="0.51" d="M19.52 39.43V61.78L87.81 101.21V78.86L19.52 39.43Z" fill="#453C9E"/>
<path d="M67.88 77.67L55.51 70.53V72.01L67.88 79.15V77.67Z" fill="#42E8E0"/>
<path d="M53.73 69.52L50.38 67.58L50.37 69.06L53.72 70.99L53.73 69.52Z" fill="#42E8E0"/>
<path d="M38.03 60.46L31.17 56.5V57.97L38.03 61.93V60.46Z" fill="#42E8E0"/>
<path d="M44.28 64.07L39.33 61.21L39.32 62.68L44.28 65.55V64.07Z" fill="#42E8E0"/>
<path d="M48.93 66.75L45.58 64.82V66.29L48.93 68.23V66.75Z" fill="#42E8E0"/>
<path d="M87.88 20.61L85.71 19.36L87.88 18.1L90.05 19.36L87.88 20.61Z" fill="#42E8E0"/>
<path opacity="0.1" d="M92.22 23.11L90.05 21.86L92.22 20.61L94.39 21.86L92.22 23.11Z" fill="#42E8E0"/>
<path opacity="0.4" d="M96.56 25.62L94.39 24.36L96.56 23.11L98.73 24.36L96.56 25.62Z" fill="#42E8E0"/>
<path d="M100.89 28.12L98.73 26.87L100.89 25.62L103.06 26.87L100.89 28.12Z" fill="#42E8E0"/>
<path opacity="0.4" d="M105.23 30.63L103.06 29.37L105.23 28.12L107.4 29.37L105.23 30.63Z" fill="#42E8E0"/>
<path d="M109.57 33.13L107.4 31.88L109.57 30.63L111.74 31.88L109.57 33.13Z" fill="#42E8E0"/>
<path d="M113.91 35.63L111.74 34.38L113.91 33.13L116.07 34.38L113.91 35.63Z" fill="#42E8E0"/>
<path d="M118.24 38.14L116.07 36.89L118.24 35.63L120.41 36.89L118.24 38.14Z" fill="#42E8E0"/>
<path opacity="0.1" d="M122.58 40.64L120.41 39.39L122.58 38.14L124.75 39.39L122.58 40.64Z" fill="#42E8E0"/>
<path d="M83.53 23.12L81.36 21.87L83.53 20.62L85.7 21.87L83.53 23.12Z" fill="#42E8E0"/>
<path d="M87.87 25.63L85.7 24.38L87.87 23.12L90.03 24.38L87.87 25.63Z" fill="#42E8E0"/>
<path d="M92.2 28.13L90.03 26.88L92.2 25.63L94.37 26.88L92.2 28.13Z" fill="#42E8E0"/>
<path d="M96.54 30.64L94.37 29.38L96.54 28.13L98.71 29.38L96.54 30.64Z" fill="#42E8E0"/>
<path d="M100.88 33.14L98.71 31.89L100.88 30.64L103.05 31.89L100.88 33.14Z" fill="#42E8E0"/>
<path d="M105.21 35.64L103.05 34.39L105.21 33.14L107.38 34.39L105.21 35.64Z" fill="#42E8E0"/>
<path d="M109.55 38.15L107.38 36.9L109.55 35.64L111.72 36.9L109.55 38.15Z" fill="#42E8E0"/>
<path d="M113.89 40.65L111.72 39.4L113.89 38.15L116.06 39.4L113.89 40.65Z" fill="#42E8E0"/>
<path d="M118.23 43.16L116.06 41.9L118.23 40.65L120.39 41.9L118.23 43.16Z" fill="#42E8E0"/>
<path d="M79.17 25.64L77 24.39L79.17 23.13L81.34 24.39L79.17 25.64Z" fill="#42E8E0"/>
<path d="M83.51 28.14L81.34 26.89L83.51 25.64L85.68 26.89L83.51 28.14Z" fill="#42E8E0"/>
<path d="M87.85 30.64L85.68 29.39L87.85 28.14L90.02 29.39L87.85 30.64Z" fill="#42E8E0"/>
<path opacity="0.1" d="M92.19 33.15L90.02 31.9L92.19 30.64L94.35 31.9L92.19 33.15Z" fill="#42E8E0"/>
<path opacity="0.4" d="M96.52 35.65L94.35 34.4L96.52 33.15L98.69 34.4L96.52 35.65Z" fill="#42E8E0"/>
<path opacity="0.4" d="M100.86 38.16L98.69 36.91L100.86 35.65L103.03 36.91L100.86 38.16Z" fill="#42E8E0"/>
<path d="M105.2 40.66L103.03 39.41L105.2 38.16L107.37 39.41L105.2 40.66Z" fill="#42E8E0"/>
<path d="M109.53 43.17L107.37 41.91L109.53 40.66L111.7 41.91L109.53 43.17Z" fill="#42E8E0"/>
<path d="M113.87 45.67L111.7 44.42L113.87 43.17L116.04 44.42L113.87 45.67Z" fill="#42E8E0"/>
<path opacity="0.4" d="M74.82 28.15L72.65 26.9L74.82 25.65L76.99 26.9L74.82 28.15Z" fill="#42E8E0"/>
<path opacity="0.4" d="M79.15 30.66L76.99 29.4L79.15 28.15L81.32 29.4L79.15 30.66Z" fill="#42E8E0"/>
<path opacity="0.1" d="M83.49 33.16L81.32 31.91L83.49 30.66L85.66 31.91L83.49 33.16Z" fill="#42E8E0"/>
<path d="M87.83 35.66L85.66 34.41L87.83 33.16L90 34.41L87.83 35.66Z" fill="#42E8E0"/>
<path d="M92.17 38.17L90 36.92L92.17 35.66L94.34 36.92L92.17 38.17Z" fill="#42E8E0"/>
<path d="M96.5 40.67L94.34 39.42L96.5 38.17L98.67 39.42L96.5 40.67Z" fill="#42E8E0"/>
<path opacity="0.4" d="M100.84 43.18L98.67 41.92L100.84 40.67L103.01 41.92L100.84 43.18Z" fill="#42E8E0"/>
<path d="M105.18 45.68L103.01 44.43L105.18 43.18L107.35 44.43L105.18 45.68Z" fill="#42E8E0"/>
<path d="M109.52 48.19L107.35 46.93L109.52 45.68L111.69 46.93L109.52 48.19Z" fill="#42E8E0"/>
<path d="M70.46 30.67L68.29 29.41L70.46 28.16L72.63 29.41L70.46 30.67Z" fill="#42E8E0"/>
<path d="M74.8 33.17L72.63 31.92L74.8 30.67L76.97 31.92L74.8 33.17Z" fill="#42E8E0"/>
<path d="M79.14 35.67L76.97 34.42L79.14 33.17L81.31 34.42L79.14 35.67Z" fill="#42E8E0"/>
<path d="M83.48 38.18L81.31 36.93L83.48 35.67L85.64 36.93L83.48 38.18Z" fill="#42E8E0"/>
<path d="M87.81 40.68L85.64 39.43L87.81 38.18L89.98 39.43L87.81 40.68Z" fill="#42E8E0"/>
<path d="M92.15 43.19L89.98 41.94L92.15 40.68L94.32 41.94L92.15 43.19Z" fill="#42E8E0"/>
<path d="M96.49 45.69L94.32 44.44L96.49 43.19L98.66 44.44L96.49 45.69Z" fill="#42E8E0"/>
<path d="M100.82 48.2L98.66 46.94L100.82 45.69L102.99 46.94L100.82 48.2Z" fill="#42E8E0"/>
<path d="M105.16 50.7L102.99 49.45L105.16 48.2L107.33 49.45L105.16 50.7Z" fill="#42E8E0"/>
<path d="M66.11 33.18L63.94 31.93L66.11 30.68L68.28 31.93L66.11 33.18Z" fill="#42E8E0"/>
<path d="M70.44 35.68L68.28 34.43L70.44 33.18L72.61 34.43L70.44 35.68Z" fill="#42E8E0"/>
<path opacity="0.4" d="M74.78 38.19L72.61 36.94L74.78 35.68L76.95 36.94L74.78 38.19Z" fill="#42E8E0"/>
<path d="M79.12 40.69L76.95 39.44L79.12 38.19L81.29 39.44L79.12 40.69Z" fill="#42E8E0"/>
<path opacity="0.1" d="M83.46 43.2L81.29 41.95L83.46 40.69L85.63 41.95L83.46 43.2Z" fill="#42E8E0"/>
<path d="M87.8 45.7L85.63 44.45L87.8 43.2L89.96 44.45L87.8 45.7Z" fill="#42E8E0"/>
<path d="M92.13 48.2L89.96 46.95L92.13 45.7L94.3 46.95L92.13 48.2Z" fill="#42E8E0"/>
<path d="M96.47 50.71L94.3 49.46L96.47 48.2L98.64 49.46L96.47 50.71Z" fill="#42E8E0"/>
<path d="M100.81 53.21L98.64 51.96L100.81 50.71L102.98 51.96L100.81 53.21Z" fill="#42E8E0"/>
<path d="M61.75 35.69L59.58 34.44L61.75 33.19L63.92 34.44L61.75 35.69Z" fill="#42E8E0"/>
<path d="M66.09 38.2L63.92 36.95L66.09 35.69L68.26 36.95L66.09 38.2Z" fill="#42E8E0"/>
<path opacity="0.4" d="M70.43 40.7L68.26 39.45L70.43 38.2L72.6 39.45L70.43 40.7Z" fill="#42E8E0"/>
<path d="M74.76 43.21L72.6 41.95L74.76 40.7L76.93 41.95L74.76 43.21Z" fill="#42E8E0"/>
<path d="M79.1 45.71L76.93 44.46L79.1 43.21L81.27 44.46L79.1 45.71Z" fill="#42E8E0"/>
<path opacity="0.1" d="M83.44 48.22L81.27 46.96L83.44 45.71L85.61 46.96L83.44 48.22Z" fill="#42E8E0"/>
<path opacity="0.4" d="M87.78 50.72L85.61 49.47L87.78 48.22L89.95 49.47L87.78 50.72Z" fill="#42E8E0"/>
<path d="M92.12 53.22L89.95 51.97L92.11 50.72L94.28 51.97L92.12 53.22Z" fill="#42E8E0"/>
<path opacity="0.1" d="M96.45 55.73L94.28 54.48L96.45 53.22L98.62 54.48L96.45 55.73Z" fill="#42E8E0"/>
<path d="M57.4 38.21L55.23 36.96L57.4 35.7L59.57 36.96L57.4 38.21Z" fill="#42E8E0"/>
<path opacity="0.4" d="M61.74 40.71L59.57 39.46L61.74 38.21L63.9 39.46L61.74 40.71Z" fill="#42E8E0"/>
<path d="M66.07 43.22L63.9 41.97L66.07 40.71L68.24 41.97L66.07 43.22Z" fill="#42E8E0"/>
<path d="M70.41 45.72L68.24 44.47L70.41 43.22L72.58 44.47L70.41 45.72Z" fill="#42E8E0"/>
<path d="M74.75 48.23L72.58 46.97L74.75 45.72L76.92 46.97L74.75 48.23Z" fill="#42E8E0"/>
<path d="M79.08 50.73L76.92 49.48L79.08 48.23L81.25 49.48L79.08 50.73Z" fill="#42E8E0"/>
<path d="M83.42 53.23L81.25 51.98L83.42 50.73L85.59 51.98L83.42 53.23Z" fill="#42E8E0"/>
<path opacity="0.4" d="M87.76 55.74L85.59 54.49L87.76 53.23L89.93 54.49L87.76 55.74Z" fill="#42E8E0"/>
<path d="M92.1 58.24L89.93 56.99L92.1 55.74L94.27 56.99L92.1 58.24Z" fill="#42E8E0"/>
<path d="M53.04 40.72L50.88 39.47L53.04 38.22L55.21 39.47L53.04 40.72Z" fill="#42E8E0"/>
<path opacity="0.1" d="M57.38 43.23L55.21 41.98L57.38 40.72L59.55 41.98L57.38 43.23Z" fill="#42E8E0"/>
<path d="M61.72 45.73L59.55 44.48L61.72 43.23L63.89 44.48L61.72 45.73Z" fill="#42E8E0"/>
<path d="M66.06 48.23L63.89 46.98L66.06 45.73L68.22 46.98L66.06 48.23Z" fill="#42E8E0"/>
<path d="M70.39 50.74L68.22 49.49L70.39 48.23L72.56 49.49L70.39 50.74Z" fill="#42E8E0"/>
<path d="M74.73 53.24L72.56 51.99L74.73 50.74L76.9 51.99L74.73 53.24Z" fill="#42E8E0"/>
<path opacity="0.4" d="M79.07 55.75L76.9 54.5L79.07 53.24L81.24 54.5L79.07 55.75Z" fill="#42E8E0"/>
<path d="M83.4 58.25L81.24 57L83.4 55.75L85.57 57L83.4 58.25Z" fill="#42E8E0"/>
<path d="M87.74 60.76L85.57 59.5L87.74 58.25L89.91 59.5L87.74 60.76Z" fill="#42E8E0"/>
<path d="M280.17 225.36C279.118 225.364 278.083 225.092 277.17 224.57L217.85 190.32C217.581 190.173 217.356 189.956 217.2 189.692C217.044 189.428 216.961 189.127 216.961 188.82C216.961 188.513 217.044 188.212 217.2 187.948C217.356 187.684 217.581 187.467 217.85 187.32L255.17 165.78L255.33 165.87L317.46 201.74C317.721 201.889 317.939 202.104 318.09 202.364C318.241 202.624 318.32 202.919 318.32 203.22C318.323 203.521 318.245 203.818 318.094 204.079C317.943 204.339 317.724 204.554 317.46 204.7L283.12 224.53C282.225 225.057 281.209 225.343 280.17 225.36V225.36ZM277.52 224C278.326 224.458 279.238 224.698 280.165 224.698C281.092 224.698 282.004 224.458 282.81 224L317.15 204.18C317.312 204.089 317.447 203.956 317.541 203.795C317.635 203.634 317.685 203.451 317.685 203.265C317.685 203.079 317.635 202.896 317.541 202.735C317.447 202.574 317.312 202.441 317.15 202.35L255.15 166.58L255.03 166.65L218.17 187.93C217.995 188.01 217.847 188.138 217.744 188.299C217.64 188.46 217.585 188.648 217.585 188.84C217.585 189.032 217.64 189.22 217.744 189.381C217.847 189.542 217.995 189.67 218.17 189.75L277.52 224Z" fill="#8686F2"/>
<path d="M255.11 152L263.37 103L262.71 102.72L263.71 102.15C263.831 102.087 263.967 102.059 264.104 102.07C264.24 102.08 264.37 102.129 264.48 102.21L330.53 140.34C330.808 140.52 331.032 140.77 331.182 141.065C331.331 141.36 331.4 141.69 331.38 142.02L323.05 191.44C323.04 191.547 323.004 191.649 322.945 191.738C322.886 191.827 322.805 191.9 322.71 191.95V191.95L321.71 192.51L321.54 191.6H321.6L255.99 153.72C255.697 153.544 255.46 153.29 255.304 152.986C255.149 152.682 255.082 152.34 255.11 152Z" fill="url(#paint11_linear_2_3)"/>
<path d="M330.16 141.69L331.24 141.21C331.37 141.462 331.419 141.749 331.38 142.03L323.05 191.45C323.04 191.557 323.004 191.659 322.945 191.748C322.886 191.837 322.805 191.91 322.71 191.96L321.71 192.52L321.54 191.61H321.6L318.28 189.69L330.16 141.69Z" fill="url(#paint12_linear_2_3)"/>
<path d="M254.93 154.32L320.99 192.45C321.5 192.75 321.94 192.58 321.99 192.05L330.32 142.62C330.337 142.291 330.266 141.962 330.115 141.669C329.964 141.376 329.738 141.128 329.46 140.95L263.41 102.81C262.9 102.52 262.46 102.69 262.41 103.22L254.08 152.64C254.063 152.97 254.133 153.298 254.282 153.593C254.431 153.887 254.655 154.138 254.93 154.32V154.32Z" fill="#24126A"/>
<g opacity="0.51">
<path opacity="0.51" d="M264.31 105.97L327.97 142.73L320.08 189.27L256.45 152.54L264.31 105.97Z" fill="#453C9E"/>
</g>
<path d="M213.41 177.72L217.01 179.6L253.16 158.73C253.533 158.559 253.942 158.479 254.352 158.497C254.762 158.514 255.162 158.628 255.52 158.83L317.86 194.83C318.45 194.5 321.17 193.19 321.17 193.19L319.86 196.63C319.792 196.808 319.66 196.955 319.49 197.04L281.42 219.04C281.046 219.208 280.638 219.287 280.228 219.27C279.818 219.252 279.418 219.14 279.06 218.94L215.27 182.11C215.031 181.989 214.844 181.787 214.74 181.54L213.41 177.72Z" fill="url(#paint13_linear_2_3)"/>
<path d="M213.99 178.31L279.37 216.05C279.735 216.257 280.144 216.374 280.563 216.391C280.982 216.409 281.399 216.326 281.78 216.15L320.78 193.63C321.4 193.27 321.32 192.63 320.61 192.23L255.23 154.49C254.863 154.283 254.453 154.166 254.032 154.149C253.611 154.131 253.192 154.214 252.81 154.39L213.81 176.91C213.17 177.27 213.25 177.89 213.99 178.31Z" fill="url(#paint14_linear_2_3)"/>
<path d="M213.99 177.93L279.37 215.68C279.736 215.885 280.144 216 280.563 216.018C280.982 216.035 281.399 215.954 281.78 215.78L320.78 193.25C320.954 193.161 321.089 193.012 321.16 192.83C321.207 192.987 321.194 193.155 321.124 193.303C321.054 193.451 320.931 193.568 320.78 193.63L281.78 216.15C281.399 216.326 280.982 216.409 280.563 216.391C280.144 216.374 279.735 216.257 279.37 216.05L213.99 178.31C213.51 178.03 213.32 177.66 213.43 177.31C213.535 177.578 213.734 177.799 213.99 177.93V177.93Z" fill="white"/>
<path d="M299.07 207.89V207.17C299.07 207.1 299.07 207.07 298.97 207.1L296.45 208.56C296.419 208.579 296.394 208.605 296.376 208.637C296.359 208.668 296.35 208.704 296.35 208.74V209.46C296.35 209.52 296.35 209.56 296.45 209.53L298.97 208.07C299.001 208.051 299.026 208.025 299.044 207.993C299.061 207.962 299.07 207.926 299.07 207.89V207.89Z" fill="#2842A2"/>
<path d="M295.29 210.07V209.36C295.29 209.29 295.24 209.26 295.19 209.29L292.66 210.75C292.632 210.769 292.61 210.795 292.594 210.824C292.579 210.854 292.57 210.887 292.57 210.92V211.64C292.57 211.71 292.57 211.74 292.66 211.71L295.19 210.25C295.219 210.229 295.243 210.202 295.26 210.171C295.278 210.14 295.288 210.106 295.29 210.07V210.07Z" fill="#2842A2"/>
<path d="M310.61 191.52L256.28 160.15C256.102 160.047 255.9 159.993 255.695 159.993C255.49 159.993 255.288 160.047 255.11 160.15L235.76 171.35C235.695 171.385 235.641 171.437 235.604 171.501C235.566 171.564 235.546 171.636 235.546 171.71C235.546 171.784 235.566 171.856 235.604 171.919C235.641 171.983 235.695 172.035 235.76 172.07L290.07 203.42C290.246 203.523 290.446 203.577 290.65 203.577C290.854 203.577 291.054 203.523 291.23 203.42L310.61 192.24C310.675 192.205 310.729 192.153 310.766 192.089C310.804 192.026 310.824 191.954 310.824 191.88C310.824 191.806 310.804 191.734 310.766 191.671C310.729 191.607 310.675 191.555 310.61 191.52Z" fill="#ADB1F2"/>
<path d="M310.61 192.24L310.41 192.35L256.28 161.1C256.102 160.997 255.9 160.943 255.695 160.943C255.49 160.943 255.288 160.997 255.11 161.1L235.99 172.18L235.8 172.07C235.735 172.035 235.681 171.983 235.644 171.919C235.606 171.856 235.586 171.784 235.586 171.71C235.586 171.636 235.606 171.564 235.644 171.501C235.681 171.437 235.735 171.385 235.8 171.35L255.15 160.15C255.328 160.047 255.53 159.993 255.735 159.993C255.94 159.993 256.142 160.047 256.32 160.15L310.65 191.52C310.713 191.559 310.764 191.614 310.798 191.679C310.833 191.745 310.849 191.818 310.844 191.892C310.84 191.966 310.816 192.037 310.775 192.098C310.734 192.16 310.677 192.208 310.61 192.24V192.24Z" fill="#9198DB"/>
<path d="M253.65 162.99L300.84 190.24L302.94 189.02L255.75 161.78L253.65 162.99Z" fill="#24126A"/>
<path d="M248.51 165.96L292.77 191.51L294.87 190.3L250.61 164.75L248.51 165.96Z" fill="#24126A"/>
<path d="M245.16 167.89L297.27 197.98L299.37 196.77L247.25 166.68L245.16 167.89Z" fill="#24126A"/>
<path d="M241.81 169.83L293.92 199.92L296.02 198.71L243.9 168.62L241.81 169.83Z" fill="#24126A"/>
<path d="M238.45 171.76L290.57 201.85L292.67 200.64L240.55 170.55L238.45 171.76Z" fill="#24126A"/>
<path d="M303.7 191.88L305.79 193.09L307.89 191.88L305.79 190.67L303.7 191.88Z" fill="#24126A"/>
<path d="M296.3 193.55L300.65 196.06L302.75 194.85L298.39 192.34L296.3 193.55Z" fill="#24126A"/>
<path d="M254.19 199.11L239.54 190.65C238.96 190.32 238.96 189.79 239.54 189.46L249.54 183.67C249.863 183.507 250.219 183.423 250.58 183.423C250.941 183.423 251.297 183.507 251.62 183.67L266.27 192.13C266.397 192.171 266.508 192.251 266.587 192.359C266.665 192.466 266.708 192.596 266.708 192.73C266.708 192.864 266.665 192.994 266.587 193.101C266.508 193.209 266.397 193.289 266.27 193.33L256.27 199.11C255.948 199.274 255.591 199.36 255.23 199.36C254.868 199.36 254.512 199.274 254.19 199.11V199.11Z" fill="url(#paint15_linear_2_3)"/>
<path d="M266.28 192.62L251.63 184.16C251.307 183.997 250.951 183.913 250.59 183.913C250.229 183.913 249.873 183.997 249.55 184.16L239.55 189.95C239.396 190.026 239.27 190.148 239.19 190.3C239.03 190.01 239.19 189.68 239.55 189.46L249.55 183.67C249.873 183.507 250.229 183.423 250.59 183.423C250.951 183.423 251.307 183.507 251.63 183.67L266.28 192.13C266.67 192.36 266.79 192.68 266.64 192.97C266.554 192.823 266.43 192.701 266.28 192.62V192.62Z" fill="#9198DB"/>
<path d="M278.32 123.45L283.47 126.43L283.63 125.53L278.47 122.56L278.32 123.45Z" fill="#42E8E0"/>
<path d="M284.3 126.9L287.11 128.53L287.26 127.63L284.45 126.01L284.3 126.9Z" fill="#42E8E0"/>
<path d="M291.48 131.05L293.51 132.22L293.66 131.32L291.63 130.15L291.48 131.05Z" fill="#42E8E0"/>
<path d="M290 130.19L290.69 130.59L290.84 129.7L290.15 129.3L290 130.19Z" fill="#42E8E0"/>
<path d="M287.95 129.01L289.21 129.74L289.36 128.84L288.1 128.11L287.95 129.01Z" fill="#42E8E0"/>
<path d="M282.4 130.29L284.43 131.47L284.58 130.57L282.55 129.4L282.4 130.29Z" fill="#42E8E0"/>
<path d="M277.63 127.54L281.61 129.84L281.76 128.94L277.78 126.64L277.63 127.54Z" fill="#42E8E0"/>
<path d="M283.34 142.03L287.32 144.33L287.47 143.44L283.49 141.14L283.34 142.03Z" fill="#42E8E0"/>
<path d="M281.29 140.85L282.55 141.58L282.7 140.69L281.44 139.96L281.29 140.85Z" fill="#42E8E0"/>
<path d="M284 137.94L287.98 140.24L288.13 139.35L284.15 137.05L284 137.94Z" fill="#42E8E0"/>
<path d="M281.95 136.76L283.21 137.49L283.37 136.59L282.11 135.87L281.95 136.76Z" fill="#42E8E0"/>
<path d="M280.4 159.69L272.9 155.36L272.75 156.26L280.25 160.59L280.4 159.69Z" fill="#42E8E0"/>
<path d="M283.04 161.22L281.19 160.15L281.04 161.04L282.89 162.11L283.04 161.22Z" fill="#42E8E0"/>
<path d="M296.21 162.09L288.72 157.76L288.57 158.65L296.06 162.98L296.21 162.09Z" fill="#42E8E0"/>
<path d="M298.86 163.62L297 162.54L296.85 163.44L298.7 164.51L298.86 163.62Z" fill="#42E8E0"/>
<path d="M275.28 154.49L273.25 153.32L273.1 154.21L275.13 155.39L275.28 154.49Z" fill="#42E8E0"/>
<path d="M287.64 157.14L285.61 155.97L285.45 156.86L287.49 158.04L287.64 157.14Z" fill="#42E8E0"/>
<path d="M280.05 157.25L276.07 154.95L275.92 155.84L279.89 158.14L280.05 157.25Z" fill="#42E8E0"/>
<path d="M282.09 158.43L280.83 157.7L280.68 158.59L281.94 159.32L282.09 158.43Z" fill="#42E8E0"/>
<path d="M286.9 161.2L282.92 158.9L282.77 159.79L286.75 162.09L286.9 161.2Z" fill="#42E8E0"/>
<path d="M288.94 162.38L287.68 161.66L287.53 162.55L288.79 163.28L288.94 162.38Z" fill="#42E8E0"/>
<path d="M287.29 159.19L285.26 158.01L285.11 158.91L287.14 160.08L287.29 159.19Z" fill="#42E8E0"/>
<path d="M292.06 161.94L288.08 159.64L287.93 160.53L291.9 162.84L292.06 161.94Z" fill="#42E8E0"/>
<path d="M294.1 163.12L292.84 162.4L292.69 163.29L293.95 164.02L294.1 163.12Z" fill="#42E8E0"/>
<path d="M277.75 153.68L273.6 151.28L273.44 152.17L277.6 154.57L277.75 153.68Z" fill="#42E8E0"/>
<path d="M281.54 155.87L278.54 154.13L278.39 155.03L281.39 156.76L281.54 155.87Z" fill="#42E8E0"/>
<path d="M284.36 157.5L282.33 156.32L282.18 157.22L284.21 158.39L284.36 157.5Z" fill="#42E8E0"/>
<path d="M304.05 166.61L299.9 164.21L299.75 165.1L303.9 167.51L304.05 166.61Z" fill="#42E8E0"/>
<path d="M307.85 168.8L304.84 167.07L304.69 167.96L307.69 169.7L307.85 168.8Z" fill="#42E8E0"/>
<path d="M310.66 170.43L308.63 169.26L308.48 170.15L310.51 171.33L310.66 170.43Z" fill="#42E8E0"/>
<path d="M302.43 139.61L306.59 142.01L306.74 141.12L302.58 138.72L302.43 139.61Z" fill="#42E8E0"/>
<path d="M298.64 137.42L301.64 139.16L301.8 138.26L298.79 136.53L298.64 137.42Z" fill="#42E8E0"/>
<path d="M295.82 135.79L297.85 136.97L298 136.07L295.97 134.9L295.82 135.79Z" fill="#42E8E0"/>
<path d="M301.05 136.57L305.21 138.97L305.36 138.07L301.2 135.67L301.05 136.57Z" fill="#42E8E0"/>
<path d="M297.26 134.37L300.26 136.11L300.42 135.22L297.41 133.48L297.26 134.37Z" fill="#42E8E0"/>
<path d="M294.44 132.75L296.47 133.92L296.62 133.03L294.59 131.85L294.44 132.75Z" fill="#42E8E0"/>
<path d="M284.27 140.34L285.68 141.16L285.83 140.26L284.43 139.45L284.27 140.34Z" fill="#42E8E0"/>
<path d="M281.63 138.82L283.49 139.89L283.64 139L281.79 137.92L281.63 138.82Z" fill="#42E8E0"/>
<path d="M278.12 151.65L273.97 149.24L273.82 150.14L277.97 152.54L278.12 151.65Z" fill="#42E8E0"/>
<path d="M281.91 153.84L278.91 152.1L278.76 152.99L281.76 154.73L281.91 153.84Z" fill="#42E8E0"/>
<path d="M284.73 155.47L282.7 154.29L282.55 155.19L284.58 156.36L284.73 155.47Z" fill="#42E8E0"/>
<path d="M275.71 148.01L274.31 147.2L274.16 148.09L275.56 148.91L275.71 148.01Z" fill="#42E8E0"/>
<path d="M278.36 149.54L276.5 148.47L276.35 149.36L278.21 150.43L278.36 149.54Z" fill="#42E8E0"/>
<path d="M282.13 151.72L279.14 149.99L278.99 150.89L281.98 152.62L282.13 151.72Z" fill="#42E8E0"/>
<path d="M286.18 134.71L287.59 135.52L287.74 134.63L286.33 133.82L286.18 134.71Z" fill="#42E8E0"/>
<path d="M283.54 133.18L285.4 134.26L285.55 133.36L283.69 132.29L283.54 133.18Z" fill="#42E8E0"/>
<path d="M279.77 131L282.76 132.73L282.91 131.84L279.92 130.11L279.77 131Z" fill="#42E8E0"/>
<path d="M288.32 138.03L291.31 139.75L291.46 138.86L288.47 137.13L288.32 138.03Z" fill="#42E8E0"/>
<path d="M283.43 135.36L287.46 137.69L287.61 136.8L283.58 134.47L283.43 135.36Z" fill="#42E8E0"/>
<path d="M281.39 134.18L282.65 134.91L282.8 134.01L281.54 133.29L281.39 134.18Z" fill="#42E8E0"/>
<path d="M279.42 133.04L280.68 133.77L280.83 132.88L279.57 132.15L279.42 133.04Z" fill="#42E8E0"/>
<path d="M279.69 144.59L283.67 146.89L283.82 146L279.84 143.7L279.69 144.59Z" fill="#42E8E0"/>
<path d="M277.64 143.41L278.9 144.13L279.06 143.24L277.8 142.51L277.64 143.41Z" fill="#42E8E0"/>
<path d="M279.97 146.99L281.37 147.8L281.52 146.91L280.12 146.1L279.97 146.99Z" fill="#42E8E0"/>
<path d="M284.92 145.36L286.32 146.17L286.48 145.27L285.07 144.46L284.92 145.36Z" fill="#42E8E0"/>
<path d="M286.92 146.51L290.29 148.46L290.44 147.56L287.07 145.62L286.92 146.51Z" fill="#42E8E0"/>
<path d="M290.89 148.8L292.89 149.96L293.04 149.06L291.04 147.91L290.89 148.8Z" fill="#42E8E0"/>
<path d="M277.32 145.47L279.18 146.54L279.33 145.64L277.48 144.57L277.32 145.47Z" fill="#42E8E0"/>
<path d="M277.15 147.56L278.55 148.38L278.7 147.48L277.3 146.67L277.15 147.56Z" fill="#42E8E0"/>
<path d="M274.51 146.04L276.36 147.11L276.51 146.22L274.66 145.14L274.51 146.04Z" fill="#42E8E0"/>
<path d="M282.88 144.18L284.14 144.91L284.3 144.01L283.04 143.29L282.88 144.18Z" fill="#42E8E0"/>
<path d="M280.92 143.04L282.18 143.77L282.33 142.88L281.07 142.15L280.92 143.04Z" fill="#42E8E0"/>
<path d="M290.6 132.78L294.9 135.26L295.05 134.37L290.75 131.88L290.6 132.78Z" fill="#42E8E0"/>
<path d="M285.79 129.99L289.81 132.32L289.96 131.43L285.94 129.1L285.79 129.99Z" fill="#42E8E0"/>
<path d="M283.74 128.81L285 129.54L285.15 128.64L283.89 127.92L283.74 128.81Z" fill="#42E8E0"/>
<path d="M281.77 127.67L283.03 128.4L283.18 127.51L281.92 126.78L281.77 127.67Z" fill="#42E8E0"/>
<path d="M280.7 127.05L277.98 125.48L278.13 124.59L280.85 126.16L280.7 127.05Z" fill="#42E8E0"/>
<path d="M146.33 251C146.076 250.564 145.698 250.212 145.244 249.991C144.791 249.77 144.281 249.688 143.781 249.756C143.281 249.824 142.812 250.04 142.434 250.375C142.057 250.71 141.787 251.149 141.659 251.638C141.531 252.126 141.551 252.641 141.717 253.118C141.882 253.595 142.186 254.013 142.589 254.317C142.991 254.621 143.475 254.799 143.98 254.828C144.484 254.857 144.985 254.736 145.42 254.48C146.001 254.138 146.423 253.58 146.593 252.928C146.764 252.276 146.669 251.583 146.33 251V251Z" fill="url(#paint16_radial_2_3)"/>
<path d="M156.41 262.05C157.818 262.05 158.96 260.908 158.96 259.5C158.96 258.092 157.818 256.95 156.41 256.95C155.002 256.95 153.86 258.092 153.86 259.5C153.86 260.908 155.002 262.05 156.41 262.05Z" fill="url(#paint17_radial_2_3)"/>
<path d="M225.52 238.84C225.267 238.403 224.89 238.051 224.437 237.829C223.984 237.607 223.475 237.524 222.975 237.591C222.474 237.658 222.005 237.872 221.627 238.206C221.248 238.54 220.977 238.979 220.848 239.467C220.719 239.955 220.738 240.47 220.902 240.947C221.066 241.424 221.368 241.842 221.77 242.148C222.172 242.454 222.655 242.633 223.159 242.664C223.663 242.694 224.164 242.575 224.6 242.32C225.183 241.98 225.606 241.422 225.779 240.77C225.951 240.118 225.858 239.424 225.52 238.84V238.84Z" fill="url(#paint18_radial_2_3)"/>
<path d="M241.31 215.67C241.056 215.235 240.678 214.884 240.225 214.663C239.772 214.443 239.263 214.361 238.764 214.429C238.264 214.497 237.796 214.712 237.418 215.046C237.041 215.38 236.771 215.818 236.642 216.306C236.514 216.793 236.532 217.308 236.696 217.785C236.86 218.261 237.162 218.679 237.563 218.984C237.964 219.29 238.447 219.47 238.95 219.501C239.453 219.532 239.954 219.413 240.39 219.16C240.68 218.991 240.933 218.767 241.137 218.501C241.34 218.234 241.488 217.93 241.574 217.606C241.659 217.282 241.68 216.944 241.635 216.612C241.589 216.279 241.479 215.959 241.31 215.67V215.67Z" fill="url(#paint19_radial_2_3)"/>
<path d="M226.87 207.15C226.615 206.715 226.236 206.365 225.783 206.145C225.329 205.925 224.82 205.845 224.32 205.914C223.821 205.983 223.353 206.199 222.976 206.534C222.599 206.869 222.33 207.309 222.203 207.797C222.076 208.285 222.096 208.799 222.261 209.276C222.427 209.752 222.729 210.169 223.132 210.473C223.534 210.778 224.017 210.956 224.521 210.986C225.024 211.015 225.525 210.895 225.96 210.64C226.542 210.296 226.963 209.736 227.134 209.082C227.304 208.429 227.21 207.734 226.87 207.15V207.15Z" fill="url(#paint20_radial_2_3)"/>
<path d="M212.43 199.23C212.175 198.795 211.796 198.445 211.343 198.225C210.889 198.005 210.38 197.925 209.88 197.994C209.381 198.063 208.913 198.279 208.536 198.614C208.159 198.949 207.89 199.389 207.763 199.877C207.636 200.365 207.656 200.879 207.821 201.356C207.987 201.832 208.289 202.249 208.692 202.553C209.094 202.858 209.577 203.036 210.081 203.066C210.584 203.095 211.085 202.975 211.52 202.72C212.102 202.376 212.523 201.816 212.694 201.162C212.864 200.509 212.77 199.814 212.43 199.23V199.23Z" fill="url(#paint21_radial_2_3)"/>
<defs>
<linearGradient id="paint0_linear_2_3" x1="149.503" y1="152.322" x2="129.325" y2="117.533" gradientUnits="userSpaceOnUse">
<stop stop-color="#42E8E0"/>
<stop offset="0.02" stop-color="#40DEDA"/>
<stop offset="0.11" stop-color="#37ADBC"/>
<stop offset="0.22" stop-color="#2E82A2"/>
<stop offset="0.32" stop-color="#285E8C"/>
<stop offset="0.43" stop-color="#22417A"/>
<stop offset="0.55" stop-color="#1E2A6C"/>
<stop offset="0.67" stop-color="#1A1A63"/>
<stop offset="0.81" stop-color="#19105D"/>
<stop offset="1" stop-color="#180D5B"/>
</linearGradient>
<linearGradient id="paint1_linear_2_3" x1="147.468" y1="165.075" x2="127.479" y2="199.857" gradientUnits="userSpaceOnUse">
<stop stop-color="#42E8E0"/>
<stop offset="0.02" stop-color="#40DEDA"/>
<stop offset="0.11" stop-color="#37ADBC"/>
<stop offset="0.22" stop-color="#2E82A2"/>
<stop offset="0.32" stop-color="#285E8C"/>
<stop offset="0.43" stop-color="#22417A"/>
<stop offset="0.55" stop-color="#1E2A6C"/>
<stop offset="0.67" stop-color="#1A1A63"/>
<stop offset="0.81" stop-color="#19105D"/>
<stop offset="1" stop-color="#180D5B"/>
</linearGradient>
<linearGradient id="paint2_linear_2_3" x1="107.31" y1="171.99" x2="205.79" y2="171.99" gradientUnits="userSpaceOnUse">
<stop stop-color="#5761D7"/>
<stop offset="0.16" stop-color="#5E67DA"/>
<stop offset="0.41" stop-color="#727AE2"/>
<stop offset="0.69" stop-color="#9297EE"/>
<stop offset="1" stop-color="#BCBEFF"/>
</linearGradient>
<linearGradient id="paint3_linear_2_3" x1="135.18" y1="158.68" x2="194.29" y2="158.68" gradientUnits="userSpaceOnUse">
<stop stop-color="#42E8E0"/>
<stop offset="0.15" stop-color="#43E3E0"/>
<stop offset="0.33" stop-color="#45D5DF"/>
<stop offset="0.52" stop-color="#49BDDD"/>
<stop offset="0.72" stop-color="#4E9CDB"/>
<stop offset="0.93" stop-color="#5472D8"/>
<stop offset="1" stop-color="#5761D7"/>
</linearGradient>
<linearGradient id="paint4_linear_2_3" x1="164.73" y1="148" x2="194.29" y2="148" gradientUnits="userSpaceOnUse">
<stop stop-color="#42E8E0"/>
<stop offset="0.15" stop-color="#43E3E0"/>
<stop offset="0.33" stop-color="#45D5DF"/>
<stop offset="0.52" stop-color="#49BDDD"/>
<stop offset="0.72" stop-color="#4E9CDB"/>
<stop offset="0.93" stop-color="#5472D8"/>
<stop offset="1" stop-color="#5761D7"/>
</linearGradient>
<linearGradient id="paint5_linear_2_3" x1="135.18" y1="148" x2="164.73" y2="148" gradientUnits="userSpaceOnUse">
<stop stop-color="#42E8E0"/>
<stop offset="0.15" stop-color="#43E3E0"/>
<stop offset="0.33" stop-color="#45D5DF"/>
<stop offset="0.52" stop-color="#49BDDD"/>
<stop offset="0.72" stop-color="#4E9CDB"/>
<stop offset="0.93" stop-color="#5472D8"/>
<stop offset="1" stop-color="#5761D7"/>
</linearGradient>
<linearGradient id="paint6_linear_2_3" x1="135.18" y1="154.38" x2="194.29" y2="154.38" gradientUnits="userSpaceOnUse">
<stop stop-color="#42E8E0"/>
<stop offset="0.15" stop-color="#43E3E0"/>
<stop offset="0.33" stop-color="#45D5DF"/>
<stop offset="0.52" stop-color="#49BDDD"/>
<stop offset="0.72" stop-color="#4E9CDB"/>
<stop offset="0.93" stop-color="#5472D8"/>
<stop offset="1" stop-color="#5761D7"/>
</linearGradient>
<linearGradient id="paint7_linear_2_3" x1="164.73" y1="165.06" x2="194.29" y2="165.06" gradientUnits="userSpaceOnUse">
<stop stop-color="#42E8E0"/>
<stop offset="0.15" stop-color="#43E3E0"/>
<stop offset="0.33" stop-color="#45D5DF"/>
<stop offset="0.52" stop-color="#49BDDD"/>
<stop offset="0.72" stop-color="#4E9CDB"/>
<stop offset="0.93" stop-color="#5472D8"/>
<stop offset="1" stop-color="#5761D7"/>
</linearGradient>
<linearGradient id="paint8_linear_2_3" x1="135.18" y1="165.06" x2="164.73" y2="165.06" gradientUnits="userSpaceOnUse">
<stop stop-color="#42E8E0"/>
<stop offset="0.15" stop-color="#43E3E0"/>
<stop offset="0.33" stop-color="#45D5DF"/>
<stop offset="0.52" stop-color="#49BDDD"/>
<stop offset="0.72" stop-color="#4E9CDB"/>
<stop offset="0.93" stop-color="#5472D8"/>
<stop offset="1" stop-color="#5761D7"/>
</linearGradient>
<linearGradient id="paint9_linear_2_3" x1="121.96" y1="217.06" x2="121.96" y2="72.94" gradientUnits="userSpaceOnUse">
<stop stop-color="#C0BFF6"/>
<stop offset="0.29" stop-color="#C5C4F7"/>
<stop offset="0.64" stop-color="#D3D2F9"/>
<stop offset="1" stop-color="#E9E9FD"/>
</linearGradient>
<linearGradient id="paint10_linear_2_3" x1="121.96" y1="87.41" x2="121.96" y2="40.74" gradientUnits="userSpaceOnUse">
<stop stop-color="#C0BFF6"/>
<stop offset="0.29" stop-color="#C5C4F7"/>
<stop offset="0.64" stop-color="#D3D2F9"/>
<stop offset="1" stop-color="#E9E9FD"/>
</linearGradient>
<linearGradient id="paint11_linear_2_3" x1="331.4" y1="147.3" x2="255.1" y2="147.3" gradientUnits="userSpaceOnUse">
<stop stop-color="#C0BFF6"/>
<stop offset="0.29" stop-color="#C5C4F7"/>
<stop offset="0.64" stop-color="#D3D2F9"/>
<stop offset="1" stop-color="#E9E9FD"/>
</linearGradient>
<linearGradient id="paint12_linear_2_3" x1="331.4" y1="166.87" x2="318.3" y2="166.87" gradientUnits="userSpaceOnUse">
<stop stop-color="#5761D7"/>
<stop offset="0.18" stop-color="#5C66D9"/>
<stop offset="0.39" stop-color="#6A73DF"/>
<stop offset="0.61" stop-color="#8289E8"/>
<stop offset="0.85" stop-color="#A3A7F5"/>
<stop offset="1" stop-color="#BCBEFF"/>
</linearGradient>
<linearGradient id="paint13_linear_2_3" x1="321.18" y1="188.86" x2="213.41" y2="188.86" gradientUnits="userSpaceOnUse">
<stop stop-color="#5761D7"/>
<stop offset="0.18" stop-color="#5C66D9"/>
<stop offset="0.39" stop-color="#6A73DF"/>
<stop offset="0.61" stop-color="#8289E8"/>
<stop offset="0.85" stop-color="#A3A7F5"/>
<stop offset="1" stop-color="#BCBEFF"/>
</linearGradient>
<linearGradient id="paint14_linear_2_3" x1="284.97" y1="185.27" x2="177.15" y2="185.27" gradientUnits="userSpaceOnUse">
<stop stop-color="#C0BFF6"/>
<stop offset="0.29" stop-color="#C5C4F7"/>
<stop offset="0.64" stop-color="#D3D2F9"/>
<stop offset="1" stop-color="#E9E9FD"/>
</linearGradient>
<linearGradient id="paint15_linear_2_3" x1="266.71" y1="191.39" x2="239.11" y2="191.39" gradientUnits="userSpaceOnUse">
<stop stop-color="#C0BFF6"/>
<stop offset="0.29" stop-color="#C5C4F7"/>
<stop offset="0.64" stop-color="#D3D2F9"/>
<stop offset="1" stop-color="#E9E9FD"/>
</linearGradient>
<radialGradient id="paint16_radial_2_3" cx="0" cy="0" r="1" gradientUnits="userSpaceOnUse" gradientTransform="translate(143.489 255.924) rotate(-30.1736) scale(2.5367)">
<stop stop-color="#42E8E0"/>
<stop offset="1" stop-color="#42E8E0"/>
</radialGradient>
<radialGradient id="paint17_radial_2_3" cx="0" cy="0" r="1" gradientUnits="userSpaceOnUse" gradientTransform="translate(155.683 263.103) rotate(-30.1734) scale(2.5367)">
<stop stop-color="#42E8E0"/>
<stop offset="1" stop-color="#42E8E0"/>
</radialGradient>
<radialGradient id="paint18_radial_2_3" cx="0" cy="0" r="1" gradientUnits="userSpaceOnUse" gradientTransform="translate(222.287 243.987) rotate(-30.1735) scale(2.5367)">
<stop stop-color="#42E8E0"/>
<stop offset="1" stop-color="#42E8E0"/>
</radialGradient>
<radialGradient id="paint19_radial_2_3" cx="0" cy="0" r="1" gradientUnits="userSpaceOnUse" gradientTransform="translate(238.056 220.977) rotate(-30.1735) scale(2.5367)">
<stop stop-color="#42E8E0"/>
<stop offset="1" stop-color="#42E8E0"/>
</radialGradient>
<radialGradient id="paint20_radial_2_3" cx="0" cy="0" r="1" gradientUnits="userSpaceOnUse" gradientTransform="translate(223.71 212.471) rotate(-30.1735) scale(2.53671)">
<stop stop-color="#42E8E0"/>
<stop offset="1" stop-color="#42E8E0"/>
</radialGradient>
<radialGradient id="paint21_radial_2_3" cx="0" cy="0" r="1" gradientUnits="userSpaceOnUse" gradientTransform="translate(209.369 204.549) rotate(-30.1735) scale(2.53671)">
<stop stop-color="#42E8E0"/>
<stop offset="1" stop-color="#42E8E0"/>
</radialGradient>
</defs>
</svg>
