<svg width="492" height="271" viewBox="0 0 492 271" fill="none" xmlns="http://www.w3.org/2000/svg">
<path d="M333.16 268.89C332.286 268.888 331.427 268.657 330.67 268.22L292.28 246.05L292.61 245.48L330.99 267.65C331.649 268.033 332.398 268.235 333.16 268.235C333.922 268.235 334.671 268.033 335.33 267.65L346.54 261.13L409.31 224.89C409.453 224.809 409.572 224.691 409.654 224.548C409.737 224.406 409.78 224.245 409.78 224.08C409.781 223.917 409.737 223.756 409.655 223.616C409.572 223.475 409.453 223.359 409.31 223.28L344.2 185.69L344.53 185.12L409.64 222.71C409.881 222.848 410.081 223.048 410.22 223.289C410.36 223.529 410.433 223.802 410.433 224.08C410.433 224.358 410.36 224.631 410.22 224.871C410.081 225.112 409.881 225.312 409.64 225.45L346.86 261.7L335.66 268.22C334.898 268.655 334.037 268.886 333.16 268.89V268.89Z" fill="#8686F2"/>
<path d="M87.75 175.61L87.42 175.04L132.9 148.78C133.688 148.328 134.581 148.091 135.49 148.091C136.399 148.091 137.292 148.328 138.08 148.78L159.34 161.06L159.01 161.63L137.75 149.35C137.062 148.957 136.283 148.751 135.49 148.751C134.697 148.751 133.918 148.957 133.23 149.35L87.75 175.61Z" fill="#8686F2"/>
<path d="M408.99 175.61L363.51 149.35C362.82 148.957 362.039 148.751 361.245 148.751C360.451 148.751 359.67 148.957 358.98 149.35L337.72 161.63L337.4 161.06L358.66 148.78C359.448 148.328 360.341 148.091 361.25 148.091C362.159 148.091 363.052 148.328 363.84 148.78L409.34 175L408.99 175.61Z" fill="#8686F2"/>
<path style="mix-blend-mode:lighten" opacity="0.6" d="M394.74 140.39L364.81 123.11L324.73 146.25L354.66 163.53L394.74 140.39Z" fill="url(#paint0_linear_2_4)"/>
<path style="mix-blend-mode:lighten" opacity="0.6" d="M284.66 123.11L254.73 140.39L294.8 163.53L324.73 146.25L284.66 123.11Z" fill="url(#paint1_linear_2_4)"/>
<path style="mix-blend-mode:lighten" opacity="0.6" d="M254.73 186.66L284.66 203.94L324.74 180.81L294.8 163.53L254.73 186.66Z" fill="url(#paint2_linear_2_4)"/>
<path style="mix-blend-mode:lighten" opacity="0.6" d="M364.81 203.94L394.74 186.66L354.66 163.53L324.74 180.81L364.81 203.94Z" fill="url(#paint3_linear_2_4)"/>
<path style="mix-blend-mode:lighten" opacity="0.6" d="M240.49 140.39L210.56 123.11L170.49 146.25L200.42 163.53L240.49 140.39Z" fill="url(#paint4_linear_2_4)"/>
<path style="mix-blend-mode:lighten" opacity="0.6" d="M130.42 123.11L100.49 140.39L140.56 163.53L170.49 146.25L130.42 123.11Z" fill="url(#paint5_linear_2_4)"/>
<path style="mix-blend-mode:lighten" opacity="0.6" d="M100.49 186.66L130.42 203.94L170.49 180.81L140.56 163.53L100.49 186.66Z" fill="url(#paint6_linear_2_4)"/>
<path style="mix-blend-mode:lighten" opacity="0.6" d="M210.56 203.94L240.5 186.66L200.42 163.53L170.49 180.81L210.56 203.94Z" fill="url(#paint7_linear_2_4)"/>
<path d="M170.7 196.38C170.139 196.398 169.584 196.267 169.09 196L132.9 175.11C132.692 175.011 132.515 174.858 132.388 174.666C132.261 174.473 132.189 174.25 132.18 174.02C132.212 173.728 132.322 173.45 132.498 173.214C132.674 172.978 132.909 172.794 133.18 172.68L168.88 152.07C169.435 151.757 170.056 151.581 170.693 151.556C171.33 151.532 171.963 151.66 172.54 151.93L208.72 172.82C208.929 172.919 209.107 173.072 209.235 173.264C209.364 173.456 209.438 173.679 209.45 173.91C209.417 174.202 209.307 174.48 209.131 174.715C208.955 174.95 208.72 175.135 208.45 175.25L172.75 195.86C172.124 196.211 171.417 196.39 170.7 196.38V196.38ZM169.37 195.52C169.861 195.736 170.395 195.835 170.931 195.811C171.467 195.787 171.99 195.639 172.46 195.38L208.16 174.77C208.59 174.52 208.85 174.2 208.85 173.91C208.834 173.779 208.784 173.655 208.705 173.55C208.626 173.444 208.521 173.362 208.4 173.31L172.22 152.41C171.727 152.196 171.191 152.098 170.654 152.122C170.117 152.146 169.592 152.293 169.12 152.55L133.42 173.17C133.244 173.242 133.089 173.358 132.97 173.507C132.851 173.656 132.772 173.832 132.74 174.02C132.755 174.151 132.803 174.276 132.88 174.382C132.958 174.489 133.061 174.574 133.18 174.63L169.37 195.52Z" fill="#8686F2"/>
<path d="M209.13 158.68V163.12L170.7 185.31L132.28 163.12V158.68H209.13Z" fill="url(#paint8_linear_2_4)"/>
<path d="M170.7 180.86L132.28 158.68L170.7 136.49L209.13 158.68L170.7 180.86Z" fill="#BCBEFF"/>
<path d="M170.7 180.35L132.72 158.42L132.28 158.68L170.7 180.86L209.13 158.68L208.68 158.42L170.7 180.35Z" fill="white"/>
<path d="M170.7 175.75L141.15 158.68L170.7 141.62L200.26 158.68L170.7 175.75Z" fill="#0F054C"/>
<path opacity="0.5" d="M170.7 175.75L141.15 158.68L170.7 141.62L200.26 158.68L170.7 175.75Z" fill="url(#paint9_linear_2_4)"/>
<path opacity="0.5" d="M170.7 137.32L200.26 154.38V158.68L170.7 141.62V137.32Z" fill="url(#paint10_linear_2_4)"/>
<path opacity="0.5" d="M170.7 141.62L141.15 158.68V154.38L170.7 137.32V141.62Z" fill="url(#paint11_linear_2_4)"/>
<path opacity="0.5" d="M170.7 171.44L141.15 154.38L170.7 137.32L200.26 154.38L170.7 171.44Z" fill="url(#paint12_linear_2_4)"/>
<path opacity="0.5" d="M170.7 161.2L158.89 154.38L170.7 147.56L182.51 154.38L170.7 161.2Z" fill="#42E8E0"/>
<path opacity="0.5" d="M170.7 148.19L181.97 154.69L182.51 154.38L170.7 147.56L158.89 154.38L159.44 154.69L170.7 148.19Z" fill="#42E8E0"/>
<path opacity="0.5" d="M170.7 171.44V175.75L200.26 158.68V154.38L170.7 171.44Z" fill="url(#paint13_linear_2_4)"/>
<path opacity="0.5" d="M141.15 154.38V158.68L170.7 175.75V171.44L141.15 154.38Z" fill="url(#paint14_linear_2_4)"/>
<path opacity="0.8" d="M170.7 170.97L141.55 154.15L141.15 154.38L170.7 171.44L200.26 154.38L199.85 154.15L170.7 170.97Z" fill="#42E8E0"/>
<path d="M324.73 196.38C324.169 196.397 323.614 196.266 323.12 196L286.93 175.11C286.723 175.01 286.547 174.856 286.42 174.664C286.294 174.472 286.221 174.25 286.21 174.02C286.241 173.727 286.35 173.449 286.526 173.213C286.702 172.977 286.938 172.793 287.21 172.68L322.91 152.07C323.464 151.759 324.083 151.583 324.718 151.559C325.353 151.535 325.984 151.662 326.56 151.93L362.74 172.82C362.949 172.919 363.127 173.072 363.255 173.264C363.384 173.456 363.458 173.679 363.47 173.91C363.439 174.203 363.33 174.481 363.154 174.717C362.978 174.953 362.742 175.137 362.47 175.25L326.77 195.86C326.147 196.209 325.444 196.389 324.73 196.38V196.38ZM323.4 195.52C323.891 195.736 324.425 195.835 324.961 195.811C325.497 195.787 326.02 195.639 326.49 195.38L362.19 174.77C362.62 174.52 362.88 174.2 362.88 173.91C362.866 173.779 362.817 173.653 362.738 173.548C362.659 173.442 362.552 173.36 362.43 173.31L326.25 152.41C325.757 152.196 325.221 152.098 324.684 152.122C324.147 152.146 323.622 152.293 323.15 152.55L287.46 173.17C287.03 173.41 286.77 173.73 286.77 174.02C286.785 174.151 286.833 174.276 286.91 174.382C286.987 174.489 287.091 174.574 287.21 174.63L323.4 195.52Z" fill="#8686F2"/>
<path d="M363.16 158.68V163.12L324.74 185.31L286.31 163.12V158.68H363.16Z" fill="url(#paint15_linear_2_4)"/>
<path d="M324.74 180.86L286.31 158.68L324.73 136.49L363.16 158.68L324.74 180.86Z" fill="#BCBEFF"/>
<path d="M324.74 180.35L286.76 158.42L286.31 158.68L324.74 180.86L363.16 158.68L362.71 158.42L324.74 180.35Z" fill="white"/>
<path d="M324.74 175.75L295.18 158.68L324.73 141.62L354.29 158.68L324.74 175.75Z" fill="#0F054C"/>
<path opacity="0.5" d="M324.74 175.75L295.18 158.68L324.73 141.62L354.29 158.68L324.74 175.75Z" fill="url(#paint16_linear_2_4)"/>
<path opacity="0.5" d="M324.73 137.32L354.29 154.38V158.68L324.73 141.62V137.32Z" fill="url(#paint17_linear_2_4)"/>
<path opacity="0.5" d="M324.74 141.62L295.18 158.68V154.38L324.73 137.32L324.74 141.62Z" fill="url(#paint18_linear_2_4)"/>
<path opacity="0.5" d="M324.74 171.44L295.18 154.38L324.73 137.32L354.29 154.38L324.74 171.44Z" fill="url(#paint19_linear_2_4)"/>
<path opacity="0.5" d="M324.74 161.2L312.92 154.38L324.73 147.56L336.55 154.38L324.74 161.2Z" fill="#42E8E0"/>
<path opacity="0.5" d="M324.73 148.19L336 154.69L336.55 154.38L324.73 147.56L312.92 154.38L313.47 154.69L324.73 148.19Z" fill="#42E8E0"/>
<path opacity="0.5" d="M324.74 171.44V175.75L354.29 158.68V154.38L324.74 171.44Z" fill="url(#paint20_linear_2_4)"/>
<path opacity="0.5" d="M295.18 154.38V158.68L324.74 175.75V171.44L295.18 154.38Z" fill="url(#paint21_linear_2_4)"/>
<path opacity="0.8" d="M324.74 170.97L295.58 154.15L295.18 154.38L324.74 171.44L354.29 154.38L353.88 154.15L324.74 170.97Z" fill="#42E8E0"/>
<path d="M247.81 108.32L179.52 68.89L247.81 29.46L316.11 68.89L247.81 108.32Z" fill="#BCBEFF"/>
<path opacity="0.7" d="M247.81 104.77L185.67 68.89L247.81 33.01L309.96 68.89L247.81 104.77Z" fill="#453C9E"/>
<path d="M247.81 270.91C246.757 270.902 245.724 270.623 244.81 270.1L161.16 221.8C160.886 221.644 160.658 221.417 160.499 221.144C160.34 220.871 160.257 220.561 160.257 220.245C160.257 219.929 160.34 219.619 160.499 219.346C160.658 219.073 160.886 218.846 161.16 218.69L247.86 168.64L337.25 220.25L250.86 270.1C249.931 270.631 248.88 270.91 247.81 270.91V270.91ZM245.09 269.53C245.919 270.002 246.856 270.25 247.81 270.25C248.764 270.25 249.701 270.002 250.53 269.53L335.88 220.25L247.81 169.39L161.44 219.26C161.263 219.359 161.116 219.504 161.015 219.68C160.915 219.857 160.865 220.057 160.87 220.26C160.866 220.463 160.916 220.663 161.017 220.839C161.117 221.015 161.263 221.16 161.44 221.26L245.09 269.53Z" fill="#8686F2"/>
<path d="M247.81 259.68L179.52 220.24L247.81 180.81L316.11 220.25L247.81 259.68Z" fill="white"/>
<path d="M316.11 68.89V220.25L247.81 259.68V108.32L316.11 68.89Z" fill="url(#paint22_linear_2_4)"/>
<path d="M179.52 68.89V220.24L247.81 259.68V108.32L179.52 68.89Z" fill="#24126A"/>
<g opacity="0.51">
<path opacity="0.51" d="M184.14 78.93V214.97L243.19 249.06V113.02L184.14 78.93Z" fill="#453C9E"/>
</g>
<path d="M305.86 105.46V109.46L258.06 137.06V133.06L305.86 105.46Z" fill="#453C9E"/>
<path d="M305.86 122.37V126.37L258.06 153.97V149.97L305.86 122.37Z" fill="#453C9E"/>
<path d="M305.86 139.29V143.29L258.06 170.89V166.89L305.86 139.29Z" fill="#453C9E"/>
<path d="M305.86 156.2V160.21L258.06 187.81V183.81L305.86 156.2Z" fill="#453C9E"/>
<path d="M305.86 173.12V177.12L258.06 204.72V200.72L305.86 173.12Z" fill="#453C9E"/>
<path d="M305.86 190.03V194.04L258.06 221.64V217.64L305.86 190.03Z" fill="#453C9E"/>
<path d="M247.81 107.04L180.63 68.25L179.52 68.89L247.81 108.32L316.11 68.89L315 68.25L247.81 107.04Z" fill="white"/>
<g opacity="0.51">
<path opacity="0.51" d="M179.52 196.32L247.81 155.09V108.32L179.52 68.89V196.32Z" fill="#453C9E"/>
</g>
<path d="M191.21 127.11L199.71 132.02V130.54L191.22 125.64L191.21 127.11Z" fill="#42E8E0"/>
<path d="M201.08 132.8L205.71 135.48V134L201.08 131.33V132.8Z" fill="#42E8E0"/>
<path d="M212.91 139.63L216.26 141.56L216.27 140.09L212.92 138.16L212.91 139.63Z" fill="#42E8E0"/>
<path d="M210.47 138.22L211.62 138.88V137.41L210.47 136.75V138.22Z" fill="#42E8E0"/>
<path d="M207.09 136.27L209.17 137.47V136L207.09 134.79V136.27Z" fill="#42E8E0"/>
<path d="M199.07 138.39L202.42 140.32V138.85L199.07 136.91V138.39Z" fill="#42E8E0"/>
<path d="M191.21 133.85L197.77 137.64V136.16L191.21 132.37V133.85Z" fill="#42E8E0"/>
<path d="M203.45 157.75L210.01 161.54V160.07L203.45 156.28V157.75Z" fill="#42E8E0"/>
<path d="M200.07 155.8L202.15 157V155.53L200.07 154.32V155.8Z" fill="#42E8E0"/>
<path d="M203.41 151L209.98 154.79V153.32L203.41 149.53V151Z" fill="#42E8E0"/>
<path d="M200.03 149.05L202.11 150.25L202.12 148.78L200.04 147.58L200.03 149.05Z" fill="#42E8E0"/>
<path d="M203.49 186.87L191.12 179.73V181.2L203.49 188.34V186.87Z" fill="#42E8E0"/>
<path d="M207.84 189.38L204.78 187.62V189.09L207.84 190.86V189.38Z" fill="#42E8E0"/>
<path d="M227.88 190.81L215.51 183.67V185.15L227.88 192.29V190.81Z" fill="#42E8E0"/>
<path d="M232.24 193.33L229.18 191.56L229.17 193.04L232.23 194.81L232.24 193.33Z" fill="#42E8E0"/>
<path d="M194.47 178.29L191.12 176.36V177.83L194.47 179.77V178.29Z" fill="#42E8E0"/>
<path d="M213.73 182.66L210.38 180.72L210.37 182.2L213.72 184.13L213.73 182.66Z" fill="#42E8E0"/>
<path d="M202.34 182.83L195.77 179.04V180.52L202.34 184.31V182.83Z" fill="#42E8E0"/>
<path d="M205.72 184.78L203.63 183.58V185.06L205.71 186.26L205.72 184.78Z" fill="#42E8E0"/>
<path d="M213.64 189.35L207.07 185.56V187.04L213.64 190.83V189.35Z" fill="#42E8E0"/>
<path d="M217.01 191.3L214.94 190.1V191.58L217.01 192.78V191.3Z" fill="#42E8E0"/>
<path d="M213.72 186.03L210.37 184.1V185.57L213.72 187.5V186.03Z" fill="#42E8E0"/>
<path d="M221.59 190.57L215.02 186.78V188.25L221.59 192.05V190.57Z" fill="#42E8E0"/>
<path d="M224.96 192.52L222.88 191.32V192.8L224.96 194V192.52Z" fill="#42E8E0"/>
<path d="M197.98 176.95L191.13 172.99L191.12 174.46L197.98 178.42V176.95Z" fill="#42E8E0"/>
<path d="M204.24 180.56L199.28 177.7V179.17L204.24 182.04V180.56Z" fill="#42E8E0"/>
<path d="M208.89 183.25L205.54 181.31L205.53 182.78L208.89 184.72V183.25Z" fill="#42E8E0"/>
<path d="M231.56 153.75L238.41 157.71V156.24L231.56 152.28V153.75Z" fill="#42E8E0"/>
<path d="M225.3 150.14L230.26 153V151.53L225.3 148.67V150.14Z" fill="#42E8E0"/>
<path d="M220.65 147.46L224 149.39V147.92L220.65 145.98V147.46Z" fill="#42E8E0"/>
<path d="M228.71 148.73L235.57 152.69V151.21L228.71 147.25V148.73Z" fill="#42E8E0"/>
<path d="M222.46 145.12L227.41 147.98V146.5L222.46 143.64V145.12Z" fill="#42E8E0"/>
<path d="M217.81 142.43L221.16 144.37V142.89L217.81 140.96V142.43Z" fill="#42E8E0"/>
<path d="M204.43 154.96L206.75 156.3V154.83L204.43 153.49V154.96Z" fill="#42E8E0"/>
<path d="M200.07 152.45L203.13 154.21V152.74L200.07 150.97V152.45Z" fill="#42E8E0"/>
<path d="M198.03 173.6L191.17 169.64V171.12L198.03 175.07V173.6Z" fill="#42E8E0"/>
<path d="M204.28 177.21L199.33 174.35L199.32 175.82L204.28 178.69V177.21Z" fill="#42E8E0"/>
<path d="M208.93 179.9L205.58 177.96V179.44L208.93 181.37V179.9Z" fill="#42E8E0"/>
<path d="M193.49 167.61L191.18 166.27L191.17 167.75L193.49 169.08V167.61Z" fill="#42E8E0"/>
<path d="M197.85 170.13L194.79 168.36V169.83L197.85 171.6V170.13Z" fill="#42E8E0"/>
<path d="M204.08 173.72L199.15 170.88V172.35L204.08 175.2V173.72Z" fill="#42E8E0"/>
<path d="M205.88 145.68L208.2 147.01V145.54L205.88 144.2V145.68Z" fill="#42E8E0"/>
<path d="M201.52 143.16L204.58 144.93V143.45L201.52 141.68V143.16Z" fill="#42E8E0"/>
<path d="M195.29 139.56L200.22 142.41V140.93L195.29 138.09V139.56Z" fill="#42E8E0"/>
<path d="M209.93 151.14L214.86 153.99L214.87 152.52L209.93 149.67V151.14Z" fill="#42E8E0"/>
<path d="M201.91 146.75L208.56 150.59V149.11L201.91 145.28V146.75Z" fill="#42E8E0"/>
<path d="M198.53 144.8L200.61 146V144.53L198.53 143.33V144.8Z" fill="#42E8E0"/>
<path d="M195.29 142.93L197.37 144.13V142.66L195.29 141.45V142.93Z" fill="#42E8E0"/>
<path d="M198.61 161.97L205.18 165.76V164.28L198.61 160.49V161.97Z" fill="#42E8E0"/>
<path d="M195.23 160.02L197.31 161.22V159.74L195.23 158.54V160.02Z" fill="#42E8E0"/>
<path d="M199.63 165.93L201.94 167.26V165.79L199.63 164.45V165.93Z" fill="#42E8E0"/>
<path d="M206.67 163.23L208.98 164.56V163.09L206.67 161.75V163.23Z" fill="#42E8E0"/>
<path d="M209.97 165.13L215.52 168.34L215.53 166.86L209.97 163.66V165.13Z" fill="#42E8E0"/>
<path d="M216.51 168.9L219.81 170.81V169.34L216.51 167.43V168.9Z" fill="#42E8E0"/>
<path d="M195.27 163.41L198.33 165.18V163.7L195.27 161.94V163.41Z" fill="#42E8E0"/>
<path d="M195.54 166.87L197.85 168.21V166.74L195.54 165.4V166.87Z" fill="#42E8E0"/>
<path d="M191.18 164.36L194.24 166.12V164.65L191.18 162.88V164.36Z" fill="#42E8E0"/>
<path d="M203.31 161.29L205.39 162.49V161.01L203.31 159.81V161.29Z" fill="#42E8E0"/>
<path d="M200.07 159.42L202.15 160.62V159.14L200.07 157.94V159.42Z" fill="#42E8E0"/>
<path d="M212.03 142.48L219.13 146.58V145.1L212.03 141.01V142.48Z" fill="#42E8E0"/>
<path d="M204.09 137.9L210.74 141.73V140.26L204.09 136.42V137.9Z" fill="#42E8E0"/>
<path d="M200.71 135.95L202.79 137.15V135.67L200.71 134.47V135.95Z" fill="#42E8E0"/>
<path d="M197.47 134.07L199.55 135.28V133.8L197.47 132.6V134.07Z" fill="#42E8E0"/>
<path d="M195.7 133.05L191.21 130.46V128.99L195.7 131.58V133.05Z" fill="#42E8E0"/>
<path d="M247.81 78.86L179.52 39.43L247.81 0L316.11 39.43L247.81 78.86Z" fill="#BCBEFF"/>
<path d="M247.81 68.09L198.16 39.43L247.81 10.77L297.46 39.43L247.81 68.09Z" fill="#453C9E"/>
<path d="M247.81 12.71L295.78 40.4L297.46 39.43L247.81 10.77L198.16 39.43L199.85 40.4L247.81 12.71Z" fill="white"/>
<path d="M316.11 39.43V61.78L247.81 101.21V78.86L316.11 39.43Z" fill="url(#paint23_linear_2_4)"/>
<path d="M179.52 39.43V61.78L247.81 101.21V78.86L179.52 39.43Z" fill="#24126A"/>
<g opacity="0.51">
<path opacity="0.51" d="M184.14 49.47V56.51L243.19 90.6V83.56L184.14 49.47Z" fill="#453C9E"/>
</g>
<path d="M247.81 77.58L180.63 38.79L179.52 39.43L247.81 78.86L316.11 39.43L315 38.79L247.81 77.58Z" fill="white"/>
<path d="M305.86 55.09V59.09L258.06 86.69V82.69L305.86 55.09Z" fill="#453C9E"/>
<path opacity="0.51" d="M179.52 39.43V61.78L247.81 101.21V78.86L179.52 39.43Z" fill="#453C9E"/>
<path d="M227.88 77.67L215.51 70.53V72.01L227.88 79.15V77.67Z" fill="#42E8E0"/>
<path d="M213.73 69.52L210.38 67.58L210.37 69.06L213.72 70.99L213.73 69.52Z" fill="#42E8E0"/>
<path d="M198.03 60.46L191.17 56.5V57.97L198.03 61.93V60.46Z" fill="#42E8E0"/>
<path d="M204.28 64.07L199.33 61.21L199.32 62.68L204.28 65.55V64.07Z" fill="#42E8E0"/>
<path d="M208.93 66.75L205.58 64.82V66.29L208.93 68.23V66.75Z" fill="#42E8E0"/>
<path d="M247.88 20.61L245.71 19.36L247.88 18.1L250.05 19.36L247.88 20.61Z" fill="#42E8E0"/>
<path opacity="0.1" d="M252.22 23.11L250.05 21.86L252.22 20.61L254.39 21.86L252.22 23.11Z" fill="#42E8E0"/>
<path opacity="0.4" d="M256.56 25.62L254.39 24.36L256.56 23.11L258.73 24.36L256.56 25.62Z" fill="#42E8E0"/>
<path d="M260.89 28.12L258.73 26.87L260.89 25.62L263.06 26.87L260.89 28.12Z" fill="#42E8E0"/>
<path opacity="0.4" d="M265.23 30.63L263.06 29.37L265.23 28.12L267.4 29.37L265.23 30.63Z" fill="#42E8E0"/>
<path d="M269.57 33.13L267.4 31.88L269.57 30.63L271.74 31.88L269.57 33.13Z" fill="#42E8E0"/>
<path d="M273.91 35.63L271.74 34.38L273.91 33.13L276.07 34.38L273.91 35.63Z" fill="#42E8E0"/>
<path d="M278.24 38.14L276.07 36.89L278.24 35.63L280.41 36.89L278.24 38.14Z" fill="#42E8E0"/>
<path opacity="0.1" d="M282.58 40.64L280.41 39.39L282.58 38.14L284.75 39.39L282.58 40.64Z" fill="#42E8E0"/>
<path d="M243.53 23.12L241.36 21.87L243.53 20.62L245.7 21.87L243.53 23.12Z" fill="#42E8E0"/>
<path d="M247.87 25.63L245.7 24.38L247.87 23.12L250.03 24.38L247.87 25.63Z" fill="#42E8E0"/>
<path d="M252.2 28.13L250.03 26.88L252.2 25.63L254.37 26.88L252.2 28.13Z" fill="#42E8E0"/>
<path d="M256.54 30.64L254.37 29.38L256.54 28.13L258.71 29.38L256.54 30.64Z" fill="#42E8E0"/>
<path d="M260.88 33.14L258.71 31.89L260.88 30.64L263.05 31.89L260.88 33.14Z" fill="#42E8E0"/>
<path d="M265.21 35.64L263.05 34.39L265.21 33.14L267.38 34.39L265.21 35.64Z" fill="#42E8E0"/>
<path d="M269.55 38.15L267.38 36.9L269.55 35.64L271.72 36.9L269.55 38.15Z" fill="#42E8E0"/>
<path d="M273.89 40.65L271.72 39.4L273.89 38.15L276.06 39.4L273.89 40.65Z" fill="#42E8E0"/>
<path d="M278.23 43.16L276.06 41.9L278.23 40.65L280.39 41.9L278.23 43.16Z" fill="#42E8E0"/>
<path d="M239.17 25.64L237 24.39L239.17 23.13L241.34 24.39L239.17 25.64Z" fill="#42E8E0"/>
<path d="M243.51 28.14L241.34 26.89L243.51 25.64L245.68 26.89L243.51 28.14Z" fill="#42E8E0"/>
<path d="M247.85 30.64L245.68 29.39L247.85 28.14L250.02 29.39L247.85 30.64Z" fill="#42E8E0"/>
<path opacity="0.1" d="M252.19 33.15L250.02 31.9L252.19 30.64L254.35 31.9L252.19 33.15Z" fill="#42E8E0"/>
<path opacity="0.4" d="M256.52 35.65L254.35 34.4L256.52 33.15L258.69 34.4L256.52 35.65Z" fill="#42E8E0"/>
<path opacity="0.4" d="M260.86 38.16L258.69 36.91L260.86 35.65L263.03 36.91L260.86 38.16Z" fill="#42E8E0"/>
<path d="M265.2 40.66L263.03 39.41L265.2 38.16L267.37 39.41L265.2 40.66Z" fill="#42E8E0"/>
<path d="M269.53 43.17L267.37 41.91L269.53 40.66L271.7 41.91L269.53 43.17Z" fill="#42E8E0"/>
<path d="M273.87 45.67L271.7 44.42L273.87 43.17L276.04 44.42L273.87 45.67Z" fill="#42E8E0"/>
<path opacity="0.4" d="M234.82 28.15L232.65 26.9L234.82 25.65L236.99 26.9L234.82 28.15Z" fill="#42E8E0"/>
<path opacity="0.4" d="M239.15 30.66L236.99 29.4L239.15 28.15L241.32 29.4L239.15 30.66Z" fill="#42E8E0"/>
<path opacity="0.1" d="M243.49 33.16L241.32 31.91L243.49 30.66L245.66 31.91L243.49 33.16Z" fill="#42E8E0"/>
<path d="M247.83 35.66L245.66 34.41L247.83 33.16L250 34.41L247.83 35.66Z" fill="#42E8E0"/>
<path d="M252.17 38.17L250 36.92L252.17 35.66L254.34 36.92L252.17 38.17Z" fill="#42E8E0"/>
<path d="M256.5 40.67L254.34 39.42L256.5 38.17L258.67 39.42L256.5 40.67Z" fill="#42E8E0"/>
<path opacity="0.4" d="M260.84 43.18L258.67 41.92L260.84 40.67L263.01 41.92L260.84 43.18Z" fill="#42E8E0"/>
<path d="M265.18 45.68L263.01 44.43L265.18 43.18L267.35 44.43L265.18 45.68Z" fill="#42E8E0"/>
<path d="M269.52 48.19L267.35 46.93L269.52 45.68L271.69 46.93L269.52 48.19Z" fill="#42E8E0"/>
<path d="M230.46 30.67L228.29 29.41L230.46 28.16L232.63 29.41L230.46 30.67Z" fill="#42E8E0"/>
<path d="M234.8 33.17L232.63 31.92L234.8 30.67L236.97 31.92L234.8 33.17Z" fill="#42E8E0"/>
<path d="M239.14 35.67L236.97 34.42L239.14 33.17L241.31 34.42L239.14 35.67Z" fill="#42E8E0"/>
<path d="M243.48 38.18L241.31 36.93L243.48 35.67L245.64 36.93L243.48 38.18Z" fill="#42E8E0"/>
<path d="M247.81 40.68L245.64 39.43L247.81 38.18L249.98 39.43L247.81 40.68Z" fill="#42E8E0"/>
<path d="M252.15 43.19L249.98 41.94L252.15 40.68L254.32 41.94L252.15 43.19Z" fill="#42E8E0"/>
<path d="M256.49 45.69L254.32 44.44L256.49 43.19L258.66 44.44L256.49 45.69Z" fill="#42E8E0"/>
<path d="M260.82 48.2L258.66 46.94L260.82 45.69L262.99 46.94L260.82 48.2Z" fill="#42E8E0"/>
<path d="M265.16 50.7L262.99 49.45L265.16 48.2L267.33 49.45L265.16 50.7Z" fill="#42E8E0"/>
<path d="M226.11 33.18L223.94 31.93L226.11 30.68L228.28 31.93L226.11 33.18Z" fill="#42E8E0"/>
<path d="M230.44 35.68L228.28 34.43L230.44 33.18L232.61 34.43L230.44 35.68Z" fill="#42E8E0"/>
<path opacity="0.4" d="M234.78 38.19L232.61 36.94L234.78 35.68L236.95 36.94L234.78 38.19Z" fill="#42E8E0"/>
<path d="M239.12 40.69L236.95 39.44L239.12 38.19L241.29 39.44L239.12 40.69Z" fill="#42E8E0"/>
<path opacity="0.1" d="M243.46 43.2L241.29 41.95L243.46 40.69L245.63 41.95L243.46 43.2Z" fill="#42E8E0"/>
<path d="M247.8 45.7L245.63 44.45L247.8 43.2L249.96 44.45L247.8 45.7Z" fill="#42E8E0"/>
<path d="M252.13 48.2L249.96 46.95L252.13 45.7L254.3 46.95L252.13 48.2Z" fill="#42E8E0"/>
<path d="M256.47 50.71L254.3 49.46L256.47 48.2L258.64 49.46L256.47 50.71Z" fill="#42E8E0"/>
<path d="M260.81 53.21L258.64 51.96L260.81 50.71L262.98 51.96L260.81 53.21Z" fill="#42E8E0"/>
<path d="M221.75 35.69L219.58 34.44L221.75 33.19L223.92 34.44L221.75 35.69Z" fill="#42E8E0"/>
<path d="M226.09 38.2L223.92 36.95L226.09 35.69L228.26 36.95L226.09 38.2Z" fill="#42E8E0"/>
<path opacity="0.4" d="M230.43 40.7L228.26 39.45L230.43 38.2L232.6 39.45L230.43 40.7Z" fill="#42E8E0"/>
<path d="M234.76 43.21L232.6 41.95L234.76 40.7L236.93 41.95L234.76 43.21Z" fill="#42E8E0"/>
<path d="M239.1 45.71L236.93 44.46L239.1 43.21L241.27 44.46L239.1 45.71Z" fill="#42E8E0"/>
<path opacity="0.1" d="M243.44 48.22L241.27 46.96L243.44 45.71L245.61 46.96L243.44 48.22Z" fill="#42E8E0"/>
<path opacity="0.4" d="M247.78 50.72L245.61 49.47L247.78 48.22L249.95 49.47L247.78 50.72Z" fill="#42E8E0"/>
<path d="M252.12 53.22L249.95 51.97L252.11 50.72L254.28 51.97L252.12 53.22Z" fill="#42E8E0"/>
<path opacity="0.1" d="M256.45 55.73L254.28 54.48L256.45 53.22L258.62 54.48L256.45 55.73Z" fill="#42E8E0"/>
<path d="M217.4 38.21L215.23 36.96L217.4 35.7L219.57 36.96L217.4 38.21Z" fill="#42E8E0"/>
<path opacity="0.4" d="M221.74 40.71L219.57 39.46L221.74 38.21L223.9 39.46L221.74 40.71Z" fill="#42E8E0"/>
<path d="M226.07 43.22L223.9 41.97L226.07 40.71L228.24 41.97L226.07 43.22Z" fill="#42E8E0"/>
<path d="M230.41 45.72L228.24 44.47L230.41 43.22L232.58 44.47L230.41 45.72Z" fill="#42E8E0"/>
<path d="M234.75 48.23L232.58 46.97L234.75 45.72L236.92 46.97L234.75 48.23Z" fill="#42E8E0"/>
<path d="M239.08 50.73L236.92 49.48L239.08 48.23L241.25 49.48L239.08 50.73Z" fill="#42E8E0"/>
<path d="M243.42 53.23L241.25 51.98L243.42 50.73L245.59 51.98L243.42 53.23Z" fill="#42E8E0"/>
<path opacity="0.4" d="M247.76 55.74L245.59 54.49L247.76 53.23L249.93 54.49L247.76 55.74Z" fill="#42E8E0"/>
<path d="M252.1 58.24L249.93 56.99L252.1 55.74L254.27 56.99L252.1 58.24Z" fill="#42E8E0"/>
<path d="M213.04 40.72L210.88 39.47L213.04 38.22L215.21 39.47L213.04 40.72Z" fill="#42E8E0"/>
<path opacity="0.1" d="M217.38 43.23L215.21 41.98L217.38 40.72L219.55 41.98L217.38 43.23Z" fill="#42E8E0"/>
<path d="M221.72 45.73L219.55 44.48L221.72 43.23L223.89 44.48L221.72 45.73Z" fill="#42E8E0"/>
<path d="M226.06 48.23L223.89 46.98L226.06 45.73L228.22 46.98L226.06 48.23Z" fill="#42E8E0"/>
<path d="M230.39 50.74L228.22 49.49L230.39 48.23L232.56 49.49L230.39 50.74Z" fill="#42E8E0"/>
<path d="M234.73 53.24L232.56 51.99L234.73 50.74L236.9 51.99L234.73 53.24Z" fill="#42E8E0"/>
<path opacity="0.4" d="M239.07 55.75L236.9 54.5L239.07 53.24L241.24 54.5L239.07 55.75Z" fill="#42E8E0"/>
<path d="M243.4 58.25L241.24 57L243.4 55.75L245.57 57L243.4 58.25Z" fill="#42E8E0"/>
<path d="M247.74 60.76L245.57 59.5L247.74 58.25L249.91 59.5L247.74 60.76Z" fill="#42E8E0"/>
<path d="M52.22 225.36C51.1676 225.368 50.132 225.095 49.22 224.57L14.91 204.74C14.6465 204.594 14.4274 204.379 14.276 204.119C14.1246 203.858 14.0465 203.561 14.05 203.26C14.0497 202.959 14.1291 202.664 14.2801 202.404C14.4312 202.144 14.6486 201.929 14.91 201.78L77.2 165.78L77.65 166.04L114.52 187.32C114.789 187.467 115.014 187.684 115.17 187.948C115.326 188.212 115.409 188.513 115.409 188.82C115.409 189.127 115.326 189.428 115.17 189.692C115.014 189.956 114.789 190.173 114.52 190.32L55.19 224.57C54.2854 225.087 53.2618 225.359 52.22 225.36V225.36ZM77.22 166.58L15.22 202.35C15.0627 202.445 14.9326 202.58 14.8424 202.74C14.7521 202.9 14.7047 203.081 14.7047 203.265C14.7047 203.449 14.7521 203.63 14.8424 203.79C14.9326 203.95 15.0627 204.085 15.22 204.18L49.57 224C50.3783 224.457 51.2912 224.698 52.22 224.698C53.1488 224.698 54.0617 224.457 54.87 224L114.19 189.75C114.347 189.656 114.478 189.523 114.568 189.363C114.659 189.204 114.706 189.023 114.706 188.84C114.706 188.657 114.659 188.476 114.568 188.317C114.478 188.157 114.347 188.024 114.19 187.93L77.22 166.58Z" fill="#8686F2"/>
<path d="M77.28 152L68.99 103L69.66 102.72L68.66 102.15C68.5389 102.087 68.4025 102.059 68.2664 102.07C68.1303 102.08 67.9999 102.129 67.89 102.21L1.89001 140.34C1.60832 140.514 1.37707 140.759 1.2192 141.05C1.06133 141.341 0.982321 141.669 0.990015 142L9.32001 191.42C9.3305 191.528 9.36811 191.631 9.42931 191.72C9.49052 191.809 9.57333 191.881 9.67002 191.93V191.93L10.67 192.49L10.84 191.58H10.78L76.43 153.67C76.7061 153.491 76.93 153.242 77.0793 152.949C77.2285 152.656 77.2978 152.329 77.28 152Z" fill="url(#paint24_linear_2_4)"/>
<path d="M2.23001 141.69L1.14001 141.21C1.02093 141.455 0.969163 141.728 0.990008 142L9.32001 191.42C9.3305 191.528 9.3681 191.631 9.42931 191.72C9.49051 191.809 9.57332 191.881 9.67001 191.93V191.93L10.67 192.49L10.84 191.58H10.78L14.1 189.66L2.23001 141.69Z" fill="url(#paint25_linear_2_4)"/>
<path d="M77.46 154.32L11.46 192.45C10.95 192.75 10.51 192.58 10.46 192.05L2.03999 142.62C2.03014 142.299 2.10429 141.98 2.2551 141.696C2.40591 141.412 2.62819 141.172 2.89999 141L68.99 102.81C69.5 102.52 69.99 102.69 69.99 103.22L78.33 152.64C78.3444 152.972 78.2716 153.301 78.119 153.596C77.9663 153.891 77.7391 154.14 77.46 154.32V154.32Z" fill="#24126A"/>
<g opacity="0.51">
<path opacity="0.51" d="M68.09 105.97L4.42001 142.73L12.32 189.27L75.94 152.54L68.09 105.97Z" fill="#453C9E"/>
</g>
<path d="M118.99 177.72L115.38 179.6L79.23 158.73C78.8567 158.559 78.4482 158.479 78.038 158.497C77.6278 158.514 77.2275 158.628 76.87 158.83L14.53 194.83C13.93 194.5 11.21 193.19 11.21 193.19L12.53 196.63C12.5975 196.808 12.7296 196.955 12.9 197.04L50.99 219C51.3639 219.169 51.7721 219.247 52.1818 219.23C52.5916 219.212 52.9917 219.1 53.35 218.9L117.15 182.07C117.386 181.945 117.573 181.744 117.68 181.5V181.5L118.99 177.72Z" fill="url(#paint26_linear_2_4)"/>
<path d="M118.42 178.31L53.04 216.05C52.6733 216.257 52.2627 216.374 51.842 216.391C51.4213 216.409 51.0025 216.326 50.62 216.15L11.62 193.63C11 193.27 11.08 192.63 11.79 192.23L77.17 154.49C77.5367 154.283 77.9472 154.166 78.368 154.149C78.7887 154.131 79.2075 154.214 79.59 154.39L118.59 176.91C119.21 177.27 119.14 177.89 118.42 178.31Z" fill="url(#paint27_linear_2_4)"/>
<path d="M118.42 177.93L53.04 215.68C52.6725 215.885 52.2622 216 51.8419 216.018C51.4216 216.035 51.0031 215.954 50.62 215.78L11.62 193.25C11.444 193.164 11.3078 193.014 11.24 192.83C11.1929 192.987 11.2057 193.155 11.2759 193.303C11.3461 193.451 11.4688 193.568 11.62 193.63L50.62 216.15C51.0025 216.326 51.4213 216.409 51.8421 216.391C52.2628 216.374 52.6733 216.257 53.04 216.05L118.42 178.31C118.9 178.03 119.09 177.66 118.97 177.31C118.874 177.58 118.677 177.802 118.42 177.93V177.93Z" fill="white"/>
<path d="M33.32 207.89V207.17C33.32 207.1 33.32 207.07 33.41 207.1L35.99 208.56C36.0177 208.581 36.0401 208.608 36.0557 208.64C36.0713 208.671 36.0796 208.705 36.08 208.74V209.46C36.08 209.52 36.08 209.56 35.99 209.53L33.46 208.07C33.423 208.055 33.3907 208.03 33.3661 207.999C33.3416 207.967 33.3257 207.93 33.32 207.89V207.89Z" fill="#2842A2"/>
<path d="M37.1 210.07V209.36C37.1 209.29 37.1 209.26 37.19 209.29L39.72 210.75C39.7488 210.769 39.7728 210.794 39.7901 210.823C39.8075 210.853 39.8177 210.886 39.82 210.92V211.64C39.82 211.71 39.82 211.74 39.72 211.71L37.19 210.25C37.1623 210.229 37.1399 210.202 37.1243 210.17C37.1087 210.139 37.1004 210.105 37.1 210.07V210.07Z" fill="#2842A2"/>
<path d="M21.78 191.52L76.11 160.15C76.2879 160.047 76.4896 159.993 76.695 159.993C76.9004 159.993 77.1021 160.047 77.28 160.15L96.63 171.35C96.6947 171.385 96.7487 171.437 96.7863 171.501C96.8239 171.564 96.8438 171.636 96.8438 171.71C96.8438 171.784 96.8239 171.856 96.7863 171.919C96.7487 171.983 96.6947 172.035 96.63 172.07L42.32 203.42C42.1421 203.523 41.9404 203.577 41.735 203.577C41.5296 203.577 41.3279 203.523 41.15 203.42L21.78 192.24C21.7153 192.205 21.6613 192.153 21.6237 192.089C21.5861 192.026 21.5662 191.954 21.5662 191.88C21.5662 191.806 21.5861 191.734 21.6237 191.671C21.6613 191.607 21.7153 191.555 21.78 191.52V191.52Z" fill="#ADB1F2"/>
<path d="M21.78 192.24L21.97 192.35L76.11 161.1C76.2879 160.997 76.4896 160.943 76.695 160.943C76.9004 160.943 77.1021 160.997 77.28 161.1L96.43 172.18L96.63 172.07C96.6947 172.035 96.7487 171.983 96.7863 171.919C96.8239 171.856 96.8438 171.784 96.8438 171.71C96.8438 171.636 96.8239 171.564 96.7863 171.501C96.7487 171.437 96.6947 171.385 96.63 171.35L77.28 160.15C77.1021 160.047 76.9004 159.993 76.695 159.993C76.4896 159.993 76.2879 160.047 76.11 160.15L21.78 191.52C21.7153 191.555 21.6613 191.607 21.6237 191.671C21.5861 191.734 21.5662 191.806 21.5662 191.88C21.5662 191.954 21.5861 192.026 21.6237 192.089C21.6613 192.153 21.7153 192.205 21.78 192.24V192.24Z" fill="#9198DB"/>
<path d="M78.75 162.99L31.55 190.24L29.45 189.02L76.65 161.78L78.75 162.99Z" fill="#24126A"/>
<path d="M83.89 165.96L39.62 191.51L37.53 190.3L81.79 164.75L83.89 165.96Z" fill="#24126A"/>
<path d="M87.24 167.89L35.12 197.98L33.02 196.77L85.14 166.68L87.24 167.89Z" fill="#24126A"/>
<path d="M90.59 169.83L38.47 199.92L36.37 198.71L88.49 168.62L90.59 169.83Z" fill="#24126A"/>
<path d="M93.94 171.76L41.82 201.85L39.72 200.64L91.84 170.55L93.94 171.76Z" fill="#24126A"/>
<path d="M28.7 191.88L26.6 193.09L24.5 191.88L26.6 190.67L28.7 191.88Z" fill="#24126A"/>
<path d="M36.1 193.55L31.75 196.06L29.65 194.85L34 192.34L36.1 193.55Z" fill="#24126A"/>
<path d="M78.2 199.11L92.85 190.65C92.9736 190.607 93.0807 190.527 93.1564 190.42C93.2322 190.313 93.2729 190.186 93.2729 190.055C93.2729 189.924 93.2322 189.797 93.1564 189.69C93.0807 189.583 92.9736 189.503 92.85 189.46L82.85 183.67C82.5292 183.507 82.1746 183.423 81.815 183.423C81.4554 183.423 81.1008 183.507 80.78 183.67L66.13 192.13C66.0029 192.171 65.8919 192.251 65.8132 192.359C65.7345 192.466 65.6921 192.596 65.6921 192.73C65.6921 192.864 65.7345 192.994 65.8132 193.101C65.8919 193.209 66.0029 193.289 66.13 193.33L76.13 199.11C76.4508 199.273 76.8054 199.357 77.165 199.357C77.5246 199.357 77.8792 199.273 78.2 199.11Z" fill="url(#paint28_linear_2_4)"/>
<path d="M66.11 192.62L80.76 184.16C81.0808 183.997 81.4354 183.913 81.795 183.913C82.1546 183.913 82.5092 183.997 82.83 184.16L92.83 189.95C92.9818 190.029 93.107 190.15 93.19 190.3C93.34 190.01 93.19 189.68 92.83 189.46L82.83 183.67C82.5092 183.507 82.1546 183.423 81.795 183.423C81.4354 183.423 81.0808 183.507 80.76 183.67L66.11 192.13C65.72 192.36 65.6 192.68 65.75 192.97C65.833 192.82 65.9582 192.699 66.11 192.62Z" fill="#9198DB"/>
<path d="M28.4 171.53L33.55 168.55L33.7 169.44L28.55 172.42L28.4 171.53Z" fill="#42E8E0"/>
<path d="M34.38 168.07L37.18 166.45L37.33 167.34L34.53 168.97L34.38 168.07Z" fill="#42E8E0"/>
<path d="M41.55 163.93L43.58 162.76L43.73 163.65L41.7 164.82L41.55 163.93Z" fill="#42E8E0"/>
<path d="M40.07 164.79L40.76 164.38L40.91 165.28L40.22 165.68L40.07 164.79Z" fill="#42E8E0"/>
<path d="M38.02 165.97L39.28 165.24L39.43 166.13L38.17 166.86L38.02 165.97Z" fill="#42E8E0"/>
<path d="M32.47 164.68L34.5 163.51L34.65 164.41L32.62 165.58L32.47 164.68Z" fill="#42E8E0"/>
<path d="M27.7 167.44L31.68 165.14L31.84 166.03L27.86 168.33L27.7 167.44Z" fill="#42E8E0"/>
<path d="M33.41 152.94L37.39 150.64L37.54 151.54L33.56 153.84L33.41 152.94Z" fill="#42E8E0"/>
<path d="M31.36 154.13L32.62 153.4L32.77 154.29L31.51 155.02L31.36 154.13Z" fill="#42E8E0"/>
<path d="M34.07 157.03L38.05 154.74L38.2 155.63L34.22 157.93L34.07 157.03Z" fill="#42E8E0"/>
<path d="M32.03 158.22L33.29 157.49L33.44 158.38L32.18 159.11L32.03 158.22Z" fill="#42E8E0"/>
<path d="M30.47 135.28L22.98 139.62L22.83 138.72L30.32 134.39L30.47 135.28Z" fill="#42E8E0"/>
<path d="M33.11 133.76L31.26 134.83L31.11 133.93L32.96 132.86L33.11 133.76Z" fill="#42E8E0"/>
<path d="M46.29 132.89L38.79 137.22L38.64 136.32L46.14 131.99L46.29 132.89Z" fill="#42E8E0"/>
<path d="M48.93 131.36L47.07 132.43L46.92 131.54L48.78 130.47L48.93 131.36Z" fill="#42E8E0"/>
<path d="M25.35 140.49L23.32 141.66L23.17 140.76L25.2 139.59L25.35 140.49Z" fill="#42E8E0"/>
<path d="M37.71 137.83L35.68 139.01L35.53 138.11L37.56 136.94L37.71 137.83Z" fill="#42E8E0"/>
<path d="M30.12 137.73L26.14 140.03L25.99 139.13L29.97 136.84L30.12 137.73Z" fill="#42E8E0"/>
<path d="M32.17 136.55L30.91 137.28L30.76 136.38L32.02 135.65L32.17 136.55Z" fill="#42E8E0"/>
<path d="M36.97 133.78L32.99 136.08L32.84 135.18L36.82 132.88L36.97 133.78Z" fill="#42E8E0"/>
<path d="M39.02 132.59L37.75 133.32L37.6 132.43L38.86 131.7L39.02 132.59Z" fill="#42E8E0"/>
<path d="M37.36 135.79L35.33 136.96L35.18 136.07L37.21 134.9L37.36 135.79Z" fill="#42E8E0"/>
<path d="M42.13 133.04L38.15 135.34L38 134.44L41.98 132.14L42.13 133.04Z" fill="#42E8E0"/>
<path d="M44.18 131.85L42.92 132.58L42.77 131.69L44.03 130.96L44.18 131.85Z" fill="#42E8E0"/>
<path d="M27.82 141.3L23.67 143.7L23.52 142.81L27.67 140.41L27.82 141.3Z" fill="#42E8E0"/>
<path d="M31.61 139.11L28.61 140.84L28.46 139.95L31.46 138.21L31.61 139.11Z" fill="#42E8E0"/>
<path d="M34.43 137.48L32.4 138.65L32.25 137.76L34.28 136.59L34.43 137.48Z" fill="#42E8E0"/>
<path d="M54.13 128.37L49.97 130.77L49.82 129.87L53.97 127.47L54.13 128.37Z" fill="#42E8E0"/>
<path d="M57.92 126.17L54.91 127.91L54.76 127.02L57.77 125.28L57.92 126.17Z" fill="#42E8E0"/>
<path d="M60.74 124.55L58.7 125.72L58.55 124.82L60.58 123.65L60.74 124.55Z" fill="#42E8E0"/>
<path d="M52.5 155.36L56.66 152.96L56.81 153.86L52.66 156.26L52.5 155.36Z" fill="#42E8E0"/>
<path d="M48.71 157.55L51.72 155.82L51.87 156.71L48.86 158.45L48.71 157.55Z" fill="#42E8E0"/>
<path d="M45.89 159.18L47.92 158.01L48.08 158.9L46.05 160.08L45.89 159.18Z" fill="#42E8E0"/>
<path d="M51.12 158.41L55.28 156.01L55.43 156.9L51.28 159.31L51.12 158.41Z" fill="#42E8E0"/>
<path d="M47.33 160.6L50.34 158.87L50.49 159.76L47.48 161.5L47.33 160.6Z" fill="#42E8E0"/>
<path d="M44.52 162.23L46.55 161.06L46.7 161.95L44.67 163.13L44.52 162.23Z" fill="#42E8E0"/>
<path d="M34.35 154.63L35.75 153.82L35.9 154.72L34.5 155.53L34.35 154.63Z" fill="#42E8E0"/>
<path d="M31.71 156.16L33.56 155.09L33.71 155.98L31.86 157.05L31.71 156.16Z" fill="#42E8E0"/>
<path d="M28.19 143.33L24.04 145.73L23.89 144.84L28.04 142.44L28.19 143.33Z" fill="#42E8E0"/>
<path d="M31.99 141.14L28.98 142.88L28.83 141.98L31.84 140.25L31.99 141.14Z" fill="#42E8E0"/>
<path d="M34.8 139.51L32.77 140.69L32.62 139.79L34.65 138.62L34.8 139.51Z" fill="#42E8E0"/>
<path d="M25.79 146.97L24.38 147.78L24.23 146.88L25.64 146.07L25.79 146.97Z" fill="#42E8E0"/>
<path d="M28.43 145.44L26.58 146.51L26.42 145.62L28.28 144.54L28.43 145.44Z" fill="#42E8E0"/>
<path d="M32.2 143.26L29.22 144.98L29.06 144.09L32.05 142.36L32.2 143.26Z" fill="#42E8E0"/>
<path d="M36.26 160.27L37.66 159.45L37.81 160.35L36.41 161.16L36.26 160.27Z" fill="#42E8E0"/>
<path d="M33.62 161.79L35.47 160.72L35.62 161.62L33.77 162.69L33.62 161.79Z" fill="#42E8E0"/>
<path d="M29.84 163.97L32.83 162.25L32.98 163.14L29.99 164.87L29.84 163.97Z" fill="#42E8E0"/>
<path d="M38.39 156.95L41.38 155.22L41.53 156.12L38.55 157.84L38.39 156.95Z" fill="#42E8E0"/>
<path d="M33.51 159.61L37.53 157.28L37.69 158.18L33.66 160.51L33.51 159.61Z" fill="#42E8E0"/>
<path d="M31.46 160.8L32.72 160.07L32.87 160.96L31.61 161.69L31.46 160.8Z" fill="#42E8E0"/>
<path d="M29.49 161.93L30.76 161.2L30.91 162.1L29.65 162.83L29.49 161.93Z" fill="#42E8E0"/>
<path d="M29.77 150.39L33.74 148.09L33.9 148.98L29.92 151.28L29.77 150.39Z" fill="#42E8E0"/>
<path d="M27.72 151.57L28.98 150.84L29.13 151.74L27.87 152.46L27.72 151.57Z" fill="#42E8E0"/>
<path d="M30.04 147.98L31.44 147.17L31.59 148.07L30.19 148.88L30.04 147.98Z" fill="#42E8E0"/>
<path d="M34.99 149.62L36.4 148.81L36.55 149.7L35.14 150.51L34.99 149.62Z" fill="#42E8E0"/>
<path d="M36.99 148.47L40.36 146.52L40.51 147.41L37.14 149.36L36.99 148.47Z" fill="#42E8E0"/>
<path d="M40.96 146.18L42.96 145.02L43.11 145.91L41.11 147.07L40.96 146.18Z" fill="#42E8E0"/>
<path d="M27.4 149.51L29.25 148.44L29.4 149.33L27.55 150.41L27.4 149.51Z" fill="#42E8E0"/>
<path d="M27.22 147.41L28.63 146.6L28.78 147.49L27.37 148.31L27.22 147.41Z" fill="#42E8E0"/>
<path d="M24.58 148.94L26.44 147.87L26.59 148.76L24.73 149.83L24.58 148.94Z" fill="#42E8E0"/>
<path d="M32.96 150.8L34.22 150.07L34.37 150.96L33.11 151.69L32.96 150.8Z" fill="#42E8E0"/>
<path d="M30.99 151.93L32.25 151.2L32.4 152.1L31.14 152.83L30.99 151.93Z" fill="#42E8E0"/>
<path d="M40.67 162.2L44.97 159.72L45.12 160.61L40.82 163.09L40.67 162.2Z" fill="#42E8E0"/>
<path d="M35.86 164.98L39.89 162.66L40.04 163.55L36.01 165.88L35.86 164.98Z" fill="#42E8E0"/>
<path d="M33.81 166.17L35.07 165.44L35.22 166.33L33.96 167.06L33.81 166.17Z" fill="#42E8E0"/>
<path d="M31.85 167.3L33.11 166.57L33.26 167.47L32 168.2L31.85 167.3Z" fill="#42E8E0"/>
<path d="M30.77 167.92L28.05 169.49L28.2 170.39L30.92 168.82L30.77 167.92Z" fill="#42E8E0"/>
<path d="M440.17 225.36C439.118 225.364 438.083 225.092 437.17 224.57L377.85 190.32C377.581 190.173 377.356 189.956 377.2 189.692C377.044 189.428 376.961 189.127 376.961 188.82C376.961 188.513 377.044 188.212 377.2 187.948C377.356 187.684 377.581 187.467 377.85 187.32L415.17 165.78L415.33 165.87L477.46 201.74C477.721 201.889 477.939 202.104 478.09 202.364C478.241 202.624 478.32 202.919 478.32 203.22C478.324 203.521 478.245 203.818 478.094 204.079C477.943 204.339 477.724 204.554 477.46 204.7L443.12 224.53C442.225 225.057 441.209 225.343 440.17 225.36V225.36ZM437.52 224C438.326 224.458 439.238 224.698 440.165 224.698C441.092 224.698 442.004 224.458 442.81 224L477.15 204.18C477.312 204.089 477.447 203.956 477.541 203.795C477.635 203.634 477.685 203.451 477.685 203.265C477.685 203.079 477.635 202.896 477.541 202.735C477.447 202.574 477.312 202.441 477.15 202.35L415.15 166.58L415.03 166.65L378.17 187.93C377.995 188.01 377.847 188.138 377.744 188.299C377.64 188.46 377.585 188.648 377.585 188.84C377.585 189.032 377.64 189.22 377.744 189.381C377.847 189.542 377.995 189.67 378.17 189.75L437.52 224Z" fill="#8686F2"/>
<path d="M415.11 152L423.37 103L422.71 102.72L423.71 102.15C423.831 102.087 423.967 102.059 424.104 102.07C424.24 102.08 424.37 102.129 424.48 102.21L490.53 140.34C490.808 140.52 491.033 140.77 491.182 141.065C491.331 141.36 491.4 141.69 491.38 142.02L483.05 191.44C483.041 191.547 483.004 191.649 482.945 191.738C482.886 191.827 482.805 191.9 482.71 191.95V191.95L481.71 192.51L481.54 191.6H481.6L415.99 153.72C415.697 153.544 415.46 153.29 415.305 152.986C415.149 152.682 415.082 152.34 415.11 152Z" fill="url(#paint29_linear_2_4)"/>
<path d="M490.16 141.69L491.24 141.21C491.371 141.462 491.419 141.749 491.38 142.03L483.05 191.45C483.041 191.557 483.004 191.659 482.945 191.748C482.886 191.837 482.805 191.91 482.71 191.96L481.71 192.52L481.54 191.61H481.6L478.28 189.69L490.16 141.69Z" fill="url(#paint30_linear_2_4)"/>
<path d="M414.93 154.32L480.99 192.45C481.5 192.75 481.94 192.58 481.99 192.05L490.32 142.62C490.337 142.291 490.266 141.962 490.115 141.669C489.964 141.376 489.738 141.128 489.46 140.95L423.41 102.81C422.9 102.52 422.46 102.69 422.41 103.22L414.08 152.64C414.063 152.97 414.133 153.298 414.282 153.593C414.431 153.887 414.655 154.138 414.93 154.32V154.32Z" fill="#24126A"/>
<g opacity="0.51">
<path opacity="0.51" d="M424.31 105.97L487.97 142.73L480.08 189.27L416.45 152.54L424.31 105.97Z" fill="#453C9E"/>
</g>
<path d="M373.41 177.72L377.01 179.6L413.16 158.73C413.533 158.559 413.942 158.479 414.352 158.497C414.762 158.514 415.162 158.628 415.52 158.83L477.86 194.83C478.45 194.5 481.17 193.19 481.17 193.19L479.86 196.63C479.792 196.808 479.66 196.955 479.49 197.04L441.42 219.04C441.046 219.208 440.638 219.287 440.228 219.27C439.818 219.252 439.418 219.14 439.06 218.94L375.27 182.11C375.031 181.989 374.844 181.787 374.74 181.54L373.41 177.72Z" fill="url(#paint31_linear_2_4)"/>
<path d="M373.99 178.31L439.37 216.05C439.735 216.257 440.144 216.374 440.563 216.391C440.982 216.409 441.399 216.326 441.78 216.15L480.78 193.63C481.4 193.27 481.32 192.63 480.61 192.23L415.23 154.49C414.863 154.283 414.453 154.166 414.032 154.149C413.611 154.131 413.192 154.214 412.81 154.39L373.81 176.91C373.17 177.27 373.25 177.89 373.99 178.31Z" fill="url(#paint32_linear_2_4)"/>
<path d="M373.99 177.93L439.37 215.68C439.736 215.885 440.144 216 440.563 216.018C440.982 216.035 441.399 215.954 441.78 215.78L480.78 193.25C480.954 193.161 481.089 193.012 481.16 192.83C481.207 192.987 481.194 193.155 481.124 193.303C481.054 193.451 480.931 193.568 480.78 193.63L441.78 216.15C441.399 216.326 440.982 216.409 440.563 216.391C440.144 216.374 439.735 216.257 439.37 216.05L373.99 178.31C373.51 178.03 373.32 177.66 373.43 177.31C373.535 177.578 373.734 177.799 373.99 177.93V177.93Z" fill="white"/>
<path d="M459.07 207.89V207.17C459.07 207.1 459.07 207.07 458.97 207.1L456.45 208.56C456.419 208.579 456.394 208.605 456.376 208.637C456.359 208.668 456.35 208.704 456.35 208.74V209.46C456.35 209.52 456.35 209.56 456.45 209.53L458.97 208.07C459.001 208.051 459.026 208.025 459.044 207.993C459.061 207.962 459.07 207.926 459.07 207.89V207.89Z" fill="#2842A2"/>
<path d="M455.29 210.07V209.36C455.29 209.29 455.24 209.26 455.19 209.29L452.66 210.75C452.633 210.769 452.61 210.795 452.594 210.824C452.579 210.854 452.57 210.887 452.57 210.92V211.64C452.57 211.71 452.57 211.74 452.66 211.71L455.19 210.25C455.219 210.229 455.243 210.202 455.26 210.171C455.278 210.14 455.288 210.106 455.29 210.07V210.07Z" fill="#2842A2"/>
<path d="M470.61 191.52L416.28 160.15C416.102 160.047 415.9 159.993 415.695 159.993C415.49 159.993 415.288 160.047 415.11 160.15L395.76 171.35C395.695 171.385 395.641 171.437 395.604 171.501C395.566 171.564 395.546 171.636 395.546 171.71C395.546 171.784 395.566 171.856 395.604 171.919C395.641 171.983 395.695 172.035 395.76 172.07L450.07 203.42C450.246 203.523 450.446 203.577 450.65 203.577C450.854 203.577 451.054 203.523 451.23 203.42L470.61 192.24C470.675 192.205 470.729 192.153 470.766 192.089C470.804 192.026 470.824 191.954 470.824 191.88C470.824 191.806 470.804 191.734 470.766 191.671C470.729 191.607 470.675 191.555 470.61 191.52Z" fill="#ADB1F2"/>
<path d="M470.61 192.24L470.41 192.35L416.28 161.1C416.102 160.997 415.9 160.943 415.695 160.943C415.49 160.943 415.288 160.997 415.11 161.1L395.99 172.18L395.8 172.07C395.735 172.035 395.681 171.983 395.644 171.919C395.606 171.856 395.586 171.784 395.586 171.71C395.586 171.636 395.606 171.564 395.644 171.501C395.681 171.437 395.735 171.385 395.8 171.35L415.15 160.15C415.328 160.047 415.53 159.993 415.735 159.993C415.94 159.993 416.142 160.047 416.32 160.15L470.65 191.52C470.713 191.559 470.764 191.614 470.798 191.679C470.833 191.745 470.849 191.818 470.844 191.892C470.84 191.966 470.816 192.037 470.775 192.098C470.734 192.16 470.677 192.208 470.61 192.24V192.24Z" fill="#9198DB"/>
<path d="M413.65 162.99L460.84 190.24L462.94 189.02L415.75 161.78L413.65 162.99Z" fill="#24126A"/>
<path d="M408.51 165.96L452.77 191.51L454.87 190.3L410.61 164.75L408.51 165.96Z" fill="#24126A"/>
<path d="M405.16 167.89L457.27 197.98L459.37 196.77L407.25 166.68L405.16 167.89Z" fill="#24126A"/>
<path d="M401.81 169.83L453.92 199.92L456.02 198.71L403.9 168.62L401.81 169.83Z" fill="#24126A"/>
<path d="M398.45 171.76L450.57 201.85L452.67 200.64L400.55 170.55L398.45 171.76Z" fill="#24126A"/>
<path d="M463.7 191.88L465.79 193.09L467.89 191.88L465.79 190.67L463.7 191.88Z" fill="#24126A"/>
<path d="M456.3 193.55L460.65 196.06L462.75 194.85L458.39 192.34L456.3 193.55Z" fill="#24126A"/>
<path d="M414.19 199.11L399.54 190.65C398.96 190.32 398.96 189.79 399.54 189.46L409.54 183.67C409.863 183.507 410.219 183.423 410.58 183.423C410.941 183.423 411.297 183.507 411.62 183.67L426.27 192.13C426.397 192.171 426.508 192.251 426.587 192.359C426.666 192.466 426.708 192.596 426.708 192.73C426.708 192.864 426.666 192.994 426.587 193.101C426.508 193.209 426.397 193.289 426.27 193.33L416.27 199.11C415.948 199.274 415.592 199.36 415.23 199.36C414.868 199.36 414.512 199.274 414.19 199.11V199.11Z" fill="url(#paint33_linear_2_4)"/>
<path d="M426.28 192.62L411.63 184.16C411.307 183.997 410.951 183.913 410.59 183.913C410.229 183.913 409.873 183.997 409.55 184.16L399.55 189.95C399.396 190.026 399.27 190.148 399.19 190.3C399.03 190.01 399.19 189.68 399.55 189.46L409.55 183.67C409.873 183.507 410.229 183.423 410.59 183.423C410.951 183.423 411.307 183.507 411.63 183.67L426.28 192.13C426.67 192.36 426.79 192.68 426.64 192.97C426.554 192.823 426.43 192.701 426.28 192.62V192.62Z" fill="#9198DB"/>
<path d="M438.32 123.45L443.47 126.43L443.63 125.53L438.47 122.56L438.32 123.45Z" fill="#42E8E0"/>
<path d="M444.3 126.9L447.11 128.53L447.26 127.63L444.45 126.01L444.3 126.9Z" fill="#42E8E0"/>
<path d="M451.48 131.05L453.51 132.22L453.66 131.32L451.63 130.15L451.48 131.05Z" fill="#42E8E0"/>
<path d="M450 130.19L450.69 130.59L450.84 129.7L450.15 129.3L450 130.19Z" fill="#42E8E0"/>
<path d="M447.95 129.01L449.21 129.74L449.36 128.84L448.1 128.11L447.95 129.01Z" fill="#42E8E0"/>
<path d="M442.4 130.29L444.43 131.47L444.58 130.57L442.55 129.4L442.4 130.29Z" fill="#42E8E0"/>
<path d="M437.63 127.54L441.61 129.84L441.76 128.94L437.78 126.64L437.63 127.54Z" fill="#42E8E0"/>
<path d="M443.34 142.03L447.32 144.33L447.47 143.44L443.49 141.14L443.34 142.03Z" fill="#42E8E0"/>
<path d="M441.29 140.85L442.55 141.58L442.7 140.69L441.44 139.96L441.29 140.85Z" fill="#42E8E0"/>
<path d="M444 137.94L447.98 140.24L448.13 139.35L444.15 137.05L444 137.94Z" fill="#42E8E0"/>
<path d="M441.95 136.76L443.21 137.49L443.37 136.59L442.11 135.87L441.95 136.76Z" fill="#42E8E0"/>
<path d="M440.4 159.69L432.9 155.36L432.75 156.26L440.25 160.59L440.4 159.69Z" fill="#42E8E0"/>
<path d="M443.04 161.22L441.19 160.15L441.04 161.04L442.89 162.11L443.04 161.22Z" fill="#42E8E0"/>
<path d="M456.21 162.09L448.72 157.76L448.57 158.65L456.06 162.98L456.21 162.09Z" fill="#42E8E0"/>
<path d="M458.86 163.62L457 162.54L456.85 163.44L458.7 164.51L458.86 163.62Z" fill="#42E8E0"/>
<path d="M435.28 154.49L433.25 153.32L433.1 154.21L435.13 155.39L435.28 154.49Z" fill="#42E8E0"/>
<path d="M447.64 157.14L445.61 155.97L445.45 156.86L447.49 158.04L447.64 157.14Z" fill="#42E8E0"/>
<path d="M440.05 157.25L436.07 154.95L435.92 155.84L439.89 158.14L440.05 157.25Z" fill="#42E8E0"/>
<path d="M442.09 158.43L440.83 157.7L440.68 158.59L441.94 159.32L442.09 158.43Z" fill="#42E8E0"/>
<path d="M446.9 161.2L442.92 158.9L442.77 159.79L446.75 162.09L446.9 161.2Z" fill="#42E8E0"/>
<path d="M448.94 162.38L447.68 161.66L447.53 162.55L448.79 163.28L448.94 162.38Z" fill="#42E8E0"/>
<path d="M447.29 159.19L445.26 158.01L445.11 158.91L447.14 160.08L447.29 159.19Z" fill="#42E8E0"/>
<path d="M452.06 161.94L448.08 159.64L447.93 160.53L451.9 162.84L452.06 161.94Z" fill="#42E8E0"/>
<path d="M454.1 163.12L452.84 162.4L452.69 163.29L453.95 164.02L454.1 163.12Z" fill="#42E8E0"/>
<path d="M437.75 153.68L433.6 151.28L433.44 152.17L437.6 154.57L437.75 153.68Z" fill="#42E8E0"/>
<path d="M441.54 155.87L438.54 154.13L438.39 155.03L441.39 156.76L441.54 155.87Z" fill="#42E8E0"/>
<path d="M444.36 157.5L442.33 156.32L442.18 157.22L444.21 158.39L444.36 157.5Z" fill="#42E8E0"/>
<path d="M464.05 166.61L459.9 164.21L459.75 165.1L463.9 167.51L464.05 166.61Z" fill="#42E8E0"/>
<path d="M467.85 168.8L464.84 167.07L464.69 167.96L467.69 169.7L467.85 168.8Z" fill="#42E8E0"/>
<path d="M470.66 170.43L468.63 169.26L468.48 170.15L470.51 171.33L470.66 170.43Z" fill="#42E8E0"/>
<path d="M462.43 139.61L466.59 142.01L466.74 141.12L462.58 138.72L462.43 139.61Z" fill="#42E8E0"/>
<path d="M458.64 137.42L461.64 139.16L461.8 138.26L458.79 136.53L458.64 137.42Z" fill="#42E8E0"/>
<path d="M455.82 135.79L457.85 136.97L458 136.07L455.97 134.9L455.82 135.79Z" fill="#42E8E0"/>
<path d="M461.05 136.57L465.21 138.97L465.36 138.07L461.2 135.67L461.05 136.57Z" fill="#42E8E0"/>
<path d="M457.26 134.37L460.26 136.11L460.42 135.22L457.41 133.48L457.26 134.37Z" fill="#42E8E0"/>
<path d="M454.44 132.75L456.47 133.92L456.62 133.03L454.59 131.85L454.44 132.75Z" fill="#42E8E0"/>
<path d="M444.27 140.34L445.68 141.16L445.83 140.26L444.43 139.45L444.27 140.34Z" fill="#42E8E0"/>
<path d="M441.63 138.82L443.49 139.89L443.64 139L441.79 137.92L441.63 138.82Z" fill="#42E8E0"/>
<path d="M438.12 151.65L433.97 149.24L433.82 150.14L437.97 152.54L438.12 151.65Z" fill="#42E8E0"/>
<path d="M441.91 153.84L438.91 152.1L438.76 152.99L441.76 154.73L441.91 153.84Z" fill="#42E8E0"/>
<path d="M444.73 155.47L442.7 154.29L442.55 155.19L444.58 156.36L444.73 155.47Z" fill="#42E8E0"/>
<path d="M435.71 148.01L434.31 147.2L434.16 148.09L435.56 148.91L435.71 148.01Z" fill="#42E8E0"/>
<path d="M438.36 149.54L436.5 148.47L436.35 149.36L438.21 150.43L438.36 149.54Z" fill="#42E8E0"/>
<path d="M442.13 151.72L439.14 149.99L438.99 150.89L441.98 152.62L442.13 151.72Z" fill="#42E8E0"/>
<path d="M446.18 134.71L447.59 135.52L447.74 134.63L446.33 133.82L446.18 134.71Z" fill="#42E8E0"/>
<path d="M443.54 133.18L445.4 134.26L445.55 133.36L443.69 132.29L443.54 133.18Z" fill="#42E8E0"/>
<path d="M439.77 131L442.76 132.73L442.91 131.84L439.92 130.11L439.77 131Z" fill="#42E8E0"/>
<path d="M448.32 138.03L451.31 139.75L451.46 138.86L448.47 137.13L448.32 138.03Z" fill="#42E8E0"/>
<path d="M443.43 135.36L447.46 137.69L447.61 136.8L443.58 134.47L443.43 135.36Z" fill="#42E8E0"/>
<path d="M441.39 134.18L442.65 134.91L442.8 134.01L441.54 133.29L441.39 134.18Z" fill="#42E8E0"/>
<path d="M439.42 133.04L440.68 133.77L440.83 132.88L439.57 132.15L439.42 133.04Z" fill="#42E8E0"/>
<path d="M439.69 144.59L443.67 146.89L443.82 146L439.84 143.7L439.69 144.59Z" fill="#42E8E0"/>
<path d="M437.64 143.41L438.9 144.13L439.06 143.24L437.8 142.51L437.64 143.41Z" fill="#42E8E0"/>
<path d="M439.97 146.99L441.37 147.8L441.52 146.91L440.12 146.1L439.97 146.99Z" fill="#42E8E0"/>
<path d="M444.92 145.36L446.32 146.17L446.48 145.27L445.07 144.46L444.92 145.36Z" fill="#42E8E0"/>
<path d="M446.92 146.51L450.29 148.46L450.44 147.56L447.07 145.62L446.92 146.51Z" fill="#42E8E0"/>
<path d="M450.89 148.8L452.89 149.96L453.04 149.06L451.04 147.91L450.89 148.8Z" fill="#42E8E0"/>
<path d="M437.32 145.47L439.18 146.54L439.33 145.64L437.48 144.57L437.32 145.47Z" fill="#42E8E0"/>
<path d="M437.15 147.56L438.55 148.38L438.7 147.48L437.3 146.67L437.15 147.56Z" fill="#42E8E0"/>
<path d="M434.51 146.04L436.36 147.11L436.51 146.22L434.66 145.14L434.51 146.04Z" fill="#42E8E0"/>
<path d="M442.88 144.18L444.14 144.91L444.3 144.01L443.04 143.29L442.88 144.18Z" fill="#42E8E0"/>
<path d="M440.92 143.04L442.18 143.77L442.33 142.88L441.07 142.15L440.92 143.04Z" fill="#42E8E0"/>
<path d="M450.6 132.78L454.9 135.26L455.05 134.37L450.75 131.88L450.6 132.78Z" fill="#42E8E0"/>
<path d="M445.79 129.99L449.81 132.32L449.96 131.43L445.94 129.1L445.79 129.99Z" fill="#42E8E0"/>
<path d="M443.74 128.81L445 129.54L445.15 128.64L443.89 127.92L443.74 128.81Z" fill="#42E8E0"/>
<path d="M441.77 127.67L443.03 128.4L443.18 127.51L441.92 126.78L441.77 127.67Z" fill="#42E8E0"/>
<path d="M440.7 127.05L437.98 125.48L438.13 124.59L440.85 126.16L440.7 127.05Z" fill="#42E8E0"/>
<path d="M162.56 268.89C161.685 268.893 160.825 268.662 160.07 268.22L85.99 225.44C85.749 225.302 85.5488 225.102 85.4096 224.861C85.2704 224.621 85.1971 224.348 85.1971 224.07C85.1971 223.792 85.2704 223.519 85.4096 223.279C85.5488 223.038 85.749 222.838 85.99 222.7L151.12 185.1L151.45 185.67L86.29 223.27C86.149 223.35 86.0319 223.467 85.9511 223.607C85.8702 223.748 85.8284 223.908 85.83 224.07C85.8273 224.232 85.8687 224.393 85.9497 224.533C86.0306 224.674 86.1483 224.791 86.29 224.87L160.39 267.66C161.049 268.038 161.795 268.237 162.555 268.237C163.315 268.237 164.061 268.038 164.72 267.66L203.12 245.48L203.45 246.05L165.05 268.22C164.294 268.66 163.435 268.892 162.56 268.89V268.89Z" fill="#8686F2"/>
<path style="mix-blend-mode:lighten" d="M127.08 255.169C131.844 253.134 134.056 247.623 132.021 242.859C129.986 238.095 124.475 235.882 119.711 237.917C114.947 239.952 112.734 245.464 114.769 250.228C116.804 254.992 122.316 257.204 127.08 255.169Z" fill="url(#paint34_radial_2_4)"/>
<path d="M125.58 245.28C125.326 244.844 124.948 244.492 124.495 244.271C124.041 244.05 123.532 243.968 123.031 244.036C122.531 244.104 122.062 244.32 121.684 244.655C121.307 244.99 121.037 245.429 120.909 245.918C120.781 246.406 120.801 246.921 120.967 247.398C121.132 247.875 121.436 248.293 121.839 248.597C122.241 248.901 122.726 249.079 123.23 249.108C123.734 249.137 124.235 249.016 124.67 248.76C125.251 248.418 125.673 247.86 125.843 247.208C126.014 246.556 125.919 245.863 125.58 245.28V245.28Z" fill="url(#paint35_radial_2_4)"/>
<path style="mix-blend-mode:lighten" d="M193.633 261.671C198.397 259.636 200.609 254.124 198.574 249.36C196.539 244.596 191.028 242.384 186.264 244.419C181.499 246.454 179.287 251.966 181.322 256.73C183.357 261.494 188.869 263.706 193.633 261.671Z" fill="url(#paint36_radial_2_4)"/>
<path d="M192.15 251.78C191.897 251.343 191.52 250.991 191.067 250.769C190.614 250.547 190.105 250.464 189.605 250.531C189.104 250.598 188.635 250.812 188.257 251.146C187.878 251.48 187.607 251.919 187.478 252.407C187.349 252.895 187.368 253.41 187.532 253.887C187.696 254.364 187.998 254.782 188.4 255.088C188.802 255.394 189.285 255.573 189.789 255.604C190.293 255.634 190.794 255.515 191.23 255.26C191.813 254.92 192.236 254.362 192.409 253.71C192.581 253.058 192.488 252.364 192.15 251.78V251.78Z" fill="url(#paint37_radial_2_4)"/>
<path style="mix-blend-mode:lighten" d="M307.829 260.915C312.593 258.88 314.805 253.369 312.77 248.605C310.735 243.841 305.224 241.628 300.46 243.663C295.696 245.698 293.484 251.21 295.518 255.974C297.553 260.738 303.065 262.95 307.829 260.915Z" fill="url(#paint38_radial_2_4)"/>
<path d="M306.33 251C306.076 250.564 305.698 250.212 305.244 249.991C304.791 249.77 304.281 249.688 303.781 249.756C303.281 249.824 302.812 250.04 302.434 250.375C302.057 250.71 301.787 251.149 301.659 251.638C301.531 252.126 301.551 252.641 301.717 253.118C301.882 253.595 302.186 254.013 302.589 254.317C302.991 254.621 303.475 254.799 303.98 254.828C304.484 254.857 304.985 254.736 305.42 254.48C306.001 254.138 306.423 253.58 306.593 252.928C306.764 252.276 306.669 251.583 306.33 251V251Z" fill="url(#paint39_radial_2_4)"/>
<path style="mix-blend-mode:lighten" d="M324.5 254.77C323.566 253.167 322.177 251.876 320.509 251.063C318.841 250.249 316.969 249.948 315.131 250.198C313.292 250.448 311.568 251.239 310.179 252.469C308.789 253.698 307.796 255.313 307.324 257.108C306.852 258.903 306.923 260.797 307.528 262.551C308.133 264.306 309.245 265.841 310.723 266.963C312.202 268.085 313.979 268.744 315.832 268.856C317.684 268.967 319.528 268.527 321.13 267.59C323.276 266.336 324.835 264.281 325.467 261.877C326.099 259.474 325.751 256.917 324.5 254.77V254.77Z" fill="url(#paint40_radial_2_4)"/>
<path d="M316.41 262.05C317.818 262.05 318.96 260.908 318.96 259.5C318.96 258.092 317.818 256.95 316.41 256.95C315.002 256.95 313.86 258.092 313.86 259.5C313.86 260.908 315.002 262.05 316.41 262.05Z" fill="url(#paint41_radial_2_4)"/>
<path style="mix-blend-mode:lighten" d="M387.439 248.571C392.093 246.296 394.022 240.679 391.747 236.025C389.472 231.371 383.854 229.442 379.2 231.717C374.546 233.992 372.617 239.609 374.892 244.263C377.167 248.918 382.785 250.846 387.439 248.571Z" fill="url(#paint42_radial_2_4)"/>
<path d="M385.52 238.84C385.267 238.403 384.89 238.051 384.437 237.829C383.984 237.607 383.475 237.524 382.975 237.591C382.474 237.658 382.005 237.872 381.627 238.206C381.248 238.54 380.977 238.979 380.848 239.467C380.719 239.955 380.738 240.47 380.902 240.947C381.066 241.424 381.368 241.842 381.77 242.148C382.172 242.454 382.655 242.633 383.159 242.664C383.663 242.694 384.164 242.575 384.6 242.32C385.183 241.98 385.606 241.422 385.779 240.77C385.951 240.118 385.858 239.424 385.52 238.84V238.84Z" fill="url(#paint43_radial_2_4)"/>
<path style="mix-blend-mode:lighten" d="M407.2 212.22C406.264 210.618 404.873 209.33 403.205 208.519C401.536 207.707 399.664 207.409 397.826 207.662C395.988 207.914 394.266 208.706 392.878 209.937C391.49 211.168 390.498 212.783 390.028 214.578C389.558 216.373 389.631 218.267 390.238 220.02C390.844 221.774 391.957 223.308 393.435 224.429C394.914 225.55 396.691 226.207 398.543 226.318C400.395 226.428 402.239 225.987 403.84 225.05C404.904 224.429 405.835 223.604 406.58 222.623C407.324 221.642 407.868 220.523 408.18 219.332C408.493 218.14 408.567 216.899 408.398 215.678C408.23 214.458 407.823 213.283 407.2 212.22V212.22Z" fill="url(#paint44_radial_2_4)"/>
<path d="M401.31 215.67C401.056 215.235 400.678 214.884 400.225 214.663C399.772 214.443 399.263 214.361 398.764 214.429C398.264 214.497 397.796 214.712 397.418 215.046C397.041 215.38 396.771 215.818 396.642 216.306C396.514 216.793 396.532 217.308 396.696 217.785C396.86 218.261 397.162 218.679 397.563 218.984C397.964 219.29 398.447 219.47 398.95 219.501C399.453 219.532 399.954 219.413 400.39 219.16C400.68 218.991 400.933 218.767 401.137 218.501C401.34 218.234 401.488 217.93 401.574 217.606C401.659 217.282 401.68 216.944 401.635 216.612C401.589 216.279 401.479 215.959 401.31 215.67V215.67Z" fill="url(#paint45_radial_2_4)"/>
<path style="mix-blend-mode:lighten" d="M392.76 203.71C391.824 202.11 390.436 200.824 388.769 200.014C387.103 199.203 385.233 198.905 383.397 199.158C381.561 199.41 379.841 200.2 378.455 201.43C377.068 202.659 376.078 204.272 375.608 206.065C375.138 207.857 375.21 209.749 375.816 211.501C376.421 213.252 377.532 214.785 379.008 215.905C380.484 217.025 382.259 217.682 384.109 217.794C385.959 217.905 387.8 217.465 389.4 216.53C390.463 215.91 391.394 215.086 392.139 214.106C392.884 213.125 393.427 212.008 393.74 210.817C394.052 209.626 394.126 208.385 393.958 207.166C393.79 205.946 393.383 204.772 392.76 203.71Z" fill="url(#paint46_radial_2_4)"/>
<path d="M386.87 207.15C386.615 206.715 386.236 206.365 385.783 206.145C385.329 205.925 384.82 205.845 384.32 205.914C383.821 205.983 383.353 206.199 382.976 206.534C382.599 206.869 382.33 207.309 382.203 207.797C382.076 208.285 382.096 208.799 382.261 209.276C382.427 209.752 382.729 210.169 383.132 210.473C383.534 210.778 384.017 210.956 384.521 210.986C385.024 211.015 385.525 210.895 385.96 210.64C386.542 210.296 386.963 209.736 387.134 209.082C387.304 208.429 387.21 207.734 386.87 207.15V207.15Z" fill="url(#paint47_radial_2_4)"/>
<path style="mix-blend-mode:lighten" d="M378.33 195.78C377.392 194.179 376 192.892 374.33 192.083C372.66 191.273 370.788 190.977 368.95 191.232C367.112 191.487 365.39 192.281 364.004 193.514C362.617 194.747 361.628 196.364 361.16 198.16C360.693 199.956 360.768 201.85 361.377 203.603C361.987 205.355 363.102 206.888 364.583 208.007C366.063 209.126 367.842 209.78 369.695 209.887C371.547 209.995 373.39 209.55 374.99 208.61C377.133 207.351 378.689 205.292 379.315 202.886C379.941 200.481 379.587 197.925 378.33 195.78V195.78Z" fill="url(#paint48_radial_2_4)"/>
<path d="M372.43 199.23C372.175 198.795 371.796 198.445 371.343 198.225C370.889 198.005 370.38 197.925 369.88 197.994C369.381 198.063 368.913 198.279 368.536 198.614C368.159 198.949 367.89 199.389 367.763 199.877C367.636 200.365 367.656 200.879 367.821 201.356C367.987 201.832 368.289 202.249 368.692 202.553C369.094 202.858 369.577 203.036 370.081 203.066C370.584 203.095 371.085 202.975 371.52 202.72C372.102 202.376 372.523 201.816 372.694 201.162C372.864 200.509 372.77 199.814 372.43 199.23V199.23Z" fill="url(#paint49_radial_2_4)"/>
<path style="mix-blend-mode:lighten" d="M119.81 235C118.874 233.398 117.483 232.11 115.815 231.299C114.146 230.487 112.274 230.189 110.436 230.442C108.598 230.694 106.876 231.486 105.488 232.717C104.1 233.948 103.109 235.563 102.638 237.358C102.168 239.153 102.241 241.047 102.848 242.8C103.454 244.554 104.567 246.088 106.045 247.209C107.524 248.33 109.301 248.987 111.153 249.098C113.005 249.208 114.849 248.767 116.45 247.83C118.597 246.574 120.156 244.517 120.786 242.111C121.417 239.705 121.065 237.147 119.81 235Z" fill="url(#paint50_radial_2_4)"/>
<path d="M111.72 242.32C113.128 242.32 114.27 241.178 114.27 239.77C114.27 238.362 113.128 237.22 111.72 237.22C110.312 237.22 109.17 238.362 109.17 239.77C109.17 241.178 110.312 242.32 111.72 242.32Z" fill="url(#paint51_radial_2_4)"/>
<path style="mix-blend-mode:lighten" d="M109.128 235.358C110.442 230.347 107.445 225.22 102.434 223.906C97.4225 222.592 92.2952 225.59 90.9815 230.601C89.6678 235.612 92.6651 240.739 97.6762 242.053C102.687 243.366 107.815 240.369 109.128 235.358Z" fill="url(#paint52_radial_2_4)"/>
<path d="M102.25 231.7C101.996 231.264 101.618 230.912 101.165 230.691C100.711 230.47 100.201 230.388 99.7012 230.456C99.201 230.524 98.7322 230.74 98.3544 231.075C97.9766 231.41 97.7068 231.849 97.579 232.338C97.4513 232.826 97.4715 233.341 97.6369 233.818C97.8024 234.295 98.1058 234.713 98.5086 235.017C98.9114 235.321 99.3955 235.499 99.8996 235.528C100.404 235.557 100.905 235.436 101.34 235.18C101.921 234.838 102.343 234.28 102.513 233.628C102.684 232.976 102.589 232.283 102.25 231.7V231.7Z" fill="url(#paint53_radial_2_4)"/>
<path style="mix-blend-mode:lighten" d="M136.48 193.25C135.543 191.652 134.154 190.367 132.487 189.558C130.821 188.749 128.952 188.453 127.116 188.706C125.281 188.959 123.562 189.75 122.177 190.98C120.791 192.209 119.801 193.822 119.332 195.614C118.862 197.406 118.935 199.297 119.54 201.048C120.145 202.799 121.255 204.331 122.731 205.451C124.207 206.571 125.981 207.229 127.83 207.341C129.679 207.453 131.52 207.014 133.12 206.08C134.184 205.459 135.115 204.634 135.86 203.653C136.604 202.672 137.148 201.553 137.46 200.362C137.773 199.17 137.847 197.929 137.678 196.708C137.51 195.488 137.103 194.313 136.48 193.25V193.25Z" fill="url(#paint54_radial_2_4)"/>
<path d="M130.59 196.7C130.336 196.264 129.958 195.912 129.505 195.691C129.051 195.47 128.541 195.388 128.041 195.456C127.541 195.524 127.072 195.74 126.694 196.075C126.317 196.41 126.047 196.849 125.919 197.338C125.791 197.826 125.811 198.341 125.977 198.818C126.142 199.295 126.446 199.713 126.849 200.017C127.251 200.321 127.735 200.499 128.24 200.528C128.744 200.557 129.245 200.436 129.68 200.18C130.261 199.838 130.683 199.28 130.853 198.628C131.024 197.976 130.929 197.283 130.59 196.7V196.7Z" fill="url(#paint55_radial_2_4)"/>
<path style="mix-blend-mode:lighten" d="M148.99 186.7C148.056 185.097 146.667 183.806 144.999 182.993C143.331 182.179 141.459 181.878 139.621 182.128C137.782 182.378 136.058 183.169 134.669 184.399C133.279 185.628 132.286 187.243 131.814 189.038C131.342 190.833 131.413 192.727 132.018 194.481C132.624 196.236 133.735 197.771 135.214 198.893C136.692 200.015 138.469 200.674 140.322 200.786C142.174 200.897 144.018 200.457 145.62 199.52C147.766 198.266 149.326 196.211 149.957 193.807C150.589 191.404 150.241 188.847 148.99 186.7V186.7Z" fill="url(#paint56_radial_2_4)"/>
<path d="M143.05 190.14C142.795 189.705 142.416 189.355 141.963 189.135C141.509 188.915 141 188.835 140.5 188.904C140.001 188.973 139.533 189.189 139.156 189.524C138.779 189.859 138.51 190.299 138.383 190.787C138.256 191.275 138.276 191.789 138.441 192.266C138.607 192.742 138.91 193.159 139.312 193.463C139.714 193.768 140.197 193.946 140.701 193.976C141.204 194.005 141.705 193.885 142.14 193.63C142.722 193.286 143.143 192.726 143.314 192.072C143.484 191.419 143.39 190.724 143.05 190.14V190.14Z" fill="url(#paint57_radial_2_4)"/>
<defs>
<linearGradient id="paint0_linear_2_4" x1="332.275" y1="152.938" x2="352.264" y2="118.157" gradientUnits="userSpaceOnUse">
<stop stop-color="#42E8E0"/>
<stop offset="0.02" stop-color="#40DEDA"/>
<stop offset="0.11" stop-color="#37ADBC"/>
<stop offset="0.22" stop-color="#2E82A2"/>
<stop offset="0.32" stop-color="#285E8C"/>
<stop offset="0.43" stop-color="#22417A"/>
<stop offset="0.55" stop-color="#1E2A6C"/>
<stop offset="0.67" stop-color="#1A1A63"/>
<stop offset="0.81" stop-color="#19105D"/>
<stop offset="1" stop-color="#180D5B"/>
</linearGradient>
<linearGradient id="paint1_linear_2_4" x1="309.503" y1="152.322" x2="289.325" y2="117.533" gradientUnits="userSpaceOnUse">
<stop stop-color="#42E8E0"/>
<stop offset="0.02" stop-color="#40DEDA"/>
<stop offset="0.11" stop-color="#37ADBC"/>
<stop offset="0.22" stop-color="#2E82A2"/>
<stop offset="0.32" stop-color="#285E8C"/>
<stop offset="0.43" stop-color="#22417A"/>
<stop offset="0.55" stop-color="#1E2A6C"/>
<stop offset="0.67" stop-color="#1A1A63"/>
<stop offset="0.81" stop-color="#19105D"/>
<stop offset="1" stop-color="#180D5B"/>
</linearGradient>
<linearGradient id="paint2_linear_2_4" x1="307.468" y1="165.075" x2="287.479" y2="199.857" gradientUnits="userSpaceOnUse">
<stop stop-color="#42E8E0"/>
<stop offset="0.02" stop-color="#40DEDA"/>
<stop offset="0.11" stop-color="#37ADBC"/>
<stop offset="0.22" stop-color="#2E82A2"/>
<stop offset="0.32" stop-color="#285E8C"/>
<stop offset="0.43" stop-color="#22417A"/>
<stop offset="0.55" stop-color="#1E2A6C"/>
<stop offset="0.67" stop-color="#1A1A63"/>
<stop offset="0.81" stop-color="#19105D"/>
<stop offset="1" stop-color="#180D5B"/>
</linearGradient>
<linearGradient id="paint3_linear_2_4" x1="330.25" y1="165.691" x2="350.424" y2="200.474" gradientUnits="userSpaceOnUse">
<stop stop-color="#42E8E0"/>
<stop offset="0.02" stop-color="#40DEDA"/>
<stop offset="0.11" stop-color="#37ADBC"/>
<stop offset="0.22" stop-color="#2E82A2"/>
<stop offset="0.32" stop-color="#285E8C"/>
<stop offset="0.43" stop-color="#22417A"/>
<stop offset="0.55" stop-color="#1E2A6C"/>
<stop offset="0.67" stop-color="#1A1A63"/>
<stop offset="0.81" stop-color="#19105D"/>
<stop offset="1" stop-color="#180D5B"/>
</linearGradient>
<linearGradient id="paint4_linear_2_4" x1="177.673" y1="153.138" x2="197.662" y2="118.357" gradientUnits="userSpaceOnUse">
<stop stop-color="#42E8E0"/>
<stop offset="0.02" stop-color="#40DEDA"/>
<stop offset="0.11" stop-color="#37ADBC"/>
<stop offset="0.22" stop-color="#2E82A2"/>
<stop offset="0.32" stop-color="#285E8C"/>
<stop offset="0.43" stop-color="#22417A"/>
<stop offset="0.55" stop-color="#1E2A6C"/>
<stop offset="0.67" stop-color="#1A1A63"/>
<stop offset="0.81" stop-color="#19105D"/>
<stop offset="1" stop-color="#180D5B"/>
</linearGradient>
<linearGradient id="paint5_linear_2_4" x1="154.9" y1="152.522" x2="134.722" y2="117.732" gradientUnits="userSpaceOnUse">
<stop stop-color="#42E8E0"/>
<stop offset="0.02" stop-color="#40DEDA"/>
<stop offset="0.11" stop-color="#37ADBC"/>
<stop offset="0.22" stop-color="#2E82A2"/>
<stop offset="0.32" stop-color="#285E8C"/>
<stop offset="0.43" stop-color="#22417A"/>
<stop offset="0.55" stop-color="#1E2A6C"/>
<stop offset="0.67" stop-color="#1A1A63"/>
<stop offset="0.81" stop-color="#19105D"/>
<stop offset="1" stop-color="#180D5B"/>
</linearGradient>
<linearGradient id="paint6_linear_2_4" x1="152.866" y1="165.275" x2="132.876" y2="200.056" gradientUnits="userSpaceOnUse">
<stop stop-color="#42E8E0"/>
<stop offset="0.02" stop-color="#40DEDA"/>
<stop offset="0.11" stop-color="#37ADBC"/>
<stop offset="0.22" stop-color="#2E82A2"/>
<stop offset="0.32" stop-color="#285E8C"/>
<stop offset="0.43" stop-color="#22417A"/>
<stop offset="0.55" stop-color="#1E2A6C"/>
<stop offset="0.67" stop-color="#1A1A63"/>
<stop offset="0.81" stop-color="#19105D"/>
<stop offset="1" stop-color="#180D5B"/>
</linearGradient>
<linearGradient id="paint7_linear_2_4" x1="175.658" y1="165.885" x2="195.836" y2="200.675" gradientUnits="userSpaceOnUse">
<stop stop-color="#42E8E0"/>
<stop offset="0.02" stop-color="#40DEDA"/>
<stop offset="0.11" stop-color="#37ADBC"/>
<stop offset="0.22" stop-color="#2E82A2"/>
<stop offset="0.32" stop-color="#285E8C"/>
<stop offset="0.43" stop-color="#22417A"/>
<stop offset="0.55" stop-color="#1E2A6C"/>
<stop offset="0.67" stop-color="#1A1A63"/>
<stop offset="0.81" stop-color="#19105D"/>
<stop offset="1" stop-color="#180D5B"/>
</linearGradient>
<linearGradient id="paint8_linear_2_4" x1="113.28" y1="171.99" x2="211.76" y2="171.99" gradientUnits="userSpaceOnUse">
<stop stop-color="#5761D7"/>
<stop offset="0.16" stop-color="#5E67DA"/>
<stop offset="0.41" stop-color="#727AE2"/>
<stop offset="0.69" stop-color="#9297EE"/>
<stop offset="1" stop-color="#BCBEFF"/>
</linearGradient>
<linearGradient id="paint9_linear_2_4" x1="141.15" y1="158.68" x2="200.26" y2="158.68" gradientUnits="userSpaceOnUse">
<stop stop-color="#42E8E0"/>
<stop offset="0.15" stop-color="#43E3E0"/>
<stop offset="0.33" stop-color="#45D5DF"/>
<stop offset="0.52" stop-color="#49BDDD"/>
<stop offset="0.72" stop-color="#4E9CDB"/>
<stop offset="0.93" stop-color="#5472D8"/>
<stop offset="1" stop-color="#5761D7"/>
</linearGradient>
<linearGradient id="paint10_linear_2_4" x1="170.7" y1="148" x2="200.26" y2="148" gradientUnits="userSpaceOnUse">
<stop stop-color="#42E8E0"/>
<stop offset="0.15" stop-color="#43E3E0"/>
<stop offset="0.33" stop-color="#45D5DF"/>
<stop offset="0.52" stop-color="#49BDDD"/>
<stop offset="0.72" stop-color="#4E9CDB"/>
<stop offset="0.93" stop-color="#5472D8"/>
<stop offset="1" stop-color="#5761D7"/>
</linearGradient>
<linearGradient id="paint11_linear_2_4" x1="141.15" y1="148" x2="170.7" y2="148" gradientUnits="userSpaceOnUse">
<stop stop-color="#42E8E0"/>
<stop offset="0.15" stop-color="#43E3E0"/>
<stop offset="0.33" stop-color="#45D5DF"/>
<stop offset="0.52" stop-color="#49BDDD"/>
<stop offset="0.72" stop-color="#4E9CDB"/>
<stop offset="0.93" stop-color="#5472D8"/>
<stop offset="1" stop-color="#5761D7"/>
</linearGradient>
<linearGradient id="paint12_linear_2_4" x1="141.15" y1="154.38" x2="200.26" y2="154.38" gradientUnits="userSpaceOnUse">
<stop stop-color="#42E8E0"/>
<stop offset="0.15" stop-color="#43E3E0"/>
<stop offset="0.33" stop-color="#45D5DF"/>
<stop offset="0.52" stop-color="#49BDDD"/>
<stop offset="0.72" stop-color="#4E9CDB"/>
<stop offset="0.93" stop-color="#5472D8"/>
<stop offset="1" stop-color="#5761D7"/>
</linearGradient>
<linearGradient id="paint13_linear_2_4" x1="170.7" y1="165.06" x2="200.26" y2="165.06" gradientUnits="userSpaceOnUse">
<stop stop-color="#42E8E0"/>
<stop offset="0.15" stop-color="#43E3E0"/>
<stop offset="0.33" stop-color="#45D5DF"/>
<stop offset="0.52" stop-color="#49BDDD"/>
<stop offset="0.72" stop-color="#4E9CDB"/>
<stop offset="0.93" stop-color="#5472D8"/>
<stop offset="1" stop-color="#5761D7"/>
</linearGradient>
<linearGradient id="paint14_linear_2_4" x1="141.15" y1="165.06" x2="170.7" y2="165.06" gradientUnits="userSpaceOnUse">
<stop stop-color="#42E8E0"/>
<stop offset="0.15" stop-color="#43E3E0"/>
<stop offset="0.33" stop-color="#45D5DF"/>
<stop offset="0.52" stop-color="#49BDDD"/>
<stop offset="0.72" stop-color="#4E9CDB"/>
<stop offset="0.93" stop-color="#5472D8"/>
<stop offset="1" stop-color="#5761D7"/>
</linearGradient>
<linearGradient id="paint15_linear_2_4" x1="267.31" y1="171.99" x2="365.79" y2="171.99" gradientUnits="userSpaceOnUse">
<stop stop-color="#5761D7"/>
<stop offset="0.16" stop-color="#5E67DA"/>
<stop offset="0.41" stop-color="#727AE2"/>
<stop offset="0.69" stop-color="#9297EE"/>
<stop offset="1" stop-color="#BCBEFF"/>
</linearGradient>
<linearGradient id="paint16_linear_2_4" x1="295.18" y1="158.68" x2="354.29" y2="158.68" gradientUnits="userSpaceOnUse">
<stop stop-color="#42E8E0"/>
<stop offset="0.15" stop-color="#43E3E0"/>
<stop offset="0.33" stop-color="#45D5DF"/>
<stop offset="0.52" stop-color="#49BDDD"/>
<stop offset="0.72" stop-color="#4E9CDB"/>
<stop offset="0.93" stop-color="#5472D8"/>
<stop offset="1" stop-color="#5761D7"/>
</linearGradient>
<linearGradient id="paint17_linear_2_4" x1="324.73" y1="148" x2="354.29" y2="148" gradientUnits="userSpaceOnUse">
<stop stop-color="#42E8E0"/>
<stop offset="0.15" stop-color="#43E3E0"/>
<stop offset="0.33" stop-color="#45D5DF"/>
<stop offset="0.52" stop-color="#49BDDD"/>
<stop offset="0.72" stop-color="#4E9CDB"/>
<stop offset="0.93" stop-color="#5472D8"/>
<stop offset="1" stop-color="#5761D7"/>
</linearGradient>
<linearGradient id="paint18_linear_2_4" x1="295.18" y1="148" x2="324.73" y2="148" gradientUnits="userSpaceOnUse">
<stop stop-color="#42E8E0"/>
<stop offset="0.15" stop-color="#43E3E0"/>
<stop offset="0.33" stop-color="#45D5DF"/>
<stop offset="0.52" stop-color="#49BDDD"/>
<stop offset="0.72" stop-color="#4E9CDB"/>
<stop offset="0.93" stop-color="#5472D8"/>
<stop offset="1" stop-color="#5761D7"/>
</linearGradient>
<linearGradient id="paint19_linear_2_4" x1="295.18" y1="154.38" x2="354.29" y2="154.38" gradientUnits="userSpaceOnUse">
<stop stop-color="#42E8E0"/>
<stop offset="0.15" stop-color="#43E3E0"/>
<stop offset="0.33" stop-color="#45D5DF"/>
<stop offset="0.52" stop-color="#49BDDD"/>
<stop offset="0.72" stop-color="#4E9CDB"/>
<stop offset="0.93" stop-color="#5472D8"/>
<stop offset="1" stop-color="#5761D7"/>
</linearGradient>
<linearGradient id="paint20_linear_2_4" x1="324.73" y1="165.06" x2="354.29" y2="165.06" gradientUnits="userSpaceOnUse">
<stop stop-color="#42E8E0"/>
<stop offset="0.15" stop-color="#43E3E0"/>
<stop offset="0.33" stop-color="#45D5DF"/>
<stop offset="0.52" stop-color="#49BDDD"/>
<stop offset="0.72" stop-color="#4E9CDB"/>
<stop offset="0.93" stop-color="#5472D8"/>
<stop offset="1" stop-color="#5761D7"/>
</linearGradient>
<linearGradient id="paint21_linear_2_4" x1="295.18" y1="165.06" x2="324.73" y2="165.06" gradientUnits="userSpaceOnUse">
<stop stop-color="#42E8E0"/>
<stop offset="0.15" stop-color="#43E3E0"/>
<stop offset="0.33" stop-color="#45D5DF"/>
<stop offset="0.52" stop-color="#49BDDD"/>
<stop offset="0.72" stop-color="#4E9CDB"/>
<stop offset="0.93" stop-color="#5472D8"/>
<stop offset="1" stop-color="#5761D7"/>
</linearGradient>
<linearGradient id="paint22_linear_2_4" x1="281.96" y1="217.06" x2="281.96" y2="72.94" gradientUnits="userSpaceOnUse">
<stop stop-color="#C0BFF6"/>
<stop offset="0.29" stop-color="#C5C4F7"/>
<stop offset="0.64" stop-color="#D3D2F9"/>
<stop offset="1" stop-color="#E9E9FD"/>
</linearGradient>
<linearGradient id="paint23_linear_2_4" x1="281.96" y1="87.41" x2="281.96" y2="40.74" gradientUnits="userSpaceOnUse">
<stop stop-color="#C0BFF6"/>
<stop offset="0.29" stop-color="#C5C4F7"/>
<stop offset="0.64" stop-color="#D3D2F9"/>
<stop offset="1" stop-color="#E9E9FD"/>
</linearGradient>
<linearGradient id="paint24_linear_2_4" x1="0.990015" y1="147.3" x2="77.29" y2="147.3" gradientUnits="userSpaceOnUse">
<stop stop-color="#C0BFF6"/>
<stop offset="0.29" stop-color="#C5C4F7"/>
<stop offset="0.64" stop-color="#D3D2F9"/>
<stop offset="1" stop-color="#E9E9FD"/>
</linearGradient>
<linearGradient id="paint25_linear_2_4" x1="0.990008" y1="166.87" x2="14.09" y2="166.87" gradientUnits="userSpaceOnUse">
<stop stop-color="#5761D7"/>
<stop offset="0.18" stop-color="#5C66D9"/>
<stop offset="0.39" stop-color="#6A73DF"/>
<stop offset="0.61" stop-color="#8289E8"/>
<stop offset="0.85" stop-color="#A3A7F5"/>
<stop offset="1" stop-color="#BCBEFF"/>
</linearGradient>
<linearGradient id="paint26_linear_2_4" x1="11.21" y1="188.86" x2="118.98" y2="188.86" gradientUnits="userSpaceOnUse">
<stop stop-color="#5761D7"/>
<stop offset="0.18" stop-color="#5C66D9"/>
<stop offset="0.39" stop-color="#6A73DF"/>
<stop offset="0.61" stop-color="#8289E8"/>
<stop offset="0.85" stop-color="#A3A7F5"/>
<stop offset="1" stop-color="#BCBEFF"/>
</linearGradient>
<linearGradient id="paint27_linear_2_4" x1="47.42" y1="185.27" x2="155.24" y2="185.27" gradientUnits="userSpaceOnUse">
<stop stop-color="#C0BFF6"/>
<stop offset="0.29" stop-color="#C5C4F7"/>
<stop offset="0.64" stop-color="#D3D2F9"/>
<stop offset="1" stop-color="#E9E9FD"/>
</linearGradient>
<linearGradient id="paint28_linear_2_4" x1="65.68" y1="191.39" x2="93.28" y2="191.39" gradientUnits="userSpaceOnUse">
<stop stop-color="#C0BFF6"/>
<stop offset="0.29" stop-color="#C5C4F7"/>
<stop offset="0.64" stop-color="#D3D2F9"/>
<stop offset="1" stop-color="#E9E9FD"/>
</linearGradient>
<linearGradient id="paint29_linear_2_4" x1="491.4" y1="147.3" x2="415.1" y2="147.3" gradientUnits="userSpaceOnUse">
<stop stop-color="#C0BFF6"/>
<stop offset="0.29" stop-color="#C5C4F7"/>
<stop offset="0.64" stop-color="#D3D2F9"/>
<stop offset="1" stop-color="#E9E9FD"/>
</linearGradient>
<linearGradient id="paint30_linear_2_4" x1="491.4" y1="166.87" x2="478.3" y2="166.87" gradientUnits="userSpaceOnUse">
<stop stop-color="#5761D7"/>
<stop offset="0.18" stop-color="#5C66D9"/>
<stop offset="0.39" stop-color="#6A73DF"/>
<stop offset="0.61" stop-color="#8289E8"/>
<stop offset="0.85" stop-color="#A3A7F5"/>
<stop offset="1" stop-color="#BCBEFF"/>
</linearGradient>
<linearGradient id="paint31_linear_2_4" x1="481.18" y1="188.86" x2="373.41" y2="188.86" gradientUnits="userSpaceOnUse">
<stop stop-color="#5761D7"/>
<stop offset="0.18" stop-color="#5C66D9"/>
<stop offset="0.39" stop-color="#6A73DF"/>
<stop offset="0.61" stop-color="#8289E8"/>
<stop offset="0.85" stop-color="#A3A7F5"/>
<stop offset="1" stop-color="#BCBEFF"/>
</linearGradient>
<linearGradient id="paint32_linear_2_4" x1="444.97" y1="185.27" x2="337.15" y2="185.27" gradientUnits="userSpaceOnUse">
<stop stop-color="#C0BFF6"/>
<stop offset="0.29" stop-color="#C5C4F7"/>
<stop offset="0.64" stop-color="#D3D2F9"/>
<stop offset="1" stop-color="#E9E9FD"/>
</linearGradient>
<linearGradient id="paint33_linear_2_4" x1="426.71" y1="191.39" x2="399.11" y2="191.39" gradientUnits="userSpaceOnUse">
<stop stop-color="#C0BFF6"/>
<stop offset="0.29" stop-color="#C5C4F7"/>
<stop offset="0.64" stop-color="#D3D2F9"/>
<stop offset="1" stop-color="#E9E9FD"/>
</linearGradient>
<radialGradient id="paint34_radial_2_4" cx="0" cy="0" r="1" gradientUnits="userSpaceOnUse" gradientTransform="translate(120.371 246.406) rotate(-30.6109) scale(9.36592)">
<stop stop-color="#41E5DE"/>
<stop offset="0.06" stop-color="#39B8C3"/>
<stop offset="0.13" stop-color="#3190AA"/>
<stop offset="0.2" stop-color="#2A6C95"/>
<stop offset="0.27" stop-color="#254E83"/>
<stop offset="0.36" stop-color="#203674"/>
<stop offset="0.45" stop-color="#1C2469"/>
<stop offset="0.56" stop-color="#1A1761"/>
<stop offset="0.7" stop-color="#180F5C"/>
<stop offset="1" stop-color="#180D5B"/>
</radialGradient>
<radialGradient id="paint35_radial_2_4" cx="0" cy="0" r="1" gradientUnits="userSpaceOnUse" gradientTransform="translate(123.693 249.771) rotate(-30.1736) scale(2.53671)">
<stop stop-color="#42E8E0"/>
<stop offset="1" stop-color="#42E8E0"/>
</radialGradient>
<radialGradient id="paint36_radial_2_4" cx="0" cy="0" r="1" gradientUnits="userSpaceOnUse" gradientTransform="translate(186.867 252.556) rotate(-30.6109) scale(9.36592)">
<stop stop-color="#41E5DE"/>
<stop offset="0.06" stop-color="#39B8C3"/>
<stop offset="0.13" stop-color="#3190AA"/>
<stop offset="0.2" stop-color="#2A6C95"/>
<stop offset="0.27" stop-color="#254E83"/>
<stop offset="0.36" stop-color="#203674"/>
<stop offset="0.45" stop-color="#1C2469"/>
<stop offset="0.56" stop-color="#1A1761"/>
<stop offset="0.7" stop-color="#180F5C"/>
<stop offset="1" stop-color="#180D5B"/>
</radialGradient>
<radialGradient id="paint37_radial_2_4" cx="0" cy="0" r="1" gradientUnits="userSpaceOnUse" gradientTransform="translate(189.893 256.401) rotate(-30.1736) scale(2.5367)">
<stop stop-color="#42E8E0"/>
<stop offset="1" stop-color="#42E8E0"/>
</radialGradient>
<radialGradient id="paint38_radial_2_4" cx="0" cy="0" r="1" gradientUnits="userSpaceOnUse" gradientTransform="translate(300.884 251.209) rotate(-30.6109) scale(9.36591)">
<stop stop-color="#41E5DE"/>
<stop offset="0.06" stop-color="#39B8C3"/>
<stop offset="0.13" stop-color="#3190AA"/>
<stop offset="0.2" stop-color="#2A6C95"/>
<stop offset="0.27" stop-color="#254E83"/>
<stop offset="0.36" stop-color="#203674"/>
<stop offset="0.45" stop-color="#1C2469"/>
<stop offset="0.56" stop-color="#1A1761"/>
<stop offset="0.7" stop-color="#180F5C"/>
<stop offset="1" stop-color="#180D5B"/>
</radialGradient>
<radialGradient id="paint39_radial_2_4" cx="0" cy="0" r="1" gradientUnits="userSpaceOnUse" gradientTransform="translate(303.489 255.924) rotate(-30.1736) scale(2.5367)">
<stop stop-color="#42E8E0"/>
<stop offset="1" stop-color="#42E8E0"/>
</radialGradient>
<radialGradient id="paint40_radial_2_4" cx="0" cy="0" r="1" gradientUnits="userSpaceOnUse" gradientTransform="translate(315.683 263.103) rotate(-30.1735) scale(9.3311)">
<stop stop-color="#41E5DE"/>
<stop offset="0.06" stop-color="#39B8C3"/>
<stop offset="0.13" stop-color="#3190AA"/>
<stop offset="0.2" stop-color="#2A6C95"/>
<stop offset="0.27" stop-color="#254E83"/>
<stop offset="0.36" stop-color="#203674"/>
<stop offset="0.45" stop-color="#1C2469"/>
<stop offset="0.56" stop-color="#1A1761"/>
<stop offset="0.7" stop-color="#180F5C"/>
<stop offset="1" stop-color="#180D5B"/>
</radialGradient>
<radialGradient id="paint41_radial_2_4" cx="0" cy="0" r="1" gradientUnits="userSpaceOnUse" gradientTransform="translate(315.683 263.103) rotate(-30.1734) scale(2.5367)">
<stop stop-color="#42E8E0"/>
<stop offset="1" stop-color="#42E8E0"/>
</radialGradient>
<radialGradient id="paint42_radial_2_4" cx="0" cy="0" r="1" gradientUnits="userSpaceOnUse" gradientTransform="translate(386.783 240.818) rotate(-30.0542) scale(9.40294)">
<stop stop-color="#41E5DE"/>
<stop offset="0.06" stop-color="#39B8C3"/>
<stop offset="0.13" stop-color="#3190AA"/>
<stop offset="0.2" stop-color="#2A6C95"/>
<stop offset="0.27" stop-color="#254E83"/>
<stop offset="0.36" stop-color="#203674"/>
<stop offset="0.45" stop-color="#1C2469"/>
<stop offset="0.56" stop-color="#1A1761"/>
<stop offset="0.7" stop-color="#180F5C"/>
<stop offset="1" stop-color="#180D5B"/>
</radialGradient>
<radialGradient id="paint43_radial_2_4" cx="0" cy="0" r="1" gradientUnits="userSpaceOnUse" gradientTransform="translate(382.287 243.987) rotate(-30.1735) scale(2.5367)">
<stop stop-color="#42E8E0"/>
<stop offset="1" stop-color="#42E8E0"/>
</radialGradient>
<radialGradient id="paint44_radial_2_4" cx="0" cy="0" r="1" gradientUnits="userSpaceOnUse" gradientTransform="translate(398.056 220.977) rotate(-30.1735) scale(9.33109)">
<stop stop-color="#41E5DE"/>
<stop offset="0.06" stop-color="#39B8C3"/>
<stop offset="0.13" stop-color="#3190AA"/>
<stop offset="0.2" stop-color="#2A6C95"/>
<stop offset="0.27" stop-color="#254E83"/>
<stop offset="0.36" stop-color="#203674"/>
<stop offset="0.45" stop-color="#1C2469"/>
<stop offset="0.56" stop-color="#1A1761"/>
<stop offset="0.7" stop-color="#180F5C"/>
<stop offset="1" stop-color="#180D5B"/>
</radialGradient>
<radialGradient id="paint45_radial_2_4" cx="0" cy="0" r="1" gradientUnits="userSpaceOnUse" gradientTransform="translate(398.056 220.977) rotate(-30.1735) scale(2.5367)">
<stop stop-color="#42E8E0"/>
<stop offset="1" stop-color="#42E8E0"/>
</radialGradient>
<radialGradient id="paint46_radial_2_4" cx="0" cy="0" r="1" gradientUnits="userSpaceOnUse" gradientTransform="translate(383.71 212.471) rotate(-30.1735) scale(9.3311)">
<stop stop-color="#41E5DE"/>
<stop offset="0.06" stop-color="#39B8C3"/>
<stop offset="0.13" stop-color="#3190AA"/>
<stop offset="0.2" stop-color="#2A6C95"/>
<stop offset="0.27" stop-color="#254E83"/>
<stop offset="0.36" stop-color="#203674"/>
<stop offset="0.45" stop-color="#1C2469"/>
<stop offset="0.56" stop-color="#1A1761"/>
<stop offset="0.7" stop-color="#180F5C"/>
<stop offset="1" stop-color="#180D5B"/>
</radialGradient>
<radialGradient id="paint47_radial_2_4" cx="0" cy="0" r="1" gradientUnits="userSpaceOnUse" gradientTransform="translate(383.71 212.471) rotate(-30.1735) scale(2.53671)">
<stop stop-color="#42E8E0"/>
<stop offset="1" stop-color="#42E8E0"/>
</radialGradient>
<radialGradient id="paint48_radial_2_4" cx="0" cy="0" r="1" gradientUnits="userSpaceOnUse" gradientTransform="translate(369.369 204.549) rotate(-30.1735) scale(9.3311)">
<stop stop-color="#41E5DE"/>
<stop offset="0.06" stop-color="#39B8C3"/>
<stop offset="0.13" stop-color="#3190AA"/>
<stop offset="0.2" stop-color="#2A6C95"/>
<stop offset="0.27" stop-color="#254E83"/>
<stop offset="0.36" stop-color="#203674"/>
<stop offset="0.45" stop-color="#1C2469"/>
<stop offset="0.56" stop-color="#1A1761"/>
<stop offset="0.7" stop-color="#180F5C"/>
<stop offset="1" stop-color="#180D5B"/>
</radialGradient>
<radialGradient id="paint49_radial_2_4" cx="0" cy="0" r="1" gradientUnits="userSpaceOnUse" gradientTransform="translate(369.369 204.549) rotate(-30.1735) scale(2.53671)">
<stop stop-color="#42E8E0"/>
<stop offset="1" stop-color="#42E8E0"/>
</radialGradient>
<radialGradient id="paint50_radial_2_4" cx="0" cy="0" r="1" gradientUnits="userSpaceOnUse" gradientTransform="translate(112.108 242.986) rotate(-30.1735) scale(9.3311)">
<stop stop-color="#41E5DE"/>
<stop offset="0.06" stop-color="#39B8C3"/>
<stop offset="0.13" stop-color="#3190AA"/>
<stop offset="0.2" stop-color="#2A6C95"/>
<stop offset="0.27" stop-color="#254E83"/>
<stop offset="0.36" stop-color="#203674"/>
<stop offset="0.45" stop-color="#1C2469"/>
<stop offset="0.56" stop-color="#1A1761"/>
<stop offset="0.7" stop-color="#180F5C"/>
<stop offset="1" stop-color="#180D5B"/>
</radialGradient>
<radialGradient id="paint51_radial_2_4" cx="0" cy="0" r="1" gradientUnits="userSpaceOnUse" gradientTransform="translate(112.108 242.986) rotate(-30.1735) scale(2.53671)">
<stop stop-color="#42E8E0"/>
<stop offset="1" stop-color="#42E8E0"/>
</radialGradient>
<radialGradient id="paint52_radial_2_4" cx="0" cy="0" r="1" gradientUnits="userSpaceOnUse" gradientTransform="translate(100.727 230.754) rotate(-30.31) scale(9.41838)">
<stop stop-color="#41E5DE"/>
<stop offset="0.06" stop-color="#39B8C3"/>
<stop offset="0.13" stop-color="#3190AA"/>
<stop offset="0.2" stop-color="#2A6C95"/>
<stop offset="0.27" stop-color="#254E83"/>
<stop offset="0.36" stop-color="#203674"/>
<stop offset="0.45" stop-color="#1C2469"/>
<stop offset="0.56" stop-color="#1A1761"/>
<stop offset="0.7" stop-color="#180F5C"/>
<stop offset="1" stop-color="#180D5B"/>
</radialGradient>
<radialGradient id="paint53_radial_2_4" cx="0" cy="0" r="1" gradientUnits="userSpaceOnUse" gradientTransform="translate(100.514 236.206) rotate(-30.1735) scale(2.5367)">
<stop stop-color="#42E8E0"/>
<stop offset="1" stop-color="#42E8E0"/>
</radialGradient>
<radialGradient id="paint54_radial_2_4" cx="0" cy="0" r="1" gradientUnits="userSpaceOnUse" gradientTransform="translate(128.791 201.458) rotate(-30.1735) scale(9.3311)">
<stop stop-color="#41E5DE"/>
<stop offset="0.06" stop-color="#39B8C3"/>
<stop offset="0.13" stop-color="#3190AA"/>
<stop offset="0.2" stop-color="#2A6C95"/>
<stop offset="0.27" stop-color="#254E83"/>
<stop offset="0.36" stop-color="#203674"/>
<stop offset="0.45" stop-color="#1C2469"/>
<stop offset="0.56" stop-color="#1A1761"/>
<stop offset="0.7" stop-color="#180F5C"/>
<stop offset="1" stop-color="#180D5B"/>
</radialGradient>
<radialGradient id="paint55_radial_2_4" cx="0" cy="0" r="1" gradientUnits="userSpaceOnUse" gradientTransform="translate(128.791 201.458) rotate(-30.1735) scale(2.53671)">
<stop stop-color="#42E8E0"/>
<stop offset="1" stop-color="#42E8E0"/>
</radialGradient>
<radialGradient id="paint56_radial_2_4" cx="0" cy="0" r="1" gradientUnits="userSpaceOnUse" gradientTransform="translate(141.206 194.965) rotate(-30.1735) scale(9.3311)">
<stop stop-color="#41E5DE"/>
<stop offset="0.06" stop-color="#39B8C3"/>
<stop offset="0.13" stop-color="#3190AA"/>
<stop offset="0.2" stop-color="#2A6C95"/>
<stop offset="0.27" stop-color="#254E83"/>
<stop offset="0.36" stop-color="#203674"/>
<stop offset="0.45" stop-color="#1C2469"/>
<stop offset="0.56" stop-color="#1A1761"/>
<stop offset="0.7" stop-color="#180F5C"/>
<stop offset="1" stop-color="#180D5B"/>
</radialGradient>
<radialGradient id="paint57_radial_2_4" cx="0" cy="0" r="1" gradientUnits="userSpaceOnUse" gradientTransform="translate(141.206 194.965) rotate(-30.1735) scale(2.5367)">
<stop stop-color="#42E8E0"/>
<stop offset="1" stop-color="#42E8E0"/>
</radialGradient>
</defs>
</svg>
