<svg xmlns="http://www.w3.org/2000/svg" xmlns:xlink="http://www.w3.org/1999/xlink" viewBox="0 0 1820.47 1747.31"><defs><style>.e9ab8333-892b-4efb-8db6-5e301608b9ac{fill:url(#e617b05f-1574-44bb-8586-3e2215298fc1);}.be504563-267f-444b-82b4-96f9d4323322{fill:#fff;}.edbf9a8f-0b1d-4f12-a5fe-a2808f9a09e5{fill:#eea886;}.a6abd33f-c553-47f4-a5d6-814685a83529{fill:#dbd8e3;}.b02eb47c-f54c-4100-8cd8-19d04b7d6bf6{fill:#323657;}.bc0031ec-9b7f-4c54-8602-1d837167c583{fill:#eea987;}.bf51b9bb-b600-4e10-aa99-7e146d4240f7{fill:#d44040;}.faa451c4-ab51-4094-8f63-cfdb06d0f264{fill:#c4c1cc;}.b284987c-3269-4c20-8d46-525ee6595938{fill:#16202e;}.ea23f95c-aee2-421e-b7ff-5999a87338b5{fill:#a77860;}.b68f2a3f-c32f-4ca8-ac6e-9049f5d1f5e0{fill:#4ca1f4;}.ec5e57c7-9942-485e-a790-fe36e3443884{opacity:0.69;}.fc4d96d6-7a3c-453b-998f-356dee468d06{fill:#d9d9d9;opacity:0.72;}.a35be9ef-1089-4bc7-86b4-edf1ce7ebd66{fill:#e8734d;}.b1189152-780d-4248-9f89-f87c3c8e550c{fill:#efaa88;}.af681056-0e49-4a0a-bc11-8fd16d49dd68{fill:#ffc955;}.b7b42406-3d01-4624-ae05-d9559750a5fd{fill:url(#bb979727-a132-4280-9974-253eca258526);}.e3bdc8c3-ba20-4532-9754-5afd750397d5{fill:#cfa345;}.f1ab12e6-1764-4e79-a29e-5c70b02971e9{fill:#e0e0e0;}.b3aca997-0a3b-4d7b-81af-af28106f99c3{fill:#377b93;}.bee44900-f2d9-4424-aaac-d9f29df14111{fill:#e6e6e6;}.f6b2f0da-ebdb-4d05-abf2-0ce8a1796c30{fill:#4e8c63;}.b8acb343-4da0-492c-8e3b-f8ae08c58625{fill:#2d3038;}.a958dd6b-9b62-431e-b521-78458c3185d9{fill:#131521;}.ab6a3484-c65f-4aa6-9fba-aea470557532{fill:#c6c9cc;}.bb3d5310-1af9-40b1-8058-1ee478796918{fill:#e54242;}.ec851e94-5800-4b0d-a5db-359be4e750e9{fill:#1d3b54;}.a4899649-f6b4-431a-aae5-c14dffab4027{fill:#b8b8b8;opacity:0.1;}.b87d0545-03a6-4a36-9dfe-523cc52baa9f{fill:#869ac2;opacity:0.3;}.f92bf6c9-aeb8-4ede-a244-a2a27be9771a{fill:url(#b183dc0c-7109-4329-8601-6b8be7ae9732);}.a23d664f-329a-4888-881f-419dd394d83a{fill:#706865;}.bc1c4d29-2e64-4bcb-8ef2-2a982d9ac5af{fill:#ccbdb7;}.a391311e-e589-401b-9da4-e32b4a49e1f6{fill:#ffab55;}.bc2d2078-a3a0-4295-8e8e-be833a8cd62f{fill:#b59074;}.a60fcab9-1be4-49ff-8e0d-60d780f556a4{fill:#ead8cf;}.a067e3e6-f905-4aa4-a7d1-af9eb7320438{fill:#da9b5b;}.a420f6fa-9cec-4c8f-97b2-87578efd9fe0{fill:#424773;}.a4a9a265-760f-46f2-b990-ea43e5eba5c2{fill:#292c47;}.b6b6cad4-f48a-4bf3-bf97-3e434c8deaff{fill:#3a3f47;}.a598a539-07d8-4eb3-a0f7-017ae097a29c{fill:#e2d2ca;}.e3841c7b-6a20-4fc1-80ba-ab4eeed376ab{fill:#918783;}.f159127a-c351-49cc-9675-56a175ab0b69{fill:#5e5854;}.a47b97d9-c657-4b58-85a9-4406ac2b31db{fill:#bfb2ac;}.af371f2c-3afc-4373-8da8-411ab249d7c3{fill:url(#a708e195-3c4b-4411-9cab-0839436bcfda);}.b89a241b-efb1-44ab-8dd7-4db8fc376b27{fill:#f5f7ff;}.a2d9c08d-e4cb-43d3-b191-d6eae1eda2dc{fill:#cecfd6;}.adb2e611-8dff-47a0-a63c-47cc60ffbf2b{fill:#2e436e;}.bfa190b7-e792-4456-a76d-9e43944605cd{fill:#eef0f7;}.b9116c34-5250-45b1-9518-9ff19cece525{fill:#d9c7c1;}.a167764c-00f5-4d32-8088-f8acca594a04{fill:#c78d71;}.ef619841-5f51-4cfe-9b69-060f7a308dc9{fill:#eddad3;}.a99cbdb3-7360-4923-9bc4-86e0dab2f51b{fill:#5073ab;}</style><linearGradient id="e617b05f-1574-44bb-8586-3e2215298fc1" y1="827.31" x2="1445.58" y2="827.31" gradientUnits="userSpaceOnUse"><stop offset="0" stop-color="#9a5cff"/><stop offset="0.99" stop-color="#4059bf"/></linearGradient><linearGradient id="bb979727-a132-4280-9974-253eca258526" x1="-117.53" y1="1594.15" x2="1499.88" y2="1594.15" xlink:href="#e617b05f-1574-44bb-8586-3e2215298fc1"/><linearGradient id="b183dc0c-7109-4329-8601-6b8be7ae9732" x1="159.06" y1="1472.37" x2="251.5" y2="1472.37" gradientUnits="userSpaceOnUse"><stop offset="0" stop-color="#ff9f55"/><stop offset="1" stop-color="#ffd255"/></linearGradient><linearGradient id="a708e195-3c4b-4411-9cab-0839436bcfda" x1="164.11" y1="1362.7" x2="374.21" y2="1362.7" xlink:href="#b183dc0c-7109-4329-8601-6b8be7ae9732"/></defs><g id="f15d368c-79e2-44c5-90e3-537de3fa7457" data-name="Layer 2"><g id="bd4548ab-a332-4a15-affb-b589b4dc64a1" data-name="Слой 1"><path class="e9ab8333-892b-4efb-8db6-5e301608b9ac" d="M1421.76,786.06,71.44,6.45C39.69-11.88,0,11,0,47.7V1606.91c0,36.67,39.69,59.58,71.44,41.25l1350.32-779.6C1453.52,850.22,1453.52,804.39,1421.76,786.06Z"/><path class="be504563-267f-444b-82b4-96f9d4323322" d="M113.66,618.44a155.28,155.28,0,0,0,22.09,37.28l-13.14,27.55,26.53,19.9,26.53,19.9,22.77-20.33a155.17,155.17,0,0,0,42,10.78l10.18,28.75,32.83-4.69,32.83-4.68L318,702.44a155.08,155.08,0,0,0,37.28-22.09l27.55,13.14L402.72,667l19.9-26.53L402.3,617.66a155.16,155.16,0,0,0,10.77-42l28.76-10.18-4.69-32.83-4.69-32.83L402,498.11a155.12,155.12,0,0,0-22.1-37.28L393,433.28l-26.52-19.9L340,393.48,317.21,413.8a155.09,155.09,0,0,0-42-10.77l-10.19-28.76L232.22,379l-32.82,4.69-1.74,30.45a155.31,155.31,0,0,0-37.28,22.1l-27.55-13.14-19.9,26.53L93,476.11l20.33,22.78a155.1,155.1,0,0,0-10.78,42L73.83,551.05l4.69,32.83L83.2,616.7ZM241.4,443.24A116.2,116.2,0,1,1,142.79,574.7,116.2,116.2,0,0,1,241.4,443.24Z"/><path class="be504563-267f-444b-82b4-96f9d4323322" d="M107.4,295.72a71.14,71.14,0,0,0,10.13,17.09l-6,12.63,12.17,9.12,12.16,9.12,10.44-9.31a71.47,71.47,0,0,0,19.24,4.94l4.67,13.18,15-2.15,15.05-2.15.8-14a71.14,71.14,0,0,0,17.09-10.13l12.63,6L239.92,318,249,305.8l-9.32-10.44a71.21,71.21,0,0,0,4.95-19.24l13.18-4.67L255.7,256.4l-2.15-15-14-.8a71.14,71.14,0,0,0-10.13-17.09l6-12.63-12.16-9.12-12.16-9.12-10.44,9.31A71.57,71.57,0,0,0,181.48,197l-4.67-13.18-15.05,2.15-15,2.15-.8,14a71.14,71.14,0,0,0-17.09,10.13l-12.63-6-9.12,12.16-9.13,12.16,9.32,10.44a71.57,71.57,0,0,0-4.94,19.24l-13.18,4.67,2.15,15.05,2.15,15.05ZM166,215.4a53.27,53.27,0,1,1-45.2,60.27A53.27,53.27,0,0,1,166,215.4Z"/><path class="edbf9a8f-0b1d-4f12-a5fe-a2808f9a09e5" d="M1130.52,683.53s81.22-26.4,87.82-23.45,7.49,7.6,0,10.4-77.88,27.85-77.88,27.85,100.37-14.46,106.33-13.32c3.49.67,5.73,9.55,1.83,11.43s-102.87,22.18-102.87,22.18,93.72-13.33,98.37-10.8c4.07,2.22,4.16,11-2.75,12.5s-93.47,19-93.47,19,68.6-5.21,71.22-.57c1.6,2.85,3.88,10.41-13.84,11.17s-59.53,7.18-59.53,7.18Z"/><path class="edbf9a8f-0b1d-4f12-a5fe-a2808f9a09e5" d="M1041,729s26.29-10.45,28.17-27c1.6-14.1,13.31-31.59,16.9-37,4.81-7.21,12-34.74,20.41-28.87s-9.78,45.89-12,55,33.61-10.31,42.59-8.55,33.41,64.67,7.46,75.07-59.41,3.79-63.67,6.56-18.64,8.34-18.64,8.34Z"/><path class="a6abd33f-c553-47f4-a5d6-814685a83529" d="M724.18,1200.55c.59,7.6,1.22,14.84,1.81,21.31H349.88c.13-6.34.31-13.53.45-21.31,1.27-62.71,3.12-165.51,2.31-204.33-1-55.42-12.72-199.43-15-207.76,0,0-82.52-119.89-169.07,116.78-17.87,48.77,146,171,125.6,174.73s-19.5,42.39-19.5,42.39S120.35,988,123.52,948.4c1.76-22,122.57-341.5,141-354.71,12.57-9.05,91.57-40.72,132.52-56.24,18.95-7.24,33.39-12.26,36.37-12.44,9.37-.59,124.92,10.49,124.92,10.49s16.56,5.66,33.53,13.44c28.91,13.26,74,34,106.28,49.41,10.45,5,23.52,11.67,34.38,17.42q-2,58.9-7,126.41s-6,98.31-6.56,197.62c-5.2,22.49-4.3,74.75-4.3,74.75-1.44,49.54,4.08,100.39,5.52,128.81C721.15,1161.14,722.64,1182,724.18,1200.55Z"/><path class="b02eb47c-f54c-4100-8cd8-19d04b7d6bf6" d="M740.42,1200.55c-5.43-35.16-10.58-71.76-14.84-106.78v-.27q-1-8.55-2-17a6.27,6.27,0,0,0-.09-.86c-2.72-23.71-4.94-46.37-6.56-67.14-1.23-15.93-.14-31.44,2.08-46.69,6.42-106.19,9.63-218.17,9.63-218.17C732,697.79,734,655,735.27,615c0,0-145.1-68.54-158.27-72.48,0,0,27.51,64.61,48.14,209.07,8,55.47,22.67,148.86,33.35,244.19,4.2,37.59,11.13,75.65,17.73,111.48,6.25,33.79,12.22,65.65,15.43,93.25.23,1.67.41,3.34.59,5,.5,4.75,1.08,10.22,1.76,16.29h49.77C742.64,1214.84,741.51,1207.69,740.42,1200.55Z"/><path class="b02eb47c-f54c-4100-8cd8-19d04b7d6bf6" d="M484.84,1031.6c-6.61,64.07-13.85,115.92-19.68,169-.77,7-1.54,14.16-2.26,21.31H310.29q3-10.59,5.79-21.31c16.38-61.76,29.45-124.79,29.45-163,0,0-31.76-228.39-42.39-265.17,0,0-96,71-118.5,120.21-20.08,44,127.1,178.31,125.38,182.83-10,26.47-48.32,74.83-48.32,74.83S33.8,905.46,36.83,875.29C39,853.34,230.07,609.39,248.48,596.18c10.68-7.65,89.59-35.61,128.32-50.9,7.1-2.81,30.17-11.5,36.51-13.89,8.19,9.13,65.92,71.25,85.92,307.34C502.62,878.54,492,962.79,484.84,1031.6Z"/><path class="bc0031ec-9b7f-4c54-8602-1d837167c583" d="M444.11,537.29s-.8-39.67-16.09-119.92c-4.08-21.49,124.73,56.53,124.73,56.53s-.4,7.52-.66,17.68c-.14,5.37-.22,11.46-.19,17.57,0,2.16,0,4.3.09,6.42.12,5.68.38,11.11.86,15.73.48,4.77,3.3,13.17,4.3,15.48C562.46,559,487.49,568.34,444.11,537.29Z"/><path class="bf51b9bb-b600-4e10-aa99-7e146d4240f7" d="M524.51,578.86l21.35,28.68s-12.51,16.76-34.73,4.39Z"/><path class="bf51b9bb-b600-4e10-aa99-7e146d4240f7" d="M540.15,608.71s81,311.79,64.29,554.48l-27.25,48-25.5-50.3s-7-434.12-29.19-553Z"/><path class="bc0031ec-9b7f-4c54-8602-1d837167c583" d="M547.37,552.11l-22.86,26.75s-36.7-7.11-47.47-26.28S547.37,552.11,547.37,552.11Z"/><path class="faa451c4-ab51-4094-8f63-cfdb06d0f264" d="M552.61,528.7s-2.65,20.39-28.1,50.16l27.78,37.32,15-77.42Z"/><path class="faa451c4-ab51-4094-8f63-cfdb06d0f264" d="M442,509.3s45.42,54.89,82.52,69.56l-17.26,42.67L420.91,528.7Z"/><path class="b02eb47c-f54c-4100-8cd8-19d04b7d6bf6" d="M1109.27,773.54S913.55,986.18,867.37,974.81C846,969.56,813.68,932.7,787,898.05c-8.81-11.41-17.45-23.38-25.67-35.24a.08.08,0,0,1,0,0c-32.79-47.33-58.48-92.71-58.48-92.71s-96.91-113.58-19.15-164.2c0,0,32.78-3.31,51.42,10.44,17.21,12.7,59.09,92.65,65.89,107.48s59.68,119.29,64.62,122.39,56.87-28.09,84.63-46.78c44.87-30.19,101.23-82.82,101.23-82.82Z"/><path class="edbf9a8f-0b1d-4f12-a5fe-a2808f9a09e5" d="M620.57,276.41s28.3,52.47,14.28,60.63c-11.59,6.74,13.58,58.22,16.87,66.64s-21,14.52-26.15,19.93-20.45,72-40.45,74.05S475,468.32,450.46,442.81s-44.68-140.76-28.3-189.38S570.63,184.76,620.57,276.41Z"/><path class="b284987c-3269-4c20-8d46-525ee6595938" d="M626.22,287.78s28.89-56.66-23.58-98.69-149.22,31.74-160.13,34.55S369.74,230.7,401,339.34c26.82,93.28,30.57,97.2,30.57,97.2s20-54,31.37-62.27c17.71-12.87,56.56-9.78,56.56-9.78S501,315.35,529.9,308.39,597,276.92,626.22,287.78Z"/><path class="edbf9a8f-0b1d-4f12-a5fe-a2808f9a09e5" d="M488.66,336.35c-2.55-6.74-10.8-35.71-35.66-18.69s15.49,71.61,19.83,72.31S510.13,393.08,488.66,336.35Z"/><path class="ea23f95c-aee2-421e-b7ff-5999a87338b5" d="M551.9,509.15c0,2.16,0,4.3.09,6.42-73.68-24.73-87.95-62-87.95-62,23,16.26,88.05,38,88.05,38C552,497,551.87,503,551.9,509.15Z"/><path class="edbf9a8f-0b1d-4f12-a5fe-a2808f9a09e5" d="M283.43,1074.61s7,5.84,14.36,5.78c12.75-.11,27.28-14,40.61-1.38s-14.74,66.16-24.85,72.43-33.08-5-57.67-34.72S283.43,1074.61,283.43,1074.61Z"/><path class="edbf9a8f-0b1d-4f12-a5fe-a2808f9a09e5" d="M333.3,1075.42a531.15,531.15,0,0,1,53.3,22.28c24.12,11.78,52.43,29.75,49.54,35.86-4.38,9.28-25.9-8.12-50.61-18.17-22.74-9.25-19.82-3.57-19.82-3.57s-.74-1.66,22.07,13.29c24.53,16.09,50.21,34.39,47.94,39.43-2.81,6.26-3.69,6.8-13.55,2.44,5.12,3.74,4.82,5.69,3.46,8-7,12-46.78-6-62.56-13.1,12.09,5.55,20.36,10.93,11.32,15.47-10.35,5.19-65.38-22.75-86.05-30.84C265.79,1137.69,333.3,1075.42,333.3,1075.42Z"/><path class="b02eb47c-f54c-4100-8cd8-19d04b7d6bf6" d="M310,1075.42s-5.61,32.83-48.31,74.82c0,0-97.89-108-115.35-128.2L223,977.6Z"/><rect class="be504563-267f-444b-82b4-96f9d4323322" x="89.65" y="1200.55" width="1346.78" height="21.31"/><rect class="b68f2a3f-c32f-4ca8-ac6e-9049f5d1f5e0" x="728.13" y="340.63" width="88.16" height="88.16" rx="17.5"/><g class="ec5e57c7-9942-485e-a790-fe36e3443884"><rect class="fc4d96d6-7a3c-453b-998f-356dee468d06" x="849.27" y="223.87" width="305.06" height="27.38" rx="9.1"/><rect class="fc4d96d6-7a3c-453b-998f-356dee468d06" x="849.27" y="268.13" width="347.59" height="27.38" rx="9.1"/></g><rect class="b68f2a3f-c32f-4ca8-ac6e-9049f5d1f5e0" x="728.13" y="215.61" width="88.16" height="88.16" rx="17.5"/><g class="ec5e57c7-9942-485e-a790-fe36e3443884"><rect class="fc4d96d6-7a3c-453b-998f-356dee468d06" x="849.27" y="348.89" width="229.29" height="27.38" rx="7.89"/><rect class="fc4d96d6-7a3c-453b-998f-356dee468d06" x="849.27" y="393.16" width="282.02" height="27.38" rx="8.2"/></g><g class="ec5e57c7-9942-485e-a790-fe36e3443884"><rect class="fc4d96d6-7a3c-453b-998f-356dee468d06" x="849.27" y="473.92" width="332.67" height="27.38" rx="9.51"/><rect class="fc4d96d6-7a3c-453b-998f-356dee468d06" x="849.27" y="518.18" width="305.06" height="27.38" rx="8.53"/></g><rect class="b68f2a3f-c32f-4ca8-ac6e-9049f5d1f5e0" x="728.13" y="465.66" width="88.16" height="88.16" rx="17.5"/><path class="be504563-267f-444b-82b4-96f9d4323322" d="M769.2,406l-24.46-21.25a4.81,4.81,0,0,1,6.31-7.27l17.3,15L792.94,365a4.81,4.81,0,1,1,7.17,6.42Z"/><path class="be504563-267f-444b-82b4-96f9d4323322" d="M769.2,531.05l-24.46-21.26a4.81,4.81,0,1,1,6.31-7.27l17.3,15L792.94,490a4.81,4.81,0,1,1,7.17,6.41Z"/><path class="be504563-267f-444b-82b4-96f9d4323322" d="M770.57,270.44l-.14-1.94c-.45-4,.89-8.43,4.62-12.9,3.36-3.95,5.22-6.86,5.22-10.22,0-3.8-2.39-6.34-7.09-6.41a13.25,13.25,0,0,0-7.53,2.31l-1.79-4.7c2.46-1.79,6.71-3,10.67-3,8.57,0,12.45,5.29,12.45,11,0,5.07-2.83,8.73-6.41,13-3.28,3.88-4.48,7.16-4.25,11l.07,1.94Zm-1.64,10.44a4.41,4.41,0,0,1,4.48-4.7,4.67,4.67,0,1,1-4.48,4.7Z"/><rect class="b68f2a3f-c32f-4ca8-ac6e-9049f5d1f5e0" x="1351.74" y="963.89" width="88.16" height="88.16" rx="17.5"/><g class="ec5e57c7-9942-485e-a790-fe36e3443884"><rect class="fc4d96d6-7a3c-453b-998f-356dee468d06" x="1472.88" y="847.12" width="305.06" height="27.38" rx="9.1"/><rect class="fc4d96d6-7a3c-453b-998f-356dee468d06" x="1472.88" y="891.39" width="347.59" height="27.38" rx="9.1"/></g><rect class="b68f2a3f-c32f-4ca8-ac6e-9049f5d1f5e0" x="1351.74" y="838.86" width="88.16" height="88.16" rx="17.5"/><g class="ec5e57c7-9942-485e-a790-fe36e3443884"><rect class="fc4d96d6-7a3c-453b-998f-356dee468d06" x="1472.88" y="972.14" width="229.29" height="27.38" rx="7.89"/><rect class="fc4d96d6-7a3c-453b-998f-356dee468d06" x="1472.88" y="1016.41" width="282.02" height="27.38" rx="8.2"/></g><path class="be504563-267f-444b-82b4-96f9d4323322" d="M1392.81,1029.27,1368.35,1008a4.81,4.81,0,0,1,6.31-7.27l17.3,15,24.59-27.51a4.81,4.81,0,1,1,7.18,6.41Z"/><path class="a6abd33f-c553-47f4-a5d6-814685a83529" d="M1073.38,1417.87c4.07,17.65,3.36,58.66,3.36,58.66,1.11,38.9-3.23,78.84-4.34,101.15,0,.69-.07,1.37-.1,2.08-.28,5.26-.63,10.84-1,16.5h291c-.1-5.36-.2-10.88-.29-16.5-.59-32.93-1.11-69-1.16-94.75,66.5-17.56,138.31-40.48,137-57.24-1.38-17.25-53.19-271.22-67.67-281.58-9.87-7.1-71.88-31.94-104-44.15-14.87-5.67-26.21-9.62-28.53-9.76-7.36-.46-98.07,8.23-98.07,8.23s-13,4.46-26.3,10.56c-22.69,10.42-58.06,26.69-83.45,38.78-8.19,3.89-18.44,9.17-27,13.69q1.54,46.23,5.48,99.2S1072.93,1339.93,1073.38,1417.87Zm288.3,29.38c3.58-48.35,18.16-131.41,19.78-137.29,0,0,6.84,6.48,6.88,6.48s2.25.31,2.27.28a16.61,16.61,0,0,1,2.07.78s44,61.5,44.51,94.56C1437.43,1427.83,1403,1439.13,1361.68,1447.25Z"/><path class="b02eb47c-f54c-4100-8cd8-19d04b7d6bf6" d="M1060.48,1596.26h38.12q1.31-8.05,2.8-16.5c6.46-36.4,15-77.53,19.49-117.91h0c8.38-74.82,19.91-148.13,26.14-191.68,16.2-113.38,37.8-164.11,37.8-164.11-10.32,3.08-124.21,56.91-124.21,56.91,1,31.34,2.54,65,5.2,101,0,0,2.52,87.91,7.57,171.28a166.45,166.45,0,0,1,1.63,36.64c-1.27,16.31-3,34.11-5.16,52.68,0,.25,0,.49-.07.7-.51,4.41-1,8.84-1.57,13.33,0,.08,0,.12,0,.19-1.63,13.48-3.44,27.25-5.36,41Q1061.69,1588,1060.48,1596.26Z"/><path class="b02eb47c-f54c-4100-8cd8-19d04b7d6bf6" d="M1169.5,1470.83c8.66,20.43,38.51,70.9,38.51,70.9s21.6-5.3,53.38-13.53c2.09,18,4.2,35,6.22,51.56.67,5.53,1.35,11,2,16.5H1383q-2-8.33-3.84-16.5c-6.93-30.7-11.79-59.26-12.49-80.1,76-21.71,150.52-46,149.36-57.67-1.72-17.22-58.81-283.48-73.29-293.84-8.35-6-70.31-28-100.71-40-5.55-2.2-24.52-9.32-29.5-11.22-6.45,7.18-50.9,56.24-66.61,241.57-1.94,23,2.1,65.12,6.58,107.28C1206.44,1458.11,1168,1467.34,1169.5,1470.83Zm207.28-66.14c4.57-36.92,9.77-74.07,13.52-87.07,0,0,12.82,25.87,11.82,63.81C1401.93,1389.09,1392.17,1396.94,1376.78,1404.69Z"/><path class="bc0031ec-9b7f-4c54-8602-1d837167c583" d="M1302.29,1095.19s-11.54-21.8-8.35-83.69c.88-17.15-90.06,40.66-90.06,40.66s.31,5.91.51,13.88c.1,3.32.16,7,.16,10.7,0,1,0,2.06,0,3.1,0,1.69,0,3.36-.06,5,0,2.08-.12,4.11-.23,6.07-.1,2.23-.25,4.34-.46,6.27a57.72,57.72,0,0,1-3.37,12.15C1196.25,1119,1268.24,1119.54,1302.29,1095.19Z"/><path class="a35be9ef-1089-4bc7-86b4-edf1ce7ebd66" d="M1226,1134.55l-16.76,22.52s9.82,13.15,27.26,3.44Z"/><path class="a35be9ef-1089-4bc7-86b4-edf1ce7ebd66" d="M1213.77,1158s-61.41,150-48.31,340.49l19.37,35.15,21.84-29.94s3.52-253,20.95-346.3Z"/><path class="bc0031ec-9b7f-4c54-8602-1d837167c583" d="M1208.1,1113.56l17.94,21s28.8-5.58,37.26-20.62S1208.1,1113.56,1208.1,1113.56Z"/><path class="faa451c4-ab51-4094-8f63-cfdb06d0f264" d="M1204,1095.18s2.08,16,22.06,39.37l-21.8,29.3-11.8-60.78Z"/><path class="faa451c4-ab51-4094-8f63-cfdb06d0f264" d="M1296.81,1075.93s-41.65,47.11-70.77,58.62l13.55,33.5,66.46-73.32Z"/><path class="b02eb47c-f54c-4100-8cd8-19d04b7d6bf6" d="M868.69,1502.09s55.28-53.61,91.53-62.53c16.76-4.12,38.84-27.25,59.81-54.45,6.92-9,13.7-18.36,20.15-27.67a0,0,0,0,0,0,0c25.74-37.16,45.91-72.78,45.91-72.78s76.07-89.15,15-128.89c0,0-26.16-.57-40.51,7.22-14.76,8-46.23,73.7-51.57,85.34S945.91,1368,942,1370.39s-10.33,11.31-33.46,23.76c-28.32,15.25-72.81,59.88-72.81,59.88Z"/><path class="b1189152-780d-4248-9f89-f87c3c8e550c" d="M1134,1564.14s7.72-.31,11-2.1c0,0,5.78-3.7,10-6.09a34.25,34.25,0,0,1,3.37-1.7c3.41-1.35,11.3-3.3,18.57-8.85s31-27.71,31-27.71l-15.32-23.54-7.07-23.31s-55.25,5.49-62.62,9.87a20.49,20.49,0,0,0-2,1.36c-5.88,4.31-8.44,10-11.27,12.61-1,1-10.66,11.26-10.12,15.44.74,5.8,3.61,9.52,7.21,11.28,0,0,2,11.29,7.78,16.34,0,0,1.46,10.48,10.51,14.69C1125.08,1552.43,1127.76,1562.89,1134,1564.14Z"/><path class="edbf9a8f-0b1d-4f12-a5fe-a2808f9a09e5" d="M1222,851.82s-99.86-24.07-78.82,102.36,45,136.69,105.81,111.48S1305.6,959.59,1309.22,920,1253.94,853.67,1222,851.82Z"/><path class="edbf9a8f-0b1d-4f12-a5fe-a2808f9a09e5" d="M1274.46,939.38c1.49-11.11,23.54-14.86,25.06,1.84s-10.67,45.81-19,42.8S1272.42,954.69,1274.46,939.38Z"/><path class="b284987c-3269-4c20-8d46-525ee6595938" d="M1303.39,984.65s-2-39.77-16.5-41.22-17,14.51-17,14.51l-14.7,2.56s5.14-34.76-9.26-41-94.16,17.79-105.64,7.4-5-81,16.21-90.3,79.58-30.17,121.72-.74c0,0,33.24-3.29,37.76,23.55S1312.7,964.87,1303.39,984.65Z"/><path class="b02eb47c-f54c-4100-8cd8-19d04b7d6bf6" d="M1166.78,1470.84l41.23,70.88s109.23-28.14,134.71-35.33l-58.26-69.34S1198.57,1456.67,1166.78,1470.84Z"/><path class="ea23f95c-aee2-421e-b7ff-5999a87338b5" d="M1204.25,1091h0c53.56-5.46,74.32-46.69,74.32-46.69-33.69,33.39-74,32.48-74,32.48,0,1,0,2.06,0,3.1,0,1.69,0,3.36-.06,5C1204.43,1087,1204.36,1089,1204.25,1091Z"/><polygon class="af681056-0e49-4a0a-bc11-8fd16d49dd68" points="1126.15 1315.63 1155.28 1586.46 771.87 1586.46 742.74 1315.63 1126.15 1315.63"/><rect class="af681056-0e49-4a0a-bc11-8fd16d49dd68" x="1121.76" y="1562.09" width="64.04" height="24.37"/><rect class="b7b42406-3d01-4624-ae05-d9559750a5fd" x="411.83" y="1585.9" width="1042.08" height="16.5"/><path class="e3bdc8c3-ba20-4532-9754-5afd750397d5" d="M970.3,1446.69c3.08,15.08-3.95,29.26-15.71,31.66s-23.79-7.87-26.87-22.95,3.95-29.26,15.71-31.66S967.22,1431.61,970.3,1446.69Z"/><rect class="f1ab12e6-1764-4e79-a29e-5c70b02971e9" x="127.53" y="951.53" width="405.07" height="391.65" rx="30.02"/><polygon class="b3aca997-0a3b-4d7b-81af-af28106f99c3" points="165.08 1298.02 162.27 1295.05 234.89 1226.53 308.39 1242.45 378.59 1162.39 439.82 1165.85 487.5 1100.07 490.81 1102.47 441.82 1170.06 380.35 1166.59 309.88 1246.96 236.13 1230.98 165.08 1298.02"/><path class="bee44900-f2d9-4424-aaac-d9f29df14111" d="M319.79,1242.4a10.91,10.91,0,1,1-13-8.36A10.9,10.9,0,0,1,319.79,1242.4Z"/><path class="b3aca997-0a3b-4d7b-81af-af28106f99c3" d="M311.87,1257.37a13,13,0,1,1,9.92-15.4A13,13,0,0,1,311.87,1257.37ZM307.26,1236a8.87,8.87,0,1,0,10.53,6.79A8.88,8.88,0,0,0,307.26,1236Z"/><path class="bee44900-f2d9-4424-aaac-d9f29df14111" d="M390.11,1162.87a10.91,10.91,0,1,1-13-8.35A10.9,10.9,0,0,1,390.11,1162.87Z"/><path class="b3aca997-0a3b-4d7b-81af-af28106f99c3" d="M382.19,1177.84a13,13,0,1,1,9.92-15.4A13,13,0,0,1,382.19,1177.84Zm-4.62-21.32a8.87,8.87,0,1,0,10.54,6.79A8.87,8.87,0,0,0,377.57,1156.52Z"/><path class="bee44900-f2d9-4424-aaac-d9f29df14111" d="M450.89,1165.31a10.91,10.91,0,1,1-13-8.36A10.9,10.9,0,0,1,450.89,1165.31Z"/><path class="b3aca997-0a3b-4d7b-81af-af28106f99c3" d="M443,1180.28a13,13,0,1,1,9.92-15.41A13,13,0,0,1,443,1180.28ZM438.35,1159a8.87,8.87,0,1,0,10.54,6.79A8.89,8.89,0,0,0,438.35,1159Z"/><path class="bee44900-f2d9-4424-aaac-d9f29df14111" d="M246.11,1227.45a10.91,10.91,0,1,1-13-8.35A10.91,10.91,0,0,1,246.11,1227.45Z"/><path class="b3aca997-0a3b-4d7b-81af-af28106f99c3" d="M238.19,1242.43a13,13,0,1,1,9.92-15.41A13,13,0,0,1,238.19,1242.43Zm-4.61-21.33a8.87,8.87,0,1,0,10.54,6.79A8.87,8.87,0,0,0,233.58,1221.1Z"/><rect class="be504563-267f-444b-82b4-96f9d4323322" x="224.54" y="1270.32" width="44.66" height="8.6"/><rect class="be504563-267f-444b-82b4-96f9d4323322" x="255.6" y="1182.06" width="44.66" height="8.6"/><rect class="be504563-267f-444b-82b4-96f9d4323322" x="348.25" y="1243.56" width="44.66" height="8.6"/><rect class="be504563-267f-444b-82b4-96f9d4323322" x="388.31" y="1122.77" width="44.66" height="8.6"/><rect class="be504563-267f-444b-82b4-96f9d4323322" x="453.19" y="1194.75" width="44.66" height="8.6"/><rect class="f6b2f0da-ebdb-4d05-abf2-0ce8a1796c30" x="157.33" y="981.46" width="159.07" height="15.61"/><rect class="be504563-267f-444b-82b4-96f9d4323322" x="157.33" y="1023.46" width="159.07" height="15.61"/><rect class="be504563-267f-444b-82b4-96f9d4323322" x="157.33" y="1065.47" width="159.07" height="15.61"/><rect class="f6b2f0da-ebdb-4d05-abf2-0ce8a1796c30" x="348.86" y="981.46" width="26.55" height="15.61"/><rect class="be504563-267f-444b-82b4-96f9d4323322" x="348.86" y="1023.46" width="26.55" height="15.61"/><rect class="be504563-267f-444b-82b4-96f9d4323322" x="348.86" y="1065.47" width="26.55" height="15.61"/><path class="a6abd33f-c553-47f4-a5d6-814685a83529" d="M795.67,1190s-20.88-47.3,3.35-43.38c0,0,8.24,6.82,16.7,20.7,6.41,10.52,19.74,38.36,19.25,47.78s-7.19,16.44-14.42,31.56c0,0-15,28.06-15.67,31.45L789,1269.88s13.46-26.83,23-50.42Z"/><rect class="a35be9ef-1089-4bc7-86b4-edf1ce7ebd66" x="600.4" y="1249.85" width="324.52" height="55.17" transform="translate(225.25 -109.89) rotate(9.66)"/><rect class="b8acb343-4da0-492c-8e3b-f8ae08c58625" x="585.49" y="1227.8" width="17.33" height="41.88" transform="translate(218.07 -82.02) rotate(9.66)"/><path class="edbf9a8f-0b1d-4f12-a5fe-a2808f9a09e5" d="M674.81,1590.78h-3.94s1.31-14.88-2.33-15-12.69,12.11-18.09,14-33.11,3.5-33.26-1.61,10.65-7.15,14-8.6,19.7-17.36,22.61-19.26,7.9-15.08,7.9-15.08l15.47-.69s.88,12.33,1.81,18.85a58.19,58.19,0,0,1,.64,6.11C679.77,1575,674.81,1590.78,674.81,1590.78Z"/><path class="edbf9a8f-0b1d-4f12-a5fe-a2808f9a09e5" d="M774.48,1587.84H771.2V1574c-2.74.23-11.93,8.92-14.77,11.44s-6.75,2.41-18.73,3.17-13.11-6.41-11.21-8.85,8-3.51,11.21-5,15.77-15.71,19.13-19.07,5.4-13,5.4-13l14,1.22a85.48,85.48,0,0,0,1.51,16.17h0a.43.43,0,0,1,0,0c.14.63.29,1.25.45,1.85C780.28,1569.64,774.48,1587.84,774.48,1587.84Z"/><path class="b02eb47c-f54c-4100-8cd8-19d04b7d6bf6" d="M722.7,1273.92s-5.29,12.52-5.76,15.68-12.85,33.11-16.44,53.3c-2.14,12.08-8.06,49.92-8.55,54.73-.82,8.24-4.69,26.41-5.29,34.82-.33,4.7-23.49,76.86-29.09,114.53,0,0,13.32,2,23.32-.67,0,0,20.32-38.94,31.61-94.16,6.8-33.27,12.81-51,18.08-64.7s35.09-52.5,38.2-56.86,22.62-28.45,4.15-54.55S722.7,1273.92,722.7,1273.92Z"/><path class="b02eb47c-f54c-4100-8cd8-19d04b7d6bf6" d="M789.38,1384.77c-1.69,11.24.09,26,3.62,67.08s-6.18,90.82-6.18,90.82c-12.19,4.17-26.24,0-26.24,0,.33-2.89,0-100.13,0-108.8s-2.48-18.5-3.13-28.44c-.43-6.78-3.59-19.28-7.13-32-1.07-3.83-2.17-7.67-3.23-11.39h0c-.61-2.09-1.19-4.14-1.77-6.12-5-17.33-11.71-84.25-11.71-84.25s37.24-30,55.38-1.76,8.82,48.78,8.18,52.31S791.07,1373.54,789.38,1384.77Z"/><path class="a958dd6b-9b62-431e-b521-78458c3185d9" d="M773.94,1324.42c-.29.64-18.85,41.83-23.62,49-1.07-3.83-2.17-7.67-3.23-11.39h0S773.32,1325.33,773.94,1324.42Z"/><path class="ab6a3484-c65f-4aa6-9fba-aea470557532" d="M774.48,1587.84H771.2V1574c-2.74.23-11.93,8.92-14.77,11.44s-6.75,2.41-18.73,3.17-13.11-6.41-11.21-8.85,8-3.51,11.21-5c12.82.69,28.46-17.33,36-17.29,4,0,4,2.23,4.08,2.64h0a.43.43,0,0,1,0,0c.14.63.29,1.25.45,1.85C780.28,1569.64,774.48,1587.84,774.48,1587.84Z"/><path class="ab6a3484-c65f-4aa6-9fba-aea470557532" d="M674.81,1590.78h-3.94s1.31-14.88-2.33-15-12.69,12.11-18.09,14-33.11,3.5-33.26-1.61,10.65-7.15,14-8.6c11.43,0,30-12.61,35.79-15.16a20.82,20.82,0,0,1,12-1,58.19,58.19,0,0,1,.64,6.11C679.77,1575,674.81,1590.78,674.81,1590.78Z"/><path class="edbf9a8f-0b1d-4f12-a5fe-a2808f9a09e5" d="M755.59,1116.83s5.94,15.72,1.32,27.88c0,0,21.79-1.42,22.61-4s-.87-26.11,2.12-33.07S755.59,1116.83,755.59,1116.83Z"/><path class="a6abd33f-c553-47f4-a5d6-814685a83529" d="M753.48,1139.39s-12.88,4.58-18.7,5.85-18,7-17,28.75,4.62,40.54,5.94,49.86.5,33.08-1.65,44.61c0,0,30.87,7.8,67.19,0,0,0-6.44-19.67-6.27-24.76s21.46-47,22.45-53.6,5.28-35.79-4.46-42.23-17.66-5.6-21.79-8.48S759.5,1137.32,753.48,1139.39Z"/><path class="a6abd33f-c553-47f4-a5d6-814685a83529" d="M803.17,1302.58c-52.75,14-94.72.05-94.72.05a129.7,129.7,0,0,0,8.68-23.31h0a140.21,140.21,0,0,0,3.24-15.64h0c4.29-28.73-1.3-50.73-1.3-50.73,6.09-50.11,81.9-65.06,88-49.18s-11.77,84.14-12.68,90S803.17,1302.58,803.17,1302.58Z"/><path class="edbf9a8f-0b1d-4f12-a5fe-a2808f9a09e5" d="M774.58,1053.75c-8.76-3-32.44-6.21-38.51,30.14s7.15,37,20.72,35.94,34.81-25.57,36.43-33S799.57,1062.32,774.58,1053.75Z"/><path class="b284987c-3269-4c20-8d46-525ee6595938" d="M741,1067.71s7.24,15.47,16.72,20.86c0,0,6,16.44,18.82,23.09,0,0,34.16-22.62,14.34-49.51S743.19,1056.67,741,1067.71Z"/><path class="edbf9a8f-0b1d-4f12-a5fe-a2808f9a09e5" d="M756.83,1083.21c.77-1.89,5.89-5,8.19.22s-5.95,14.33-8.21,13.83S753.92,1090.38,756.83,1083.21Z"/><path class="b284987c-3269-4c20-8d46-525ee6595938" d="M789.67,1066.3c.75-1.16,23.37-11.63,28.07,10.25s-18.22,47.32-22.23,58.26,1.81,36.58,1.81,36.58-13.79-13-18-26.68C774.78,1129.72,773.24,1091.93,789.67,1066.3Z"/><path class="bb3d5310-1af9-40b1-8058-1ee478796918" d="M790.81,1065.56s-6.92,5.48-7.82,14.12c0,0-1.3-6.74,1.5-10.86S790.81,1065.56,790.81,1065.56Z"/><path class="ec851e94-5800-4b0d-a5db-359be4e750e9" d="M717.14,1279.31a140.21,140.21,0,0,0,3.24-15.64l.64-4.83a16.2,16.2,0,0,0,4-6.1c1.18-3.54,9.91-47,9.91-47S744.18,1246.56,717.14,1279.31Z"/><path class="edbf9a8f-0b1d-4f12-a5fe-a2808f9a09e5" d="M678.31,1281.83s-6.8,6.76-9,7.43-6.44-3.06-22-4.22c-1.38-.1-3.79,1.13-3.22,2.94s7.37,6.74,10.27,7.5,16.64,6.2,23.33,3.53,11.24-11.19,11.24-11.19Z"/><path class="a6abd33f-c553-47f4-a5d6-814685a83529" d="M731.14,1146.43s-18.06,7.16-19.13,32.26-2,38.21-3,42.08-2.85,19.45-7.4,28.82c-4.41,9.09-33.35,37.86-33.35,37.86l14,13.17s40.34-40.48,42.79-47.88,12.54-58.92,13.34-67.6C739,1178.14,748.25,1147,731.14,1146.43Z"/><path class="b02eb47c-f54c-4100-8cd8-19d04b7d6bf6" d="M560.93,1213.24c0,.86-.09,1.72-.15,2.58h33c.06-.86.09-1.72.12-2.58Zm-368.39-9.12c0,1,0,2,0,3,.06,4.18.24,8.32.6,12.44a195.56,195.56,0,0,0,5.59,34.31,199.88,199.88,0,0,0,52.76,92.36c1,1,2,2,2.94,2.9,3.93,3.79,8,7.44,12.32,10.87a199.76,199.76,0,0,0,126.58,44.94c.8,0,1.6,0,2.4,0a199.59,199.59,0,0,0,99.79-27.9,201.46,201.46,0,0,0,88.16-108.81q2.35-7.07,4.24-14.33a202.84,202.84,0,0,0,4.89-26.58v0c.2-1.92.41-3.85.56-5.8s.33-3.73.41-5.63c.06-.86.09-1.72.12-2.58.09-1.89.15-3.76.18-5.65,0-1.16,0-2.32,0-3.47,0-100.51-73.85-183.78-170.27-198.47-1.87-.3-3.73-.57-5.63-.8-2.07-.24-4.15-.48-6.22-.66-1.87-.17-3.76-.32-5.63-.44-4.33-.3-8.68-.41-13-.41-3.71,0-7.38.09-11,.29-6.25.33-12.42,1-18.52,1.87a201.24,201.24,0,0,0-155,119.29c-.3.65-.57,1.33-.83,2s-.54,1.28-.77,1.9q-2.31,5.55-4.21,11.26a195.55,195.55,0,0,0-7.64,30.48c-.51,2.75-.89,5.54-1.28,8.35,0,.48-.09,1-.14,1.45,0,0,0,.06,0,.12a5.83,5.83,0,0,0-.06.71,7.21,7.21,0,0,0-.12.83v.21a1.76,1.76,0,0,0-.06.41,4.48,4.48,0,0,0-.06.63c-.06.5-.12,1-.15,1.51-.29,3.08-.53,6.19-.68,9.3,0,.41-.06.86-.06,1.27l-.09,2C192.57,1199.53,192.54,1201.81,192.54,1204.12Zm45,62.47-.77-1.95c-.56-1.45-1.1-2.9-1.63-4.39l-1.21-3.55c-.3-.89-.6-1.78-.86-2.67,0-.06,0-.11-.06-.17a3.28,3.28,0,0,1-.15-.51c-.47-1.48-.89-3-1.3-4.5l-.48-1.75c-.44-1.6-.83-3.23-1.21-4.86,0-.15-.09-.32-.12-.5-.33-1.51-.65-3-.95-4.53-.15-.62-.26-1.25-.38-1.87-.36-1.89-.68-3.82-1-5.75-.53-3.37-.92-6.78-1.25-10.21-.11-1.16-.2-2.35-.29-3.53,0,0,0,0,0,0,0-.39,0-.74-.06-1.13-.09-1.6-.18-3.19-.24-4.79v-.48c0-.35,0-.74,0-1.12,0-1.4-.06-2.79-.06-4.18s0-2.61.06-3.88a147.63,147.63,0,0,1,1.07-15.41,14.33,14.33,0,0,1,.18-1.59.11.11,0,0,1,0-.09s0,0,0,0a.06.06,0,0,1,0-.09,1.12,1.12,0,0,1,0-.33v-.06c0-.06,0-.09,0-.12a166.53,166.53,0,0,1,24.91-68.63,168.54,168.54,0,0,1,60.9-57,164.76,164.76,0,0,1,20.38-9.48c2.23-.85,4.51-1.68,6.79-2.43a164.49,164.49,0,0,1,40-8.14c4.44-.39,8.91-.56,13.45-.56,1.36,0,2.69,0,4.05.06,1.57,0,3.11.08,4.69.14,1.12.06,2.25.15,3.37.24a8.89,8.89,0,0,1,.92.06c1.87.12,3.76.3,5.63.5l1.42.18c.74.09,1.51.18,2.25.3s1.69.2,2.55.35c1.9.27,3.76.6,5.63.92l.5.09c1.45.27,2.9.56,4.36.89.08,0,.17,0,.26.06.59.12,1.22.26,1.81.41,1.36.3,2.7.62,4,1,.59.12,1.18.27,1.75.44,1.54.42,3.08.83,4.62,1.31s2.93.89,4.38,1.36c.68.21,1.36.45,2,.68,2.9,1,5.77,2,8.59,3.2.77.3,1.54.62,2.31,1,1.18.5,2.34,1,3.52,1.54,1,.41,1.9.83,2.82,1.3,1.39.62,2.75,1.31,4.11,2q2.31,1.15,4.54,2.4c1.71.92,3.37,1.86,5,2.84,3.44,2,6.76,4.15,10,6.4,1.4.95,2.76,1.92,4.12,3,1.72,1.22,3.38,2.49,5,3.79,1.45,1.16,2.9,2.34,4.32,3.56s2.91,2.49,4.33,3.79a167.39,167.39,0,0,1,54.86,124.12c0,1.15,0,2.31,0,3.47,0,1.89-.09,3.76-.21,5.65,0,.86-.09,1.72-.15,2.58-.14,1.9-.29,3.76-.5,5.63-.53,5.33-1.33,10.57-2.37,15.76a164.26,164.26,0,0,1-4.24,16.65c-1.33,4.32-2.84,8.59-4.53,12.73a167.77,167.77,0,0,1-153.38,105.34c-.8,0-1.6,0-2.4,0a167.83,167.83,0,0,1-148.27-89.1c-.74-1.43-1.48-2.85-2.19-4.27l-1.3-2.72c-.53-1.07-1-2.14-1.51-3.23l-.48-1.07c-.41-1-.83-1.9-1.21-2.87Z"/><circle class="a4899649-f6b4-431a-aae5-c14dffab4027" cx="393.35" cy="1204.13" r="167.23" transform="translate(-736.24 630.82) rotate(-45)"/><path class="b87d0545-03a6-4a36-9dfe-523cc52baa9f" d="M506.29,1080S288.5,1053,245.1,1282.86h0A167.85,167.85,0,0,1,506.29,1080Z"/><rect class="f92bf6c9-aeb8-4ede-a244-a2a27be9771a" x="159.06" y="1469.63" width="92.44" height="5.49"/><rect class="a23d664f-329a-4888-881f-419dd394d83a" x="171.45" y="1489.4" width="8.1" height="249.55" transform="translate(351 3228.35) rotate(180)"/><rect class="bc1c4d29-2e64-4bcb-8ef2-2a982d9ac5af" x="237.03" y="1468.07" width="64.25" height="7.84"/><rect class="a391311e-e589-401b-9da4-e32b4a49e1f6" x="257" y="1401.21" width="24.33" height="73.9"/><rect class="bc2d2078-a3a0-4295-8e8e-be833a8cd62f" x="125.9" y="1475.21" width="356.01" height="14.19"/><path class="af681056-0e49-4a0a-bc11-8fd16d49dd68" d="M57.57,1389.33s-3.89,54.6,6.78,61.14c6.68,4.09,33.33,17.9,32.54,20.49s-15,23-15,23S30.66,1460.29,29,1449.67c-1.61-10.38,2.52-80,9.55-83.16,5.27-2.4,8-.42,14.69,4.51C62.58,1377.94,57.57,1389.33,57.57,1389.33Z"/><path class="a60fcab9-1be4-49ff-8e0d-60d780f556a4" d="M150.87,1404.92l4.51-1.67s-5.63-13.21-8.09-12.89a60.34,60.34,0,0,0-6.35,1.31Z"/><path class="a067e3e6-f905-4aa4-a7d1-af9eb7320438" d="M151.9,1407.2c-.58-.43-9.59-17.73-9.59-17.73l-19.26,2.62,10.4,20.48Z"/><path class="a420f6fa-9cec-4c8f-97b2-87578efd9fe0" d="M120.55,1704.88s-1.59,11-1.79,12.71-17.7-1-17.7-1l-1.42-13.15S118.36,1703.32,120.55,1704.88Z"/><path class="a4a9a265-760f-46f2-b990-ea43e5eba5c2" d="M119,1716.18s5.55,6.66,10.91,9.56,13.8,4,17,7.06c2.29,2.16,8.34,11.5-13.94,11.31s-33,1.32-35.42-2.26,3.46-26.42,3.46-26.42S106.21,1717.33,119,1716.18Z"/><path class="a420f6fa-9cec-4c8f-97b2-87578efd9fe0" d="M232.73,1705s-1.6,11-1.79,12.71-17.71-1-17.71-1l-1.42-13.15S230.54,1703.43,232.73,1705Z"/><path class="a4a9a265-760f-46f2-b990-ea43e5eba5c2" d="M231.12,1716.29s5.55,6.65,10.91,9.56,25.11,5.28,28.28,8.28c2.29,2.17,6.1,10.9-25.25,10.09-22.27-.58-33,1.31-35.41-2.26s3.45-26.42,3.45-26.42S218.07,1717.57,231.12,1716.29Z"/><path class="a4a9a265-760f-46f2-b990-ea43e5eba5c2" d="M64.08,1514s63.66,10.77,78,13,92.33,21.65,102.08,27.56c7.76,4.71-4.07,117.7-6.83,160.81H206.65l-2.22-129.32c-36.85.93-63.14-8.61-90-4.54s-49.2,9.87-66.25-13C48.21,1568.57,47.58,1519,64.08,1514Z"/><path class="a4a9a265-760f-46f2-b990-ea43e5eba5c2" d="M126.82,1715.54l-29.92-1.85L94,1586.11c-15.86.4-21.29-.6-34.13-2.16L35.69,1527.8c21.17,4.23,89,21.34,98.05,26.82C141.5,1559.33,129.59,1672.43,126.82,1715.54Z"/><path class="edbf9a8f-0b1d-4f12-a5fe-a2808f9a09e5" d="M93.38,1275.43s23.34-6.44,32.24,11.67,4.87,52.45-6.89,55.68-28.67-.48-33.56-11.76-8.77-27.29-7.6-37.67S87.19,1277.91,93.38,1275.43Z"/><path class="edbf9a8f-0b1d-4f12-a5fe-a2808f9a09e5" d="M112.63,1339.17s-.26,13.78,1.26,16.71-32.49,2.2-32.49,2.2,5.36-16.54,2.32-30.63S112.63,1339.17,112.63,1339.17Z"/><path class="b6b6cad4-f48a-4bf3-bf97-3e434c8deaff" d="M81.89,1322.23s1.81,3.7,10.62,3.1,20.41-11.22,24.15-12.17,4-3.07,4-3.07l2,3.51,3.83.59s-2.61-10.65,3.06-14.4-2.55-33.93-31.25-26.65c0,0-21.91,4-22.21,16.25S77.63,1315.75,81.89,1322.23Z"/><path class="a598a539-07d8-4eb3-a0f7-017ae097a29c" d="M115.68,1355.53s-.1-5.61-2.64-6.15-26.73-3.87-29.85-2.64l-1.34,7.41S87.86,1357.85,115.68,1355.53Z"/><path class="edbf9a8f-0b1d-4f12-a5fe-a2808f9a09e5" d="M122.68,1307.58c-.65-4.6-5.88-9.88-8.88-2.72s2,17.6,5.39,17S123.57,1313.82,122.68,1307.58Z"/><path class="b02eb47c-f54c-4100-8cd8-19d04b7d6bf6" d="M217,1421.83h0C217.14,1421.9,217.16,1421.91,217,1421.83Z"/><path class="b6b6cad4-f48a-4bf3-bf97-3e434c8deaff" d="M86.58,1278.72s-28.45-1.34-5,43.07Z"/><polygon class="e3841c7b-6a20-4fc1-80ba-ab4eeed376ab" points="23.19 1730.67 25.3 1736.62 114.73 1708.92 110.44 1696.86 23.19 1730.67"/><rect class="e3841c7b-6a20-4fc1-80ba-ab4eeed376ab" x="107.63" y="1607.45" width="10.16" height="97.22"/><rect class="f159127a-c351-49cc-9675-56a175ab0b69" x="82.74" y="1602.29" width="59.95" height="5.73"/><polygon class="e3841c7b-6a20-4fc1-80ba-ab4eeed376ab" points="203.03 1730.67 200.91 1736.62 111.48 1708.92 115.42 1696.11 203.03 1730.67"/><polygon class="e3841c7b-6a20-4fc1-80ba-ab4eeed376ab" points="140.02 1735.99 140.02 1742.91 111.48 1708.92 115.42 1696.11 140.02 1735.99"/><path class="a47b97d9-c657-4b58-85a9-4406ac2b31db" d="M211.38,1739a8.36,8.36,0,1,1-8.36-8.36A8.36,8.36,0,0,1,211.38,1739Z"/><path class="a47b97d9-c657-4b58-85a9-4406ac2b31db" d="M140.73,1739a8.36,8.36,0,1,1-8.36-8.36A8.36,8.36,0,0,1,140.73,1739Z"/><path class="a47b97d9-c657-4b58-85a9-4406ac2b31db" d="M31.55,1739a8.36,8.36,0,1,1-8.36-8.36A8.36,8.36,0,0,1,31.55,1739Z"/><rect class="a598a539-07d8-4eb3-a0f7-017ae097a29c" x="42.1" y="1580.59" width="142.02" height="21.7" rx="10.71"/><rect class="a23d664f-329a-4888-881f-419dd394d83a" x="428.26" y="1489.4" width="8.1" height="249.55"/><rect class="af371f2c-3afc-4373-8da8-411ab249d7c3" x="164.11" y="1288.6" width="210.1" height="148.22" rx="10.69"/><rect class="b89a241b-efb1-44ab-8dd7-4db8fc376b27" x="172.34" y="1296.61" width="193.65" height="116.98"/><rect class="a2d9c08d-e4cb-43d3-b191-d6eae1eda2dc" x="172.34" y="1296.61" width="193.65" height="9.31"/><rect class="a2d9c08d-e4cb-43d3-b191-d6eae1eda2dc" x="177.81" y="1312.92" width="42.59" height="8.66" rx="3.57"/><rect class="a2d9c08d-e4cb-43d3-b191-d6eae1eda2dc" x="177.81" y="1327.38" width="42.59" height="81.39" rx="7.38"/><path class="adb2e611-8dff-47a0-a63c-47cc60ffbf2b" d="M312.66,1475.4v-2.64s-3.71-16.4-29.94-16.4-25.7,19-25.7,19Z"/><path class="edbf9a8f-0b1d-4f12-a5fe-a2808f9a09e5" d="M256.7,1458.79s5.7-.44,7.79-1.7,14.58-9.66,17.51-8.31,22.46,7.32,21.78,10.18-2.48,2.58-3.86,2.07-15.56-3.48-16.81-3c0,0,13.93,5.08,14,8.79s-2.91,4.61-4.23,6-2.91,4.88-6.49,5.15-21.1-5.83-24.71-6.1-10.27.22-10.73-.37S256.7,1458.79,256.7,1458.79Z"/><path class="af681056-0e49-4a0a-bc11-8fd16d49dd68" d="M153,1363.31c-18.17-3.2-37.29-7.78-37.29-7.78l-33.84-1.38s-31.05,6.84-43.28,12.36c-1.16.52-1.16,27.7-4.35,34.83l10.14,21.39s5.86,42.37,7.08,61.22c.55,8.65-1.58,83.61-1.58,83.61s3,1.5,26.13,4,80.79-.92,81.15-3.65S146,1466.4,145.45,1461.28c-.79-7.86,2.27-44.16,2.27-44.16,4.35,5.85,15.44,32.24,27,44.8,6.8,7.39,40.48,11.92,46.82,12.13,13.82.46,39,3.21,39.76,1.86.59-.8,2.2-22.37.62-22.9-1.38-.46-48.19-3.15-60.18-9.51-4.39-2.33-17.5-30.93-17.5-30.93S163,1367.81,153,1363.31Z"/><rect class="a598a539-07d8-4eb3-a0f7-017ae097a29c" x="8.92" y="1429.74" width="97.94" height="135.65" rx="20.57"/><path class="a598a539-07d8-4eb3-a0f7-017ae097a29c" d="M89.5,1596.89c-14.43,0-26.14-4.85-34.81-14.42-19.58-21.61-16.06-59.61-15.9-61.22a5.45,5.45,0,0,1,10.85,1.07c0,.44-3.16,34.88,13.15,52.86,6.6,7.27,15.34,10.81,26.71,10.81a5.45,5.45,0,0,1,0,10.9Z"/><path class="bfa190b7-e792-4456-a76d-9e43944605cd" d="M229,1355.1a40.12,40.12,0,0,0,13.9,30.38q.69.6,1.41,1.17c.54.42,1.09.84,1.65,1.24a40.08,40.08,0,0,0,18.27,7.07c1.19.14,2.39.24,3.61.28l1.32,0c1.3,0,2.59-.06,3.85-.18a40.86,40.86,0,0,0,4.18-.63,39.94,39.94,0,0,0,16.42-7.49,40.39,40.39,0,0,0,4.05-3.57l.73-.75c.9-1,1.75-2,2.55-3A40.16,40.16,0,1,0,229,1355.1Z"/><path class="b9116c34-5250-45b1-9518-9ff19cece525" d="M243,1377.26l3,10.63a40.08,40.08,0,0,0,18.27,7.07c1.19.14,2.39.24,3.61.28l1.32,0c1.3,0,2.59-.06,3.85-.18a40.86,40.86,0,0,0,4.18-.63,39.94,39.94,0,0,0,16.42-7.49c.56-3.51,1.17-7.4,1.71-11-2.95-1.1-12.35-4.29-18.27-6.3l-.25-.08-.39-.13-1-.34-.92-.31-2.38-.8h0l-.12,0h-.06l-8,.6-1.34.1-.41,0-.18,0c-.48.13-1.88.49-3.73,1.06h0C253.55,1371.19,245.89,1373.94,243,1377.26Z"/><path class="bc0031ec-9b7f-4c54-8602-1d837167c583" d="M267.07,1335.16s-9.56,1.61-7.94,16.58,10.06,13.65,10.63,13.63,8.49.18,8.9-18.13C278.66,1347.24,278.79,1333.71,267.07,1335.16Z"/><path class="bc0031ec-9b7f-4c54-8602-1d837167c583" d="M262.88,1361s.33,6.16-.25,7.5,7.68,5.58,12.81.75c0,0-1-6.73-.72-9.11S262.88,1361,262.88,1361Z"/><path class="bc0031ec-9b7f-4c54-8602-1d837167c583" d="M258.94,1347.51s-1.06-1.11-1.44,0,1.7,6.18,1.57,6.41c0,0,.2.44.44.19S258.94,1347.51,258.94,1347.51Z"/><path class="bc0031ec-9b7f-4c54-8602-1d837167c583" d="M278.55,1347.1s1-1.15,1.44,0-1.11,6.16-1.3,6.48c0,0-.33.51-.59.28S278.55,1347.1,278.55,1347.1Z"/><path class="a35be9ef-1089-4bc7-86b4-edf1ce7ebd66" d="M258.32,1346.24c.33,2,.65,3.57.65,3.57l1.39,1.81a35.32,35.32,0,0,1,.13-4.65c.08-.24.17-.66.27-1.12a17.37,17.37,0,0,1,.44-1.89c.17-.46,8.19-2.8,15.33.49,0,0-.06.61-.06,1.3s.09,1.7.46,1.84c.69.25.4,4.7.4,4.7l1.11-1.28s.33-2.33.64-5v0c.08-.62.15-1.26.22-1.9.16-2.69-.11-7.57-3.61-10.44-2.36-1-6.13-1.87-12.42,0a4.37,4.37,0,0,0-1.85.49C257.51,1338.5,258.32,1346.24,258.32,1346.24Z"/><path class="a167764c-00f5-4d32-8088-f8acca594a04" d="M274.07,1363.37a6.11,6.11,0,0,1-5.07,2,6.92,6.92,0,0,1-5.09-1.92s1.68,3.51,5.1,3.47S274.07,1363.37,274.07,1363.37Z"/><path class="bc0031ec-9b7f-4c54-8602-1d837167c583" d="M276.41,1369.41s-2.56,4.46-7.42,4.88c-3.09.27-5.76-3.64-7-5.56A18.66,18.66,0,0,1,276.41,1369.41Z"/><path class="ef619841-5f51-4cfe-9b69-060f7a308dc9" d="M262.87,1367.32a26.4,26.4,0,0,0,6.12,5.3l-2.59,4-4.42-7.88Z"/><path class="ef619841-5f51-4cfe-9b69-060f7a308dc9" d="M275.24,1367.92a17.77,17.77,0,0,1-6.25,4.7l2.84,4.11,5-7.19Z"/><path class="a99cbdb3-7360-4923-9bc4-86e0dab2f51b" d="M269,1372.62l-2.22,3.38a4.64,4.64,0,0,0,4.5-.09Z"/><path class="b02eb47c-f54c-4100-8cd8-19d04b7d6bf6" d="M240.44,1376.63l.06.22c.24.87,1.18,4.2,2.4,8.63q.69.6,1.41,1.17c.54.42,1.09.84,1.65,1.24a40.08,40.08,0,0,0,18.27,7.07c-.6-13.9-2.25-26.23-2.25-26.23-1.3.34-2.53.68-3.7,1h0c-10.19,2.92-15.36,5.49-17.12,6.46l0,0C240.65,1376.49,240.44,1376.63,240.44,1376.63Z"/><path class="b02eb47c-f54c-4100-8cd8-19d04b7d6bf6" d="M277.19,1394.45a39.94,39.94,0,0,0,16.42-7.49,40.39,40.39,0,0,0,4.05-3.57l.73-.75c.7-3,1.17-4.94,1.2-5.06h0s-5-3.27-22.54-8h0C277.05,1370,277,1381.3,277.19,1394.45Z"/><path class="a99cbdb3-7360-4923-9bc4-86e0dab2f51b" d="M267.72,1376.37c.16,3.66.18,10.76.12,18.87l1.32,0c1.3,0,2.59-.06,3.85-.18a121.66,121.66,0,0,0-2.67-18.72c-.19-.81-.31-1.22-.31-1.22l-2.36.39C267.69,1375.79,267.7,1376.06,267.72,1376.37Z"/><path class="b02eb47c-f54c-4100-8cd8-19d04b7d6bf6" d="M238.41,1380.93a40.21,40.21,0,0,0,4.49,4.55q.69.6,1.41,1.17l-3.16-10.44h0l0,0a2.76,2.76,0,0,0-.61.62A19.85,19.85,0,0,0,238.41,1380.93Z"/><path class="b02eb47c-f54c-4100-8cd8-19d04b7d6bf6" d="M297.66,1383.39l.73-.75c.9-1,1.75-2,2.55-3a4.54,4.54,0,0,0-1.35-2.08h0Z"/><path class="be504563-267f-444b-82b4-96f9d4323322" d="M1394.19,893.69l-.15-1.94c-.45-4,.89-8.42,4.62-12.9,3.36-4,5.22-6.86,5.22-10.22,0-3.8-2.38-6.34-7.08-6.41a13.2,13.2,0,0,0-7.53,2.31l-1.79-4.7c2.46-1.79,6.71-3,10.66-3,8.58,0,12.46,5.29,12.46,11,0,5.07-2.84,8.73-6.42,13-3.28,3.88-4.47,7.16-4.25,11l.08,1.94Zm-1.64,10.44a4.4,4.4,0,0,1,4.47-4.69,4.67,4.67,0,1,1-4.47,4.69Z"/></g></g></svg>