<svg xmlns="http://www.w3.org/2000/svg" xmlns:xlink="http://www.w3.org/1999/xlink" width="66" height="66.001" viewBox="0 0 66 66.001">
  <defs>
    <linearGradient id="linear-gradient" y1="0.5" x2="1" y2="0.5" gradientUnits="objectBoundingBox">
      <stop offset="0" stop-color="#1e88ba"/>
      <stop offset="1" stop-color="#38bfae"/>
    </linearGradient>
  </defs>
  <g id="ball-icon_copy" data-name="ball-icon copy" transform="translate(-425 -3047)">
    <g id="ball-icon_copy-2" data-name="ball-icon copy" transform="translate(425 3037.294)">
      <g id="Group_35" data-name="Group 35">
        <g id="Group_34" data-name="Group 34">
          <g id="Group_33" data-name="Group 33">
            <path id="Path_39" data-name="Path 39" d="M66,42.706a32.827,32.827,0,0,0-1.858-10.9l.093-.044c-.021-.046-.136-.282-.336-.634A33.089,33.089,0,0,0,37.532,10.024c-.086-.027-.17-.051-.249-.07l-.01.037A33.269,33.269,0,0,0,33,9.706,32.8,32.8,0,0,0,15,15.07c-.187.065-.3.11-.313.114l.028.069A32.994,32.994,0,0,0,0,42.568c0,.065,0,.117,0,.138A33,33,0,0,0,63.515,55.252l.072,0c0-.025-.005-.081-.011-.151A32.807,32.807,0,0,0,66,42.706ZM59.143,26.317a6.283,6.283,0,0,0-2.724-.643A8.359,8.359,0,0,0,50.544,28.2q-1.771-2.071-3.872-4.191c3.156-2.392,5.591-3.947,6.589-4.561A31.123,31.123,0,0,1,59.143,26.317ZM41.039,12.9a30.781,30.781,0,0,1,10.48,5.12c-1.3.824-3.585,2.342-6.4,4.49a36.606,36.606,0,0,0-5.137-3.921,5.507,5.507,0,0,0,1.534-3.565A4.81,4.81,0,0,0,41.039,12.9ZM33,11.835a31.028,31.028,0,0,1,4.027.271,3.225,3.225,0,0,1,2.36,2.922,3.8,3.8,0,0,1-1.274,2.461A30.133,30.133,0,0,0,22.2,13.79,30.714,30.714,0,0,1,33,11.835ZM15.952,16.986a26.657,26.657,0,0,1,20.438,1.969c-3.272,2.357-9.449,5.1-19.632,7.819C9.6,28.684,5.5,31.831,3.152,34.826A30.979,30.979,0,0,1,15.952,16.986ZM2.129,42.706c0-.1.174-9.873,15.178-13.875,7.758-2.069,16.558-5.047,21.109-8.741a34.98,34.98,0,0,1,4.995,3.755,95.88,95.88,0,0,0-13.353,12.85A153.957,153.957,0,0,0,11.626,64.948,30.773,30.773,0,0,1,2.129,42.706ZM33.922,73.553c-.307.01-.613.023-.922.023a30.723,30.723,0,0,1-19.733-7.151A151.9,151.9,0,0,1,31.683,38.071,93.847,93.847,0,0,1,44.977,25.319l.045.043c1.505,1.505,2.869,3,4.112,4.473-2.76,3.747-4.424,9.779-4.424,17.129C44.71,62.091,41.078,71.028,33.922,73.553Zm5.144-.578c5.155-4.458,7.773-13.161,7.773-26.011,0-6.647,1.375-12.1,3.652-15.464C59.4,42.767,61.107,52.419,61.4,54.8A30.982,30.982,0,0,1,39.066,72.975ZM62.8,50.739c-1.152-4.621-3.983-12.317-10.922-20.931a6.433,6.433,0,0,1,4.537-2c2.774,0,4.812,2.982,5.567,4.278A30.848,30.848,0,0,1,62.8,50.739Z" fill="none"/>
            <rect id="Rectangle_9" data-name="Rectangle 9" width="2.129" height="2.129" transform="translate(43.645 28.867)" fill="none"/>
            <rect id="Rectangle_10" data-name="Rectangle 10" width="2.129" height="2.129" transform="translate(37.258 22.48)" fill="none"/>
            <rect id="Rectangle_11" data-name="Rectangle 11" width="2.129" height="2.129" transform="translate(43.645 17.157)" fill="none"/>
            <rect id="Rectangle_12" data-name="Rectangle 12" width="2.129" height="2.129" transform="translate(50.032 23.545)" fill="none"/>
          </g>
        </g>
      </g>
    </g>
    <path id="Gradient_Overlay" data-name="Gradient Overlay" d="M425,3080c0-.021,0-.074,0-.138a32.994,32.994,0,0,1,14.709-27.314l-.027-.069c.012,0,.125-.049.312-.114A32.807,32.807,0,0,1,458,3047a33.282,33.282,0,0,1,4.272.285l.01-.037c.079.019.163.043.249.07a33.091,33.091,0,0,1,26.367,21.106c.2.353.315.589.336.635l-.093.044a32.9,32.9,0,0,1-.565,23.288c.005.07.01.126.011.151l-.072,0A33,33,0,0,1,425,3080Zm31.684-4.635a151.886,151.886,0,0,0-18.417,28.354A30.725,30.725,0,0,0,458,3110.871c.309,0,.615-.014.922-.023,7.156-2.525,10.787-11.462,10.787-26.59,0-7.35,1.664-13.382,4.424-17.129-1.243-1.473-2.606-2.968-4.112-4.473l-.045-.043A93.889,93.889,0,0,0,456.683,3075.365Zm15.155,8.893c0,12.851-2.617,21.553-7.773,26.012a30.981,30.981,0,0,0,22.337-18.18c-.3-2.377-2-12.03-10.912-23.3C473.214,3072.163,471.839,3077.611,471.839,3084.258Zm-29.532-18.133c-15,4-15.178,13.777-15.178,13.875a30.77,30.77,0,0,0,9.5,22.242,153.97,153.97,0,0,1,18.432-28.253,95.889,95.889,0,0,1,13.353-12.85,35.025,35.025,0,0,0-4.994-3.755C458.864,3061.078,450.065,3064.055,442.307,3066.125Zm34.575.977c6.939,8.614,9.77,16.311,10.922,20.931a30.844,30.844,0,0,0-.818-18.657c-.756-1.3-2.793-4.279-5.567-4.279A6.435,6.435,0,0,0,476.882,3067.1Zm-35.931-12.821a30.981,30.981,0,0,0-12.8,17.84c2.348-3,6.446-6.143,13.606-8.052,10.183-2.715,16.359-5.462,19.632-7.818a27.618,27.618,0,0,0-12.742-3.152A24.336,24.336,0,0,0,440.951,3054.281Zm30.721,7.02q2.1,2.116,3.872,4.191a8.359,8.359,0,0,1,5.875-2.525,6.284,6.284,0,0,1,2.724.644,31.119,31.119,0,0,0-5.882-6.872C477.264,3057.353,474.828,3058.908,471.672,3061.3Zm-5.156-8.978a5.509,5.509,0,0,1-1.534,3.566,36.607,36.607,0,0,1,5.137,3.92c2.814-2.148,5.1-3.667,6.4-4.49a30.8,30.8,0,0,0-10.48-5.121A4.816,4.816,0,0,1,466.516,3052.322Zm-3.4,2.461a3.8,3.8,0,0,0,1.273-2.461,3.223,3.223,0,0,0-2.36-2.921,30.583,30.583,0,0,0-14.831,1.684q.682-.033,1.409-.033A30.181,30.181,0,0,1,463.113,3054.784Zm5.532,13.506v-2.129h2.128v2.129Zm6.386-5.323v-2.128h2.129v2.128Zm-12.774-1.065v-2.128h2.128v2.128Zm6.387-5.323v-2.128h2.128v2.128Z" fill="url(#linear-gradient)"/>
  </g>
</svg>
