<svg xmlns="http://www.w3.org/2000/svg" xmlns:xlink="http://www.w3.org/1999/xlink" width="82" height="82" viewBox="0 0 82 82">
  <defs>
    <linearGradient id="linear-gradient" y1="0.5" x2="1" y2="0.5" gradientUnits="objectBoundingBox">
      <stop offset="0" stop-color="#1e88ba"/>
      <stop offset="1" stop-color="#38bfae"/>
    </linearGradient>
  </defs>
  <g id="beach-icon" transform="translate(-417 -5440)">
    <g id="beach-icon-2" data-name="beach-icon" transform="translate(417 5427.941)">
      <g id="Group_3" data-name="Group 3">
        <g id="Group_2" data-name="Group 2">
          <g id="Group_1" data-name="Group 1">
            <path id="Path_5" data-name="Path 5" d="M56.792,91.555l-2-1.335a25.9,25.9,0,0,0-14.4-4.361h-24.7c8.277-4.167,16.4-11.993,24.239-23.4.667-.972,1.3-1.934,1.919-2.888a1.4,1.4,0,0,0,.12-.081,1.322,1.322,0,0,0,.333-.625,141.727,141.727,0,0,0,9.122-16.676c7.914,4.11,21.3,10.9,21.464,10.988a1.375,1.375,0,0,0,.619.148,1.368,1.368,0,0,0,1.367-1.367c0-5.6-3.906-12.422-8.738-15.3H77.9a1.367,1.367,0,0,0,1.367-1.367A9.577,9.577,0,0,0,69.7,25.725H64.4l9.785-5.65a1.366,1.366,0,0,0,.5-1.867,9.577,9.577,0,0,0-13.068-3.5L50.567,21.09V13.425A1.367,1.367,0,0,0,49.2,12.059a9.579,9.579,0,0,0-9.563,9.261L27.478,14.707a9.578,9.578,0,0,0-13.068,3.5,1.367,1.367,0,0,0,.5,1.867l9.787,5.65H19.4a9.817,9.817,0,0,0-9.567,9.567A1.367,1.367,0,0,0,11.2,36.659H22.967c-4.831,2.878-8.738,9.7-8.738,15.3a1.368,1.368,0,0,0,1.927,1.246L41.437,41.866C33.88,60.06,1.156,74.89.809,75.044A1.366,1.366,0,0,0,0,76.292v16.4a1.367,1.367,0,0,0,1.367,1.367H56.033a1.367,1.367,0,0,0,.758-2.5Zm-10.873-44.4-3.2-1.6a26.83,26.83,0,0,0,2.122-5.028l1.473-.368,2.474,1.237C48.232,42.581,47.259,44.61,45.919,47.156ZM17.19,49.747c.831-4.219,3.832-8.812,7.288-10.806l3.952-2.282h5.736a1.367,1.367,0,1,0,0-2.733H12.733A7.122,7.122,0,0,1,19.4,28.459H29.5l5.733,2.61a1.367,1.367,0,1,0,1.133-2.487l-5.942-2.706L17.579,18.46a6.86,6.86,0,0,1,8.562-1.369l14.205,7.724a1.367,1.367,0,0,0,2.02-1.2v-1.99a6.844,6.844,0,0,1,5.467-6.7v8.527a1.367,1.367,0,0,0,2.05,1.184l13.1-7.566a6.845,6.845,0,0,1,8.532,1.386L58.675,25.876l-5.942,2.706a1.367,1.367,0,1,0,1.133,2.487l5.735-2.61H69.7a6.844,6.844,0,0,1,6.7,5.467H54.667a1.367,1.367,0,1,0,0,2.733h6l3.954,2.282c3.417,1.972,6.388,6.482,7.26,10.66-5.431-2.762-19.151-9.754-23.5-12.1a4.05,4.05,0,0,0-3.758-.063Zm24.118-1.84,3.313,1.656c-1.129,2.049-2.446,4.32-3.94,6.709L37.411,53A44.53,44.53,0,0,0,41.308,47.908Zm-5.751,7.107,3.618,3.618c-1.393,2.127-2.919,4.308-4.556,6.47L30.4,59.825C32.2,58.3,33.938,56.687,35.557,55.014Zm-7.275,6.542,4.611,5.763c-1.63,2.034-3.365,4.023-5.192,5.911l-5.812-6.974C24.023,64.8,26.18,63.23,28.282,61.557ZM19.6,67.776l6.154,7.385A53.39,53.39,0,0,1,18.106,81.3L11.585,72.6C14.026,71.24,16.761,69.619,19.6,67.776ZM2.733,77.17c1.173-.547,3.48-1.658,6.43-3.238l6.594,8.793a31.825,31.825,0,0,1-7.724,3.134h-5.3Zm0,14.156V88.592H40.385a23.163,23.163,0,0,1,10.936,2.733Z" fill="none"/>
            <path id="Path_6" data-name="Path 6" d="M71.067,66.725a8.2,8.2,0,1,0-8.2,8.2A8.208,8.208,0,0,0,71.067,66.725Zm-8.2,5.467a5.467,5.467,0,1,1,5.467-5.467A5.472,5.472,0,0,1,62.867,72.192Z" fill="none"/>
            <path id="Path_7" data-name="Path 7" d="M80.633,81.759H79.217a4.783,4.783,0,0,0-9.468,0H65.6a1.367,1.367,0,1,0,0,2.733h5.467a1.367,1.367,0,0,0,1.367-1.367v-.683a2.05,2.05,0,0,1,4.1,0v.683A1.367,1.367,0,0,0,77.9,84.492h2.733a1.367,1.367,0,1,0,0-2.733Z" fill="none"/>
            <path id="Path_8" data-name="Path 8" d="M60.133,81.759H58.767a1.367,1.367,0,1,0,0,2.733h1.367a1.367,1.367,0,1,0,0-2.733Z" fill="none"/>
            <path id="Path_9" data-name="Path 9" d="M71.067,87.225H69.7a1.367,1.367,0,0,0,0,2.733h1.367a1.367,1.367,0,0,0,0-2.733Z" fill="none"/>
            <path id="Path_10" data-name="Path 10" d="M46.467,77.659h5.467a1.367,1.367,0,1,0,0-2.733h-4.1a4.1,4.1,0,1,0-8.2,0v1.367a1.367,1.367,0,0,0,2.733,0V74.925a1.367,1.367,0,1,1,2.733,0v1.367A1.367,1.367,0,0,0,46.467,77.659Z" fill="none"/>
          </g>
        </g>
      </g>
    </g>
    <path id="Gradient_Overlay" data-name="Gradient Overlay" d="M418.367,5522a1.367,1.367,0,0,1-1.366-1.367v-16.4a1.362,1.362,0,0,1,.808-1.247c.348-.155,33.072-14.985,40.629-33.179l-25.282,11.339a1.368,1.368,0,0,1-1.928-1.246c0-5.6,3.908-12.423,8.739-15.3H428.2a1.367,1.367,0,0,1-1.366-1.366,9.816,9.816,0,0,1,9.566-9.566h5.3l-9.785-5.65a1.365,1.365,0,0,1-.5-1.867,9.576,9.576,0,0,1,13.067-3.5l12.161,6.61A9.578,9.578,0,0,1,466.2,5440a1.368,1.368,0,0,1,1.366,1.367v7.665l11.055-6.382a9.577,9.577,0,0,1,13.068,3.5,1.367,1.367,0,0,1-.5,1.867l-9.787,5.65h5.3a9.576,9.576,0,0,1,9.566,9.566,1.366,1.366,0,0,1-1.366,1.366H483.133c4.832,2.88,8.739,9.7,8.739,15.3a1.365,1.365,0,0,1-.653,1.164,1.351,1.351,0,0,1-.715.2,1.371,1.371,0,0,1-.618-.147c-.166-.083-13.549-6.879-21.464-10.988a141.519,141.519,0,0,1-9.122,16.676,1.328,1.328,0,0,1-.334.625,1.35,1.35,0,0,1-.121.081c-.618.954-1.251,1.917-1.918,2.888-7.837,11.407-15.963,19.231-24.24,23.4h24.7a25.9,25.9,0,0,1,14.4,4.361l2,1.334a1.367,1.367,0,0,1-.759,2.5Zm1.366-2.733h48.588a23.158,23.158,0,0,0-10.936-2.734H419.733Zm0-14.156v8.689h5.3a31.8,31.8,0,0,0,7.725-3.133l-6.594-8.794C423.213,5503.454,420.906,5504.563,419.733,5505.111Zm8.851-4.565,6.52,8.695a53.34,53.34,0,0,0,7.647-6.138l-6.155-7.385C433.761,5497.56,431.027,5499.181,428.585,5500.546Zm10.3-6.347,5.812,6.973c1.828-1.887,3.562-3.877,5.193-5.911l-4.612-5.764C443.18,5491.171,441.023,5492.744,438.889,5494.2Zm8.509-6.433,4.22,5.278c1.637-2.163,3.164-4.344,4.557-6.47l-3.618-3.619C450.938,5484.628,449.2,5486.237,447.4,5487.766Zm7.014-6.82,3.269,3.269c1.494-2.391,2.81-4.661,3.94-6.71l-3.314-1.656A44.492,44.492,0,0,1,454.411,5480.946Zm-12.933-14.063c-3.456,1.993-6.458,6.587-7.288,10.807l27.437-12.306a4.05,4.05,0,0,1,3.758.063c4.346,2.342,18.066,9.334,23.5,12.1-.872-4.178-3.843-8.687-7.26-10.66l-3.954-2.283h-6a1.366,1.366,0,0,1,0-2.733h21.729a6.842,6.842,0,0,0-6.695-5.467H476.6l-5.736,2.609a1.346,1.346,0,0,1-.565.125,1.367,1.367,0,0,1-.567-2.611l5.942-2.707,12.844-7.416a6.846,6.846,0,0,0-8.533-1.386l-13.1,7.566a1.367,1.367,0,0,1-2.051-1.185v-8.526a6.844,6.844,0,0,0-5.466,6.695v1.99a1.368,1.368,0,0,1-2.021,1.2l-14.2-7.725a6.859,6.859,0,0,0-8.562,1.369l12.844,7.416,5.941,2.707a1.367,1.367,0,0,1-.567,2.611,1.351,1.351,0,0,1-.565-.125L446.5,5456.4H436.4a7.12,7.12,0,0,0-6.666,5.467h21.433a1.366,1.366,0,0,1,0,2.733h-5.736Zm20.358,1.584a26.835,26.835,0,0,1-2.123,5.028l3.205,1.6c1.34-2.546,2.313-4.576,2.865-5.763l-2.474-1.237ZM486.7,5517.9a1.366,1.366,0,0,1,0-2.733h1.366a1.366,1.366,0,1,1,0,2.733Zm8.2-5.465a1.367,1.367,0,0,1-1.366-1.367v-.685a2.05,2.05,0,0,0-4.1,0v.685a1.368,1.368,0,0,1-1.366,1.367H482.6a1.367,1.367,0,1,1,0-2.734h4.148a4.783,4.783,0,0,1,9.468,0h1.418a1.367,1.367,0,0,1,0,2.734Zm-19.133,0a1.367,1.367,0,0,1,0-2.734h1.366a1.367,1.367,0,0,1,0,2.734Zm-12.3-6.834a1.367,1.367,0,0,1-1.366-1.366v-1.367a1.366,1.366,0,1,0-2.733,0v1.367a1.367,1.367,0,0,1-2.734,0v-1.367a4.1,4.1,0,1,1,8.2,0h4.1a1.366,1.366,0,1,1,0,2.733Zm8.2-10.934a8.2,8.2,0,1,1,8.2,8.2A8.209,8.209,0,0,1,471.666,5494.666Zm2.734,0a5.466,5.466,0,1,0,5.466-5.466A5.472,5.472,0,0,0,474.4,5494.666Z" fill="url(#linear-gradient)"/>
  </g>
</svg>
