<svg xmlns="http://www.w3.org/2000/svg" xmlns:xlink="http://www.w3.org/1999/xlink" width="82.001" height="78" viewBox="0 0 82.001 78">
  <defs>
    <linearGradient id="linear-gradient" y1="0.5" x2="1" y2="0.5" gradientUnits="objectBoundingBox">
      <stop offset="0" stop-color="#1e88ba"/>
      <stop offset="1" stop-color="#38bfae"/>
    </linearGradient>
  </defs>
  <g id="fireworks-icon" transform="translate(-1493 -6652)">
    <g id="fireworks-icon-2" data-name="fireworks-icon" transform="translate(1493 6638.081)">
      <path id="Path_1" data-name="Path 1" d="M34.5,15.658a1.529,1.529,0,0,1,3.028-.427l2.421,17.074a1.529,1.529,0,0,1-3.028.427ZM74.808,21.5l-1.2,1.194a1.527,1.527,0,1,0,2.163,2.157l1.2-1.194,1.2,1.194a1.527,1.527,0,1,0,2.163-2.157l-1.2-1.194,1.2-1.195a1.527,1.527,0,0,0-2.163-2.157l-1.2,1.194-1.2-1.194A1.527,1.527,0,1,0,73.61,20.3ZM30.438,41.308a1.528,1.528,0,0,0,2.428-1.855L19.366,21.88a1.528,1.528,0,0,0-2.428,1.855ZM5.34,27.064l.506.388a1.527,1.527,0,1,0,1.864-2.419L7.2,24.645A1.527,1.527,0,1,0,5.34,27.064Zm-1.292,18.9a1.525,1.525,0,1,0-.4,3.024l15.638,2.065a1.558,1.558,0,0,0,.2.013,1.525,1.525,0,0,0,.2-3.037Zm6.276-15.081L25.188,42.278a1.527,1.527,0,1,0,1.864-2.419L12.188,28.467a1.527,1.527,0,1,0-1.864,2.418Zm32.887,3.3a1.527,1.527,0,0,0,1.721-1.306l2.342-17.222a1.529,1.529,0,0,0-3.03-.41L41.9,32.471A1.526,1.526,0,0,0,43.211,34.188ZM78.07,55.742,57.1,52.972A1.525,1.525,0,1,0,56.7,56l20.973,2.77a1.525,1.525,0,1,0,.4-3.024Zm1.322-8.407a1.529,1.529,0,0,0-1.715-1.314L61.943,48.075a1.525,1.525,0,0,0,.2,3.038,1.546,1.546,0,0,0,.2-.013l15.735-2.054A1.526,1.526,0,0,0,79.393,47.335ZM69.564,28.509,54.76,39.822a1.527,1.527,0,0,0,1.86,2.421l14.8-11.312a1.527,1.527,0,1,0-1.86-2.421Zm-4.09-8.11a1.532,1.532,0,0,0,2.144-.279l.135-.175a1.528,1.528,0,0,0-2.424-1.86l-.135.175A1.522,1.522,0,0,0,65.474,20.4ZM68.2,16.865a1.531,1.531,0,0,0,2.144-.278l.143-.185a1.528,1.528,0,0,0-2.424-1.861l-.142.185A1.522,1.522,0,0,0,68.2,16.865ZM49.229,41.5a1.532,1.532,0,0,0,2.144-.28L64.82,23.771A1.528,1.528,0,0,0,62.4,21.912L48.949,39.363A1.522,1.522,0,0,0,49.229,41.5ZM3.008,23.351a1.523,1.523,0,0,0-.281-2.139l-.266-.2A1.527,1.527,0,1,0,.6,23.428l.266.2a1.532,1.532,0,0,0,2.144-.28Zm47.6,40.885a1.528,1.528,0,0,1-2.333,1.635l-7.163-4.764L33.4,65.9a1.528,1.528,0,0,1-2.28-1.708l2.329-8.266L26.492,50.08a1.524,1.524,0,0,1,.924-2.69l8.6-.345,3.423-8.4a1.53,1.53,0,0,1,2.851.045l2.987,8.053,9.069.651a1.524,1.524,0,0,1,.838,2.718l-6.756,5.322Zm-4.85-10.589,4.437-3.5-6.121-.44a1.528,1.528,0,0,1-1.324-.992l-1.962-5.289L38.48,49.1a1.529,1.529,0,0,1-1.355.95l-5.65.227,4.693,3.944a1.523,1.523,0,0,1,.487,1.579l-1.53,5.429L40.338,58a1.533,1.533,0,0,1,1.656.026l4.7,3.129-1.473-5.942A1.524,1.524,0,0,1,45.762,53.648Zm25.3,35.531a1.528,1.528,0,0,0-2.427,1.856l.221.288a1.528,1.528,0,0,0,2.427-1.856ZM4.071,41.6l1.2-1.194,1.2,1.194a1.527,1.527,0,1,0,2.162-2.157l-1.2-1.194,1.2-1.194A1.527,1.527,0,0,0,6.466,34.9l-1.2,1.194L4.071,34.9a1.527,1.527,0,0,0-2.163,2.157l1.2,1.194-1.2,1.194A1.527,1.527,0,0,0,4.071,41.6ZM68.12,85.347,67.9,85.06a1.528,1.528,0,0,0-2.427,1.856l.221.287a1.528,1.528,0,0,0,2.427-1.856ZM80.355,67.7l1.2-1.194a1.527,1.527,0,0,0-2.163-2.157l-1.2,1.194-1.2-1.194a1.527,1.527,0,1,0-2.163,2.157l1.2,1.194-1.2,1.194A1.527,1.527,0,0,0,77,71.054l1.2-1.194,1.2,1.194A1.527,1.527,0,0,0,81.552,68.9Zm-8.963,6.143L57.143,62.924a1.527,1.527,0,1,0-1.864,2.419L69.528,76.265a1.527,1.527,0,1,0,1.864-2.418ZM57.175,71.1a1.528,1.528,0,0,0-2.428,1.855l7.6,9.9A1.528,1.528,0,0,0,64.777,81Zm-30.4-7.971a1.532,1.532,0,0,0-2.144-.283L10.292,73.8a1.527,1.527,0,0,0,1.86,2.421L26.49,65.266A1.523,1.523,0,0,0,26.774,63.128ZM11.23,83.33a1.532,1.532,0,0,0-2.163,0l-1.2,1.194-1.2-1.194A1.527,1.527,0,1,0,4.51,85.487l1.2,1.194-1.2,1.194a1.527,1.527,0,1,0,2.162,2.157l1.2-1.194,1.2,1.194a1.527,1.527,0,1,0,2.163-2.157l-1.2-1.194,1.2-1.194A1.522,1.522,0,0,0,11.23,83.33ZM26.19,54.281a1.531,1.531,0,0,0-1.715-1.314L3.641,55.686a1.525,1.525,0,0,0,.2,3.038,1.566,1.566,0,0,0,.2-.013l20.834-2.72A1.526,1.526,0,0,0,26.19,54.281ZM44.932,72.165a1.529,1.529,0,0,0-3.031.41L44.244,89.8a1.529,1.529,0,0,0,3.03-.41Zm-6.283-1.148a1.529,1.529,0,0,0-1.728,1.3L34.5,89.388a1.526,1.526,0,0,0,1.3,1.724,1.544,1.544,0,0,0,.216.015,1.528,1.528,0,0,0,1.512-1.312l2.421-17.074A1.525,1.525,0,0,0,38.649,71.018ZM26.657,70.8a1.532,1.532,0,0,0-2.144.28L16.9,80.961a1.528,1.528,0,0,0,2.425,1.859l7.617-9.885A1.523,1.523,0,0,0,26.657,70.8Z" fill="none"/>
    </g>
    <path id="Gradient_Overlay" data-name="Gradient Overlay" d="M1561.856,6729.4l-.221-.289a1.527,1.527,0,0,1,2.427-1.854l.221.287a1.528,1.528,0,0,1-2.427,1.856Zm-33.057-.211a1.525,1.525,0,0,1-1.3-1.723l2.422-17.074a1.529,1.529,0,0,1,3.028.427l-2.422,17.074a1.527,1.527,0,0,1-1.512,1.311A1.3,1.3,0,0,1,1528.8,6729.191Zm8.445-1.314-2.343-17.221a1.529,1.529,0,0,1,3.03-.41l2.343,17.223a1.526,1.526,0,0,1-1.309,1.716,1.79,1.79,0,0,1-.208.013A1.528,1.528,0,0,1,1537.244,6727.877Zm-39.734.235a1.524,1.524,0,0,1,0-2.157l1.2-1.194-1.2-1.194a1.528,1.528,0,0,1,2.164-2.157l1.2,1.194,1.2-1.194a1.527,1.527,0,0,1,2.162,2.157l-1.2,1.194,1.2,1.194a1.528,1.528,0,0,1-2.164,2.157l-1.2-1.194-1.2,1.194a1.53,1.53,0,0,1-2.162,0Zm61.183-2.829-.221-.287a1.528,1.528,0,0,1,2.427-1.856l.221.287a1.528,1.528,0,0,1-2.427,1.856Zm-3.343-4.351-7.6-9.9a1.528,1.528,0,0,1,2.429-1.854l7.6,9.9a1.527,1.527,0,0,1-2.427,1.855Zm-45.174.247a1.524,1.524,0,0,1-.28-2.139l7.617-9.886a1.528,1.528,0,0,1,2.425,1.86l-7.617,9.886a1.535,1.535,0,0,1-2.145.279Zm52.352-6.834-14.248-10.921a1.527,1.527,0,1,1,1.863-2.42l14.249,10.923a1.526,1.526,0,0,1-1.863,2.418Zm-59.521-.326a1.522,1.522,0,0,1,.284-2.138l14.338-10.955a1.526,1.526,0,1,1,1.861,2.42l-14.338,10.957a1.534,1.534,0,0,1-2.145-.284Zm69.383-4.884-1.2-1.194-1.2,1.194a1.527,1.527,0,0,1-2.164-2.157l1.2-1.194-1.2-1.194a1.527,1.527,0,0,1,2.164-2.157l1.2,1.194,1.2-1.194a1.527,1.527,0,0,1,2.162,2.157l-1.2,1.194,1.2,1.194a1.527,1.527,0,0,1-2.162,2.157Zm-47.72-5.232a1.523,1.523,0,0,1-.554-1.632l2.329-8.266-6.954-5.844a1.525,1.525,0,0,1,.924-2.691l8.6-.344,3.424-8.4a1.531,1.531,0,0,1,2.851.044l2.986,8.053,9.07.652a1.524,1.524,0,0,1,.838,2.718l-6.756,5.322,2.182,8.8a1.529,1.529,0,0,1-2.334,1.635l-7.161-4.763-7.722,4.79a1.53,1.53,0,0,1-1.724-.076Zm6.81-16.718a1.53,1.53,0,0,1-1.356.949l-5.65.227,4.694,3.944a1.523,1.523,0,0,1,.486,1.579l-1.528,5.43,5.211-3.234a1.533,1.533,0,0,1,1.657.027l4.7,3.128-1.473-5.942a1.526,1.526,0,0,1,.537-1.564l4.437-3.494-6.121-.439a1.525,1.525,0,0,1-1.324-.991l-1.963-5.29Zm39.187,9.661-20.972-2.77a1.525,1.525,0,1,1,.4-3.023l20.972,2.77a1.525,1.525,0,0,1-.2,3.037A1.376,1.376,0,0,1,1570.668,6696.845Zm-75.343-1.368a1.525,1.525,0,0,1,1.317-1.711l20.834-2.72a1.526,1.526,0,1,1,.4,3.025l-20.834,2.719a1.657,1.657,0,0,1-.2.013A1.526,1.526,0,0,1,1495.324,6695.478Zm58.3-7.613a1.525,1.525,0,0,1,1.317-1.709l15.735-2.054a1.524,1.524,0,1,1,.4,3.023l-15.735,2.056a1.653,1.653,0,0,1-.2.012A1.526,1.526,0,0,1,1553.625,6687.865Zm-41.342,1.271-15.639-2.064a1.526,1.526,0,1,1,.4-3.025l15.639,2.066a1.525,1.525,0,0,1-.2,3.037A1.444,1.444,0,0,1,1512.284,6689.135Zm5.9-8.776-14.865-11.394a1.526,1.526,0,1,1,1.865-2.417l14.863,11.393a1.526,1.526,0,0,1-1.863,2.418Zm29.287-.319a1.523,1.523,0,0,1,.284-2.139l14.8-11.311a1.526,1.526,0,1,1,1.86,2.42l-14.8,11.313a1.532,1.532,0,0,1-2.143-.284Zm-52.567-.356a1.521,1.521,0,0,1,0-2.157l1.2-1.194-1.2-1.194a1.527,1.527,0,0,1,2.162-2.157l1.2,1.194,1.2-1.194a1.527,1.527,0,0,1,2.162,2.157l-1.2,1.194,1.2,1.194a1.527,1.527,0,0,1-2.162,2.157l-1.2-1.194-1.2,1.194a1.531,1.531,0,0,1-2.162,0Zm28.529-.3-13.5-17.572a1.527,1.527,0,0,1,2.427-1.854l13.5,17.572a1.527,1.527,0,0,1-2.427,1.854Zm18.79.194a1.522,1.522,0,0,1-.279-2.138l13.446-17.451a1.528,1.528,0,0,1,2.425,1.858l-13.448,17.452a1.534,1.534,0,0,1-2.145.279Zm-6.018-7.313a1.526,1.526,0,0,1-1.309-1.718l2.343-17.221a1.529,1.529,0,0,1,3.03.41l-2.343,17.221a1.528,1.528,0,0,1-1.513,1.321A1.692,1.692,0,0,1,1536.21,6672.269Zm-6.29-1.456-2.422-17.074a1.529,1.529,0,0,1,3.028-.428l2.422,17.074a1.527,1.527,0,0,1-1.3,1.725,1.55,1.55,0,0,1-.216.015A1.528,1.528,0,0,1,1529.92,6670.813Zm-31.074-5.28-.507-.388a1.527,1.527,0,1,1,1.863-2.419l.507.389a1.526,1.526,0,0,1-1.863,2.418Zm72.322-2.6-1.2-1.194-1.2,1.194a1.527,1.527,0,0,1-2.162-2.157l1.2-1.194-1.2-1.194a1.527,1.527,0,0,1,2.162-2.157l1.2,1.194,1.2-1.194a1.528,1.528,0,0,1,2.164,2.157l-1.2,1.194,1.2,1.194a1.527,1.527,0,0,1-2.162,2.157Zm-77.3-1.216-.265-.2a1.526,1.526,0,1,1,1.863-2.418l.265.2a1.526,1.526,0,0,1-1.863,2.418Zm64.611-3.233a1.521,1.521,0,0,1-.28-2.138l.135-.176a1.528,1.528,0,0,1,2.424,1.861l-.135.174a1.529,1.529,0,0,1-1.213.6A1.512,1.512,0,0,1,1558.475,6658.479Zm2.721-3.533a1.524,1.524,0,0,1-.279-2.14l.142-.184a1.528,1.528,0,0,1,2.424,1.86l-.142.186a1.534,1.534,0,0,1-2.145.279Z" fill="url(#linear-gradient)"/>
  </g>
</svg>
