<svg xmlns="http://www.w3.org/2000/svg" xmlns:xlink="http://www.w3.org/1999/xlink" width="73" height="59" viewBox="0 0 73 59">
  <defs>
    <linearGradient id="linear-gradient" y1="0.5" x2="1" y2="0.5" gradientUnits="objectBoundingBox">
      <stop offset="0" stop-color="#1e88ba"/>
      <stop offset="1" stop-color="#38bfae"/>
    </linearGradient>
  </defs>
  <g id="health-icon" transform="translate(-1498 -4314)">
    <g id="health-icon-2" data-name="health-icon" transform="translate(1490.734 4299.847)">
      <g id="Group_16" data-name="Group 16">
        <g id="Group_11" data-name="Group 11">
          <g id="Group_9" data-name="Group 9">
            <path id="Path_21" data-name="Path 21" d="M25.388,26.09H16.84A2.135,2.135,0,0,1,14.7,23.958a4.693,4.693,0,0,1,4.7-4.689h3.419a4.693,4.693,0,0,1,4.7,4.689A2.135,2.135,0,0,1,25.388,26.09Zm-8.069-2.558h7.608a2.141,2.141,0,0,0-2.086-1.705H19.421A2.131,2.131,0,0,0,17.318,23.532Z" fill="none"/>
          </g>
          <g id="Group_10" data-name="Group 10">
            <path id="Path_22" data-name="Path 22" d="M70.692,26.09H62.144a2.135,2.135,0,0,1-2.137-2.132,4.693,4.693,0,0,1,4.7-4.689h3.419a4.693,4.693,0,0,1,4.7,4.689A2.135,2.135,0,0,1,70.692,26.09Zm-8.069-2.558H70.23a2.141,2.141,0,0,0-2.086-1.705H64.726A2.131,2.131,0,0,0,62.623,23.532Z" fill="none"/>
          </g>
        </g>
        <g id="Group_12" data-name="Group 12">
          <path id="Path_23" data-name="Path 23" d="M71.034,73.153H67.1a1.279,1.279,0,1,1,0-2.558h3.932a6.667,6.667,0,0,0,6.667-6.65V32.74a6.667,6.667,0,0,0-6.667-6.65H16.5A6.667,6.667,0,0,0,9.83,32.74V63.945A6.667,6.667,0,0,0,16.5,70.6H61.717a1.279,1.279,0,1,1,0,2.558H16.5a9.225,9.225,0,0,1-9.232-9.208V32.74A9.225,9.225,0,0,1,16.5,23.532H71.034a9.225,9.225,0,0,1,9.232,9.208V63.945A9.225,9.225,0,0,1,71.034,73.153Z" fill="none"/>
        </g>
        <g id="Group_14" data-name="Group 14">
          <g id="Group_13" data-name="Group 13">
            <path id="Path_24" data-name="Path 24" d="M48.365,60.876H39.184A1.29,1.29,0,0,1,37.9,59.6V53.97H32.26a1.29,1.29,0,0,1-1.282-1.279V43.534a1.29,1.29,0,0,1,1.282-1.279H37.9V36.628a1.29,1.29,0,0,1,1.282-1.279h9.181a1.29,1.29,0,0,1,1.282,1.279v5.627h5.642a1.29,1.29,0,0,1,1.282,1.279v9.157a1.29,1.29,0,0,1-1.282,1.279H49.647V59.6A1.29,1.29,0,0,1,48.365,60.876Zm-7.915-2.558h6.616V52.691a1.29,1.29,0,0,1,1.282-1.279h5.642v-6.6H48.348a1.29,1.29,0,0,1-1.282-1.279V37.907H40.449v5.627a1.29,1.29,0,0,1-1.282,1.279H33.525v6.6h5.642a1.29,1.29,0,0,1,1.282,1.279v5.627Z" fill="none"/>
          </g>
        </g>
        <g id="Group_15" data-name="Group 15">
          <path id="Path_25" data-name="Path 25" d="M57.528,26.09H50.177V22.168a.845.845,0,0,0-.855-.853H37.868a.845.845,0,0,0-.855.853V26.09H30v-5.2a6.748,6.748,0,0,1,6.753-6.736H50.775a6.748,6.748,0,0,1,6.753,6.736Zm-4.787-2.558h2.222V20.889a4.19,4.19,0,0,0-4.189-4.178H36.756a4.19,4.19,0,0,0-4.189,4.178v2.643h1.881V22.168a3.425,3.425,0,0,1,3.419-3.41H49.322a3.425,3.425,0,0,1,3.419,3.41Z" fill="none"/>
        </g>
      </g>
    </g>
    <path id="Gradient_Overlay" data-name="Gradient Overlay" d="M1557.837,4373a1.279,1.279,0,1,1,0-2.558h3.932a6.666,6.666,0,0,0,6.667-6.649v-31.2a6.667,6.667,0,0,0-6.667-6.651h-54.537a6.668,6.668,0,0,0-6.668,6.651v31.2a6.667,6.667,0,0,0,6.668,6.649h45.218a1.279,1.279,0,1,1,0,2.558h-45.218a9.225,9.225,0,0,1-9.232-9.208v-31.2a9.225,9.225,0,0,1,7.444-9.037,4.693,4.693,0,0,1,4.694-4.435h3.42a4.694,4.694,0,0,1,4.682,4.263h2.5v-2.643a6.747,6.747,0,0,1,6.753-6.735h14.019a6.747,6.747,0,0,1,6.753,6.735v2.643h2.5a4.694,4.694,0,0,1,4.682-4.263h3.42a4.692,4.692,0,0,1,4.694,4.435,9.225,9.225,0,0,1,7.444,9.037v31.2a9.225,9.225,0,0,1-9.231,9.208Zm-4.48-49.621h7.608a2.141,2.141,0,0,0-2.086-1.706h-3.419A2.132,2.132,0,0,0,1553.357,4323.378Zm-13.3-4.775a3.426,3.426,0,0,1,3.419,3.411v1.364h2.224v-2.643a4.19,4.19,0,0,0-4.189-4.177H1527.49a4.189,4.189,0,0,0-4.188,4.177v2.643h1.88v-1.364a3.427,3.427,0,0,1,3.42-3.411Zm-12.309,3.411v1.364h13.164v-1.364a.845.845,0,0,0-.855-.853H1528.6A.845.845,0,0,0,1527.747,4322.014Zm-19.694,1.364h7.608a2.141,2.141,0,0,0-2.086-1.706h-3.419A2.13,2.13,0,0,0,1508.053,4323.378Zm21.865,37.344a1.29,1.29,0,0,1-1.282-1.278v-5.628H1523a1.29,1.29,0,0,1-1.283-1.279v-9.157A1.29,1.29,0,0,1,1523,4342.1h5.641v-5.627a1.291,1.291,0,0,1,1.282-1.28h9.18a1.291,1.291,0,0,1,1.283,1.28v5.627h5.642a1.289,1.289,0,0,1,1.281,1.278v9.157a1.289,1.289,0,0,1-1.281,1.279h-5.642v5.628a1.29,1.29,0,0,1-1.283,1.278Zm-5.659-9.463h5.642a1.289,1.289,0,0,1,1.282,1.278v5.628h6.617v-5.628a1.289,1.289,0,0,1,1.281-1.278h5.642v-6.6h-5.642a1.289,1.289,0,0,1-1.281-1.28v-5.627h-6.617v5.627a1.289,1.289,0,0,1-1.282,1.28h-5.642Z" fill="url(#linear-gradient)"/>
  </g>
</svg>
