<svg xmlns="http://www.w3.org/2000/svg" width="75" height="75" viewBox="0 0 75 75">
  <g id="ship-wheel" transform="translate(-2.505 -2.498)">
    <path id="Path_41" data-name="Path 41" d="M40,2.5c-1.375,0-2.5,2.239-2.5,5a8.109,8.109,0,0,0,.734,3.526,9.692,9.692,0,0,0-2.141.38v2.477a27.662,27.662,0,0,1,7.813,0V11.4a10.323,10.323,0,0,0-2.141-.38A8.109,8.109,0,0,0,42.5,7.5C42.5,4.737,41.378,2.5,40,2.5ZM13.474,13.481c-.977.977-.186,3.347,1.766,5.3a8.19,8.19,0,0,0,3.027,1.984,9.588,9.588,0,0,0-1.25,1.781l1.766,1.75A26.369,26.369,0,0,1,24.3,18.781l-1.75-1.766a10.652,10.652,0,0,0-1.781,1.25,8.069,8.069,0,0,0-1.984-3.016c-1.25-.97-3.836-3.187-5.308-1.769Zm47.748,1.766a8.1,8.1,0,0,0-1.984,3.019,9.589,9.589,0,0,0-1.781-1.25l-1.75,1.766A26.369,26.369,0,0,1,61.223,24.3l1.766-1.75a10.651,10.651,0,0,0-1.25-1.781,8.345,8.345,0,0,0,3-1.984c1.953-1.953,2.75-4.326,1.766-5.3-1.547-1.23-4.375.878-5.282,1.767ZM38.987,16.422a23.558,23.558,0,0,0-14.938,6.187c-.516.484-1.031.984-1.438,1.437A23.56,23.56,0,0,0,16.423,39c0,.7-.031,1.422.016,2.031a23.455,23.455,0,0,0,6.172,14.937c.484.5,1,1.016,1.438,1.437a23.626,23.626,0,0,0,14.938,6.172h.031c.641.031,1.359,0,2,0a23.558,23.558,0,0,0,14.938-6.187c.516-.484,1.031-.984,1.438-1.437a23.554,23.554,0,0,0,6.188-14.937v-.031c.031-.656,0-1.359,0-2a23.554,23.554,0,0,0-6.188-14.937c-.484-.516-.984-1.031-1.438-1.437a23.558,23.558,0,0,0-14.938-6.187c-.7-.031-1.422,0-2.031,0ZM40,18.093a1.25,1.25,0,1,1-1.25,1.25A1.254,1.254,0,0,1,40,18.093Zm1.078,4.437A17.469,17.469,0,0,1,51.6,26.89a19.815,19.815,0,0,1,1.516,1.516,17.471,17.471,0,0,1,4.36,10.531c.063.719,0,1.437,0,2.141a17.467,17.467,0,0,1-4.36,10.515A19.816,19.816,0,0,1,51.6,53.108a17.474,17.474,0,0,1-10.532,4.359,19.567,19.567,0,0,1-2.141,0,17.387,17.387,0,0,1-10.5-4.359h-.016a17.165,17.165,0,0,1-1.5-1.516,17.4,17.4,0,0,1-4.375-10.515,19.279,19.279,0,0,1,0-2.125,17.416,17.416,0,0,1,4.36-10.547,19.815,19.815,0,0,1,1.516-1.516A17.474,17.474,0,0,1,38.94,22.531c.719-.062,1.438,0,2.141,0ZM26.267,24.5a1.249,1.249,0,1,1-1.766,0A1.316,1.316,0,0,1,26.267,24.5Zm29.236,0a1.249,1.249,0,1,1-1.766,0A1.316,1.316,0,0,1,55.5,24.5Zm-18,1.016v1.359a2.811,2.811,0,0,0,1.219,1.062c-.109,1.937-.25,3.922-.438,5.891a6.473,6.473,0,0,1,3.453.016c-.188-1.984-.344-3.969-.453-5.922,1.234-.328,1.219-1.344,1.219-2.406a16.255,16.255,0,0,0-5,0Zm-5.985,2.469a15.152,15.152,0,0,0-3.531,3.531l.969.969a2.773,2.773,0,0,0,1.609-.109c1.3,1.453,2.594,2.953,3.86,4.484a6.449,6.449,0,0,1,2.453-2.437c-1.547-1.266-3.047-2.562-4.5-3.859a2.356,2.356,0,0,0,.109-1.609Zm16.97,0-.969.969a2.66,2.66,0,0,0,.094,1.609c-1.438,1.3-2.953,2.594-4.485,3.859a6.449,6.449,0,0,1,2.438,2.453c1.266-1.547,2.578-3.047,3.86-4.5a2.458,2.458,0,0,0,1.609.109L52,31.515A15.086,15.086,0,0,0,48.487,27.984Zm17.626,8.109a27.256,27.256,0,0,1,0,7.812H68.6a8.766,8.766,0,0,0,.359-2.141A8.2,8.2,0,0,0,72.5,42.5c2.766,0,5-1.125,5-2.5s-2.235-2.5-5-2.5a8.2,8.2,0,0,0-3.547.734,8.526,8.526,0,0,0-.359-2.141Zm-54.7.016a9.7,9.7,0,0,0-.375,2.125,8.165,8.165,0,0,0-3.531-.719c-2.761,0-5,1.125-5,2.5s2.239,2.5,5,2.5a8.132,8.132,0,0,0,3.531-.734,9.083,9.083,0,0,0,.375,2.141h2.469a26.814,26.814,0,0,1,0-7.812Zm28.591.3A3.594,3.594,0,1,0,43.6,40,3.565,3.565,0,0,0,40,36.406ZM53.128,37.5a2.811,2.811,0,0,0-1.063,1.219c-1.938-.109-3.922-.25-5.891-.437a6.8,6.8,0,0,1,0,3.453c1.969-.187,3.938-.344,5.891-.453A2.368,2.368,0,0,0,53.128,42.5h1.359a16.251,16.251,0,0,0,0-5Zm-27.611.016a16.754,16.754,0,0,0,0,5h1.359A2.6,2.6,0,0,0,27.924,41.3c1.953.094,3.922.25,5.907.437a6.638,6.638,0,0,1-.016-3.453c-1.969.187-3.953.328-5.891.437a2.249,2.249,0,0,0-1.047-1.2ZM60.66,38.749A1.25,1.25,0,1,1,59.41,40,1.254,1.254,0,0,1,60.66,38.749Zm-41.315.016a1.25,1.25,0,1,1-1.25,1.25A1.254,1.254,0,0,1,19.345,38.765ZM45.581,43.14a6.449,6.449,0,0,1-2.453,2.437c1.547,1.266,3.047,2.562,4.5,3.859a2.356,2.356,0,0,0-.109,1.609l.969.969a15.152,15.152,0,0,0,3.531-3.531l-.969-.969a2.773,2.773,0,0,0-1.609.109c-1.3-1.453-2.594-2.953-3.86-4.484Zm-11.157,0c-1.266,1.531-2.563,3.031-3.86,4.484a2.319,2.319,0,0,0-1.594-.109l-.984.969a14.369,14.369,0,0,0,3.547,3.531l.969-.969a2.773,2.773,0,0,0-.109-1.609c1.453-1.3,2.953-2.594,4.485-3.859A6.559,6.559,0,0,1,34.424,43.14Zm3.844,3.016c.188,1.984.344,3.969.453,5.922A2.217,2.217,0,0,0,37.5,53.124v1.359a16.255,16.255,0,0,0,5,0V53.124a2.811,2.811,0,0,0-1.219-1.062c.109-1.937.25-3.922.438-5.891a8.264,8.264,0,0,1-3.453-.016ZM26.283,53.733a1.249,1.249,0,1,1-1.766,0A1.284,1.284,0,0,1,26.283,53.733Zm29.221,0a1.249,1.249,0,1,1-1.766,0A1.283,1.283,0,0,1,55.5,53.733ZM61.223,55.7a26.369,26.369,0,0,1-5.516,5.516l1.75,1.766a10.652,10.652,0,0,0,1.781-1.25,8.069,8.069,0,0,0,1.984,3.016c1.953,1.953,4.313,2.734,5.3,1.766.969-.984.188-3.344-1.766-5.3a8.069,8.069,0,0,0-3.016-1.984,9.588,9.588,0,0,0,1.25-1.781Zm-42.44,0-1.75,1.75a10.046,10.046,0,0,0,1.25,1.781,8.19,8.19,0,0,0-3.027,1.984c-1.949,1.953-2.738,4.312-1.766,5.3s3.355.187,5.308-1.766a8.069,8.069,0,0,0,1.984-3.016,9.589,9.589,0,0,0,1.781,1.25l1.75-1.75A26.518,26.518,0,0,1,18.782,55.7ZM40,59.405a1.25,1.25,0,1,1-1.25,1.25A1.254,1.254,0,0,1,40,59.405ZM36.1,66.124v2.469a9.633,9.633,0,0,0,2.141.375A8.125,8.125,0,0,0,37.5,72.5c0,2.766,1.125,5,2.5,5s2.5-2.234,2.5-5a8.125,8.125,0,0,0-.734-3.531,9.331,9.331,0,0,0,2.141-.375V66.108A27.276,27.276,0,0,1,36.1,66.124Z" fill="#2699b5"/>
  </g>
</svg>
