<svg id="Capa_1" enable-background="new 0 0 512 512" height="512" viewBox="0 0 512 512" width="512" xmlns="http://www.w3.org/2000/svg"><g><g><path d="m332 360c-99.258 0-180-80.742-180-180s80.742-180 180-180 180 80.742 180 180-80.742 180-180 180z" fill="#f37a3d"/></g><path d="m332 360c99.258 0 180-80.742 180-180 0-49.629-20.186-94.629-52.778-127.222l-254.444 254.444c32.593 32.592 77.593 52.778 127.222 52.778z" fill="#ec5436"/><g><path d="m180 512c-99.258 0-180-80.742-180-180s80.742-180 180-180 180 80.742 180 180-80.742 180-180 180z" fill="#ffdf40"/></g><path d="m180 512c99.258 0 180-80.742 180-180 0-49.629-20.186-94.629-52.778-127.222l-254.444 254.444c32.593 32.592 77.593 52.778 127.222 52.778z" fill="#ffbe40"/><g id="transition_1_"><path d="m286 106v30h68.789l-199.394 199.395 21.21 21.21 199.395-199.394v68.789h30v-120z" fill="#4d5e80"/></g><path d="m176.605 356.605 199.395-199.394v68.789h30v-120l-240 240z" fill="#3d4b66"/></g></svg>