<svg id="Group_8" data-name="Group 8" xmlns="http://www.w3.org/2000/svg" xmlns:xlink="http://www.w3.org/1999/xlink" width="355.415" height="37.613" viewBox="0 0 355.415 37.613">
  <defs>
    <clipPath id="clip-path">
      <rect id="Rectangle_3" data-name="Rectangle 3" width="355.415" height="37.613" fill="#231f20"/>
    </clipPath>
  </defs>
  <path id="Path_5" data-name="Path 5" d="M10.1,0,0,37.614H6.826l4.19-15.582H31.381L33.1,15.583H12.737l1.88-6.989-5.322-2.2H38.8L40.518,0Z" transform="translate(0 -0.001)" fill="#231f20"/>
  <g id="Group_6" data-name="Group 6">
    <g id="Group_5" data-name="Group 5" clip-path="url(#clip-path)">
      <path id="Path_6" data-name="Path 6" d="M275.665,0h6.77l-8.167,30.414a10.09,10.09,0,0,1-9.137,7.2h-22.4c-3.977,0-6.344-3.223-5.268-7.2L245.628,0h6.822L244.5,29.608a1.163,1.163,0,0,0,1.131,1.613h20.041a2.286,2.286,0,0,0,2.042-1.613Z" transform="translate(-200.212 -0.001)" fill="#231f20"/>
      <path id="Path_7" data-name="Path 7" d="M540.916,24.235l7.632,13.379h-8.009L532.91,24.235H520.55l-3.6,13.379h-6.826L520.229,0h29.607c3.977,0,6.288,3.223,5.265,7.2l-2.632,9.78a10.073,10.073,0,0,1-9.134,7.255Zm2.957-6.449a2.307,2.307,0,0,0,2.043-1.557l2.2-8.222a1.212,1.212,0,0,0-1.183-1.613h-21.6l-3.062,11.393Z" transform="translate(-430.581 -0.001)" fill="#231f20"/>
      <path id="Path_8" data-name="Path 8" d="M816.71,0h23.214L838.2,6.394H816.172a2.17,2.17,0,0,0-1.99,1.613l-5.8,21.6a1.163,1.163,0,0,0,1.128,1.613h22.034l-1.721,6.393H806.606c-3.977,0-6.34-3.223-5.265-7.2L807.573,7.2A10.037,10.037,0,0,1,816.71,0" transform="translate(-676.168 -0.001)" fill="#231f20"/>
      <path id="Path_9" data-name="Path 9" d="M1059.959,0h6.826l-10.1,37.613h-6.822l4.19-15.582h-22.785l-4.19,15.582h-6.826L1030.352,0h6.822l-4.19,15.582h22.785Z" transform="translate(-861.16 -0.001)" fill="#231f20"/>
      <path id="Path_10" data-name="Path 10" d="M1337.693,0h33.64l-1.721,6.393H1356.18l-8.383,31.22h-6.826l8.383-31.22h-13.379Z" transform="translate(-1127.656 -0.001)" fill="#231f20"/>
      <path id="Path_11" data-name="Path 11" d="M1534.773,31.222h21.172l-1.718,6.393h-28L1536.333,0h6.822Z" transform="translate(-1288.243 -0.002)" fill="#231f20"/>
      <path id="Path_12" data-name="Path 12" d="M1786.733,7.2,1780.5,30.415a10.09,10.09,0,0,1-9.137,7.2h-22.408c-3.977,0-6.34-3.223-5.265-7.2L1749.923,7.2A10.038,10.038,0,0,1,1759.06,0h22.408c3.977,0,6.284,3.223,5.265,7.2m-6.986.806a1.209,1.209,0,0,0-1.18-1.613h-20.044a2.17,2.17,0,0,0-1.99,1.613l-5.8,21.6a1.163,1.163,0,0,0,1.127,1.613H1771.9a2.289,2.289,0,0,0,2.042-1.613Z" transform="translate(-1471.577 -0.001)" fill="#231f20"/>
      <path id="Path_13" data-name="Path 13" d="M2047.976,22.782l-2.042,7.632a10.086,10.086,0,0,1-9.134,7.2h-25.257l1.721-6.393h24.017a2.233,2.233,0,0,0,2.042-1.613l1.613-6.019a1.165,1.165,0,0,0-1.183-1.557h-17.2c-3.977,0-6.341-3.226-5.265-7.2l2.042-7.629a10.029,10.029,0,0,1,9.134-7.2H2053.3l-1.721,6.393h-23.644a2.162,2.162,0,0,0-1.987,1.613l-1.613,6.019a1.135,1.135,0,0,0,1.128,1.557h17.251c3.976,0,6.34,3.223,5.265,7.2" transform="translate(-1697.881)" fill="#231f20"/>
    </g>
  </g>
</svg>
