<svg width="30" height="30" viewBox="0 0 30 30" fill="none" xmlns="http://www.w3.org/2000/svg">
<g clip-path="url(#clip0_1648_358)">
<path d="M15 26.2501C8.58625 26.2501 3.75 24.1001 3.75 21.2501C3.75 19.8114 4.9925 18.5076 7.24875 17.5776C7.56875 17.4489 7.93375 17.6001 8.065 17.9176C8.19625 18.2376 8.04375 18.6026 7.725 18.7339C5.9925 19.4476 5 20.3639 5 21.2501C5 23.0239 9.1075 25.0001 15 25.0001C20.8925 25.0001 25 23.0239 25 21.2501C25 20.3614 24.0025 19.4439 22.2638 18.7301C21.9438 18.6001 21.7913 18.2339 21.9225 17.9151C22.0538 17.5951 22.4213 17.4451 22.7375 17.5739C25.0025 18.5026 26.25 19.8076 26.25 21.2501C26.25 24.1001 21.4137 26.2501 15 26.2501Z" fill="white"/>
<path d="M15 30C8.58625 30 3.75 27.85 3.75 25V21.25C3.75 20.905 4.03 20.625 4.375 20.625C4.72 20.625 5 20.905 5 21.25V25C5 26.7737 9.1075 28.75 15 28.75C20.8925 28.75 25 26.7737 25 25V21.25C25 20.905 25.28 20.625 25.625 20.625C25.97 20.625 26.25 20.905 26.25 21.25V25C26.25 27.85 21.4137 30 15 30Z" fill="white"/>
<path d="M19.8625 19.5125C19.7025 19.5125 19.5425 19.4513 19.42 19.33C18.2413 18.15 16.67 17.5 15 17.5C13.33 17.5 11.7588 18.15 10.5788 19.33C10.335 19.5738 9.93877 19.5738 9.69502 19.33C9.45127 19.0863 9.45127 18.69 9.69502 18.4463C11.1113 17.03 12.995 16.25 15 16.25C17.005 16.25 18.8888 17.03 20.305 18.4463C20.5488 18.69 20.5488 19.0863 20.305 19.33C20.1825 19.4525 20.0225 19.5125 19.8625 19.5125Z" fill="white"/>
<path d="M17.2124 22.1624C17.0524 22.1624 16.8924 22.1012 16.7699 21.9799C15.8287 21.0374 14.1699 21.0374 13.2287 21.9799C12.9849 22.2237 12.5887 22.2237 12.3449 21.9799C12.1012 21.7362 12.1012 21.34 12.3449 21.0962C13.7587 19.6825 16.2399 19.6825 17.6537 21.0962C17.8974 21.34 17.8974 21.7362 17.6537 21.9799C17.5324 22.1024 17.3724 22.1624 17.2124 22.1624Z" fill="white"/>
<path d="M4.375 11.875C4.03 11.875 3.75 11.595 3.75 11.25C3.75 10.2163 4.59125 9.375 5.625 9.375C5.97 9.375 6.25 9.09375 6.25 8.75V5C6.25 4.65625 5.97 4.375 5.625 4.375C4.59125 4.375 3.75 3.53375 3.75 2.5C3.75 2.155 4.03 1.875 4.375 1.875C4.72 1.875 5 2.155 5 2.5C5 2.84375 5.28 3.125 5.625 3.125C6.65875 3.125 7.5 3.96625 7.5 5V8.75C7.5 9.78375 6.65875 10.625 5.625 10.625C5.28 10.625 5 10.9062 5 11.25C5 11.595 4.72 11.875 4.375 11.875Z" fill="white"/>
<path d="M23.75 13.75H6.25C4.87125 13.75 3.75 12.6287 3.75 11.25V2.5C3.75 1.12125 4.87125 0 6.25 0H23.75C25.1287 0 26.25 1.12125 26.25 2.5V11.25C26.25 12.6287 25.1287 13.75 23.75 13.75ZM6.25 1.25C5.56125 1.25 5 1.81 5 2.5V11.25C5 11.94 5.56125 12.5 6.25 12.5H23.75C24.4387 12.5 25 11.94 25 11.25V2.5C25 1.81 24.4387 1.25 23.75 1.25H6.25Z" fill="white"/>
<path d="M14.375 11.2499C14.2562 11.2499 14.1362 11.2162 14.0287 11.1449C13.7412 10.9537 13.6637 10.5649 13.855 10.2786L15.7075 7.4999H13.125C12.8937 7.4999 12.6825 7.3724 12.5737 7.1699C12.465 6.96615 12.4775 6.7199 12.605 6.5274L15.105 2.7774C15.2962 2.49115 15.6825 2.41115 15.9712 2.60365C16.2587 2.7949 16.3362 3.18365 16.145 3.4699L14.2925 6.2499H16.875C17.1062 6.2499 17.3175 6.3774 17.4262 6.5799C17.535 6.78365 17.5225 7.0299 17.395 7.2224L14.895 10.9724C14.775 11.1524 14.5762 11.2499 14.375 11.2499Z" fill="white"/>
</g>
<defs>
<clipPath id="clip0_1648_358">
<rect width="30" height="30" fill="white"/>
</clipPath>
</defs>
</svg>
