<svg width="30" height="31" viewBox="0 0 30 31" fill="none" xmlns="http://www.w3.org/2000/svg">
<g clip-path="url(#clip0_1648_323)">
<path d="M25.6 6.82518C25.3738 6.82518 25.1488 6.74518 24.9688 6.58018C22.21 4.06518 18.67 2.68018 15 2.68018C11.33 2.68018 7.79002 4.06518 5.03127 6.58143C4.64752 6.93018 4.05502 6.90143 3.70627 6.52018C3.35752 6.13768 3.38502 5.54393 3.76752 5.19518C6.87377 2.36393 10.8625 0.805176 15 0.805176C19.1375 0.805176 23.1263 2.36393 26.2325 5.19518C26.615 5.54393 26.6425 6.13643 26.2938 6.52018C26.1088 6.72268 25.855 6.82518 25.6 6.82518Z" fill="white"/>
<path d="M27.1875 12.9514C26.8862 12.9514 26.5887 12.8064 26.4087 12.5364C23.8062 8.66138 19.5412 6.34763 15 6.34763C10.4587 6.34763 6.19371 8.66138 3.59121 12.5364C3.30246 12.9676 2.71871 13.0826 2.28996 12.7926C1.85996 12.5039 1.74496 11.9214 2.03371 11.4914C4.98496 7.09763 9.83246 4.47388 15 4.47388C20.1675 4.47388 25.015 7.09763 27.9662 11.4926C28.255 11.9226 28.1412 12.5051 27.71 12.7939C27.55 12.9001 27.3687 12.9514 27.1875 12.9514Z" fill="white"/>
<path d="M12.0388 30.8051C11.7975 30.8051 11.5563 30.7126 11.3725 30.5276C11.1675 30.3213 6.36377 25.4176 6.36377 20.6963C6.36377 15.7963 10.2375 11.8101 15 11.8101C19.7625 11.8101 23.6363 15.7963 23.6363 20.6963C23.6363 21.2138 23.2163 21.6338 22.6988 21.6338C22.1813 21.6338 21.7613 21.2138 21.7613 20.6963C21.7613 16.8301 18.7288 13.6851 15 13.6851C11.2713 13.6851 8.23877 16.8301 8.23877 20.6963C8.23877 24.6551 12.66 29.1626 12.705 29.2076C13.07 29.5751 13.0675 30.1688 12.6988 30.5338C12.5163 30.7151 12.2775 30.8051 12.0388 30.8051Z" fill="white"/>
<path d="M17.9613 30.8051C15.7063 30.8051 10.4788 26.5151 9.97256 21.7376C9.79381 20.0489 10.3313 18.3214 11.4088 17.1164C12.3463 16.0689 13.6126 15.4876 14.9738 15.4801H15.0001C16.3276 15.4801 17.5826 16.0014 18.5376 16.9501C19.5351 17.9414 20.0838 19.2726 20.0838 20.6976V21.3089C20.0838 22.8151 21.2563 24.0401 22.6988 24.0401C24.1413 24.0401 25.3151 22.8151 25.3151 21.3089V21.0951C25.3151 15.2576 21.0863 10.4014 15.6876 10.0414C12.8726 9.85011 10.1726 10.8226 8.08881 12.7701C5.92631 14.7926 4.68631 17.6826 4.68631 20.6976C4.68631 23.1776 5.52631 25.5939 7.05131 27.5014C7.37381 27.9064 7.30881 28.4951 6.90381 28.8189C6.50006 29.1426 5.91006 29.0764 5.58506 28.6714C3.79631 26.4326 2.81006 23.6001 2.81006 20.6964C2.81006 17.1639 4.26756 13.7751 6.80631 11.4001C9.27256 9.09261 12.4701 7.94511 15.8101 8.16886C22.1901 8.59511 27.1888 14.2726 27.1888 21.0939V21.3076C27.1888 23.8476 25.1738 25.9139 22.6976 25.9139C20.2213 25.9139 18.2076 23.8476 18.2076 21.3076V20.6964C18.2076 19.7739 17.8551 18.9164 17.2151 18.2789C16.6151 17.6814 15.8288 17.3539 15.0001 17.3539C14.9938 17.3539 14.9888 17.3539 14.9826 17.3539C13.9263 17.3589 13.2151 17.9076 12.8051 18.3664C12.0738 19.1826 11.7113 20.3701 11.8351 21.5401C12.2488 25.4376 16.7276 28.9314 17.9601 28.9314C18.4776 28.9314 18.8976 29.3514 18.8976 29.8689C18.8976 30.3864 18.4788 30.8051 17.9613 30.8051Z" fill="white"/>
<path d="M21.44 28.9715C18.085 28.9715 13.9888 24.8715 13.9888 20.0852C13.9888 19.5677 14.4088 19.1477 14.9263 19.1477C15.4438 19.1477 15.8638 19.5677 15.8638 20.0852C15.8638 23.7952 18.9825 27.0965 21.44 27.0965C21.9575 27.0965 22.3775 27.5165 22.3775 28.034C22.3775 28.5515 21.9575 28.9715 21.44 28.9715Z" fill="white"/>
</g>
<defs>
<clipPath id="clip0_1648_323">
<rect width="30" height="30" fill="white" transform="translate(0 0.805176)"/>
</clipPath>
</defs>
</svg>
