<svg width="30" height="31" viewBox="0 0 30 31" fill="none" xmlns="http://www.w3.org/2000/svg">
<path d="M7.03123 14.1436C6.52176 14.1451 6.02126 14.2778 5.57793 14.5289C5.1346 14.7799 4.76337 15.1409 4.49998 15.577L2.77733 18.4486C2.50065 18.9096 2.35129 19.4358 2.34448 19.9734C2.33768 20.511 2.47368 21.0408 2.7386 21.5087C3.00352 21.9766 3.38786 22.3658 3.85239 22.6365C4.31691 22.9073 4.84497 23.0499 5.38264 23.0498H8.68123C9.21886 23.0498 9.74686 22.9071 10.2113 22.6363C10.6758 22.3655 11.0601 21.9764 11.3249 21.5085C11.5898 21.0406 11.7257 20.5109 11.7189 19.9733C11.7121 19.4357 11.5627 18.9095 11.2861 18.4486L9.56248 15.577C9.29909 15.1409 8.92786 14.7799 8.48454 14.5289C8.04121 14.2778 7.54071 14.1451 7.03123 14.1436ZM10.7812 20.0118C10.7805 20.5686 10.559 21.1024 10.1654 21.4961C9.77171 21.8898 9.238 22.1114 8.68123 22.1123H5.38264C5.01087 22.1124 4.64575 22.0138 4.32455 21.8266C4.00335 21.6394 3.7376 21.3703 3.55442 21.0468C3.37124 20.7233 3.27721 20.357 3.28192 19.9852C3.28663 19.6135 3.38991 19.2497 3.58123 18.9309L5.30389 16.0593C5.48304 15.7611 5.73632 15.5144 6.03909 15.343C6.34186 15.1717 6.68382 15.0817 7.0317 15.0817C7.37958 15.0817 7.72154 15.1717 8.02431 15.343C8.32709 15.5144 8.58037 15.7611 8.75951 16.0593L10.4822 18.9309C10.678 19.2574 10.7814 19.6311 10.7812 20.0118Z" fill="white"/>
<path d="M14.0625 13.5145C14.0626 13.1047 13.982 12.6988 13.8252 12.3201C13.6685 11.9415 13.4386 11.5974 13.1488 11.3075C12.8591 11.0177 12.515 10.7878 12.1364 10.631C11.7577 10.4742 11.3519 10.3935 10.942 10.3936C10.3828 10.3929 9.83035 10.5155 9.32396 10.7527C8.81757 10.99 8.36973 11.336 8.01234 11.7661L7.56984 12.2972C7.39172 12.2803 7.21219 12.2686 7.03125 12.2686C6.22806 12.2688 5.434 12.439 4.70131 12.7681C3.96861 13.0971 3.31388 13.5776 2.78016 14.1778C1.29044 15.8523 0.467861 18.0157 0.468751 20.257V20.9264C0.470096 22.7054 0.916457 24.4559 1.76719 26.0184C2.28292 26.9642 3.04395 27.7536 3.97026 28.3036C4.89658 28.8536 5.95397 29.1438 7.03125 29.1438C8.10853 29.1438 9.16592 28.8536 10.0922 28.3036C11.0186 27.7536 11.7796 26.9642 12.2953 26.0184C13.146 24.4559 13.5924 22.7054 13.5938 20.9264V20.257C13.5939 18.8558 13.2718 17.4733 12.6525 16.2164L13.1484 15.72C13.439 15.431 13.6694 15.0873 13.8263 14.7088C13.9832 14.3302 14.0635 13.9243 14.0625 13.5145ZM7.03125 28.2061C6.12242 28.2063 5.23033 27.9616 4.44883 27.4977C3.66733 27.0337 3.02531 26.3678 2.59031 25.5698C2.3681 25.1595 2.17603 24.7335 2.01563 24.2953C2.74624 24.7069 3.57046 24.9237 4.40906 24.9248H4.6875C4.6875 25.5464 4.93443 26.1426 5.37397 26.5821C5.81351 27.0216 6.40965 27.2686 7.03125 27.2686C7.65285 27.2686 8.24899 27.0216 8.68853 26.5821C9.12807 26.1426 9.375 25.5464 9.375 24.9248H9.65625C10.4939 24.9232 11.3171 24.7064 12.0469 24.2953C11.886 24.7334 11.6938 25.1593 11.4717 25.5698C11.0368 26.3677 10.3948 27.0336 9.6134 27.4975C8.83199 27.9615 7.94 28.2062 7.03125 28.2061ZM8.4375 24.9248C8.4375 25.2978 8.28934 25.6555 8.02562 25.9192C7.7619 26.1829 7.40421 26.3311 7.03125 26.3311C6.65829 26.3311 6.3006 26.1829 6.03688 25.9192C5.77316 25.6555 5.625 25.2978 5.625 24.9248H8.4375ZM12.6563 20.9264C12.6555 21.5524 12.5939 22.1769 12.4725 22.7911C12.1119 23.1751 11.6752 23.4798 11.1903 23.6857C10.7055 23.8917 10.183 23.9944 9.65625 23.9873H4.40906C3.48767 23.9868 2.5955 23.6639 1.88719 23.0747C1.78349 22.9861 1.68445 22.8922 1.59047 22.7934C1.46874 22.1785 1.40704 21.5532 1.40625 20.9264V20.257C1.40531 18.245 2.14385 16.3028 3.48141 14.7998C3.92708 14.2985 4.47387 13.8972 5.0858 13.6224C5.69774 13.3476 6.36092 13.2056 7.03172 13.2056C7.70251 13.2056 8.3657 13.3476 8.97763 13.6224C9.58957 13.8972 10.1364 14.2985 10.582 14.7998C11.9193 16.303 12.6574 18.2451 12.6563 20.257V20.9264ZM12.4852 15.0572L12.1725 15.3703C11.9086 14.9492 11.6107 14.5504 11.2819 14.1778C10.5696 13.3802 9.64674 12.7997 8.61938 12.5029L8.73234 12.367C9.00189 12.0425 9.33965 11.7815 9.72158 11.6024C10.1035 11.4234 10.5202 11.3307 10.942 11.3311C11.3738 11.3309 11.7959 11.4589 12.1549 11.6987C12.5139 11.9385 12.7938 12.2794 12.959 12.6783C13.1243 13.0771 13.1675 13.5161 13.0832 13.9395C12.999 14.363 12.7905 14.7519 12.4852 15.0572Z" fill="white"/>
<path d="M22.9688 12.2686C22.7884 12.2686 22.6088 12.2803 22.4307 12.2972L21.9882 11.7656C21.6307 11.3356 21.1829 10.9898 20.6765 10.7526C20.1701 10.5155 19.6177 10.3929 19.0585 10.3936C18.4414 10.3936 17.8382 10.5766 17.3251 10.9194C16.812 11.2622 16.4121 11.7495 16.1759 12.3196C15.9397 12.8897 15.8778 13.517 15.9981 14.1223C16.1184 14.7275 16.4154 15.2835 16.8516 15.72L17.3476 16.2164C16.7283 17.4733 16.4062 18.8558 16.4063 20.257V20.9264C16.4077 22.7054 16.854 24.4559 17.7048 26.0184C18.2205 26.9642 18.9815 27.7536 19.9078 28.3036C20.8342 28.8536 21.8915 29.1438 22.9688 29.1438C24.0461 29.1438 25.1035 28.8536 26.0298 28.3036C26.9561 27.7536 27.7172 26.9642 28.2329 26.0184C29.0836 24.4559 29.53 22.7054 29.5313 20.9264V20.257C29.5322 18.0157 28.7096 15.8523 27.2199 14.1778C26.6862 13.5776 26.0315 13.0971 25.2988 12.7681C24.5661 12.439 23.772 12.2688 22.9688 12.2686ZM17.5144 15.0572C17.2093 14.7518 17.0015 14.3628 16.9174 13.9394C16.8333 13.516 16.8766 13.0771 17.0418 12.6783C17.2071 12.2795 17.4869 11.9387 17.8458 11.6989C18.2048 11.4591 18.6268 11.3311 19.0585 11.3311C19.4802 11.3306 19.8968 11.4231 20.2787 11.6019C20.6606 11.7807 20.9985 12.0415 21.2682 12.3656L21.3816 12.502C20.3537 12.7988 19.4303 13.3797 18.7177 14.1778C18.3888 14.5503 18.0909 14.9491 17.8271 15.3703L17.5144 15.0572ZM22.9688 28.2061C22.06 28.2063 21.1679 27.9616 20.3864 27.4977C19.6049 27.0337 18.9629 26.3678 18.5279 25.5698C18.3059 25.1594 18.1138 24.7334 17.9532 24.2953C18.6837 24.7068 19.5077 24.9236 20.3462 24.9248H20.6251C20.6251 25.5464 20.872 26.1426 21.3115 26.5821C21.7511 27.0216 22.3472 27.2686 22.9688 27.2686C23.5904 27.2686 24.1866 27.0216 24.6261 26.5821C25.0656 26.1426 25.3126 25.5464 25.3126 24.9248H25.5938C26.4315 24.9232 27.2547 24.7064 27.9844 24.2953C27.8236 24.7334 27.6314 25.1593 27.4093 25.5698C26.9743 26.3677 26.3324 27.0336 25.551 27.4975C24.7696 27.9615 23.8776 28.2062 22.9688 28.2061ZM24.3751 24.9248C24.3751 25.2978 24.2269 25.6555 23.9632 25.9192C23.6995 26.1829 23.3418 26.3311 22.9688 26.3311C22.5959 26.3311 22.2382 26.1829 21.9745 25.9192C21.7107 25.6555 21.5626 25.2978 21.5626 24.9248H24.3751ZM28.5938 20.9264C28.593 21.5524 28.5315 22.1769 28.4101 22.7911C28.0494 23.1751 27.6128 23.4798 27.1279 23.6857C26.643 23.8917 26.1206 23.9944 25.5938 23.9873H20.3462C19.8191 23.9944 19.2963 23.8918 18.8111 23.6859C18.3258 23.4801 17.8887 23.1755 17.5276 22.7915C17.4062 22.1772 17.3446 21.5526 17.3438 20.9264V20.257C17.3428 18.2451 18.0811 16.3029 19.4185 14.7998C19.8642 14.2985 20.411 13.8972 21.0229 13.6224C21.6348 13.3476 22.298 13.2056 22.9688 13.2056C23.6396 13.2056 24.3028 13.3476 24.9147 13.6224C25.5267 13.8972 26.0735 14.2985 26.5191 14.7998C27.8565 16.3029 28.5949 18.2451 28.5938 20.257V20.9264Z" fill="white"/>
<path d="M22.9687 14.1436C22.4593 14.1451 21.9588 14.2778 21.5154 14.5289C21.0721 14.7799 20.7009 15.1409 20.4375 15.577L18.7148 18.4486C18.4382 18.9095 18.2888 19.4356 18.282 19.9732C18.2751 20.5107 18.4111 21.0404 18.6759 21.5083C18.9407 21.9761 19.3249 22.3653 19.7893 22.6362C20.2537 22.907 20.7816 23.0497 21.3192 23.0498H24.6183C25.1559 23.0498 25.6839 22.9071 26.1483 22.6363C26.6128 22.3655 26.9971 21.9764 27.2619 21.5085C27.5268 21.0406 27.6628 20.5109 27.6559 19.9733C27.6491 19.4357 27.4998 18.9095 27.2231 18.4486L25.5 15.577C25.2366 15.1409 24.8654 14.7799 24.422 14.5289C23.9787 14.2778 23.4782 14.1451 22.9687 14.1436ZM26.7187 20.0118C26.718 20.5687 26.4964 21.1025 26.1027 21.4963C25.7089 21.89 25.1751 22.1116 24.6183 22.1123H21.3192C20.9475 22.1123 20.5824 22.0136 20.2613 21.8264C19.9401 21.6392 19.6745 21.3701 19.4913 21.0466C19.3082 20.7231 19.2142 20.3568 19.2189 19.9851C19.2237 19.6134 19.327 19.2496 19.5183 18.9309L21.2409 16.0593C21.4201 15.7611 21.6733 15.5144 21.9761 15.343C22.2789 15.1717 22.6209 15.0817 22.9687 15.0817C23.3166 15.0817 23.6586 15.1717 23.9613 15.343C24.2641 15.5144 24.5174 15.7611 24.6965 16.0593L26.4192 18.9309C26.6152 19.2574 26.7188 19.631 26.7187 20.0118Z" fill="white"/>
<path d="M16.4063 9.45606C16.4063 9.17793 16.3238 8.90604 16.1693 8.67479C16.0147 8.44353 15.7951 8.26329 15.5381 8.15685C15.2812 8.05041 14.9984 8.02257 14.7257 8.07683C14.4529 8.13109 14.2023 8.26502 14.0056 8.46169C13.809 8.65835 13.675 8.90892 13.6208 9.18171C13.5665 9.4545 13.5944 9.73725 13.7008 9.9942C13.8072 10.2512 13.9875 10.4708 14.2187 10.6253C14.45 10.7798 14.7219 10.8623 15 10.8623C15.373 10.8623 15.7306 10.7141 15.9944 10.4504C16.2581 10.1867 16.4063 9.82902 16.4063 9.45606ZM15 9.92481C14.9073 9.92481 14.8167 9.89731 14.7396 9.84581C14.6625 9.7943 14.6024 9.72109 14.5669 9.63544C14.5315 9.54979 14.5222 9.45554 14.5403 9.36461C14.5583 9.27368 14.603 9.19015 14.6685 9.1246C14.7341 9.05904 14.8176 9.0144 14.9086 8.99631C14.9995 8.97823 15.0937 8.98751 15.1794 9.02299C15.265 9.05847 15.3382 9.11855 15.3898 9.19563C15.4413 9.27272 15.4688 9.36335 15.4688 9.45606C15.4688 9.58038 15.4194 9.6996 15.3315 9.78751C15.2435 9.87542 15.1243 9.92481 15 9.92481Z" fill="white"/>
<path d="M20.9657 3.49039C19.3834 1.90831 17.2375 1.01953 15 1.01953C12.7624 1.01953 10.6165 1.90831 9.03418 3.49039L9.69699 4.15367C10.3932 3.45699 11.2199 2.90433 12.1298 2.52727C13.0397 2.15021 14.015 1.95613 15 1.95613C15.9849 1.95613 16.9602 2.15021 17.8701 2.52727C18.78 2.90433 19.6067 3.45699 20.3029 4.15367L20.9657 3.49039Z" fill="white"/>
<path d="M18.9783 5.47783C17.9228 4.42337 16.4919 3.83105 15 3.83105C13.5081 3.83105 12.0772 4.42337 11.0217 5.47783L11.6845 6.14064C12.5642 5.26205 13.7567 4.76855 15 4.76855C16.2433 4.76855 17.4358 5.26205 18.3155 6.14064L18.9783 5.47783Z" fill="white"/>
<path d="M12.6792 7.13861L13.3453 7.79861C13.5625 7.58108 13.8204 7.4085 14.1043 7.29076C14.3882 7.17301 14.6926 7.1124 15 7.1124C15.3074 7.1124 15.6117 7.17301 15.8956 7.29076C16.1796 7.4085 16.4375 7.58108 16.6547 7.79861L17.3208 7.13861C17.0164 6.83327 16.6548 6.591 16.2566 6.42569C15.8584 6.26039 15.4316 6.17529 15.0004 6.17529C14.5693 6.17529 14.1425 6.26039 13.7443 6.42569C13.3461 6.591 12.9845 6.83327 12.6801 7.13861H12.6792Z" fill="white"/>
</svg>
