<svg width="30" height="30" viewBox="0 0 30 30" fill="none" xmlns="http://www.w3.org/2000/svg">
<path d="M26.7188 19.2659V10.7341C27.7873 10.5163 28.5938 9.56936 28.5938 8.4375C28.5938 7.14516 27.5423 6.09375 26.25 6.09375C25.5565 6.09375 24.9326 6.3968 24.5031 6.87715L17.3188 2.68377C17.335 2.57268 17.3438 2.45924 17.3438 2.34375C17.3438 1.05141 16.2923 0 15 0C13.7077 0 12.6562 1.05141 12.6562 2.34375C12.6562 2.45924 12.665 2.57268 12.6812 2.68377L5.49691 6.87715C5.06742 6.3968 4.44357 6.09375 3.75 6.09375C2.45766 6.09375 1.40625 7.14516 1.40625 8.4375C1.40625 9.56936 2.21273 10.5163 3.28125 10.7341V19.2659C2.21273 19.4837 1.40625 20.4306 1.40625 21.5625C1.40625 22.8548 2.45766 23.9062 3.75 23.9062C4.44369 23.9062 5.06766 23.603 5.49721 23.1225L12.6813 27.3158C12.665 27.427 12.6562 27.5406 12.6562 27.6562C12.6562 28.9485 13.7077 29.9999 15 29.9999C16.2923 29.9999 17.3438 28.9485 17.3438 27.6562C17.3438 27.5405 17.335 27.427 17.3187 27.3158L24.5028 23.1225C24.9323 23.603 25.5563 23.9062 26.25 23.9062C27.5423 23.9062 28.5938 22.8548 28.5938 21.5625C28.5938 20.4306 27.7873 19.4837 26.7188 19.2659ZM25.4941 19.3446L21.1638 11.9467L24.503 9.99785C24.8331 10.3671 25.278 10.6315 25.7812 10.7341V19.266C25.6831 19.2859 25.5874 19.3127 25.4941 19.3446ZM15.4688 21.0938V17.2966C15.972 17.194 16.4168 16.9295 16.7469 16.5603L24.0305 20.8112C23.9993 20.903 23.973 20.9972 23.9534 21.0937H15.4688V21.0938ZM6.04658 21.0938C6.02689 20.9972 6.0007 20.9031 5.96953 20.8112L13.2531 16.5604C13.5832 16.9296 14.028 17.194 14.5312 17.2966V21.0938H6.04658ZM4.21875 19.2659V10.7341C4.72195 10.6315 5.1668 10.367 5.49691 9.99779L8.83611 11.9466L4.50592 19.3446C4.41258 19.3127 4.31689 19.2859 4.21875 19.2659ZM9.64541 12.419L12.7805 14.2487C12.7004 14.4847 12.6562 14.7373 12.6562 15C12.6562 15.2627 12.7004 15.5153 12.7805 15.7513L5.49691 20.0021C5.43932 19.9378 5.37832 19.8765 5.31404 19.8187L9.64541 12.419ZM14.5312 4.64033V12.7034C14.028 12.806 13.5832 13.0705 13.2531 13.4397L10.1187 11.6104L14.2445 4.56188C14.3377 4.59369 14.4332 4.62035 14.5312 4.64033ZM15.7555 4.56182L19.8813 11.6104L16.7469 13.4396C16.4168 13.0704 15.972 12.806 15.4688 12.7034V4.64033C15.5668 4.62035 15.6623 4.59369 15.7555 4.56182ZM15 16.4062C14.498 16.4062 14.0568 16.1415 13.8079 15.7446C13.8018 15.7315 13.7953 15.7186 13.7878 15.7059C13.78 15.6926 13.7715 15.6798 13.7626 15.6676C13.655 15.4688 13.5938 15.2414 13.5938 15C13.5938 14.7558 13.6564 14.526 13.7664 14.3257C13.7736 14.3153 13.7812 14.3053 13.7878 14.2941C13.7951 14.2816 13.8015 14.2689 13.8076 14.256C14.0563 13.8587 14.4977 13.5938 15 13.5938C15.5024 13.5938 15.9439 13.8588 16.1927 14.2563C16.1987 14.269 16.205 14.2816 16.2122 14.2941C16.2186 14.305 16.2261 14.3149 16.2333 14.3251C16.3434 14.5256 16.4062 14.7555 16.4062 15C16.4062 15.2409 16.3453 15.4679 16.238 15.6663C16.2288 15.679 16.2202 15.6922 16.2122 15.7059C16.2049 15.7184 16.1985 15.7311 16.1924 15.744C15.9437 16.1413 15.5023 16.4062 15 16.4062ZM24.5031 20.0021L17.2195 15.7513C17.2996 15.5153 17.3438 15.2627 17.3438 15C17.3438 14.7373 17.2996 14.4847 17.2195 14.2487L20.3546 12.419L24.686 19.8188C24.6217 19.8765 24.5607 19.9378 24.5031 20.0021ZM26.25 7.03125C27.0253 7.03125 27.6562 7.66219 27.6562 8.4375C27.6562 9.21281 27.0253 9.84375 26.25 9.84375C25.7476 9.84375 25.3061 9.57867 25.0574 9.18123C25.0514 9.16846 25.0451 9.15586 25.0378 9.14344C25.0299 9.1299 25.0213 9.11695 25.0124 9.10453C24.9049 8.9059 24.8438 8.67873 24.8438 8.4375C24.8438 8.19334 24.9064 7.96354 25.0164 7.7632C25.0236 7.75277 25.0312 7.74275 25.0378 7.73156C25.0451 7.71908 25.0515 7.70637 25.0576 7.69348C25.3063 7.29621 25.7477 7.03125 26.25 7.03125ZM24.0305 7.68615C23.9504 7.92217 23.9062 8.17471 23.9062 8.4375C23.9062 8.70029 23.9504 8.95277 24.0305 9.18879L20.6905 11.1381L16.5637 4.08773C16.7293 3.93914 16.8735 3.76734 16.9915 3.57756L24.0305 7.68615ZM15 0.9375C15.7753 0.9375 16.4062 1.56844 16.4062 2.34375C16.4062 2.49018 16.3837 2.63145 16.3419 2.76434C16.3417 2.76492 16.3415 2.76545 16.3413 2.76604C16.2367 3.0975 16.0124 3.37617 15.7194 3.55143C15.7161 3.55318 15.7129 3.55459 15.7097 3.55641C15.7072 3.55787 15.7049 3.55963 15.7024 3.56115C15.4955 3.68104 15.2558 3.75 15 3.75C14.7443 3.75 14.5045 3.68104 14.2977 3.56121C14.2952 3.55969 14.2929 3.55787 14.2903 3.55641C14.2869 3.55441 14.2834 3.55295 14.2799 3.55102C13.987 3.37564 13.7628 3.0968 13.6584 2.76533L13.6583 2.76521C13.6164 2.63209 13.5938 2.49053 13.5938 2.34375C13.5938 1.56844 14.2247 0.9375 15 0.9375ZM13.0085 3.57756C13.1265 3.76734 13.2707 3.93914 13.4363 4.08773L9.30943 11.1381L5.96947 9.18879C6.04957 8.95277 6.09369 8.70023 6.09369 8.4375C6.09369 8.17471 6.04957 7.92223 5.96947 7.68615L13.0085 3.57756ZM2.34375 8.4375C2.34375 7.66219 2.97469 7.03125 3.75 7.03125C4.25238 7.03125 4.69389 7.29633 4.94268 7.69377C4.94865 7.70648 4.95498 7.71914 4.96219 7.73156C4.96857 7.74252 4.97613 7.75236 4.98328 7.76262C5.09344 7.96312 5.15625 8.19311 5.15625 8.4375C5.15625 8.67844 5.09525 8.90531 4.98803 9.10377C4.97889 9.11643 4.97022 9.12961 4.96219 9.14344C4.95492 9.15592 4.94848 9.16863 4.94244 9.18152C4.69365 9.57879 4.25227 9.84375 3.75 9.84375C2.97469 9.84375 2.34375 9.21281 2.34375 8.4375ZM3.75 22.9688C2.97469 22.9688 2.34375 22.3378 2.34375 21.5625C2.34375 20.7872 2.97469 20.1562 3.75 20.1562C4.00729 20.1562 4.24852 20.2261 4.45623 20.3473C4.45758 20.3481 4.45881 20.349 4.46016 20.3498C4.46145 20.3506 4.46285 20.3511 4.46414 20.3518C4.65855 20.467 4.82291 20.6275 4.94262 20.8188C4.94859 20.8315 4.95492 20.8441 4.96219 20.8566C4.96863 20.8675 4.97613 20.8774 4.98328 20.8877C5.09344 21.0881 5.15625 21.3181 5.15625 21.5625C5.15625 21.8028 5.09555 22.0291 4.98885 22.2272C4.97936 22.2402 4.97045 22.2538 4.96219 22.268C4.95445 22.2813 4.94748 22.2948 4.94121 22.3085C4.69219 22.7047 4.25139 22.9688 3.75 22.9688ZM5.96965 22.3134C6.00076 22.2217 6.02695 22.1277 6.04658 22.0312H14.5312V25.3597C13.8901 25.4903 13.3436 25.8838 13.0087 26.4221L5.96965 22.3134ZM15 29.0625C14.2247 29.0625 13.5938 28.4316 13.5938 27.6562C13.5938 26.8809 14.2247 26.25 15 26.25C15.7753 26.25 16.4062 26.8809 16.4062 27.6562C16.4062 28.4316 15.7753 29.0625 15 29.0625ZM16.9913 26.4221C16.6564 25.8838 16.1099 25.4903 15.4688 25.3597V22.0312H23.9534C23.973 22.1277 23.9992 22.2217 24.0304 22.3134L16.9913 26.4221ZM26.25 22.9688C25.7484 22.9688 25.3076 22.7046 25.0586 22.3082C25.0523 22.2946 25.0455 22.2812 25.0378 22.268C25.0296 22.2539 25.0208 22.2405 25.0114 22.2276C24.9045 22.0294 24.8438 21.803 24.8438 21.5625C24.8438 21.3183 24.9064 21.0885 25.0164 20.8881C25.0237 20.8777 25.0313 20.8677 25.0378 20.8566C25.0451 20.8441 25.0515 20.8314 25.0576 20.8185C25.1773 20.6273 25.3416 20.4669 25.5359 20.3518C25.5371 20.3511 25.5386 20.3506 25.5398 20.3498C25.5412 20.3491 25.5424 20.3481 25.5437 20.3473C25.7514 20.2261 25.9927 20.1562 26.25 20.1562C27.0253 20.1562 27.6562 20.7872 27.6562 21.5625C27.6562 22.3378 27.0253 22.9688 26.25 22.9688Z" fill="white"/>
</svg>
