<svg width="30" height="30" viewBox="0 0 30 30" fill="none" xmlns="http://www.w3.org/2000/svg">
<path d="M8.42584 20.0805L10.1269 18.5338L8.42584 16.9871V20.0805Z" fill="white"/>
<path d="M8.42584 13.0129L10.1269 11.4661L8.42584 9.91943V13.0129Z" fill="white"/>
<path d="M7.79273 2.68494C3.49582 2.68494 0 6.18076 0 10.4777V19.5223C0 23.8192 3.49582 27.3151 7.79273 27.3151C12.0896 27.3151 15.5855 23.8192 15.5855 19.5223V10.4777C15.5854 6.18076 12.0896 2.68494 7.79273 2.68494ZM12.0246 17.8836C12.2078 18.0502 12.3122 18.2862 12.3122 18.5338C12.3122 18.7815 12.2078 19.0175 12.0246 19.1841L8.13826 22.718C7.97326 22.868 7.76139 22.9466 7.54682 22.9466C7.4267 22.9466 7.30564 22.922 7.1915 22.8715C6.87334 22.7307 6.66809 22.4156 6.66809 22.0677V17.1474L5.07182 18.7707C4.89979 18.9457 4.6725 19.0334 4.4451 19.0334C4.22268 19.0334 4.00008 18.9495 3.82893 18.7812C3.48281 18.4408 3.47812 17.8843 3.8185 17.5383L6.3143 15L3.81838 12.4618C3.47801 12.1157 3.4827 11.5593 3.82881 11.2189C4.17492 10.8786 4.73145 10.8833 5.0717 11.2294L6.66797 12.8527V7.93242C6.66797 7.58449 6.87316 7.26937 7.19139 7.12863C7.50943 6.98789 7.88074 7.04806 8.1382 7.28214L12.0246 10.816C12.2077 10.9826 12.3122 11.2186 12.3122 11.4663C12.3122 11.7139 12.2078 11.95 12.0246 12.1165L8.8534 15L12.0246 17.8836Z" fill="white"/>
<path d="M24.2999 2.94233C23.9248 2.63419 23.3709 2.68856 23.0629 3.06362C22.7548 3.43874 22.8091 3.99257 23.1842 4.30065C26.3986 6.94101 28.2422 10.8312 28.2422 14.9739C28.2422 19.1464 26.3763 23.0545 23.1231 25.6962C22.7463 26.0022 22.6889 26.5557 22.9949 26.9325C23.1686 27.1465 23.422 27.2575 23.6777 27.2575C23.8723 27.2575 24.0683 27.1931 24.2312 27.0608C27.8973 24.0838 30 19.6783 30 14.9739C30 10.3032 27.9224 5.91784 24.2999 2.94233Z" fill="white"/>
<path d="M21.5558 6.28914C21.1806 5.98099 20.6268 6.03537 20.3188 6.41042C20.0106 6.78548 20.065 7.33937 20.4401 7.64746C22.6467 9.45999 23.9123 12.1303 23.9123 14.9738C23.9123 17.8378 22.6315 20.5206 20.3982 22.334C20.0213 22.64 19.9639 23.1935 20.2699 23.5703C20.4437 23.7842 20.6971 23.8952 20.9527 23.8952C21.1474 23.8952 21.3434 23.8308 21.5062 23.6986C24.1524 21.5498 25.67 18.3698 25.67 14.9738C25.6701 11.6023 24.1704 8.43683 21.5558 6.28914Z" fill="white"/>
<path d="M18.8132 9.63366C18.4379 9.32569 17.8843 9.38018 17.5762 9.75536C17.2682 10.1305 17.3227 10.6844 17.6979 10.9923C18.8955 11.9754 19.5824 13.4266 19.5824 14.9738C19.5824 16.5322 18.8872 17.9901 17.6751 18.9736C17.2981 19.2795 17.2406 19.833 17.5464 20.2099C17.7202 20.4239 17.9737 20.535 18.2294 20.535C18.424 20.535 18.6198 20.4708 18.7826 20.3386C20.408 19.0197 21.3401 17.0643 21.3401 14.9738C21.3402 12.8984 20.4191 10.952 18.8132 9.63366Z" fill="white"/>
</svg>
