<svg width="30" height="30" viewBox="0 0 30 30" fill="none" xmlns="http://www.w3.org/2000/svg">
<path d="M12.55 26.45L11.7 25.55L15.35 21.85H11.6L17.4 16.05L18.3 16.95L14.65 20.65H18.4L12.55 26.45Z" fill="white"/>
<path d="M20.45 21.7L19.55 20.8L25.55 14.8C26.5 13.85 27.15 12.6 27.4 11.3C27.65 9.95003 27.5 8.60003 27 7.35002C26.45 6.10002 25.6 5.05002 24.45 4.30002C23.3 3.50002 22 3.10002 20.6 3.10002C18.75 3.10002 16.85 4.00002 15.45 5.60002L15 6.10002L14.55 5.60002C13.15 4.00002 11.25 3.10002 9.4 3.10002C8.05 3.10002 6.7 3.50002 5.6 4.25002C4.45 5.00002 3.6 6.05002 3.05 7.30002C2.5 8.55003 2.4 9.90003 2.65 11.25C2.9 12.6 3.55 13.8 4.5 14.8L10.45 20.8L9.55 21.7L3.55 15.7C2.4 14.55 1.65 13.1 1.35 11.55C1.05 9.95003 1.2 8.35003 1.85 6.85002C2.45 5.35002 3.5 4.10002 4.85 3.25002C6.2 2.35002 7.75 1.90002 9.35 1.90002C11.35 1.90002 13.4 2.75002 14.95 4.30002C16.55 2.75002 18.55 1.90002 20.55 1.90002C22.15 1.90002 23.7 2.35002 25.05 3.25002C26.4 4.15002 27.45 5.40002 28.05 6.85002C28.65 8.35003 28.85 9.95003 28.55 11.55C28.25 13.15 27.5 14.55 26.35 15.7L20.45 21.7Z" fill="white"/>
<path d="M20.6 28.75H9.39999V13.75H20.65V28.75H20.6ZM10.6 27.5H19.35V15H10.6V27.5Z" fill="white"/>
<path d="M18.1 15H11.9V10.65H18.15V15H18.1ZM13.1 13.75H16.85V11.85H13.1V13.75Z" fill="white"/>
</svg>
