<svg width="30" height="30" viewBox="0 0 30 30" fill="none" xmlns="http://www.w3.org/2000/svg">
<path d="M27.5 19.6875C26.9824 19.6875 26.5625 19.2676 26.5625 18.75V11.25C26.5625 10.7324 26.9824 10.3125 27.5 10.3125C28.0176 10.3125 28.4375 10.7324 28.4375 11.25V18.75C28.4375 19.2676 28.0176 19.6875 27.5 19.6875ZM24.2706 21.25V8.75C24.2706 8.23238 23.8507 7.8125 23.3331 7.8125C22.8155 7.8125 22.3956 8.23238 22.3956 8.75V21.25C22.3956 21.7676 22.8155 22.1875 23.3331 22.1875C23.8507 22.1875 24.2706 21.7676 24.2706 21.25ZM20.1044 17.5V12.5C20.1044 11.9824 19.6845 11.5625 19.1669 11.5625C18.6493 11.5625 18.2294 11.9824 18.2294 12.5V17.5C18.2294 18.0176 18.6493 18.4375 19.1669 18.4375C19.6845 18.4375 20.1044 18.0176 20.1044 17.5ZM15.9375 22.5V7.5C15.9375 6.98237 15.5176 6.5625 15 6.5625C14.4824 6.5625 14.0625 6.98237 14.0625 7.5V22.5C14.0625 23.0176 14.4824 23.4375 15 23.4375C15.5176 23.4375 15.9375 23.0176 15.9375 22.5ZM11.7706 25V5C11.7706 4.48238 11.3507 4.0625 10.8331 4.0625C10.3155 4.0625 9.89563 4.48238 9.89563 5V25C9.89563 25.5176 10.3155 25.9375 10.8331 25.9375C11.3507 25.9375 11.7706 25.5176 11.7706 25ZM7.60437 20V10C7.60437 9.48238 7.1845 9.0625 6.66687 9.0625C6.14925 9.0625 5.72937 9.48238 5.72937 10V20C5.72937 20.5176 6.14925 20.9375 6.66687 20.9375C7.1845 20.9375 7.60437 20.5176 7.60437 20ZM3.4375 18.75V11.25C3.4375 10.7324 3.01762 10.3125 2.5 10.3125C1.98238 10.3125 1.5625 10.7324 1.5625 11.25V18.75C1.5625 19.2676 1.98238 19.6875 2.5 19.6875C3.01762 19.6875 3.4375 19.2676 3.4375 18.75Z" fill="white"/>
</svg>
