<svg width="30" height="30" viewBox="0 0 30 30" fill="none" xmlns="http://www.w3.org/2000/svg">
<path d="M5.625 10.696V27.5H7.7085V10.696C9.5025 10.2315 10.8335 8.6035 10.8335 6.6665C10.8335 4.369 8.964 2.5 6.6665 2.5C4.369 2.5 2.5 4.369 2.5 6.6665C2.5 8.604 3.831 10.232 5.625 10.696ZM6.6665 4.5835C7.8155 4.5835 8.75 5.518 8.75 6.667C8.75 7.816 7.8155 8.75 6.6665 8.75C5.5175 8.75 4.583 7.8155 4.583 6.6665C4.583 5.5175 5.5175 4.5835 6.6665 4.5835Z" fill="white"/>
<path d="M25.4165 8.75H27.5V27.5H25.4165V8.75Z" fill="white"/>
<path d="M21.25 12.9165H23.3335V27.5H21.25V12.9165Z" fill="white"/>
<path d="M17.0835 17.0835H19.167V27.5H17.0835V17.0835Z" fill="white"/>
<path d="M12.9165 21.25H15V27.5H12.9165V21.25Z" fill="white"/>
</svg>
