<svg xmlns="http://www.w3.org/2000/svg" xmlns:xlink="http://www.w3.org/1999/xlink" width="53" height="53.031" viewBox="0 0 53 53.031">
  <defs>
    <clipPath id="clip-path">
      <rect id="Rectangle_61" data-name="Rectangle 61" width="53" height="53.031" fill="#fff"/>
    </clipPath>
  </defs>
  <g id="Group_279" data-name="Group 279" clip-path="url(#clip-path)">
    <path id="Path_95" data-name="Path 95" d="M52.939,10.582A10.463,10.463,0,0,1,43.377,21.23a9.267,9.267,0,0,1-2.624-.107.678.678,0,0,0-.687.209q-1.98,2-3.983,3.979c-.247.243-.236.394.007.622.5.471.983.964,1.465,1.456.629.643.63,1.079.018,1.728a3.048,3.048,0,0,0-.3.351.9.9,0,0,0,.092,1.217.94.94,0,0,0,1.229.02c.177-.136.326-.307.5-.447a.915.915,0,0,1,1.308,0,4.01,4.01,0,0,1,.339.317q5.023,5.021,10.045,10.043a6.852,6.852,0,0,1,2.079,3.674c.771,4.477-1.775,7.933-5.825,8.627a6.98,6.98,0,0,1-6.4-2.143c-3.186-3.218-6.4-6.408-9.6-9.609-.17-.17-.342-.34-.511-.511-.68-.69-.689-1.114-.041-1.812a3.141,3.141,0,0,0,.3-.352.859.859,0,0,0-.066-1.137.88.88,0,0,0-1.172-.139,4.257,4.257,0,0,0-.509.433.971.971,0,0,1-1.507,0c-.538-.509-1.061-1.033-1.573-1.568-.226-.236-.386-.261-.63-.013q-1.976,2-3.98,3.982a.785.785,0,0,0-.207.754,9.991,9.991,0,0,1-1.446,7.12,10.362,10.362,0,0,1-8.936,5.06A10.615,10.615,0,0,1,8.792,31.912a10.024,10.024,0,0,1,3.539-.018.593.593,0,0,0,.6-.189c.117-.126.243-.243.365-.365q8.985-8.986,17.977-17.963a1.772,1.772,0,0,0,.573-1.619,10.242,10.242,0,0,1,3.6-9.179A10.331,10.331,0,0,1,44.562.228c.454.087.878.216,1.043.719s-.116.848-.446,1.176c-1.622,1.617-3.234,3.243-4.865,4.851a.7.7,0,0,0-.2.858c.395,1.1.758,2.214,1.111,3.33a.884.884,0,0,0,.636.657q1.675.521,3.329,1.111a.724.724,0,0,0,.867-.206c1.561-1.58,3.137-3.145,4.709-4.715.11-.11.216-.223.332-.326a.946.946,0,0,1,1.651.522,7.866,7.866,0,0,1,.208,2.377m-1.827-.264c-.22.208-.346.322-.466.442-1.279,1.277-2.567,2.546-3.83,3.839a1.3,1.3,0,0,1-1.495.35Q43,14.155,40.669,13.4a1.531,1.531,0,0,1-1.063-1.085c-.475-1.492-.955-2.984-1.5-4.452a1.49,1.49,0,0,1,.439-1.792c1.291-1.24,2.54-2.524,3.8-3.794.09-.091.262-.173.187-.33s-.242-.1-.375-.093c-.394.035-.79.061-1.18.124a8.686,8.686,0,0,0-7.147,10.366,1.566,1.566,0,0,1-.5,1.608q-9.713,9.679-19.392,19.392a1.489,1.489,0,0,1-1.57.473,7.49,7.49,0,0,0-2.822-.139,8.811,8.811,0,1,0,9.65,7,1.634,1.634,0,0,1,.505-1.656q9.7-9.658,19.358-19.353a1.578,1.578,0,0,1,1.572-.487,8.639,8.639,0,0,0,9.318-4.122,8.2,8.2,0,0,0,1.153-4.744M38.04,32.829a2.723,2.723,0,0,1-2.674-3.661,1.251,1.251,0,0,0-.457-1.779.494.494,0,0,1-.109-.11c-.232-.331-.42-.267-.687,0q-3.071,3.1-6.169,6.174c-1,.994-.987.986,0,1.978a.5.5,0,0,0,.738.1,2.785,2.785,0,0,1,3.789,3.821.481.481,0,0,0,.106.7q4.737,4.721,9.458,9.459c.263.264.443.305.711.011.4-.445.847-.857,1.273-1.283,1.826-1.826,3.644-3.66,5.486-5.469.332-.326.344-.535-.013-.812a5.836,5.836,0,0,1-.514-.507q-4.417-4.42-8.828-8.846c-.268-.27-.459-.379-.818-.133a2.052,2.052,0,0,1-1.286.352m6.047,17.977a5.467,5.467,0,0,0,2.469.263,5.289,5.289,0,0,0,4.419-6.591c-.071-.28-.157-.4-.426-.132-2.125,2.134-4.259,4.259-6.462,6.46" transform="translate(0 0)" fill="#fff"/>
    <path id="Path_96" data-name="Path 96" d="M.216,4.551A1.164,1.164,0,0,1,.589,3.78C1.7,2.674,2.8,1.56,3.914.46A.993.993,0,0,1,5.313.3C7.227,1.39,9.135,2.49,11.052,3.575a1.423,1.423,0,0,1,.789,1.078c.007.051.037.1.042.149a7.607,7.607,0,0,0,2.7,4.839c3.028,2.858,5.91,5.87,8.868,8.8.346.343.381.546.013.9-.908.865-.891.882-1.764.01Q16.535,14.183,11.364,9.021a2.319,2.319,0,0,1-.67-1.188c-.165-.756-.384-1.5-.558-2.253a.91.91,0,0,0-.464-.639Q7.426,3.669,5.192,2.377a.472.472,0,0,0-.673.1q-.952.983-1.934,1.936a.431.431,0,0,0-.082.624Q3.8,7.269,5.064,9.52A.857.857,0,0,0,5.69,10c.034.006.067.015.1.019A8.014,8.014,0,0,1,10.8,12.834c2.941,3.115,6.035,6.086,9.065,9.117.479.479.478.48,0,.959-.841.848-.842.848-1.688,0q-5-5-10-10.011a2.226,2.226,0,0,0-1.142-.645c-.772-.17-1.536-.379-2.306-.56a1.516,1.516,0,0,1-1.033-.777C2.65,9.045,1.575,7.183.508,5.315a1.727,1.727,0,0,1-.292-.763" transform="translate(-0.194 -0.077)" fill="#fff"/>
    <path id="Path_97" data-name="Path 97" d="M49.24,368.96c-.809,0-1.618-.014-2.426,0a1.145,1.145,0,0,1-1.107-.606q-1.21-2.043-2.444-4.071a1.152,1.152,0,0,1-.006-1.306q1.244-2.052,2.469-4.116a1.161,1.161,0,0,1,1.069-.6c1.635,0,3.27,0,4.9,0a1.161,1.161,0,0,1,1.073.592q1.248,2.08,2.5,4.158a1.107,1.107,0,0,1-.012,1.257q-1.226,2-2.418,4.026a1.2,1.2,0,0,1-1.175.669c-.808-.027-1.617-.007-2.426-.007m.023-1.834c.55,0,1.1-.012,1.651,0a.677.677,0,0,0,.671-.372q.823-1.4,1.673-2.786a.558.558,0,0,0,.009-.662q-.852-1.384-1.669-2.788a.679.679,0,0,0-.676-.359q-1.677.019-3.353,0a.67.67,0,0,0-.664.374q-.8,1.384-1.646,2.742a.591.591,0,0,0,.007.708c.558.908,1.11,1.82,1.646,2.742a.694.694,0,0,0,.7.4c.549-.024,1.1-.007,1.651-.007" transform="translate(-38.608 -321.253)" fill="#fff"/>
    <path id="Path_98" data-name="Path 98" d="M178.576,158.4a1.9,1.9,0,0,1-.129.192c-.066.079-.143.148-.216.221l-18.516,18.516c-.516.516-.517.515-1.031,0-.808-.807-.808-.807,0-1.617l18.15-18.152c.51-.511.512-.512,1.025,0,.23.232.454.47.677.708.021.022.02.064.038.125" transform="translate(-141.747 -140.941)" fill="#fff"/>
    <path id="Path_99" data-name="Path 99" d="M346.86,344.578a.507.507,0,0,1,.386.21q4.145,4.141,8.29,8.283c.217.216.216.369,0,.6-1,1.085-.992,1.091-2.015.067l-7.045-7.045c-.9-.9-.9-.9.026-1.8.121-.118.253-.226.355-.317" transform="translate(-310.085 -308.98)" fill="#fff"/>
  </g>
</svg>
