<svg id="Group_284" data-name="Group 284" xmlns="http://www.w3.org/2000/svg" xmlns:xlink="http://www.w3.org/1999/xlink" width="62.288" height="65.764" viewBox="0 0 62.288 65.764">
  <defs>
    <clipPath id="clip-path">
      <rect id="Rectangle_63" data-name="Rectangle 63" width="62.288" height="65.764" fill="#fff"/>
    </clipPath>
  </defs>
  <g id="Group_283" data-name="Group 283" clip-path="url(#clip-path)">
    <path id="Path_107" data-name="Path 107" d="M46.6,95.227a8.627,8.627,0,0,1-1.087,4.567,4.949,4.949,0,0,1-4.084,2.515c-4.482.33-8.958.738-13.437,1.105-1.387.114-2.776.2-4.164.3-.255.018-.6-.019-.724.175-.161.248.166.444.3.644,2.515,3.732,5.048,7.452,7.557,11.188a5.29,5.29,0,0,1,.057,6.041c-2.173,3.167-6.64,2.984-8.944-.388q-4.226-6.184-8.412-12.394c-.581-.857-.58-.858-1.5-.4a8.346,8.346,0,0,1-11.045-3.621A8.206,8.206,0,0,1,3.7,93.948c1.7-1.159,3.4-2.321,5.11-3.461a2.554,2.554,0,0,0,.907-1.046c3.224-6.556,6.491-13.093,9.674-19.669A5.368,5.368,0,0,1,24.93,66.9a15.939,15.939,0,0,1,7.909,3.76,39.249,39.249,0,0,1,9.8,11.872,31.6,31.6,0,0,1,3.622,9.507,16.369,16.369,0,0,1,.336,3.19m-2.775-.478a13.841,13.841,0,0,0-.6-4.053,37.553,37.553,0,0,0-12.17-18,13.568,13.568,0,0,0-5.759-3.011,3.124,3.124,0,0,0-4.049,2.672,12.1,12.1,0,0,0,.365,5.469,36.754,36.754,0,0,0,12.874,19.21,12.939,12.939,0,0,0,4.944,2.53,3.165,3.165,0,0,0,3.817-1.811,6.664,6.664,0,0,0,.578-3M18.673,77.344a1.974,1.974,0,0,0-.147.217Q15.355,84.022,12.18,90.48a.775.775,0,0,0,.118.88q3.238,4.754,6.459,9.519a.9.9,0,0,0,1.05.485,16.545,16.545,0,0,1,1.917-.17q5.313-.4,10.626-.805c.6-.046,1.208-.117,1.858-.181A40.245,40.245,0,0,1,18.673,77.344m-10.061,29.4a4.96,4.96,0,0,0,2.995-.907c1.515-1.011,3.011-2.051,4.531-3.056.384-.254.388-.465.143-.823q-2.944-4.3-5.854-8.615c-.274-.409-.476-.43-.861-.16-1.457,1.021-2.94,2-4.4,3.018a5.547,5.547,0,0,0-2.241,6.211,5.929,5.929,0,0,0,5.689,4.331m10.78-2.65a1.062,1.062,0,0,0-.768.216c-.971.667-1.94,1.337-2.927,1.98-.368.24-.347.451-.123.781,2.968,4.354,5.915,8.722,8.894,13.068a2.551,2.551,0,0,0,3.661.748,2.608,2.608,0,0,0,.622-3.689q-4.29-6.368-8.608-12.718a.685.685,0,0,0-.751-.385" transform="translate(0 -58.257)" fill="#fff"/>
    <path id="Path_108" data-name="Path 108" d="M367.475,81.343a1.209,1.209,0,0,1,.6-1.084c2.9-1.907,5.8-3.819,8.713-5.708a1.345,1.345,0,1,1,1.484,2.239c-2.876,1.906-5.756,3.808-8.658,5.675a1.333,1.333,0,0,1-2.138-1.121" transform="translate(-320.206 -64.726)" fill="#fff"/>
    <path id="Path_109" data-name="Path 109" d="M385.264,184.644c1.372.241,2.952.514,4.53.8,1.81.326,3.618.662,5.428.992.91.166,1.409.744,1.3,1.511a1.431,1.431,0,0,1-1.8,1.12c-1.623-.279-3.242-.583-4.863-.876-1.663-.3-3.327-.594-4.988-.9a1.362,1.362,0,0,1-1.194-1.811c.216-.569.673-.848,1.585-.834" transform="translate(-334.249 -160.893)" fill="#fff"/>
    <path id="Path_110" data-name="Path 110" d="M321.452,1.409c-.238,2.334-.464,4.569-.7,6.8-.1.936-.187,1.873-.321,2.8A1.32,1.32,0,0,1,319,12.192a1.346,1.346,0,0,1-1.189-1.5q.472-4.724.993-9.443A1.313,1.313,0,0,1,320.181,0a1.368,1.368,0,0,1,1.27,1.406" transform="translate(-276.926 0)" fill="#fff"/>
    <path id="Path_111" data-name="Path 111" d="M204.392,163.626a6.911,6.911,0,0,1,4.682,12.046,4.721,4.721,0,0,1-.933.676,1.319,1.319,0,0,1-1.535-2.1,4.7,4.7,0,0,1,.443-.371,4.268,4.268,0,0,0-4.819-7.018c-.968.551-1.756.43-2.169-.332a1.311,1.311,0,0,1,.507-1.786,6.612,6.612,0,0,1,3.823-1.113" transform="translate(-174.178 -142.579)" fill="#fff"/>
  </g>
</svg>
