<svg xmlns="http://www.w3.org/2000/svg" xmlns:xlink="http://www.w3.org/1999/xlink" width="66.07" height="55.194" viewBox="0 0 66.07 55.194">
  <defs>
    <clipPath id="clip-path">
      <rect id="Rectangle_62" data-name="Rectangle 62" width="66.07" height="55.194" fill="#fff"/>
    </clipPath>
  </defs>
  <g id="Group_281" data-name="Group 281" clip-path="url(#clip-path)">
    <path id="Path_100" data-name="Path 100" d="M32.988,51.2H3.56c-1,0-1.467.3-1.456.952s.445.926,1.478.926q13.587,0,27.174,0a4.285,4.285,0,0,1,.9.056.954.954,0,0,1,.825,1,.981.981,0,0,1-.832,1,2.348,2.348,0,0,1-.575.046q-13.941,0-27.883,0A2.947,2.947,0,0,1,.272,53.338a2.872,2.872,0,0,1,.5-3.187,3.318,3.318,0,0,1,2.661-1.063c.849-.005.851-.01.851-.856q0-9.176,0-18.352c0-1.113.162-1.317,1.248-1.6,1.391-.36,2.778-.736,4.174-1.076a.755.755,0,0,0,.643-.81c.108-1.5.248-2.991.393-4.484a1.034,1.034,0,0,1,1.141-1.045,1.086,1.086,0,0,1,.936,1.3c-.116,1.238-.219,2.477-.347,3.713-.05.481.1.607.574.481,2.072-.553,4.147-1.1,6.228-1.612.487-.12.57-.321.523-.807-.3-3.115-.568-6.233-.824-9.352-.042-.514-.188-.784-.765-.772-1.352.028-2.7.022-4.057,0-.465-.007-.632.157-.656.631-.055,1.07-.172,2.136-.268,3.2a3.335,3.335,0,0,1-.09.507.983.983,0,0,1-1.108.845.938.938,0,0,1-.9-1.048c.047-1.027.156-2.051.249-3.075.2-2.22.4-4.44.623-6.658.085-.824.445-1.125,1.273-1.13q2.962-.019,5.924,0c.84.006,1.2.379,1.274,1.21q.623,6.819,1.254,13.638c.051.555.117,1.11.142,1.666.016.364.16.431.488.343,1.409-.375,2.82-.745,4.236-1.094a.716.716,0,0,0,.607-.714q.33-3.779.663-7.559.359-4,.732-8c.057-.619.109-1.238.167-1.857.073-.784.418-1.127,1.19-1.131q3.059-.014,6.117,0c.743,0,1.073.278,1.148,1.016.228,2.26.432,4.523.637,6.786q.344,3.81.671,7.622c.046.534.214.75.818.57,1.294-.385,2.606-.717,3.922-1.017a.878.878,0,0,0,.791-.9c.126-1.581.274-3.16.417-4.74q.431-4.771.864-9.542c.063-.7.117-1.41.176-2.115A1.186,1.186,0,0,1,46.878.006q2.865-.012,5.731,0c.962,0,1.347.329,1.439,1.269.193,1.984.364,3.97.538,5.956.225,2.562.45,5.125.658,7.689.039.475.263.507.643.405q1.865-.5,3.737-.967c1.113-.28,1.653.13,1.655,1.279q.01,7.405,0,14.811a1.707,1.707,0,0,1-.11.694,1.018,1.018,0,0,1-1.894,0,2.308,2.308,0,0,1-.108-.952q0-6.343,0-12.686c0-.876-.014-.885-.871-.665q-25.6,6.595-51.212,13.178c-.582.149-.792.371-.789.991q.037,8.629,0,17.258c0,.647.172.877.832.841.942-.051,1.89-.044,2.832,0,.621.028.812-.193.809-.809-.022-4.207-.012-8.414-.01-12.621a5.085,5.085,0,0,1,.037-.834,1.03,1.03,0,0,1,1.094-.965q6.279-.006,12.557,0a1.03,1.03,0,0,1,1.126,1,5.532,5.532,0,0,1,.027.771c0,4.207.014,8.414-.012,12.621,0,.656.2.837.844.836q15.97-.026,31.94,0c.613,0,.813-.176.81-.8-.023-4.357-.013-8.715-.009-13.072a3.369,3.369,0,0,1,.069-.829,1.015,1.015,0,0,1,1.969,0,3.371,3.371,0,0,1,.069.829q.006,6.5,0,13.008c0,.849,0,.845.862.855a8.816,8.816,0,0,1,1.219.054,2.978,2.978,0,0,1,2.7,3.323,3.036,3.036,0,0,1-3.142,2.719q-9.144.014-18.288,0-4.379,0-8.758,0a3.047,3.047,0,0,1-.826-.081.953.953,0,0,1-.725-.955.973.973,0,0,1,.7-.972,2.776,2.776,0,0,1,1.019-.1l26.209,0c.279,0,.558,0,.837-.013a.884.884,0,0,0,.9-.907.919.919,0,0,0-.929-.95c-.235-.018-.472-.008-.708-.008H32.988m-9.5-8.659c0-1.932-.016-3.863.01-5.795.008-.566-.139-.806-.753-.8q-4.571.036-9.143,0c-.554,0-.748.171-.745.739q.03,5.827,0,11.654c0,.616.217.76.785.756q4.539-.031,9.079,0c.574,0,.794-.151.783-.761-.034-1.931-.013-3.863-.013-5.795M29.358,21.1c-.045,1.055-.045,1.055.83.829,1.845-.477,3.684-.983,5.54-1.415.631-.147.836-.4.774-1.045-.285-2.918-.537-5.84-.786-8.761-.036-.426-.29-.461-.617-.46-1.372,0-2.744.021-4.115-.009-.549-.012-.7.237-.728.727-.039.791-.113,1.58-.185,2.369-.24,2.643-.485,5.286-.712,7.766M49.814,6.737c-.6,0-1.2,0-1.8,0-.887,0-.916.021-1,.931-.289,3.218-.565,6.437-.863,9.653-.041.439.125.476.475.384,2.029-.531,4.058-1.067,6.093-1.575a.585.585,0,0,0,.508-.737c-.048-.447-.086-.894-.127-1.342-.21-2.258-.428-4.515-.621-6.775-.036-.422-.223-.551-.611-.543-.685.014-1.371,0-2.057,0m-.02-2.106c.642,0,1.285-.008,1.927,0,.36.006.513-.149.481-.5-.049-.554-.094-1.108-.141-1.662-.027-.324-.261-.352-.51-.352-1.178,0-2.356,0-3.534,0-.3,0-.491.086-.512.427-.031.512-.08,1.023-.134,1.534-.045.428.152.573.559.562.621-.017,1.242,0,1.863-.005M16.185,11.718h2.055c.262,0,.471-.039.427-.391-.066-.53-.121-1.062-.158-1.594-.029-.409-.235-.543-.627-.535-.813.018-1.627,0-2.44,0-1.424,0-1.423,0-1.572,1.382-.016.149-.041.3-.07.444-.095.48.042.729.589.7.6-.033,1.2-.008,1.8-.009M32.963,8.152v0c.664,0,1.327,0,1.991,0,.341,0,.527-.127.488-.5-.051-.489-.089-.979-.135-1.469-.035-.369-.19-.577-.611-.57q-1.7.029-3.4,0c-.384-.006-.545.154-.57.518a8.517,8.517,0,0,1-.128,1.339c-.139.6.128.708.635.688.577-.024,1.156-.005,1.734-.005" transform="translate(0 0)" fill="#fff"/>
    <path id="Path_101" data-name="Path 101" d="M315.447,300.7c0-.708-.013-1.416,0-2.124.02-.844.371-1.263,1.195-1.292,1.2-.043,2.4-.042,3.6,0a1.093,1.093,0,0,1,1.168,1.245q.025,2.22,0,4.44a1.1,1.1,0,0,1-1.186,1.232q-1.8.05-3.6,0a1.1,1.1,0,0,1-1.168-1.189c-.029-.771-.006-1.544-.006-2.316h0m2.11.009h0c0,.322,0,.643,0,.965a.383.383,0,0,0,.231.414,1,1,0,0,0,1.516-1.005c0-.279,0-.558,0-.836,0-.886,0-.886-.886-.886-.863,0-.863,0-.866.834,0,.172,0,.343,0,.515" transform="translate(-274.814 -258.966)" fill="#fff"/>
    <path id="Path_102" data-name="Path 102" d="M239.395,300.666c0-.708-.013-1.416,0-2.123.02-.831.381-1.247,1.21-1.277,1.178-.042,2.359-.043,3.537,0,.856.03,1.213.452,1.221,1.331q.019,2.123,0,4.246c-.008.928-.413,1.34-1.339,1.356q-1.64.028-3.281,0c-.93-.015-1.323-.423-1.353-1.346,0-.043,0-.086,0-.129q0-1.03,0-2.059m3.862.091c0-.279.007-.558,0-.836-.007-.228.034-.472-.286-.566-1-.3-1.461.03-1.461,1.066a7.459,7.459,0,0,1-.006.9c-.079.64.207.81.809.785.944-.04.945-.008.947-.963q0-.193,0-.386" transform="translate(-208.558 -258.951)" fill="#fff"/>
    <path id="Path_103" data-name="Path 103" d="M397.44,300.73c0,.729.01,1.459,0,2.188-.014.8-.379,1.236-1.151,1.26q-1.8.057-3.6,0c-.821-.027-1.2-.445-1.209-1.28q-.029-2.155,0-4.311c.014-.915.367-1.294,1.293-1.328,1.135-.043,2.274-.042,3.409,0,.906.031,1.247.438,1.262,1.352,0,.022,0,.043,0,.064q0,1.03,0,2.059m-2.109-.01c-.025-1.493.233-1.375-1.227-1.388-.388,0-.542.147-.531.532.017.579.014,1.159,0,1.738-.007.364.165.471.509.491,1.247.07,1.247.08,1.247-1.179v-.193" transform="translate(-341.041 -258.945)" fill="#fff"/>
    <path id="Path_104" data-name="Path 104" d="M245.345,224.332c0,.729.012,1.459,0,2.188-.017.873-.4,1.27-1.26,1.281q-1.737.023-3.476,0a1.1,1.1,0,0,1-1.225-1.186q-.043-2.284,0-4.569a1.053,1.053,0,0,1,1.192-1.135q1.77-.02,3.54,0c.825.008,1.208.394,1.228,1.234.017.729,0,1.459,0,2.188m-2.112-.022h-.005c0-.277,0-.554,0-.832a.414.414,0,0,0-.276-.449c-.906-.333-1.468.039-1.469.985q0,.384,0,.768c0,.918,0,.883.918.926.635.031.929-.162.836-.824a4.181,4.181,0,0,1,0-.575" transform="translate(-208.532 -192.449)" fill="#fff"/>
    <path id="Path_105" data-name="Path 105" d="M321.387,224.382c0,.729.014,1.459,0,2.187a1.1,1.1,0,0,1-1.237,1.235q-1.737.025-3.474,0a1.117,1.117,0,0,1-1.249-1.234q-.037-2.219,0-4.439a1.086,1.086,0,0,1,1.244-1.219q1.737-.016,3.474,0a1.089,1.089,0,0,1,1.242,1.218c.018.75,0,1.5,0,2.252m-2.11-.017h-.007c0-.3,0-.6,0-.9a.417.417,0,0,0-.228-.42.984.984,0,0,0-1.516.916,8.45,8.45,0,0,1-.006.959c-.074.636.209.809.808.787.947-.036.949-.006.951-.962,0-.128,0-.256,0-.384" transform="translate(-274.782 -192.453)" fill="#fff"/>
    <path id="Path_106" data-name="Path 106" d="M397.433,224.367c0,.729.011,1.459,0,2.187-.016.838-.4,1.242-1.214,1.256q-1.737.029-3.474,0a1.117,1.117,0,0,1-1.268-1.217q-.043-2.219,0-4.439c.016-.876.413-1.231,1.292-1.237q1.7-.012,3.41,0c.867.006,1.242.382,1.257,1.262.012.729,0,1.458,0,2.187m-2.108-.048h-.006c0-.277,0-.555,0-.832a.419.419,0,0,0-.282-.448c-.907-.334-1.465.037-1.466.985q0,.384,0,.768c0,.918,0,.883.916.926.632.029.933-.159.843-.824a4.314,4.314,0,0,1,0-.576" transform="translate(-341.035 -192.459)" fill="#fff"/>
  </g>
</svg>
