<svg xmlns="http://www.w3.org/2000/svg" viewBox="0 0 264.56 61.43"><defs><style>.cls-1,.cls-3{fill:#9390fc;}.cls-2{fill:#9b9b9b;}.cls-3{fill-rule:evenodd;}</style></defs><g id="Layer_2" data-name="Layer 2"><g id="Layer_1-2" data-name="Layer 1"><path class="cls-1" d="M62.76,45.85V11H73a10,10,0,0,1,5.1,1.16A7,7,0,0,1,81,15.56a14,14,0,0,1,.92,5.35,11.15,11.15,0,0,1-1.16,5.48,6.91,6.91,0,0,1-3.24,3,11.88,11.88,0,0,1-4.93.94H69.12V45.85Zm6.36-20h2.41a6.15,6.15,0,0,0,2.69-.49,2.67,2.67,0,0,0,1.33-1.6,9.66,9.66,0,0,0,.37-2.94,14.24,14.24,0,0,0-.28-3.08,2.68,2.68,0,0,0-1.21-1.74,5.79,5.79,0,0,0-2.9-.56H69.12Z"/><path class="cls-1" d="M90.84,45.85V11H97.2V41.47h8.43v4.38Z"/><path class="cls-1" d="M112.6,45.85l7-34.83h6.8l7,34.83h-5.89l-1.38-8H120l-1.42,8Zm8-12.08h4.73L123,19.15Z"/><path class="cls-1" d="M144.07,45.85V15.71h-5.55V11H155.9v4.69h-5.47V45.85Z"/><path class="cls-1" d="M164.67,45.85V11H171V45.85Z"/><path class="cls-1" d="M181.74,45.85V11h4.43l8.47,19.87V11h5.24V45.85h-4.21L187.16,25V45.85Z"/><path class="cls-1" d="M220.14,46.32a10.92,10.92,0,0,1-6-1.41,7.24,7.24,0,0,1-3-4,21,21,0,0,1-.82-6.27V11h6.19v24.3a21.21,21.21,0,0,0,.22,3.07,4.27,4.27,0,0,0,1,2.32,3.74,3.74,0,0,0,4.82,0,4.66,4.66,0,0,0,1-2.32,19.85,19.85,0,0,0,.23-3.07V11h6.15V34.59a21,21,0,0,1-.82,6.27,7.28,7.28,0,0,1-2.94,4A10.9,10.9,0,0,1,220.14,46.32Z"/><path class="cls-1" d="M240.26,45.85l.6-34.83h6.58l4.95,24.12L257.55,11h6.36l.65,34.83h-4.73l-.52-24.21-4.95,24.21h-3.82l-5-24.29L245,45.85Z"/><path class="cls-2" d="M63.06,61.28v-8.4h2v8.4Z"/><path class="cls-2" d="M79.17,61.28V54.47H76.48V52.88H83.8v1.59H81.11v6.81Z"/><path class="cls-2" d="M111.86,61.43a6.87,6.87,0,0,1-1.93-.27,4.55,4.55,0,0,1-1.5-.71l.66-1.46a4.43,4.43,0,0,0,1.27.63,4.91,4.91,0,0,0,1.5.25,2.91,2.91,0,0,0,.93-.12,1.23,1.23,0,0,0,.53-.32.7.7,0,0,0,.16-.46.62.62,0,0,0-.26-.54,2.17,2.17,0,0,0-.7-.32,9.6,9.6,0,0,0-1-.24c-.34-.08-.69-.17-1-.28a4.19,4.19,0,0,1-1-.43,2,2,0,0,1-.7-.71,2.16,2.16,0,0,1-.26-1.1A2.34,2.34,0,0,1,109,54a2.57,2.57,0,0,1,1.17-.95,4.89,4.89,0,0,1,2-.35,6.42,6.42,0,0,1,1.57.19,4.84,4.84,0,0,1,1.35.55L114.44,55a4.7,4.7,0,0,0-1.16-.49,4.3,4.3,0,0,0-1.15-.16,3,3,0,0,0-.93.12,1.1,1.1,0,0,0-.51.35.81.81,0,0,0-.16.48.65.65,0,0,0,.27.54,1.84,1.84,0,0,0,.69.31c.29.08.61.16,1,.23s.7.17,1,.28a5.07,5.07,0,0,1,.94.43,2,2,0,0,1,.71.7,2,2,0,0,1,.27,1.08,2.31,2.31,0,0,1-.39,1.3,2.75,2.75,0,0,1-1.19,1A4.74,4.74,0,0,1,111.86,61.43Z"/><path class="cls-2" d="M131.26,61.43a5,5,0,0,1-1.84-.33,4.29,4.29,0,0,1-1.46-.91,4.06,4.06,0,0,1-1-1.38,4.57,4.57,0,0,1,0-3.46A4.16,4.16,0,0,1,128,54a4.51,4.51,0,0,1,1.45-.91,5.17,5.17,0,0,1,1.83-.32,4.89,4.89,0,0,1,1.83.32,4.27,4.27,0,0,1,1.46.9,4.06,4.06,0,0,1,1,1.38,4.62,4.62,0,0,1,0,3.48,4.06,4.06,0,0,1-1,1.38,4.29,4.29,0,0,1-1.46.91A5.06,5.06,0,0,1,131.26,61.43Zm0-1.65a2.62,2.62,0,0,0,1.88-.76,2.54,2.54,0,0,0,.55-.85,2.75,2.75,0,0,0,.2-1.09,2.67,2.67,0,0,0-.2-1.08,2.58,2.58,0,0,0-.55-.86,2.53,2.53,0,0,0-.84-.56,2.68,2.68,0,0,0-1-.2,2.75,2.75,0,0,0-1,.2,2.39,2.39,0,0,0-.83.56,2.78,2.78,0,0,0-.56.86,2.85,2.85,0,0,0-.19,1.08,2.94,2.94,0,0,0,.19,1.09,2.73,2.73,0,0,0,.56.85,2.39,2.39,0,0,0,.83.56A2.57,2.57,0,0,0,131.24,59.78Z"/><path class="cls-2" d="M147.73,61.28v-8.4h2V59.7h4.19v1.58Z"/><path class="cls-2" d="M169,61.43a3.81,3.81,0,0,1-2.79-1,3.85,3.85,0,0,1-1-2.86V52.88h2v4.65a2.49,2.49,0,0,0,.49,1.72,1.78,1.78,0,0,0,1.37.53,1.81,1.81,0,0,0,1.38-.53,2.54,2.54,0,0,0,.49-1.72V52.88h1.91v4.69a3.85,3.85,0,0,1-1,2.86A3.81,3.81,0,0,1,169,61.43Z"/><path class="cls-2" d="M186.78,61.28V54.47h-2.69V52.88h7.32v1.59h-2.69v6.81Z"/><path class="cls-2" d="M202.89,61.28v-8.4h2v8.4Z"/><path class="cls-2" d="M221.33,61.43a5,5,0,0,1-1.84-.33,4.29,4.29,0,0,1-1.46-.91,4.06,4.06,0,0,1-1-1.38,4.57,4.57,0,0,1,0-3.46A4.16,4.16,0,0,1,218,54a4.45,4.45,0,0,1,1.46-.91,5.09,5.09,0,0,1,1.83-.32,5,5,0,0,1,1.83.32,4.32,4.32,0,0,1,1.45.9,4.06,4.06,0,0,1,1,1.38,4.62,4.62,0,0,1,0,3.48,4.06,4.06,0,0,1-1,1.38,4.35,4.35,0,0,1-1.45.91A5.16,5.16,0,0,1,221.33,61.43Zm0-1.65a2.49,2.49,0,0,0,1-.2,2.53,2.53,0,0,0,.84-.56,2.73,2.73,0,0,0,.56-.85,2.94,2.94,0,0,0,.19-1.09,2.85,2.85,0,0,0-.19-1.08,2.78,2.78,0,0,0-.56-.86,2.53,2.53,0,0,0-.84-.56,2.66,2.66,0,0,0-1-.2,2.77,2.77,0,0,0-1,.2,2.39,2.39,0,0,0-.83.56,2.58,2.58,0,0,0-.55.86,2.67,2.67,0,0,0-.2,1.08,2.75,2.75,0,0,0,.2,1.09,2.54,2.54,0,0,0,.55.85,2.39,2.39,0,0,0,.83.56A2.59,2.59,0,0,0,221.32,59.78Z"/><path class="cls-2" d="M237.8,61.28v-8.4h1.61l5,6h-.78v-6h1.92v8.4H243.9l-5-6.05h.78v6.05Z"/><path class="cls-2" d="M260.7,61.43a6.94,6.94,0,0,1-1.94-.27,4.4,4.4,0,0,1-1.49-.71l.66-1.46a4.31,4.31,0,0,0,1.27.63,4.91,4.91,0,0,0,1.5.25,3,3,0,0,0,.93-.12,1.13,1.13,0,0,0,.52-.32.71.71,0,0,0,.17-.46.65.65,0,0,0-.26-.54,2.13,2.13,0,0,0-.71-.32c-.29-.09-.61-.17-1-.24s-.69-.17-1-.28a4.19,4.19,0,0,1-1-.43,2,2,0,0,1-.69-.71,2.06,2.06,0,0,1-.26-1.1,2.41,2.41,0,0,1,.38-1.31,2.68,2.68,0,0,1,1.17-.95,4.94,4.94,0,0,1,2-.35,6.29,6.29,0,0,1,1.56.19,4.6,4.6,0,0,1,1.35.55L263.28,55a4.86,4.86,0,0,0-1.16-.49A4.36,4.36,0,0,0,261,54.3a2.91,2.91,0,0,0-.93.12,1.1,1.1,0,0,0-.51.35.75.75,0,0,0-.16.48.67.67,0,0,0,.26.54,2,2,0,0,0,.7.31c.29.08.61.16,1,.23s.7.17,1,.28a5.17,5.17,0,0,1,.95.43,2,2,0,0,1,.7.7,2,2,0,0,1,.27,1.08,2.31,2.31,0,0,1-.39,1.3,2.72,2.72,0,0,1-1.18,1A4.8,4.8,0,0,1,260.7,61.43Z"/><path class="cls-3" d="M16.15,56.9a8.47,8.47,0,0,0,1-2.68L25,11.34c-1.91-.09-9.64-.67-11.78,0a7.59,7.59,0,0,0-2.42,1.3,8.55,8.55,0,0,0-1.94,2.11h0a6.81,6.81,0,0,0-1,2.45L0,60.36l8.87.41a8.25,8.25,0,0,0,3-.36A7.31,7.31,0,0,0,14.31,59,8,8,0,0,0,16.15,56.9Z"/><path class="cls-3" d="M33.84,0,27.11,36.57c18,.84,16.74-3.72,19.1-17.08h0c.24-1.33.47-2.65.71-4,.27-1.52.49-2.69.65-3.51h0a14.57,14.57,0,0,0,.53-4.95,7.35,7.35,0,0,0-.41-1.51A8.87,8.87,0,0,0,47,4.14h0a7.51,7.51,0,0,0-.91-1.21h0C43.15-.3,37.82.19,33.84,0Z"/></g></g></svg>