<svg width="40" height="40" viewBox="0 0 40 40" fill="none" xmlns="http://www.w3.org/2000/svg">
<rect width="40" height="40" rx="8" fill="url(#paint0_linear_364_2320)"/>
<g clip-path="url(#clip0_364_2320)">
<path d="M28.8067 17.7127C28.4177 17.656 28.0464 17.512 27.7206 17.2914C27.3947 17.0708 27.1227 16.7793 26.9247 16.4386C26.7267 16.0978 26.6079 15.7167 26.577 15.3235C26.5462 14.9303 26.6042 14.5352 26.7467 14.1677C26.8372 13.9274 26.8506 13.6646 26.7848 13.4163C26.7191 13.168 26.5775 12.9466 26.38 12.7831C25.508 12.0484 24.5155 11.4713 23.4467 11.0774C23.2033 10.9867 22.9376 10.9754 22.6874 11.0451C22.4372 11.1147 22.2153 11.2618 22.0533 11.4654C21.8095 11.7782 21.4979 12.0312 21.1421 12.2052C20.7864 12.3792 20.3958 12.4696 20 12.4696C19.6042 12.4696 19.2136 12.3792 18.8579 12.2052C18.5021 12.0312 18.1905 11.7782 17.9467 11.4654C17.7847 11.2618 17.5628 11.1147 17.3126 11.0451C17.0624 10.9754 16.7967 10.9867 16.5533 11.0774C15.5665 11.4411 14.6437 11.9604 13.82 12.6159C13.6124 12.7808 13.4628 13.0081 13.3932 13.2644C13.3237 13.5208 13.3377 13.7928 13.4333 14.0406C13.5872 14.4179 13.6507 14.8261 13.6189 15.2325C13.5871 15.6389 13.4608 16.0322 13.2501 16.3808C13.0395 16.7294 12.7503 17.0235 12.4059 17.2398C12.0614 17.456 11.6713 17.5882 11.2667 17.6258C11.004 17.6539 10.7573 17.766 10.5629 17.9454C10.3685 18.1248 10.2366 18.3621 10.1867 18.6224C10.0625 19.2389 10 19.8663 10 20.4952C9.9991 21.0218 10.0415 21.5475 10.1267 22.0671C10.1691 22.3357 10.2985 22.5828 10.4949 22.7702C10.6914 22.9576 10.9438 23.0749 11.2133 23.1039C11.6268 23.1428 12.025 23.2805 12.3745 23.5055C12.724 23.7305 13.0147 24.0363 13.2223 24.3971C13.4299 24.758 13.5483 25.1635 13.5676 25.5797C13.5869 25.9959 13.5066 26.4107 13.3333 26.7894C13.22 27.0357 13.1918 27.3129 13.2534 27.5771C13.315 27.8413 13.4628 28.0773 13.6733 28.2475C14.5401 28.9689 15.5231 29.5366 16.58 29.9264C16.7152 29.9734 16.857 29.9982 17 30C17.1961 29.9996 17.3893 29.952 17.5633 29.8612C17.7373 29.7704 17.887 29.6391 18 29.4783C18.2376 29.1309 18.5561 28.847 18.9279 28.6512C19.2997 28.4554 19.7135 28.3536 20.1333 28.3546C20.5402 28.3551 20.9413 28.4509 21.3047 28.6344C21.6681 28.8178 21.9838 29.0839 22.2267 29.4114C22.3882 29.6293 22.617 29.7874 22.8775 29.8612C23.1379 29.935 23.4154 29.9203 23.6667 29.8194C24.6331 29.4292 25.5329 28.8898 26.3333 28.2208C26.5344 28.054 26.6776 27.8275 26.7423 27.5739C26.807 27.3203 26.7898 27.0527 26.6933 26.8095C26.5365 26.437 26.4682 26.0331 26.4936 25.6296C26.5191 25.2261 26.6377 24.8341 26.84 24.4844C27.0424 24.1348 27.323 23.8371 27.6597 23.615C27.9963 23.3928 28.3799 23.2522 28.78 23.2042C29.0395 23.1682 29.2808 23.0503 29.4689 22.8675C29.6571 22.6847 29.7824 22.4465 29.8267 22.1875C29.9337 21.6296 29.9917 21.0633 30 20.4952C30.0001 19.896 29.9443 19.2981 29.8333 18.7093C29.7883 18.456 29.6649 18.2234 29.4806 18.0445C29.2963 17.8656 29.0605 17.7495 28.8067 17.7127ZM23.3333 20.4952C23.3333 21.1567 23.1378 21.8033 22.7716 22.3533C22.4053 22.9033 21.8847 23.3319 21.2756 23.5851C20.6665 23.8382 19.9963 23.9044 19.3497 23.7754C18.7031 23.6463 18.1092 23.3278 17.643 22.8601C17.1768 22.3924 16.8593 21.7965 16.7307 21.1477C16.6021 20.499 16.6681 19.8265 16.9204 19.2154C17.1727 18.6043 17.5999 18.082 18.1481 17.7145C18.6963 17.347 19.3407 17.1509 20 17.1509C20.8841 17.1509 21.7319 17.5032 22.357 18.1304C22.9821 18.7576 23.3333 19.6083 23.3333 20.4952Z" fill="#646B30"/>
</g>
<defs>
<linearGradient id="paint0_linear_364_2320" x1="20" y1="0" x2="20" y2="40" gradientUnits="userSpaceOnUse">
<stop stop-color="#EDF1ED"/>
<stop offset="1" stop-color="#EDF1ED"/>
</linearGradient>
<clipPath id="clip0_364_2320">
<rect width="24" height="24" fill="white" transform="translate(8 8)"/>
</clipPath>
</defs>
</svg>
