<svg height="512" viewBox="0 0 64 64" width="512" xmlns="http://www.w3.org/2000/svg"><g id="Captions"><g><g><path d="m57 25c-1.657 0-3 1.343-3 3v10.757l-3.135 3.135c.088-.281.135-.581.135-.892 0-1.657-1.343-3-3-3-.834 0-1.588.34-2.131.889l-3.111 3.111h-.758c-4.418 0-8 3.582-8 8v10h12v-4.757l13.121-13.122c.563-.562.879-1.326.879-2.121v-12c0-1.657-1.343-3-3-3z" fill="#f0c8a0"/></g><g><path d="m51.99 40.767-1.125 1.125c-.148.474-.41.898-.754 1.239l-5.49 5.49.5.5 5.99-5.99c.549-.543.889-1.297.889-2.131 0-.078-.004-.156-.01-.233z" fill="#d2aa82"/></g><g><path d="m7 25c1.657 0 3 1.343 3 3v10.757l3.135 3.135c-.088-.281-.135-.581-.135-.892 0-1.657 1.343-3 3-3 .834 0 1.588.34 2.131.889l3.111 3.111h.758c4.418 0 8 3.582 8 8v10h-12v-4.757l-13.121-13.122c-.563-.562-.879-1.326-.879-2.121v-12c0-1.657 1.343-3 3-3z" fill="#f0c8a0"/></g><g><path d="m12.01 40.767 1.125 1.125c.148.474.41.898.754 1.239l5.49 5.49-.5.5-5.99-5.99c-.549-.543-.889-1.297-.889-2.131 0-.078.004-.156.01-.233z" fill="#d2aa82"/></g><g><path d="m39 30h-5v-5c0-.552-.448-1-1-1h-2c-.552 0-1 .448-1 1v5h-5c-.552 0-1 .448-1 1v2c0 .552.448 1 1 1h5v5c0 .552.448 1 1 1h2c.552 0 1-.448 1-1v-5h5c.552 0 1-.448 1-1v-2c0-.552-.448-1-1-1z" fill="#00a0c8"/></g><g><path d="m53 14h-5v-5c0-.552-.448-1-1-1h-2c-.552 0-1 .448-1 1v5h-5c-.552 0-1 .448-1 1v2c0 .552.448 1 1 1h5v5c0 .552.448 1 1 1h2c.552 0 1-.448 1-1v-5h5c.552 0 1-.448 1-1v-2c0-.552-.448-1-1-1z" fill="#c80a50"/></g><g><path d="m25 14h-5v-5c0-.552-.448-1-1-1h-2c-.552 0-1 .448-1 1v5h-5c-.552 0-1 .448-1 1v2c0 .552.448 1 1 1h5v5c0 .552.448 1 1 1h2c.552 0 1-.448 1-1v-5h5c.552 0 1-.448 1-1v-2c0-.552-.448-1-1-1z" fill="#fab400"/></g></g></g></svg>