<svg xmlns="http://www.w3.org/2000/svg" version="1.1" xmlns:xlink="http://www.w3.org/1999/xlink" xmlns:svgjs="http://svgjs.com/svgjs" width="512" height="512" x="0" y="0" viewBox="0 0 24 24" style="enable-background:new 0 0 512 512" xml:space="preserve" class=""><g><path d="M7 21h10a4 4 0 0 0 4-4v-4.85a1 1 0 1 0-2 0V17a2 2 0 0 1-2 2H7a2 2 0 0 1-2-2V7a2 2 0 0 1 2-2h5a1 1 0 0 0 0-2H7a4 4 0 0 0-4 4v10a4 4 0 0 0 4 4z" fill="#e3b953" data-original="#000000" class="" opacity="1"></path><path d="M20.29 4.29 12 12.59l-3.29-3.3a1 1 0 1 0-1.42 1.42l4 4a1 1 0 0 0 1.42 0l9-9a1 1 0 1 0-1.42-1.42z" fill="#e3b953" data-original="#000000" class="" opacity="1"></path></g></svg>