<svg enable-background="new 0 0 512 512" viewBox="0 0 512 512" xmlns="http://www.w3.org/2000/svg"><g id="_x30_5_Conversation_x2C__negotiating_x2C__chat_bubbles_x2C__chat_x2C__message"><g><g><path d="m490.184 479.776v31.224h-145.715v-31.224c0-40.238 32.619-72.857 72.857-72.857 40.239-.001 72.858 32.619 72.858 72.857z" fill="#ff641a"/><path d="m479.776 84.265v123.41c0 17.246-13.978 31.225-31.225 31.225h-41.633l10.408 43.121-70.63-41.633h-178.739c-21.087 0-34.43-3.05-46.15-13.697l111.641-121.956 152.653-51.694h62.449c17.247 0 31.226 13.978 31.226 31.224z" fill="#62dbfb"/><ellipse cx="417.327" cy="365.286" fill="#ffe1ba" rx="41.633" ry="41.633" transform="matrix(.707 -.707 .707 .707 -136.064 402.084)"/><path d="m386.102 167.531c0 17.246-13.978 31.225-31.224 31.225h-189.575c-.148.095-80.887 51.944-81.038 52.041l27.061-53.529h-47.877c-17.246 0-31.225-13.978-31.225-31.224v-133.82c0-17.246 13.979-31.224 31.225-31.224h291.429c17.246 0 31.224 13.978 31.224 31.224z" fill="#dcebfd"/><path d="m167.531 479.776v31.224h-145.715v-31.224c0-40.238 32.619-72.857 72.857-72.857 40.238-.001 72.858 32.619 72.858 72.857z" fill="#fbd642"/><ellipse cx="94.673" cy="365.286" fill="#ffe1ba" rx="41.633" ry="41.633" transform="matrix(.23 -.973 .973 .23 -282.592 373.501)"/><g fill="#8795de"><path d="m156.487 63.449h-61.813c-5.748 0-10.408-4.66-10.408-10.408s4.66-10.408 10.408-10.408h61.814c5.748 0 10.408 4.66 10.408 10.408s-4.661 10.408-10.409 10.408z"/><path d="m323.653 157.122h-228.979c-5.748 0-10.408-4.66-10.408-10.408s4.66-10.408 10.408-10.408h228.98c5.748 0 10.408 4.66 10.408 10.408-.001 5.749-4.661 10.408-10.409 10.408z"/><path d="m323.653 110.286h-228.979c-5.748 0-10.408-4.66-10.408-10.408s4.66-10.408 10.408-10.408h228.98c5.748 0 10.408 4.66 10.408 10.408-.001 5.748-4.661 10.408-10.409 10.408z"/></g></g></g></g><g id="Layer_1"/></svg>