<svg id="Capa_1" enable-background="new 0 0 512 512" height="512" viewBox="0 0 512 512" width="512" xmlns="http://www.w3.org/2000/svg"><g><g><path d="m166 331h75v-65.448l-15-24.552c0-49.629-40.371-90-90-90h-45v-37.5l-91 67.5 91 67.5v-37.5h45c16.538 0 30 13.462 30 30z" fill="#fd3"/></g><g><path d="m346 331h-75v-68.526l15-21.474c0-49.629 40.371-90 90-90h45v-37.5l91 67.5-91 67.5v-37.5h-45c-16.538 0-30 13.462-30 30z" fill="#ff4d4d"/></g><path d="m256 0-67.485 90h37.485l.015 181 29.828 30 .157-.157 30-29.843v-181h37.485z" fill="#7ed8f6"/><path d="m286 90h37.485l-67.485-90v300.843l30-29.843z" fill="#6aa9ff"/><path d="m346 391c0-5.61-.674-11.045-1.655-16.362l30.571-17.651-30-51.973-30.792 17.783c-8.437-7.178-17.9-12.656-28.124-16.289v-35.508h-30-30v35.508c-10.239 3.633-19.702 9.111-28.11 16.289l-30.806-17.783-30 51.973 30.571 17.651c-.981 5.332-1.655 10.752-1.655 16.362s.674 11.045 1.655 16.362l-30.571 17.651 30 51.973 30.79-17.783c8.438 7.178 17.901 12.656 28.126 16.289v36.508h30 30v-36.508c10.239-3.633 19.702-9.111 28.11-16.289l30.806 17.783 30-51.973-30.571-17.651c.981-5.332 1.655-10.752 1.655-16.362zm-90 30c-16.569 0-30-13.433-30-30 0-16.569 13.431-30 30-30s30 13.431 30 30c0 16.567-13.431 30-30 30z" fill="#cfe6e6"/><path d="m286 475.492c10.239-3.633 19.702-9.111 28.11-16.289l30.806 17.783 30-51.973-30.571-17.651c.981-5.332 1.655-10.752 1.655-16.362s-.674-11.045-1.655-16.362l30.571-17.651-30-51.973-30.792 17.783c-8.437-7.178-17.9-12.656-28.124-16.289v-35.508h-30v90c16.569 0 30 13.431 30 30 0 16.567-13.431 30-30 30v91h30z" fill="#a3c6cc"/><path d="m256 346c-24.814 0-45 20.186-45 45s20.186 45 45 45 45-20.186 45-45-20.186-45-45-45zm0 60c-8.276 0-15-6.724-15-15s6.724-15 15-15 15 6.724 15 15-6.724 15-15 15z" fill="#e6f2f2"/><path d="m301 391c0-24.814-20.186-45-45-45v30c8.276 0 15 6.724 15 15s-6.724 15-15 15v30c24.814 0 45-20.186 45-45z" fill="#cfe6e6"/></g></svg>