<svg id="Layer_1" enable-background="new 0 0 512 512" viewBox="0 0 512 512" xmlns="http://www.w3.org/2000/svg"><g clip-rule="evenodd" fill-rule="evenodd"><path d="m256 478c4.418 0 8 3.582 8 8s-3.582 8-8 8c-65.72 0-125.221-26.64-168.291-69.709-43.069-43.07-69.709-102.57-69.709-168.291 0-50.997 16.057-98.257 43.392-137.005 23.552-33.386 55.486-60.441 92.741-78.114l-15.136-4.056c-4.263-1.139-6.795-5.519-5.656-9.781 1.139-4.263 5.518-6.795 9.781-5.656l37.833 10.137c1.88.502 3.423 1.635 4.463 3.11.102.147.197.292.292.444.289.472.533.98.724 1.522.846 2.398.479 4.929-.781 6.925l-18.282 33.837c-2.088 3.883-6.929 5.338-10.812 3.25s-5.338-6.929-3.25-10.812l7.887-14.597c-34.845 16.478-64.717 41.76-86.741 72.98-25.485 36.124-40.455 80.213-40.455 127.816 0 61.304 24.848 116.805 65.022 156.978 40.173 40.174 95.674 65.022 156.978 65.022z" fill="#3d8e95"/><path d="m256 34c-4.418 0-8-3.582-8-8s3.582-8 8-8c65.721 0 125.221 26.64 168.291 69.709 43.069 43.07 69.709 102.571 69.709 168.291 0 50.997-16.057 98.257-43.392 137.005-23.552 33.386-55.486 60.441-92.74 78.114l15.136 4.056c4.263 1.139 6.795 5.518 5.656 9.781s-5.518 6.795-9.781 5.656l-37.833-10.137c-1.88-.502-3.423-1.635-4.463-3.11-.103-.147-.197-.293-.292-.444-.289-.472-.533-.98-.724-1.522-.846-2.398-.478-4.929.782-6.924l18.282-33.838c2.088-3.883 6.929-5.338 10.812-3.25s5.338 6.929 3.25 10.812l-7.887 14.597c34.845-16.478 64.717-41.76 86.741-72.98 25.483-36.124 40.453-80.213 40.453-127.816 0-61.304-24.848-116.805-65.022-156.978-40.173-40.174-95.674-65.022-156.978-65.022z" fill="#3d8e95"/><path d="m296.338 144.994c13.086 4.757 25.093 11.762 35.56 20.544l52.218-18.57 30.02 52.809-41.751 35.63c2.417 13.617 2.435 27.654.059 41.278l42.044 35.817-30.723 52.401-51.495-18.313c-10.556 8.93-22.695 16.047-35.938 20.859l-9.949 54.084-60.742-.406-9.92-53.638c-13.265-4.804-25.425-11.919-35.997-20.853l-51.947 18.47-30.019-52.808 41.745-35.558c-2.381-13.622-2.368-27.658.04-41.276l-42.137-35.891 30.724-52.401 51.877 18.393c10.477-8.796 22.497-15.813 35.6-20.573l10.034-54.525 60.742.407z" fill="#54c4cc"/><path d="m159.311 303.137 86.065-147.172c2.258-3.861 6.098-6.064 10.57-6.064s8.312 2.203 10.57 6.064l86.065 147.172c2.276 3.891 2.294 8.364.051 12.274s-6.113 6.152-10.621 6.152h-172.13c-4.508 0-8.378-2.242-10.621-6.152-2.244-3.91-2.225-8.383.051-12.274z" fill="#ffb229"/><g fill="#d8ecfe"><path d="m255.946 301.634c4.406 0 8-3.594 8-8s-3.594-8-8-8-8 3.594-8 8c.001 4.406 3.594 8 8 8z"/><path d="m255.946 265.745c-.01-.039-11.479-48.102-11.479-61.319 0-5.386 5.166-9.793 11.479-9.793s11.479 4.407 11.479 9.793c.001 13.218-11.469 61.28-11.479 61.319z"/></g></g></svg>