<svg id="Capa_1" enable-background="new 0 0 512 512" height="512" viewBox="0 0 512 512" width="512" xmlns="http://www.w3.org/2000/svg"><g><g><g><path d="m110.282 466.044 117.206-151.934-51.599-51.599-151.934 117.206c-29.39 22.672-32.174 66.007-5.927 92.254 26.247 26.247 69.581 23.463 92.254-5.927zm-60.434-25.893c-5.858-5.858-5.858-15.355 0-21.213s15.355-5.858 21.213 0 5.858 15.355 0 21.213-15.355 5.858-21.213 0z" fill="#e50058"/></g><g><path d="m110.282 466.044 117.206-151.934-25.799-25.799-130.627 130.627c5.857 5.858 5.857 15.355 0 21.213-5.858 5.858-15.355 5.858-21.213 0l-31.82 31.82c26.247 26.247 69.58 23.463 92.253-5.927z" fill="#b40042"/></g><g><g><g><path d="m315 350c-96.495 0-175-78.505-175-175s78.505-175 175-175 175 78.505 175 175-78.505 175-175 175z" fill="#ff6379"/></g></g><g><path d="m490 175c0-48.248-19.626-91.998-51.314-123.686l-247.372 247.372c31.688 31.688 75.438 51.314 123.686 51.314 96.495 0 175-78.505 175-175z" fill="#e50058"/></g><circle cx="315" cy="175" fill="#9ee2f8" r="115"/><g><path d="m430 175c0-31.706-12.897-60.456-33.721-81.279l-162.558 162.558c20.823 20.824 49.573 33.721 81.279 33.721 63.411 0 115-51.589 115-115z" fill="#6aa9ff"/></g></g></g><g><g><path d="m466.938 512h-218.37c-16.086 0-30.573-8.27-38.751-22.123-8.178-13.852-8.421-30.531-.65-44.616l109.185-197.898c8.036-14.565 22.767-23.262 39.401-23.262 16.635 0 31.364 8.696 39.4 23.262l109.187 197.899c7.771 14.084 7.528 30.764-.65 44.616-8.179 13.852-22.665 22.122-38.752 22.122z" fill="#8989a5"/><path d="m357.754 224.102c16.635 0 31.364 8.696 39.4 23.262l109.186 197.898c7.771 14.084 7.528 30.764-.65 44.616-8.179 13.852-22.665 22.122-38.752 22.122h-109.184z" fill="#616173"/><path d="m357.753 254.102c-2.663 0-9.272.756-13.134 7.754l-109.185 197.898c-3.734 6.767-1.092 12.655.217 14.872s5.188 7.374 12.917 7.374h218.37c7.729 0 11.608-5.157 12.917-7.374s3.951-8.105.217-14.872l-109.185-197.899c-3.861-6.998-10.471-7.753-13.134-7.753z" fill="#fff36c"/><path d="m370.887 261.855c-3.861-6.998-10.47-7.753-13.133-7.754v227.899h109.185c7.729 0 11.608-5.157 12.917-7.374s3.951-8.105.217-14.872z" fill="#ffda44"/><g><path d="m372.753 437c0 8.284-6.716 15-15 15s-15-6.716-15-15 6.716-15 15-15c8.285 0 15 6.716 15 15z" fill="#8989a5"/><path d="m357.754 452c8.284 0 15-6.716 15-15s-6.715-14.999-15-15z" fill="#616173"/><g><g><g><path d="m357.753 402c-8.284 0-15-6.716-15-15v-65c0-8.284 6.716-15 15-15s15 6.716 15 15v65c0 8.284-6.716 15-15 15z" fill="#8989a5"/></g></g></g><path d="m357.754 402c8.284 0 15-6.716 15-15v-65c0-8.284-6.716-15-15-15z" fill="#616173"/></g></g></g></g></svg>