<svg id="svg8" height="512" viewBox="0 0 16.933333 16.933334" width="512" xmlns="http://www.w3.org/2000/svg" xmlns:svg="http://www.w3.org/2000/svg"><g id="layer1"><path id="path9584" d="m1.0583236 2.645833c-.58631693 0-1.05833354.47201-1.05833354 1.05833v12.17084c0 .58632.47201661 1.05833 1.05833354 1.05833h9.5250004c.586317 0 1.058333-.47201 1.058333-1.05833v-12.17084c0-.58632-.472016-1.05833-1.058333-1.05833z" fill="#ff9751"/><path id="path9586" d="m2.6938827 2.6458363c-.029357.0831-.048059.17121-.048059.26458v1.85209c0 .43974.354013.79375.79375.79375h5.2916666c.4397369 0 .7937503-.35401.7937503-.79375v-1.85209c0-.0934-.0187-.1815-.04806-.26458z" fill="#ff7f29"/><path id="path9588" d="m10.752305 2.662373c1.160276 10.90271-6.8515325 13.4833-10.29136083 14.08699.1698087.11592.3753802.18397.59737943.18397h9.5250004c.586317 0 1.058333-.47201 1.058333-1.05833v-12.17084c0-.52843-.384398-.96094-.889352-1.04179z" fill="#ff7f29"/><path id="path9590" d="m1.6221135 3.704163c-.312277 0-.5637899.25151-.5637899.56379v10.54871c0 .31228.2515129.56379.5637899.56379h8.3974205c.312277 0 .56379-.25151.56379-.56379v-10.54871c0-.31228-.251513-.56379-.56379-.56379z" fill="#e4eff8"/><path id="path951" d="m7.9376304 9.7893235v.5292965h-3.4404949c-.4443135 0-.7929688.360356-.7929688.792969v1.059244h-.5292969v-1.059244c0-.728314.5880987-1.3222655 1.3222657-1.3222655z" fill="#c4dcf0" font-variant-ligatures="normal" font-variant-position="normal" font-variant-caps="normal" font-variant-numeric="normal" font-variant-alternates="normal" font-feature-settings="normal" text-indent="0" text-align="start" text-decoration-line="none" text-decoration-style="solid" text-decoration-color="#000000" text-transform="none" text-orientation="mixed" white-space="normal" shape-padding="0" isolation="auto" mix-blend-mode="normal" solid-color="#000000" solid-opacity="1" vector-effect="none"/><path id="path949" d="m4.2330728 7.4080731v.5292969h3.4404949c.4443135 0 .7929688.3603558.7929688.7929688v1.0592446h.5292969v-1.0592446c0-.728314-.5880987-1.3222657-1.3222657-1.3222657z" fill="#c4dcf0" font-variant-ligatures="normal" font-variant-position="normal" font-variant-caps="normal" font-variant-numeric="normal" font-variant-alternates="normal" font-feature-settings="normal" text-indent="0" text-align="start" text-decoration-line="none" text-decoration-style="solid" text-decoration-color="#000000" text-transform="none" text-orientation="mixed" white-space="normal" shape-padding="0" isolation="auto" mix-blend-mode="normal" solid-color="#000000" solid-opacity="1" vector-effect="none"/><path id="path9592" d="m10.163749 6.17621 3.928862-3.92886c.207294-.2073.54106-.2073.748354 0l.374178.37417c.207294.2073.207294.54106 0 .74836l-3.928862 3.92886-1.4967096.37418z" fill="#549ad4"/><path id="path9594" d="m10.583324 7.672403c-.833223 4.14916-3.4030744 6.44396-5.9200525 7.70805h5.3562625c.312277 0 .56379-.25151.56379-.56379z" fill="#c4dcf0"/><path id="circle9596" d="m14.552072 13.758332c0 1.753504-1.421496 3.174999-3.175 3.174999-1.7535034 0-3.1749988-1.421496-3.1749989-3.174999.0000001-1.753503 1.4214955-3.174999 3.1749989-3.174999 1.753504 0 3.175 1.421495 3.175 3.174999z" fill="#f55"/><path id="path9600" d="m13.347495 11.273213c.437244.558265.675015 1.246836.675411 1.95595 0 1.753504-1.421496 3.175-3.175 3.175-.715795-.0013-1.4101589-.244381-1.9704222-.68988.6014524.769048 1.5232802 1.218623 2.4995892 1.21905 1.753504 0 3.175-1.421496 3.175-3.175-.0014-.968765-.444946-1.8839-1.204578-2.48512z" fill="#ff2929"/><path id="path5951" d="m3.9687402 7.1434892v.5292969h3.4404949c.4443135 0 .7929688.3603558.7929688.7929688v1.0592446h.5292969v-1.0592446c0-.728314-.5880987-1.3222657-1.3222657-1.3222657z" fill="#ff9751" font-variant-ligatures="normal" font-variant-position="normal" font-variant-caps="normal" font-variant-numeric="normal" font-variant-alternates="normal" font-feature-settings="normal" text-indent="0" text-align="start" text-decoration-line="none" text-decoration-style="solid" text-decoration-color="#000000" text-transform="none" text-orientation="mixed" white-space="normal" shape-padding="0" isolation="auto" mix-blend-mode="normal" solid-color="#000000" solid-opacity="1" vector-effect="none"/><path id="path5995" d="m8.4666569 8.7312496v.7937499h.2651001v-1.0593667c0-.7283141-.5882328-1.3227579-1.3223999-1.3224l-.7947835.0003877c1.8520833.0001029 1.8520833 1.0584624 1.8520833 1.5876291z" fill="#ff7f29" font-variant-ligatures="normal" font-variant-position="normal" font-variant-caps="normal" font-variant-numeric="normal" font-variant-alternates="normal" font-feature-settings="normal" text-indent="0" text-align="start" text-decoration-line="none" text-decoration-style="solid" text-decoration-color="#000000" text-transform="none" text-orientation="mixed" white-space="normal" shape-padding="0" isolation="auto" mix-blend-mode="normal" solid-color="#000000" solid-opacity="1" vector-effect="none"/><path id="path6016" d="m7.6730373 10.053906v.529297h-3.4404949c-.4443135 0-.7929688.360355-.7929688.792968v1.059245h-.5292969v-1.059245c0-.728314.5880987-1.322265 1.3222657-1.322265z" fill="#ff9751" font-variant-ligatures="normal" font-variant-position="normal" font-variant-caps="normal" font-variant-numeric="normal" font-variant-alternates="normal" font-feature-settings="normal" text-indent="0" text-align="start" text-decoration-line="none" text-decoration-style="solid" text-decoration-color="#000000" text-transform="none" text-orientation="mixed" white-space="normal" shape-padding="0" isolation="auto" mix-blend-mode="normal" solid-color="#000000" solid-opacity="1" vector-effect="none"/><path id="path6103" d="m7.1437403 10.05365v.529683h.5291666v-.529683z" fill="#ff7f29" font-variant-ligatures="normal" font-variant-position="normal" font-variant-caps="normal" font-variant-numeric="normal" font-variant-alternates="normal" font-feature-settings="normal" text-indent="0" text-align="start" text-decoration-line="none" text-decoration-style="solid" text-decoration-color="#000000" text-transform="none" text-orientation="mixed" white-space="normal" shape-padding="0" isolation="auto" mix-blend-mode="normal" solid-color="#000000" solid-opacity="1" vector-effect="none"/><path id="rect9602" d="m7.9374885 9.2500772h1.0583333c.2931583 0 .5291666.2360084.5291666.5291667v1.0583331c0 .293158-.2360083.529167-.5291666.529167h-1.0583333c-.2931583 0-.5291666-.236009-.5291666-.529167v-1.0583331c0-.2931583.2360083-.5291667.5291666-.5291667z" fill="#549ad4"/><path id="path6048" d="m3.9677068 10.583333c-.4443134 0-.7927165.360103-.7927165.792716v1.059367h.2645833v-1.059367c0-.432613.3484031-.792716.7927166-.792716z" fill="#ff7f29" font-variant-ligatures="normal" font-variant-position="normal" font-variant-caps="normal" font-variant-numeric="normal" font-variant-alternates="normal" font-feature-settings="normal" text-indent="0" text-align="start" text-decoration-line="none" text-decoration-style="solid" text-decoration-color="#000000" text-transform="none" text-orientation="mixed" white-space="normal" shape-padding="0" isolation="auto" mix-blend-mode="normal" solid-color="#000000" solid-opacity="1" vector-effect="none"/><path id="rect9606" d="m2.6458215 12.170823h1.0583333c.2931583 0 .5291666.236008.5291666.529167v1.058333c0 .293158-.2360083.529167-.5291666.529167h-1.0583333c-.2931583 0-.5291666-.236009-.5291666-.529167v-1.058333c0-.293159.2360083-.529167.5291666-.529167z" fill="#ff5151"/><path id="path9610" d="m2.6458217 3.7041669v.5291666c0 .4397399.3540131.79375.79375.79375h5.2916666c.439737 0 .79375-.3540101.79375-.79375v-.5291666z" fill="#c4dcf0"/><path id="path9612" d="m9.0971092 9.260413c.1012089 1.11884-.6295663 1.67817-1.5389241 1.94614.096019.0987.2300795.16019.3793051.16019h1.0583333c.2931583 0 .5291666-.236.5291666-.52916v-1.05834c0-.25845-.1835589-.47178-.4278809-.51883z" fill="#3588cb"/><path id="path9614" d="m5.820824 0c-.730627 0-1.322917.59229-1.322917 1.32292h-1.322917c-.439737 0-.79375.35401-.79375.79375v1.85208c0 .43974.354013.79375.79375.79375h5.291667c.439737 0 .79375-.35401.79375-.79375v-1.85208c0-.43974-.354013-.79375-.79375-.79375h-1.322917c0-.73063-.59229-1.32292-1.322916-1.32292z" fill="#38668c"/><path id="path9616" d="m2.9481307 4.72581c.072325.0216.1473422.0367.2268596.0367h5.2916666c.439737 0 .79375-.35401.79375-.79375v-1.85208c0-.40517-.3017568-.73418-.6929811-.783935-.2698652 2.526755-3.4131548 3.218785-5.6192951 3.393065z" fill="#2c5170"/><path id="circle9622" d="m6.0854085 1.3229194c0 .1461253-.118458.2645833-.2645833.2645833s-.2645833-.118458-.2645833-.2645833.118458-.2645833.2645833-.2645833.2645833.118458.2645833.2645833z" fill="#e4eff8"/><path id="path9624" d="m3.8054427 12.181163c.1012089 1.11885-.6295663 1.67817-1.5389241 1.94614.096019.0987.2300795.1602.3793051.1602h1.0583333c.2931583 0 .5291666-.23601.5291666-.52917v-1.05833c0-.25846-.1835589-.47179-.4278809-.51884z" fill="#ff2929"/><path id="rect9630" d="m2.6458215 6.3499918h1.0583333c.2931583 0 .5291666.2360083.5291666.5291666v1.0583333c0 .2931583-.2360083.5291667-.5291666.5291667h-1.0583333c-.2931583 0-.5291666-.2360084-.5291666-.5291667v-1.0583333c0-.2931583.2360083-.5291666.5291666-.5291666z" fill="#ff5151"/><path id="path6105" d="m3.9687402 7.1437495v.5296834h.5291667v-.5296834z" fill="#ff7f29" font-variant-ligatures="normal" font-variant-position="normal" font-variant-caps="normal" font-variant-numeric="normal" font-variant-alternates="normal" font-feature-settings="normal" text-indent="0" text-align="start" text-decoration-line="none" text-decoration-style="solid" text-decoration-color="#000000" text-transform="none" text-orientation="mixed" white-space="normal" shape-padding="0" isolation="auto" mix-blend-mode="normal" solid-color="#000000" solid-opacity="1" vector-effect="none"/><path id="path9632" d="m3.8054426 6.360333c.101209 1.11884-.6295662 1.67817-1.538924 1.94614.096019.0987.2300795.16019.379305.16019h1.0583334c.2931583 0 .5291666-.23601.5291666-.52916v-1.05834c0-.25846-.1835589-.47178-.427881-.51883z" fill="#ff2929"/><path id="circle9640" d="m13.49374 13.758332c0 1.169004-.947664 2.116668-2.116668 2.116668-1.169003 0-2.1166673-.947665-2.1166669-2.116668.0000002-1.169003.9476639-2.116667 2.1166669-2.116667s2.116668.947664 2.116668 2.116667z" fill="#e4eff8"/><path id="circle9650" d="m12.435406 13.758332c0 .584502-.473832 1.058334-1.058334 1.058334s-1.058334-.473832-1.058334-1.058334.473832-1.058334 1.058334-1.058334 1.058334.473832 1.058334 1.058334z" fill="#f55"/><path id="path9652" d="m11.811157 12.794053c.0622.136651.09461.284971.09508.43511.000003.584504-.473829 1.058339-1.058333 1.05834-.149721-.000309-.297673-.03238-.434082-.0941.170868.378846.547652.622621.963248.62321.5845 0 1.058332-.47383 1.058334-1.05833-.000369-.416214-.244658-.793568-.624252-.96428z" fill="#ff2929"/><path id="path9656" d="m12.580617 12.017353c.249121.355057.383152.778075.383956 1.21181.000001 1.169004-.947663 2.11667-2.116667 2.11667-.43003-.000064-.8498403-.131109-1.2035439-.37569.3953729.566223 1.0421109.903964 1.7327109.90486 1.169004 0 2.116668-.947666 2.116667-2.11667-.000071-.695049-.341367-1.345773-.913123-1.74098z" fill="#c4dcf0"/><path id="path9664" d="m14.685909 2.84065-3.928955 3.92896-.7911662.19792-.1762167.70539 1.4965489-.37414 3.928959-3.92896c.207294-.2073.207294-.54097 0-.74827l-.374137-.37414c-.0266-.0266-.05555-.0495-.08578-.069225.134316.205335.111445.481775-.06925.662465z" fill="#3588cb"/><path id="path9666" d="m13.618027 2.72193.474584-.47458c.207294-.2073.54106-.2073.748354 0l.374178.37417c.207294.2073.207294.54106 0 .74836l-.381041.38104z" fill="#e4eff8"/><g fill="#549ad4"><path id="path6134" d="m5.2916569 12.964583c-.3528645 0-.3528645.529297 0 .529297h2.3812499c.3528646 0 .3528646-.529297 0-.529297z" font-variant-ligatures="normal" font-variant-position="normal" font-variant-caps="normal" font-variant-numeric="normal" font-variant-alternates="normal" font-feature-settings="normal" text-indent="0" text-align="start" text-decoration-line="none" text-decoration-style="solid" text-decoration-color="#000000" text-transform="none" text-orientation="mixed" white-space="normal" shape-padding="0" isolation="auto" mix-blend-mode="normal" solid-color="#000000" solid-opacity="1" vector-effect="none"/><path id="path6144" d="m5.2916569 14.022786c-.3528645 0-.3528645.529297 0 .529297h2.3812499c.3528646 0 .3528646-.529297 0-.529297z" font-variant-ligatures="normal" font-variant-position="normal" font-variant-caps="normal" font-variant-numeric="normal" font-variant-alternates="normal" font-feature-settings="normal" text-indent="0" text-align="start" text-decoration-line="none" text-decoration-style="solid" text-decoration-color="#000000" text-transform="none" text-orientation="mixed" white-space="normal" shape-padding="0" isolation="auto" mix-blend-mode="normal" solid-color="#000000" solid-opacity="1" vector-effect="none"/><path id="path5948" d="m5.2916569 11.906249c-.3528645 0-.3528645.529297 0 .529297h1.3222656c.3528645 0 .3528645-.529297 0-.529297z" font-variant-ligatures="normal" font-variant-position="normal" font-variant-caps="normal" font-variant-numeric="normal" font-variant-alternates="normal" font-feature-settings="normal" text-indent="0" text-align="start" text-decoration-line="none" text-decoration-style="solid" text-decoration-color="#000000" text-transform="none" text-orientation="mixed" white-space="normal" shape-padding="0" isolation="auto" mix-blend-mode="normal" solid-color="#000000" solid-opacity="1" vector-effect="none"/></g><path id="path6146" d="m6.7892399 14.022916c-.2339663.187049-.4710935.36539-.7121012.529167h1.5957682c.3528648 0 .3528648-.529167 0-.529167z" fill="#3588cb"/><path id="path6161" d="m7.8641097 13.042098c-.1490618.15672-.3011422.307278-.4563028.451651h.2651c.2684883 0 .3312901-.305105.1912028-.451651z" fill="#3588cb"/><path id="path9578" d="m13.191569 10.072953.187089 1.6838 1.683798.18708 1.870887-1.87088-1.309621-.56127-.561266-1.30962z" fill="#549ad4"/><path id="path9660" d="m14.468738 10.394531c-.06865.0021-.13378.03083-.181641.08008l-3.097656 3.095703c-.25.25.125.625.375.375l3.097656-3.097656c.171496-.168713.04711-.460208-.193359-.453127z" fill="#549ad4" font-variant-ligatures="normal" font-variant-position="normal" font-variant-caps="normal" font-variant-numeric="normal" font-variant-alternates="normal" font-feature-settings="normal" text-indent="0" text-align="start" text-decoration-line="none" text-decoration-style="solid" text-decoration-color="#000000" text-transform="none" text-orientation="mixed" white-space="normal" shape-padding="0" isolation="auto" mix-blend-mode="normal" solid-color="#000000" solid-opacity="1" vector-effect="none"/><path id="path6227" d="m13.378658 11.756753 1.683798.18708 1.870887-1.87088-1.309621-.56127z" fill="#3588cb"/><path id="path944" d="m55.767578 8.2324219c.507658.7761592.421215 1.8209531-.261719 2.5039061l-1.439453 1.439453-2.429687-2.05664-.167969.167968 4.597656 3.888672 1.439453-1.439453c.783474-.783496.783474-2.044629 0-2.8281249l-1.414062-1.4140625c-.10054-.1005425-.209956-.1869805-.324219-.2617187z" fill="#c4dcf0" transform="scale(.265)"/></g></svg>