<svg id="svg8" height="512" viewBox="0 0 16.933333 16.933333" width="512" xmlns="http://www.w3.org/2000/svg" xmlns:svg="http://www.w3.org/2000/svg"><g id="layer2"><path id="path6585" d="m13.228659 2.6458648v2.3828004c.0011.1866988.190051.3135388.363285.2439125l2.64635-1.0583334c.209344-.085902.221277-.3778937.01964-.4805907l-2.64635-1.3244669c-.03944-.019562-.08313-.028975-.127126-.027388-.142478.00475-.255585.1215103-.255799.2640664z" fill="#ff5151"/><path id="path6587" d="m13.484457 2.3817667c-.142477.00475-.255584.1215105-.255798.2640666v2.3828002c.0011.1866989.190051.313539.363285.2439127l.695048-.2780191v-2.2474081l-.675411-.3379637c-.03944-.019562-.08313-.028976-.127124-.027389z" fill="#ff2929"/><path id="path6589" d="m15.610425 5.5562499c.43974 0 .79375.35401.79375.79375v9.2604161c0 .43974-.35401.79375-.79375.79375h-14.1616691c-.46769007 0-.91958007-.40927-.91958007-.85989v-9.9880262" fill="#e4eff8"/><path id="path6591" d="m16.404175 15.610416c0 .43974-.35401.79375-.79375.79375h-14.1663445c-.37406 0-.73381006-.26304-.86455006-.59841.10658.044.22042.0692.33538.0692h14.16634456c.43974 0 .79375-.35402.79375-.79375v-9.2641485c0-.0799-.0149-.15529-.03669-.227865.327155.098025.565865.397215.565862.757085z" fill="#c4dcf0"/><path id="path6593" d="m.52917583 5.2916629c0-.58631.47202007-1.05833 1.05834007-1.05833.58631 0 1.05833.47202 1.05833 1.05833v8.4666401c0 .43974-.35401.79375-.79375.79375l-.39688.00003c-.51302007 0-.92604007.41301-.92604007.92604z" fill="#549ad4"/><path id="path6595" d="m2.6458159 5.2895325v8.4688005c0 .43974-.35401.79375-.79375.79375h-.39687c-.51303007 0-.92604007.41301-.92604007.92604v-1.36374c.12053-.0572.2541-.0915.39687-.0915h.39688007c.43973 0 .79375-.35401.79375-.79375v-8.4688005c0-.15544-.0349-.30189-.094585-.434585.367865.165475.623745.532915.623745.963785z" fill="#3588cb"/><path id="circle6597" d="m10.318758 3.9687498c0 1.7535039-1.4214958 3.1749997-3.1749997 3.1749999-1.753504 0-3.1749999-1.4214959-3.175-3.1749999 0-1.7535041 1.4214959-3.17499999 3.175-3.17499999 1.753504.00000017 3.1749997 1.42149599 3.1749997 3.17499999z" fill="#ffca28"/><path id="path6599" d="m7.1437591.79374999c-.9687645.00136492-1.8838994.44494561-2.4851196 1.20457761.5582662-.4372444 1.2468382-.6750155 1.9559529-.675411 1.7535041 0 3.175 1.4214959 3.175 3.175-.00127.7157953-.2443812 1.410159-.6898804 1.9704224.7690466-.601453 1.218621-1.5232805 1.219047-2.499589 0-1.753504-1.4214959-3.17499995-3.1749999-3.17500001z" fill="#ecb200"/><g fill="#549ad4"><path id="path6601" d="m7.1406342 1.8476562c-.1469491.00158-.2644606.1225992-.2617188.2695313v1.8515625c.0000607.070405.028176.1378821.078125.1875l.7929688.7929688c.2485245.266282.6399806-.1231353.375-.3730469l-.7167969-.7167969v-1.7421875c.0027857-.1492297-.1183321-.2712316-.2675781-.2695313z" font-variant-ligatures="normal" font-variant-position="normal" font-variant-caps="normal" font-variant-numeric="normal" font-variant-alternates="normal" font-feature-settings="normal" text-indent="0" text-align="start" text-decoration-line="none" text-decoration-style="solid" text-decoration-color="#000000" text-transform="none" text-orientation="mixed" white-space="normal" shape-padding="0" isolation="auto" mix-blend-mode="normal" solid-color="#000000" solid-opacity="1" vector-effect="none"/><path id="path6603" d="m5.2890717 13.494141c-.051523.000582-.1017553.01619-.1445313.04492l-.7929687.527344c-.2943366.195299-.00137.636705.2929687.441406l.6464844-.43164.6484375.43164c.088747.05899.2042219.05899.2929688 0l.6464843-.43164.6464844.43164c.089194.05986.2057278.05986.2949219 0l.6464844-.43164.6464843.43164c.2944462.196187.588113-.24627.2929688-.441405l-.7929688-.527344c-.088747-.05899-.2042218-.05899-.2929687 0l-.6464844.429688-.6484375-.429688c-.088747-.05899-.2042218-.05899-.2929687 0l-.6464844.429688-.6484375-.429688c-.043882-.02946-.095582-.04511-.1484375-.04492z" font-variant-ligatures="normal" font-variant-position="normal" font-variant-caps="normal" font-variant-numeric="normal" font-variant-alternates="normal" font-feature-settings="normal" text-indent="0" text-align="start" text-decoration-line="none" text-decoration-style="solid" text-decoration-color="#000000" text-transform="none" text-orientation="mixed" white-space="normal" shape-padding="0" isolation="auto" mix-blend-mode="normal" solid-color="#000000" solid-opacity="1" vector-effect="none"/><path id="path6605" d="m5.2890717 12.169922c-.051523.000582-.1017553.01619-.1445313.04492l-.7929687.529297c-.2943366.195299-.00137.636705.2929687.441406l.6464844-.431641.6484375.431641c.088747.05899.2042219.05899.2929688 0l.6464843-.431641.6464844.431641c.089194.05986.2057278.05986.2949219 0l.6464844-.431641.6464843.431641c.2945178.196546.5884716-.246342.2929688-.441404l-.7929688-.529297c-.088747-.05899-.2042218-.05899-.2929687 0l-.6464844.43164-.6484375-.43164c-.088747-.05899-.2042218-.05899-.2929687 0l-.6464844.43164-.6484375-.43164c-.043882-.02946-.095582-.04511-.1484375-.04492z" font-variant-ligatures="normal" font-variant-position="normal" font-variant-caps="normal" font-variant-numeric="normal" font-variant-alternates="normal" font-feature-settings="normal" text-indent="0" text-align="start" text-decoration-line="none" text-decoration-style="solid" text-decoration-color="#000000" text-transform="none" text-orientation="mixed" white-space="normal" shape-padding="0" isolation="auto" mix-blend-mode="normal" solid-color="#000000" solid-opacity="1" vector-effect="none"/></g><path id="path6607" d="m13.228069 13.229101c-.352865 0-.352865.529297 0 .529297h.265625c.352865 0 .352865-.529297 0-.529297z" fill="#ffca28" font-variant-ligatures="normal" font-variant-position="normal" font-variant-caps="normal" font-variant-numeric="normal" font-variant-alternates="normal" font-feature-settings="normal" text-indent="0" text-align="start" text-decoration-line="none" text-decoration-style="solid" text-decoration-color="#000000" text-transform="none" text-orientation="mixed" white-space="normal" shape-padding="0" isolation="auto" mix-blend-mode="normal" solid-color="#000000" solid-opacity="1" vector-effect="none"/><path id="path6609" d="m11.905152 13.229101c-.352865 0-.352865.529297 0 .529297h.265625c.352865 0 .352865-.529297 0-.529297z" fill="#ff5151" font-variant-ligatures="normal" font-variant-position="normal" font-variant-caps="normal" font-variant-numeric="normal" font-variant-alternates="normal" font-feature-settings="normal" text-indent="0" text-align="start" text-decoration-line="none" text-decoration-style="solid" text-decoration-color="#000000" text-transform="none" text-orientation="mixed" white-space="normal" shape-padding="0" isolation="auto" mix-blend-mode="normal" solid-color="#000000" solid-opacity="1" vector-effect="none"/><path id="path6611" d="m14.552157 13.229101c-.352865 0-.352865.529297 0 .529297h.265625c.352865 0 .352865-.529297 0-.529297z" fill="#ff5151" font-variant-ligatures="normal" font-variant-position="normal" font-variant-caps="normal" font-variant-numeric="normal" font-variant-alternates="normal" font-feature-settings="normal" text-indent="0" text-align="start" text-decoration-line="none" text-decoration-style="solid" text-decoration-color="#000000" text-transform="none" text-orientation="mixed" white-space="normal" shape-padding="0" isolation="auto" mix-blend-mode="normal" solid-color="#000000" solid-opacity="1" vector-effect="none"/><path id="path6613" d="m14.737621 11.189547c.241908.243721-.110722.620123-.374081.374081l-.793888-.794003c-.166821-.168515-.04741-.449668.189225-.453012.06865.0021.137914.02876.185775.07801z" fill="#ffca28" font-variant-ligatures="normal" font-variant-position="normal" font-variant-caps="normal" font-variant-numeric="normal" font-variant-alternates="normal" font-feature-settings="normal" text-indent="0" text-align="start" text-decoration-line="none" text-decoration-style="solid" text-decoration-color="#000000" text-transform="none" text-orientation="mixed" white-space="normal" shape-padding="0" isolation="auto" mix-blend-mode="normal" solid-color="#000000" solid-opacity="1" vector-effect="none"/><path id="path6615" d="m13.572813 11.189547c-.241908.243721.110722.620123.374081.374081l.793888-.794003c.166821-.168515.04741-.449668-.189225-.453012-.06865.0021-.137914.02876-.185775.07801z" fill="#ffca28" font-variant-ligatures="normal" font-variant-position="normal" font-variant-caps="normal" font-variant-numeric="normal" font-variant-alternates="normal" font-feature-settings="normal" text-indent="0" text-align="start" text-decoration-line="none" text-decoration-style="solid" text-decoration-color="#000000" text-transform="none" text-orientation="mixed" white-space="normal" shape-padding="0" isolation="auto" mix-blend-mode="normal" solid-color="#000000" solid-opacity="1" vector-effect="none"/><path id="path6617" d="m10.768871 8.5437188c.241908.243721-.110722.620123-.374081.374081l-.7938877-.794003c-.166821-.168515-.04741-.449668.189225-.453012.06865.0021.137914.02876.185775.078011z" fill="#549ad4" font-variant-ligatures="normal" font-variant-position="normal" font-variant-caps="normal" font-variant-numeric="normal" font-variant-alternates="normal" font-feature-settings="normal" text-indent="0" text-align="start" text-decoration-line="none" text-decoration-style="solid" text-decoration-color="#000000" text-transform="none" text-orientation="mixed" white-space="normal" shape-padding="0" isolation="auto" mix-blend-mode="normal" solid-color="#000000" solid-opacity="1" vector-effect="none"/><path id="path6619" d="m9.6040633 8.5437188c-.241908.243721.110722.620123.374081.374081l.7938877-.794003c.166821-.168515.04741-.449668-.189225-.453012-.06865.0021-.137914.02876-.185775.078011z" fill="#549ad4" font-variant-ligatures="normal" font-variant-position="normal" font-variant-caps="normal" font-variant-numeric="normal" font-variant-alternates="normal" font-feature-settings="normal" text-indent="0" text-align="start" text-decoration-line="none" text-decoration-style="solid" text-decoration-color="#000000" text-transform="none" text-orientation="mixed" white-space="normal" shape-padding="0" isolation="auto" mix-blend-mode="normal" solid-color="#000000" solid-opacity="1" vector-effect="none"/><path id="path6621" d="m13.758407 2.38125c0-.3528646-.529297-.3528646-.529297 0v5.1598957c0 .3528645.529297.3528645.529297 0z" fill="#549ad4" font-variant-ligatures="normal" font-variant-position="normal" font-variant-caps="normal" font-variant-numeric="normal" font-variant-alternates="normal" font-feature-settings="normal" text-indent="0" text-align="start" text-decoration-line="none" text-decoration-style="solid" text-decoration-color="#000000" text-transform="none" text-orientation="mixed" white-space="normal" shape-padding="0" isolation="auto" mix-blend-mode="normal" solid-color="#000000" solid-opacity="1" vector-effect="none"/><path id="rect6623" d="m12.964593 7.4083333h1.058333c.146579 0 .264583.1180041.264583.2645832v.7937502c0 .1465791-.118004.2645832-.264583.2645832h-1.058333c-.14658 0-.264584-.1180041-.264584-.2645832v-.7937502c0-.1465791.118004-.2645832.264584-.2645832z" fill="#ff5151"/><path id="path6625" d="m12.964592 7.4083332c-.146579 0-.264583.1180042-.264583.2645834v.79375c0 .1465791.118004.2645833.264583.2645833h1.058333c.14658 0 .264584-.1180042.264584-.2645833v-.2645834h-.79375c-.146579 0-.264583-.1180041-.264583-.2645833v-.5291667z" fill="#ff2929"/><path id="path6627" d="m7.5800873 9c-.2499259.014827-.3413971.3362829-.1367187.4804688l2.2441406 1.6171872c.2886317.219583.6088738-.226324.3085938-.429687l-2.2421876-1.6171878c-.0501667-.0368448-.1117163-.0548255-.1738281-.0507812z" fill="#ffca28" font-variant-ligatures="normal" font-variant-position="normal" font-variant-caps="normal" font-variant-numeric="normal" font-variant-alternates="normal" font-feature-settings="normal" text-indent="0" text-align="start" text-decoration-line="none" text-decoration-style="solid" text-decoration-color="#000000" text-transform="none" text-orientation="mixed" white-space="normal" shape-padding="0" isolation="auto" mix-blend-mode="normal" solid-color="#000000" solid-opacity="1" vector-effect="none"/><path id="path6629" d="m12.700074 8.4666013c-.352865 0-.352865.529297 0 .529297h1.587435c.352864 0 .352864-.529297 0-.529297z" fill="#ffca28" font-variant-ligatures="normal" font-variant-position="normal" font-variant-caps="normal" font-variant-numeric="normal" font-variant-alternates="normal" font-feature-settings="normal" text-indent="0" text-align="start" text-decoration-line="none" text-decoration-style="solid" text-decoration-color="#000000" text-transform="none" text-orientation="mixed" white-space="normal" shape-padding="0" isolation="auto" mix-blend-mode="normal" solid-color="#000000" solid-opacity="1" vector-effect="none"/><path id="path6631" d="m10.532457 10.773397c-.284213.209131.02948.635455.313697.426324l2.983464-2.1952913c.284212-.2091301-.029479-.6354528-.313697-.4263222z" fill="#ffca28" font-variant-ligatures="normal" font-variant-position="normal" font-variant-caps="normal" font-variant-numeric="normal" font-variant-alternates="normal" font-feature-settings="normal" text-indent="0" text-align="start" text-decoration-line="none" text-decoration-style="solid" text-decoration-color="#000000" text-transform="none" text-orientation="mixed" white-space="normal" shape-padding="0" isolation="auto" mix-blend-mode="normal" solid-color="#000000" solid-opacity="1" vector-effect="none"/><path id="circle6633" d="m11.112508 11.1125c0 .438376-.355374.79375-.79375.79375s-.7937498-.355374-.7937496-.79375c.0000003-.438376.355374-.793749.7937496-.793749.438376 0 .79375.355373.79375.793749z" fill="#ff5151"/><path id="circle6635" d="m11.112508 11.1125c0 .438376-.355374.79375-.79375.79375s-.7937498-.355374-.7937496-.79375c.0000003-.438376.355374-.793749.7937496-.793749.438376 0 .79375.355373.79375.793749z" fill="#ff5151"/><path id="path6637" d="m9.5250091 11.1125c-.0000002.438376.3553738.79375.7937499.79375.349586-.000256.657847-.229196.759127-.56379-.07454.02277-.152023.03443-.22996.03462-.438376 0-.79375-.355374-.79375-.79375.000188-.07794.01185-.155422.03462-.229959-.3345918.101282-.5635318.409543-.5637879.759129z" fill="#ff2929"/><path id="path6639" d="m3.8146068 11.159105c-.284213.209131.02948.635455.313697.426324l2.983464-2.1952914c.284212-.2091301-.029479-.6354528-.313697-.4263222z" fill="#ffca28" font-variant-ligatures="normal" font-variant-position="normal" font-variant-caps="normal" font-variant-numeric="normal" font-variant-alternates="normal" font-feature-settings="normal" text-indent="0" text-align="start" text-decoration-line="none" text-decoration-style="solid" text-decoration-color="#000000" text-transform="none" text-orientation="mixed" white-space="normal" shape-padding="0" isolation="auto" mix-blend-mode="normal" solid-color="#000000" solid-opacity="1" vector-effect="none"/><path id="circle6641" d="m7.9375085 8.9958334c0 .4383758-.3553739.7937497-.7937497.7937497-.4383759 0-.7937498-.3553738-.7937498-.7937497s.3553739-.7937498.7937498-.7937498.7937497.3553739.7937497.7937498z" fill="#ff5151"/><path id="path6643" d="m6.9137989 8.2367063c-.3345937.1012797-.5635336.4095408-.5637898.7591269-.0000001.4383761.3553739.7937501.79375.79375.3495861-.0002562.6578472-.2291961.7591269-.5637898-.074538.022768-.1520227.034434-.2299602.034623-.4383761.0000001-.7937501-.3553739-.79375-.79375.0001886-.077937.011855-.1554222.034623-.2299601z" fill="#ff2929"/><path id="path6645" d="m13.758407.79391806c.000137-.35300167-.52916-.35300167-.529297 0v.26562504c-.000137.3530017.52916.3530017.529297 0z" fill="#ffca28" font-variant-ligatures="normal" font-variant-position="normal" font-variant-caps="normal" font-variant-numeric="normal" font-variant-alternates="normal" font-feature-settings="normal" text-indent="0" text-align="start" text-decoration-line="none" text-decoration-style="solid" text-decoration-color="#000000" text-transform="none" text-orientation="mixed" white-space="normal" shape-padding="0" isolation="auto" mix-blend-mode="normal" solid-color="#000000" solid-opacity="1" vector-effect="none"/><path id="path6647" d="m14.927173 1.5866882c.249571-.2495132-.124699-.62378272-.37427-.3742695l-.187825.1878253c-.249662.2495132.124608.6237827.37427.3742695z" fill="#ffca28" font-variant-ligatures="normal" font-variant-position="normal" font-variant-caps="normal" font-variant-numeric="normal" font-variant-alternates="normal" font-feature-settings="normal" text-indent="0" text-align="start" text-decoration-line="none" text-decoration-style="solid" text-decoration-color="#000000" text-transform="none" text-orientation="mixed" white-space="normal" shape-padding="0" isolation="auto" mix-blend-mode="normal" solid-color="#000000" solid-opacity="1" vector-effect="none"/><path id="path6649" d="m12.060344 1.5866882c-.249571-.2495132.124699-.62378272.37427-.3742695l.187825.1878253c.249662.2495132-.124608.6237827-.37427.3742695z" fill="#ffca28" font-variant-ligatures="normal" font-variant-position="normal" font-variant-caps="normal" font-variant-numeric="normal" font-variant-alternates="normal" font-feature-settings="normal" text-indent="0" text-align="start" text-decoration-line="none" text-decoration-style="solid" text-decoration-color="#000000" text-transform="none" text-orientation="mixed" white-space="normal" shape-padding="0" isolation="auto" mix-blend-mode="normal" solid-color="#000000" solid-opacity="1" vector-effect="none"/><path id="path6651" d="m10.054176 3.7041668c-.3530021-.0001373-.3530021.5290293 0 .5291667h.251147c.0082-.087969.01264-.1762404.01344-.2645834-.000451-.088328-.0046-.1765997-.0124-.2645833z" fill="#3588cb" font-variant-ligatures="normal" font-variant-position="normal" font-variant-caps="normal" font-variant-numeric="normal" font-variant-alternates="normal" font-feature-settings="normal" text-indent="0" text-align="start" text-decoration-line="none" text-decoration-style="solid" text-decoration-color="#000000" text-transform="none" text-orientation="mixed" white-space="normal" shape-padding="0" isolation="auto" mix-blend-mode="normal" solid-color="#000000" solid-opacity="1" vector-effect="none"/><path id="path6653" d="m3.9821949 3.7041668c-.00816.087969-.01264.1762403-.013436.2645833.0004515.088329.00459.1765998.012401.2645834h.2521823c.3530021.0001373.3530021-.5290294 0-.5291667z" fill="#549ad4" font-variant-ligatures="normal" font-variant-position="normal" font-variant-caps="normal" font-variant-numeric="normal" font-variant-alternates="normal" font-feature-settings="normal" text-indent="0" text-align="start" text-decoration-line="none" text-decoration-style="solid" text-decoration-color="#000000" text-transform="none" text-orientation="mixed" white-space="normal" shape-padding="0" isolation="auto" mix-blend-mode="normal" solid-color="#000000" solid-opacity="1" vector-effect="none"/><path id="path6655" d="m7.1437591 6.6145834c-.1323242 0-.2645148.088083-.2645834.2645834v.2511475c.087969.00816.1762404.01264.2645834.013436.088329-.0004518.1765998-.00459.2645833-.012402v-.2521815c.0000685-.1765009-.1322591-.2645834-.2645833-.2645834z" fill="#549ad4" font-variant-ligatures="normal" font-variant-position="normal" font-variant-caps="normal" font-variant-numeric="normal" font-variant-alternates="normal" font-feature-settings="normal" text-indent="0" text-align="start" text-decoration-line="none" text-decoration-style="solid" text-decoration-color="#000000" text-transform="none" text-orientation="mixed" white-space="normal" shape-padding="0" isolation="auto" mix-blend-mode="normal" solid-color="#000000" solid-opacity="1" vector-effect="none"/><path id="path6657" d="m7.1437591.79375016c-.088329.00045191-.1765998.00459-.2645834.0124024v.25218094c-.0001373.3530021.5290294.3530021.5291667 0v-.25114748c-.0879691-.00815777-.1762403-.0126403-.2645833-.01343586z" fill="#3588cb" font-variant-ligatures="normal" font-variant-position="normal" font-variant-caps="normal" font-variant-numeric="normal" font-variant-alternates="normal" font-feature-settings="normal" text-indent="0" text-align="start" text-decoration-line="none" text-decoration-style="solid" text-decoration-color="#000000" text-transform="none" text-orientation="mixed" white-space="normal" shape-padding="0" isolation="auto" mix-blend-mode="normal" solid-color="#000000" solid-opacity="1" vector-effect="none"/></g></svg>