<svg id="Capa_1" enable-background="new 0 0 512 512" viewBox="0 0 512 512" xmlns="http://www.w3.org/2000/svg"><g><path d="m0 437.867 87.407-12.755 15.012 86.888 125.048-172.113-102.533-73.448z" fill="#625fb2"/><path d="m512 437.867-87.407-12.755-15.012 86.888-125.047-172.113 102.532-73.448z" fill="#47449d"/><path d="m256 0-90 191.204 90 191.204c105.599 0 191.203-85.604 191.203-191.204s-85.604-191.204-191.203-191.204z" fill="#e32d2d"/><path d="m64.797 191.204c0 105.599 85.604 191.204 191.203 191.204v-382.408c-105.599 0-191.203 85.604-191.203 191.204z" fill="#ec564c"/><path d="m358.035 158.05-70.504-10.245-31.531-63.888-30 107.287 30 53.643 63.061 33.153-12.043-70.22z" fill="#edcb4c"/><path d="m224.469 147.805-70.504 10.245 51.018 49.73-12.044 70.22 63.061-33.153v-160.93z" fill="#eded51"/></g><g/><g/><g/><g/><g/><g/><g/><g/><g/><g/><g/><g/><g/><g/><g/></svg>