<svg id="Layer_1" viewBox="0 0 512 512" xmlns="http://www.w3.org/2000/svg" data-name="Layer 1"><path d="m495 437.293h-30.875a101.559 101.559 0 0 0 -4.648-89.459v-187.1a4 4 0 0 0 -4-4h-67a4 4 0 0 0 -4 4v135.79a101.831 101.831 0 0 0 -35.646 1.4v-76.705a4 4 0 0 0 -4-4h-67a4 4 0 0 0 -4 4v144.77a101.769 101.769 0 0 0 0 62.576v8.728h-35.668v-135.673a4 4 0 0 0 -4-4h-66.963a4 4 0 0 0 -4 4v135.673h-35.679v-85.54a4 4 0 0 0 -4-4h-66.969a4 4 0 0 0 -4 4v85.54h-35.552a4 4 0 0 0 -4 4v26.724a4 4 0 0 0 4 4h284.7a101.5 101.5 0 0 0 137.835 0h55.465a4 4 0 0 0 4-4v-26.724a4 4 0 0 0 -4-4z" fill="#837683"/><path d="m55.892 248.861a290.529 290.529 0 0 0 47.9 3.888c41.055 0 83.169-8.181 120.545-23.856a275.292 275.292 0 0 0 83.371-54.111c26-24.662 47.309-54.761 63.368-89.509l28.247 13.792a4 4 0 0 0 5.612-4.655l-21.563-78.47a4 4 0 0 0 -5.4-2.632l-75.1 31.308a4 4 0 0 0 -.217 7.285l28.221 13.793c-54.876 103.464-164.628 173.706-274.376 175.222a4 4 0 0 0 -.6 7.945z" fill="#ffe177"/><path d="m404.935 94.41-21.563-78.47a4 4 0 0 0 -5.4-2.632l-5.416 2.258 20.044 72.928a3.988 3.988 0 0 1 -4.833 4.928l11.556 5.643a4 4 0 0 0 5.612-4.655z" fill="#efce67"/><path d="m358.741 79.356c-16.059 34.748-37.365 64.848-63.368 89.509a275.261 275.261 0 0 1 -83.373 54.111c-37.375 15.675-79.49 23.855-120.544 23.856a294.578 294.578 0 0 1 -38.838-2.543c-.018.108-.048.212-.056.323a4 4 0 0 0 3.328 4.249 290.529 290.529 0 0 0 47.9 3.888c41.055 0 83.169-8.181 120.545-23.856a275.292 275.292 0 0 0 83.371-54.111c25.981-24.641 47.273-54.711 63.327-89.423z" fill="#efce67"/><path d="m370.606 295.574a101.713 101.713 0 1 0 101.728 101.7 101.814 101.814 0 0 0 -101.728-101.7z" fill="#eceff1"/><path d="m370.606 295.574c-2.352 0-4.685.087-7 .245a101.707 101.707 0 0 1 0 202.935c2.314.158 4.647.246 7 .246a101.713 101.713 0 1 0 0-203.426z" fill="#d1d1d6"/><path d="m313.959 404.739a12.691 12.691 0 0 1 17.7-18.191l24.36 23.928 53.447-53.188a12.7 12.7 0 1 1 17.9 18.017l-62.3 61.952a12.684 12.684 0 0 1 -17.816.115z" fill="#60b7ff"/><path d="m292.276 462.081h-.364v2.406h-278.912v3.53a4 4 0 0 0 4 4h284.7a102.757 102.757 0 0 1 -9.424-9.936z" fill="#685e68"/><path d="m495 437.293h-7.294v23.194a4 4 0 0 1 -4 4h-36.806a102.762 102.762 0 0 1 -7.361 7.53h55.461a4 4 0 0 0 4-4v-26.724a4 4 0 0 0 -4-4z" fill="#685e68"/><path d="m234.163 297.62h-66.963a4 4 0 0 0 -4 4v135.673h74.968v-135.673a4 4 0 0 0 -4.005-4z" fill="#ffe177"/><path d="m123.521 347.753h-66.969a4 4 0 0 0 -4 4v85.54h74.969v-85.54a4 4 0 0 0 -4-4z" fill="#fe646f"/><path d="m273.837 437.293h3.278q-1.833-4.268-3.278-8.728z"/><path d="m455.477 156.738h-67a4 4 0 0 0 -4 4v135.786a101.956 101.956 0 0 1 75 51.31v-187.1a4 4 0 0 0 -4-3.996z" fill="#6cf5c2"/><path d="m344.834 217.219h-67a4 4 0 0 0 -4 4v144.77a102.073 102.073 0 0 1 75-68.061v-76.709a4 4 0 0 0 -4-4z" fill="#8ac9fe"/><path d="m273.837 437.293h3.278q-1.833-4.268-3.278-8.728z" fill="#8ac9fe"/><path d="m123.521 347.753h-20a4 4 0 0 1 4 4v85.54h20v-85.54a4 4 0 0 0 -4-4z" fill="#fd4755"/><path d="m234.163 297.62h-20a4 4 0 0 1 4 4v135.673h20v-135.673a4 4 0 0 0 -4-4z" fill="#efce67"/><path d="m455.477 156.738h-20a4 4 0 0 1 4 4v161.762a102.408 102.408 0 0 1 20 25.331v-187.1a4 4 0 0 0 -4-3.993z" fill="#00e499"/><path d="m344.834 217.219h-20a4 4 0 0 1 4 4v83.355a100.819 100.819 0 0 1 20-6.646v-76.709a4 4 0 0 0 -4-4z" fill="#60b7ff"/></svg>