<svg id="Flat" height="512" viewBox="0 0 512 512" width="512" xmlns="http://www.w3.org/2000/svg"><path d="m24 48h464v384h-464z" fill="#eb423f"/><path d="m456 368h-136a64 64 0 0 0 -51.2 25.6l-4.8 6.4-4.8-6.4a64 64 0 0 0 -51.2-25.6h-152v-336h152a64 64 0 0 1 51.2 25.6l4.8 6.4 4.8-6.4a64 64 0 0 1 51.2-25.6h136z" fill="#e9eef2"/><path d="m56 368h400v32h-400z" fill="#dadcde"/><path d="m272 53.68v336c-1.12 1.26-2.18 2.56-3.2 3.92l-4.8 6.4-4.8-6.4c-1.02-1.36-2.08-2.66-3.2-3.92v-336c1.12 1.26 2.18 2.56 3.2 3.92l4.8 6.4 4.8-6.4c1.02-1.36 2.08-2.66 3.2-3.92z" fill="#dadcde"/><path d="m88 256h32v64h-32z" fill="#c3c6c7"/><path d="m328 88h-16a8 8 0 0 1 0-16h16a8 8 0 0 1 0 16z" fill="#dadcde"/><path d="m408 88h-48a8 8 0 0 1 0-16h48a8 8 0 0 1 0 16z" fill="#dadcde"/><path d="m328 120h-32a8 8 0 0 1 0-16h32a8 8 0 0 1 0 16z" fill="#dadcde"/><path d="m328 152h-32a8 8 0 0 1 0-16h32a8 8 0 0 1 0 16z" fill="#dadcde"/><path d="m360 112h48v32h-48z" fill="#c3c6c7"/><path d="m232 168v-32h-18.332a55.662 55.662 0 0 0 -3.935-9.733l14.267-14.267-24-24-14.267 14.267a55.662 55.662 0 0 0 -9.733-3.935v-18.332h-32v18.332a55.662 55.662 0 0 0 -9.733 3.935l-14.267-14.267-24 24 14.267 14.267a55.662 55.662 0 0 0 -3.935 9.733h-18.332v32h18.332a55.662 55.662 0 0 0 3.935 9.733l-14.267 14.267 24 24 14.267-14.267a55.662 55.662 0 0 0 9.733 3.935v18.332h32v-18.332a55.662 55.662 0 0 0 9.733-3.935l14.267 14.267 24-24-14.267-14.267a55.662 55.662 0 0 0 3.935-9.733z" fill="#3397e8"/><circle cx="160" cy="152" fill="#e9eef2" r="24"/><g fill="#dadcde"><path d="m184 264h-16a8 8 0 0 1 0-16h16a8 8 0 0 1 0 16z"/><path d="m184 296h-32a8 8 0 0 1 0-16h32a8 8 0 0 1 0 16z"/><path d="m184 328h-32a8 8 0 0 1 0-16h32a8 8 0 0 1 0 16z"/><path d="m408 184h-112a8 8 0 0 1 0-16h112a8 8 0 0 1 0 16z"/><path d="m408 216h-32a8 8 0 0 1 0-16h32a8 8 0 0 1 0 16z"/></g><path d="m369.029 335.574h33.941v84.853h-33.941z" fill="#2978b8" transform="matrix(.707 -.707 .707 .707 -154.23 383.657)"/><circle cx="296" cy="288" fill="#3397e8" r="112"/><circle cx="296" cy="288" fill="#e9eef2" r="80"/><path d="m480 472a27.315 27.315 0 0 1 -19.314 8 30.627 30.627 0 0 1 -21.657-8.971l-47.029-47.029 40-40 47.029 47.029a30.627 30.627 0 0 1 8.971 21.657 27.315 27.315 0 0 1 -8 19.314z" fill="#3397e8"/></svg>