<svg height="512" viewBox="0 0 64 64" width="512" xmlns="http://www.w3.org/2000/svg"><g id="Icons"><g><g><g><path d="m56 28h-24l11.99-20.78c7.18 4.14 12.01 11.9 12.01 20.78z" fill="#c80a50"/></g></g><g><g><path d="m43.99 7.22-11.99 20.78-11.99-20.78c3.53-2.05 7.63-3.22 11.99-3.22s8.46 1.17 11.99 3.22z" fill="#fab400"/></g></g><g><g><path d="m32 28h-24c0-8.88 4.83-16.64 12.01-20.78z" fill="#00a0c8"/></g></g><g><g><path d="m56 28c0 8.88-4.83 16.64-12.01 20.78-3.53 2.05-7.63 3.22-11.99 3.22s-8.46-1.17-11.99-3.22c-7.18-4.14-12.01-11.9-12.01-20.78z" fill="#0a5078"/></g></g><g><g><circle cx="32" cy="28" fill="#f0f0f0" r="16"/></g></g><g><g><path d="m40.707 20.293c-.391-.391-1.023-.391-1.414 0l-6.008 6.008c-.391-.188-.823-.301-1.285-.301-1.654 0-3 1.346-3 3s1.346 3 3 3 3-1.346 3-3c0-.462-.113-.894-.301-1.285l6.008-6.008c.391-.391.391-1.023 0-1.414z" fill="#d2d2d2"/></g></g><g><g><path d="m48 28c0 .17 0 .34-.01.5-.26-8.59-7.34-15.5-15.99-15.5s-15.73 6.91-15.99 15.5c-.01-.16-.01-.33-.01-.5 0-8.82 7.18-16 16-16s16 7.18 16 16z" fill="#d2d2d2"/></g></g><g><g><path d="m32 29c-.256 0-.512-.098-.707-.293-.391-.391-.391-1.023 0-1.414l8-8c.391-.391 1.023-.391 1.414 0s.391 1.023 0 1.414l-8 8c-.195.195-.451.293-.707.293z" fill="#0a5078"/></g></g><g><g><path d="m20.147 60c-2.38 0-3.813-2.646-2.512-4.64l11.852-18.169c1.181-1.811 3.841-1.817 5.025 0l11.853 18.169c1.3 1.993-.133 4.639-2.513 4.639h-23.705z" fill="#fab400"/></g></g><g><g><path d="m19.31 57.454 11.853-18.17c.395-.605 1.281-.605 1.675 0l11.853 18.17c.433.665-.044 1.546-.838 1.546h-23.706c-.794 0-1.271-.881-.837-1.546z" fill="#dc9600"/></g></g><g><g><path d="m19.31 56.454 11.853-18.17c.395-.605 1.281-.605 1.675 0l11.853 18.17c.433.665-.044 1.546-.838 1.546h-23.706c-.794 0-1.271-.881-.837-1.546z" fill="#f0f0f0"/></g></g><g><g><g><path d="m32 51.831c-.552 0-1-.448-1-1v-7c0-.552.448-1 1-1s1 .448 1 1v7c0 .552-.448 1-1 1z" fill="#d2d2d2"/></g></g></g><g><g><g><path d="m32 56.831c-.552 0-1-.448-1-1v-1c0-.552.448-1 1-1s1 .448 1 1v1c0 .552-.448 1-1 1z" fill="#d2d2d2"/></g></g></g><g><g><path d="m32 50.831c-.552 0-1-.448-1-1v-7c0-.552.448-1 1-1s1 .448 1 1v7c0 .552-.448 1-1 1z" fill="#0a5078"/></g></g><g><g><path d="m32 55.831c-.552 0-1-.448-1-1v-1c0-.552.448-1 1-1s1 .448 1 1v1c0 .552-.448 1-1 1z" fill="#0a5078"/></g></g><g><g><circle cx="32" cy="28" fill="#c80a50" r="3"/></g></g><g><g><circle cx="32" cy="29" fill="#a00028" r="1"/></g></g><g><g><circle cx="32" cy="28" fill="#fab400" r="1"/></g></g></g></g></svg>