<svg id="Layer_3" enable-background="new 0 0 60 60" height="512" viewBox="0 0 60 60" width="512" xmlns="http://www.w3.org/2000/svg"><g><g><path d="m46.0633125 50.8636742c-.1611443.2120285-.4155693.3392181-.6784821.3392181h-4.6646384c-.3816605 0-.7208748-.2629166-.8141556-.6275978l-1.2552452-4.6476593h-17.301529l-1.2552471 4.6476593c-.1017685.3646812-.4324951.6275978-.8226471.6275978h-4.6646357c-.2629137 0-.5089006-.1271896-.6699924-.3392181-.1611443-.203537-.2120285-.4749413-.1442165-.7293663l3.2806883-12.377079h6.4202404l-1.6862259 6.4741745h16.3855991l-1.8215218-6.7166138h6.4202423l3.4159813 12.6195183c.0678139.254425.0084916.5258293-.1442146.7293663z" fill="#3b4651"/></g><path d="m50.3547745 8.7971096h-40.709549c-.4664536 0-.8481159.3731728-.8481159.8481159v28.1235428c0 .4749413.3816624.848114.8481159.848114h40.709549c.466507 0 .8481178-.3731728.8481178-.848114v-28.1235428c0-.4749431-.3816109-.8481159-.8481178-.8481159zm-7.0889931 13.8866501c0 .4687843-.3793297.8481159-.848114.8481159s-.848114-.3793316-.848114-.8481159v-3.0411339l-7.3829155 7.3835869c-.3180428.3180428-.8812447.3180428-1.1992874 0l-5.7082157-5.7082157-9.1006775 9.1006775c-.1656475.1656475-.3826466.2484703-.5996456.2484703-.2169971 0-.4339962-.0828228-.5996437-.2484703-.331295-.331295-.331295-.8679943 0-1.1992893l9.7003231-9.7003212c.331295-.331295.8679924-.331295 1.1992874 0l5.7082157 5.7082157 6.7834244-6.7840977h-3.0414467c-.4687805 0-.848114-.3793335-.848114-.8481159s.3793335-.8481159.848114-.8481159h5.0886955c.1103096 0 .2202606.0224667.3237877.0652771.2078362.0859299.3731232.251215.459053.4590511.0428085.103529.0652733.2134781.0652733.3237877z" fill="#2b79c2"/></g></svg>