<svg id="Capa_1" enable-background="new 0 0 512 512" viewBox="0 0 512 512" xmlns="http://www.w3.org/2000/svg"><g><path d="m486.399 276.562v220.118c0 12.074-13.331 19.388-23.509 12.898l-64.623-41.166h-132.573c-16.194 0-29.319-13.124-29.319-29.319v-67.054c5.938-3.119 10.932-3.386 16.671-3.386h28.154c35.964 0 59.124-24.771 64.419-59.262 18.378-10.559 32.033-26.71 32.033-49.385 0-4.347-1.335-8.809 4.132-12.753h75.296c16.195 0 29.319 13.125 29.319 29.309z" fill="#55d47b"/><path d="m383.114 259.945c0 22.674-12.403 42.495-30.782 53.054-5.295 34.49-35.17 60.997-71.134 60.997h-28.155c-5.738 0-11.322-.67-16.668-1.957v-124.786h145.41c.875 4.1 1.329 8.345 1.329 12.692z" fill="#00c755"/><path d="m248.881 373.873c-.845.082-1.71.124-2.575.124h-131.245l-65.952 42.011c-10.178 6.49-23.509-.824-23.509-12.888v-220.974c0-16.194 13.124-29.319 29.319-29.319h85.577c15.992 14.409 40.097 47.083 46.561 55.767-17.781 10.693-24.805 31.709-24.805 53.93 0 22.674 13.611 33.658 31.99 44.217 5.089 33.151 25.938 55.79 54.639 67.132z" fill="#5ad6ff"/><path d="m275.625 152.827v191.85c0 15.329-11.754 27.897-26.743 29.195-34.078-1.947-61.883-27.722-66.972-60.873-18.378-10.559-30.782-30.38-30.782-53.054 0-22.221 11.919-41.722 29.7-52.415-18.001-14.843-31.86-33.624-40.331-54.702h135.128z" fill="#00c5fd"/><g><path d="m160.8 226.99c3.337 4.05 1.673 10.569-6.98 15h-69.72c-4.15 0-7.5-3.36-7.5-7.5s3.35-7.5 7.5-7.5z" fill="#f3f5fc"/><path d="m224.63 234.49c0 4.14-3.36 7.5-7.5 7.5h-63.31c1.65-5.35 4.01-10.39 6.98-15h56.33c4.14 0 7.5 3.36 7.5 7.5z" fill="#d7ddf5"/></g><g><path d="m165.98 299.83h-81.88c-4.15 0-7.5-3.36-7.5-7.5s3.35-7.5 7.5-7.5h72.33c7.707 3.527 11.824 10.169 9.55 15z" fill="#f3f5fc"/><path d="m224.63 292.33c0 4.14-3.36 7.5-7.5 7.5h-51.15c-3.88-4.48-7.11-9.53-9.55-15h60.7c4.14 0 7.5 3.36 7.5 7.5z" fill="#d7ddf5"/></g><g><path d="m435.4 328.91c0 4.14-3.35 7.5-7.5 7.5h-83.5c-2.713-6.342 0-12.126 6.11-15h77.39c4.15 0 7.5 3.36 7.5 7.5z" fill="#f3f5fc"/><path d="m350.51 321.41c-1.47 5.27-3.53 10.29-6.11 15h-49.53c-4.14 0-7.5-3.36-7.5-7.5s3.36-7.5 7.5-7.5z" fill="#d7ddf5"/></g><g><path d="m427.904 394.251h-133.032c-4.142 0-7.5-3.357-7.5-7.5s3.358-7.5 7.5-7.5h133.032c4.142 0 7.5 3.357 7.5 7.5s-3.358 7.5-7.5 7.5z" fill="#f3f5fc"/></g><path d="m320.592 274.368v25.075c0 21.912-17.76 39.672-39.662 39.672h-4.275c-35.557-10.206-35.557-53.486-11.991-64.747z" fill="#5b778f"/><path d="m276.655 339.114h-23.333c-21.912 0-39.672-17.76-39.672-39.672v-25.075h51.014c-11.033 18.946-8.726 47.42 11.991 64.747z" fill="#516980"/><path d="m370.103 102.987c0 31.936-14.546 60.482-37.365 79.365-9.251 7.654-14.68 18.986-14.68 30.988v12.074c-91.382-47.04-86.495-186.994-29.185-223.106 46.42 9.972 81.23 51.262 81.23 100.679z" fill="#f9ee80"/><path d="m318.058 225.414v17.534h-101.874v-29.608c0-11.96-5.357-23.292-14.577-30.905-22.736-18.77-37.282-47.1-37.468-78.839-.33-56.269 45.245-102.802 101.514-103.585 7.974-.113 15.751.68 23.22 2.297-39.394 63.624-35.036 159.966 29.185 223.106z" fill="#f9d171"/><g><path d="m292.83 95.54c-4.72-5.48-11.57-8.63-18.8-8.63h-10.3c-4.145 3.643-4.611 9.849 0 15h10.3c2.9 0 5.54 1.21 7.43 3.41s2.7 4.99 2.27 7.86l-7.38 49.15c.301 12.779 4.861 21.622 11.56 24.08l10.65-71c1.08-7.15-1.01-14.4-5.73-19.87zm-38 147.41 4.88 32.53c.55 3.67 3.7 6.39 7.41 6.39s6.87-2.72 7.42-6.39l4.88-32.53z" fill="#f3f5fc"/><path d="m287.91 186.41-8.49 56.54h-24.59l-19.15-127.54c-1.07-7.15 1.02-14.39 5.74-19.87s11.57-8.63 18.8-8.63h3.51c-.19 4.98-.2 9.98 0 15h-3.51c-2.9 0-5.54 1.21-7.44 3.41-1.89 2.2-2.69 4.99-2.26 7.86l16.6 110.65 9.23-61.5c3.22 8.21 7.06 16.26 11.56 24.08z" fill="#d7ddf5"/></g><path d="m349.963 258.184c0 8.015-3.245 15.278-8.509 20.531-5.254 5.264-12.517 8.509-20.531 8.509h-29.133c-33.646-12.857-33.646-46.648-12.383-58.081h41.516c16.039 0 29.04 13.011 29.04 29.041z" fill="#516980"/><path d="m291.788 287.224h-78.458c-16.04 0-29.041-13.001-29.041-29.041 0-8.015 3.245-15.278 8.509-20.531 5.254-5.254 12.517-8.509 20.531-8.509h66.076c-7.777 17.997-4.81 42.124 12.383 58.081z" fill="#485c70"/></g><g/><g/><g/><g/><g/><g/><g/><g/><g/><g/><g/><g/><g/><g/><g/></svg>