<svg id="Layer_1" height="512" viewBox="0 0 64 64" width="512" xmlns="http://www.w3.org/2000/svg" data-name="Layer 1"><path d="m55 59h-47.4c-3.09 0-5.6-1.69-5.6-5s2.69-5 6-5h1v-38h46z" fill="#fff"/><path d="m2 11c0-4.31 2.69-7 6-7h1v45h-1c-3.31 0-6 1.69-6 5z" fill="#204080"/><path d="m53 59v-46h-42v38h-4c-.83 0-1.58.34-2.12.88s-.88 1.29-.88 2.12c0 1.66 1.34 3 3 3h48v2h-47.4c-3.09 0-5.6-1.69-5.6-5s2.69-5 6-5h1v-38h46v48z" fill="#d9e3ff"/><path d="m9 4v2.03c-2.84.15-5 1.1-5 4.97v39.09c-1.23.83-2 2.14-2 3.91v-43c0-4.31 2.69-7 6-7z" fill="#1d3973"/><path d="m34 33.2v5.6c0 .11-.09.2-.2.2h-4.6c-.11 0-.2-.09-.2-.2v-9.6c0-.11.09-.2.2-.2h9.6c.11 0 .2.09.2.2v3.6c0 .11-.09.2-.2.2h-4.6c-.11 0-.2.09-.2.2z" fill="#f25b49"/><rect fill="#0dc7ff" height="8" rx=".2" width="10" x="35" y="15"/><path d="m25 25.2v3.6c0 .11-.09.2-.2.2h-10.6c-.11 0-.2-.09-.2-.2v-13.6c0-.11.09-.2.2-.2h15.6c.11 0 .2.09.2.2v9.6c0 .11-.09.2-.2.2h-4.6c-.11 0-.2.09-.2.2z" fill="#00bf50"/><path d="m16.01 49.24c-.15 1.49 1.03 2.76 2.49 2.76h7.5v2h-7.3c-2.35 0-4.45-1.71-4.68-4.05-.26-2.68 1.85-4.95 4.48-4.95h15.39l-1.1 2h-14.14c-1.31 0-2.5.94-2.64 2.24z" fill="#204080"/><path d="m28 52h2v2h-2z" fill="#204080"/><rect fill="#ff9e26" height="5" rx=".2" width="11" x="14" y="34"/><path d="m45 50.8v-4.6c0-.11.09-.2.2-.2h4.6c.11 0 .2.09.2.2v8.6c0 .11-.09.2-.2.2h-9.6c-.11 0-.2-.09-.2-.2v-3.6c0-.11.09-.2.2-.2h4.6c.11 0 .2-.09.2-.2z" fill="#ffc833"/><path d="m40.81 43.24-6.2 3.43c-.18.1-.37-.1-.27-.27l3.43-6.2 20.56-20.56c.84-.84 2.2-.84 3.05 0 .84.84.84 2.2 0 3.05l-20.56 20.56z" fill="#d9e3ff"/><path d="m57.56 26.48-3.05-3.05s-16.76 16.76-16.76 16.76l-3.42 6.2c-.1.18.1.37.27.27l6.2-3.42z" fill="#3c5380"/></svg>