<svg id="Layer_1" enable-background="new 0 0 512 512" viewBox="0 0 512 512" xmlns="http://www.w3.org/2000/svg"><g clip-rule="evenodd" fill-rule="evenodd"><g><path d="m97.902 392.847 26.79 99.98c6.474-5.384 12.262-9.725 17.657-13.109 6.327-4.219 12.752-7.129 19.618-8.537 7.28-1.584 14.529-1.29 22.726.586.008.002.017.004.026.006l54.377 12.466c12.382 2.839 24.019 1.742 35.023-4.611l135.983-78.508c12.134-7.005 16.328-22.664 9.323-34.799-7.004-12.135-22.665-16.331-34.799-9.326l-94.699 54.672c.071-.238.14-.477.206-.717 4.065-14.935-4.856-30.529-19.79-34.594l-94.934-25.839c-12.6-1.668-24.039 1.383-34.13 9.112z" fill="#ffd6bd"/><path d="m258.883 418.263c12.849 3.491 26.146-2.588 32.219-13.845-.062 2.167-.377 4.356-.97 6.532-4.071 14.956-19.64 23.871-34.593 19.79-18.479-5.044-36.984-9.91-55.49-14.868-3.444-.923-5.507-4.496-4.584-7.94.923-3.445 4.495-5.507 7.94-4.584 18.468 4.949 36.919 9.872 55.478 14.915z" fill="#f9c6aa"/><path d="m104.745 371.669 32.748 122.216c.799 2.982-.986 6.073-3.967 6.872l-22.588 6.052c-2.981.799-6.072-.986-6.871-3.968l-32.748-122.215c-.799-2.982.986-6.074 3.967-6.872l22.588-6.052c2.981-.8 6.072.985 6.871 3.967z" fill="#64b5f6"/></g><g><path d="m275.271 67.27c57.294 0 103.74 46.447 103.74 103.739 0 37.92-20.343 71.089-50.711 89.183-6.547 3.901-10.27 10.45-10.27 18.072v25.294c0 7.855-6.406 14.261-14.261 14.261h-56.996c-7.855 0-14.26-6.406-14.26-14.261v-25.294c0-7.624-3.723-14.171-10.27-18.072-30.368-18.094-50.711-51.262-50.711-89.183-.001-57.292 46.445-103.739 103.739-103.739z" fill="#ffda2d"/><path d="m303.769 299.288v24.157c0 11.581-9.457 21.039-21.038 21.039h-14.92c-11.581 0-21.038-9.452-21.038-21.039v-19.765z" fill="#7a8c98"/><path d="m318.03 303.559v-10.419c-28.506 0-57.011 0-85.517 0v10.419c0 7.855 6.406 14.261 14.26 14.261h56.996c7.855-.001 14.261-6.407 14.261-14.261z" fill="#8d9ca8"/><path d="m392.102 111.953c-3.814 2.209-8.697.908-10.906-2.906s-.908-8.697 2.906-10.906l23.299-13.452c3.814-2.209 8.697-.908 10.906 2.906s.908 8.697-2.906 10.906zm-233.661 116.473c3.814-2.209 8.697-.908 10.906 2.906s.908 8.697-2.906 10.906l-23.299 13.452c-3.814 2.209-8.697.908-10.906-2.906s-.908-8.697 2.906-10.906zm-13.455-66.237c4.418 0 8 3.582 8 8s-3.582 8-8 8h-26.904c-4.418 0-8-3.582-8-8s3.582-8 8-8zm21.424-64.049c3.814 2.192 5.129 7.061 2.938 10.875-2.192 3.814-7.061 5.129-10.875 2.938l-23.299-13.452c-3.814-2.192-5.129-7.061-2.938-10.875 2.192-3.814 7.061-5.129 10.875-2.938zm50.625-44.782c2.209 3.814.908 8.697-2.906 10.906s-8.697.908-10.906-2.906l-13.453-23.299c-2.209-3.814-.908-8.697 2.906-10.906s8.697-.908 10.906 2.906zm130.286 8c-2.209 3.814-7.092 5.115-10.906 2.906s-5.115-7.092-2.906-10.906l13.452-23.299c2.209-3.814 7.092-5.115 10.906-2.906s5.115 7.092 2.906 10.906zm-64.05-21.454c0 4.418-3.582 8-8 8s-8-3.582-8-8v-26.904c0-4.418 3.582-8 8-8s8 3.582 8 8zm100.831 202.334c-3.814-2.209-5.115-7.092-2.906-10.906s7.092-5.115 10.906-2.906l23.299 13.452c3.814 2.209 5.115 7.092 2.906 10.906s-7.092 5.115-10.906 2.906zm21.866-63.938c-4.418 0-8-3.582-8-8s3.582-8 8-8h26.904c4.418 0 8 3.582 8 8s-3.582 8-8 8z" fill="#ffda2d"/></g><g><path d="m283.271 118.157c0 4.418-3.582 8-8 8s-8-3.582-8-8v-23.339c0-4.418 3.582-8 8-8s8 3.582 8 8zm-61.978-10.526c-2.312-3.762-1.137-8.687 2.625-11 3.762-2.312 8.687-1.137 11 2.625l11.604 18.85c2.312 3.762 1.137 8.687-2.625 11-3.762 2.312-8.687 1.137-11-2.625zm94.331-8.374c2.312-3.762 7.237-4.938 11-2.625s4.938 7.237 2.625 11l-11.604 18.85c-2.312 3.762-7.237 4.938-11 2.625-3.762-2.313-4.938-7.237-2.625-11z" fill="#dbf4ff"/><path d="m275.682 255.234-85.466-84.645 28.352-28.352h113.406l28.352 28.352z" fill="#dbf4ff"/><g fill="#d0f1ff"><path d="m303.623 170.589h-56.704l28.065 83.954.492.487z"/><path d="m246.919 170.589-28.351-28.352-28.352 28.352z"/><path d="m331.974 142.237-28.351 28.352h56.703z"/></g><path d="m275.271 142.237-28.352 28.352h56.704z" fill="#c5edff"/></g></g></svg>