<svg width="12" height="12" viewBox="0 0 12 12" fill="none" xmlns="http://www.w3.org/2000/svg">
<path d="M11 7.875C10.7929 7.875 10.625 7.70705 10.625 7.5V4.5C10.625 4.29295 10.7929 4.125 11 4.125C11.2071 4.125 11.375 4.29295 11.375 4.5V7.5C11.375 7.70705 11.2071 7.875 11 7.875ZM9.70825 8.5V3.5C9.70825 3.29295 9.5403 3.125 9.33325 3.125C9.1262 3.125 8.95825 3.29295 8.95825 3.5V8.5C8.95825 8.70705 9.1262 8.875 9.33325 8.875C9.5403 8.875 9.70825 8.70705 9.70825 8.5ZM8.04175 7V5C8.04175 4.79295 7.8738 4.625 7.66675 4.625C7.4597 4.625 7.29175 4.79295 7.29175 5V7C7.29175 7.20705 7.4597 7.375 7.66675 7.375C7.8738 7.375 8.04175 7.20705 8.04175 7ZM6.375 9V3C6.375 2.79295 6.20705 2.625 6 2.625C5.79295 2.625 5.625 2.79295 5.625 3V9C5.625 9.20705 5.79295 9.375 6 9.375C6.20705 9.375 6.375 9.20705 6.375 9ZM4.70825 10V2C4.70825 1.79295 4.5403 1.625 4.33325 1.625C4.1262 1.625 3.95825 1.79295 3.95825 2V10C3.95825 10.2071 4.1262 10.375 4.33325 10.375C4.5403 10.375 4.70825 10.2071 4.70825 10ZM3.04175 8V4C3.04175 3.79295 2.8738 3.625 2.66675 3.625C2.4597 3.625 2.29175 3.79295 2.29175 4V8C2.29175 8.20705 2.4597 8.375 2.66675 8.375C2.8738 8.375 3.04175 8.20705 3.04175 8ZM1.375 7.5V4.5C1.375 4.29295 1.20705 4.125 1 4.125C0.79295 4.125 0.625 4.29295 0.625 4.5V7.5C0.625 7.70705 0.79295 7.875 1 7.875C1.20705 7.875 1.375 7.70705 1.375 7.5Z" fill="white"/>
</svg>
