<svg width="12" height="12" viewBox="0 0 12 12" fill="none" xmlns="http://www.w3.org/2000/svg">
<g clip-path="url(#clip0_1609_168)">
<path d="M10.6875 7.70637V4.29363C11.1149 4.20654 11.4375 3.82774 11.4375 3.375C11.4375 2.85806 11.0169 2.4375 10.5 2.4375C10.2226 2.4375 9.97303 2.55872 9.80123 2.75086L6.92752 1.07351C6.93401 1.02907 6.9375 0.983695 6.9375 0.9375C6.9375 0.420563 6.51694 0 6 0C5.48306 0 5.0625 0.420563 5.0625 0.9375C5.0625 0.983695 5.06599 1.02907 5.07248 1.07351L2.19877 2.75086C2.02697 2.55872 1.77743 2.4375 1.5 2.4375C0.983063 2.4375 0.5625 2.85806 0.5625 3.375C0.5625 3.82774 0.885094 4.20654 1.3125 4.29363V7.70637C0.885094 7.79346 0.5625 8.17226 0.5625 8.625C0.5625 9.14194 0.983063 9.5625 1.5 9.5625C1.77748 9.5625 2.02706 9.44121 2.19888 9.249L5.07251 10.9263C5.06602 10.9708 5.0625 11.0162 5.0625 11.0625C5.0625 11.5794 5.48306 12 6 12C6.51694 12 6.9375 11.5794 6.9375 11.0625C6.9375 11.0162 6.93401 10.9708 6.92749 10.9263L9.80112 9.249C9.97294 9.44121 10.2225 9.5625 10.5 9.5625C11.0169 9.5625 11.4375 9.14194 11.4375 8.625C11.4375 8.17226 11.1149 7.79346 10.6875 7.70637ZM10.1976 7.73782L8.46553 4.77867L9.80121 3.99914C9.93326 4.14682 10.1112 4.25262 10.3125 4.29366V7.70639C10.2732 7.71436 10.235 7.72507 10.1976 7.73782ZM6.1875 8.4375V6.91863C6.38878 6.87762 6.56672 6.7718 6.69877 6.62412L9.61219 8.32446C9.59972 8.36121 9.58922 8.39888 9.58137 8.43748H6.1875V8.4375ZM2.41863 8.4375C2.41076 8.39888 2.40028 8.36123 2.38781 8.32448L5.30123 6.62414C5.43328 6.77182 5.61122 6.87762 5.8125 6.91866V8.4375H2.41863ZM1.6875 7.70637V4.29363C1.88878 4.25262 2.06672 4.1468 2.19877 3.99912L3.53445 4.77865L1.80237 7.73782C1.76503 7.72507 1.72676 7.71436 1.6875 7.70637ZM3.85816 4.9676L5.11219 5.69948C5.08015 5.79389 5.0625 5.89491 5.0625 6C5.0625 6.10509 5.08015 6.20611 5.11219 6.30052L2.19877 8.00086C2.17573 7.9751 2.15133 7.95059 2.12562 7.9275L3.85816 4.9676ZM5.8125 1.85613V5.08137C5.61122 5.12238 5.43328 5.2282 5.30123 5.37588L4.04749 4.64416L5.6978 1.82475C5.73506 1.83748 5.77329 1.84814 5.8125 1.85613ZM6.3022 1.82473L7.95251 4.64414L6.69877 5.37586C6.56672 5.22818 6.38878 5.12238 6.1875 5.08134V1.85613C6.22671 1.84814 6.26494 1.83748 6.3022 1.82473ZM6 6.5625C5.79919 6.5625 5.6227 6.45661 5.52316 6.29782C5.52073 6.29262 5.5181 6.28744 5.51512 6.28238C5.51198 6.27703 5.50861 6.27192 5.50505 6.26702C5.46199 6.18752 5.4375 6.09656 5.4375 6C5.4375 5.90234 5.46258 5.81041 5.50655 5.73028C5.50945 5.72611 5.5125 5.7221 5.51512 5.71762C5.51803 5.71263 5.52061 5.70755 5.52302 5.70239C5.62254 5.54348 5.79909 5.4375 6 5.4375C6.20095 5.4375 6.37755 5.54353 6.47707 5.70251C6.47946 5.70759 6.48199 5.71266 6.48487 5.71762C6.48743 5.72201 6.49045 5.72594 6.49331 5.73005C6.53737 5.81023 6.5625 5.90222 6.5625 6C6.5625 6.09637 6.5381 6.18715 6.49519 6.26653C6.49153 6.27159 6.48806 6.27687 6.48487 6.28238C6.48197 6.28737 6.47939 6.29245 6.47698 6.29761C6.37746 6.45652 6.20091 6.5625 6 6.5625ZM9.80123 8.00086L6.88781 6.30052C6.91985 6.20611 6.9375 6.10509 6.9375 6C6.9375 5.89491 6.91985 5.79389 6.88781 5.69948L8.14184 4.9676L9.87438 7.92752C9.84867 7.95061 9.82427 7.9751 9.80123 8.00086ZM10.5 2.8125C10.8101 2.8125 11.0625 3.06487 11.0625 3.375C11.0625 3.68513 10.8101 3.9375 10.5 3.9375C10.299 3.9375 10.1224 3.83147 10.023 3.67249C10.0206 3.66738 10.018 3.66234 10.0151 3.65738C10.012 3.65196 10.0085 3.64678 10.005 3.64181C9.96195 3.56236 9.9375 3.47149 9.9375 3.375C9.9375 3.27734 9.96258 3.18541 10.0065 3.10528C10.0095 3.10111 10.0125 3.0971 10.0151 3.09262C10.018 3.08763 10.0206 3.08255 10.023 3.07739C10.1225 2.91848 10.2991 2.8125 10.5 2.8125ZM9.61219 3.07446C9.58015 3.16887 9.5625 3.26988 9.5625 3.375C9.5625 3.48012 9.58015 3.58111 9.61219 3.67552L8.2762 4.45523L6.6255 1.63509C6.69173 1.57566 6.74941 1.50694 6.79662 1.43102L9.61219 3.07446ZM6 0.375C6.31012 0.375 6.5625 0.627375 6.5625 0.9375C6.5625 0.99607 6.55348 1.05258 6.53677 1.10573C6.5367 1.10597 6.5366 1.10618 6.53653 1.10641C6.4947 1.239 6.40495 1.35047 6.28774 1.42057C6.28645 1.42127 6.28514 1.42184 6.28387 1.42256C6.28287 1.42315 6.28195 1.42385 6.28097 1.42446C6.19821 1.47241 6.1023 1.5 6 1.5C5.89772 1.5 5.80181 1.47241 5.71908 1.42448C5.71807 1.42387 5.71716 1.42315 5.71613 1.42256C5.71477 1.42177 5.71336 1.42118 5.71198 1.42041C5.59481 1.35026 5.50512 1.23872 5.46335 1.10613L5.46333 1.10609C5.44657 1.05284 5.4375 0.996211 5.4375 0.9375C5.4375 0.627375 5.68988 0.375 6 0.375ZM5.20341 1.43102C5.25061 1.50694 5.30829 1.57566 5.37452 1.63509L3.72377 4.45523L2.38779 3.67552C2.41983 3.58111 2.43748 3.48009 2.43748 3.375C2.43748 3.26988 2.41983 3.16889 2.38779 3.07446L5.20341 1.43102ZM0.9375 3.375C0.9375 3.06487 1.18988 2.8125 1.5 2.8125C1.70095 2.8125 1.87755 2.91853 1.97707 3.07751C1.97946 3.08259 1.98199 3.08766 1.98488 3.09262C1.98743 3.09701 1.99045 3.10095 1.99331 3.10505C2.03737 3.18525 2.0625 3.27724 2.0625 3.375C2.0625 3.47137 2.0381 3.56212 1.99521 3.64151C1.99155 3.64657 1.98809 3.65184 1.98488 3.65738C1.98197 3.66237 1.97939 3.66745 1.97698 3.67261C1.87746 3.83152 1.70091 3.9375 1.5 3.9375C1.18988 3.9375 0.9375 3.68513 0.9375 3.375ZM1.5 9.1875C1.18988 9.1875 0.9375 8.93513 0.9375 8.625C0.9375 8.31487 1.18988 8.0625 1.5 8.0625C1.60291 8.0625 1.69941 8.09044 1.78249 8.13891C1.78303 8.13923 1.78352 8.13961 1.78406 8.13994C1.78458 8.14024 1.78514 8.14043 1.78566 8.14073C1.86342 8.18679 1.92916 8.25098 1.97705 8.32751C1.97944 8.33262 1.98197 8.33766 1.98488 8.34262C1.98745 8.34701 1.99045 8.35097 1.99331 8.35507C2.03737 8.43525 2.0625 8.52724 2.0625 8.625C2.0625 8.72112 2.03822 8.81166 1.99554 8.89087C1.99174 8.89608 1.98818 8.90152 1.98488 8.90719C1.98178 8.91251 1.97899 8.91792 1.97648 8.92338C1.87688 9.08187 1.70055 9.1875 1.5 9.1875ZM2.38786 8.92537C2.4003 8.88867 2.41078 8.85108 2.41863 8.8125H5.8125V10.1439C5.55602 10.1961 5.33742 10.3535 5.2035 10.5688L2.38786 8.92537ZM6 11.625C5.68988 11.625 5.4375 11.3726 5.4375 11.0625C5.4375 10.7524 5.68988 10.5 6 10.5C6.31012 10.5 6.5625 10.7524 6.5625 11.0625C6.5625 11.3726 6.31012 11.625 6 11.625ZM6.7965 10.5688C6.66258 10.3535 6.44398 10.1961 6.1875 10.1439V8.8125H9.58137C9.58922 8.85108 9.5997 8.88867 9.61214 8.92537L6.7965 10.5688ZM10.5 9.1875C10.2994 9.1875 10.123 9.08182 10.0234 8.92327C10.0209 8.91783 10.0182 8.91246 10.0151 8.90719C10.0118 8.90156 10.0083 8.8962 10.0046 8.89104C9.9618 8.81177 9.9375 8.72119 9.9375 8.625C9.9375 8.52734 9.96258 8.43541 10.0066 8.35526C10.0095 8.35109 10.0125 8.34708 10.0151 8.34262C10.018 8.33763 10.0206 8.33255 10.023 8.32739C10.0709 8.25091 10.1366 8.18677 10.2143 8.14073C10.2149 8.14043 10.2154 8.14024 10.2159 8.13994C10.2165 8.13963 10.2169 8.13923 10.2175 8.13893C10.3006 8.09044 10.3971 8.0625 10.5 8.0625C10.8101 8.0625 11.0625 8.31487 11.0625 8.625C11.0625 8.93513 10.8101 9.1875 10.5 9.1875Z" fill="white"/>
</g>
<defs>
<clipPath id="clip0_1609_168">
<rect width="12" height="12" fill="white"/>
</clipPath>
</defs>
</svg>
