<svg width="12" height="12" viewBox="0 0 12 12" fill="none" xmlns="http://www.w3.org/2000/svg">
<g clip-path="url(#clip0_1609_155)">
<path d="M10.24 2.408C10.1495 2.408 10.0595 2.376 9.98749 2.31C8.88399 1.304 7.46799 0.75 5.99999 0.75C4.53199 0.75 3.11599 1.304 2.01248 2.3105C1.85898 2.45 1.62198 2.4385 1.48248 2.286C1.34298 2.133 1.35398 1.8955 1.50698 1.756C2.74948 0.6235 4.34499 0 5.99999 0C7.65499 0 9.25049 0.6235 10.493 1.756C10.646 1.8955 10.657 2.1325 10.5175 2.286C10.4435 2.367 10.342 2.408 10.24 2.408Z" fill="white"/>
<path d="M10.875 4.8585C10.7545 4.8585 10.6355 4.8005 10.5635 4.6925C9.5225 3.1425 7.8165 2.217 6 2.217C4.1835 2.217 2.4775 3.1425 1.4365 4.6925C1.321 4.865 1.0875 4.911 0.915996 4.795C0.743996 4.6795 0.697996 4.4465 0.813496 4.2745C1.994 2.517 3.933 1.4675 6 1.4675C8.067 1.4675 10.006 2.517 11.1865 4.275C11.302 4.447 11.2565 4.68 11.084 4.7955C11.02 4.838 10.9475 4.8585 10.875 4.8585Z" fill="white"/>
<path d="M4.81547 12C4.71897 12 4.62247 11.963 4.54897 11.889C4.46697 11.8065 2.54547 9.84501 2.54547 7.95651C2.54547 5.99651 4.09497 4.40201 5.99997 4.40201C7.90497 4.40201 9.45447 5.99651 9.45447 7.95651C9.45447 8.16351 9.28647 8.33151 9.07947 8.33151C8.87247 8.33151 8.70447 8.16351 8.70447 7.95651C8.70447 6.41001 7.49147 5.15201 5.99997 5.15201C4.50847 5.15201 3.29547 6.41001 3.29547 7.95651C3.29547 9.54001 5.06397 11.343 5.08197 11.361C5.22797 11.508 5.22697 11.7455 5.07947 11.8915C5.00647 11.964 4.91097 12 4.81547 12Z" fill="white"/>
<path d="M7.18452 12C6.28252 12 4.19152 10.284 3.98902 8.37301C3.91752 7.69751 4.13252 7.00651 4.56352 6.52451C4.93852 6.10551 5.44502 5.87301 5.98952 5.87001H6.00002C6.53102 5.87001 7.03302 6.07851 7.41502 6.45801C7.81402 6.85451 8.03352 7.38701 8.03352 7.95701V8.20151C8.03352 8.80401 8.50252 9.29401 9.07952 9.29401C9.65652 9.29401 10.126 8.80401 10.126 8.20151V8.11601C10.126 5.78101 8.43452 3.83851 6.27502 3.69451C5.14902 3.61801 4.06902 4.00701 3.23552 4.78601C2.37052 5.59501 1.87452 6.75101 1.87452 7.95701C1.87452 8.94901 2.21052 9.91551 2.82052 10.6785C2.94952 10.8405 2.92352 11.076 2.76152 11.2055C2.60002 11.335 2.36402 11.3085 2.23402 11.1465C1.51852 10.251 1.12402 9.11801 1.12402 7.95651C1.12402 6.54351 1.70702 5.18801 2.72252 4.23801C3.70902 3.31501 4.98802 2.85601 6.32402 2.94551C8.87602 3.11601 10.8755 5.38701 10.8755 8.11551V8.20101C10.8755 9.21701 10.0695 10.0435 9.07902 10.0435C8.08852 10.0435 7.28302 9.21701 7.28302 8.20101V7.95651C7.28302 7.58751 7.14202 7.24451 6.88602 6.98951C6.64602 6.75051 6.33152 6.61951 6.00002 6.61951C5.99752 6.61951 5.99552 6.61951 5.99302 6.61951C5.57052 6.62151 5.28602 6.84101 5.12202 7.02451C4.82952 7.35101 4.68452 7.82601 4.73402 8.29401C4.89952 9.85301 6.69102 11.2505 7.18402 11.2505C7.39102 11.2505 7.55902 11.4185 7.55902 11.6255C7.55902 11.8325 7.39152 12 7.18452 12Z" fill="white"/>
<path d="M8.57602 11.2665C7.23402 11.2665 5.59552 9.62651 5.59552 7.71201C5.59552 7.50501 5.76352 7.33701 5.97052 7.33701C6.17752 7.33701 6.34552 7.50501 6.34552 7.71201C6.34552 9.19601 7.59302 10.5165 8.57602 10.5165C8.78302 10.5165 8.95102 10.6845 8.95102 10.8915C8.95102 11.0985 8.78302 11.2665 8.57602 11.2665Z" fill="white"/>
</g>
<defs>
<clipPath id="clip0_1609_155">
<rect width="12" height="12" fill="white"/>
</clipPath>
</defs>
</svg>
