<svg width="117" height="64" viewBox="0 0 117 64" fill="none" xmlns="http://www.w3.org/2000/svg">
<g clip-path="url(#clip0_1601_2)">
<path d="M91.4813 4.38121C91.354 3.57975 90.5967 3.03189 89.7921 3.16032C83.7421 4.11623 78.6354 6.545 74.725 10.6677C72.6376 12.8689 70.9028 15.548 69.5612 18.7344L68.8023 7.6082C68.8023 7.6082 68.8023 7.59357 68.8039 7.58544C68.8741 6.77422 68.2703 6.05892 67.4559 5.98902C66.7541 5.92886 66.1241 6.3678 65.9185 7.00995L58.2527 25.5915L57.3208 11.9341C57.267 11.1229 56.5619 10.5084 55.7475 10.5637C55.0229 10.6125 54.455 11.1717 54.3766 11.8659C53.2701 17.8955 51.1321 22.5417 48.1242 25.9476C45.8312 28.5161 43.233 29.9029 40.5825 29.9029C36.4094 29.9029 32.814 26.8888 31.5834 25.6257C29.3883 23.3205 28.8807 21.4542 28.5984 20.1276C28.507 19.6269 28.4597 19.1213 28.4597 18.6092C28.4597 18.5962 28.4597 18.5816 28.4597 18.5686C28.4597 18.5653 28.4597 18.5637 28.4597 18.5637C28.4793 15.0002 30.7592 11.6789 34.5587 9.02254C34.6272 8.97377 34.6974 8.92663 34.7676 8.87786C34.7676 8.87786 34.7708 8.87623 34.7724 8.87461C34.841 8.82746 34.9095 8.78032 34.9797 8.7348C34.983 8.73317 34.9862 8.72992 34.9895 8.7283C35.0581 8.68278 35.1266 8.63726 35.1951 8.59336C35.2 8.59011 35.2049 8.58686 35.2098 8.58361C35.2768 8.53972 35.3453 8.49582 35.4138 8.45193C35.4204 8.44705 35.4269 8.4438 35.4334 8.43892C35.5003 8.39666 35.5673 8.35439 35.6342 8.31212C35.6407 8.30724 35.6489 8.30399 35.6554 8.29912C35.9443 8.11866 36.2413 7.94309 36.5449 7.77077C41.7919 4.79088 49.0741 2.94736 57.1495 2.94736C57.2703 2.94736 57.391 2.94736 57.5118 2.94736C57.551 2.94736 57.5918 2.94736 57.6309 2.94736C57.7125 2.94736 57.7925 2.94736 57.8741 2.95061C57.9214 2.95061 57.9688 2.95061 58.0177 2.95223C58.0895 2.95223 58.163 2.95386 58.2348 2.95549C58.2854 2.95549 58.336 2.95711 58.3866 2.95874C58.4551 2.96036 58.5253 2.96199 58.5938 2.96361C58.6461 2.96361 58.6983 2.96687 58.7505 2.96849C58.8191 2.97012 58.886 2.97337 58.9545 2.97499C59.0068 2.97662 59.059 2.97824 59.1112 2.97987C59.1781 2.98312 59.245 2.98475 59.3119 2.988C59.3642 2.98962 59.418 2.99288 59.4703 2.9945C59.5372 2.99775 59.6041 3.001 59.671 3.00426C59.7232 3.00751 59.7754 3.00913 59.8277 3.01238C59.8946 3.01564 59.9615 3.01889 60.0284 3.02376C60.079 3.02702 60.1312 3.02864 60.1818 3.03189C60.2504 3.03514 60.3205 3.04002 60.3891 3.0449C60.4381 3.04815 60.487 3.0514 60.5343 3.05465C60.6094 3.05953 60.6829 3.06441 60.7579 3.06928C60.8004 3.07253 60.8444 3.07579 60.8869 3.07741C60.9897 3.08554 61.0925 3.09204 61.1937 3.10017C61.2312 3.10342 61.2688 3.10667 61.3047 3.1083C61.3961 3.11643 61.4891 3.12293 61.5805 3.13106C61.6278 3.13431 61.6752 3.13919 61.7225 3.14406C61.791 3.15057 61.8596 3.15544 61.9281 3.16195C61.9803 3.16682 62.0326 3.1717 62.0848 3.17658C62.1468 3.18308 62.2105 3.18796 62.2725 3.19446C62.328 3.19934 62.3818 3.20584 62.4357 3.21072C62.4961 3.21722 62.5548 3.22372 62.6152 3.23023C62.6707 3.23673 62.7262 3.24161 62.7833 3.24811C62.8421 3.25461 62.8992 3.26111 62.9579 3.26762C63.0151 3.27412 63.0705 3.28062 63.1277 3.28713C63.1848 3.29363 63.2419 3.30013 63.299 3.30826C63.3562 3.31476 63.4133 3.32289 63.4704 3.32939C63.5259 3.3359 63.5814 3.34402 63.6385 3.35053C63.6956 3.35866 63.7544 3.36516 63.8115 3.37329C63.8654 3.37979 63.9208 3.38792 63.9747 3.39442C64.0335 3.40255 64.0922 3.41068 64.151 3.41881C64.2032 3.42531 64.2554 3.43344 64.3093 3.44157C64.3697 3.44969 64.4284 3.45782 64.4888 3.46758C64.5378 3.47408 64.5884 3.48221 64.6373 3.49034C64.6993 3.50009 64.7614 3.50822 64.8234 3.51797C64.8576 3.52285 64.8903 3.52935 64.9246 3.53423C65.0731 3.55699 65.2216 3.58137 65.3701 3.60576C65.4028 3.61064 65.4354 3.61551 65.4664 3.62202C65.5349 3.6334 65.6019 3.64478 65.6688 3.65616C65.7112 3.66266 65.752 3.67079 65.7944 3.67729C65.8597 3.68867 65.925 3.70005 65.9903 3.71143C66.0327 3.71956 66.0768 3.72606 66.1192 3.73419C66.1845 3.74557 66.2498 3.75857 66.3134 3.76995C66.3559 3.77808 66.3983 3.78621 66.4424 3.79434C66.5076 3.80734 66.5729 3.81872 66.6366 3.83173C66.679 3.83986 66.7214 3.84799 66.7622 3.85612C66.8275 3.86912 66.8928 3.88213 66.9581 3.89513C66.9989 3.90326 67.0397 3.91139 67.0805 3.91952C67.1474 3.93252 67.2127 3.94715 67.278 3.96016C67.3172 3.96829 67.3563 3.97642 67.3938 3.98454C67.4608 3.99918 67.5293 4.01381 67.5962 4.02844C67.6321 4.03657 67.6664 4.04469 67.7023 4.0512C67.7725 4.06745 67.8443 4.08209 67.9145 4.09834C67.9439 4.10485 67.9716 4.11135 68.001 4.11785C68.0777 4.13573 68.1544 4.15199 68.2295 4.16987C68.2425 4.17312 68.2572 4.17638 68.2703 4.17963C68.6505 4.26741 69.0259 4.3617 69.398 4.45762C69.4078 4.46087 69.4192 4.4625 69.429 4.46575C69.5106 4.48688 69.5906 4.50802 69.6706 4.53078C69.6901 4.53565 69.7114 4.54215 69.7309 4.54703C69.8077 4.56817 69.8844 4.5893 69.9611 4.61043C69.9839 4.61694 70.0084 4.62344 70.0312 4.62994C70.1063 4.65108 70.1814 4.67221 70.2548 4.69334C70.2793 4.69985 70.3038 4.70635 70.3266 4.71448C70.4017 4.73561 70.4752 4.75675 70.5502 4.7795C70.5731 4.78601 70.5959 4.79251 70.6188 4.79901C70.6939 4.82177 70.7689 4.84291 70.844 4.86567C70.8652 4.87217 70.8848 4.87867 70.906 4.88355C70.9844 4.90631 71.0611 4.93069 71.1378 4.95508C71.1525 4.95996 71.1688 4.96483 71.1835 4.96971C71.2651 4.99572 71.3483 5.02173 71.4299 5.04774C71.4348 5.04774 71.4397 5.05099 71.4446 5.05262C72.0011 5.22982 72.5462 5.41677 73.0783 5.61348C73.0799 5.61348 73.0815 5.61348 73.0832 5.61511C73.1664 5.646 73.2513 5.67688 73.3345 5.7094C73.3427 5.71265 73.3492 5.7159 73.3574 5.71753C73.4373 5.74841 73.5189 5.7793 73.5989 5.81019C73.6087 5.81344 73.6185 5.81832 73.6283 5.82157C73.7082 5.85246 73.7866 5.88335 73.8649 5.91423C73.8747 5.91749 73.8845 5.92236 73.8943 5.92561C73.9743 5.9565 74.0526 5.98902 74.1326 6.02153C74.1391 6.02478 74.1473 6.02803 74.1538 6.02966C74.2354 6.0638 74.317 6.09631 74.3986 6.13045C74.3986 6.13045 74.4002 6.13045 74.4019 6.13045C75.0873 6.41657 75.7499 6.71895 76.3881 7.03596C76.3881 7.03596 76.3897 7.03596 76.3913 7.03596C77.2661 6.35805 78.1882 5.73541 79.1577 5.17292C79.1577 5.17292 79.1544 5.1713 79.1528 5.16967C79.0663 5.1209 78.9781 5.07213 78.8916 5.02336C78.8916 5.02336 78.8884 5.02336 78.8884 5.02173C78.8002 4.97296 78.7105 4.92419 78.6223 4.87705C78.6223 4.87705 78.6207 4.87705 78.6191 4.87705C78.5293 4.82828 78.4396 4.78113 78.3482 4.73236C78.3482 4.73236 78.3465 4.73236 78.3449 4.73236C78.2535 4.68521 78.1621 4.63644 78.0707 4.5893C77.9777 4.54215 77.8847 4.49501 77.7916 4.44787C77.0425 4.07233 76.2624 3.71631 75.4545 3.38141C75.2522 3.2985 75.0482 3.2156 74.8425 3.13431C74.7397 3.09367 74.6369 3.05465 74.5324 3.01401C74.5324 3.01401 74.5324 3.01401 74.5308 3.01401C74.428 2.97499 74.3235 2.93598 74.2207 2.89696H74.2174C74.1146 2.85794 74.0102 2.82055 73.9057 2.78154C73.9057 2.78154 73.9041 2.78154 73.9025 2.78154C73.798 2.74415 73.6936 2.70676 73.5875 2.66936C73.5875 2.66936 73.5842 2.66936 73.5826 2.66936C73.4781 2.63197 73.372 2.59621 73.2676 2.55882C73.266 2.55882 73.2643 2.55882 73.2611 2.55719C73.1566 2.52143 73.0505 2.48566 72.9445 2.4499C72.9412 2.4499 72.9379 2.44827 72.9347 2.44665C72.8302 2.41088 72.7258 2.37674 72.6197 2.3426C72.6148 2.3426 72.6115 2.33935 72.6066 2.33772C72.5022 2.30359 72.3977 2.26945 72.2916 2.23693C72.2867 2.23693 72.2818 2.23368 72.2769 2.23206C72.1725 2.19954 72.0664 2.1654 71.962 2.13289C71.9571 2.13126 71.9505 2.12964 71.9456 2.12801C71.8412 2.0955 71.7351 2.06298 71.6307 2.0321C71.6241 2.03047 71.6176 2.02884 71.6111 2.02559C71.5066 1.99471 71.4022 1.96382 71.2961 1.93293C71.2896 1.9313 71.2814 1.92805 71.2749 1.92643C71.1704 1.89554 71.0643 1.86628 70.9599 1.83539C70.9517 1.83376 70.9436 1.83051 70.9338 1.82889C70.8293 1.79962 70.7249 1.77036 70.6204 1.7411C70.6106 1.73785 70.6008 1.73622 70.591 1.73297C70.4866 1.70533 70.3838 1.67607 70.2793 1.64843C70.2679 1.64518 70.2581 1.64356 70.2467 1.64031C70.1439 1.61267 70.0394 1.58503 69.935 1.55902C69.9235 1.55577 69.9105 1.55252 69.8991 1.54927C69.7962 1.52326 69.6934 1.49725 69.589 1.47123C69.5759 1.46798 69.5612 1.46473 69.5482 1.46148C69.447 1.43547 69.3442 1.41108 69.2413 1.3867C69.2266 1.38345 69.2103 1.3802 69.1956 1.37532C69.0945 1.35093 68.9933 1.32655 68.8921 1.30379C68.8757 1.30054 68.8594 1.29566 68.8431 1.29241C68.7419 1.26965 68.6407 1.24526 68.5396 1.2225C68.5216 1.21925 68.5053 1.21438 68.4873 1.21112C68.3861 1.18836 68.2866 1.16723 68.1854 1.14447C68.1658 1.13959 68.1462 1.13634 68.1283 1.13147C68.0287 1.11033 67.9292 1.0892 67.8296 1.06806C67.81 1.06319 67.7904 1.05994 67.7692 1.05506C67.6697 1.03392 67.5701 1.01442 67.4706 0.993283C67.4493 0.988405 67.4281 0.985154 67.4053 0.980277C67.3074 0.960769 67.2094 0.941261 67.1099 0.921752C67.0854 0.916875 67.0625 0.911998 67.0381 0.908747C66.9418 0.890864 66.8455 0.871356 66.7476 0.853474C66.7214 0.848597 66.697 0.843719 66.6709 0.838842C66.5746 0.82096 66.4799 0.804703 66.3836 0.78682C66.3559 0.781943 66.3281 0.777066 66.3004 0.772189C66.2057 0.755932 66.1127 0.739676 66.018 0.723419C65.9887 0.718542 65.9593 0.713665 65.9299 0.708788C65.8369 0.692531 65.7439 0.677899 65.6492 0.661643C65.6198 0.656766 65.5888 0.651888 65.5578 0.647011C65.4648 0.63238 65.3717 0.617749 65.2787 0.603118C65.2461 0.598241 65.2118 0.593364 65.1792 0.588487C65.0894 0.575481 64.998 0.56085 64.9082 0.547845C64.874 0.542968 64.8381 0.53809 64.8038 0.533213C64.714 0.520208 64.6259 0.507202 64.5361 0.494197C64.5002 0.48932 64.4627 0.484443 64.4252 0.479566C64.337 0.468186 64.2489 0.455181 64.1608 0.443801C64.1232 0.438924 64.0841 0.434047 64.0465 0.42917C63.96 0.41779 63.8719 0.40641 63.7838 0.39503C63.743 0.390153 63.7022 0.385276 63.6614 0.380399C63.5765 0.370645 63.4916 0.359265 63.4051 0.349511C63.3627 0.344634 63.3203 0.339757 63.2778 0.33488C63.193 0.325126 63.1097 0.315372 63.0249 0.305617C62.9808 0.30074 62.9367 0.295863 62.8943 0.290986C62.8111 0.282858 62.7278 0.273104 62.643 0.264975C62.5973 0.260098 62.5516 0.255221 62.5059 0.25197C62.4243 0.243841 62.3427 0.235713 62.2594 0.227584C62.2105 0.222707 62.1615 0.219456 62.1125 0.214579C62.0342 0.208076 61.9542 0.199948 61.8759 0.193445C61.8253 0.188568 61.7747 0.185317 61.7241 0.18044C61.6458 0.173937 61.5674 0.167434 61.4907 0.160931C61.4385 0.156054 61.3863 0.152803 61.3341 0.149552C61.2573 0.143049 61.1806 0.138172 61.1023 0.131669C61.0468 0.128418 60.9897 0.123541 60.9342 0.120289C60.8608 0.115412 60.7873 0.110535 60.7122 0.105658C60.6535 0.102407 60.5947 0.0991553 60.536 0.0942783C60.4642 0.0894012 60.3924 0.0845242 60.3205 0.0812728C60.2602 0.0780214 60.1981 0.07477 60.1378 0.0715187C60.0676 0.0682673 59.9974 0.0633902 59.9289 0.0601389C59.8636 0.0568875 59.7999 0.0536361 59.7346 0.0503848C59.6677 0.0471334 59.6024 0.043882 59.5355 0.0406306C59.467 0.0373793 59.4001 0.0357536 59.3315 0.0325022C59.2679 0.0292508 59.2042 0.0276252 59.1406 0.0243738C59.0704 0.0211224 59.0002 0.0194967 58.9317 0.017871C58.8697 0.0162453 58.8076 0.012994 58.744 0.0113683C58.6722 0.0097426 58.5987 0.00811692 58.5253 0.00649123C58.4649 0.00649123 58.4062 0.00323986 58.3458 0.00161418C58.2691 -1.15102e-05 58.1924 -0.0016372 58.1157 -0.00326288C58.0585 -0.00326288 58.003 -0.00488857 57.9459 -0.00651425C57.8513 -0.00651425 57.7566 -0.00813994 57.6619 -0.00976562C57.6228 -0.00976562 57.5852 -0.00976562 57.5461 -0.00976562C57.4122 -0.00976562 57.2784 -0.00976562 57.1446 -0.00976562C48.5584 -0.00976562 40.7555 1.98333 35.0825 5.20543C30.7315 7.67648 27.5996 10.884 26.2434 14.5125C26.214 14.5889 26.1862 14.6669 26.1585 14.745C26.0769 14.9774 26.0018 15.2115 25.9349 15.4489C25.868 15.6846 25.8076 15.922 25.7554 16.1626C25.7031 16.4015 25.6591 16.6421 25.6215 16.8844C25.535 17.4501 25.4926 18.0223 25.4926 18.6011C25.4926 18.671 25.4926 18.7409 25.4942 18.8092C25.4942 18.8368 25.4942 18.8644 25.4959 18.8921C25.4959 18.9311 25.4975 18.9717 25.4991 19.0108C25.4991 19.0465 25.5024 19.0807 25.504 19.1164C25.504 19.1457 25.5073 19.175 25.5089 19.2042C25.7276 23.3611 28.2067 27.1408 32.2477 30.1532C35.7696 32.4942 38.9668 32.9055 40.9073 32.8242C42.7744 32.7462 44.4995 32.3723 46.2245 31.3481C48.1242 30.2199 50.1415 28.3698 51.6854 26.2109C52.9388 24.5121 54.0241 22.5921 54.9315 20.4397L55.7247 32.0829H55.7263C55.7639 32.6243 56.1001 33.125 56.6386 33.3444C57.3927 33.6533 58.2544 33.294 58.5645 32.543L66.2596 13.8898L67.1703 27.2384C67.2241 28.0496 67.9292 28.6641 68.7436 28.6088C69.4682 28.56 70.0361 28.0008 70.1145 27.3066C71.2814 20.947 73.5956 16.1252 76.8695 12.6738C80.3066 9.04856 84.8421 6.90753 90.2474 6.05242C91.052 5.92561 91.602 5.17129 91.4731 4.36983L91.4813 4.38121Z" fill="url(#paint0_linear_1601_2)"/>
<path d="M88.7966 18.3377C88.7949 18.2646 88.7933 18.193 88.79 18.1215C88.79 18.1134 88.79 18.1052 88.79 18.0955C88.7868 18.0288 88.7835 17.9638 88.7786 17.8988C88.7786 17.8825 88.777 17.8646 88.7754 17.8484C88.7705 17.7769 88.7656 17.707 88.759 17.6354C88.759 17.6224 88.7558 17.6078 88.7558 17.5948C88.7509 17.533 88.7443 17.4712 88.7378 17.4095C88.7362 17.3932 88.7346 17.3769 88.7329 17.3623C88.7248 17.2924 88.7166 17.2225 88.7084 17.1542C88.7068 17.138 88.7035 17.1201 88.7019 17.1038C88.6938 17.0437 88.6856 16.9835 88.6774 16.925C88.6758 16.9104 88.6725 16.8957 88.6709 16.8811C88.6611 16.8128 88.6497 16.7445 88.6383 16.6763C88.635 16.6568 88.6317 16.6373 88.6285 16.6177C88.6187 16.5576 88.6073 16.4991 88.5958 16.4389C88.5942 16.4275 88.5909 16.4145 88.5893 16.4032C88.5762 16.3365 88.5616 16.2698 88.5485 16.2016C88.5436 16.1804 88.5387 16.1593 88.5338 16.1382C88.5207 16.0764 88.5061 16.0146 88.4914 15.9528C88.4881 15.9382 88.4832 15.9219 88.48 15.9073C88.4653 15.8488 88.4506 15.7903 88.4359 15.7317C88.4294 15.709 88.4245 15.6862 88.4179 15.6635C88.4016 15.6001 88.3837 15.535 88.3657 15.4716C88.3608 15.4538 88.3543 15.4342 88.3494 15.4164C88.3347 15.366 88.32 15.3156 88.3053 15.2652C88.2988 15.2408 88.2906 15.218 88.2841 15.1936C88.2645 15.1319 88.2449 15.0701 88.2254 15.0099C88.2172 14.9872 88.209 14.9628 88.2025 14.94C88.1878 14.8945 88.1715 14.8506 88.1568 14.8051C88.1486 14.7791 88.1389 14.7547 88.1307 14.7287C88.1095 14.6702 88.0883 14.6116 88.067 14.5515C88.0573 14.5239 88.0475 14.4978 88.036 14.4702C88.0197 14.4296 88.005 14.3889 87.9887 14.3467C87.9789 14.3206 87.9675 14.2946 87.9577 14.267C87.9348 14.2101 87.912 14.1532 87.8892 14.0979C87.8761 14.0687 87.8647 14.0378 87.8516 14.0085C87.8353 13.9711 87.819 13.9321 87.8027 13.8947C87.7847 13.8525 87.7668 13.8118 87.7472 13.7695C87.7292 13.7289 87.7113 13.6899 87.6933 13.6509C87.6786 13.6184 87.6639 13.5858 87.6476 13.5549C87.6313 13.5208 87.615 13.485 87.5986 13.4509C87.5742 13.4021 87.5513 13.3517 87.5268 13.303C87.5105 13.2721 87.4958 13.2412 87.4795 13.2087C87.4616 13.1745 87.4452 13.1404 87.4273 13.1063C87.411 13.0754 87.3946 13.0445 87.3783 13.012C87.3506 12.9583 87.3212 12.903 87.2918 12.8494C87.2771 12.8234 87.2641 12.7974 87.2494 12.7714C87.2298 12.7356 87.2086 12.6982 87.189 12.6624C87.1759 12.6381 87.1613 12.6137 87.1482 12.5893C87.1123 12.5275 87.078 12.4674 87.0421 12.4056C87.0291 12.3845 87.016 12.3617 87.003 12.3406C86.9279 12.217 86.8528 12.0935 86.7745 11.9699C86.763 11.952 86.7516 11.9341 86.7402 11.9163C86.6896 11.8382 86.639 11.7618 86.5868 11.6838C86.5819 11.6773 86.5786 11.6708 86.5737 11.6643C86.546 11.6236 86.5182 11.5814 86.4889 11.5407C86.4791 11.5277 86.4709 11.5147 86.4611 11.5001C86.4073 11.422 86.3534 11.3456 86.2979 11.2692C86.293 11.2611 86.2865 11.253 86.2816 11.2465C86.2506 11.2042 86.2196 11.1619 86.1886 11.1197C86.1837 11.1132 86.1788 11.1067 86.1739 11.0985C86.1135 11.0173 86.0531 10.9376 85.9911 10.8563C85.9846 10.8482 85.9797 10.8417 85.9731 10.8336C85.8736 10.7035 85.7708 10.5751 85.6663 10.4483C85.6614 10.4418 85.6549 10.4353 85.65 10.4288C85.5439 10.3003 85.4362 10.1735 85.3252 10.0467C85.3203 10.0418 85.3154 10.0353 85.3105 10.0305C85.1979 9.90203 85.0837 9.77523 84.9678 9.65005C84.9645 9.6468 84.9613 9.64355 84.958 9.6403C84.8388 9.51187 84.7181 9.38507 84.594 9.25989C83.6197 9.67281 82.696 10.1459 81.8261 10.6824C81.8277 10.684 81.831 10.6856 81.8326 10.6889C81.8424 10.697 81.8506 10.7051 81.8604 10.7149C81.9028 10.7539 81.9452 10.7945 81.9877 10.8336C82.0007 10.8466 82.0154 10.8596 82.0285 10.8726C82.1296 10.9685 82.2292 11.0644 82.3271 11.1619C82.3369 11.1717 82.3483 11.1831 82.3581 11.1928C82.4038 11.24 82.4512 11.2855 82.4969 11.3326C82.5001 11.3359 82.5018 11.3375 82.505 11.3408C82.5556 11.3912 82.6046 11.4432 82.6535 11.4952C82.6601 11.5017 82.6666 11.5098 82.6731 11.5163C82.7188 11.5651 82.7645 11.6123 82.8086 11.661C82.8118 11.6643 82.8151 11.6675 82.8184 11.6708C82.8673 11.7244 82.9163 11.7781 82.9653 11.8317C82.9653 11.8317 82.9669 11.8333 82.9685 11.835C83.0159 11.8886 83.0632 11.9406 83.1089 11.9943C83.1105 11.9975 83.1138 11.9992 83.1154 12.0024C83.2117 12.113 83.3047 12.2235 83.3961 12.3357C83.3961 12.3357 83.3961 12.3357 83.3961 12.3373C84.9613 14.2556 85.836 16.3658 85.8491 18.5669C85.8491 18.5669 85.8491 18.5702 85.8491 18.5734C85.8491 18.5864 85.8491 18.5995 85.8491 18.6125C85.8491 19.1245 85.8018 19.6301 85.712 20.1308C85.428 21.4558 84.6283 23.5058 82.4332 25.8094C82.492 25.7996 82.5491 25.7882 82.6078 25.7785C82.0905 26.3182 81.516 26.8417 80.8909 27.344C80.8469 27.3782 80.8044 27.4139 80.7604 27.4481C80.7489 27.4562 80.7391 27.4643 80.7277 27.4741C80.6722 27.518 80.6167 27.5619 80.5596 27.6041C80.5466 27.6139 80.5335 27.6236 80.5204 27.6334C80.4764 27.6675 80.4323 27.7 80.3882 27.7342C80.3703 27.7472 80.3523 27.7602 80.3344 27.7748C80.2936 27.8057 80.2528 27.835 80.212 27.8659C80.194 27.8789 80.1761 27.8935 80.1565 27.9065C80.1141 27.9374 80.07 27.9699 80.0276 28.0008C80.0112 28.0122 79.9966 28.0236 79.9802 28.0349C79.9215 28.0772 79.8644 28.1178 79.804 28.1601C79.742 28.204 79.6816 28.2463 79.6196 28.2885C79.6081 28.2967 79.5951 28.3048 79.5837 28.3129C79.5347 28.3471 79.4857 28.3796 79.4368 28.4137C79.4188 28.4251 79.4009 28.4381 79.3829 28.4495C79.3388 28.4787 79.2948 28.5096 79.2491 28.5389C79.2295 28.5519 79.2115 28.5633 79.192 28.5763C79.1446 28.6072 79.0989 28.6381 79.0516 28.6673C79.0353 28.6771 79.019 28.6885 79.0043 28.6982C78.877 28.7795 78.7497 28.8608 78.6207 28.9404C78.6044 28.9502 78.5897 28.9599 78.5734 28.9697C78.5244 28.999 78.4771 29.0299 78.4282 29.0591C78.4069 29.0721 78.3857 29.0851 78.3645 29.0981C78.3204 29.1258 78.2747 29.1518 78.229 29.1794C78.2078 29.1924 78.185 29.2054 78.1638 29.2184C78.1164 29.2461 78.0691 29.2737 78.0218 29.3013C78.0022 29.3127 77.9842 29.3241 77.9647 29.3339C77.8977 29.3729 77.8308 29.4103 77.7639 29.4493C77.7199 29.4753 77.6742 29.4997 77.6285 29.5257C77.5909 29.5468 77.5534 29.568 77.5158 29.5891C77.5028 29.5956 77.4914 29.6021 77.4783 29.6102C76.9055 29.9272 76.3081 30.2296 75.6896 30.519C70.6727 32.8648 64.2179 34.2727 57.1593 34.2727C53.4072 34.2727 49.8298 33.8711 46.5461 33.1461C45.3645 33.928 44.1094 34.619 42.7793 35.2123C47.0928 36.495 51.9824 37.2233 57.1609 37.2233C65.7471 37.2233 73.55 35.2302 79.223 32.0081C82.1884 30.3239 84.5859 28.2967 86.244 26.0272C86.2457 26.024 86.2489 26.0207 86.2506 26.0191C86.2946 25.9589 86.3387 25.8972 86.3828 25.8354C86.3877 25.8289 86.3926 25.8207 86.3975 25.8142C86.4219 25.7801 86.4464 25.746 86.4693 25.7118C86.4693 25.7118 86.4693 25.7118 86.4676 25.7118C87.8581 23.7057 88.6742 21.5176 88.7966 19.214C88.7966 19.1847 88.7998 19.1554 88.8015 19.1262C88.8015 19.0904 88.8047 19.0563 88.8064 19.0205C88.8064 18.9815 88.8096 18.9408 88.8096 18.9018C88.8096 18.8742 88.8096 18.8466 88.8113 18.8189C88.8113 18.749 88.8129 18.6807 88.8129 18.6108C88.8129 18.5377 88.8129 18.4629 88.8113 18.3897C88.8113 18.3719 88.8113 18.3556 88.8113 18.3377H88.7966Z" fill="url(#paint1_linear_1601_2)"/>
<path d="M14.7472 48.9185C14.2592 48.9185 13.8757 49.2371 13.7484 49.7508L11.1339 60.2251L8.79676 56.2341C8.50463 55.7025 8.09335 55.6228 7.87302 55.6228C7.6527 55.6228 7.23979 55.7025 6.95581 56.2194L4.61056 60.2251L1.99438 49.7476C1.86382 49.2355 1.48192 48.9185 0.997198 48.9185C0.447197 48.9185 0.00164795 49.372 0.00164795 49.9313C0.00164795 49.9735 0.00164795 50.0434 0.0604017 50.2759L3.20047 63.0164C3.30165 63.5171 3.69661 63.8536 4.18459 63.8536C4.53059 63.8536 4.85863 63.6732 5.07732 63.3432L7.87302 58.6563L10.6834 63.3676C10.8874 63.6716 11.2138 63.852 11.5598 63.852C12.0478 63.852 12.4444 63.5155 12.5391 63.0392L15.6856 50.2759C15.7444 50.0402 15.7444 49.9703 15.7444 49.928C15.7444 49.3704 15.2972 48.9152 14.7488 48.9152L14.7472 48.9185Z" fill="white"/>
<path d="M25.8076 52.4901C25.305 52.4901 24.8969 52.838 24.8104 53.3095C23.9406 52.721 22.8536 52.4072 21.641 52.4072C18.5483 52.4072 15.9354 55.0571 15.9354 58.193C15.9354 61.329 18.4961 64 21.641 64C22.8602 64 23.9504 63.683 24.8219 63.0896C24.9296 63.535 25.3245 63.8553 25.8093 63.8553C26.3788 63.8553 26.826 63.4099 26.826 62.8425V53.5013C26.826 52.934 26.3788 52.4885 25.8093 52.4885L25.8076 52.4901ZM21.641 54.3906C23.007 54.3906 24.2278 55.0538 24.7925 56.091V60.3357C24.2245 61.3615 23.0038 62.0167 21.641 62.0167C19.6613 62.0167 17.9901 60.2658 17.9901 58.193C17.9901 56.1203 19.663 54.3889 21.641 54.3889V54.3906Z" fill="white"/>
<path d="M32.1873 61.8703C31.4186 61.8541 31.0285 61.2249 31.0285 59.9975V49.9297C31.0285 49.3623 30.5813 48.9169 30.0118 48.9169C29.4422 48.9169 28.995 49.3623 28.995 49.9297V59.9975C28.995 62.3402 30.2451 63.8537 32.1791 63.8537C32.7291 63.8537 33.1747 63.4082 33.1747 62.862C33.1747 62.3158 32.7324 61.8736 32.1857 61.8703H32.1873Z" fill="white"/>
<path d="M38.2079 61.8703C37.4392 61.8541 37.0508 61.2249 37.0508 59.9975V49.9297C37.0508 49.3623 36.6036 48.9169 36.034 48.9169C35.4645 48.9169 35.0173 49.3623 35.0173 49.9297V59.9975C35.0173 62.3402 36.2658 63.8537 38.1998 63.8537C38.7498 63.8537 39.1953 63.4082 39.1953 62.862C39.1953 62.3158 38.753 61.8736 38.2063 61.8703H38.2079Z" fill="white"/>
<path d="M49.4103 52.4901C48.9076 52.4901 48.4996 52.838 48.4131 53.3095C47.5432 52.721 46.4563 52.4072 45.2437 52.4072C42.1509 52.4072 39.538 55.0571 39.538 58.193C39.538 61.329 42.0987 64 45.2437 64C46.4628 64 47.553 63.683 48.4245 63.0896C48.5322 63.535 48.9272 63.8553 49.4119 63.8553C49.9815 63.8553 50.4287 63.4099 50.4287 62.8425V53.5013C50.4287 52.934 49.9815 52.4885 49.4119 52.4885L49.4103 52.4901ZM45.2437 54.3906C46.6097 54.3906 47.8305 55.0538 48.3952 56.091V60.3357C47.8272 61.3615 46.6064 62.0167 45.2437 62.0167C43.264 62.0167 41.5928 60.2658 41.5928 58.193C41.5928 56.1203 43.2656 54.3889 45.2437 54.3889V54.3906Z" fill="white"/>
<path d="M74.6124 52.3016C71.4087 52.3016 68.804 54.8978 68.804 58.0874C68.804 61.277 71.4103 63.8943 74.6124 63.8943C77.8145 63.8943 80.4421 61.29 80.4421 58.0874C80.4421 54.8848 77.8276 52.3016 74.6124 52.3016ZM74.6124 61.9126C72.5773 61.9126 70.8571 60.1618 70.8571 58.089C70.8571 56.0163 72.5773 54.2849 74.6124 54.2849C76.6476 54.2849 78.389 56.026 78.389 58.089C78.389 60.152 76.659 61.9126 74.6124 61.9126Z" fill="white"/>
<path d="M91.3817 52.3861C90.8122 52.3861 90.365 52.8315 90.365 53.3989V60.2089C89.7758 61.2493 88.4734 61.9142 87.0046 61.9142C84.896 61.9142 83.9575 60.9079 83.9575 58.6498V53.3989C83.9575 52.8315 83.5104 52.3861 82.9408 52.3861C82.3712 52.3861 81.924 52.8315 81.924 53.3989V58.7328C81.924 61.9175 83.8302 63.8959 86.8985 63.8959C88.2449 63.8959 89.4412 63.5594 90.3813 62.9319C90.4678 63.405 90.8758 63.7513 91.3785 63.7513C91.9481 63.7513 92.3952 63.3058 92.3952 62.7385V53.3973C92.3952 52.8299 91.9481 52.3845 91.3785 52.3845L91.3817 52.3861Z" fill="white"/>
<path d="M99.6513 52.3016C98.313 52.3016 97.12 52.6397 96.18 53.2737C96.1212 52.7665 95.6985 52.3845 95.1713 52.3845C94.6018 52.3845 94.1546 52.8299 94.1546 53.3973V62.7385C94.1546 63.3058 94.6018 63.7513 95.1713 63.7513C95.7409 63.7513 96.1881 63.3058 96.1881 62.7385V56.0098C96.7724 54.9596 98.0748 54.2865 99.5485 54.2865C101.657 54.2865 102.596 55.2928 102.596 57.5509V62.7401C102.596 63.3075 103.043 63.7529 103.612 63.7529C104.182 63.7529 104.629 63.3075 104.629 62.7401V57.468C104.629 54.2833 102.723 52.3048 99.6546 52.3048L99.6513 52.3016Z" fill="white"/>
<path d="M115.983 48.8145C115.414 48.8145 114.966 49.2599 114.966 49.8273V53.1941C114.1 52.6137 113.021 52.3032 111.815 52.3032C108.722 52.3032 106.109 54.953 106.109 58.089C106.109 61.2249 108.67 63.8959 111.815 63.8959C113.034 63.8959 114.124 63.5789 114.996 62.9856C115.104 63.431 115.499 63.7513 115.983 63.7513C116.553 63.7513 117 63.3058 117 62.7385V49.8273C117 49.2599 116.553 48.8145 115.983 48.8145ZM111.817 54.2849C113.183 54.2849 114.403 54.9482 114.968 55.9854V60.23C114.4 61.2558 113.179 61.911 111.817 61.911C109.837 61.911 108.166 60.1601 108.166 58.0874C108.166 56.0146 109.839 54.2833 111.817 54.2833V54.2849Z" fill="white"/>
<path d="M58.4698 60.4674C58.4698 59.9829 58.8501 59.6058 59.3348 59.6058C59.8196 59.6058 60.0954 59.9212 60.1802 60.2788C60.3483 61.1209 61.2574 62.2768 62.9466 62.2768C64.6357 62.2768 65.6705 61.0575 65.6705 59.7732C65.6705 58.0484 64.2342 57.4387 63.1163 57.1234L62.0604 56.8291C60.7302 56.4292 58.6184 55.5464 58.6184 52.7909C58.6184 50.4987 60.4561 48.8161 62.9678 48.8161C65.4795 48.8161 67.2535 50.5621 67.2535 52.2024C67.2535 52.6869 66.8733 53.064 66.3886 53.064C65.9038 53.064 65.6068 52.7275 65.5432 52.3487C65.375 51.5277 64.5721 50.4776 62.9678 50.4776C61.3635 50.4776 60.4136 51.635 60.4136 52.8966C60.4136 54.5792 62.0179 55.1254 62.927 55.379L63.8768 55.6521C65.2494 56.052 67.4657 56.8714 67.4657 59.8789C67.4657 62.1077 65.5236 63.9594 62.9466 63.9594C60.3696 63.9594 58.4698 62.0882 58.4698 60.4674Z" fill="white"/>
</g>
<defs>
<linearGradient id="paint0_linear_1601_2" x1="87.2902" y1="-9.78339" x2="28.7968" y2="34.7236" gradientUnits="userSpaceOnUse">
<stop stop-color="#FBB040"/>
<stop offset="1" stop-color="#BE1E2D"/>
</linearGradient>
<linearGradient id="paint1_linear_1601_2" x1="98.7357" y1="5.2607" x2="40.244" y2="49.766" gradientUnits="userSpaceOnUse">
<stop stop-color="#FBB040"/>
<stop offset="1" stop-color="#BE1E2D"/>
</linearGradient>
<clipPath id="clip0_1601_2">
<rect width="117" height="64" fill="white"/>
</clipPath>
</defs>
</svg>
