<?xml version="1.0" encoding="iso-8859-1"?>
<!-- Generator: Adobe Illustrator 19.0.0, SVG Export Plug-In . SVG Version: 6.00 Build 0)  -->
<svg version="1.1" id="Layer_1" xmlns="http://www.w3.org/2000/svg" xmlns:xlink="http://www.w3.org/1999/xlink" x="0px" y="0px"
	 viewBox="0 0 512.001 512.001" style="enable-background:new 0 0 512.001 512.001;" xml:space="preserve">
<g>
	<g>
		<path d="M303.2,137.578l48.373-24.187c0.771-0.385,1.474-0.893,2.083-1.501l54.419-54.419c13.127-13.127,13.127-34.489,0-47.616
			c0-0.001,0-0.001,0-0.001c-13.128-13.127-34.489-13.127-47.617,0l-54.419,54.419c-0.609,0.609-1.116,1.314-1.502,2.083
			l-24.186,48.373c-1.543,3.087-0.938,6.814,1.502,9.254l0.377,0.377L256,150.591l-26.231-26.231l0.377-0.377
			c2.44-2.44,3.045-6.169,1.502-9.254l-24.187-48.372c-0.385-0.771-0.891-1.474-1.502-2.083L151.541,9.853
			c-13.128-13.127-34.489-13.127-47.617,0c0,0,0,0,0,0.001c-13.127,13.127-13.127,34.489,0,47.617l54.419,54.418
			c0.609,0.608,1.313,1.116,2.083,1.501l48.373,24.187c3.371,1.687,7.064,0.688,9.632-1.879l26.231,26.231l-91.09,91.09
			c-3.428-1.705-7.228-2.613-11.168-2.613c-13.694,0-25.119,11.425-25.119,25.119c0,6.709,2.613,13.018,7.357,17.762
			c4.898,4.897,11.329,7.344,17.762,7.344c13.695,0,25.119-11.414,25.119-25.106c0-3.941-0.908-7.74-2.613-11.168l91.09-91.09
			l91.09,91.09c-1.705,3.428-2.613,7.227-2.613,11.168c0,13.693,11.424,25.106,25.119,25.106c6.433,0,12.865-2.448,17.762-7.344
			c4.744-4.744,7.357-11.052,7.357-17.762c0-13.694-11.427-25.119-25.119-25.119c-3.941,0-7.74,0.908-11.168,2.613l-91.09-91.09
			l26.231-26.231C296.136,138.266,299.83,139.264,303.2,137.578z M318.297,74.69l53.499-53.499c6.877-6.877,18.065-6.877,24.943,0
			V21.19c6.876,6.877,6.876,18.066,0,24.943l-53.5,53.499l-42.041,21.021l-3.922-3.922L318.297,74.69z M210.803,120.654
			l-42.042-21.022l-53.499-53.498c-6.877-6.876-6.877-18.066,0-24.942c6.877-6.877,18.066-6.877,24.943,0l53.499,53.499
			l21.021,42.041L210.803,120.654z M148.828,281.95c-3.542,3.541-9.306,3.543-12.849,0c-1.716-1.716-2.662-3.997-2.662-6.424
			c0-4.952,4.134-9.086,9.086-9.086c4.951,0,9.086,4.134,9.086,9.086C151.49,277.953,150.545,280.233,148.828,281.95z
			 M363.169,269.104c0.001-0.001,0.001-0.001,0.002-0.002c0.001-0.001,0.002-0.002,0.003-0.003c1.716-1.714,3.997-2.658,6.422-2.658
			s4.707,0.945,6.424,2.662c1.716,1.716,2.661,3.997,2.661,6.424c0,2.427-0.945,4.707-2.661,6.424
			c-3.543,3.543-9.307,3.541-12.849,0c-1.716-1.716-2.662-3.997-2.662-6.424C360.51,273.101,361.454,270.821,363.169,269.104z"/>
	</g>
</g>
<g>
	<g>
		<path d="M495.432,461.755c-4.427,0-8.017,3.588-8.017,8.017c0,14.441-11.748,26.188-26.188,26.188
			c-14.44,0-26.188-11.747-26.188-26.188c0-4.428-3.589-8.017-8.017-8.017c-4.427,0-8.017,3.588-8.017,8.017
			c0,14.441-11.748,26.188-26.188,26.188c-14.44,0-26.188-11.747-26.188-26.188c0-4.428-3.589-8.017-8.017-8.017
			s-8.017,3.588-8.017,8.017c0,14.441-11.748,26.188-26.188,26.188s-26.188-11.747-26.188-26.188c0-4.428-3.589-8.017-8.017-8.017
			s-8.017,3.588-8.017,8.017c0,14.441-11.748,26.188-26.188,26.188s-26.188-11.747-26.188-26.188c0-4.428-3.589-8.017-8.017-8.017
			s-8.017,3.588-8.017,8.017c0,14.441-11.748,26.188-26.188,26.188s-26.188-11.747-26.188-26.188c0-4.428-3.589-8.017-8.017-8.017
			s-8.017,3.588-8.017,8.017c0,14.441-11.748,26.188-26.188,26.188s-26.188-11.747-26.188-26.188c0-4.428-3.589-8.017-8.017-8.017
			s-8.017,3.588-8.017,8.017c0,14.441-11.748,26.188-26.188,26.188c-14.44,0-26.188-11.747-26.188-26.188
			c0-4.428-3.589-8.017-8.017-8.017c-4.427,0-8.017,3.588-8.017,8.017c0,23.281,18.941,42.221,42.221,42.221
			c14.053,0,26.526-6.903,34.205-17.495c7.679,10.592,20.152,17.495,34.205,17.495s26.526-6.903,34.205-17.495
			c7.679,10.592,20.152,17.495,34.205,17.495s26.526-6.903,34.205-17.495c7.679,10.592,20.152,17.495,34.205,17.495
			s26.526-6.903,34.205-17.495c7.679,10.592,20.152,17.495,34.205,17.495s26.526-6.903,34.205-17.495
			c7.679,10.592,20.152,17.495,34.205,17.495c14.053,0,26.526-6.903,34.205-17.495c7.679,10.592,20.152,17.495,34.205,17.495
			c23.281,0,42.221-18.941,42.221-42.221C503.449,465.343,499.859,461.755,495.432,461.755z"/>
	</g>
</g>
<g>
	<g>
		<path d="M473.682,274.573c-3.591-2.628-8.788-1.751-11.325,1.901c-1.148,1.652-1.616,3.691-1.352,5.681
			c0.358,2.69,0.757,5.317,0.757,8.042c0,23.871-19.42,43.29-43.29,43.29h-59.858c-4.427,0-8.017,3.588-8.017,8.017
			c0,4.428,3.589,8.017,8.017,8.017h59.858c29.578,0,54.17-21.759,58.61-50.113c12.026,13.957,18.885,31.949,18.885,50.647
			c0,6.068-0.724,11.967-2.049,17.637H18.082c-1.325-5.669-2.049-11.569-2.049-17.637c0-18.697,6.859-36.691,18.885-50.647
			c4.439,28.352,29.031,50.113,58.61,50.113h230.881c4.427,0,8.017-3.588,8.017-8.017c0-4.428-3.589-8.017-8.017-8.017H93.528
			c-23.871,0-43.29-19.42-43.29-43.29c0-2.724,0.39-5.354,0.757-8.042c0.272-1.99-0.209-4.029-1.352-5.681
			c-2.528-3.656-7.741-4.525-11.325-1.901C14.324,292.15,0,320.367,0,350.056c0,51.572,41.956,93.528,93.528,93.528h59.858
			c4.427,0,8.017-3.588,8.017-8.017s-3.589-8.017-8.017-8.017H93.528c-18.943,0-36.311-6.842-49.788-18.171h424.521
			c-13.477,11.329-30.845,18.171-49.788,18.171H187.592c-4.427,0-8.017,3.588-8.017,8.017s3.589,8.017,8.017,8.017h230.881
			c51.572,0,93.528-41.956,93.528-93.528C512.001,320.368,497.677,292.15,473.682,274.573z M482.718,393.346H29.281
			c-2.067-3.058-3.921-6.273-5.542-9.62H488.26C486.638,387.072,484.786,390.288,482.718,393.346z"/>
	</g>
</g>
<g>
	<g>
		<path d="M479.399,333.488h-1.069c-4.427,0-8.017,3.588-8.017,8.017c0,4.428,3.589,8.017,8.017,8.017h1.069
			c4.427,0,8.017-3.588,8.017-8.017C487.415,337.076,483.826,333.488,479.399,333.488z"/>
	</g>
</g>
<g>
	<g>
		<path d="M34.739,333.488H33.67c-4.427,0-8.017,3.588-8.017,8.017c0,4.428,3.589,8.017,8.017,8.017h1.069
			c4.427,0,8.017-3.588,8.017-8.017C42.756,337.076,39.166,333.488,34.739,333.488z"/>
	</g>
</g>
<g>
</g>
<g>
</g>
<g>
</g>
<g>
</g>
<g>
</g>
<g>
</g>
<g>
</g>
<g>
</g>
<g>
</g>
<g>
</g>
<g>
</g>
<g>
</g>
<g>
</g>
<g>
</g>
<g>
</g>
</svg>
