<?xml version="1.0" encoding="iso-8859-1"?>
<!-- Generator: Adobe Illustrator 19.0.0, SVG Export Plug-In . SVG Version: 6.00 Build 0)  -->
<svg version="1.1" id="Layer_1" xmlns="http://www.w3.org/2000/svg" xmlns:xlink="http://www.w3.org/1999/xlink" x="0px" y="0px"
	 viewBox="0 0 512.001 512.001" style="enable-background:new 0 0 512.001 512.001;" xml:space="preserve">
<path d="M256.001,35.095c-16.242,0-29.457,13.214-29.457,29.457s13.214,29.457,29.457,29.457s29.457-13.214,29.457-29.457
	S272.243,35.095,256.001,35.095z M256.001,76.451c-6.562,0-11.9-5.338-11.9-11.9s5.338-11.9,11.9-11.9s11.9,5.338,11.9,11.9
	S262.562,76.451,256.001,76.451z"/>
<path d="M485.573,2.514c-3.102-1.438-6.755-0.947-9.364,1.261l-44.46,37.598H411.26c-1.67-16.31-15.488-29.075-32.232-29.075
	c-16.743,0-30.561,12.765-32.232,29.075h-30.565C306.896,17.201,283.426,0,256.001,0s-50.896,17.201-60.23,41.374h-30.565
	c-1.67-16.31-15.488-29.075-32.232-29.075s-30.561,12.765-32.232,29.075h-20.49L35.793,3.776c-2.609-2.207-6.263-2.699-9.364-1.261
	c-3.099,1.438-5.083,4.546-5.083,7.964v114.089c0,3.418,1.984,6.524,5.083,7.964c1.181,0.548,2.44,0.815,3.693,0.815
	c2.038,0,4.054-0.708,5.67-2.075l44.46-37.6h20.319v24.194c-37.744,13.378-64.86,49.42-64.86,91.691v11.514v68.628v79.665v68.627
	v44.54c0,16.25,13.22,29.472,29.471,29.472h135.582c16.25,0,29.471-13.221,29.471-29.472v-44.54v-68.627v-79.665V221.07v-11.514
	c0-42.272-27.116-78.313-64.86-91.691V93.671h33.044c10.663,20.999,32.462,35.43,57.581,35.43s46.918-14.432,57.581-35.43h33.044
	v24.194c-37.744,13.378-64.86,49.42-64.86,91.691v11.512v68.628v79.665v68.627v44.54c0,16.25,13.22,29.472,29.471,29.472h135.582
	c16.25,0,29.471-13.221,29.471-29.472c0,0,0-44.528,0-44.54c0,0,0-68.627,0-68.638c0,0,0-79.643,0-79.655c0,0,0-68.628,0-68.638
	v-11.502c0-16.001-3.981-31.877-11.511-45.915c-2.292-4.271-7.613-5.876-11.886-3.585c-4.272,2.292-5.877,7.613-3.585,11.885
	c6.167,11.493,9.426,24.501,9.426,37.615v2.735H299.323v-2.734c0-18.828,6.81-37.279,19.021-51.607
	c12.697-14.9,30.716-24.783,50.127-27.39c2.948-0.396,5.911-0.604,8.882-0.666c7.721-0.162,15.463,0.783,22.959,2.854
	c0.15,0.042,0.303,0.064,0.454,0.098c10.182,2.873,19.714,7.776,28.197,14.608c3.779,3.042,9.303,2.444,12.342-1.332
	c3.041-3.777,2.445-9.303-1.331-12.343c-8.577-6.906-18.258-12.264-28.546-15.903V93.671h20.319l44.46,37.598
	c1.616,1.367,3.633,2.075,5.67,2.075c1.252,0,2.513-0.268,3.693-0.815c3.099-1.438,5.083-4.546,5.083-7.964V10.478
	C490.656,7.06,488.673,3.954,485.573,2.514z M68.261,80.82l-29.358,24.826V29.398l29.358,24.826V80.82z M118.129,84.892V44.699
	c0-8.185,6.659-14.845,14.845-14.845c8.186,0,14.845,6.659,14.845,14.845v40.193v28.535c-4.902-0.754-9.886-1.132-14.845-1.132
	c-4.956,0-9.946,0.379-14.845,1.132V84.892z M85.818,76.114V58.931h14.755v17.183H85.818z M212.679,482.529
	c0,6.57-5.344,11.915-11.914,11.915H65.183c-6.57,0-11.914-5.344-11.914-11.915v-35.762h159.41V482.529z M212.679,429.211H53.268
	v-51.07h159.41v51.07H212.679z M212.679,360.584H53.268v-62.108h159.41v62.108H212.679z M212.679,209.556v2.735h-105.36
	c-4.848,0-8.778,3.929-8.778,8.778c0,4.849,3.93,8.778,8.778,8.778h105.36v51.071H53.268v-51.071h18.938
	c4.848,0,8.778-3.929,8.778-8.778c0-4.849-3.93-8.778-8.778-8.778H53.268v-2.735c0-18.811,6.798-37.247,18.989-51.57
	c12.603-14.807,30.457-24.678,49.727-27.349c10.603-1.469,21.467-0.798,31.801,1.989
	C187.672,141.804,212.679,172.808,212.679,209.556z M165.376,76.114V58.931h26.32c-0.255,2.91-0.305,5.833-0.166,8.751
	c0.136,2.82,0.455,5.654,0.96,8.433h-27.113V76.114z M302.935,66.866c-0.146,2.858-0.561,5.715-1.206,8.493
	c-2.334,10.047-8.16,19.184-16.151,25.678c-7.669,6.233-17.234,9.93-27.104,10.444c-0.824,0.043-1.649,0.064-2.474,0.064
	c-11.262,0-22.289-4.135-30.786-11.524c-9.209-8.009-15.081-19.51-16.056-31.691c-0.101-1.256-0.152-2.518-0.152-3.778
	c0-12.032,4.737-23.768,13.045-32.458c7.554-7.9,17.787-13.017,28.655-14.241c1.757-0.198,3.525-0.296,5.294-0.296
	c9.663,0,19.2,3.029,27.086,8.613c7.728,5.472,13.732,13.263,17.012,22.149c1.905,5.162,2.896,10.729,2.896,16.232
	C302.995,65.322,302.975,66.094,302.935,66.866z M458.733,482.529c0,6.57-5.344,11.915-11.914,11.915H311.237
	c-6.57,0-11.914-5.344-11.914-11.915v-35.762h159.41V482.529z M458.733,360.584h-33.901c-4.848,0-8.778,3.929-8.778,8.778
	s3.93,8.778,8.778,8.778h33.901v51.07h-159.41v-51.07h90.396c4.848,0,8.778-3.929,8.778-8.778s-3.93-8.778-8.778-8.778h-90.396
	v-62.108h159.41V360.584z M458.733,229.848v51.071h-159.41v-51.071H458.733z M346.627,76.114h-27.115
	c0.506-2.78,0.824-5.609,0.96-8.431c0.139-2.905,0.088-5.855-0.166-8.753h26.32v17.183H346.627z M393.873,84.892v28.546
	c-4.525-0.7-9.083-1.062-13.659-1.118c-5.354-0.066-10.738,0.293-16.03,1.106V84.892V44.699c0-8.185,6.659-14.845,14.845-14.845
	c8.186,0,14.845,6.659,14.845,14.845V84.892z M426.184,76.114H411.43V58.931h14.755V76.114z M473.099,105.647L443.741,80.82V54.224
	l29.358-24.826V105.647z"/>
<g>
</g>
<g>
</g>
<g>
</g>
<g>
</g>
<g>
</g>
<g>
</g>
<g>
</g>
<g>
</g>
<g>
</g>
<g>
</g>
<g>
</g>
<g>
</g>
<g>
</g>
<g>
</g>
<g>
</g>
</svg>
