<?xml version="1.0" encoding="iso-8859-1"?>
<!-- Generator: Adobe Illustrator 19.0.0, SVG Export Plug-In . SVG Version: 6.00 Build 0)  -->
<svg version="1.1" id="Capa_1" xmlns="http://www.w3.org/2000/svg" xmlns:xlink="http://www.w3.org/1999/xlink" x="0px" y="0px"
	 viewBox="0 0 58.889 58.889" style="enable-background:new 0 0 58.889 58.889;" xml:space="preserve">
<g>
	<g>
		<path d="M57.882,0.168c-0.001,0-0.002,0-0.003,0L54.97,0.207c-0.032,0.002-0.063,0.006-0.095,0.008
			C29.242,1.887,6.305,21.583,0.313,47.085L0,48.421l11.476-0.924l-0.904,11.237l1.34-0.32C34.47,53.021,52.476,34.624,57.53,12.93
			l0.01-0.006l0.095-0.423c0.048-0.215,0.086-0.43,0.131-0.645c0.083-0.393,0.166-0.786,0.241-1.181
			c0.066-0.349,0.124-0.698,0.183-1.047c0.065-0.383,0.132-0.766,0.189-1.151c0.065-0.437,0.117-0.873,0.171-1.31
			c0.036-0.297,0.079-0.593,0.11-0.891c0.08-0.749,0.146-1.497,0.192-2.242l0.037-3.879L57.882,0.168z M43.497,4.237l-20.93,20.93
			h-6.686c-0.552,0-1,0.448-1,1s0.448,1,1,1h4.686l-3,3h-4.686c-0.552,0-1,0.448-1,1s0.448,1,1,1h2.686L3.012,44.723
			C8.666,25.26,24.549,9.721,43.497,4.237z M14.814,55.55l12.382-12.382h1.686c0.552,0,1-0.448,1-1c0-0.459-0.316-0.83-0.739-0.947
			l2.053-2.053h2.686c0.552,0,1-0.448,1-1s-0.448-1-1-1h-0.686l21.572-21.573C49.286,34.111,34.002,49.708,14.814,55.55z
			 M56.855,3.96c-0.043,0.679-0.104,1.355-0.174,2.03c-0.044,0.418-0.099,0.839-0.154,1.259c-0.029,0.229-0.057,0.459-0.089,0.688
			c-0.077,0.539-0.164,1.079-0.259,1.621c-0.017,0.096-0.033,0.192-0.05,0.288c-0.107,0.592-0.224,1.185-0.351,1.778
			c-0.005,0.023-0.01,0.047-0.015,0.07c-0.13,0.114-0.265,0.26-0.367,0.444l-25.03,25.03H22.88c-0.552,0-1,0.448-1,1s0.448,1,1,1
			h5.486l-2,2H15.881c-0.552,0-1,0.448-1,1s0.448,1,1,1h8.486L12.909,54.625l0.749-9.311l-9.145,0.735l13.883-13.882h13.485
			c0.552,0,1-0.448,1-1s-0.448-1-1-1H20.396l3-3h5.485c0.552,0,1-0.448,1-1s-0.448-1-1-1h-3.485l21.862-21.86
			c0.555-0.12,1.112-0.23,1.672-0.334l-0.002-0.009c0.055-0.01,0.111-0.019,0.167-0.029l0.003,0.008
			c0.599-0.109,1.2-0.208,1.801-0.296l0.659-0.086c0.463-0.062,0.925-0.124,1.388-0.173c0.111-0.012,0.221-0.021,0.332-0.032
			c0.589-0.057,1.178-0.113,1.77-0.151L55.435,2.2L35.96,21.674c-0.391,0.391-0.391,1.023,0,1.414
			c0.195,0.195,0.451,0.293,0.707,0.293s0.512-0.098,0.707-0.293L56.859,3.604L56.855,3.96z"/>
	</g>
</g>
<g>
</g>
<g>
</g>
<g>
</g>
<g>
</g>
<g>
</g>
<g>
</g>
<g>
</g>
<g>
</g>
<g>
</g>
<g>
</g>
<g>
</g>
<g>
</g>
<g>
</g>
<g>
</g>
<g>
</g>
</svg>
