<?xml version="1.0" encoding="iso-8859-1"?>
<!-- Generator: Adobe Illustrator 19.0.0, SVG Export Plug-In . SVG Version: 6.00 Build 0)  -->
<svg version="1.1" id="Layer_1" xmlns="http://www.w3.org/2000/svg" xmlns:xlink="http://www.w3.org/1999/xlink" x="0px" y="0px"
	 viewBox="0 0 484.1 484.1" style="enable-background:new 0 0 484.1 484.1;" xml:space="preserve">
<g>
	<g>
		<g>
			<path d="M483.949,420.506l-52.096-264c-0.44-2.216-1.8-4.152-3.736-5.312l-40-24c-0.12-0.072-0.264-0.096-0.384-0.16
				c-0.168-0.088-0.304-0.208-0.48-0.288L256.533,68.65l11.904-7.936c3.68-2.448,4.672-7.416,2.216-11.096s-7.416-4.68-11.096-2.216
				l-11.552,7.704V46.05c0-4.416-3.576-8-8-8s-8,3.584-8,8v9.056l-11.56-7.712c-3.696-2.464-8.648-1.456-11.096,2.216
				c-2.456,3.672-1.464,8.648,2.216,11.096l11.904,7.936l-130.72,58.096c-0.464,0.208-0.88,0.488-1.296,0.776
				c-0.08,0.056-0.176,0.08-0.256,0.136l-0.112,0.08c-0.008,0.008-0.016,0.016-0.032,0.024L59.205,151.65
				c-1.552,1.16-2.624,2.84-3.032,4.736l-56,264c-0.752,3.56,0.992,7.184,4.248,8.816l32,16c0.032,0.016,0.072,0.008,0.104,0.024
				c1.08,0.528,2.256,0.824,3.48,0.824h90.272h219.456h90.272c1.104,0,2.208-0.224,3.24-0.688l36.096-16
				C482.757,427.85,484.669,424.17,483.949,420.506z M34.069,426.138l-16.952-8.472L71.205,162.65l13.216-9.912L57.405,299.434
				L34.069,426.138z M355.757,427.314c-1.552,1.768-3.688,2.736-6.024,2.736H130.277c-2.336,0-4.48-0.968-6.024-2.736
				c-1.536-1.76-2.216-4-1.904-6.32l27.736-208c0.528-3.952,3.936-6.944,7.928-6.944h1.992h64h8v9.472
				c-9.288,3.312-16,12.112-16,22.528v8h-8c-4.424,0-8,3.584-8,8c0,4.416,3.576,8,8,8h8v24c0,13.232,10.768,24,24,24
				s24-10.768,24-24v-24h8c4.424,0,8-3.584,8-8c0-4.416-3.576-8-8-8h-8v-8c0-10.416-6.712-19.216-16-22.528v-9.472h8h64h1.992
				c3.992,0,7.4,2.992,7.928,6.944l27.736,208C357.973,423.314,357.293,425.554,355.757,427.314z M152.005,182.05
				c0-4.408,3.584-8,8-8h56v16h-56C155.589,190.05,152.005,186.458,152.005,182.05z M248.005,174.05v16h-16v-16H248.005z
				 M232.005,158.05v-8c0-4.408,3.584-8,8-8s8,3.592,8,8v8H232.005z M240.005,230.05c4.416,0,8,3.592,8,8v8h-16v-8
				C232.005,233.642,235.589,230.05,240.005,230.05z M248.005,262.05v24c0,4.408-3.584,8-8,8c-4.416,0-8-3.592-8-8v-24H248.005z
				 M264.005,190.05v-16h56c4.416,0,8,3.592,8,8s-3.584,8-8,8H264.005z M372.261,430.05c1.264-3.552,1.768-7.352,1.264-11.168
				l-27.736-208c-0.736-5.488-3.368-10.296-7.104-13.936c3.272-4.112,5.32-9.24,5.32-14.896c0-13.232-10.768-24-24-24h-56v-8
				c0-13.232-10.768-24-24-24s-24,10.768-24,24v8h-56c-13.232,0-24,10.768-24,24c0,5.656,2.048,10.784,5.328,14.888
				c-3.744,3.648-6.376,8.448-7.104,13.936l-27.736,208c-0.512,3.816,0,7.624,1.264,11.168H49.613l27.672-150.208l25.824-140.184
				l136.896-60.848l136.896,60.848l25.824,140.192l27.672,150.208H372.261z M446.037,426.626l-50.952-276.6l21.76,13.056
				l50.168,254.248L446.037,426.626z"/>
			<path d="M240.005,326.05c-4.424,0-8,3.584-8,8v16c0,4.416,3.576,8,8,8s8-3.584,8-8v-16
				C248.005,329.634,244.429,326.05,240.005,326.05z"/>
			<path d="M186.349,296.394l-8,8c-3.128,3.128-3.128,8.184,0,11.312c1.56,1.56,3.608,2.344,5.656,2.344
				c2.048,0,4.096-0.784,5.656-2.344l8-8c3.128-3.128,3.128-8.184,0-11.312C194.533,293.266,189.477,293.266,186.349,296.394z"/>
			<path d="M293.661,296.394c-3.128-3.128-8.184-3.128-11.312,0c-3.128,3.128-3.128,8.184,0,11.312l8,8
				c1.56,1.56,3.608,2.344,5.656,2.344c2.048,0,4.096-0.784,5.656-2.344c3.128-3.128,3.128-8.184,0-11.312L293.661,296.394z"/>
		</g>
	</g>
</g>
<g>
</g>
<g>
</g>
<g>
</g>
<g>
</g>
<g>
</g>
<g>
</g>
<g>
</g>
<g>
</g>
<g>
</g>
<g>
</g>
<g>
</g>
<g>
</g>
<g>
</g>
<g>
</g>
<g>
</g>
</svg>
