<svg id="Capa_1" enable-background="new 0 0 512 512" height="512" viewBox="0 0 512 512" width="512" xmlns="http://www.w3.org/2000/svg"><g><g><g><path d="m85.798 42.606c0-3.976 3.235-7.211 7.211-7.211h288.496v-27.154c0-4.552-3.69-8.241-8.241-8.241h-314.619c-4.552 0-8.241 3.69-8.241 8.241v441.967c0 4.552 3.69 8.241 8.241 8.241h27.153z" fill="#ffe177"/></g></g><g><g><path d="m373.264 0h-43.091c4.552 0 8.241 3.69 8.241 8.241v27.153h43.091v-27.153c.001-4.551-3.689-8.241-8.241-8.241z" fill="#ffd15b"/></g></g><g><path d="m283.361 422.367c0-48.856 39.747-88.603 88.603-88.603 15.97 0 30.953 4.269 43.907 11.693v-302.851c0-4.552-3.69-8.241-8.241-8.241h-314.62c-4.552 0-8.241 3.69-8.241 8.241v441.967c0 4.552 3.69 8.241 8.241 8.241h225.3c-21.222-16.202-34.949-41.746-34.949-70.447z" fill="#f9f3f1"/></g><g><g><path d="m407.629 34.365h-43.046c4.552 0 8.241 3.69 8.241 8.241v291.173c15.647.151 30.326 4.388 43.046 11.679v-302.852c.001-4.552-3.689-8.241-8.241-8.241z" fill="#f3eae6"/></g></g><g><path d="m135.393 93.231h-50.625v-50.625c0-4.552 3.69-8.241 8.241-8.241h50.625v50.625c.001 4.552-3.689 8.241-8.241 8.241z" fill="#e1d3ce"/></g><g><g><circle cx="371.964" cy="422.367" fill="#00f2a6" r="89.633"/></g><g><path d="m371.964 332.735c-5.551 0-10.984.509-16.256 1.475 41.741 7.648 73.377 44.207 73.377 88.158s-31.635 80.51-73.377 88.158c5.272.966 10.705 1.475 16.256 1.475 49.503 0 89.633-40.13 89.633-89.633-.001-49.504-40.13-89.633-89.633-89.633z" fill="#05e39c"/></g><g><path d="m361.703 459.745c-2.007 0-3.932-.805-5.342-2.236l-31.159-31.622c-2.907-2.951-2.872-7.699.078-10.606 2.951-2.908 7.699-2.873 10.606.078l25.707 26.088 46.343-48.99c2.845-3.01 7.592-3.142 10.602-.295 3.009 2.847 3.141 7.594.295 10.603l-51.681 54.633c-1.398 1.479-3.337 2.325-5.372 2.346-.026.001-.051.001-.077.001z" fill="#fff"/></g></g><g><path d="m352.757 171.213h-204.875c-4.142 0-7.5-3.358-7.5-7.5s3.358-7.5 7.5-7.5h204.875c4.142 0 7.5 3.358 7.5 7.5s-3.358 7.5-7.5 7.5z" fill="#b9acac"/></g><g><path d="m161.967 214.749h-14.085c-4.142 0-7.5-3.358-7.5-7.5s3.358-7.5 7.5-7.5h14.085c4.142 0 7.5 3.358 7.5 7.5s-3.358 7.5-7.5 7.5z" fill="#b9acac"/></g><g><g><path d="m352.757 214.749h-160.059c-4.142 0-7.5-3.358-7.5-7.5s3.358-7.5 7.5-7.5h160.059c4.142 0 7.5 3.358 7.5 7.5s-3.358 7.5-7.5 7.5z" fill="#b9acac"/></g></g><g><path d="m352.757 258.285h-204.875c-4.142 0-7.5-3.358-7.5-7.5s3.358-7.5 7.5-7.5h204.875c4.142 0 7.5 3.358 7.5 7.5s-3.358 7.5-7.5 7.5z" fill="#b9acac"/></g><g><path d="m161.967 301.821h-14.085c-4.142 0-7.5-3.358-7.5-7.5s3.358-7.5 7.5-7.5h14.085c4.142 0 7.5 3.358 7.5 7.5s-3.358 7.5-7.5 7.5z" fill="#b9acac"/></g><g><path d="m268.362 345.356h-120.48c-4.142 0-7.5-3.358-7.5-7.5s3.358-7.5 7.5-7.5h120.48c4.142 0 7.5 3.358 7.5 7.5s-3.358 7.5-7.5 7.5z" fill="#b9acac"/></g><g><g><path d="m158.396 388.893h-10.514c-4.142 0-7.5-3.358-7.5-7.5s3.358-7.5 7.5-7.5h10.514c4.142 0 7.5 3.358 7.5 7.5s-3.358 7.5-7.5 7.5z" fill="#b9acac"/></g><g><path d="m203.077 388.893h-10.513c-4.142 0-7.5-3.358-7.5-7.5s3.358-7.5 7.5-7.5h10.513c4.142 0 7.5 3.358 7.5 7.5s-3.358 7.5-7.5 7.5z" fill="#b9acac"/></g><g><path d="m247.758 388.893h-10.513c-4.142 0-7.5-3.358-7.5-7.5s3.358-7.5 7.5-7.5h10.513c4.142 0 7.5 3.358 7.5 7.5s-3.358 7.5-7.5 7.5z" fill="#b9acac"/></g></g><g><path d="m247.758 432.428h-99.876c-4.142 0-7.5-3.358-7.5-7.5s3.358-7.5 7.5-7.5h99.876c4.142 0 7.5 3.358 7.5 7.5s-3.358 7.5-7.5 7.5z" fill="#b9acac"/></g><g><path d="m352.757 301.821h-160.059c-4.142 0-7.5-3.358-7.5-7.5s3.358-7.5 7.5-7.5h160.059c4.142 0 7.5 3.358 7.5 7.5s-3.358 7.5-7.5 7.5z" fill="#b9acac"/></g><g><path d="m84.768 93.231h50.625c4.552 0 8.241-3.69 8.241-8.241v-50.625z" fill="#f3eae6"/></g><g><path d="m320.745 100.731h-140.851c-4.142 0-7.5-3.358-7.5-7.5s3.358-7.5 7.5-7.5h140.852c4.142 0 7.5 3.358 7.5 7.5s-3.359 7.5-7.501 7.5z" fill="#b9acac"/></g></g></svg>