<svg id="Layer_1" enable-background="new 0 0 128 128" viewBox="0 0 128 128" xmlns="http://www.w3.org/2000/svg"><g><path d="m83.1 80.86h-34.89l-11.14 8.47v-37.17c0-4.35 3.53-7.88 7.88-7.88h38.15c4.35 0 7.88 3.53 7.88 7.88v20.82c0 4.36-3.53 7.88-7.88 7.88z" fill="#fa9579"/><g fill="#fffeeb"><path d="m50.79 58.15h26.46c1.1 0 2-.9 2-2s-.9-2-2-2h-26.46c-1.1 0-2 .9-2 2s.9 2 2 2z"/><path d="m77.25 65.81h-26.46c-1.1 0-2 .9-2 2s.9 2 2 2h26.46c1.1 0 2-.9 2-2s-.9-2-2-2z"/></g><g fill="#654062"><path d="m80.74 9.13c17.08.63 30.46 14.4 30.46 31.34v12.41c0 1.1.9 2 2 2s2-.9 2-2v-12.41c0-19.1-15.07-34.63-34.31-35.34-1.11-.04-2.03.82-2.07 1.92s.82 2.04 1.92 2.08z"/><path d="m47.13 5.12c-19.25.53-34.32 15.9-34.32 35v12.76c0 1.1.9 2 2 2s2-.9 2-2v-12.75c0-16.92 13.37-30.54 30.43-31.01 1.1-.03 1.97-.95 1.94-2.05-.03-1.11-.93-1.99-2.05-1.95z"/><path d="m115.02 93.86c-1.1 0-2 .9-2 2v.64c0 8.79-7.15 15.94-15.94 15.94h-19.88c-1.1 0-2 .9-2 2s.9 2 2 2h19.88c11 0 19.94-8.95 19.94-19.94v-.64c0-1.11-.9-2-2-2z"/></g><path d="m77.23 12.57h-26.46c-1.98 0-3.59-1.61-3.59-3.59v-2.89c0-1.98 1.61-3.59 3.59-3.59h26.45c1.98 0 3.59 1.61 3.59 3.59v2.89c.01 1.99-1.6 3.59-3.58 3.59z" fill="#ffe36e"/><path d="m70.98 121.3h-13.96c-3.43 0-6.22-2.78-6.22-6.22v-.64c0-3.43 2.78-6.22 6.22-6.22h13.96c3.43 0 6.22 2.78 6.22 6.22v.64c0 3.44-2.79 6.22-6.22 6.22z" fill="#ffe36e"/><g fill="#65d6ce"><path d="m23.47 56.81v34.39c0 2.16-1.76 3.93-3.94 3.93h-8.35c-4.4 0-8.02-3.25-8.6-7.49-.06-.39-.08-.79-.08-1.19v-24.88c0-.4.02-.8.08-1.19.58-4.24 4.21-7.49 8.6-7.49h8.35c2.17 0 3.94 1.76 3.94 3.92z"/><path d="m104.53 56.81v34.39c0 2.16 1.76 3.93 3.94 3.93h8.35c4.4 0 8.02-3.25 8.6-7.49.06-.39.08-.79.08-1.19v-24.88c0-.4-.02-.8-.08-1.19-.58-4.24-4.21-7.49-8.6-7.49h-8.35c-2.17 0-3.94 1.76-3.94 3.92z"/></g></g></svg>