<svg xmlns="http://www.w3.org/2000/svg" viewBox="0 0 46.99 49"><defs><style>.cls-1{fill:#094385;}</style></defs><g id="Layer_2" data-name="Layer 2"><g id="Layer_1-2" data-name="Layer 1"><path class="cls-1" d="M46.7,42.23l-6.76-6.76a4,4,0,0,0-2.89-1.19,4,4,0,0,0-2,.53l-4.16-4.17a1,1,0,0,0-.66-.67L21.86,21.6a3.33,3.33,0,0,1,5,2.9,1,1,0,0,0,2,0,5.33,5.33,0,0,0-5.33-5.33,5.27,5.27,0,0,0-3.08,1L18.1,17.83a48.15,48.15,0,0,1,1.53-6.59,4.78,4.78,0,0,1,3.87-1.5,4.87,4.87,0,0,1,3.83,1.45A45.2,45.2,0,0,1,29.42,24.5c0,.83,0,1.69-.08,2.54a1,1,0,0,0,.94,1.07h.06a1,1,0,0,0,1-.94c.05-.89.08-1.79.08-2.67a48.13,48.13,0,0,0-3.22-17C27.72,6.27,25.24,0,23.5,0c-.36,0-1.43,0-3.82,5.35a49.06,49.06,0,0,0-3.31,10.74L13.49,13.2a4.14,4.14,0,0,0,.53-2,4.06,4.06,0,0,0-1.19-2.89L6.07,1.53a1,1,0,0,0-1.42,0L.29,5.89A1.05,1.05,0,0,0,0,6.6a1,1,0,0,0,.29.71l6.76,6.76a4.09,4.09,0,0,0,5.05.57L24.93,27.51a3.34,3.34,0,0,1-4.77-3,1,1,0,0,0-2,0A5.34,5.34,0,0,0,26.4,29l2.43,2.45a47.58,47.58,0,0,1-1.56,6.47,5,5,0,0,1-3.77,1.37,5,5,0,0,1-3.77-1.37A44.8,44.8,0,0,1,17.57,24.5c0-.89,0-1.8.09-2.7a1,1,0,0,0-.93-1.06,1,1,0,0,0-1.07.93c-.06.95-.09,1.9-.09,2.83a47.77,47.77,0,0,0,3.29,17,40,40,0,0,0,2.41,5.17C22.52,48.83,23,49,23.5,49c.33,0,1.34,0,3.76-5.43a48.89,48.89,0,0,0,3.29-10.43l3,3a4.09,4.09,0,0,0,.58,5.05L40.92,48a1,1,0,0,0,.71.3,1,1,0,0,0,.71-.3l4.36-4.36A1,1,0,0,0,46.7,42.23ZM23.49,2.43A35.92,35.92,0,0,1,27,10.21a6.19,6.19,0,0,0-3.52-1,6.17,6.17,0,0,0-3.55,1A34.43,34.43,0,0,1,23.49,2.43ZM11.41,12.65a2.08,2.08,0,0,1-2.94,0L2.41,6.6l3-2.95,6.05,6.06a2.08,2.08,0,0,1,0,2.94ZM23.5,46.48A37.46,37.46,0,0,1,20,38.83a6.18,6.18,0,0,0,3.46.93A6.21,6.21,0,0,0,27,38.83,38.26,38.26,0,0,1,23.5,46.48Zm18.13-.6-6.05-6.05a2.09,2.09,0,0,1,0-2.95,2.06,2.06,0,0,1,1.47-.6,2.1,2.1,0,0,1,1.48.6l6,6Z"/></g></g></svg>