<svg xmlns="http://www.w3.org/2000/svg" viewBox="0 0 53.27 42"><defs><style>.cls-1{fill:#fff;}</style></defs><g id="Layer_2" data-name="Layer 2"><g id="Layer_1-2" data-name="Layer 1"><circle class="cls-1" cx="8.09" cy="14.07" r="1.83"/><path class="cls-1" d="M49.2,6.48H44.37a.25.25,0,0,1-.18-.08L38,0H22.87L16.28,6.42a.25.25,0,0,1-.14.06H4.07A4.08,4.08,0,0,0,0,10.55V33.93A4.08,4.08,0,0,0,4.07,38H16.13a18.62,18.62,0,0,1-2-2.85h-10a1.24,1.24,0,0,1-1.22-1.22V10.55A1.24,1.24,0,0,1,4.07,9.33h12a3.08,3.08,0,0,0,2.14-1L24,2.84a.21.21,0,0,1,.17-.07H36.7a.29.29,0,0,1,.18.07l5.36,5.52a3.07,3.07,0,0,0,2.13,1H49.2a1.24,1.24,0,0,1,1.22,1.22V33.93a1.24,1.24,0,0,1-1.22,1.22H46.06A18.62,18.62,0,0,1,44,38H49.2a4.08,4.08,0,0,0,4.07-4.07V10.55A4.08,4.08,0,0,0,49.2,6.48Z"/><path class="cls-1" d="M6.2,4.27h4.26a1.43,1.43,0,0,0,0-2.86H6.2a1.43,1.43,0,0,0,0,2.86Z"/><path class="cls-1" d="M30.08,9.87A16.07,16.07,0,1,0,46.13,25.92,16.07,16.07,0,0,0,30.08,9.87Zm0,29.28a13.22,13.22,0,1,1,13.2-13.23A13.23,13.23,0,0,1,30.08,39.15Z"/><path class="cls-1" d="M30.08,15.45A10.49,10.49,0,1,0,40.55,25.92,10.49,10.49,0,0,0,30.08,15.45Zm0,18.12a7.64,7.64,0,1,1,7.62-7.65A7.64,7.64,0,0,1,30.08,33.57Z"/></g></g></svg>