<svg xmlns="http://www.w3.org/2000/svg" viewBox="0 0 24.05 68.88"><defs><style>.cls-1{fill:#fff;fill-rule:evenodd;}</style></defs><g id="Layer_2" data-name="Layer 2"><g id="Layer_1-2" data-name="Layer 1"><path class="cls-1" d="M14.07,67.65c-.67-7.71-.9-15.48-2-23.14A310,310,0,0,1,9.14,12.39l.8.44a237.26,237.26,0,0,0,3,31.59c1.07,5.95,1.61,15.45,2.4,23.25a2,2,0,0,1,.38,1.09,3.25,3.25,0,0,1-1.64,0,3.42,3.42,0,0,1,0-1.14Z"/><path class="cls-1" d="M8.94,11.3C7.37,20.43,6.86,25.68,10,28.38a8.63,8.63,0,0,1-1.45-2.95A4.26,4.26,0,0,0,10.21,27a13.11,13.11,0,0,0-1.58-2.2,6.91,6.91,0,0,0,1.32.92,10.12,10.12,0,0,0-1.32-2,5.7,5.7,0,0,0,1.76.91,4.58,4.58,0,0,1-1.45-1.53,1.93,1.93,0,0,0,.71.39,2.65,2.65,0,0,1-1-1.75,2.1,2.1,0,0,0,.66.57,4,4,0,0,1-.93-1.63,4.42,4.42,0,0,0,1.5,1.45,5.31,5.31,0,0,1-1.37-2.51A9,9,0,0,1,9.73,21a10,10,0,0,0-1.19-2,4.9,4.9,0,0,1,1.19.84A13,13,0,0,0,8.5,17.6a3.51,3.51,0,0,0,.79.61,4.07,4.07,0,0,1-.79-1.54,2,2,0,0,0,1.42,1c-.58-.31-1.15-.68-1.33-2.32a1.8,1.8,0,0,0,.66.52A3.08,3.08,0,0,1,8.81,14a3,3,0,0,0,.44.22,3.56,3.56,0,0,1,.37-2.53l-.68-.42Z"/><path class="cls-1" d="M9.14,10.68C5.61,14.78,0,19.61,3.9,23.7a3.34,3.34,0,0,1-.49-1.8,2.79,2.79,0,0,0,.73,1A8.58,8.58,0,0,1,3.66,21a2.07,2.07,0,0,0,.62.9A4.52,4.52,0,0,1,3.81,20a7.37,7.37,0,0,1,1.28,1.65,6.19,6.19,0,0,0-.27-.75,1.37,1.37,0,0,0,.49.2,6.59,6.59,0,0,1-1.37-2.25A5.54,5.54,0,0,1,5.28,20a6.15,6.15,0,0,0-.7-1.61c.58.51,1.09.92,1.54,1.26a7.51,7.51,0,0,0-.64-1.55,1.57,1.57,0,0,0,.57.33,18.46,18.46,0,0,0-.74-2.33,8,8,0,0,1,1,1.83,5.39,5.39,0,0,0-.2-1.54,2.85,2.85,0,0,1,.51.75,3.73,3.73,0,0,0-.34-1.23l1,1a2.64,2.64,0,0,1-.2-2.31,2.62,2.62,0,0,0,.37,1.21,3.2,3.2,0,0,1,0-1.56A1.32,1.32,0,0,0,8,15a2.28,2.28,0,0,1-.11-1.47,2.2,2.2,0,0,0,.68,1.3,2.7,2.7,0,0,1,.75-3.19c0-.33-.09-.65-.13-1Z"/><path class="cls-1" d="M8.76,9.5c-5.31,1.27-11.63,3.85-7.34,8.34a2.89,2.89,0,0,1-.42-2,6.06,6.06,0,0,0,1.47,1.28,3.46,3.46,0,0,1-.84-2.09,3,3,0,0,0,1.55.77,2.77,2.77,0,0,1-.73-1.28,3,3,0,0,0,.92.64A1.7,1.7,0,0,1,2.93,14a2.17,2.17,0,0,0,1.17.75,2.61,2.61,0,0,1-.6-1.23,2.77,2.77,0,0,0,.89.72A1.4,1.4,0,0,1,4,13.64a2.09,2.09,0,0,0,.94.59,1.63,1.63,0,0,1-.35-1,1.63,1.63,0,0,0,.72.29,1.5,1.5,0,0,1-.44-.62A3.15,3.15,0,0,0,6,13.55a1.88,1.88,0,0,1-.5-1,2.46,2.46,0,0,0,1.36.6A2,2,0,0,1,6.19,12a3,3,0,0,0,.86.55c-.06-.14-.13-.3-.24-.53a5.4,5.4,0,0,0,1.48,1,2.84,2.84,0,0,1-.71-1,6,6,0,0,0,2.18,1.58,4.33,4.33,0,0,1-1.74-2,1.53,1.53,0,0,0,1.47.33c-.24-.81-.48-1.61-.73-2.42Z"/><path class="cls-1" d="M8.34,10.37c-5.5-.45-9.6-.94-5.93,2.89A4.43,4.43,0,0,1,2,11.83a3.63,3.63,0,0,0,.7,1,1.36,1.36,0,0,1-.15-.74,1.19,1.19,0,0,1,.62.37A1.23,1.23,0,0,0,3,11.88a4.3,4.3,0,0,0,1.06.28.68.68,0,0,1-.33-.62,2.53,2.53,0,0,0,1.34.23.8.8,0,0,1-.53-.37,1.56,1.56,0,0,1,.82.09.69.69,0,0,0-.19-.38,1.23,1.23,0,0,1,.43.37,1.15,1.15,0,0,0-.15-.56,1.48,1.48,0,0,1,.54.51.64.64,0,0,0-.13-.51,1.92,1.92,0,0,0,.8.31A.47.47,0,0,1,6.45,11a1.67,1.67,0,0,0,1.12,0,.86.86,0,0,1-.5-.3,10.13,10.13,0,0,1,1.74.06l-.47-.38Z"/><path class="cls-1" d="M9.18,11.88C16.26,8.1,20.48,6.3,23.91,8.66a7.61,7.61,0,0,0-3-.65,4.67,4.67,0,0,1,1.93,1.15,13.72,13.72,0,0,1-2.44-.95,7.64,7.64,0,0,1,1.27,1,10.93,10.93,0,0,1-2.15-.76,6.76,6.76,0,0,1,1.41,1.45,4.84,4.84,0,0,0-1.81-1,2.42,2.42,0,0,1,.58.57A2.54,2.54,0,0,0,17.87,9a2.64,2.64,0,0,1,.73.48A4,4,0,0,0,16.89,9a4.84,4.84,0,0,1,1.77,1.06,5,5,0,0,0-2.61-.67,10,10,0,0,0,1.55.8,9.76,9.76,0,0,1-2.1-.63,5.42,5.42,0,0,0,1.14.92,13.26,13.26,0,0,1-2.34-.61,4.05,4.05,0,0,1,.81.6,3.79,3.79,0,0,0-1.58-.37,2.3,2.3,0,0,1,1.32,1.11,2.36,2.36,0,0,0-2.44-.68,2.08,2.08,0,0,1,.69.49,2.66,2.66,0,0,0-1.68,0l.35.37a2.65,2.65,0,0,0-2,1l-.6-.54Z"/><path class="cls-1" d="M9.34,12.72C9.93,7.35,9.61,0,15.27,0a3.44,3.44,0,0,0-1.65.88A2.69,2.69,0,0,1,14.81.77a8.47,8.47,0,0,0-1.67.89,2.19,2.19,0,0,1,1.08-.17,4.83,4.83,0,0,0-1.71,1,7.09,7.09,0,0,0,2.08-.19,5.52,5.52,0,0,1-.73.32,1.44,1.44,0,0,1,.48.21,6.54,6.54,0,0,0-2.57.54,5.61,5.61,0,0,0,1.75.2,6.66,6.66,0,0,1-1.65.58c.76.08,1.41.17,2,.27A8.06,8.06,0,0,1,12.27,5a1.62,1.62,0,0,1,.63.19,19.31,19.31,0,0,1-2.21,1,7.75,7.75,0,0,0,2-.55,5.3,5.3,0,0,1-1.26.91,2.6,2.6,0,0,0,.89-.14A3.62,3.62,0,0,1,11.2,7l1.46,0A2.58,2.58,0,0,0,10.84,8.5,2.55,2.55,0,0,1,12,7.94,3.13,3.13,0,0,0,10.87,9a1.36,1.36,0,0,1,.82-.15,2.45,2.45,0,0,0-1.15.93A2.28,2.28,0,0,1,12,9.43a2.71,2.71,0,0,0-1.82,2.73l-.8.56Z"/><path class="cls-1" d="M9.36,12.25C7.62,7.06,6.47.34,12.55,1.6a2.94,2.94,0,0,0-1.89.68,6.37,6.37,0,0,1,1.87.57,4.51,4.51,0,0,0-2.57.4,4.28,4.28,0,0,1,1.82.9A4,4,0,0,0,10,4.21a5.12,5.12,0,0,1,1.37.45,2.91,2.91,0,0,0-1.73.27,3.82,3.82,0,0,1,1.73.59,4.2,4.2,0,0,0-1.84.15A5.5,5.5,0,0,1,11.06,6a4.21,4.21,0,0,0-1.17,0,4.52,4.52,0,0,1,1.48.48,5.3,5.3,0,0,0-2,.24A2.83,2.83,0,0,1,11,7.23a6.72,6.72,0,0,0-1.69,0,5,5,0,0,1,2.07.56,5.67,5.67,0,0,0-2.08.12,3.82,3.82,0,0,1,2.16.84,5.22,5.22,0,0,0-2.15-.05A5.72,5.72,0,0,1,11,9.18c-.15,0-1.17,0-1.42,0a13.28,13.28,0,0,1,2.49.8A8.41,8.41,0,0,0,10,9.82a5.44,5.44,0,0,1,2.33.91,3.94,3.94,0,0,0-2.45-.31c-.17.12.15.95.28,1.33,0,.35-.58.51-.81.5Z"/><path class="cls-1" d="M8.86,10.06C5.23,5.9,2.4,2.88,7.66,3.56a4.49,4.49,0,0,0-1.4.51,4.4,4.4,0,0,1,1.2,0,1.4,1.4,0,0,0-.69.32,1.09,1.09,0,0,0,.67.28,1.15,1.15,0,0,1-.53.2,5,5,0,0,1,.85.69.7.7,0,0,0-.7.1,2.64,2.64,0,0,1,1,.94.84.84,0,0,0-.62-.2A1.53,1.53,0,0,0,8,7a.76.76,0,0,1-.41.07,1.13,1.13,0,0,0,.54.12,1.09,1.09,0,0,1-.53.22,1.57,1.57,0,0,0,.73.13.66.66,0,0,1-.49.2,1.76,1.76,0,0,1,.72.46.4.4,0,0,0-.35,0,1.64,1.64,0,0,1,.7.87.89.89,0,0,0-.54-.22A10.08,10.08,0,0,0,9.44,10.2l-.58-.14Z"/><path class="cls-1" d="M9.56,11.37c2.73-4.35,6.94-9.19,9.63-4a2.72,2.72,0,0,0-1.61-1,5.37,5.37,0,0,1,.69,1.69,4.05,4.05,0,0,0-1.82-1.62,3.88,3.88,0,0,1,.43,1.85A3.8,3.8,0,0,0,15.76,7a5.22,5.22,0,0,1,.5,1.26A2.82,2.82,0,0,0,15,7.19a3.67,3.67,0,0,1,.6,1.61,4.2,4.2,0,0,0-1.2-1.24,5.54,5.54,0,0,1,.66,1.34,4.35,4.35,0,0,0-.7-.83,4.47,4.47,0,0,1,.52,1.36,5.1,5.1,0,0,0-1.35-1.3,2.75,2.75,0,0,1,.59,1.41,6.4,6.4,0,0,0-1-1.25A4.83,4.83,0,0,1,14,10.12a5.56,5.56,0,0,0-1.33-1.44,3.6,3.6,0,0,1,.68,2.07,5,5,0,0,0-1.24-1.59,5.53,5.53,0,0,1,.67,1.6c-.11-.09-.67-.88-.84-1a12.28,12.28,0,0,1,.9,2.3,7.8,7.8,0,0,0-1.13-1.61,5.07,5.07,0,0,1,.72,2.23,3.65,3.65,0,0,0-1.23-2c-.19-.06-.6.67-.8,1s-.71-.12-.84-.29Z"/><path class="cls-1" d="M9.14,14c2.61,8.88,4.46,13.82,8.51,14.85a8.56,8.56,0,0,1-2.61-2,4.15,4.15,0,0,0,2.16.7,14.11,14.11,0,0,0-2.39-1.28,6.14,6.14,0,0,0,1.6.25,11.49,11.49,0,0,0-2.06-1.19,5.8,5.8,0,0,0,2,0,4.61,4.61,0,0,1-2-.73,2.29,2.29,0,0,0,.81.05,2.77,2.77,0,0,1-1.65-1.16,2.09,2.09,0,0,0,.85.22,4,4,0,0,1-1.55-1.05,4.38,4.38,0,0,0,2,.64,5.25,5.25,0,0,1-2.32-1.65,10.13,10.13,0,0,1,1.65.66,10,10,0,0,0-1.94-1.25,4.46,4.46,0,0,1,1.43.23,13.24,13.24,0,0,0-2.09-1.47,3.41,3.41,0,0,0,1,.2,3.94,3.94,0,0,1-1.39-1,2,2,0,0,0,1.7.25c-.66,0-1.33-.12-2.22-1.51a1.79,1.79,0,0,0,.82.18,3.12,3.12,0,0,1-1.19-1.42h.5a3.6,3.6,0,0,1-.79-2.44L9.14,14Z"/><path class="cls-1" d="M9.46,13.1a34.43,34.43,0,0,0,2.75,5.63,9.47,9.47,0,0,1-.67-2.2,30.69,30.69,0,0,0,2.87,4.82,12.73,12.73,0,0,1-.62-1.6,51.47,51.47,0,0,0,3,4.95A11.65,11.65,0,0,1,16,22.45a14.47,14.47,0,0,0,2.76,3.48c-.6-1.09-1.2-2.19-2.07-3.52a8.38,8.38,0,0,0,2.66,1.94,14,14,0,0,1-3.46-3.59,6.88,6.88,0,0,0,2.49.75,11.23,11.23,0,0,1-3.08-1.57,3.79,3.79,0,0,0,1.8.49,4.39,4.39,0,0,1-1.54-.84,5.27,5.27,0,0,0,2.33.46,7.31,7.31,0,0,1-4-2.24,2.69,2.69,0,0,0,.95.33A3.37,3.37,0,0,1,13.51,17a2.49,2.49,0,0,0,.9.33,4.92,4.92,0,0,1-1.87-1.54,1.8,1.8,0,0,0,.83.2,2.45,2.45,0,0,1-1.23-.84A11.53,11.53,0,0,1,10.49,13a7.65,7.65,0,0,1,2,1.05,19.27,19.27,0,0,0-3.68-2.56v.65a2.42,2.42,0,0,1,.65.92Z"/><path class="cls-1" d="M9.78,11.57A53.27,53.27,0,0,1,21,22.32l-1.17-1a11.06,11.06,0,0,1,1.7,3.37,7.31,7.31,0,0,0-1.61-2.47c.34.75.68,1.45,1,2.05a10.13,10.13,0,0,1-1.4-2.2l.39,1.43a24.52,24.52,0,0,0-2.16-4.05c.15.56.3,1.1.44,1.65a31.45,31.45,0,0,0-8.36-9c0-.19,0-.38-.07-.56Z"/><path class="cls-1" d="M9,11.47c4.87.23,11.71,1.58,13.23,7a7.47,7.47,0,0,0-1.66-2.06A3.52,3.52,0,0,1,20.85,18a7.88,7.88,0,0,0-1.66-2.61c.14.65.12,1.23-.12,1.42A5.81,5.81,0,0,0,18.14,15a3,3,0,0,1,.17,1.16,5.42,5.42,0,0,0-1.12-1.77c.2.51.33,1.24.17,1.45a7.08,7.08,0,0,0-1-1.82,4,4,0,0,1,.34,1.36,6.24,6.24,0,0,0-.57-1.12c.11.39.29,1.09.17,1.24a9.5,9.5,0,0,0-1.21-2,1.77,1.77,0,0,1,.24,1.33,9.6,9.6,0,0,0-.75-1.61A3.59,3.59,0,0,1,14.9,15a8.66,8.66,0,0,0-1.12-2,2,2,0,0,1,.1,1.77,6.66,6.66,0,0,0-1-2.05,3.44,3.44,0,0,1,.26,1.51c-.09-.15-.51-1.11-.66-1.36a7.75,7.75,0,0,1,.31,2.11A9.21,9.21,0,0,0,12,13a2.62,2.62,0,0,1,.12,1.9,3.87,3.87,0,0,0-.82-2.23c-.23-.22-1-.21-1.34-.22a2.34,2.34,0,0,1-.93-1Z"/><path class="cls-1" d="M10.49,11.4a43.94,43.94,0,0,1,12.29,3.75l-1.23-.3a8.7,8.7,0,0,1,2.5,1.85A6,6,0,0,0,22,15.48c.53.43,1,.81,1.51,1.13a8.36,8.36,0,0,1-1.86-1.09l.83.9a19.73,19.73,0,0,0-3.1-2.18l.94,1a26.06,26.06,0,0,0-9.51-3.5c-.09-.13-.17-.26-.27-.39Z"/></g></g></svg>