<svg xmlns="http://www.w3.org/2000/svg" viewBox="0 0 46.24 48.9"><defs><style>.cls-1{fill:#094385;}</style></defs><g id="Layer_2" data-name="Layer 2"><g id="Layer_1-2" data-name="Layer 1"><path class="cls-1" d="M26.1,40.85l4-.76v-3.3l-4,.76Zm-3-25.23a5.27,5.27,0,1,0-5.26-5.27A5.27,5.27,0,0,0,23.12,15.62Zm0-10a4.77,4.77,0,1,1-4.76,4.76A4.77,4.77,0,0,1,23.12,5.59ZM43.75,19.13,34.1,17.31a1,1,0,1,0-.37,2l.41.08V32.51a2.21,2.21,0,0,0-1.24,1.32l-2.46-.49a.67.67,0,0,0-.2,0l-14,2.76L9.32,34.75V20.23l2.79.53a1,1,0,0,0,.37-2L3.62,17.13a3,3,0,0,0-3.62,3V43.46a3.07,3.07,0,0,0,2.49,3l12.69,2.39a3.22,3.22,0,0,0,1.13,0l14.18-2.68,12.13,2.29a3.11,3.11,0,0,0,2.52-.65,3,3,0,0,0,1.1-2.35V22.13A3.05,3.05,0,0,0,43.75,19.13ZM8.32,45.52l-5.46-1a1,1,0,0,1-.86-1V34.33l6.32,1.24Zm0-11L2.14,33.34a.65.65,0,0,0-.14,0V20.13a1.07,1.07,0,0,1,.38-.82,1,1,0,0,1,.87-.22L8.32,20ZM34.14,44.83l-3.46-.65a1.15,1.15,0,0,0-.37,0L16,46.89a1.34,1.34,0,0,1-.4,0L9.32,45.71V35.77L16.1,37.1h.19l14.05-2.76,2.45.48a2.22,2.22,0,0,0,1.35,1.8Zm10.11.63a1,1,0,0,1-.39.81,1.06,1.06,0,0,1-.87.23l-7.36-1.39V36.7A2.22,2.22,0,0,0,37,35.64l7.3,1.43Zm0-9.41-7-1.38v-.1a2.24,2.24,0,0,0-1.59-2.14V19.63l7.75,1.46a1.06,1.06,0,0,1,.87,1Zm-31-20.81,8.18,17.29a1.9,1.9,0,0,0,1.71,1.09,1.92,1.92,0,0,0,1.71-1.09L33,15.25a.78.78,0,0,0,0-.14A10.82,10.82,0,1,0,13.15,15,1.43,1.43,0,0,0,13.23,15.24ZM23.12,2a8.83,8.83,0,0,1,8.82,8.82,9,9,0,0,1-.75,3.58.08.08,0,0,0,0,0l-8,17-8.06-17L15,14.29A8.82,8.82,0,0,1,23.12,2ZM12,33l4,.76v-3.3l-4-.76Z"/></g></g></svg>