<svg xmlns="http://www.w3.org/2000/svg" viewBox="0 0 45.76 44"><defs><style>.cls-1{fill:#094385;fill-rule:evenodd;}</style></defs><g id="Layer_2" data-name="Layer 2"><g id="Layer_1-2" data-name="Layer 1"><path class="cls-1" d="M27.58,3.52l3.27,10L41,13.22h0a4.19,4.19,0,0,1,2.9.9,4.93,4.93,0,0,1,1.54,2.07,4.67,4.67,0,0,1,.25,2.68,5.24,5.24,0,0,1-2,3.12l0,0-8.48,6.2,3.41,9.57a4.17,4.17,0,0,1,0,3,4.9,4.9,0,0,1-1.48,2.1A4.7,4.7,0,0,1,34.61,44,5.3,5.3,0,0,1,31,43l0,0-8.53-6.16-8,6.2a4.17,4.17,0,0,1-2.86,1,4.93,4.93,0,0,1-2.45-.76,4.73,4.73,0,0,1-1.79-2,5.3,5.3,0,0,1-.2-3.71l0,0,3.21-10L2,21.7H2A4.17,4.17,0,0,1,.19,19.3a5,5,0,0,1,0-2.57A4.72,4.72,0,0,1,1.53,14.4,5.27,5.27,0,0,1,5,13.07H5l10.51,0L18.4,3.31A4.19,4.19,0,0,1,20.16.84,4.91,4.91,0,0,1,22.59,0,4.68,4.68,0,0,1,25.22.6a5.26,5.26,0,0,1,2.34,2.89l0,0ZM16.06,20.89a1.62,1.62,0,1,0,2-1.2,1.63,1.63,0,0,0-2,1.2ZM5.28,18.25a.74.74,0,1,0,1.44.35.74.74,0,0,0-1.44-.35Zm2.51.61a.74.74,0,0,0,.54.89.75.75,0,0,0,.9-.55.74.74,0,0,0-.55-.89.73.73,0,0,0-.89.55Zm2.41.57a.74.74,0,1,0,1.44.35.74.74,0,0,0-1.44-.35Zm2.51.61a1.16,1.16,0,1,0,1.4-.86,1.16,1.16,0,0,0-1.4.86Zm6.41,8.81a1.62,1.62,0,1,0-.39-2.26,1.62,1.62,0,0,0,.39,2.26Zm-6.45,9a.74.74,0,1,0,.85-1.21.75.75,0,0,0-1,.18.73.73,0,0,0,.18,1Zm1.48-2.1A.74.74,0,1,0,15,34.57a.73.73,0,0,0-1,.18.74.74,0,0,0,.17,1Zm1.44-2a.74.74,0,0,0,1-.17.76.76,0,0,0-.18-1,.75.75,0,0,0-1,.18.73.73,0,0,0,.18,1Zm1.49-2.11A1.16,1.16,0,1,0,16.8,30a1.15,1.15,0,0,0,.28,1.61Zm10.39-2.57a1.62,1.62,0,1,0-2.23-.54,1.62,1.62,0,0,0,2.23.54Zm5.76,9.49a.74.74,0,0,0-.77-1.27.74.74,0,1,0,.77,1.27Zm-1.35-2.2a.74.74,0,1,0-1-.24.75.75,0,0,0,1,.24Zm-1.29-2.11a.74.74,0,0,0,.24-1,.75.75,0,0,0-1-.25.75.75,0,0,0-.24,1,.75.75,0,0,0,1,.25ZM29.24,32a1.16,1.16,0,1,0-1.6-.38,1.18,1.18,0,0,0,1.6.38Zm1.57-11.35a1.62,1.62,0,1,0-1.17,2,1.63,1.63,0,0,0,1.17-2ZM41.57,18a.73.73,0,0,0-.9-.53A.74.74,0,1,0,41,18.88a.73.73,0,0,0,.53-.9Zm-2.49.64a.73.73,0,0,0-.9-.53.74.74,0,1,0,.9.53Zm-2.4.61a.76.76,0,0,0-.91-.53.74.74,0,0,0,.37,1.44.75.75,0,0,0,.54-.91Zm-2.51.65a1.16,1.16,0,1,0-.84,1.41,1.16,1.16,0,0,0,.84-1.41ZM23.14,15a1.62,1.62,0,1,0,1.67,1.56A1.61,1.61,0,0,0,23.14,15Zm-.36-11.1a.74.74,0,0,0-.71.77.73.73,0,0,0,.76.71.74.74,0,1,0,0-1.48Zm.09,2.58a.74.74,0,0,0-.71.76.75.75,0,0,0,.77.72.75.75,0,0,0,.71-.77.73.73,0,0,0-.77-.71ZM23,9A.75.75,0,0,0,23,10.47a.74.74,0,0,0,.71-.77A.75.75,0,0,0,23,9Zm.1,2.59a1.16,1.16,0,1,0,1.2,1.12,1.17,1.17,0,0,0-1.2-1.12Zm.4,8.34a2.71,2.71,0,1,0,2.71,2.71,2.71,2.71,0,0,0-2.71-2.71Zm5.68-5L25.64,4.19a3.29,3.29,0,0,0-1.42-1.81,2.75,2.75,0,0,0-1.5-.33,3,3,0,0,0-1.42.48,2.12,2.12,0,0,0-.9,1.26l0,.06-3.09,10.5-.22.73h-.76l-11.24,0h0a3.32,3.32,0,0,0-2.16.8,2.66,2.66,0,0,0-.77,1.32,2.93,2.93,0,0,0,0,1.5A2.13,2.13,0,0,0,3.07,20l.05,0,9,6.19.63.43-.24.72L9.1,38.05h0a3.22,3.22,0,0,0,.08,2.3,2.66,2.66,0,0,0,1,1.15,2.85,2.85,0,0,0,1.43.44,2.09,2.09,0,0,0,1.47-.48l0,0,8.68-6.68.6-.47.62.45,9.11,6.58a3.3,3.3,0,0,0,2.22.62,2.66,2.66,0,0,0,1.4-.61,2.9,2.9,0,0,0,.87-1.22,2.15,2.15,0,0,0,0-1.56l0,0L33,28.18l-.26-.72.62-.45,9.07-6.63h0a3.24,3.24,0,0,0,1.28-1.91,2.73,2.73,0,0,0-.14-1.53,3,3,0,0,0-.9-1.2,2.12,2.12,0,0,0-1.48-.47h0l-11,.3-.76,0Z"/></g></g></svg>