<svg xmlns="http://www.w3.org/2000/svg" version="1.1" xmlns:xlink="http://www.w3.org/1999/xlink" xmlns:svgjs="http://svgjs.com/svgjs" width="1440" height="560" preserveAspectRatio="none" viewBox="0 0 1440 560"><g mask="url(&quot;#SvgjsMask1002&quot;)" fill="none"><rect width="1440" height="560" x="0" y="0" fill="rgba(151, 222, 252, 1)"></rect><path d="M0,426.349C81.903,408.921,166.363,413.135,240.56,374.319C319.571,332.985,401.379,281.253,435.125,198.715C468.524,117.027,439.424,25.532,418.186,-60.126C398.746,-138.535,356.573,-204.448,317.62,-275.219C267.559,-366.172,249.281,-487.116,156.995,-534.675C63.441,-582.887,-59.929,-568.412,-151.851,-517.157C-239.173,-468.466,-247.213,-346.484,-313.976,-272.062C-382.537,-195.636,-510.015,-174.791,-545.435,-78.422C-581.744,20.366,-536.583,129.476,-497.477,227.19C-456.855,328.692,-418.277,452.284,-316.779,492.917C-214.538,533.848,-107.718,449.271,0,426.349" fill="#49c5fa"></path><path d="M1440 1254.499C1567.751 1264.185 1641.004 1108.252 1740.349 1027.3519999999999 1827.0439999999999 956.754 1928.597 905.233 1986.412 809.538 2048.587 706.626 2097.751 586.874 2078.133 468.25 2058.643 350.397 1961.22 266.407 1881.8310000000001 177.151 1803.461 89.04000000000002 1733.088-19.99000000000001 1618.631-48.361999999999966 1505.238-76.47000000000003 1393.842-11.022000000000048 1284.078 28.977999999999952 1181.215 66.46300000000002 1077.856 101.988 998.653 177.57100000000003 914.216 258.15 838.175 355.55600000000004 820.904 470.98699999999997 803.595 586.671 839.372 707.471 904.87 804.386 965.486 894.078 1084.716 914.24 1167.561 983.923 1267.534 1068.013 1309.738 1244.6219999999998 1440 1254.499" fill="#e5f7fe"></path></g><defs><mask id="SvgjsMask1002"><rect width="1440" height="560" fill="#ffffff"></rect></mask></defs></svg>