<svg xmlns="http://www.w3.org/2000/svg" version="1.1" xmlns:xlink="http://www.w3.org/1999/xlink" xmlns:svgjs="http://svgjs.com/svgjs" width="1440" height="560" preserveAspectRatio="none" viewBox="0 0 1440 560"><g mask="url(&quot;#SvgjsMask1001&quot;)" fill="none"><rect width="1440" height="560" x="0" y="0" fill="rgba(100, 67, 196, 1)"></rect><path d="M0,642.538C122.567,636.745,148.155,454.74,239.824,373.174C311.916,309.027,429.312,301.708,477.201,217.93C526.061,132.453,494.791,27.465,493.714,-70.985C492.459,-185.767,543.992,-319.508,470.36,-407.57C396.869,-495.463,252.151,-452.479,143.743,-489.543C28.273,-529.021,-64.757,-649.39,-185.516,-631.81C-306.993,-614.126,-410.539,-512.183,-463.022,-401.211C-511.917,-297.826,-437.394,-178.428,-453.488,-65.202C-469.542,47.738,-601.233,149.197,-556.154,253.987C-511.339,358.164,-347.815,331.603,-254.849,396.553C-156.063,465.569,-120.373,648.227,0,642.538" fill="#4e32a0"></path><path d="M1440 1176.995C1554.939 1168.328 1656.23 1109.654 1752.645 1046.4850000000001 1848.316 983.804 1954.289 920.3399999999999 1994.921 813.424 2034.846 708.367 2009.839 587.936 1966.2820000000002 484.332 1928.343 394.09299999999996 1839.6399999999999 342.624 1768.65 275.223 1705.312 215.087 1646.96 155.086 1572.107 110.08499999999998 1474.99 51.69799999999998 1380.512-39.278999999999996 1268.004-25.76400000000001 1154.134-12.086000000000013 1062.63 82.67399999999998 1000.071 178.79899999999998 941.5319999999999 268.747 938.523 380.036 934.12 487.265 930.1030000000001 585.096 950.623 677.388 975.7139999999999 772.032 1005.831 885.636 1006.94 1018.783 1095.51 1096.037 1186.243 1175.176 1319.944 1186.048 1440 1176.995" fill="#856bd1"></path></g><defs><mask id="SvgjsMask1001"><rect width="1440" height="560" fill="#ffffff"></rect></mask></defs></svg>